<?xml version="1.0" encoding="utf-8"?>
<!-- Generator: Adobe Illustrator 15.1.0, SVG Export Plug-In . SVG Version: 6.00 Build 0)  -->
<!DOCTYPE svg PUBLIC "-//W3C//DTD SVG 1.1//EN" "http://www.w3.org/Graphics/SVG/1.1/DTD/svg11.dtd">
<svg version="1.1" id="Layer_34" xmlns="http://www.w3.org/2000/svg" xmlns:xlink="http://www.w3.org/1999/xlink" x="0px" y="0px"
	 width="800px" height="450px" viewBox="0 0 800 450" enable-background="new 0 0 800 450" xml:space="preserve">
<g>
	<path fill="#ED1C24" d="M504.451,266.403c0,28.14-10.964,54.628-30.873,74.506c-19.918,19.905-46.365,30.875-74.505,30.875
		c-28.146,0-54.623-10.969-74.538-30.875c-19.869-19.879-30.826-46.366-30.826-74.506c0-24.366,8.211-47.461,23.31-66.123
		l-93.175-93.16l18.942-18.949l93.538,93.568c18.057-13.43,39.854-20.686,62.75-20.686c28.14,0,54.587,10.963,74.505,30.875
		C493.488,211.814,504.451,238.258,504.451,266.403z M477.68,266.403c0-43.341-35.262-78.604-78.606-78.604
		c-43.354,0-78.601,35.265-78.601,78.604c0,43.314,35.246,78.635,78.601,78.635C442.418,345.037,477.68,309.717,477.68,266.403z"/>
</g>
</svg>
