<?xml version="1.0" encoding="utf-8"?>
<!-- Generator: Adobe Illustrator 15.1.0, SVG Export Plug-In . SVG Version: 6.00 Build 0)  -->
<!DOCTYPE svg PUBLIC "-//W3C//DTD SVG 1.1//EN" "http://www.w3.org/Graphics/SVG/1.1/DTD/svg11.dtd">
<svg version="1.1" id="Layer_33" xmlns="http://www.w3.org/2000/svg" xmlns:xlink="http://www.w3.org/1999/xlink" x="0px" y="0px"
	 width="800px" height="450px" viewBox="0 0 800 450" enable-background="new 0 0 800 450" xml:space="preserve">
<g>
	<path fill="#ED1C24" d="M545.002,247.698v123.908H420.769v-26.754h78.5l-43.085-43.128l-27.606,27.613l-18.931-18.927
		l27.615-27.616l-15.857-15.883c-18.432,14.388-40.966,22.194-64.695,22.194c-28.146,0-54.627-10.973-74.549-30.878
		c-19.869-19.872-30.836-46.364-30.836-74.5c0-28.152,10.967-54.591,30.836-74.484c19.922-19.909,46.403-30.879,74.549-30.879
		c28.141,0,54.585,10.969,74.507,30.879c19.904,19.893,30.879,46.333,30.879,74.484c0,23.526-7.663,45.902-21.826,64.219
		l15.92,15.921l27.587-27.594l18.919,18.922l-27.586,27.598l43.128,43.141v-78.236H545.002L545.002,247.698z M435.321,183.728
		c0-43.353-35.271-78.616-78.611-78.616c-43.358,0-78.608,35.263-78.608,78.616c0,43.313,35.25,78.626,78.608,78.626
		C400.05,262.354,435.321,227.04,435.321,183.728z"/>
</g>
</svg>
