<?xml version="1.0" encoding="utf-8"?>
<!-- Generator: Adobe Illustrator 15.1.0, SVG Export Plug-In . SVG Version: 6.00 Build 0)  -->
<!DOCTYPE svg PUBLIC "-//W3C//DTD SVG 1.1//EN" "http://www.w3.org/Graphics/SVG/1.1/DTD/svg11.dtd">
<svg version="1.1" id="Botoes" xmlns="http://www.w3.org/2000/svg" xmlns:xlink="http://www.w3.org/1999/xlink" x="0px" y="0px"
	 width="190px" height="95px" viewBox="0 0 190 95" enable-background="new 0 0 190 95" xml:space="preserve">
<path fill="#FFFFFF" d="M29.495,53.78H15.553l-2.845,9.105H8.299l11.807-35.753h4.931l11.76,35.753H32.34L29.495,53.78z
	 M28.403,50.32l-5.925-18.921L16.597,50.32H28.403z"/>
<path fill="#FFFFFF" d="M60.649,39.651v22.521c0,3.795-0.813,6.497-2.442,8.109c-1.627,1.616-4.038,2.422-7.23,2.422
	c-3.319,0-6.4-1.155-9.246-3.461l1.233-2.423c1.042,0.854,2.235,1.51,3.579,1.973c1.343,0.457,2.567,0.683,3.675,0.683
	c2.086,0,3.69-0.459,4.813-1.373c1.121-0.919,1.684-2.674,1.684-5.264v-1.662c-2.057,1.582-4.3,2.374-6.734,2.374
	c-2.749,0-4.985-0.986-6.709-2.965c-1.724-1.974-2.583-5.114-2.583-9.412c0-4.552,1.003-7.904,3.011-10.053
	c2.007-2.149,4.78-3.226,8.322-3.226c1.359,0,2.813,0.135,4.361,0.402c1.549,0.271,2.988,0.641,4.316,1.114L60.649,39.651z
	 M53.94,59.827c1.09-0.301,2.014-0.703,2.774-1.21V41.784c-1.327-0.283-2.703-0.426-4.126-0.426c-2.626,0-4.616,0.673-5.975,2.016
	c-1.36,1.343-2.039,3.785-2.039,7.326c0,3.509,0.6,5.981,1.802,7.423c1.2,1.437,2.703,2.156,4.504,2.156
	C51.829,60.276,52.849,60.127,53.94,59.827z"/>
<path fill="#FFFFFF" d="M81.443,59.804c0.965-0.221,2.125-0.554,3.484-0.996l0.617,3.129c-1.55,0.6-2.893,1.043-4.028,1.328
	c-1.14,0.283-2.341,0.426-3.605,0.426c-3.319,0-5.968-1.043-7.941-3.13c-1.976-2.086-2.964-5.377-2.964-9.864
	c0-4.426,0.956-7.656,2.869-9.695s4.465-3.059,7.658-3.059c2.971,0,5.097,0.806,6.375,2.419c1.28,1.612,1.923,3.841,1.923,6.687
	c0,1.771-0.112,3.224-0.332,4.362l-14.414-0.047c0.157,3.319,0.869,5.611,2.133,6.874c1.265,1.266,2.972,1.896,5.121,1.896
	C79.443,60.134,80.479,60.023,81.443,59.804z M73.027,42.662c-1.075,1.122-1.708,3.027-1.897,5.713l10.952-0.143
	c0.064-0.82,0.097-1.5,0.097-2.036c0-1.675-0.374-2.965-1.116-3.865c-0.743-0.902-1.982-1.353-3.721-1.353
	C75.541,40.978,74.102,41.541,73.027,42.662z"/>
<path fill="#FFFFFF" d="M110.273,39.981c1.124,1.36,1.682,3.685,1.682,6.971v15.934h-4.077V47.712c0-1.612-0.14-2.838-0.425-3.674
	c-0.283-0.837-0.742-1.416-1.375-1.729c-0.632-0.316-1.502-0.476-2.608-0.476c-1.075,0-2.174,0.144-3.296,0.427
	c-1.123,0.285-2.412,0.792-3.865,1.519v19.109h-4.076V38.18h4.076v2.845c1.453-1.074,2.828-1.856,4.125-2.346
	c1.297-0.487,2.768-0.733,4.413-0.733C107.343,37.943,109.152,38.622,110.273,39.981z"/>
<path fill="#FFFFFF" d="M138.275,62.173c-1.578,0.443-3.257,0.79-5.026,1.043c-1.771,0.253-3.334,0.379-4.694,0.379
	c-6.825,0-10.241-4.159-10.241-12.475c0-4.552,0.974-7.925,2.917-10.123c1.945-2.196,4.624-3.295,8.035-3.295
	c1.424,0,3.021,0.253,4.79,0.76V24.949h4.174L138.275,62.173z M124.027,58.237c1.218,1.359,2.946,2.039,5.19,2.039
	c1.233,0,2.846-0.206,4.838-0.616V41.501c-1.393-0.35-2.705-0.525-3.937-0.525c-2.496,0-4.441,0.775-5.83,2.325
	c-1.393,1.55-2.086,4.158-2.086,7.823C122.203,54.509,122.808,56.878,124.027,58.237z"/>
<path fill="#FFFFFF" d="M159.307,59.804c0.967-0.221,2.125-0.554,3.484-0.996l0.617,3.129c-1.549,0.6-2.891,1.043-4.027,1.328
	c-1.14,0.283-2.342,0.426-3.605,0.426c-3.319,0-5.968-1.043-7.942-3.13c-1.975-2.086-2.963-5.377-2.963-9.864
	c0-4.426,0.956-7.656,2.869-9.695s4.466-3.059,7.658-3.059c2.973,0,5.097,0.806,6.376,2.419c1.277,1.612,1.923,3.841,1.923,6.687
	c0,1.771-0.113,3.224-0.331,4.362l-14.416-0.047c0.157,3.319,0.871,5.611,2.132,6.874c1.265,1.266,2.974,1.896,5.122,1.896
	C157.308,60.134,158.342,60.023,159.307,59.804z M150.889,42.662c-1.073,1.122-1.706,3.027-1.896,5.713l10.952-0.143
	c0.064-0.82,0.096-1.5,0.096-2.036c0-1.675-0.372-2.965-1.115-3.865c-0.743-0.902-1.982-1.353-3.723-1.353
	C153.401,40.978,151.967,41.541,150.889,42.662z"/>
<path fill="#FFFFFF" d="M182.945,41.927c-1.612,0-3.191,0.244-4.74,0.733c-1.549,0.492-2.891,1.146-4.027,1.969v18.257h-4.077V38.18
	h4.077v3.272c1.168-0.979,2.56-1.801,4.173-2.467c1.614-0.663,3.238-1.01,4.884-1.042L182.945,41.927z"/>
</svg>
