<?xml version="1.0" encoding="utf-8"?>
<!-- Generator: Adobe Illustrator 15.1.0, SVG Export Plug-In . SVG Version: 6.00 Build 0)  -->
<!DOCTYPE svg PUBLIC "-//W3C//DTD SVG 1.1//EN" "http://www.w3.org/Graphics/SVG/1.1/DTD/svg11.dtd">
<svg version="1.1" id="Botoes" xmlns="http://www.w3.org/2000/svg" xmlns:xlink="http://www.w3.org/1999/xlink" x="0px" y="0px"
	 width="320px" height="95px" viewBox="0 0 320 95" enable-background="new 0 0 320 95" xml:space="preserve">
<g>
	<path fill="#FFFFFF" d="M38,53.688H24.06l-2.845,9.105h-4.41l11.808-35.752h4.932l11.759,35.752h-4.457L38,53.688z M36.909,50.228
		l-5.927-18.921l-5.88,18.923h11.807V50.228z"/>
	<path fill="#FFFFFF" d="M70.028,39.889c1.123,1.359,1.684,3.684,1.684,6.972v15.932h-4.076V47.619c0-1.612-0.143-2.838-0.428-3.674
		c-0.284-0.837-0.742-1.417-1.375-1.73c-0.631-0.316-1.501-0.474-2.607-0.474c-1.075,0-2.175,0.143-3.295,0.425
		c-1.124,0.286-2.411,0.792-3.865,1.521v19.11h-4.078V38.089h4.077v2.845c1.453-1.075,2.828-1.858,4.125-2.346
		c1.296-0.489,2.766-0.735,4.41-0.735C67.097,37.852,68.907,38.53,70.028,39.889z"/>
	<path fill="#FFFFFF" d="M98.881,62.08c-1.58,0.443-3.257,0.79-5.025,1.043c-1.771,0.253-3.336,0.378-4.694,0.378
		c-6.827,0-10.242-4.156-10.242-12.473c0-4.552,0.974-7.925,2.917-10.126c1.943-2.195,4.624-3.295,8.037-3.295
		c1.424,0,3.02,0.253,4.789,0.76V24.855h4.175L98.881,62.08z M84.634,58.146c1.217,1.359,2.945,2.039,5.191,2.039
		c1.231,0,2.845-0.207,4.836-0.617V41.409c-1.391-0.35-2.703-0.523-3.936-0.523c-2.498,0-4.441,0.774-5.83,2.323
		c-1.393,1.549-2.087,4.157-2.087,7.824C82.807,54.416,83.417,56.786,84.634,58.146z"/>
	<path fill="#FFFFFF" d="M120.693,41.834c-1.612,0-3.193,0.243-4.741,0.732c-1.549,0.492-2.894,1.146-4.03,1.97v18.256h-4.076
		V38.086h4.076v3.272c1.17-0.977,2.561-1.8,4.175-2.466c1.611-0.663,3.239-1.011,4.883-1.043L120.693,41.834z"/>
	<path fill="#FFFFFF" d="M127.214,60.468c-1.726-2.022-2.584-5.292-2.584-9.813c0-4.458,0.87-7.707,2.608-9.746
		c1.737-2.039,4.44-3.059,8.108-3.059s6.361,1.013,8.083,3.035c1.725,2.023,2.584,5.265,2.584,9.721
		c0,4.458-0.876,7.723-2.631,9.792c-1.755,2.072-4.48,3.105-8.179,3.105C131.598,63.503,128.935,62.493,127.214,60.468z
		 M140.299,57.885c1.059-1.502,1.589-4.055,1.589-7.657c0-2.339-0.215-4.174-0.641-5.5c-0.426-1.329-1.099-2.282-2.015-2.87
		c-0.918-0.586-2.167-0.876-3.747-0.876c-1.644,0-2.956,0.315-3.935,0.947c-0.979,0.632-1.691,1.652-2.133,3.059
		c-0.443,1.406-0.664,3.312-0.664,5.714c0,2.37,0.221,4.245,0.664,5.618c0.442,1.376,1.115,2.356,2.016,2.941
		c0.901,0.584,2.109,0.877,3.627,0.877C137.495,60.138,139.241,59.388,140.299,57.885z"/>
	<path fill="#FFFFFF" d="M171.379,39.56v22.521c0,3.795-0.813,6.497-2.442,8.109c-1.624,1.614-4.037,2.42-7.229,2.42
		c-3.318,0-6.399-1.155-9.244-3.461l1.232-2.42c1.042,0.853,2.233,1.509,3.578,1.97c1.343,0.457,2.569,0.686,3.674,0.686
		c2.088,0,3.69-0.461,4.813-1.375c1.12-0.917,1.683-2.674,1.683-5.262v-1.664c-2.056,1.582-4.301,2.374-6.733,2.374
		c-2.751,0-4.987-0.986-6.709-2.962c-1.725-1.976-2.584-5.116-2.584-9.415c0-4.552,1.004-7.902,3.011-10.051
		c2.009-2.149,4.781-3.226,8.322-3.226c1.359,0,2.816,0.135,4.363,0.402c1.549,0.271,2.986,0.641,4.316,1.113L171.379,39.56z
		 M164.671,59.734c1.092-0.3,2.016-0.703,2.774-1.21V41.69c-1.326-0.282-2.702-0.425-4.125-0.425c-2.626,0-4.618,0.675-5.975,2.019
		c-1.36,1.341-2.039,3.782-2.039,7.326c0,3.508,0.6,5.982,1.802,7.424c1.2,1.436,2.703,2.156,4.504,2.156
		C162.562,60.185,163.578,60.034,164.671,59.734z"/>
	<path fill="#FFFFFF" d="M197.884,38.086l-11.521,34.189h-4.029l3.175-9.482h-0.379l-8.344-24.706h4.457l6.071,20.296l6.401-20.296
		L197.884,38.086L197.884,38.086z"/>
	<path fill="#FFFFFF" d="M221.331,39.889c1.124,1.359,1.683,3.684,1.683,6.972v15.932h-4.076V47.619
		c0-1.612-0.142-2.838-0.426-3.674c-0.284-0.837-0.743-1.417-1.376-1.73c-0.631-0.316-1.503-0.474-2.608-0.474
		c-1.075,0-2.174,0.143-3.296,0.425c-1.122,0.286-2.411,0.792-3.864,1.521v19.11h-4.078V38.089h4.078v2.845
		c1.453-1.075,2.828-1.858,4.126-2.346c1.298-0.489,2.767-0.735,4.411-0.735C218.4,37.852,220.211,38.53,221.331,39.889z"/>
	<path fill="#FFFFFF" d="M232.807,60.468c-1.726-2.022-2.584-5.292-2.584-9.813c0-4.458,0.871-7.707,2.609-9.746
		c1.736-2.039,4.438-3.059,8.106-3.059c3.669,0,6.364,1.013,8.086,3.035c1.723,2.021,2.582,5.265,2.582,9.721
		c0,4.458-0.876,7.723-2.631,9.792c-1.753,2.072-4.478,3.105-8.177,3.105C237.192,63.503,234.528,62.493,232.807,60.468z
		 M245.895,57.885c1.057-1.502,1.586-4.055,1.586-7.657c0-2.339-0.214-4.174-0.639-5.5c-0.426-1.329-1.1-2.282-2.018-2.87
		c-0.917-0.588-2.166-0.876-3.745-0.876c-1.643,0-2.955,0.315-3.934,0.947s-1.692,1.652-2.132,3.059
		c-0.443,1.406-0.667,3.312-0.667,5.714c0,2.37,0.224,4.245,0.667,5.618c0.439,1.376,1.113,2.356,2.014,2.941
		c0.902,0.584,2.111,0.877,3.627,0.877C243.088,60.138,244.834,59.388,245.895,57.885z"/>
	<path fill="#FFFFFF" d="M277.637,38.086v24.706h-4.075v-2.513c-1.296,0.946-2.546,1.642-3.745,2.085
		c-1.203,0.44-2.499,0.664-3.889,0.664c-2.525,0-4.354-0.679-5.474-2.039c-1.124-1.359-1.682-3.681-1.682-6.972V38.086h4.222v15.317
		c0,1.613,0.14,2.846,0.426,3.699c0.282,0.853,0.726,1.438,1.325,1.755c0.601,0.316,1.453,0.475,2.56,0.475
		c1.616,0,3.698-0.62,6.262-1.849V38.089h4.073v-0.003H277.637z"/>
	<path fill="#FFFFFF" d="M286.077,56.106c0.884,1.043,2.103,1.905,3.651,2.585c1.547,0.677,3.049,1.02,4.505,1.02
		c1.483,0,2.71-0.386,3.674-1.163c0.967-0.775,1.446-1.729,1.446-2.868c0-0.855-0.275-1.55-0.829-2.086
		c-0.553-0.537-1.229-0.956-2.036-1.257c-0.807-0.3-1.903-0.64-3.295-1.021c-1.707-0.476-3.068-0.926-4.076-1.353
		c-1.011-0.428-1.88-1.05-2.606-1.875c-0.729-0.82-1.09-1.895-1.09-3.225c0-1.453,0.41-2.709,1.229-3.769
		c0.823-1.06,1.923-1.866,3.295-2.422c1.375-0.554,2.853-0.826,4.431-0.826c1.521,0,2.941,0.236,4.271,0.712
		c1.325,0.475,2.496,1.106,3.509,1.896l-1.231,2.799c-0.949-0.601-1.97-1.075-3.059-1.424c-1.09-0.349-2.16-0.525-3.202-0.525
		c-1.485,0-2.76,0.316-3.816,0.949c-1.061,0.632-1.589,1.47-1.589,2.513c0,0.919,0.425,1.597,1.278,2.039
		c0.854,0.443,2.214,0.884,4.076,1.324c1.802,0.443,3.273,0.887,4.41,1.329c1.137,0.443,2.12,1.153,2.939,2.132
		c0.822,0.977,1.231,2.292,1.231,3.936c0,2.338-0.814,4.204-2.442,5.593c-1.627,1.39-3.723,2.086-6.279,2.086
		c-1.926,0-3.832-0.396-5.716-1.186c-1.881-0.786-3.341-1.893-4.386-3.319L286.077,56.106z"/>
</g>
</svg>
