<?xml version="1.0" encoding="utf-8"?>
<!-- Generator: Adobe Illustrator 15.1.0, SVG Export Plug-In . SVG Version: 6.00 Build 0)  -->
<!DOCTYPE svg PUBLIC "-//W3C//DTD SVG 1.1//EN" "http://www.w3.org/Graphics/SVG/1.1/DTD/svg11.dtd">
<svg version="1.1" id="Botoes" xmlns="http://www.w3.org/2000/svg" xmlns:xlink="http://www.w3.org/1999/xlink" x="0px" y="0px"
	 width="320px" height="95px" viewBox="0 0 320 95" enable-background="new 0 0 320 95" xml:space="preserve">
<path fill="#FFFFFF" d="M28.328,47.354c0.949,1.504,1.423,3.406,1.423,5.715c0,3.351-0.931,5.832-2.799,7.443
	c-1.866,1.613-4.709,2.42-8.532,2.42H7V27.369h9.331c4.108,0,7.066,0.712,8.867,2.133c1.801,1.423,2.702,3.762,2.702,7.018
	c0,1.929-0.331,3.494-0.996,4.694c-0.664,1.202-1.754,2.133-3.272,2.798C25.816,44.739,27.38,45.853,28.328,47.354z M11.077,30.783
	v11.854h5.633c2.688,0,4.576-0.442,5.668-1.327c1.091-0.882,1.635-2.386,1.635-4.505c0-2.148-0.568-3.688-1.707-4.622
	c-1.136-0.936-3.146-1.399-6.021-1.399L11.077,30.783L11.077,30.783z M25.769,52.879c0-2.183-0.674-3.849-2.017-5.004
	c-1.344-1.153-3.55-1.729-6.614-1.729h-6.061v13.182l7.341-0.047C23.319,59.28,25.769,57.147,25.769,52.879z"/>
<path fill="#FFFFFF" d="M33.905,32.089c-0.536-0.524-0.807-1.163-0.807-1.924c0-0.725,0.26-1.343,0.782-1.849
	c0.522-0.504,1.176-0.76,1.968-0.76c0.759,0,1.399,0.256,1.922,0.76c0.521,0.506,0.781,1.139,0.781,1.896
	c0,0.76-0.261,1.393-0.781,1.898c-0.523,0.507-1.163,0.757-1.922,0.757C35.089,32.867,34.442,32.609,33.905,32.089z M33.765,38.228
	h4.076v24.705h-4.076V38.228z"/>
<path fill="#FFFFFF" d="M43.186,56.245c0.885,1.043,2.102,1.904,3.65,2.584c1.548,0.678,3.051,1.021,4.505,1.021
	c1.485,0,2.71-0.389,3.675-1.164c0.963-0.775,1.444-1.73,1.444-2.871c0-0.854-0.276-1.549-0.828-2.082
	c-0.553-0.537-1.232-0.957-2.038-1.258c-0.806-0.301-1.905-0.641-3.296-1.021c-1.706-0.475-3.065-0.924-4.076-1.352
	c-1.013-0.429-1.882-1.052-2.609-1.875c-0.726-0.82-1.089-1.896-1.089-3.227c0-1.453,0.41-2.71,1.231-3.769
	c0.823-1.061,1.921-1.868,3.295-2.421c1.375-0.553,2.853-0.828,4.433-0.828c1.519,0,2.94,0.235,4.269,0.713
	c1.327,0.474,2.497,1.106,3.509,1.896l-1.231,2.8c-0.949-0.6-1.969-1.075-3.059-1.425c-1.091-0.349-2.159-0.524-3.2-0.524
	c-1.487,0-2.761,0.318-3.818,0.949c-1.061,0.633-1.589,1.472-1.589,2.515c0,0.918,0.426,1.596,1.28,2.037s2.212,0.884,4.078,1.324
	c1.801,0.442,3.272,0.887,4.409,1.328c1.138,0.443,2.118,1.153,2.94,2.135c0.822,0.978,1.231,2.291,1.231,3.932
	c0,2.343-0.814,4.207-2.442,5.599c-1.627,1.39-3.723,2.086-6.282,2.086c-1.928,0-3.832-0.396-5.713-1.187
	c-1.882-0.787-3.343-1.896-4.386-3.319L43.186,56.245z"/>
<path fill="#FFFFFF" d="M77.673,59.851c0.964-0.222,2.125-0.555,3.483-0.996l0.618,3.129c-1.549,0.601-2.892,1.043-4.03,1.326
	c-1.138,0.281-2.341,0.426-3.604,0.426c-3.318,0-5.967-1.043-7.942-3.131c-1.975-2.086-2.963-5.373-2.963-9.863
	c0-4.426,0.955-7.656,2.869-9.695c1.913-2.037,4.466-3.057,7.657-3.057c2.973,0,5.098,0.806,6.377,2.419
	c1.279,1.612,1.92,3.84,1.92,6.685c0,1.771-0.11,3.227-0.33,4.361l-14.416-0.047c0.159,3.322,0.87,5.611,2.135,6.875
	c1.263,1.27,2.972,1.896,5.121,1.896C75.674,60.18,76.707,60.069,77.673,59.851z M69.255,42.708
	c-1.075,1.123-1.706,3.027-1.897,5.713l10.952-0.143c0.065-0.82,0.096-1.5,0.096-2.039c0-1.673-0.372-2.961-1.114-3.861
	c-0.743-0.903-1.984-1.353-3.722-1.353C71.771,41.024,70.329,41.587,69.255,42.708z"/>
<path fill="#FFFFFF" d="M99.926,62.933l-5.69-9.199l-5.689,9.199h-4.411l8.015-12.379L84.28,38.23h4.409l5.596,8.962l5.5-8.962
	h4.457L96.37,50.51l7.966,12.425h-4.408v-0.002H99.926z"/>
<path fill="#FFFFFF" d="M126.239,38.228v24.705h-4.076v-2.514c-1.297,0.947-2.545,1.643-3.746,2.086
	c-1.201,0.439-2.497,0.663-3.889,0.663c-2.528,0-4.354-0.681-5.476-2.039c-1.123-1.358-1.682-3.683-1.682-6.97V38.228h4.22v15.314
	c0,1.615,0.143,2.846,0.427,3.699c0.282,0.853,0.726,1.438,1.325,1.754c0.601,0.32,1.453,0.477,2.561,0.477
	c1.614,0,3.699-0.617,6.261-1.85V38.228H126.239z"/>
<path fill="#FFFFFF" d="M145.238,38.843c1.169,0.569,2.039,1.524,2.608,2.869c0.57,1.345,0.854,3.201,0.854,5.574v15.646h-3.604
	v-3.179c-2.15,2.372-4.726,3.56-7.728,3.56c-2.498,0-4.354-0.666-5.572-1.992c-1.217-1.33-1.825-3.002-1.825-5.027
	c0-2.34,0.726-4.178,2.18-5.521c1.453-1.346,3.541-2.016,6.26-2.016h6.308c0-2.057-0.167-3.596-0.498-4.626
	c-0.332-1.025-0.854-1.729-1.566-2.111c-0.712-0.378-1.717-0.57-3.011-0.57c-1.771,0-4.252,0.379-7.445,1.139l-0.712-2.799
	c3.066-1.198,6.086-1.801,9.058-1.801C142.503,37.99,144.07,38.277,145.238,38.843z M144.719,57.335v-5.596h-6.261
	c-1.737,0-2.964,0.422-3.675,1.256c-0.711,0.84-1.064,1.814-1.064,2.922c0,1.23,0.385,2.203,1.161,2.916
	c0.774,0.711,1.825,1.068,3.152,1.068C140.053,59.897,142.283,59.043,144.719,57.335z"/>
<path fill="#FFFFFF" d="M154.662,24.998h4.077v37.935h-4.077V24.998z"/>
<path fill="#FFFFFF" d="M180.775,31.068v13.134h13.736v3.603h-13.736v15.126h-4.172V27.369h19.33v3.698L180.775,31.068
	L180.775,31.068z"/>
<path fill="#FFFFFF" d="M211.598,59.851c0.965-0.222,2.125-0.555,3.484-0.996l0.617,3.129c-1.549,0.601-2.891,1.043-4.029,1.326
	c-1.137,0.281-2.34,0.426-3.605,0.426c-3.318,0-5.969-1.043-7.938-3.131c-1.979-2.086-2.965-5.373-2.965-9.863
	c0-4.426,0.953-7.656,2.869-9.695c1.91-2.037,4.463-3.057,7.656-3.057c2.969,0,5.1,0.806,6.377,2.419
	c1.279,1.612,1.92,3.84,1.92,6.685c0,1.771-0.107,3.227-0.33,4.361l-14.416-0.047c0.158,3.322,0.869,5.611,2.137,6.875
	c1.266,1.27,2.971,1.896,5.121,1.896C209.596,60.18,210.631,60.069,211.598,59.851z M203.18,42.708
	c-1.072,1.123-1.705,3.027-1.895,5.713l10.953-0.143c0.062-0.82,0.092-1.5,0.092-2.039c0-1.673-0.369-2.961-1.113-3.861
	c-0.742-0.903-1.984-1.353-3.721-1.353C205.693,41.024,204.256,41.587,203.18,42.708z"/>
<path fill="#FFFFFF" d="M253.879,40.028c1.123,1.359,1.682,3.684,1.682,6.971v15.934h-4.076V47.757c0-1.612-0.141-2.837-0.426-3.673
	c-0.283-0.836-0.742-1.416-1.375-1.729c-0.633-0.317-1.504-0.475-2.609-0.475c-1.104,0-2.229,0.15-3.365,0.45
	c-1.139,0.303-2.447,0.828-3.938,1.587c0.127,0.79,0.189,1.82,0.189,3.08v15.936h-4.076V47.757c0-1.612-0.141-2.837-0.426-3.673
	c-0.283-0.836-0.744-1.416-1.377-1.729c-0.631-0.317-1.502-0.475-2.607-0.475c-1.074,0-2.174,0.142-3.295,0.425
	c-1.123,0.285-2.412,0.792-3.865,1.521v19.111h-4.078V38.228h4.078v2.843c1.453-1.073,2.828-1.855,4.125-2.344
	c1.299-0.49,2.77-0.736,4.412-0.736c1.644,0,2.986,0.286,4.027,0.854c1.043,0.57,1.82,1.502,2.328,2.797
	c1.641-1.295,3.152-2.229,4.525-2.797c1.375-0.567,2.945-0.854,4.719-0.854C250.947,37.99,252.758,38.668,253.879,40.028z"/>
<path fill="#FFFFFF" d="M274.518,38.843c1.17,0.569,2.039,1.524,2.607,2.869c0.57,1.345,0.854,3.201,0.854,5.574v15.646h-3.604
	v-3.179c-2.15,2.372-4.727,3.56-7.729,3.56c-2.498,0-4.354-0.666-5.572-1.992c-1.217-1.33-1.826-3.002-1.826-5.027
	c0-2.34,0.727-4.178,2.18-5.521c1.455-1.346,3.541-2.016,6.262-2.016h6.309c0-2.057-0.168-3.596-0.5-4.626
	c-0.328-1.025-0.854-1.729-1.562-2.111c-0.713-0.38-1.715-0.57-3.014-0.57c-1.771,0-4.252,0.379-7.441,1.139l-0.713-2.799
	c3.064-1.198,6.084-1.801,9.057-1.801C271.779,37.99,273.346,38.277,274.518,38.843z M273.994,57.335v-5.596h-6.26
	c-1.738,0-2.965,0.422-3.672,1.256c-0.715,0.84-1.068,1.814-1.068,2.922c0,1.23,0.385,2.203,1.16,2.916
	c0.775,0.711,1.824,1.068,3.156,1.068C269.33,59.897,271.562,59.043,273.994,57.335z"/>
<path fill="#FFFFFF" d="M283.938,24.998h4.078v37.935h-4.078V24.998z"/>
<path fill="#FFFFFF" d="M306.615,59.851c0.963-0.222,2.125-0.555,3.484-0.996l0.617,3.129c-1.551,0.601-2.896,1.043-4.031,1.326
	c-1.139,0.281-2.34,0.426-3.604,0.426c-3.319,0-5.968-1.043-7.94-3.131c-1.978-2.086-2.963-5.373-2.963-9.863
	c0-4.426,0.954-7.656,2.868-9.695c1.912-2.037,4.466-3.057,7.655-3.057c2.975,0,5.1,0.806,6.378,2.419
	c1.278,1.612,1.92,3.84,1.92,6.685c0,1.771-0.108,3.227-0.328,4.361l-14.416-0.047c0.158,3.322,0.869,5.611,2.134,6.875
	c1.264,1.27,2.971,1.896,5.123,1.896C304.615,60.18,305.648,60.069,306.615,59.851z M298.197,42.708
	c-1.074,1.123-1.707,3.027-1.896,5.713l10.953-0.143c0.064-0.82,0.094-1.5,0.094-2.039c0-1.673-0.371-2.961-1.115-3.861
	c-0.742-0.903-1.982-1.353-3.721-1.353C300.711,41.024,299.271,41.587,298.197,42.708z"/>
</svg>
