<?xml version="1.0" encoding="utf-8"?>
<!-- Generator: Adobe Illustrator 15.1.0, SVG Export Plug-In . SVG Version: 6.00 Build 0)  -->
<!DOCTYPE svg PUBLIC "-//W3C//DTD SVG 1.1//EN" "http://www.w3.org/Graphics/SVG/1.1/DTD/svg11.dtd">
<svg version="1.1" id="Botoes" xmlns="http://www.w3.org/2000/svg" xmlns:xlink="http://www.w3.org/1999/xlink" x="0px" y="0px"
	 width="320px" height="95px" viewBox="0 0 320 95" enable-background="new 0 0 320 95" xml:space="preserve">
<path fill="#FFFFFF" d="M44.043,47.377c0.949,1.503,1.424,3.406,1.424,5.715c0,3.349-0.933,5.831-2.799,7.443
	c-1.865,1.613-4.71,2.42-8.534,2.42h-13.42V27.392h11.332c4.108,0,7.065,0.711,8.866,2.133c1.802,1.422,2.703,3.762,2.703,7.018
	c0,1.929-0.333,3.494-0.996,4.694c-0.664,1.202-1.755,2.133-3.272,2.798C41.533,44.762,43.095,45.875,44.043,47.377z M24.792,30.805
	v11.854h7.635c2.687,0,4.575-0.442,5.666-1.327c1.091-0.882,1.636-2.386,1.636-4.505c0-2.148-0.569-3.688-1.707-4.623
	c-1.138-0.933-3.146-1.399-6.021-1.399H24.792L24.792,30.805z M41.484,52.901c0-2.182-0.672-3.849-2.015-5.004
	c-1.344-1.153-3.55-1.729-6.614-1.729h-8.061V59.35l9.341-0.047C39.034,59.303,41.484,57.17,41.484,52.901z"/>
<path fill="#FFFFFF" d="M52.204,32.11c-0.537-0.523-0.806-1.163-0.806-1.923c0-0.726,0.261-1.343,0.782-1.849
	c0.521-0.504,1.177-0.76,1.968-0.76c0.759,0,1.399,0.256,1.92,0.76c0.522,0.506,0.782,1.139,0.782,1.896
	c0,0.76-0.26,1.393-0.782,1.898c-0.521,0.507-1.161,0.757-1.92,0.757C53.391,32.89,52.741,32.631,52.204,32.11z M52.063,38.248
	h4.077v24.706h-4.077V38.248z"/>
<path fill="#FFFFFF" d="M63.068,56.268c0.885,1.043,2.102,1.905,3.65,2.585c1.549,0.677,3.051,1.02,4.505,1.02
	c1.485,0,2.71-0.387,3.675-1.163c0.963-0.775,1.446-1.729,1.446-2.871c0-0.853-0.277-1.549-0.829-2.083
	c-0.554-0.537-1.233-0.959-2.039-1.259s-1.904-0.638-3.296-1.02c-1.706-0.475-3.065-0.925-4.077-1.353
	c-1.012-0.425-1.882-1.05-2.607-1.874c-0.728-0.821-1.091-1.896-1.091-3.226c0-1.453,0.41-2.71,1.231-3.769
	c0.822-1.062,1.921-1.868,3.296-2.421s2.853-0.828,4.433-0.828c1.518,0,2.94,0.235,4.269,0.713c1.327,0.474,2.497,1.106,3.509,1.896
	l-1.232,2.799c-0.949-0.6-1.968-1.075-3.059-1.425c-1.091-0.349-2.157-0.524-3.2-0.524c-1.487,0-2.759,0.318-3.817,0.949
	c-1.06,0.633-1.589,1.472-1.589,2.515c0,0.916,0.426,1.596,1.28,2.037c0.854,0.443,2.211,0.886,4.077,1.325
	c1.802,0.443,3.272,0.887,4.411,1.329c1.137,0.443,2.117,1.153,2.939,2.133c0.822,0.978,1.232,2.29,1.232,3.933
	c0,2.342-0.813,4.205-2.442,5.598c-1.628,1.39-3.722,2.086-6.283,2.086c-1.929,0-3.833-0.396-5.713-1.187
	c-1.882-0.79-3.344-1.896-4.387-3.319L63.068,56.268z"/>
<path fill="#FFFFFF" d="M98.136,59.872c0.964-0.221,2.125-0.554,3.484-0.996l0.617,3.129c-1.55,0.6-2.893,1.04-4.031,1.326
	c-1.138,0.282-2.34,0.426-3.604,0.426c-3.319,0-5.968-1.043-7.942-3.13c-1.976-2.086-2.963-5.373-2.963-9.864
	c0-4.426,0.955-7.657,2.869-9.696c1.911-2.037,4.464-3.059,7.656-3.059c2.972,0,5.098,0.807,6.378,2.421
	c1.279,1.612,1.919,3.84,1.919,6.685c0,1.771-0.109,3.225-0.331,4.363L87.774,51.43c0.157,3.321,0.869,5.611,2.134,6.875
	c1.264,1.268,2.972,1.896,5.12,1.896C96.135,60.202,97.172,60.092,98.136,59.872z M89.72,42.73
	c-1.075,1.123-1.706,3.027-1.897,5.713l10.953-0.142c0.063-0.821,0.094-1.5,0.094-2.039c0-1.674-0.371-2.962-1.113-3.862
	c-0.744-0.903-1.984-1.353-3.722-1.353C92.232,41.046,90.792,41.609,89.72,42.73z"/>
<path fill="#FFFFFF" d="M120.971,62.954l-5.69-9.199l-5.69,9.199h-4.41l8.014-12.375l-7.871-12.327h4.41l5.596,8.963l5.5-8.963
	h4.457l-7.872,12.28l7.966,12.424h-4.408V62.954L120.971,62.954z"/>
<path fill="#FFFFFF" d="M148.621,38.248v24.706h-4.077v-2.513c-1.298,0.947-2.546,1.643-3.747,2.086
	c-1.201,0.439-2.497,0.663-3.888,0.663c-2.527,0-4.354-0.68-5.475-2.039c-1.124-1.359-1.684-3.682-1.684-6.97V38.248h4.221v15.316
	c0,1.615,0.143,2.846,0.426,3.699c0.284,0.853,0.728,1.438,1.327,1.755c0.601,0.319,1.453,0.476,2.561,0.476
	c1.613,0,3.698-0.618,6.26-1.849V38.251h4.077L148.621,38.248L148.621,38.248z"/>
<path fill="#FFFFFF" d="M169.204,38.865c1.171,0.569,2.039,1.524,2.609,2.869c0.568,1.345,0.853,3.201,0.853,5.574v15.646h-3.604
	v-3.177c-2.149,2.374-4.725,3.558-7.727,3.558c-2.5,0-4.355-0.666-5.573-1.992c-1.217-1.326-1.825-3.002-1.825-5.025
	c0-2.339,0.727-4.179,2.182-5.523c1.453-1.344,3.539-2.016,6.258-2.016h6.308c0-2.056-0.167-3.596-0.497-4.625
	c-0.333-1.024-0.855-1.729-1.565-2.109c-0.713-0.379-1.719-0.569-3.012-0.569c-1.773,0-4.252,0.379-7.447,1.138l-0.711-2.798
	c3.065-1.2,6.084-1.803,9.057-1.803C166.47,38.012,168.032,38.297,169.204,38.865z M168.682,57.357v-5.595h-6.258
	c-1.739,0-2.965,0.422-3.676,1.256c-0.712,0.839-1.066,1.814-1.066,2.921c0,1.23,0.386,2.203,1.162,2.916
	c0.772,0.711,1.826,1.068,3.152,1.068C164.021,59.919,166.249,59.065,168.682,57.357z"/>
<path fill="#FFFFFF" d="M180.209,25.021h4.078v37.934h-4.078V25.021z"/>
<path fill="#FFFFFF" d="M233.937,62.954l-2.797-29.115l-8.346,24.563h-4.268l-8.394-24.563l-2.702,29.115h-4.173l3.698-35.752h4.41
	l9.246,26.979l9.244-26.979h4.459l3.791,35.752H233.937z"/>
<path fill="#FFFFFF" d="M258.219,38.865c1.169,0.569,2.039,1.524,2.608,2.869c0.571,1.345,0.853,3.201,0.853,5.574v15.646h-3.602
	v-3.177c-2.152,2.374-4.726,3.558-7.728,3.558c-2.499,0-4.357-0.666-5.573-1.992c-1.219-1.326-1.826-3.002-1.826-5.025
	c0-2.339,0.726-4.179,2.181-5.523c1.453-1.344,3.538-2.016,6.258-2.016h6.309c0-2.056-0.168-3.596-0.499-4.625
	c-0.328-1.024-0.854-1.729-1.564-2.109c-0.714-0.379-1.717-0.569-3.012-0.569c-1.771,0-4.253,0.379-7.444,1.138l-0.714-2.798
	c3.067-1.2,6.087-1.803,9.058-1.803C255.483,38.012,257.049,38.297,258.219,38.865z M257.698,57.357v-5.595h-6.261
	c-1.738,0-2.962,0.422-3.675,1.256c-0.71,0.839-1.066,1.814-1.066,2.921c0,1.23,0.387,2.203,1.163,2.916
	c0.774,0.711,1.825,1.068,3.152,1.068C253.034,59.919,255.263,59.065,257.698,57.357z"/>
<path fill="#FFFFFF" d="M269.224,25.021h4.078v37.934h-4.078V25.021z"/>
<path fill="#FFFFFF" d="M293.482,59.872c0.965-0.221,2.125-0.554,3.484-0.996l0.617,3.129c-1.55,0.6-2.893,1.04-4.029,1.326
	c-1.137,0.282-2.339,0.426-3.604,0.426c-3.319,0-5.968-1.043-7.943-3.13c-1.974-2.086-2.962-5.373-2.962-9.864
	c0-4.426,0.956-7.657,2.871-9.696c1.912-2.037,4.465-3.059,7.656-3.059c2.974,0,5.098,0.807,6.375,2.421
	c1.282,1.612,1.922,3.84,1.922,6.685c0,1.771-0.109,3.225-0.329,4.363l-14.415-0.047c0.157,3.321,0.868,5.611,2.131,6.875
	c1.266,1.268,2.974,1.896,5.123,1.896C291.482,60.202,292.519,60.092,293.482,59.872z M285.065,42.73
	c-1.074,1.123-1.706,3.027-1.896,5.713l10.952-0.142c0.063-0.821,0.096-1.5,0.096-2.039c0-1.674-0.372-2.962-1.115-3.862
	c-0.743-0.903-1.983-1.353-3.722-1.353C287.58,41.046,286.142,41.609,285.065,42.73z"/>
</svg>
