<?xml version="1.0" encoding="utf-8"?>
<!-- Generator: Adobe Illustrator 15.1.0, SVG Export Plug-In . SVG Version: 6.00 Build 0)  -->
<!DOCTYPE svg PUBLIC "-//W3C//DTD SVG 1.1//EN" "http://www.w3.org/Graphics/SVG/1.1/DTD/svg11.dtd">
<svg version="1.1" id="Botoes" xmlns="http://www.w3.org/2000/svg" xmlns:xlink="http://www.w3.org/1999/xlink" x="0px" y="0px"
	 width="290px" height="95px" viewBox="0 0 290 95" enable-background="new 0 0 290 95" xml:space="preserve">
<g>
	<path fill="#FFFFFF" d="M72.272,31.093v13.134h16.739v3.603H72.272v15.125h-4.172v-35.56h22.333v3.698H72.272z"/>
	<path fill="#FFFFFF" d="M109.851,59.873c0.967-0.221,2.125-0.554,3.485-0.996l0.616,3.128c-1.549,0.601-2.892,1.043-4.028,1.329
		c-1.139,0.283-2.341,0.427-3.604,0.427c-3.319,0-5.968-1.043-7.943-3.132c-1.975-2.086-2.962-5.371-2.962-9.862
		c0-4.426,0.956-7.657,2.869-9.696c1.912-2.039,4.465-3.059,7.657-3.059c2.973,0,5.098,0.806,6.377,2.419
		c1.278,1.613,1.922,3.841,1.922,6.687c0,1.77-0.113,3.223-0.333,4.362l-14.414-0.047c0.157,3.318,0.87,5.61,2.133,6.874
		c1.264,1.266,2.973,1.896,5.121,1.896C107.852,60.205,108.888,60.095,109.851,59.873z M101.435,42.731
		c-1.074,1.123-1.707,3.026-1.896,5.715l10.952-0.143c0.063-0.821,0.097-1.5,0.097-2.039c0-1.675-0.373-2.963-1.116-3.863
		c-0.743-0.902-1.982-1.353-3.723-1.353C103.947,41.049,102.511,41.61,101.435,42.731z"/>
	<path fill="#FFFFFF" d="M155.134,40.053c1.12,1.359,1.683,3.684,1.683,6.971v15.934h-4.078V47.782c0-1.614-0.143-2.838-0.425-3.675
		c-0.286-0.837-0.743-1.416-1.375-1.729c-0.633-0.317-1.502-0.476-2.608-0.476c-1.107,0-2.227,0.15-3.366,0.45
		c-1.139,0.302-2.449,0.829-3.935,1.589c0.126,0.789,0.189,1.818,0.189,3.081v15.934h-4.077V47.782c0-1.614-0.144-2.838-0.426-3.675
		c-0.286-0.837-0.743-1.416-1.376-1.729c-0.633-0.317-1.502-0.476-2.608-0.476c-1.074,0-2.174,0.143-3.295,0.426
		c-1.123,0.285-2.41,0.792-3.863,1.52v19.108h-4.077V38.251h4.077v2.845c1.453-1.074,2.826-1.856,4.126-2.346
		c1.296-0.49,2.766-0.736,4.408-0.736s2.988,0.286,4.031,0.854c1.043,0.57,1.816,1.502,2.323,2.798
		c1.643-1.296,3.152-2.228,4.527-2.798c1.375-0.567,2.949-0.854,4.717-0.854C152.199,38.013,154.011,38.693,155.134,40.053z"/>
	<path fill="#FFFFFF" d="M178.769,38.866c1.169,0.569,2.039,1.524,2.608,2.869s0.853,3.201,0.853,5.574v15.647h-3.602v-3.179
		c-2.152,2.372-4.728,3.558-7.73,3.558c-2.496,0-4.354-0.665-5.57-1.992c-1.217-1.328-1.826-3.002-1.826-5.027
		c0-2.338,0.727-4.178,2.182-5.521c1.453-1.346,3.539-2.016,6.258-2.016h6.308c0-2.056-0.167-3.596-0.497-4.625
		c-0.332-1.025-0.855-1.729-1.565-2.109c-0.713-0.38-1.716-0.57-3.012-0.57c-1.77,0-4.252,0.38-7.444,1.139l-0.712-2.798
		c3.067-1.2,6.087-1.803,9.059-1.803C176.035,38.013,177.599,38.3,178.769,38.866z M178.248,57.357v-5.595h-6.261
		c-1.736,0-2.963,0.421-3.674,1.257c-0.713,0.839-1.069,1.812-1.069,2.919c0,1.231,0.387,2.203,1.162,2.917
		c0.776,0.71,1.826,1.066,3.152,1.066C173.584,59.919,175.812,59.066,178.248,57.357z"/>
	<path fill="#FFFFFF" d="M191.192,25.021h4.078v37.933h-4.078V25.021z"/>
	<path fill="#FFFFFF" d="M216.868,59.873c0.963-0.221,2.126-0.554,3.485-0.996l0.616,3.128c-1.549,0.601-2.893,1.043-4.031,1.329
		c-1.137,0.283-2.339,0.427-3.603,0.427c-3.321,0-5.967-1.043-7.942-3.132c-1.975-2.086-2.965-5.371-2.965-9.862
		c0-4.426,0.956-7.657,2.868-9.696c1.914-2.039,4.466-3.059,7.659-3.059c2.973,0,5.098,0.806,6.378,2.419
		c1.279,1.613,1.919,3.841,1.919,6.687c0,1.77-0.109,3.223-0.331,4.362l-14.415-0.047c0.16,3.318,0.871,5.61,2.135,6.874
		c1.264,1.266,2.971,1.896,5.122,1.896C214.869,60.205,215.902,60.095,216.868,59.873z M208.452,42.731
		c-1.076,1.123-1.709,3.026-1.896,5.715l10.952-0.143c0.063-0.821,0.094-1.5,0.094-2.039c0-1.675-0.37-2.963-1.113-3.863
		c-0.743-0.902-1.985-1.353-3.723-1.353C210.964,41.049,209.525,41.61,208.452,42.731z"/>
</g>
</svg>
