<?xml version="1.0" encoding="utf-8"?>
<!-- Generator: Adobe Illustrator 15.1.0, SVG Export Plug-In . SVG Version: 6.00 Build 0)  -->
<!DOCTYPE svg PUBLIC "-//W3C//DTD SVG 1.1//EN" "http://www.w3.org/Graphics/SVG/1.1/DTD/svg11.dtd">
<svg version="1.1" id="Botoes" xmlns="http://www.w3.org/2000/svg" xmlns:xlink="http://www.w3.org/1999/xlink" x="0px" y="0px"
	 width="190px" height="95px" viewBox="0 0 190 95" enable-background="new 0 0 190 95" xml:space="preserve">
<g>
	<path fill="#FFFFFF" d="M83.812,61.005c-2.179,1.014-4.007,1.699-5.475,2.064c-1.471,0.363-3.074,0.546-4.814,0.546
		c-5.47,0-9.435-1.472-11.902-4.41c-2.466-2.94-3.698-7.585-3.698-13.939c0-6.449,1.219-11.158,3.65-14.13
		c2.435-2.972,6.227-4.458,11.381-4.458c1.801,0,3.5,0.197,5.097,0.594c1.595,0.396,3.23,1.052,4.906,1.969l-1.042,3.27
		c-1.578-0.82-2.995-1.421-4.242-1.8c-1.249-0.379-2.713-0.57-4.385-0.57c-2.626,0-4.742,0.514-6.354,1.54
		c-1.614,1.028-2.798,2.648-3.559,4.861c-0.759,2.213-1.137,5.137-1.137,8.774c0,3.508,0.363,6.307,1.091,8.393
		c0.725,2.084,1.895,3.619,3.509,4.599c1.613,0.978,3.794,1.47,6.544,1.47c2.307,0,4.505-0.363,6.589-1.09V48.11h-8.06v-3.508H83.81
		v16.402H83.812z"/>
	<path fill="#FFFFFF" d="M103.494,38.862c1.172,0.57,2.037,1.525,2.609,2.87s0.854,3.201,0.854,5.575v15.646h-3.604v-3.178
		c-2.15,2.373-4.725,3.558-7.727,3.558c-2.498,0-4.356-0.666-5.574-1.992c-1.217-1.327-1.825-3.003-1.825-5.025
		c0-2.339,0.725-4.179,2.18-5.524c1.455-1.344,3.539-2.016,6.26-2.016h6.307c0-2.055-0.168-3.595-0.498-4.624
		c-0.33-1.025-0.855-1.729-1.566-2.109c-0.713-0.379-1.715-0.57-3.012-0.57c-1.77,0-4.251,0.38-7.444,1.139l-0.713-2.798
		c3.068-1.2,6.086-1.803,9.059-1.803C100.764,38.009,102.328,38.296,103.494,38.862z M102.977,57.354v-5.595h-6.26
		c-1.738,0-2.965,0.421-3.676,1.258c-0.714,0.838-1.069,1.812-1.069,2.918c0,1.232,0.386,2.203,1.162,2.918
		c0.775,0.71,1.825,1.066,3.152,1.066C98.311,59.917,100.537,59.062,102.977,57.354z"/>
	<path fill="#FFFFFF" d="M132.046,38.246l-11.525,34.188h-4.027l3.176-9.482h-0.377l-8.344-24.705h4.455l6.07,20.294l6.402-20.294
		L132.046,38.246L132.046,38.246z"/>
</g>
</svg>
