<?xml version="1.0" encoding="utf-8"?>
<!-- Generator: Adobe Illustrator 15.1.0, SVG Export Plug-In . SVG Version: 6.00 Build 0)  -->
<!DOCTYPE svg PUBLIC "-//W3C//DTD SVG 1.1//EN" "http://www.w3.org/Graphics/SVG/1.1/DTD/svg11.dtd">
<svg version="1.1" id="Botoes" xmlns="http://www.w3.org/2000/svg" xmlns:xlink="http://www.w3.org/1999/xlink" x="0px" y="0px"
	 width="290px" height="95px" viewBox="0 0 290 95" enable-background="new 0 0 290 95" xml:space="preserve">
<g>
	<path fill="#FFFFFF" d="M41.092,27.392v35.562h-4.175V46.595H20.039v16.359h-4.172V27.392h4.172v15.504h16.879V27.392H41.092z"/>
	<path fill="#FFFFFF" d="M61.366,59.87c0.966-0.221,2.126-0.554,3.485-0.996l0.616,3.128c-1.549,0.601-2.892,1.043-4.028,1.329
		c-1.139,0.283-2.341,0.427-3.604,0.427c-3.319,0-5.968-1.043-7.942-3.132c-1.976-2.086-2.964-5.371-2.964-9.862
		c0-4.426,0.957-7.657,2.87-9.696s4.465-3.059,7.657-3.059c2.972,0,5.097,0.806,6.376,2.419c1.28,1.613,1.923,3.841,1.923,6.687
		c0,1.77-0.112,3.223-0.332,4.362L51.009,51.43c0.156,3.318,0.869,5.61,2.132,6.874c1.264,1.266,2.973,1.896,5.122,1.896
		C59.367,60.202,60.402,60.092,61.366,59.87z M52.949,42.729c-1.073,1.123-1.706,3.026-1.896,5.715l10.953-0.143
		c0.062-0.821,0.095-1.5,0.095-2.039c0-1.675-0.373-2.963-1.115-3.863c-0.743-0.902-1.982-1.353-3.723-1.353
		C55.463,41.046,54.026,41.607,52.949,42.729z"/>
	<path fill="#FFFFFF" d="M84.392,62.809c-1.453,0.317-2.782,0.475-3.982,0.475c-3.161,0-5.374-0.829-6.639-2.488
		c-1.264-1.66-1.896-4.26-1.896-7.8v-11.76h-2.985v-2.987h2.985v-6.354h3.935v6.354h6.924v2.987h-6.924v11.807
		c0,1.834,0.183,3.265,0.546,4.29c0.364,1.028,0.949,1.756,1.754,2.181c0.806,0.427,1.905,0.641,3.297,0.641
		c0.475,0,1.279-0.063,2.417-0.19L84.392,62.809z"/>
	<path fill="#FFFFFF" d="M101.063,59.87c0.966-0.221,2.125-0.554,3.484-0.996l0.617,3.128c-1.55,0.601-2.892,1.043-4.028,1.329
		c-1.14,0.283-2.342,0.427-3.605,0.427c-3.319,0-5.968-1.043-7.942-3.132c-1.976-2.086-2.963-5.371-2.963-9.862
		c0-4.426,0.956-7.657,2.869-9.696s4.465-3.059,7.657-3.059c2.973,0,5.098,0.806,6.377,2.419s1.923,3.841,1.923,6.687
		c0,1.77-0.113,3.223-0.333,4.362L90.705,51.43c0.157,3.318,0.87,5.61,2.132,6.874c1.264,1.266,2.973,1.896,5.122,1.896
		C99.063,60.202,100.101,60.092,101.063,59.87z M92.647,42.729c-1.073,1.123-1.706,3.026-1.896,5.715l10.952-0.143
		c0.063-0.821,0.096-1.5,0.096-2.039c0-1.675-0.373-2.963-1.116-3.863c-0.742-0.902-1.981-1.353-3.722-1.353
		C95.159,41.046,93.723,41.607,92.647,42.729z"/>
	<path fill="#FFFFFF" d="M124.136,41.995c-1.612,0-3.191,0.243-4.741,0.733c-1.549,0.492-2.892,1.146-4.028,1.969v18.257h-4.077
		V38.248h4.077v3.271c1.168-0.979,2.56-1.8,4.173-2.466c1.613-0.663,3.238-1.01,4.884-1.043L124.136,41.995z"/>
	<path fill="#FFFFFF" d="M129.239,60.628c-1.724-2.024-2.586-5.293-2.586-9.814c0-4.458,0.87-7.706,2.609-9.745
		c1.738-2.038,4.441-3.059,8.109-3.059c3.666,0,6.361,1.013,8.083,3.035c1.722,2.021,1.168,5.264,1.168,9.719
		c0,4.459,0.538,7.724-1.215,9.792c-1.755,2.073-4.48,3.105-8.179,3.105C133.623,63.661,130.962,62.653,129.239,60.628z
		 M142.326,58.046c1.058-1.502,1.586-4.055,1.586-7.658c0-2.338-0.214-4.176-0.64-5.501c-0.426-1.328-1.097-2.282-2.014-2.869
		c-0.919-0.585-2.166-0.875-3.748-0.875c-1.642,0-2.955,0.313-3.935,0.946c-0.979,0.633-1.691,1.652-2.132,3.06
		c-0.443,1.406-0.664,3.312-0.664,5.714c0,2.369,0.221,4.244,0.664,5.618c0.44,1.376,1.113,2.355,2.016,2.941
		c0.9,0.583,2.11,0.876,3.626,0.876C139.521,60.298,141.268,59.548,142.326,58.046z"/>
	<path fill="#FFFFFF" d="M153.258,56.265c0.887,1.043,2.104,1.906,3.652,2.585c1.549,0.68,3.051,1.02,4.504,1.02
		c1.486,0,2.711-0.386,3.676-1.162c0.963-0.773,1.445-1.729,1.445-2.869c0-0.853-0.275-1.549-0.828-2.086
		c-0.555-0.536-1.234-0.956-2.039-1.256c-0.807-0.3-1.906-0.64-3.297-1.02c-1.705-0.474-3.064-0.926-4.078-1.353
		c-1.01-0.427-1.877-1.05-2.607-1.873c-0.727-0.821-1.09-1.896-1.09-3.226c0-1.453,0.41-2.71,1.232-3.77s1.924-1.865,3.295-2.419
		c1.377-0.554,2.854-0.829,4.436-0.829c1.516,0,2.938,0.236,4.268,0.713c1.326,0.474,2.496,1.106,3.508,1.896l-1.23,2.798
		c-0.949-0.6-1.971-1.074-3.061-1.422c-1.088-0.35-2.158-0.524-3.201-0.524c-1.484,0-2.76,0.317-3.816,0.949
		c-1.059,0.633-1.588,1.471-1.588,2.514c0,0.916,0.426,1.596,1.279,2.039c0.854,0.442,2.213,0.886,4.078,1.326
		c1.803,0.441,3.271,0.885,4.408,1.328c1.139,0.441,2.119,1.152,2.941,2.131c0.82,0.98,1.232,2.293,1.232,3.936
		c0,2.342-0.816,4.205-2.441,5.597c-1.629,1.39-3.723,2.086-6.283,2.086c-1.93,0-3.832-0.396-5.715-1.186
		c-1.879-0.79-3.342-1.896-4.385-3.319L153.258,56.265z"/>
	<path fill="#FFFFFF" d="M188.329,59.87c0.965-0.221,2.125-0.554,3.484-0.996l0.617,3.128c-1.549,0.601-2.893,1.043-4.029,1.329
		c-1.139,0.283-2.342,0.427-3.604,0.427c-3.32,0-5.969-1.043-7.943-3.132c-1.975-2.086-2.963-5.371-2.963-9.862
		c0-4.426,0.957-7.657,2.869-9.696s4.465-3.059,7.656-3.059c2.973,0,5.098,0.806,6.377,2.419c1.281,1.613,1.922,3.841,1.922,6.687
		c0,1.77-0.111,3.223-0.33,4.362L177.97,51.43c0.156,3.318,0.871,5.61,2.133,6.874c1.264,1.266,2.973,1.896,5.121,1.896
		C186.329,60.202,187.366,60.092,188.329,59.87z M179.913,42.729c-1.074,1.123-1.707,3.026-1.896,5.715l10.953-0.143
		c0.064-0.821,0.096-1.5,0.096-2.039c0-1.675-0.373-2.963-1.115-3.863c-0.744-0.902-1.984-1.353-3.723-1.353
		C182.425,41.046,180.989,41.607,179.913,42.729z"/>
	<path fill="#FFFFFF" d="M211.166,62.954l-5.691-9.199l-5.688,9.199h-4.412l8.014-12.378l-7.871-12.327h4.41l5.596,8.962
		l5.498-8.962h4.459l-7.871,12.28l7.967,12.425H211.166L211.166,62.954z"/>
	<path fill="#FFFFFF" d="M238.813,38.248v24.706h-4.076v-2.513c-1.299,0.945-2.545,1.642-3.748,2.085
		c-1.199,0.439-2.496,0.664-3.887,0.664c-2.527,0-4.355-0.68-5.475-2.039c-1.123-1.359-1.684-3.682-1.684-6.972V38.248h4.221v15.316
		c0,1.612,0.143,2.846,0.426,3.698c0.283,0.854,0.727,1.439,1.33,1.756c0.6,0.316,1.453,0.474,2.559,0.474
		c1.613,0,3.699-0.616,6.26-1.85V38.248H238.813z"/>
	<path fill="#FFFFFF" d="M259.396,38.863c1.17,0.569,2.039,1.524,2.609,2.869c0.568,1.345,0.854,3.201,0.854,5.574v15.647h-3.604
		v-3.179c-2.15,2.372-4.727,3.558-7.729,3.558c-2.496,0-4.355-0.665-5.572-1.992c-1.217-1.328-1.824-3.002-1.824-5.027
		c0-2.338,0.725-4.178,2.182-5.521c1.453-1.346,3.539-2.016,6.258-2.016h6.307c0-2.056-0.166-3.596-0.496-4.625
		c-0.332-1.025-0.857-1.729-1.566-2.109c-0.713-0.38-1.717-0.57-3.012-0.57c-1.77,0-4.252,0.38-7.443,1.139l-0.713-2.798
		c3.068-1.2,6.086-1.803,9.059-1.803C256.664,38.01,258.227,38.297,259.396,38.863z M258.877,57.354V51.76h-6.26
		c-1.738,0-2.963,0.421-3.674,1.257c-0.713,0.839-1.07,1.812-1.07,2.919c0,1.231,0.387,2.203,1.164,2.917
		c0.773,0.71,1.824,1.066,3.152,1.066C254.213,59.916,256.441,59.063,258.877,57.354z"/>
	<path fill="#FFFFFF" d="M270.403,25.019h4.078v37.933h-4.078V25.019z"/>
</g>
</svg>
