<?xml version="1.0" encoding="utf-8"?>
<!-- Generator: Adobe Illustrator 15.1.0, SVG Export Plug-In . SVG Version: 6.00 Build 0)  -->
<!DOCTYPE svg PUBLIC "-//W3C//DTD SVG 1.1//EN" "http://www.w3.org/Graphics/SVG/1.1/DTD/svg11.dtd">
<svg version="1.1" id="Botoes" xmlns="http://www.w3.org/2000/svg" xmlns:xlink="http://www.w3.org/1999/xlink" x="0px" y="0px"
	 width="290px" height="95px" viewBox="0 0 290 95" enable-background="new 0 0 290 95" xml:space="preserve">
<g>
	<path fill="#FFFFFF" d="M66.967,27.393h4.173v35.562h-4.173V27.393z"/>
	<path fill="#FFFFFF" d="M96.774,40.051c1.123,1.36,1.682,3.685,1.682,6.972v15.932h-4.077V47.782c0-1.613-0.141-2.839-0.426-3.675
		c-0.283-0.837-0.743-1.416-1.374-1.729c-0.633-0.317-1.503-0.477-2.609-0.477c-1.075,0-2.174,0.144-3.295,0.427
		c-1.123,0.285-2.412,0.792-3.865,1.519v19.108h-4.078V38.249h4.078v2.845c1.453-1.073,2.828-1.855,4.125-2.346
		c1.298-0.49,2.767-0.735,4.412-0.735C93.842,38.013,95.65,38.693,96.774,40.051z"/>
	<path fill="#FFFFFF" d="M118.85,62.812c-1.453,0.318-2.782,0.475-3.981,0.475c-3.162,0-5.375-0.829-6.64-2.488
		c-1.264-1.66-1.896-4.259-1.896-7.801V41.238h-2.985V38.25h2.985v-6.354h3.935v6.354h6.925v2.988h-6.925v11.806
		c0,1.836,0.184,3.266,0.547,4.292c0.363,1.027,0.949,1.755,1.753,2.181c0.807,0.426,1.906,0.639,3.298,0.639
		c0.474,0,1.279-0.063,2.417-0.188L118.85,62.812z"/>
	<path fill="#FFFFFF" d="M135.521,59.873c0.966-0.222,2.125-0.554,3.485-0.996l0.616,3.128c-1.549,0.6-2.892,1.043-4.028,1.328
		c-1.139,0.284-2.342,0.427-3.604,0.427c-3.319,0-5.968-1.043-7.943-3.131c-1.976-2.086-2.963-5.372-2.963-9.862
		c0-4.426,0.957-7.657,2.869-9.696c1.913-2.039,4.466-3.059,7.657-3.059c2.973,0,5.098,0.806,6.377,2.419
		c1.279,1.612,1.923,3.841,1.923,6.687c0,1.77-0.113,3.223-0.332,4.361l-14.415-0.047c0.157,3.319,0.87,5.611,2.132,6.874
		c1.265,1.268,2.973,1.896,5.122,1.896C133.522,60.202,134.559,60.092,135.521,59.873z M127.106,42.731
		c-1.074,1.122-1.707,3.027-1.896,5.715l10.952-0.144c0.064-0.82,0.097-1.5,0.097-2.039c0-1.674-0.374-2.963-1.116-3.863
		c-0.743-0.902-1.982-1.352-3.723-1.352C129.617,41.047,128.181,41.61,127.106,42.731z"/>
	<path fill="#FFFFFF" d="M158.594,41.996c-1.613,0-3.191,0.244-4.742,0.734c-1.549,0.491-2.891,1.146-4.027,1.969v18.255h-4.078
		V38.249h4.078v3.272c1.168-0.979,2.559-1.8,4.172-2.467c1.613-0.663,3.238-1.01,4.883-1.042L158.594,41.996z"/>
	<path fill="#FFFFFF" d="M162.345,56.269c0.887,1.043,2.102,1.905,3.652,2.584c1.549,0.68,3.051,1.021,4.504,1.021
		c1.486,0,2.709-0.386,3.676-1.163c0.963-0.774,1.445-1.729,1.445-2.869c0-0.854-0.277-1.55-0.83-2.086s-1.232-0.957-2.039-1.257
		s-1.904-0.639-3.295-1.02c-1.707-0.474-3.066-0.926-4.076-1.353c-1.012-0.426-1.879-1.05-2.609-1.872
		c-0.725-0.82-1.09-1.896-1.09-3.226c0-1.454,0.412-2.71,1.232-3.77c0.822-1.06,1.922-1.866,3.295-2.419
		c1.375-0.554,2.852-0.829,4.434-0.829c1.518,0,2.939,0.235,4.268,0.712c1.328,0.475,2.496,1.107,3.51,1.896l-1.23,2.798
		c-0.949-0.6-1.971-1.075-3.061-1.423c-1.088-0.35-2.158-0.523-3.201-0.523c-1.484,0-2.76,0.317-3.816,0.949
		c-1.061,0.633-1.588,1.471-1.588,2.514c0,0.915,0.426,1.595,1.277,2.038c0.854,0.443,2.213,0.886,4.078,1.326
		c1.803,0.443,3.273,0.887,4.41,1.328c1.139,0.443,2.117,1.154,2.941,2.133c0.82,0.979,1.232,2.291,1.232,3.934
		c0,2.342-0.816,4.205-2.443,5.598c-1.629,1.39-3.721,2.086-6.283,2.086c-1.928,0-3.832-0.396-5.713-1.187s-3.344-1.896-4.387-3.318
		L162.345,56.269z"/>
	<path fill="#FFFFFF" d="M197.416,59.873c0.965-0.222,2.125-0.554,3.484-0.996l0.617,3.128c-1.551,0.6-2.893,1.043-4.029,1.328
		c-1.139,0.284-2.342,0.427-3.605,0.427c-3.318,0-5.967-1.043-7.943-3.131c-1.975-2.086-2.961-5.372-2.961-9.862
		c0-4.426,0.955-7.657,2.867-9.696c1.914-2.039,4.467-3.059,7.658-3.059c2.975,0,5.098,0.806,6.377,2.419
		c1.279,1.612,1.924,3.841,1.924,6.687c0,1.77-0.115,3.223-0.332,4.361l-14.416-0.047c0.158,3.319,0.871,5.611,2.133,6.874
		c1.264,1.268,2.973,1.896,5.121,1.896C195.416,60.202,196.451,60.092,197.416,59.873z M188.998,42.731
		c-1.072,1.122-1.705,3.027-1.895,5.715l10.951-0.144c0.064-0.82,0.096-1.5,0.096-2.039c0-1.674-0.371-2.963-1.115-3.863
		c-0.742-0.902-1.982-1.352-3.723-1.352C191.512,41.047,190.074,41.61,188.998,42.731z"/>
	<path fill="#FFFFFF" d="M220.251,62.954l-5.689-9.199l-5.689,9.199h-4.41l8.014-12.375l-7.871-12.329h4.408l5.598,8.963
		l5.498-8.963h4.457l-7.869,12.282l7.967,12.424h-4.412V62.954z"/>
</g>
</svg>
