<?xml version="1.0" encoding="utf-8"?>
<!-- Generator: Adobe Illustrator 15.1.0, SVG Export Plug-In . SVG Version: 6.00 Build 0)  -->
<!DOCTYPE svg PUBLIC "-//W3C//DTD SVG 1.1//EN" "http://www.w3.org/Graphics/SVG/1.1/DTD/svg11.dtd">
<svg version="1.1" id="Botoes" xmlns="http://www.w3.org/2000/svg" xmlns:xlink="http://www.w3.org/1999/xlink" x="0px" y="0px"
	 width="190px" height="95px" viewBox="0 0 190 95" enable-background="new 0 0 190 95" xml:space="preserve">
<g>
	<path fill="#FFFFFF" d="M40.455,59.35v3.604H19.45V27.394h4.126V59.35H40.455z"/>
	<path fill="#FFFFFF" d="M57.6,59.872c0.964-0.22,2.126-0.553,3.485-0.996l0.616,3.129c-1.549,0.601-2.892,1.043-4.03,1.329
		c-1.136,0.282-2.339,0.426-3.603,0.426c-3.32,0-5.968-1.043-7.942-3.13c-1.976-2.086-2.963-5.376-2.963-9.864
		c0-4.425,0.955-7.656,2.869-9.695c1.911-2.038,4.464-3.059,7.657-3.059c2.971,0,5.098,0.807,6.377,2.42
		c1.279,1.612,1.92,3.841,1.92,6.685c0,1.771-0.11,3.225-0.33,4.363L47.24,51.433c0.158,3.318,0.869,5.611,2.134,6.874
		c1.264,1.266,2.972,1.896,5.122,1.896C55.601,60.203,56.636,60.093,57.6,59.872z M49.183,42.731
		c-1.075,1.124-1.706,3.028-1.896,5.713l10.953-0.142c0.062-0.821,0.095-1.499,0.095-2.036c0-1.675-0.372-2.965-1.115-3.865
		c-0.743-0.902-1.983-1.353-3.723-1.353C51.697,41.048,50.257,41.611,49.183,42.731z"/>
	<path fill="#FFFFFF" d="M67.255,56.268c0.883,1.043,2.101,1.905,3.65,2.585c1.548,0.68,3.05,1.02,4.504,1.02
		c1.485,0,2.712-0.387,3.675-1.162c0.965-0.773,1.446-1.729,1.446-2.869c0-0.853-0.276-1.549-0.829-2.086
		c-0.554-0.536-1.232-0.956-2.039-1.256c-0.806-0.3-1.903-0.64-3.295-1.02c-1.707-0.476-3.066-0.926-4.077-1.353
		c-1.01-0.429-1.88-1.05-2.607-1.875c-0.729-0.82-1.091-1.895-1.091-3.224c0-1.454,0.411-2.711,1.232-3.771
		c0.822-1.06,1.922-1.866,3.296-2.419c1.375-0.553,2.853-0.829,4.433-0.829c1.518,0,2.939,0.236,4.269,0.713
		c1.326,0.474,2.496,1.106,3.509,1.896l-1.232,2.799c-0.949-0.601-1.969-1.075-3.06-1.424c-1.089-0.349-2.157-0.522-3.2-0.522
		c-1.486,0-2.759,0.316-3.816,0.949c-1.061,0.63-1.59,1.47-1.59,2.513c0,0.916,0.427,1.596,1.28,2.038
		c0.854,0.442,2.212,0.883,4.077,1.323c1.802,0.443,3.272,0.887,4.411,1.329c1.136,0.443,2.117,1.153,2.938,2.133
		s1.232,2.292,1.232,3.936c0,2.341-0.815,4.204-2.441,5.597c-1.629,1.39-3.723,2.086-6.282,2.086c-1.927,0-3.833-0.396-5.714-1.186
		c-1.881-0.79-3.343-1.896-4.387-3.32L67.255,56.268z"/>
	<path fill="#FFFFFF" d="M107.064,40.979c1.724,1.976,2.582,5.111,2.582,9.411c0,4.552-1.003,7.9-3.012,10.053
		c-2.006,2.148-4.778,3.226-8.32,3.226c-1.359,0-2.816-0.132-4.364-0.403c-1.551-0.271-2.986-0.639-4.315-1.116v-0.046l0.049-37.076
		h4.078v15.267c1.989-1.517,4.188-2.275,6.59-2.275C103.105,38.014,105.34,39.002,107.064,40.979z M103.722,58.189
		c1.36-1.345,2.039-3.785,2.039-7.326c0-3.509-0.6-5.979-1.802-7.42c-1.203-1.441-2.703-2.159-4.508-2.159
		c-0.881,0-1.865,0.15-2.937,0.45c-1.076,0.303-1.993,0.674-2.75,1.116v16.975c1.357,0.254,2.685,0.373,3.98,0.373
		C100.37,60.203,102.362,59.532,103.722,58.189z"/>
	<path fill="#FFFFFF" d="M115.486,32.111c-0.537-0.522-0.808-1.163-0.808-1.922c0-0.727,0.264-1.343,0.783-1.85
		c0.523-0.504,1.178-0.759,1.969-0.759c0.76,0,1.398,0.255,1.92,0.759c0.525,0.507,0.783,1.14,0.783,1.896
		c0,0.759-0.262,1.392-0.783,1.898c-0.52,0.506-1.16,0.757-1.92,0.757S116.024,32.633,115.486,32.111z M115.346,38.249h4.075v24.705
		h-4.075V38.249z"/>
	<path fill="#FFFFFF" d="M139.91,38.866c1.171,0.57,2.039,1.525,2.609,2.869c0.567,1.346,0.854,3.202,0.854,5.573v15.647h-3.604
		v-3.175c-2.149,2.372-4.728,3.558-7.728,3.558c-2.497,0-4.354-0.666-5.573-1.992c-1.218-1.329-1.825-3.002-1.825-5.027
		c0-2.339,0.726-4.179,2.179-5.521c1.453-1.346,3.542-2.016,6.261-2.016h6.305c0-2.055-0.164-3.595-0.497-4.626
		c-0.332-1.024-0.854-1.727-1.565-2.11c-0.711-0.376-1.714-0.569-3.01-0.569c-1.771,0-4.252,0.379-7.446,1.139l-0.71-2.799
		c3.065-1.199,6.084-1.802,9.057-1.802C137.176,38.014,138.742,38.299,139.91,38.866z M139.389,57.357v-5.595h-6.258
		c-1.738,0-2.965,0.42-3.675,1.257c-0.71,0.839-1.069,1.812-1.069,2.918c0,1.232,0.387,2.203,1.165,2.917
		c0.773,0.712,1.823,1.069,3.152,1.069C134.727,59.919,136.955,59.066,139.389,57.357z"/>
	<path fill="#FFFFFF" d="M169.008,40.052c1.122,1.36,1.682,3.685,1.682,6.971v15.932h-4.077V47.781c0-1.611-0.143-2.837-0.424-3.673
		c-0.286-0.836-0.743-1.416-1.376-1.729c-0.632-0.316-1.503-0.475-2.608-0.475c-1.074,0-2.173,0.142-3.296,0.426
		c-1.122,0.285-2.409,0.792-3.862,1.519v19.108h-4.078V38.249h4.078v2.846c1.453-1.074,2.824-1.856,4.125-2.346
		c1.296-0.487,2.767-0.733,4.41-0.733C166.073,38.014,167.886,38.692,169.008,40.052z"/>
</g>
</svg>
