<?xml version="1.0" encoding="utf-8"?>
<!-- Generator: Adobe Illustrator 15.1.0, SVG Export Plug-In . SVG Version: 6.00 Build 0)  -->
<!DOCTYPE svg PUBLIC "-//W3C//DTD SVG 1.1//EN" "http://www.w3.org/Graphics/SVG/1.1/DTD/svg11.dtd">
<svg version="1.1" id="Botoes" xmlns="http://www.w3.org/2000/svg" xmlns:xlink="http://www.w3.org/1999/xlink" x="0px" y="0px"
	 width="190px" height="95px" viewBox="0 0 190 95" enable-background="new 0 0 190 95" xml:space="preserve">
<g>
	<path fill="#FFFFFF" d="M77.932,62.954l-2.796-29.115L66.79,58.402h-4.269l-8.393-24.563l-2.702,29.115h-4.173l3.698-35.752h4.409
		l9.247,26.978l9.246-26.978h4.456l3.793,35.752H77.932z"/>
	<path fill="#FFFFFF" d="M101.93,38.864c1.17,0.57,2.039,1.525,2.608,2.87c0.571,1.345,0.853,3.201,0.853,5.575v15.646h-3.602
		v-3.177c-2.152,2.373-4.726,3.558-7.728,3.558c-2.497,0-4.354-0.666-5.573-1.992c-1.216-1.328-1.825-3.002-1.825-5.025
		c0-2.339,0.727-4.179,2.183-5.523c1.453-1.345,3.538-2.016,6.259-2.016h6.307c0-2.056-0.167-3.596-0.497-4.625
		c-0.332-1.024-0.855-1.728-1.566-2.11c-0.714-0.378-1.717-0.57-3.013-0.57c-1.771,0-4.251,0.38-7.443,1.139l-0.713-2.798
		c3.069-1.2,6.085-1.803,9.059-1.803C99.197,38.012,100.762,38.297,101.93,38.864z M101.411,57.356v-5.594H95.15
		c-1.735,0-2.964,0.42-3.674,1.257c-0.713,0.838-1.069,1.812-1.069,2.918c0,1.233,0.387,2.203,1.163,2.917
		c0.774,0.71,1.825,1.067,3.151,1.067C96.746,59.92,98.974,59.065,101.411,57.356z"/>
	<path fill="#FFFFFF" d="M111.521,25.021h4.076v37.934h-4.076V25.021z"/>
	<path fill="#FFFFFF" d="M135.778,59.873c0.963-0.222,2.125-0.554,3.485-0.996l0.616,3.128c-1.549,0.6-2.893,1.041-4.029,1.327
		c-1.137,0.282-2.339,0.426-3.602,0.426c-3.324,0-5.97-1.043-7.943-3.13c-1.976-2.086-2.967-5.373-2.967-9.864
		c0-4.426,0.957-7.657,2.871-9.694c1.912-2.039,4.465-3.061,7.659-3.061c2.97,0,5.098,0.808,6.376,2.421
		c1.278,1.612,1.921,3.842,1.921,6.687c0,1.77-0.11,3.223-0.333,4.361l-14.414-0.047c0.159,3.32,0.869,5.611,2.135,6.875
		c1.264,1.268,2.97,1.896,5.121,1.896C133.779,60.202,134.812,60.091,135.778,59.873z M127.364,42.73
		c-1.076,1.124-1.709,3.027-1.896,5.714l10.953-0.142c0.062-0.821,0.094-1.5,0.094-2.039c0-1.675-0.373-2.962-1.113-3.862
		c-0.743-0.903-1.985-1.353-3.725-1.353C129.874,41.046,128.436,41.609,127.364,42.73z"/>
</g>
</svg>
