<?xml version="1.0" encoding="utf-8"?>
<!-- Generator: Adobe Illustrator 15.1.0, SVG Export Plug-In . SVG Version: 6.00 Build 0)  -->
<!DOCTYPE svg PUBLIC "-//W3C//DTD SVG 1.1//EN" "http://www.w3.org/Graphics/SVG/1.1/DTD/svg11.dtd">
<svg version="1.1" id="Botoes" xmlns="http://www.w3.org/2000/svg" xmlns:xlink="http://www.w3.org/1999/xlink" x="0px" y="0px"
	 width="190px" height="95px" viewBox="0 0 190 95" enable-background="new 0 0 190 95" xml:space="preserve">
<path fill="#FFFFFF" d="M35.813,27.392v35.562H31.88L15.283,34.409L15.19,62.954h-3.936V27.392h4.077L31.88,55.887V27.392H35.813z"
	/>
<path fill="#FFFFFF" d="M56.089,59.87c0.964-0.221,2.125-0.554,3.485-0.996l0.616,3.129c-1.549,0.6-2.892,1.043-4.029,1.329
	c-1.138,0.281-2.339,0.424-3.604,0.424c-3.322,0-5.969-1.043-7.942-3.129c-1.975-2.086-2.965-5.374-2.965-9.862
	c0-4.428,0.957-7.659,2.871-9.697c1.911-2.039,4.464-3.06,7.658-3.06c2.97,0,5.097,0.808,6.377,2.42
	c1.277,1.613,1.92,3.842,1.92,6.688c0,1.77-0.111,3.223-0.331,4.361L45.73,51.43c0.158,3.319,0.87,5.611,2.135,6.875
	c1.264,1.266,2.97,1.896,5.12,1.896C54.089,60.201,55.125,60.092,56.089,59.87z M47.674,42.729
	c-1.075,1.124-1.708,3.027-1.897,5.715l10.953-0.143c0.063-0.822,0.094-1.5,0.094-2.039c0-1.674-0.372-2.962-1.113-3.862
	c-0.742-0.902-1.984-1.353-3.724-1.353C50.185,41.046,48.747,41.609,47.674,42.729z"/>
<path fill="#FFFFFF" d="M85.137,38.248v24.705h-4.076V60.44c-1.297,0.947-2.546,1.642-3.746,2.085
	c-1.202,0.44-2.498,0.664-3.888,0.664c-2.526,0-4.354-0.678-5.476-2.039c-1.123-1.359-1.683-3.681-1.683-6.971V38.248h4.221v15.317
	c0,1.612,0.142,2.845,0.426,3.698c0.285,0.854,0.728,1.438,1.327,1.756c0.601,0.316,1.453,0.473,2.562,0.473
	c1.612,0,3.698-0.616,6.259-1.849V38.249L85.137,38.248L85.137,38.248z"/>
<path fill="#FFFFFF" d="M105.53,62.812c-1.453,0.316-2.781,0.474-3.981,0.474c-3.162,0-5.374-0.828-6.638-2.488
	c-1.264-1.66-1.896-4.26-1.896-7.801V41.237H90.03V38.25h2.984v-6.355h3.934v6.355h6.924v2.987h-6.924v11.806
	c0,1.835,0.183,3.267,0.546,4.291c0.363,1.029,0.949,1.756,1.753,2.182c0.807,0.426,1.905,0.641,3.298,0.641
	c0.475,0,1.279-0.064,2.417-0.19L105.53,62.812z"/>
<path fill="#FFFFFF" d="M122.416,41.995c-1.613,0-3.192,0.244-4.741,0.733c-1.55,0.492-2.893,1.146-4.028,1.969v18.256h-4.076
	V38.248h4.076v3.272c1.169-0.979,2.56-1.801,4.174-2.466c1.612-0.664,3.237-1.011,4.883-1.043L122.416,41.995z"/>
<path fill="#FFFFFF" d="M127.517,60.627c-1.724-2.022-2.584-5.291-2.584-9.813c0-4.458,0.871-7.705,2.61-9.744
	c1.737-2.039,4.44-3.059,8.109-3.059c3.665,0,6.36,1.012,8.083,3.034c1.721,2.023,2.583,5.264,2.583,9.72
	c0,4.458-0.876,7.724-2.63,9.792c-1.756,2.072-4.48,3.105-8.18,3.105C131.902,63.664,129.242,62.653,127.517,60.627z
	 M140.604,58.045c1.057-1.502,1.587-4.055,1.587-7.656c0-2.34-0.214-4.176-0.64-5.501c-0.425-1.328-1.098-2.282-2.014-2.869
	c-0.919-0.586-2.166-0.876-3.748-0.876c-1.643,0-2.955,0.314-3.935,0.946c-0.978,0.633-1.692,1.652-2.131,3.059
	c-0.442,1.407-0.665,3.313-0.665,5.716c0,2.369,0.223,4.244,0.665,5.617c0.438,1.376,1.114,2.355,2.017,2.941
	c0.9,0.584,2.111,0.876,3.625,0.876C137.802,60.298,139.548,59.548,140.604,58.045z"/>
<path fill="#FFFFFF" d="M152.153,32.11c-0.536-0.523-0.807-1.163-0.807-1.923c0-0.726,0.263-1.343,0.782-1.85
	c0.523-0.504,1.178-0.76,1.97-0.76c0.759,0,1.399,0.256,1.922,0.76c0.522,0.507,0.78,1.139,0.78,1.896
	c0,0.761-0.26,1.393-0.78,1.898c-0.522,0.507-1.163,0.758-1.922,0.758C153.339,32.89,152.692,32.629,152.153,32.11z M152.014,38.248
	h4.077v24.705h-4.077V38.248z"/>
<path fill="#FFFFFF" d="M163.018,56.268c0.884,1.043,2.103,1.905,3.651,2.584c1.547,0.679,3.049,1.021,4.505,1.021
	c1.483,0,2.712-0.387,3.675-1.162c0.963-0.776,1.446-1.729,1.446-2.87c0-0.854-0.279-1.549-0.83-2.085
	c-0.556-0.536-1.23-0.957-2.039-1.257c-0.806-0.301-1.905-0.639-3.295-1.021c-1.709-0.475-3.068-0.924-4.075-1.352
	c-1.014-0.426-1.881-1.051-2.609-1.874c-0.725-0.821-1.089-1.896-1.089-3.227c0-1.452,0.411-2.709,1.231-3.768
	c0.82-1.061,1.921-1.866,3.296-2.42c1.373-0.554,2.853-0.829,4.43-0.829c1.521,0,2.941,0.236,4.271,0.713
	c1.326,0.474,2.493,1.106,3.508,1.896l-1.231,2.799c-0.945-0.6-1.968-1.075-3.059-1.423c-1.089-0.35-2.157-0.523-3.199-0.523
	c-1.484,0-2.76,0.316-3.819,0.949c-1.062,0.631-1.589,1.47-1.589,2.513c0,0.917,0.425,1.597,1.28,2.039
	c0.853,0.44,2.215,0.884,4.075,1.324c1.803,0.443,3.272,0.886,4.411,1.329s2.116,1.153,2.939,2.133
	c0.822,0.978,1.232,2.291,1.232,3.934c0,2.341-0.813,4.205-2.442,5.598c-1.626,1.389-3.722,2.084-6.281,2.084
	c-1.929,0-3.834-0.396-5.714-1.185c-1.882-0.79-3.342-1.896-4.385-3.319L163.018,56.268z"/>
</svg>
