<?xml version="1.0" encoding="utf-8"?>
<!-- Generator: Adobe Illustrator 15.1.0, SVG Export Plug-In . SVG Version: 6.00 Build 0)  -->
<!DOCTYPE svg PUBLIC "-//W3C//DTD SVG 1.1//EN" "http://www.w3.org/Graphics/SVG/1.1/DTD/svg11.dtd">
<svg version="1.1" id="Botoes" xmlns="http://www.w3.org/2000/svg" xmlns:xlink="http://www.w3.org/1999/xlink" x="0px" y="0px"
	 width="290px" height="95px" viewBox="0 0 290 95" enable-background="new 0 0 290 95" xml:space="preserve">
<g>
	<path fill="#FFFFFF" d="M56.767,27.392v35.562h-3.935L36.237,34.41l-0.094,28.544h-3.937V27.392h4.077l16.549,28.494V27.392H56.767
		z"/>
	<path fill="#FFFFFF" d="M65.189,60.63c-1.724-2.023-2.586-5.292-2.586-9.813c0-4.458,0.87-7.707,2.609-9.746
		c1.738-2.039,4.441-3.059,8.109-3.059c3.666,0,6.361,1.013,8.083,3.035c1.723,2.021,2.585,5.264,2.585,9.72
		c0,4.458-0.878,7.723-2.631,9.791c-1.756,2.073-4.481,3.106-8.18,3.106C69.573,63.664,66.912,62.653,65.189,60.63z M78.276,58.046
		c1.058-1.504,1.586-4.056,1.586-7.657c0-2.338-0.214-4.174-0.64-5.5c-0.426-1.328-1.097-2.282-2.013-2.869
		c-0.92-0.586-2.167-0.876-3.748-0.876c-1.643,0-2.956,0.314-3.936,0.946c-0.979,0.633-1.691,1.652-2.132,3.06
		c-0.443,1.406-0.663,3.312-0.663,5.713c0,2.371,0.22,4.244,0.663,5.619c0.44,1.375,1.114,2.355,2.017,2.941
		c0.899,0.582,2.109,0.875,3.625,0.875C75.471,60.298,77.218,59.548,78.276,58.046z"/>
	<path fill="#FFFFFF" d="M107.82,40.051c1.123,1.359,1.683,3.684,1.683,6.971v15.932h-4.078V47.78c0-1.612-0.141-2.838-0.426-3.674
		c-0.283-0.836-0.743-1.416-1.374-1.729c-0.632-0.316-1.502-0.475-2.608-0.475c-1.075,0-2.175,0.142-3.295,0.426
		c-1.124,0.285-2.413,0.792-3.866,1.52v19.108h-4.077V38.249h4.077v2.845c1.453-1.073,2.829-1.856,4.126-2.346
		s2.767-0.735,4.411-0.735C104.888,38.012,106.698,38.691,107.82,40.051z"/>
	<path fill="#FFFFFF" d="M152.323,47.378c0.949,1.502,1.422,3.406,1.422,5.714c0,3.349-0.934,5.831-2.799,7.443
		s-4.706,2.419-8.532,2.419h-13.42V27.392h11.334c4.108,0,7.063,0.711,8.866,2.133c1.801,1.423,2.701,3.762,2.701,7.017
		c0,1.93-0.332,3.495-0.996,4.695c-0.664,1.202-1.752,2.133-3.271,2.798C149.81,44.762,151.374,45.875,152.323,47.378z
		 M133.072,30.805V42.66h7.634c2.688,0,4.576-0.442,5.667-1.328c1.089-0.883,1.634-2.386,1.634-4.505
		c0-2.149-0.568-3.689-1.704-4.622c-1.14-0.933-3.146-1.399-6.024-1.399H133.072z M149.763,52.901c0-2.181-0.674-3.849-2.016-5.003
		c-1.344-1.153-3.547-1.729-6.613-1.729h-8.062v13.18l9.342-0.047C147.312,59.302,149.763,57.171,149.763,52.901z"/>
	<path fill="#FFFFFF" d="M160.482,32.111c-0.537-0.523-0.807-1.163-0.807-1.923c0-0.726,0.262-1.343,0.783-1.85
		c0.521-0.504,1.178-0.759,1.969-0.759c0.76,0,1.398,0.255,1.92,0.759c0.523,0.507,0.781,1.14,0.781,1.896
		c0,0.76-0.26,1.393-0.781,1.898s-1.16,0.757-1.92,0.757S161.021,32.63,160.482,32.111z M160.342,38.249h4.076v24.706h-4.076V38.249
		z"/>
	<path fill="#FFFFFF" d="M189.958,40.051c1.121,1.359,1.684,3.684,1.684,6.971v15.932h-4.078V47.78c0-1.612-0.145-2.838-0.428-3.674
		c-0.285-0.836-0.742-1.416-1.373-1.729c-0.633-0.316-1.502-0.475-2.609-0.475c-1.074,0-2.174,0.142-3.295,0.426
		c-1.125,0.285-2.41,0.792-3.863,1.52v19.108h-4.076V38.249h4.076v2.845c1.453-1.073,2.826-1.856,4.127-2.346
		c1.295-0.489,2.766-0.735,4.408-0.735C187.024,38.012,188.835,38.691,189.958,40.051z"/>
	<path fill="#FFFFFF" d="M212.223,38.866c1.17,0.569,2.039,1.524,2.607,2.869c0.57,1.345,0.854,3.201,0.854,5.573v15.647h-3.602
		v-3.179c-2.152,2.373-4.729,3.559-7.73,3.559c-2.496,0-4.354-0.666-5.57-1.992c-1.217-1.327-1.826-3.003-1.826-5.025
		c0-2.339,0.727-4.179,2.182-5.524c1.453-1.344,3.539-2.014,6.258-2.014h6.307c0-2.056-0.166-3.596-0.496-4.625
		c-0.332-1.026-0.855-1.729-1.566-2.11c-0.711-0.378-1.715-0.569-3.012-0.569c-1.77,0-4.25,0.379-7.443,1.139l-0.713-2.798
		c3.068-1.2,6.088-1.803,9.059-1.803C209.49,38.012,211.053,38.298,212.223,38.866z M211.701,57.356v-5.594h-6.26
		c-1.736,0-2.963,0.42-3.672,1.257c-0.713,0.838-1.068,1.812-1.068,2.918c0,1.233,0.385,2.203,1.162,2.916
		c0.773,0.71,1.824,1.066,3.152,1.066C207.037,59.92,209.268,59.066,211.701,57.356z"/>
	<path fill="#FFFFFF" d="M236.128,41.997c-1.613,0-3.195,0.243-4.742,0.732c-1.549,0.492-2.893,1.146-4.031,1.97v18.255h-4.076
		V38.249h4.076v3.272c1.172-0.979,2.562-1.8,4.174-2.466c1.613-0.664,3.24-1.011,4.883-1.043L236.128,41.997z"/>
	<path fill="#FFFFFF" d="M259.36,38.249l-11.521,34.187h-4.031l3.178-9.481h-0.379l-8.346-24.706h4.457l6.068,20.293l6.402-20.293
		H259.36z"/>
</g>
</svg>
