<?xml version="1.0" encoding="utf-8"?>
<!-- Generator: Adobe Illustrator 15.1.0, SVG Export Plug-In . SVG Version: 6.00 Build 0)  -->
<!DOCTYPE svg PUBLIC "-//W3C//DTD SVG 1.1//EN" "http://www.w3.org/Graphics/SVG/1.1/DTD/svg11.dtd">
<svg version="1.1" id="Botoes" xmlns="http://www.w3.org/2000/svg" xmlns:xlink="http://www.w3.org/1999/xlink" x="0px" y="0px"
	 width="290px" height="95px" viewBox="0 0 290 95" enable-background="new 0 0 290 95" xml:space="preserve">
<g>
	<path fill="#FFFFFF" d="M18.188,59.23c-2.323-2.955-3.484-7.675-3.484-14.153c0-6.418,1.163-11.088,3.484-14.015
		c2.326-2.922,5.921-4.384,10.788-4.384c4.835,0,8.417,1.463,10.739,4.384c2.323,2.926,3.484,7.597,3.484,14.015
		c0,6.479-1.163,11.198-3.484,14.153c-2.322,2.956-5.904,4.431-10.739,4.431C24.108,63.661,20.514,62.187,18.188,59.23z
		 M34.667,58.592c1.453-1.014,2.526-2.616,3.224-4.815c0.695-2.195,1.042-5.098,1.042-8.699c0-3.605-0.347-6.515-1.042-8.726
		c-0.696-2.211-1.771-3.825-3.224-4.835c-1.455-1.013-3.352-1.519-5.69-1.519s-4.244,0.516-5.714,1.542
		c-1.471,1.025-2.553,2.639-3.249,4.834c-0.695,2.199-1.043,5.098-1.043,8.703c0,3.602,0.348,6.504,1.043,8.699
		c0.696,2.199,1.778,3.802,3.249,4.815c1.47,1.011,3.374,1.517,5.714,1.517S33.212,59.603,34.667,58.592z"/>
	<path fill="#FFFFFF" d="M61.276,62.809c-1.456,0.317-2.781,0.475-3.984,0.475c-3.161,0-5.374-0.829-6.637-2.488
		c-1.266-1.66-1.896-4.26-1.896-7.8v-11.76h-2.988v-2.987h2.988v-6.354h3.935v6.354h6.92v2.987h-6.922v11.807
		c0,1.834,0.181,3.265,0.544,4.29c0.363,1.028,0.949,1.756,1.756,2.181c0.806,0.427,1.903,0.641,3.295,0.641
		c0.475,0,1.279-0.063,2.42-0.19L61.276,62.809z"/>
	<path fill="#FFFFFF" d="M81.793,40.05c1.122,1.359,1.685,3.684,1.685,6.971v15.934h-4.078V47.779c0-1.614-0.143-2.838-0.426-3.675
		c-0.286-0.837-0.743-1.416-1.375-1.729c-0.633-0.317-1.503-0.476-2.609-0.476c-1.074,0-2.166,0.143-3.272,0.426
		c-1.106,0.285-2.369,0.775-3.792,1.471v19.157h-4.077V25.019h4.077v16.026c1.39-1.043,2.732-1.81,4.028-2.299
		c1.297-0.49,2.767-0.736,4.411-0.736C78.86,38.01,80.671,38.69,81.793,40.05z"/>
	<path fill="#FFFFFF" d="M102.288,59.87c0.963-0.221,2.125-0.554,3.484-0.996l0.617,3.128c-1.55,0.601-2.893,1.043-4.031,1.329
		c-1.137,0.283-2.339,0.427-3.602,0.427c-3.322,0-5.968-1.043-7.943-3.132c-1.976-2.086-2.966-5.371-2.966-9.862
		c0-4.426,0.957-7.657,2.87-9.696c1.912-2.039,4.465-3.059,7.659-3.059c2.97,0,5.098,0.806,6.377,2.419
		c1.278,1.613,1.92,3.841,1.92,6.687c0,1.77-0.11,3.223-0.332,4.362L91.927,51.43c0.16,3.318,0.87,5.61,2.135,6.874
		c1.264,1.266,2.97,1.896,5.121,1.896C100.289,60.202,101.321,60.092,102.288,59.87z M93.871,42.729
		c-1.075,1.123-1.709,3.026-1.896,5.715l10.952-0.143c0.064-0.821,0.094-1.5,0.094-2.039c0-1.675-0.37-2.963-1.113-3.863
		c-0.742-0.902-1.984-1.353-3.722-1.353C96.384,41.046,94.945,41.607,93.871,42.729z"/>
	<path fill="#FFFFFF" d="M123.942,41.995c-1.612,0-3.194,0.243-4.741,0.733c-1.549,0.492-2.892,1.146-4.03,1.969v18.257h-4.078
		V38.248h4.078v3.271c1.169-0.979,2.562-1.8,4.172-2.466c1.613-0.663,3.241-1.01,4.884-1.043L123.942,41.995z"/>
	<path fill="#FFFFFF" d="M163.686,61.006c-2.182,1.013-4.008,1.699-5.477,2.062c-1.467,0.364-3.072,0.546-4.812,0.546
		c-5.471,0-9.436-1.469-11.899-4.408c-2.467-2.941-3.699-7.586-3.699-13.94c0-6.449,1.217-11.158,3.652-14.13
		c2.432-2.972,6.224-4.457,11.378-4.457c1.803,0,3.502,0.196,5.098,0.593c1.596,0.396,3.23,1.052,4.908,1.969l-1.041,3.27
		c-1.582-0.82-2.996-1.42-4.246-1.8c-1.248-0.379-2.711-0.569-4.385-0.569c-2.625,0-4.74,0.514-6.354,1.539
		c-1.612,1.028-2.8,2.648-3.558,4.861c-0.757,2.213-1.137,5.138-1.137,8.773c0,3.509,0.364,6.308,1.09,8.394
		s1.896,3.618,3.509,4.598c1.611,0.979,3.795,1.47,6.543,1.47c2.307,0,4.506-0.363,6.592-1.09V48.11h-8.061v-3.508h11.9v16.403
		H163.686z"/>
	<path fill="#FFFFFF" d="M181.596,59.87c0.965-0.221,2.127-0.554,3.486-0.996l0.615,3.128c-1.549,0.601-2.891,1.043-4.031,1.329
		c-1.137,0.283-2.338,0.427-3.602,0.427c-3.32,0-5.967-1.043-7.943-3.132c-1.975-2.086-2.965-5.371-2.965-9.862
		c0-4.426,0.957-7.657,2.869-9.696c1.914-2.039,4.467-3.059,7.66-3.059c2.971,0,5.098,0.806,6.377,2.419s1.92,3.841,1.92,6.687
		c0,1.77-0.111,3.223-0.332,4.362l-14.414-0.047c0.158,3.318,0.871,5.61,2.133,6.874c1.266,1.266,2.971,1.896,5.123,1.896
		C179.598,60.202,180.631,60.092,181.596,59.87z M173.18,42.729c-1.076,1.123-1.709,3.026-1.896,5.715l10.953-0.143
		c0.062-0.821,0.094-1.5,0.094-2.039c0-1.675-0.371-2.963-1.113-3.863c-0.742-0.902-1.984-1.353-3.723-1.353
		C175.693,41.046,174.254,41.607,173.18,42.729z"/>
	<path fill="#FFFFFF" d="M208.443,40.05c1.123,1.359,1.684,3.684,1.684,6.971v15.934h-4.078V47.779c0-1.614-0.141-2.838-0.428-3.675
		c-0.283-0.837-0.742-1.416-1.373-1.729c-0.633-0.317-1.502-0.476-2.607-0.476c-1.076,0-2.176,0.143-3.297,0.426
		c-1.121,0.285-2.41,0.792-3.863,1.52v19.108h-4.078V38.248h4.078v2.845c1.453-1.074,2.826-1.856,4.125-2.346
		c1.297-0.49,2.766-0.736,4.41-0.736C205.512,38.01,207.32,38.69,208.443,40.05z"/>
	<path fill="#FFFFFF" d="M234.461,62.241c-1.58,0.441-3.256,0.789-5.025,1.042c-1.773,0.253-3.334,0.378-4.693,0.378
		c-6.828,0-10.242-4.155-10.242-12.471c0-4.552,0.973-7.925,2.916-10.123c1.945-2.195,4.623-3.295,8.035-3.295
		c1.424,0,3.02,0.253,4.791,0.76V25.019h4.172L234.461,62.241z M220.213,58.304c1.217,1.359,2.947,2.039,5.191,2.039
		c1.234,0,2.846-0.206,4.838-0.616V41.567c-1.393-0.349-2.705-0.522-3.938-0.522c-2.496,0-4.441,0.774-5.83,2.322
		c-1.393,1.55-2.086,4.159-2.086,7.825C218.389,54.576,218.994,56.946,220.213,58.304z"/>
	<path fill="#FFFFFF" d="M253.225,59.87c0.967-0.221,2.127-0.554,3.486-0.996l0.615,3.128c-1.549,0.601-2.893,1.043-4.029,1.329
		c-1.139,0.283-2.34,0.427-3.604,0.427c-3.318,0-5.967-1.043-7.943-3.132c-1.977-2.086-2.963-5.371-2.963-9.862
		c0-4.426,0.957-7.657,2.869-9.696s4.465-3.059,7.656-3.059c2.975,0,5.098,0.806,6.379,2.419c1.279,1.613,1.922,3.841,1.922,6.687
		c0,1.77-0.113,3.223-0.332,4.362l-14.416-0.047c0.158,3.318,0.871,5.61,2.133,6.874c1.264,1.266,2.973,1.896,5.121,1.896
		C251.227,60.202,252.262,60.092,253.225,59.87z M244.809,42.729c-1.074,1.123-1.707,3.026-1.896,5.715l10.953-0.143
		c0.062-0.821,0.096-1.5,0.096-2.039c0-1.675-0.373-2.963-1.115-3.863c-0.744-0.902-1.982-1.353-3.723-1.353
		C247.32,41.046,245.885,41.607,244.809,42.729z"/>
	<path fill="#FFFFFF" d="M274.881,41.995c-1.613,0-3.191,0.243-4.742,0.733c-1.549,0.492-2.891,1.146-4.027,1.969v18.257h-4.078
		V38.248h4.078v3.271c1.166-0.979,2.559-1.8,4.172-2.466c1.611-0.663,3.238-1.01,4.883-1.043L274.881,41.995z"/>
</g>
</svg>
