<?xml version="1.0" encoding="utf-8"?>
<!-- Generator: Adobe Illustrator 15.1.0, SVG Export Plug-In . SVG Version: 6.00 Build 0)  -->
<!DOCTYPE svg PUBLIC "-//W3C//DTD SVG 1.1//EN" "http://www.w3.org/Graphics/SVG/1.1/DTD/svg11.dtd">
<svg version="1.1" id="Botoes" xmlns="http://www.w3.org/2000/svg" xmlns:xlink="http://www.w3.org/1999/xlink" x="0px" y="0px"
	 width="320px" height="95px" viewBox="0 0 320 95" enable-background="new 0 0 320 95" xml:space="preserve">
<path fill="#FFFFFF" d="M62.631,68.118l0.759,2.984c-1.676,0.789-3.351,1.186-5.025,1.186c-2.341,0-4.276-0.771-5.809-2.3
	c-1.533-1.53-2.457-3.675-2.774-6.424c-4.077-0.443-7.088-2.149-9.032-5.124c-1.943-2.974-2.916-7.425-2.916-13.373
	c0-6.416,1.161-11.087,3.484-14.012c2.323-2.926,5.92-4.385,10.787-4.385c4.837,0,8.417,1.462,10.74,4.385
	c2.323,2.925,3.485,7.596,3.485,14.012c0,6.131-1.036,10.686-3.106,13.654c-2.07,2.975-5.256,4.602-9.555,4.885
	c0.222,1.739,0.774,3.075,1.66,4.006c0.885,0.933,2.007,1.398,3.367,1.398C59.929,69.019,61.238,68.718,62.631,68.118z
	 M43.142,53.772c0.695,2.198,1.777,3.801,3.249,4.813c1.47,1.012,3.374,1.518,5.713,1.518s4.236-0.506,5.69-1.518
	c1.453-1.013,2.528-2.615,3.225-4.813c0.694-2.196,1.043-5.098,1.043-8.7c0-3.604-0.349-6.513-1.043-8.725
	c-0.696-2.213-1.771-3.826-3.225-4.835c-1.454-1.013-3.351-1.52-5.69-1.52s-4.243,0.517-5.713,1.542
	c-1.471,1.026-2.553,2.639-3.249,4.835c-0.696,2.198-1.044,5.098-1.044,8.702C42.1,48.675,42.447,51.576,43.142,53.772z"/>
<path fill="#FFFFFF" d="M91.843,38.243v24.706h-4.077v-2.514c-1.297,0.946-2.545,1.643-3.746,2.086
	c-1.201,0.44-2.498,0.663-3.888,0.663c-2.529,0-4.355-0.679-5.477-2.038c-1.123-1.36-1.684-3.681-1.684-6.972V38.243h4.221v15.318
	c0,1.612,0.143,2.844,0.426,3.698c0.284,0.853,0.728,1.438,1.327,1.755c0.601,0.316,1.453,0.475,2.561,0.475
	c1.613,0,3.698-0.619,6.26-1.849V38.246h4.077V38.243z"/>
<path fill="#FFFFFF" d="M112.072,59.868c0.963-0.223,2.125-0.553,3.484-0.996L116.174,62c-1.55,0.6-2.893,1.042-4.031,1.325
	c-1.138,0.283-2.34,0.426-3.604,0.426c-3.319,0-5.968-1.042-7.942-3.131c-1.976-2.083-2.964-5.373-2.964-9.862
	c0-4.427,0.955-7.657,2.87-9.696c1.911-2.039,4.464-3.06,7.656-3.06c2.972,0,5.098,0.807,6.377,2.42
	c1.28,1.614,1.92,3.841,1.92,6.687c0,1.77-0.109,3.223-0.331,4.362l-14.414-0.047c0.157,3.322,0.869,5.613,2.134,6.875
	c1.264,1.267,2.972,1.896,5.12,1.896C110.071,60.197,111.105,60.086,112.072,59.868z M103.653,42.725
	c-1.075,1.124-1.706,3.028-1.896,5.714l10.952-0.143c0.063-0.821,0.095-1.5,0.095-2.038c0-1.675-0.372-2.964-1.114-3.863
	c-0.743-0.902-1.984-1.353-3.722-1.353C106.168,41.042,104.728,41.604,103.653,42.725z"/>
<path fill="#FFFFFF" d="M121.726,56.264c0.884,1.042,2.101,1.905,3.65,2.584c1.547,0.676,3.05,1.021,4.504,1.021
	c1.485,0,2.71-0.387,3.675-1.164c0.963-0.774,1.446-1.729,1.446-2.869c0-0.855-0.278-1.55-0.83-2.085
	c-0.553-0.536-1.232-0.956-2.038-1.257c-0.806-0.3-1.904-0.64-3.296-1.022c-1.706-0.474-3.065-0.924-4.077-1.353
	c-1.012-0.424-1.882-1.05-2.607-1.874c-0.728-0.821-1.091-1.895-1.091-3.226c0-1.452,0.41-2.708,1.232-3.768
	c0.821-1.06,1.92-1.866,3.295-2.422c1.375-0.554,2.853-0.827,4.433-0.827c1.519,0,2.94,0.237,4.269,0.713
	c1.327,0.475,2.497,1.106,3.509,1.896l-1.232,2.799c-0.949-0.601-1.968-1.076-3.059-1.424c-1.091-0.35-2.157-0.525-3.2-0.525
	c-1.487,0-2.759,0.316-3.817,0.949c-1.06,0.632-1.589,1.47-1.589,2.513c0,0.919,0.426,1.598,1.28,2.041
	c0.854,0.441,2.212,0.885,4.078,1.324c1.801,0.442,3.272,0.883,4.409,1.326c1.138,0.443,2.118,1.153,2.94,2.133
	c0.822,0.978,1.232,2.292,1.232,3.936c0,2.339-0.813,4.204-2.441,5.594c-1.629,1.391-3.723,2.086-6.284,2.086
	c-1.928,0-3.832-0.396-5.713-1.186c-1.882-0.787-3.343-1.894-4.386-3.318L121.726,56.264z"/>
<path fill="#FFFFFF" d="M156.96,62.806c-1.455,0.318-2.781,0.475-3.982,0.475c-3.163,0-5.376-0.824-6.639-2.485
	c-1.266-1.663-1.897-4.262-1.897-7.8V41.233h-2.987v-2.985h2.987v-6.354h3.937v6.354h6.922v2.985h-6.922v11.809
	c0,1.83,0.181,3.267,0.545,4.289c0.363,1.026,0.948,1.755,1.755,2.18c0.806,0.427,1.903,0.64,3.295,0.64
	c0.474,0,1.28-0.063,2.418-0.189L156.96,62.806z"/>
<path fill="#FFFFFF" d="M161.043,32.105c-0.539-0.523-0.808-1.163-0.808-1.923c0-0.726,0.261-1.342,0.783-1.849
	c0.521-0.504,1.178-0.76,1.969-0.76c0.76,0,1.398,0.256,1.924,0.76c0.523,0.507,0.777,1.139,0.777,1.896
	c0,0.76-0.26,1.393-0.777,1.898c-0.523,0.507-1.164,0.757-1.924,0.757S161.578,32.625,161.043,32.105z M160.9,38.243h4.078v24.706
	H160.9V38.243z"/>
<path fill="#FFFFFF" d="M173.257,60.623c-1.725-2.022-2.584-5.292-2.584-9.813c0-4.458,0.873-7.706,2.609-9.746
	c1.734-2.039,4.438-3.059,8.107-3.059s6.365,1.013,8.086,3.035c1.721,2.021,2.58,5.265,2.58,9.721c0,4.457-0.873,7.723-2.629,9.792
	c-1.756,2.071-4.477,3.105-8.176,3.105C177.642,63.66,174.979,62.649,173.257,60.623z M186.345,58.041
	c1.057-1.502,1.586-4.056,1.586-7.658c0-2.338-0.213-4.174-0.639-5.5c-0.428-1.328-1.1-2.282-2.016-2.869
	c-0.916-0.588-2.166-0.876-3.746-0.876c-1.645,0-2.955,0.314-3.936,0.946c-0.979,0.633-1.691,1.652-2.133,3.06
	c-0.441,1.406-0.664,3.312-0.664,5.715c0,2.37,0.223,4.244,0.664,5.618c0.441,1.375,1.117,2.355,2.016,2.941
	c0.902,0.583,2.113,0.876,3.627,0.876C183.536,60.294,185.282,59.544,186.345,58.041z"/>
<path fill="#FFFFFF" d="M215.889,40.046c1.125,1.359,1.68,3.684,1.68,6.972v15.932h-4.074V47.774c0-1.612-0.141-2.838-0.426-3.674
	c-0.281-0.836-0.74-1.416-1.375-1.729c-0.631-0.316-1.502-0.474-2.609-0.474c-1.074,0-2.174,0.143-3.295,0.425
	c-1.125,0.286-2.412,0.792-3.865,1.521v19.11h-4.078V38.246h4.076v2.845c1.455-1.075,2.824-1.858,4.125-2.346
	c1.297-0.49,2.768-0.735,4.412-0.735C212.957,38.008,214.766,38.686,215.889,40.046z"/>
<path fill="#FFFFFF" d="M225.21,32.105c-0.535-0.523-0.805-1.163-0.805-1.923c0-0.726,0.262-1.342,0.781-1.849
	c0.523-0.504,1.178-0.76,1.969-0.76c0.758,0,1.398,0.256,1.92,0.76c0.525,0.507,0.783,1.139,0.783,1.896
	c0,0.76-0.262,1.393-0.783,1.898c-0.52,0.507-1.162,0.757-1.92,0.757S225.747,32.625,225.21,32.105z M225.069,38.243h4.076v24.706
	h-4.076V38.243z"/>
<path fill="#FFFFFF" d="M254.684,40.046c1.123,1.359,1.684,3.684,1.684,6.972v15.932h-4.076V47.774c0-1.612-0.143-2.838-0.426-3.674
	s-0.744-1.416-1.375-1.729c-0.631-0.316-1.502-0.474-2.609-0.474c-1.074,0-2.174,0.143-3.295,0.425
	c-1.123,0.286-2.412,0.792-3.865,1.521v19.11h-4.074V38.246h4.074v2.845c1.453-1.075,2.828-1.858,4.127-2.346
	c1.297-0.49,2.766-0.735,4.41-0.735C251.752,38.008,253.562,38.686,254.684,40.046z"/>
<path fill="#FFFFFF" d="M282.122,39.715v22.521c0,3.795-0.816,6.497-2.443,8.11c-1.629,1.614-4.037,2.42-7.23,2.42
	c-3.32,0-6.402-1.155-9.246-3.463l1.232-2.42c1.043,0.854,2.234,1.511,3.58,1.97c1.342,0.459,2.568,0.688,3.674,0.688
	c2.086,0,3.689-0.461,4.812-1.375c1.123-0.915,1.684-2.673,1.684-5.263V61.24c-2.057,1.581-4.299,2.373-6.732,2.373
	c-2.752,0-4.986-0.986-6.709-2.964c-1.727-1.975-2.586-5.115-2.586-9.413c0-4.552,1.004-7.902,3.012-10.052s4.781-3.226,8.322-3.226
	c1.357,0,2.812,0.136,4.361,0.403c1.551,0.27,2.988,0.64,4.32,1.113L282.122,39.715z M275.411,59.891
	c1.09-0.3,2.016-0.704,2.775-1.211V41.849c-1.33-0.283-2.705-0.427-4.127-0.427c-2.623,0-4.615,0.675-5.975,2.019
	c-1.357,1.341-2.039,3.781-2.039,7.324c0,3.509,0.602,5.984,1.803,7.424c1.201,1.436,2.701,2.156,4.504,2.156
	C273.302,60.341,274.321,60.19,275.411,59.891z"/>
</svg>
