<?xml version="1.0" encoding="utf-8"?>
<!-- Generator: Adobe Illustrator 15.1.0, SVG Export Plug-In . SVG Version: 6.00 Build 0)  -->
<!DOCTYPE svg PUBLIC "-//W3C//DTD SVG 1.1//EN" "http://www.w3.org/Graphics/SVG/1.1/DTD/svg11.dtd">
<svg version="1.1" id="Botoes" xmlns="http://www.w3.org/2000/svg" xmlns:xlink="http://www.w3.org/1999/xlink" x="0px" y="0px"
	 width="320px" height="95px" viewBox="0 0 320 95" enable-background="new 0 0 320 95" xml:space="preserve">
<g>
	<path fill="#FFFFFF" d="M57.873,30.901H47.725v32.053h-4.173V30.901H33.357v-3.509h24.516V30.901z"/>
	<path fill="#FFFFFF" d="M71.784,41.997c-1.611,0-3.192,0.243-4.741,0.732c-1.549,0.492-2.893,1.146-4.03,1.97v18.255h-4.078V38.249
		h4.078v3.272c1.168-0.978,2.561-1.8,4.173-2.466c1.612-0.664,3.24-1.011,4.885-1.043L71.784,41.997z"/>
	<path fill="#FFFFFF" d="M89.097,38.866c1.168,0.569,2.038,1.524,2.607,2.868c0.568,1.346,0.853,3.201,0.853,5.574v15.647h-3.604
		v-3.178c-2.15,2.376-4.726,3.559-7.728,3.559c-2.499,0-4.355-0.666-5.572-1.991s-1.825-3.003-1.825-5.026
		c0-2.339,0.728-4.179,2.182-5.524c1.453-1.343,3.54-2.016,6.259-2.016h6.307c0-2.056-0.166-3.595-0.498-4.625
		c-0.331-1.026-0.853-1.729-1.564-2.109c-0.712-0.379-1.716-0.57-3.011-0.57c-1.771,0-4.252,0.379-7.445,1.139l-0.711-2.798
		c3.065-1.2,6.085-1.803,9.056-1.803C86.362,38.013,87.928,38.298,89.097,38.866z M88.576,57.357v-5.595h-6.259
		c-1.739,0-2.964,0.422-3.675,1.257c-0.711,0.839-1.066,1.813-1.066,2.92c0,1.23,0.386,2.204,1.161,2.918
		c0.774,0.71,1.825,1.069,3.152,1.069C83.912,59.919,86.141,59.066,88.576,57.357z"/>
	<path fill="#FFFFFF" d="M118.191,40.052c1.122,1.359,1.684,3.684,1.684,6.97v15.933h-4.078V47.781c0-1.612-0.143-2.839-0.427-3.675
		c-0.284-0.837-0.742-1.417-1.375-1.729c-0.633-0.317-1.501-0.474-2.607-0.474c-1.075,0-2.175,0.142-3.296,0.425
		c-1.123,0.285-2.41,0.792-3.864,1.521v19.108h-4.078V38.25h4.078v2.845c1.453-1.075,2.828-1.857,4.125-2.346
		c1.296-0.489,2.766-0.735,4.41-0.735C115.259,38.013,117.069,38.691,118.191,40.052z"/>
	<path fill="#FFFFFF" d="M126.897,56.268c0.885,1.043,2.102,1.905,3.65,2.585c1.549,0.678,3.051,1.02,4.505,1.02
		c1.486,0,2.71-0.387,3.675-1.162c0.964-0.775,1.446-1.729,1.446-2.871c0-0.854-0.277-1.549-0.829-2.084
		c-0.554-0.536-1.232-0.958-2.039-1.258c-0.806-0.301-1.904-0.638-3.295-1.02c-1.707-0.477-3.066-0.926-4.078-1.353
		s-1.882-1.05-2.607-1.875c-0.728-0.82-1.091-1.896-1.091-3.226c0-1.453,0.41-2.71,1.232-3.77c0.821-1.06,1.92-1.867,3.295-2.421
		c1.375-0.553,2.853-0.827,4.433-0.827c1.519,0,2.94,0.234,4.269,0.713c1.327,0.474,2.498,1.106,3.509,1.896l-1.232,2.799
		c-0.949-0.6-1.968-1.076-3.059-1.425c-1.091-0.35-2.157-0.524-3.2-0.524c-1.487,0-2.759,0.318-3.817,0.949
		c-1.06,0.633-1.589,1.471-1.589,2.514c0,0.917,0.426,1.597,1.28,2.038c0.854,0.442,2.212,0.885,4.077,1.324
		c1.802,0.442,3.272,0.886,4.411,1.328c1.137,0.443,2.118,1.153,2.939,2.133c0.822,0.978,1.232,2.29,1.232,3.934
		c0,2.341-0.813,4.204-2.442,5.597c-1.628,1.39-3.722,2.083-6.283,2.083c-1.927,0-3.833-0.394-5.713-1.184
		c-1.882-0.789-3.344-1.896-4.386-3.32L126.897,56.268z"/>
	<path fill="#FFFFFF" d="M167.49,39.722v22.521c0,3.794-0.815,6.497-2.442,8.11c-1.629,1.613-4.038,2.42-7.231,2.42
		c-3.319,0-6.401-1.155-9.246-3.462l1.232-2.421c1.043,0.854,2.235,1.511,3.579,1.971c1.344,0.457,2.568,0.686,3.675,0.686
		c2.087,0,3.69-0.46,4.813-1.374c1.125-0.915,1.683-2.675,1.683-5.263v-1.663c-2.056,1.582-4.299,2.374-6.734,2.374
		c-2.75,0-4.986-0.986-6.709-2.964c-1.723-1.975-2.583-5.115-2.583-9.413c0-4.552,1.003-7.903,3.011-10.052
		c2.008-2.149,4.78-3.226,8.322-3.226c1.359,0,2.814,0.136,4.363,0.403c1.549,0.27,2.988,0.64,4.315,1.113L167.49,39.722z
		 M160.78,59.896c1.092-0.3,2.016-0.703,2.774-1.209V41.853c-1.328-0.283-2.704-0.425-4.126-0.425c-2.625,0-4.617,0.675-5.975,2.018
		c-1.359,1.344-2.039,3.785-2.039,7.324c0,3.509,0.6,5.983,1.803,7.424c1.199,1.436,2.702,2.156,4.503,2.156
		C158.67,60.346,159.69,60.196,160.78,59.896z"/>
	<path fill="#FFFFFF" d="M187.718,59.872c0.966-0.22,2.126-0.553,3.485-0.996l0.616,3.129c-1.549,0.601-2.893,1.041-4.029,1.327
		c-1.135,0.281-2.339,0.424-3.602,0.424c-3.321,0-5.97-1.043-7.943-3.129c-1.975-2.086-2.965-5.375-2.965-9.864
		c0-4.426,0.959-7.657,2.871-9.696c1.915-2.037,4.467-3.059,7.659-3.059c2.975,0,5.098,0.807,6.375,2.42
		c1.281,1.613,1.923,3.841,1.923,6.686c0,1.771-0.111,3.225-0.329,4.364l-14.415-0.047c0.157,3.32,0.868,5.61,2.132,6.874
		c1.265,1.266,2.973,1.895,5.122,1.895C185.719,60.203,186.755,60.093,187.718,59.872z M179.302,42.73
		c-1.076,1.124-1.707,3.028-1.896,5.714l10.952-0.143c0.063-0.82,0.097-1.5,0.097-2.037c0-1.675-0.373-2.964-1.116-3.863
		c-0.743-0.902-1.982-1.353-3.724-1.353C181.816,41.048,180.375,41.61,179.302,42.73z"/>
	<path fill="#FFFFFF" d="M215.982,40.052c1.122,1.359,1.685,3.684,1.685,6.97v15.933h-4.078V47.781c0-1.612-0.143-2.839-0.427-3.675
		c-0.283-0.837-0.74-1.417-1.373-1.729c-0.633-0.317-1.502-0.474-2.608-0.474c-1.076,0-2.175,0.142-3.296,0.425
		c-1.122,0.285-2.411,0.792-3.864,1.521v19.108h-4.076V38.25h4.076v2.845c1.453-1.075,2.826-1.857,4.125-2.346
		c1.296-0.489,2.766-0.735,4.408-0.735C213.053,38.013,214.861,38.691,215.982,40.052z"/>
	<path fill="#FFFFFF" d="M243.419,62.242c-1.582,0.442-3.258,0.79-5.025,1.043c-1.776,0.253-3.337,0.377-4.694,0.377
		c-6.827,0-10.242-4.155-10.242-12.474c0-4.551,0.973-7.923,2.918-10.124c1.94-2.196,4.622-3.295,8.034-3.295
		c1.426,0,3.021,0.253,4.789,0.76V25.02h4.174L243.419,62.242z M229.171,58.307c1.217,1.359,2.946,2.039,5.191,2.039
		c1.233,0,2.846-0.206,4.836-0.616V41.57c-1.391-0.349-2.703-0.524-3.936-0.524c-2.498,0-4.441,0.775-5.831,2.325
		c-1.393,1.549-2.086,4.157-2.086,7.823C227.343,54.578,227.952,56.947,229.171,58.307z"/>
	<path fill="#FFFFFF" d="M263.6,59.872c0.963-0.22,2.126-0.553,3.485-0.996l0.616,3.129c-1.549,0.601-2.893,1.041-4.031,1.327
		c-1.137,0.281-2.339,0.424-3.603,0.424c-3.321,0-5.967-1.043-7.942-3.129c-1.977-2.086-2.963-5.375-2.963-9.864
		c0-4.426,0.956-7.657,2.869-9.696c1.912-2.037,4.465-3.059,7.659-3.059c2.972,0,5.098,0.807,6.375,2.42
		c1.279,1.613,1.922,3.841,1.922,6.686c0,1.771-0.112,3.225-0.328,4.364l-14.419-0.047c0.159,3.32,0.872,5.61,2.133,6.874
		c1.266,1.266,2.972,1.895,5.123,1.895C261.601,60.203,262.634,60.093,263.6,59.872z M255.184,42.73
		c-1.075,1.124-1.707,3.028-1.896,5.714l10.952-0.143c0.063-0.82,0.094-1.5,0.094-2.037c0-1.675-0.37-2.964-1.113-3.863
		c-0.743-0.902-1.982-1.353-3.724-1.353C257.695,41.048,256.257,41.61,255.184,42.73z"/>
	<path fill="#FFFFFF" d="M286.673,41.997c-1.613,0-3.195,0.243-4.742,0.732c-1.549,0.492-2.892,1.146-4.031,1.97v18.255h-4.075
		V38.249h4.075v3.272c1.172-0.978,2.562-1.8,4.175-2.466c1.613-0.664,3.239-1.011,4.884-1.043L286.673,41.997z"/>
</g>
</svg>
