<?xml version="1.0" encoding="utf-8"?>
<!-- Generator: Adobe Illustrator 15.1.0, SVG Export Plug-In . SVG Version: 6.00 Build 0)  -->
<!DOCTYPE svg PUBLIC "-//W3C//DTD SVG 1.1//EN" "http://www.w3.org/Graphics/SVG/1.1/DTD/svg11.dtd">
<svg version="1.1" id="Layer_30" xmlns="http://www.w3.org/2000/svg" xmlns:xlink="http://www.w3.org/1999/xlink" x="0px" y="0px"
	 width="800px" height="450px" viewBox="0 0 800 450" enable-background="new 0 0 800 450" xml:space="preserve">
<g>
	<path fill="#ED1C24" d="M648.366,34.301v109.311h-23.589V74.608l-68.536,68.531c12.604,16.202,19.437,36.009,19.437,56.875
		c0,24.823-9.668,48.183-27.229,65.707c-17.562,17.565-40.891,27.237-65.712,27.237c-21.796,0-42.454-7.452-59.062-21.161
		c-12.873,10.631-28.179,17.501-44.565,20.045v47.036h53.776v23.593h-53.776v53.794h-23.614v-53.794H308.99v-23.593h46.507v-46.366
		c-18.389-1.785-35.642-8.939-49.9-20.704c-14.254,11.765-31.481,18.917-49.868,20.704v46.366h46.504v23.593h-46.504v53.794h-23.614
		v-53.794h-53.778v-23.593h53.778v-47.036c-19.337-2.999-37.18-12.017-51.288-26.121c-17.526-17.525-27.198-40.884-27.198-65.707
		c0-24.829,9.672-48.151,27.198-65.693c17.566-17.559,40.925-27.232,65.748-27.232c21.788,0,42.425,7.452,59.02,21.153
		c16.599-13.702,37.265-21.153,59.053-21.153c21.789,0,42.43,7.452,59.026,21.157c16.606-13.707,37.266-21.157,59.061-21.157
		c20.827,0,40.601,6.81,56.807,19.38l68.509-68.556h-70.299V34.301H648.366z M246.576,269.367c16.128,0,30.99-5.541,42.771-14.816
		c-11.451-15.754-17.644-34.676-17.644-54.537c0-19.87,6.193-38.774,17.652-54.527c-11.786-9.276-26.646-14.808-42.78-14.808
		c-38.244,0-69.33,31.101-69.33,69.335C177.246,238.223,208.332,269.367,246.576,269.367z M305.613,236.33
		c6.527-10.57,10.296-23.015,10.296-36.316c0-13.308-3.768-25.756-10.296-36.33c-6.526,10.573-10.297,23.021-10.297,36.33
		C295.315,213.316,299.087,225.76,305.613,236.33z M364.649,130.679c-16.142,0-31.003,5.54-42.794,14.812
		c11.474,15.751,17.666,34.657,17.666,54.52c0,19.854-6.192,38.777-17.659,54.526c11.792,9.279,26.651,14.824,42.787,14.824
		c16.132,0,30.99-5.543,42.785-14.824c-11.452-15.749-17.645-34.673-17.645-54.526c0-19.861,6.194-38.769,17.652-54.52
		C395.649,136.219,380.785,130.679,364.649,130.679z M433.982,200.014c0-13.306-3.765-25.754-10.292-36.317
		c-6.52,10.563-10.288,23.011-10.288,36.317c0,13.297,3.769,25.739,10.288,36.309C430.217,225.753,433.982,213.311,433.982,200.014z
		 M552.069,200.014c0-38.233-31.101-69.335-69.331-69.335c-16.14,0-31.011,5.542-42.808,14.818
		c11.467,15.749,17.664,34.654,17.664,54.517c0,19.851-6.19,38.774-17.653,54.523c11.792,9.281,26.66,14.831,42.797,14.831
		C520.968,269.367,552.069,238.223,552.069,200.014z"/>
</g>
</svg>
