<?xml version="1.0" encoding="utf-8"?>
<!-- Generator: Adobe Illustrator 15.1.0, SVG Export Plug-In . SVG Version: 6.00 Build 0)  -->
<!DOCTYPE svg PUBLIC "-//W3C//DTD SVG 1.1//EN" "http://www.w3.org/Graphics/SVG/1.1/DTD/svg11.dtd">
<svg version="1.1" id="Gif" xmlns="http://www.w3.org/2000/svg" xmlns:xlink="http://www.w3.org/1999/xlink" x="0px" y="0px"
	 width="800px" height="450px" viewBox="0 0 800 450" enable-background="new 0 0 800 450" xml:space="preserve">
<g>
	<path fill="#ED1C24" d="M646.466,85.2v111.54h-24.073v-70.436l-66.502,66.526c10.68,15.598,16.418,34.021,16.418,53.339
		c0,25.328-9.869,49.172-27.79,67.051c-17.925,17.925-41.728,27.791-67.057,27.791c-25.325,0-49.165-9.866-67.089-27.791
		c-7.172-7.182-13.062-15.311-17.536-24.115c-8.132,2.24-16.622,3.395-25.283,3.395c-22.234,0-43.324-7.607-60.261-21.578
		c-13.85,11.42-30.438,18.588-48.179,20.822v47.613h54.911v24.074h-54.912v54.914h-24.093v-54.914h-54.882v-24.075h54.883v-47.614
		c-20.774-2.611-40-11.988-55.041-27.032c-17.89-17.89-27.758-41.726-27.758-67.051c0-25.337,9.869-49.133,27.758-67.032
		c17.918-17.92,41.75-27.788,67.084-27.788c22.232,0,43.292,7.608,60.227,21.586c16.937-13.978,38.026-21.586,60.26-21.586
		c18.955,0,37.051,5.533,52.467,15.82l65.959-65.979l-71.758-0.035V28.583l112.859,0.036v111.516h-24.071V69.708l-64.749,64.776
		c5.555,6.19,10.212,12.995,13.912,20.263c8.137-2.243,16.632-3.394,25.29-3.394c23.2,0,45.114,8.277,62.409,23.436l65.488-65.518
		H534.92V85.198L646.466,85.2z M247.066,268.427c16.455,0,31.625-5.647,43.644-15.112c-11.688-16.074-18.002-35.382-18.002-55.652
		c0-20.275,6.314-39.565,18.011-55.64c-12.025-9.462-27.191-15.106-43.652-15.106c-39.024,0-70.745,31.735-70.745,70.748
		C176.322,236.648,208.043,268.427,247.066,268.427z M317.816,197.668c0-13.583-3.844-26.286-10.506-37.064
		c-6.657,10.779-10.507,23.482-10.507,37.064c0,13.575,3.85,26.27,10.507,37.061C313.97,223.938,317.816,211.243,317.816,197.668z
		 M367.555,268.436c5.926,0,11.688-0.732,17.203-2.118c-1.414-6.54-2.135-13.286-2.135-20.138c0-25.331,9.865-49.133,27.75-67.029
		c5.902-5.9,12.439-10.927,19.463-15.014c-11.966-22.141-35.397-37.218-62.282-37.218c-16.476,0-31.64,5.653-43.671,15.114
		c11.707,16.074,18.028,35.364,18.028,55.629c0,20.266-6.321,39.571-18.022,55.645c12.035,9.472,27.191,15.119,43.665,15.119
		L367.555,268.436L367.555,268.436z M437.609,187.749c-18.644,12.753-30.893,34.19-30.893,58.429c0,3.367,0.241,6.682,0.694,9.924
		c18.635-12.77,30.887-34.213,30.887-58.436C438.299,194.3,438.065,190.99,437.609,187.749z M548.213,246.18
		c0-39.011-31.736-70.748-70.752-70.748c-5.926,0-11.686,0.729-17.194,2.116c1.403,6.536,2.122,13.275,2.122,20.123
		c0,25.323-9.867,49.166-27.782,67.053c-5.896,5.889-12.421,10.91-19.431,14.991c11.973,22.139,35.397,37.237,62.285,37.237
		C516.477,316.951,548.213,285.17,548.213,246.18z"/>
</g>
</svg>
