<?xml version="1.0" encoding="utf-8"?>
<!-- Generator: Adobe Illustrator 15.1.0, SVG Export Plug-In . SVG Version: 6.00 Build 0)  -->
<!DOCTYPE svg PUBLIC "-//W3C//DTD SVG 1.1//EN" "http://www.w3.org/Graphics/SVG/1.1/DTD/svg11.dtd">
<svg version="1.1" id="Layer_1" xmlns="http://www.w3.org/2000/svg" xmlns:xlink="http://www.w3.org/1999/xlink" x="0px" y="0px"
	 width="824px" height="100px" viewBox="0 0 824 100" enable-background="new 0 0 824 100" xml:space="preserve">
<g id="Resultado" display="none">
	<rect x="118.5" y="236.406" display="inline" fill="#939598" width="563" height="92.258"/>
	<g display="inline">
		<rect x="0" y="17.5" fill="none" width="800" height="337"/>
		<text transform="matrix(1 0 0 1 204.1526 97.498)" fill="#ED1C24" font-family="'SuitSansPro-Heavy'" font-size="100">9 certos</text>
		<text transform="matrix(1 0 0 1 171.803 194.498)" fill="#939598" font-family="'SuitSansPro-Heavy'" font-size="100">6 errados</text>
	</g>
	<rect x="0" y="256.49" display="inline" fill="none" width="800" height="82.5"/>
	
		<text transform="matrix(1 0 0 1 161.2932 304.4922)" display="inline" fill="#FFFFFF" font-family="'SuitSansPro-Heavy'" font-size="60">JOGUE DE NOVO</text>
	<path display="inline" fill="#FFFFFF" d="M66.22,402.35V370.65l22.43-22.543h31.7l22.544,22.543v31.699l-22.544,22.432h-6.409
		V397.43h9.271l1.483-11.215H113.94v-9.498l2.403-2.404h8.583v-10.871h-14.762l-7.557,7.553v15.227H93.8v11.213h8.812v27.352H88.65
		L66.22,402.35z"/>
	<path display="inline" fill="#FFFFFF" d="M657.106,402.35V370.65l22.43-22.543h31.7l22.544,22.543v31.699l-22.544,22.432h-31.7
		L657.106,402.35z M701.618,411.275l17.737-17.852l0.115-10.529v-4.348l4.92-4.354l-5.607,0.346l4.01-4.922l-6.064,1.721
		l-3.434-3.205h-8.584l-6.184,6.061v6.643h-10.98L673.93,367.33v11.561l5.721,5.836l-6.064-1.604v3.436l8.015,8.01h-5.15
		l6.981,6.865h4.462l-4.577,4.58h-12.131l5.265,5.262H701.618z"/>
</g>
<rect x="0.019" y="8.26" fill="#707374" width="824" height="83.398"/>
<g enable-background="new    ">
	<path fill="#FFFFFF" d="M150.512,29.179c2.896,1.541,5.019,3.95,6.357,7.229c1.34,3.279,2.01,7.58,2.01,12.9
		c0,5.322-0.67,9.631-2.01,12.932c-1.342,3.299-3.461,5.729-6.357,7.289c-2.901,1.561-6.73,2.34-11.49,2.34h-16.319V26.867h16.319
		C143.781,26.87,147.612,27.64,150.512,29.179z M142.652,59.301c0.7-0.779,1.181-1.959,1.438-3.539
		c0.262-1.58,0.393-3.773,0.393-6.573c0-2.797-0.13-5.01-0.393-6.629c-0.261-1.621-0.738-2.84-1.438-3.66
		c-0.699-0.819-1.71-1.229-3.029-1.229h-2.938v22.802h2.938C140.942,60.471,141.952,60.082,142.652,59.301z"/>
	<path fill="#FFFFFF" d="M165.572,68.932c-2.261-2.643-3.39-6.84-3.39-12.602c0-3.842,0.486-6.981,1.47-9.422
		c0.979-2.438,2.601-4.26,4.86-5.461c2.259-1.199,5.286-1.799,9.09-1.799c5.357,0,9.169,1.34,11.43,4.02
		c2.26,2.684,3.391,6.9,3.391,12.663c0,3.84-0.487,6.976-1.47,9.394c-0.979,2.422-2.591,4.221-4.83,5.396
		c-2.241,1.183-5.28,1.771-9.12,1.771C171.642,72.891,167.832,71.572,165.572,68.932z M179.222,61.492c0.357-1,0.54-2.92,0.54-5.76
		c0-2.723-0.183-4.564-0.54-5.525c-0.36-0.96-1-1.438-1.923-1.438c-0.642,0-1.131,0.201-1.47,0.601
		c-0.341,0.399-0.58,1.089-0.721,2.071c-0.143,0.979-0.21,2.412-0.21,4.291c0,1.961,0.067,3.461,0.21,4.5
		c0.141,1.041,0.38,1.763,0.721,2.16c0.339,0.396,0.829,0.601,1.47,0.601C178.222,62.992,178.862,62.492,179.222,61.492z"/>
	<path fill="#FFFFFF" d="M244.201,40.31l-7.921,31.561h-15.479l-2.22-11.219l-2.46,11.219H201.24l-7.92-31.561h14.7l1.857,19.381
		l3.96-16.983h9.843l3.897,18.124l1.92-20.522H244.201z"/>
	<path fill="#FFFFFF" d="M277.652,42.769c1.221,1.961,1.83,4.739,1.83,8.34v20.762h-13.979V53.811c0-0.724-0.161-1.355-0.479-1.895
		c-0.321-0.54-0.86-0.811-1.62-0.811c-0.359,0-0.899,0.121-1.62,0.358v20.399h-13.979V40.304h13.979V44.2
		c1.681-1.52,3.24-2.631,4.681-3.33c1.439-0.697,3.021-1.051,4.74-1.051C274.281,39.83,276.431,40.81,277.652,42.769z"/>
	<path fill="#FFFFFF" d="M285.481,23.87h14.04v48.001h-14.04V23.87z"/>
	<path fill="#FFFFFF" d="M308.009,68.932c-2.261-2.643-3.39-6.84-3.39-12.602c0-3.842,0.488-6.981,1.47-9.422
		c0.979-2.438,2.603-4.26,4.859-5.461c2.259-1.199,5.289-1.799,9.091-1.799c5.359,0,9.169,1.34,11.43,4.02
		c2.262,2.684,3.393,6.9,3.393,12.663c0,3.84-0.489,6.976-1.47,9.394c-0.98,2.422-2.593,4.221-4.83,5.396
		c-2.241,1.183-5.28,1.771-9.12,1.771C314.08,72.891,310.27,71.572,308.009,68.932z M321.661,61.492c0.359-1,0.54-2.92,0.54-5.76
		c0-2.723-0.181-4.564-0.54-5.525c-0.36-0.959-1-1.438-1.921-1.438c-0.641,0-1.131,0.201-1.47,0.601
		c-0.34,0.399-0.58,1.089-0.723,2.071c-0.142,0.979-0.21,2.412-0.21,4.291c0,1.961,0.068,3.461,0.21,4.5
		c0.143,1.041,0.383,1.763,0.723,2.16c0.339,0.396,0.83,0.601,1.47,0.601C320.66,62.992,321.3,62.492,321.661,61.492z"/>
	<path fill="#FFFFFF" d="M364.71,43.25c2.42,2.32,3.63,6.021,3.63,11.104v17.521h-12.42v-3.181c-0.801,1.32-1.87,2.351-3.21,3.09
		c-1.341,0.74-2.851,1.109-4.527,1.109c-1.843,0-3.521-0.42-5.04-1.26c-1.521-0.842-2.729-1.998-3.633-3.479
		c-0.897-1.48-1.351-3.121-1.351-4.92c0-3.441,1.08-6.051,3.24-7.83c2.16-1.78,5.12-2.672,8.88-2.672h4.92
		c-0.399-2.08-1.96-3.122-4.68-3.122c-0.88,0-2.109,0.09-3.689,0.271c-1.581,0.181-3.291,0.472-5.131,0.869l-1.68-8.52
		c4.561-1.64,9-2.459,13.317-2.459C358.5,39.769,362.29,40.929,364.71,43.25z M355.259,62.812V58.67h-2.697
		c-1.08,0-1.933,0.24-2.553,0.721c-0.618,0.479-0.93,1.121-0.93,1.922c0,0.76,0.278,1.359,0.84,1.799
		c0.562,0.441,1.299,0.66,2.223,0.66C353.259,63.771,354.3,63.451,355.259,62.812z"/>
	<path fill="#FFFFFF" d="M403.619,23.87v47.401c-4.88,1.08-9.859,1.619-14.938,1.619c-4.603,0-8.29-1.397-11.07-4.199
		c-2.78-2.799-4.17-7.059-4.17-12.778c0-3.358,0.601-6.272,1.8-8.731c1.2-2.459,2.739-4.328,4.62-5.609
		c1.88-1.279,3.801-1.92,5.761-1.92c1.562,0,3.062,0.42,4.5,1.261v-17.04L403.619,23.87L403.619,23.87z M386.759,60.92
		c0.762,1.143,1.722,1.711,2.883,1.711c0.197,0,0.357-0.021,0.479-0.061V47.148h-0.24c-1.278,0-2.311,0.74-3.09,2.22
		c-0.78,1.479-1.17,3.461-1.17,5.942C385.62,57.912,386,59.781,386.759,60.92z"/>
	<path fill="#FFFFFF" d="M439.198,38.269v8.041h15.361v10.202h-15.361v15.357H425.22V26.867h31.143v11.4L439.198,38.269
		L439.198,38.269z"/>
	<path fill="#FFFFFF" d="M485.698,52.549c-1.84,0-3.68,0.262-5.521,0.78c-1.84,0.521-3.318,1.278-4.438,2.28v16.26H461.76V40.308
		h13.979v5.938c1.199-1.92,2.729-3.5,4.591-4.738c1.858-1.238,3.77-1.859,5.729-1.859L485.698,52.549z"/>
	<path fill="#FFFFFF" d="M516.299,61.131l1.438,9.301c-1.68,0.76-3.649,1.357-5.91,1.801c-2.26,0.438-4.37,0.658-6.329,0.658
		c-4.642,0-8.49-1.369-11.55-4.109c-3.062-2.737-4.59-7.01-4.59-12.811c0-5.8,1.508-9.972,4.525-12.513
		c3.021-2.537,6.812-3.81,11.371-3.81c3.92,0,7.118,0.949,9.604,2.85c2.479,1.9,3.719,4.99,3.719,9.271
		c0,2.082-0.319,4.301-0.959,6.66l-14.76-0.119c0.396,1.479,1.06,2.541,1.979,3.18c0.918,0.645,2.18,0.962,3.778,0.962
		C510.739,62.451,513.299,62.012,516.299,61.131z M502.948,48.29c-0.42,0.763-0.649,1.979-0.69,3.659l5.701-0.18V51.23
		c0-1.283-0.173-2.283-0.511-3c-0.342-0.721-1.071-1.08-2.19-1.08C504.135,47.15,503.368,47.529,502.948,48.29z"/>
	<path fill="#FFFFFF" d="M549.118,61.131l1.439,9.301c-1.685,0.76-3.65,1.357-5.91,1.801c-2.264,0.438-4.371,0.658-6.33,0.658
		c-4.645,0-8.489-1.369-11.551-4.109c-3.062-2.737-4.592-7.01-4.592-12.811c0-5.8,1.512-9.972,4.528-12.513
		c3.021-2.537,6.812-3.81,11.369-3.81c3.92,0,7.119,0.949,9.603,2.85c2.479,1.9,3.723,4.99,3.723,9.271
		c0,2.082-0.319,4.301-0.961,6.66l-14.762-0.119c0.397,1.479,1.062,2.541,1.979,3.18c0.92,0.645,2.181,0.962,3.779,0.962
		C543.559,62.451,546.118,62.012,549.118,61.131z M535.768,48.29c-0.422,0.763-0.65,1.979-0.689,3.659l5.701-0.18V51.23
		c0-1.283-0.172-2.283-0.514-3c-0.342-0.721-1.068-1.08-2.188-1.08S536.188,47.529,535.768,48.29z"/>
	<path fill="#FFFFFF" d="M586.077,38.269v8.041h15.359v10.202h-15.359v15.357h-13.979V26.867h31.143v11.4L586.077,38.269
		L586.077,38.269z"/>
	<path fill="#FFFFFF" d="M610.528,68.932c-2.26-2.643-3.393-6.84-3.393-12.602c0-3.842,0.488-6.981,1.473-9.422
		c0.979-2.438,2.6-4.26,4.857-5.461c2.258-1.199,5.289-1.799,9.092-1.799c5.357,0,9.17,1.34,11.432,4.02
		c2.26,2.684,3.389,6.9,3.389,12.663c0,3.84-0.489,6.976-1.469,9.394c-0.979,2.422-2.59,4.221-4.83,5.396
		c-2.239,1.183-5.28,1.771-9.121,1.771C616.594,72.891,612.786,71.572,610.528,68.932z M624.174,61.492
		c0.36-1,0.541-2.92,0.541-5.76c0-2.723-0.181-4.564-0.541-5.525c-0.355-0.96-1-1.438-1.92-1.438c-0.642,0-1.131,0.201-1.47,0.601
		c-0.342,0.399-0.579,1.089-0.721,2.071c-0.143,0.979-0.211,2.412-0.211,4.291c0,1.961,0.068,3.461,0.211,4.5
		c0.142,1.041,0.379,1.763,0.721,2.16c0.339,0.396,0.828,0.601,1.47,0.601C623.174,62.992,623.819,62.492,624.174,61.492z"/>
	<path fill="#FFFFFF" d="M672.327,42.769c1.22,1.961,1.83,4.739,1.83,8.34v20.762h-13.979V53.811c0-0.724-0.16-1.355-0.479-1.895
		c-0.319-0.542-0.86-0.811-1.618-0.811c-0.361,0-0.9,0.121-1.621,0.358v20.399h-13.98V40.304h13.979V44.2
		c1.683-1.52,3.24-2.631,4.683-3.33c1.438-0.697,3.021-1.051,4.738-1.051C668.957,39.83,671.108,40.81,672.327,42.769z"/>
	<path fill="#FFFFFF" d="M703.737,70.012c-1.84,0.881-3.434,1.479-4.771,1.801c-1.341,0.318-2.729,0.479-4.17,0.479
		c-4.761,0-8.199-1.369-10.318-4.106c-2.119-2.738-3.182-6.629-3.182-11.67v-7.805h-3.539v-8.397h3.539v-8.039h13.262v8.039h7.438
		v8.397h-7.438v7.686c0,2.438,0.328,4.131,0.988,5.065c0.659,0.938,1.59,1.41,2.791,1.41c0.92,0,2.18-0.237,3.778-0.722
		L703.737,70.012z"/>
</g>
<polygon fill="#FFFFFF" points="58.61,14.425 68.132,38.579 94.047,40.172 74.017,56.693 80.511,81.832 58.61,67.887 36.709,81.832 
	43.203,56.693 23.173,40.172 49.088,38.579 "/>
<polygon fill="#FFFFFF" points="764.174,14.425 773.696,38.579 799.61,40.172 779.58,56.693 786.073,81.832 764.174,67.887 
	742.274,81.832 748.764,56.693 728.737,40.172 754.653,38.579 "/>
</svg>
