<?xml version="1.0" encoding="utf-8"?>
<!-- Generator: Adobe Illustrator 15.1.0, SVG Export Plug-In . SVG Version: 6.00 Build 0)  -->
<!DOCTYPE svg PUBLIC "-//W3C//DTD SVG 1.1//EN" "http://www.w3.org/Graphics/SVG/1.1/DTD/svg11.dtd">
<svg version="1.1" id="Layer_1" xmlns="http://www.w3.org/2000/svg" xmlns:xlink="http://www.w3.org/1999/xlink" x="0px" y="0px"
	 width="290px" height="125px" viewBox="290.125 0 290 125" enable-background="new 290.125 0 290 125" xml:space="preserve">
<g id="Resultado" display="none">
	<rect x="118.5" y="236.406" display="inline" fill="#939598" width="563" height="92.258"/>
	<g display="inline">
		<rect x="0" y="17.5" fill="none" width="800" height="337"/>
		<text transform="matrix(1 0 0 1 204.1526 97.498)" fill="#ED1C24" font-family="'SuitSansPro-Heavy'" font-size="100">9 certos</text>
		<text transform="matrix(1 0 0 1 171.803 194.4961)" fill="#939598" font-family="'SuitSansPro-Heavy'" font-size="100">6 errados</text>
	</g>
	<rect x="0" y="256.49" display="inline" fill="none" width="800" height="82.5"/>
	
		<text transform="matrix(1 0 0 1 161.2932 304.4922)" display="inline" fill="#FFFFFF" font-family="'SuitSansPro-Heavy'" font-size="60">JOGUE DE NOVO</text>
	<path display="inline" fill="#FFFFFF" d="M66.22,402.35V370.65l22.43-22.543h31.7l22.544,22.543v31.699l-22.544,22.432h-6.409
		V397.43h9.271l1.48-11.215H113.94v-9.498l2.403-2.404h8.583v-10.871h-14.762l-7.56,7.553v15.23H93.8v11.213h8.812v27.352H88.65
		L66.22,402.35z"/>
	<path display="inline" fill="#FFFFFF" d="M657.106,402.35V370.65l22.43-22.543h31.7l22.544,22.543v31.699l-22.544,22.432h-31.7
		L657.106,402.35z M701.615,411.275l17.737-17.852l0.115-10.529v-4.348l4.92-4.355l-5.607,0.346l4.013-4.922l-6.064,1.723
		l-3.434-3.205h-8.584l-6.187,6.061v6.646h-10.979l-13.616-13.51v11.561l5.721,5.836l-6.064-1.604v3.436l8.018,8.01h-5.15
		l6.981,6.865h4.462l-4.577,4.58h-12.131l5.265,5.262H701.615L701.615,411.275z"/>
</g>
<path fill="#FFFFFF" d="M373.332,79.602v-31.7l22.425-22.545h31.696L450,47.902v31.7l-22.548,22.43h-6.405V74.68h9.271l1.486-11.214
	h-10.759v-9.497l2.399-2.404h8.584V40.691h-14.764l-7.556,7.555v15.223h-8.81v11.215h8.812v27.354h-13.96L373.332,79.602z"/>
</svg>
