<?xml version="1.0" encoding="utf-8"?>
<!-- Generator: Adobe Illustrator 15.1.0, SVG Export Plug-In . SVG Version: 6.00 Build 0)  -->
<!DOCTYPE svg PUBLIC "-//W3C//DTD SVG 1.1//EN" "http://www.w3.org/Graphics/SVG/1.1/DTD/svg11.dtd">
<svg version="1.1" id="Layer_1" xmlns="http://www.w3.org/2000/svg" xmlns:xlink="http://www.w3.org/1999/xlink" x="0px" y="0px"
	 width="580px" height="125px" viewBox="0 0 580 125" enable-background="new 0 0 580 125" xml:space="preserve">
<g id="Resultado" display="none">
	<rect x="118.5" y="236.406" display="inline" fill="#939598" width="563" height="92.258"/>
	<g display="inline">
		<rect x="0" y="17.5" fill="none" width="800" height="337"/>
		<text transform="matrix(1 0 0 1 204.1526 97.498)" fill="#ED1C24" font-family="'SuitSansPro-Heavy'" font-size="100">9 certos</text>
		<text transform="matrix(1 0 0 1 171.803 194.4961)" fill="#939598" font-family="'SuitSansPro-Heavy'" font-size="100">6 errados</text>
	</g>
	<rect x="0" y="256.49" display="inline" fill="none" width="800" height="82.5"/>
	
		<text transform="matrix(1 0 0 1 161.2932 304.4922)" display="inline" fill="#FFFFFF" font-family="'SuitSansPro-Heavy'" font-size="60">JOGUE DE NOVO</text>
	<path display="inline" fill="#FFFFFF" d="M66.22,402.35V370.65l22.43-22.543h31.7l22.544,22.543v31.699l-22.544,22.432h-6.409
		V397.43h9.271l1.481-11.215H113.94v-9.498l2.403-2.404h8.583v-10.871h-14.762l-7.559,7.553v15.23H93.8v11.213h8.812v27.352H88.65
		L66.22,402.35z"/>
	<path display="inline" fill="#FFFFFF" d="M657.106,402.35V370.65l22.43-22.543h31.7l22.544,22.543v31.699l-22.544,22.432h-31.7
		L657.106,402.35z M701.616,411.275l17.737-17.852l0.115-10.529v-4.348l4.92-4.355l-5.607,0.346l4.012-4.922l-6.064,1.723
		l-3.434-3.205h-8.584l-6.186,6.061v6.645h-10.979L673.93,367.33v11.561l5.721,5.836l-6.064-1.604v3.436l8.017,8.01h-5.15
		l6.981,6.865h4.462l-4.577,4.58h-12.131l5.265,5.262H701.616L701.616,411.275z"/>
</g>
<path fill="#FFFFFF" d="M396.832,79.602v-31.7l22.425-22.545h31.697L473.5,47.902v31.7l-22.547,22.43h-6.406V74.68h9.271
	l1.486-11.214h-10.759v-9.497l2.4-2.404h8.584V40.691h-14.764l-7.555,7.555v15.223H424.4v11.215h8.812v27.354h-13.96L396.832,79.602
	z"/>
<g>
	<path fill="#FFFFFF" d="M139.525,66.854c1.2,1.9,1.8,4.312,1.8,7.229c0,4.36-1.28,7.53-3.84,9.511
		c-2.56,1.979-6.479,2.971-11.76,2.971h-16.979v-45h15.42c5.318,0,9.14,0.91,11.46,2.73c2.318,1.82,3.479,4.77,3.479,8.85
		c0,2.44-0.399,4.42-1.2,5.939c-0.801,1.521-2.121,2.7-3.96,3.54C136.465,63.544,138.324,64.954,139.525,66.854z M116.665,47.863
		v12.601h7.68c2.64,0,4.52-0.47,5.64-1.41c1.12-0.939,1.681-2.55,1.681-4.83c0-2.28-0.57-3.909-1.71-4.891
		c-1.141-0.979-3.13-1.47-5.971-1.47H116.665z M131.665,78.434c1.238-1.1,1.859-2.81,1.859-5.129c0-2.4-0.681-4.189-2.04-5.371
		c-1.359-1.18-3.64-1.771-6.84-1.771h-7.979v13.979l9.06-0.061C128.445,80.083,130.425,79.533,131.665,78.434z"/>
	<path fill="#FFFFFF" d="M174.425,55.243v31.319h-8.101v-3.42c-1.68,1.32-3.261,2.28-4.739,2.881c-1.48,0.6-3.101,0.899-4.86,0.899
		c-3.16,0-5.41-0.899-6.75-2.7c-1.341-1.8-2.01-4.68-2.01-8.641V55.184h8.16v18.96c0,2.199,0.319,3.729,0.96,4.59
		c0.64,0.859,1.76,1.289,3.359,1.289c1.601,0,3.561-0.578,5.88-1.74V55.244L174.425,55.243L174.425,55.243z"/>
	<path fill="#FFFFFF" d="M209.585,55.243l-13.86,43.319h-7.62l3.66-12h-1.74l-9.84-31.319h8.46l6.18,24.54l6.48-24.54H209.585z"/>
</g>
</svg>
