<?xml version="1.0" encoding="utf-8"?>
<!-- Generator: Adobe Illustrator 15.1.0, SVG Export Plug-In . SVG Version: 6.00 Build 0)  -->
<!DOCTYPE svg PUBLIC "-//W3C//DTD SVG 1.1//EN" "http://www.w3.org/Graphics/SVG/1.1/DTD/svg11.dtd">
<svg version="1.1" id="Layer_1" xmlns="http://www.w3.org/2000/svg" xmlns:xlink="http://www.w3.org/1999/xlink" x="0px" y="0px"
	 width="580px" height="125px" viewBox="0 0 580 125" enable-background="new 0 0 580 125" xml:space="preserve">
<g id="Resultado" display="none">
	<rect x="118.5" y="236.406" display="inline" fill="#939598" width="563" height="92.258"/>
	<g display="inline">
		<rect x="0" y="17.5" fill="none" width="800" height="337"/>
		<text transform="matrix(1 0 0 1 204.1526 97.498)" fill="#ED1C24" font-family="'SuitSansPro-Heavy'" font-size="100">9 certos</text>
		<text transform="matrix(1 0 0 1 171.803 194.498)" fill="#939598" font-family="'SuitSansPro-Heavy'" font-size="100">6 errados</text>
	</g>
	<rect x="0" y="256.49" display="inline" fill="none" width="800" height="82.5"/>
	
		<text transform="matrix(1 0 0 1 161.2932 304.4922)" display="inline" fill="#FFFFFF" font-family="'SuitSansPro-Heavy'" font-size="60">JOGUE DE NOVO</text>
	<path display="inline" fill="#FFFFFF" d="M66.22,402.35V370.65l22.43-22.543h31.7l22.544,22.543v31.699l-22.544,22.432h-6.409
		V397.43h9.271l1.483-11.215H113.94v-9.498l2.403-2.404h8.583v-10.871h-14.762l-7.557,7.553v15.227H93.8v11.213h8.812v27.352H88.65
		L66.22,402.35z"/>
	<path display="inline" fill="#FFFFFF" d="M657.106,402.35V370.65l22.43-22.543h31.7l22.544,22.543v31.699l-22.544,22.432h-31.7
		L657.106,402.35z M701.618,411.275l17.737-17.852l0.115-10.529v-4.348l4.92-4.354l-5.607,0.346l4.01-4.922l-6.064,1.721
		l-3.434-3.205h-8.584l-6.184,6.061v6.643h-10.98L673.93,367.33v11.561l5.721,5.836l-6.064-1.604v3.436l8.015,8.01h-5.15
		l6.981,6.865h4.462l-4.577,4.58h-12.131l5.265,5.262H701.618z"/>
</g>
<path fill="#FFFFFF" d="M403.333,79.602v-31.7l22.424-22.545h31.698L480,47.902v31.7l-22.545,22.43h-6.408V74.68h9.271l1.486-11.214
	h-10.759v-9.497l2.402-2.404h8.584V40.691h-14.764l-7.555,7.555v15.223h-8.812v11.215h8.812v27.353h-13.959L403.333,79.602z"/>
<g enable-background="new    ">
	<path fill="#FFFFFF" d="M111.74,82.959c2.12,1.521,4.28,2.74,6.48,3.66c2.198,0.921,4.26,1.38,6.18,1.38
		c1.879,0,3.47-0.54,4.77-1.62c1.301-1.078,1.95-2.52,1.95-4.318c0-1.32-0.39-2.451-1.17-3.392c-0.78-0.938-1.74-1.739-2.88-2.399
		s-2.75-1.449-4.83-2.369c-2.56-1.119-4.641-2.17-6.24-3.149c-1.601-0.979-2.961-2.289-4.08-3.931c-1.121-1.641-1.68-3.641-1.68-6
		c0-2.561,0.66-4.77,1.98-6.631c1.318-1.859,3.079-3.278,5.278-4.26c2.199-0.979,4.58-1.471,7.142-1.471
		c3.879,0,7.858,1.24,11.938,3.721l-1.858,6.239c-4.08-1.999-7.44-3-10.08-3c-1.92,0-3.48,0.461-4.682,1.382
		c-1.199,0.92-1.8,2.158-1.8,3.719c0,1.602,0.66,2.892,1.98,3.871c1.318,0.979,3.339,2.049,6.06,3.209
		c2.68,1.201,4.86,2.32,6.54,3.359c1.68,1.041,3.129,2.48,4.35,4.32c1.222,1.841,1.83,4.14,1.83,6.9c0,2.76-0.608,5.118-1.83,7.08
		c-1.221,1.959-2.89,3.438-5.01,4.438c-2.121,1-4.5,1.5-7.14,1.5c-3.081,0-5.971-0.6-8.67-1.799c-2.7-1.201-5.011-2.602-6.932-4.201
		L111.74,82.959z"/>
	<path fill="#FFFFFF" d="M171.561,65.32c1.357,1.8,2.04,4.699,2.04,8.699v20.34h-8.102V75.58c0-2.238-0.318-3.779-0.96-4.62
		c-0.64-0.84-1.8-1.261-3.479-1.261c-1.92,0-4.062,0.562-6.42,1.681v22.979h-8.102v-48h8.102V66.58c1.719-1.359,3.358-2.359,4.92-3
		c1.56-0.639,3.318-0.96,5.278-0.96C167.961,62.619,170.2,63.52,171.561,65.32z"/>
	<path fill="#FFFFFF" d="M203.75,65.499c1.86,1.92,2.79,5.181,2.79,9.78v19.08h-7.2v-3.9c-2.318,3.041-5.38,4.561-9.18,4.561
		c-3.04,0-5.38-0.869-7.02-2.608c-1.643-1.74-2.46-3.97-2.46-6.688c0-3.039,0.988-5.521,2.97-7.439
		c1.979-1.92,4.71-2.881,8.188-2.881h6.96c-0.079-1.76-0.328-3.119-0.75-4.08c-0.42-0.959-1.028-1.619-1.828-1.979
		c-0.802-0.359-1.882-0.539-3.24-0.539c-2.121,0-5.2,0.438-9.24,1.317l-1.2-5.16c4.04-1.562,8.102-2.34,12.182-2.34
		C198.88,62.619,201.891,63.579,203.75,65.499z M198.799,86.619v-6.12h-6.18c-1.8,0-3.101,0.431-3.898,1.29
		c-0.802,0.861-1.2,1.891-1.2,3.09c0,1.32,0.41,2.352,1.229,3.092c0.819,0.739,1.95,1.108,3.392,1.108
		C194.261,89.079,196.481,88.26,198.799,86.619z"/>
	<path fill="#FFFFFF" d="M234.981,70.24c-2.001,0-3.96,0.291-5.88,0.869c-1.92,0.58-3.54,1.392-4.86,2.431v20.819h-8.1V63.04h8.1
		v4.681c1.359-1.439,3.04-2.648,5.04-3.629s4.02-1.49,6.06-1.531L234.981,70.24z"/>
	<path fill="#FFFFFF" d="M258.95,88.48c1.26-0.279,2.709-0.66,4.35-1.142l0.961,5.761c-3.601,1.521-7.102,2.278-10.499,2.278
		c-4.36,0-7.883-1.339-10.562-4.021c-2.68-2.68-4.02-6.879-4.02-12.601c0-5.642,1.31-9.75,3.93-12.329
		c2.619-2.58,6.03-3.871,10.229-3.871c3.801,0,6.66,1,8.58,3s2.88,4.9,2.88,8.7c0,2.04-0.2,4.101-0.6,6.181l-17.16-0.062
		c0.32,3.161,1.16,5.37,2.521,6.631c1.357,1.261,3.22,1.89,5.58,1.89C256.42,88.9,257.691,88.76,258.95,88.48z M248.901,69.369
		c-1.041,1.141-1.661,3.051-1.86,5.73l11.04-0.302c0.04-0.278,0.062-0.721,0.062-1.319c0-1.879-0.37-3.318-1.11-4.319
		c-0.741-0.999-2.031-1.5-3.87-1.5C251.361,67.658,249.941,68.23,248.901,69.369z"/>
</g>
</svg>
