<?xml version="1.0" encoding="utf-8"?>
<!-- Generator: Adobe Illustrator 15.1.0, SVG Export Plug-In . SVG Version: 6.00 Build 0)  -->
<!DOCTYPE svg PUBLIC "-//W3C//DTD SVG 1.1//EN" "http://www.w3.org/Graphics/SVG/1.1/DTD/svg11.dtd">
<svg version="1.1" id="Layer_35" xmlns="http://www.w3.org/2000/svg" xmlns:xlink="http://www.w3.org/1999/xlink" x="0px" y="0px"
	 width="800px" height="450px" viewBox="0 0 800 450" enable-background="new 0 0 800 450" xml:space="preserve">
<g>
	<path fill="#ED1C24" d="M414.387,264.164v52.908h61.016v26.748h-61.016v61.014h-26.771v-61.014h-60.982v-26.748h60.982v-52.908
		c-23.083-2.911-44.44-13.324-61.16-30.035c-19.872-19.878-30.836-46.36-30.836-74.501c0-28.149,10.965-54.595,30.836-74.483
		c19.915-19.908,46.4-30.874,74.542-30.874c28.146,0,54.594,10.965,74.507,30.874c19.908,19.888,30.877,46.333,30.877,74.483
		c0,28.141-10.967,54.623-30.877,74.501C458.786,250.84,437.459,261.253,414.387,264.164z M400.996,238.252
		c43.352,0,78.611-35.312,78.611-78.625c0-43.347-35.26-78.614-78.611-78.614c-43.357,0-78.603,35.266-78.603,78.614
		C322.393,202.941,357.64,238.252,400.996,238.252z"/>
</g>
</svg>
