<?xml version="1.0" encoding="utf-8"?>
<!-- Generator: Adobe Illustrator 15.1.0, SVG Export Plug-In . SVG Version: 6.00 Build 0)  -->
<!DOCTYPE svg PUBLIC "-//W3C//DTD SVG 1.1//EN" "http://www.w3.org/Graphics/SVG/1.1/DTD/svg11.dtd">
<svg version="1.1" id="Resultado" xmlns="http://www.w3.org/2000/svg" xmlns:xlink="http://www.w3.org/1999/xlink" x="0px" y="0px"
	 width="800px" height="450px" viewBox="0 0 800 450" enable-background="new 0 0 800 450" xml:space="preserve">
<g>
	<path fill="#ED1C24" d="M238.513,56.637v1.32l-0.121,22.32c0,12.48-2.922,22.018-8.76,28.618c-5.841,6.6-14.001,9.9-24.48,9.9
		c-8.083,0-16.161-1.918-24.24-5.76l3.84-19.8c2.318,0.883,5.2,1.682,8.64,2.4c3.438,0.72,6.399,1.082,8.88,1.082
		c4,0,6.741-1.181,8.22-3.54c1.479-2.359,2.298-6.38,2.46-12.06c-4.4,1.68-8.562,2.518-12.481,2.518c-6.958,0-12.44-2.58-16.44-7.74
		c-4-5.16-6-12.138-6-20.94c0-18.798,9.84-28.2,29.521-28.2c10.959,0,18.799,2.64,23.519,7.919c4.72,5.281,7.2,12.082,7.441,20.4
		v0.841L238.513,56.637L238.513,56.637z M211.932,63.479c0.681-1.28,1.06-3.482,1.14-6.6v-0.6c0-3.52-0.358-6.019-1.08-7.5
		c-0.72-1.481-1.961-2.22-3.72-2.22c-1.759,0-3.019,0.74-3.78,2.22c-0.762,1.481-1.14,3.94-1.14,7.379c0,3.36,0.379,5.742,1.14,7.14
		c0.759,1.401,2.059,2.1,3.9,2.1C210.072,65.398,211.252,64.759,211.932,63.479z"/>
	<path fill="#ED1C24" d="M325.992,79.318c-3.682,0-7.362,0.52-11.04,1.56c-3.682,1.041-6.641,2.56-8.881,4.558v32.521h-27.958
		v-63.12h27.958v11.882c2.4-3.84,5.46-6.999,9.181-9.482c3.719-2.478,7.539-3.718,11.46-3.718L325.992,79.318z"/>
	<path fill="#ED1C24" d="M336.79,44.338c-2.881-2.439-4.32-5.617-4.32-9.54c0-3.759,1.381-6.798,4.14-9.118
		c2.76-2.32,6.341-3.482,10.742-3.482c4,0,7.458,1.2,10.379,3.6c2.919,2.4,4.38,5.562,4.38,9.482c0,3.76-1.36,6.82-4.08,9.18
		c-2.721,2.361-6.281,3.54-10.68,3.54C343.189,47.998,339.67,46.78,336.79,44.338z M333.309,54.838h27.96v63.12h-27.96V54.838z"/>
	<path fill="#ED1C24" d="M430.03,109.918c0,11.279-2.42,19.757-7.259,25.439c-4.843,5.68-12.821,8.521-23.941,8.521
		c-9.12,0-17.922-1.642-26.4-4.92l4.44-16.56c5.439,2.4,10.519,3.6,15.24,3.6c4.082,0,7.039-0.86,8.881-2.58
		c1.84-1.721,2.839-4.5,3-8.34c-2.881,3.279-6.76,4.918-11.639,4.918c-4.161,0-7.961-1.16-11.4-3.48
		c-3.442-2.319-6.181-5.82-8.22-10.5c-2.04-4.682-3.06-10.458-3.06-17.34c0-8.319,1.48-15.12,4.439-20.4
		c2.959-5.281,6.6-9.059,10.92-11.341c4.32-2.28,8.64-3.418,12.96-3.418c5.04,0,10.86,0.54,17.459,1.618
		c6.601,1.082,11.459,2.301,14.581,3.66v51.122h-0.003V109.918z M403.99,102.238V73.32c-3.282,0.081-5.759,1.14-7.439,3.18
		c-1.682,2.04-2.521,6.021-2.521,11.94c0,5.443,0.678,9.242,2.04,11.4c1.359,2.16,2.919,3.242,4.68,3.242
		C401.549,103.079,402.629,102.799,403.99,102.238z"/>
	<path fill="#ED1C24" d="M501.49,59.758c2.439,3.92,3.66,9.479,3.66,16.68v41.52h-27.959v-36.12c0-1.44-0.322-2.7-0.961-3.78
		c-0.641-1.08-1.721-1.62-3.24-1.62c-0.883,0-1.842,0.201-2.883,0.6v40.92h-28.079v-96h28.079v40.44
		c3.281-3.039,6.319-5.218,9.121-6.54c2.8-1.32,5.918-1.979,9.361-1.979C494.75,53.879,499.049,55.839,501.49,59.758z"/>
	<path fill="#ED1C24" d="M565.508,114.238c-3.682,1.761-6.859,2.961-9.541,3.6c-2.682,0.641-5.459,0.96-8.34,0.96
		c-9.521,0-16.4-2.739-20.641-8.218c-4.242-5.48-6.359-13.26-6.359-23.342v-15.6h-7.082v-16.8h7.082v-16.08h26.519v16.08h14.882
		v16.8h-14.882v15.36c0,4.882,0.661,8.262,1.981,10.14c1.318,1.883,3.182,2.82,5.581,2.82c1.839,0,4.359-0.48,7.56-1.44
		L565.508,114.238z"/>
	<path fill="#ED1C24" d="M575.469,92.879c5.039,2.64,9.018,4.558,11.938,5.758c2.921,1.2,5.62,1.8,8.101,1.8
		c1.119,0,2.059-0.217,2.82-0.658c0.759-0.441,1.141-1.099,1.141-1.982c0-1.279-0.702-2.318-2.101-3.118
		c-1.401-0.799-3.702-1.72-6.899-2.76c-3.682-1.2-6.764-2.418-9.241-3.66c-2.483-1.239-4.62-3.039-6.421-5.4
		c-1.799-2.358-2.699-5.38-2.699-9.06c0-6.639,2.682-11.679,8.041-15.118c5.357-3.44,11.957-5.16,19.801-5.16
		c4.717,0,9.256,0.54,13.619,1.618c4.359,1.082,7.859,2.383,10.5,3.9l-5.041,17.642c-2.322-1.2-4.901-2.18-7.741-2.942
		c-2.841-0.758-5.3-1.14-7.38-1.14c-3.52,0-5.28,0.72-5.28,2.16c0,0.72,0.559,1.361,1.68,1.92c1.121,0.559,2.88,1.2,5.28,1.918
		c4,1.2,7.4,2.482,10.2,3.84c2.8,1.362,5.282,3.442,7.441,6.242c2.159,2.801,3.241,6.44,3.241,10.918c0,6.883-2.303,12-6.9,15.36
		c-4.602,3.36-10.74,5.04-18.42,5.04c-6.319,0-12.221-0.941-17.699-2.818c-5.482-1.88-9.861-4.3-13.143-7.26L575.469,92.879z"/>
	<path fill="#939598" d="M192.432,230.858c3.999,5.16,6,12.141,6,20.939c0,18.801-9.84,28.201-29.519,28.201
		c-10.962,0-18.801-2.641-23.521-7.92c-4.721-5.281-7.2-12.079-7.44-20.4v-0.84v-0.719v-1.32l0.119-22.318
		c0-12.481,2.92-22.02,8.76-28.62c5.838-6.6,14-9.9,24.481-9.9c8.079,0,16.157,1.919,24.24,5.76l-3.84,19.8
		c-2.322-0.881-5.203-1.682-8.642-2.4c-3.44-0.721-6.4-1.082-8.879-1.082c-4.001,0-6.741,1.183-8.22,3.541
		c-1.481,2.359-2.3,6.381-2.459,12.059c4.398-1.68,8.558-2.518,12.48-2.518C182.953,223.118,188.431,225.698,192.432,230.858z
		 M171.972,257.918c0.759-1.52,1.141-3.961,1.141-7.32c0-3.36-0.382-5.739-1.141-7.141c-0.76-1.398-2.06-2.1-3.9-2.1
		c-1.68,0-2.86,0.642-3.54,1.919c-0.681,1.282-1.062,3.481-1.14,6.601v0.6c0,3.441,0.36,5.921,1.08,7.441
		c0.72,1.519,1.959,2.279,3.72,2.279C169.951,260.198,171.211,259.438,171.972,257.918z"/>
	<path fill="#939598" d="M334.992,214.838l-15.84,63.12h-30.96l-4.44-22.439l-4.92,22.439h-29.76l-15.84-63.12h29.4l3.72,38.76
		l7.919-33.96h19.681l7.8,36.241l3.84-41.041H334.992z"/>
	<path fill="#939598" d="M390.071,239.318c-3.68,0-7.362,0.52-11.04,1.559c-3.681,1.041-6.641,2.561-8.88,4.559v32.521h-27.96
		v-63.12h27.96v11.882c2.4-3.841,5.46-6.999,9.18-9.482c3.72-2.478,7.539-3.718,11.46-3.718L390.071,239.318z"/>
	<path fill="#939598" d="M404.17,272.077c-4.521-5.28-6.781-13.681-6.781-25.2c0-7.68,0.979-13.958,2.94-18.84
		c1.96-4.878,5.2-8.518,9.719-10.918s10.579-3.6,18.181-3.6c10.719,0,18.34,2.681,22.861,8.04c4.518,5.361,6.779,13.8,6.779,25.318
		c0,7.682-0.98,13.942-2.939,18.781c-1.961,4.842-5.182,8.441-9.66,10.801c-4.48,2.357-10.561,3.539-18.24,3.539
		C416.309,279.998,408.69,277.358,404.17,272.077z M431.47,257.198c0.72-1.998,1.081-5.838,1.081-11.52
		c0-5.439-0.359-9.119-1.081-11.041c-0.72-1.918-2.001-2.879-3.841-2.879c-1.28,0-2.261,0.401-2.939,1.2
		c-0.682,0.801-1.16,2.181-1.441,4.14c-0.281,1.961-0.419,4.82-0.419,8.58c0,3.92,0.14,6.92,0.419,9
		c0.281,2.083,0.76,3.521,1.441,4.32c0.679,0.801,1.659,1.199,2.939,1.199C429.469,260.198,430.75,259.198,431.47,257.198z"/>
	<path fill="#939598" d="M527.768,219.758c2.439,3.918,3.662,9.479,3.662,16.68v41.52h-27.961v-36.119c0-1.44-0.32-2.701-0.96-3.78
		c-0.642-1.081-1.72-1.62-3.241-1.62c-0.719,0-1.799,0.24-3.238,0.72v40.799h-27.961v-63.12h27.961v7.8
		c3.359-3.039,6.479-5.258,9.359-6.659c2.879-1.399,6.039-2.1,9.479-2.1C521.029,213.878,525.328,215.839,527.768,219.758z"/>
	<path fill="#939598" d="M601.989,269.918c0,11.279-2.421,19.757-7.26,25.439c-4.842,5.68-12.822,8.52-23.941,8.52
		c-9.119,0-17.92-1.641-26.399-4.92l4.44-16.56c5.439,2.399,10.52,3.601,15.239,3.601c4.081,0,7.039-0.861,8.882-2.58
		c1.84-1.721,2.838-4.5,3-8.342c-2.882,3.281-6.762,4.92-11.641,4.92c-4.162,0-7.961-1.16-11.4-3.481
		c-3.441-2.317-6.18-5.819-8.219-10.5s-3.06-10.457-3.06-17.34c0-8.318,1.479-15.119,4.438-20.4
		c2.96-5.281,6.601-9.06,10.921-11.341c4.319-2.28,8.641-3.418,12.96-3.418c5.04,0,10.859,0.541,17.459,1.619
		c6.6,1.081,11.459,2.301,14.581,3.66L601.989,269.918L601.989,269.918z M575.949,262.238V233.32
		c-3.283,0.081-5.762,1.14-7.443,3.18c-1.68,2.04-2.518,6.021-2.518,11.94c0,5.441,0.68,9.24,2.04,11.399
		c1.359,2.16,2.917,3.241,4.68,3.241C573.506,263.077,574.586,262.799,575.949,262.238z"/>
	<path fill="#939598" d="M615.545,252.877c5.043,2.641,9.02,4.56,11.943,5.76c2.916,1.199,5.617,1.8,8.1,1.8
		c1.117,0,2.057-0.218,2.818-0.659c0.76-0.439,1.141-1.1,1.141-1.98c0-1.281-0.703-2.32-2.101-3.119
		c-1.399-0.8-3.702-1.719-6.899-2.76c-3.682-1.2-6.761-2.418-9.24-3.66c-2.481-1.238-4.619-3.039-6.419-5.399
		c-1.8-2.358-2.7-5.381-2.7-9.06c0-6.639,2.68-11.679,8.039-15.119c5.359-3.44,11.959-5.16,19.801-5.16
		c4.72,0,9.259,0.54,13.619,1.618c4.358,1.082,7.859,2.382,10.5,3.9l-5.04,17.641c-2.32-1.2-4.901-2.179-7.741-2.94
		c-2.84-0.76-5.299-1.14-7.379-1.14c-3.521,0-5.281,0.72-5.281,2.16c0,0.719,0.558,1.361,1.682,1.919
		c1.117,0.56,2.879,1.2,5.279,1.919c4,1.2,7.398,2.48,10.199,3.84c2.801,1.362,5.28,3.44,7.441,6.241
		c2.159,2.801,3.24,6.441,3.24,10.919c0,6.882-2.3,12-6.9,15.36c-4.603,3.359-10.74,5.039-18.42,5.039
		c-6.32,0-12.221-0.941-17.699-2.818c-5.48-1.879-9.859-4.301-13.14-7.26L615.545,252.877z"/>
	<path fill="#ED1C24" d="M272.771,382.117h-10.38v33.602h-13.979v-33.602h-10.44v-11.398h34.8L272.771,382.117L272.771,382.117z"/>
	<path fill="#ED1C24" d="M292.511,399.518h-1.26v16.2H277.57v-45h16.38c4.521,0,8.08,0.479,10.682,1.438
		c2.6,0.96,4.479,2.489,5.64,4.592c1.16,2.1,1.74,4.971,1.74,8.607c0,3.48-0.54,6.231-1.62,8.25c-1.08,2.021-2.84,3.49-5.28,4.41
		l8.46,17.7h-14.52L292.511,399.518z M291.251,380.918v9.6h2.7c1.8,0,3.06-0.35,3.778-1.05c0.722-0.699,1.08-1.95,1.08-3.75
		c0-1.761-0.359-3-1.08-3.72c-0.72-0.723-1.979-1.08-3.778-1.08H291.251L291.251,380.918z"/>
	<path fill="#ED1C24" d="M356.291,370.718l-12.842,26.398v18.602h-13.979v-18.602l-12.9-26.398h14.762l5.278,14.52l5.222-14.52
		H356.291L356.291,370.718z"/>
	<path fill="#ED1C24" d="M399.07,408.758h-9.898l-1.32,6.96h-14.16l11.761-45h17.279l11.881,45H400.45L399.07,408.758z
		 M397.09,398.558l-3-15.54l-2.94,15.54H397.09z"/>
	<path fill="#ED1C24" d="M455.289,413.258c-2.279,1.16-5.051,2.001-8.311,2.52c-3.262,0.521-6.291,0.78-9.09,0.78
		c-4.604,0-8.34-0.771-11.223-2.31c-2.881-1.54-5.01-3.962-6.391-7.263c-1.379-3.3-2.07-7.607-2.07-12.93
		c0-8.319,1.74-14.439,5.223-18.359c3.479-3.92,8.979-5.881,16.5-5.881c5.119,0,10.039,0.94,14.76,2.82l-1.74,10.68
		c-1.318-0.56-3.1-1.05-5.34-1.47s-4.34-0.63-6.299-0.63c-2.32,0-4.121,0.381-5.4,1.14c-1.279,0.761-2.199,2.011-2.76,3.75
		c-0.561,1.74-0.84,4.17-0.84,7.29c0,2.88,0.229,5.141,0.688,6.78c0.459,1.641,1.221,2.811,2.279,3.51
		c1.062,0.7,2.51,1.05,4.352,1.05c1.199,0,2.521-0.079,3.961-0.237v-5.223h-6.062v-10.5h17.76v24.481L455.289,413.258
		L455.289,413.258z"/>
	<path fill="#ED1C24" d="M484.27,408.758h-9.9l-1.316,6.96h-14.16l11.76-45h17.279l11.881,45h-14.16L484.27,408.758z
		 M482.289,398.558l-3-15.54l-2.939,15.54H482.289z"/>
	<path fill="#ED1C24" d="M504.609,370.718h13.98v45h-13.98V370.718z"/>
	<path fill="#ED1C24" d="M562.629,370.718v45h-13.143l-10.559-21.42v21.42h-13.143v-45h13.143l10.559,22.2v-22.2H562.629z"/>
</g>
</svg>
