<?xml version="1.0" encoding="utf-8"?>
<!-- Generator: Adobe Illustrator 15.1.0, SVG Export Plug-In . SVG Version: 6.00 Build 0)  -->
<!DOCTYPE svg PUBLIC "-//W3C//DTD SVG 1.1//EN" "http://www.w3.org/Graphics/SVG/1.1/DTD/svg11.dtd">
<svg version="1.1" id="Layer_32" xmlns="http://www.w3.org/2000/svg" xmlns:xlink="http://www.w3.org/1999/xlink" x="0px" y="0px"
	 width="800px" height="450px" viewBox="0 0 800 450" enable-background="new 0 0 800 450" xml:space="preserve">
<g>
	<path fill="#ED1C24" d="M608.641,115.77v123.936h-26.748v-78.271l-73.889,73.925c11.859,17.328,18.236,37.796,18.236,59.26
		c0,28.147-10.964,54.629-30.877,74.501C475.455,389.037,449.007,400,420.862,400c-28.142,0-54.624-10.963-74.541-30.879
		c-7.971-7.973-14.513-17.004-19.487-26.797c-9.039,2.486-18.466,3.777-28.096,3.777c-28.145,0-54.627-10.963-74.545-30.879
		c-19.873-19.873-30.836-46.359-30.836-74.5c0-28.152,10.964-54.591,30.836-74.479c19.918-19.909,46.401-30.876,74.545-30.876
		c21.057,0,41.167,6.139,58.302,17.569l73.283-73.316l-79.728-0.038v-26.74l125.391,0.044V176.81h-26.744V98.548l-71.947,71.978
		c6.169,6.878,11.35,14.441,15.453,22.516c9.046-2.491,18.483-3.767,28.111-3.767c25.775,0,50.124,9.198,69.335,26.037
		l72.771-72.798h-78.262v-26.75L608.641,115.77z M317.853,317.012c-1.564-7.275-2.37-14.768-2.37-22.383
		c0-28.146,10.969-54.595,30.84-74.478c6.553-6.553,13.822-12.139,21.624-16.682c-13.293-24.603-39.333-41.354-69.208-41.354
		c-43.359,0-78.605,35.265-78.605,78.611c0,43.32,35.246,78.632,78.605,78.632C305.326,319.358,311.73,318.547,317.853,317.012z
		 M376.575,229.708c-20.709,14.167-34.322,37.984-34.322,64.921c0,3.742,0.266,7.418,0.774,11.021
		c20.704-14.18,34.318-38.008,34.318-64.925C377.346,236.983,377.079,233.305,376.575,229.708z M499.469,294.629
		c0-43.357-35.255-78.613-78.606-78.613c-6.589,0-12.992,0.812-19.108,2.353c1.559,7.26,2.365,14.749,2.365,22.357
		c0,28.147-10.969,54.63-30.877,74.501c-6.545,6.543-13.797,12.129-21.581,16.663c13.293,24.603,39.324,41.372,69.201,41.372
		C464.214,373.262,499.469,337.955,499.469,294.629z"/>
</g>
</svg>
