<?xml version="1.0" encoding="utf-8"?>
<!-- Generator: Adobe Illustrator 15.1.0, SVG Export Plug-In . SVG Version: 6.00 Build 0)  -->
<!DOCTYPE svg PUBLIC "-//W3C//DTD SVG 1.1//EN" "http://www.w3.org/Graphics/SVG/1.1/DTD/svg11.dtd">
<svg version="1.1" id="Abre" xmlns="http://www.w3.org/2000/svg" xmlns:xlink="http://www.w3.org/1999/xlink" x="0px" y="0px"
	 width="800px" height="150px" viewBox="0 150 800 150" enable-background="new 0 150 800 150" xml:space="preserve">
<g>
	<path fill="#ED1C24" d="M100.098,250.964c-2.812,1.434-6.229,2.469-10.248,3.108c-4.021,0.641-7.762,0.962-11.211,0.962
		c-5.676,0-10.287-0.95-13.842-2.85c-3.551-1.898-6.178-4.886-7.881-8.953c-1.701-4.07-2.553-9.388-2.553-15.947
		c0-10.261,2.146-17.809,6.438-22.646c4.291-4.834,11.074-7.252,20.352-7.252c6.312,0,12.381,1.16,18.203,3.479l-2.146,13.172
		c-1.627-0.69-3.82-1.295-6.586-1.812c-2.762-0.52-5.354-0.776-7.77-0.776c-2.861,0-5.082,0.47-6.66,1.406
		c-1.578,0.938-2.713,2.479-3.404,4.625c-0.689,2.146-1.035,5.143-1.035,8.988c0,3.555,0.283,6.342,0.854,8.362
		c0.564,2.023,1.504,3.467,2.811,4.329c1.309,0.863,3.097,1.295,5.365,1.295c1.48,0,3.109-0.099,4.885-0.296v-6.438h-7.475v-12.949
		h21.904V250.964L100.098,250.964z"/>
	<path fill="#ED1C24" d="M112.678,248.858c-3.453-4.169-5.182-10.521-5.182-19.058v-31.302h17.242v33.522
		c0,5.029,1.701,7.548,5.104,7.548c3.355,0,5.033-2.519,5.033-7.548v-33.522h17.24V229.8c0,8.536-1.912,14.889-5.734,19.058
		s-9.531,6.253-17.131,6.253C121.655,255.111,116.129,253.027,112.678,248.858z"/>
	<path fill="#ED1C24" d="M198.666,239.941V254H161v-55.5h36.926v14.062h-20.055v7.694h17.834v12.58h-17.834v7.104H198.666z"/>
	<path fill="#ED1C24" d="M207.914,234.317c5.871,3.848,11.074,5.771,15.615,5.771c3.156,0,4.734-0.912,4.734-2.738
		c0-1.184-0.643-2.17-1.926-2.959c-1.281-0.787-3.305-1.727-6.064-2.812c-3.258-1.282-5.936-2.517-8.029-3.7
		c-2.098-1.184-3.922-2.849-5.477-4.995c-1.557-2.146-2.332-4.847-2.332-8.103c0-3.749,1.012-6.932,3.035-9.546
		c2.021-2.614,4.625-4.575,7.807-5.886c3.182-1.306,6.475-1.961,9.879-1.961c3.107,0,6.191,0.521,9.25,1.557s5.6,2.245,7.623,3.626
		l-3.33,12.949c-0.346-0.147-1.383-0.604-3.109-1.368c-1.726-0.766-3.477-1.396-5.254-1.89c-1.773-0.49-3.33-0.737-4.662-0.737
		c-1.479,0-2.664,0.283-3.551,0.851c-0.889,0.567-1.332,1.271-1.332,2.109c0,0.888,0.52,1.628,1.553,2.22
		c1.037,0.592,2.738,1.308,5.107,2.146c3.404,1.233,6.252,2.479,8.547,3.736c2.293,1.258,4.303,3.146,6.031,5.661
		c1.725,2.516,2.59,5.748,2.59,9.694c0,5.624-1.777,9.854-5.328,12.688c-3.553,2.838-8.289,4.255-14.209,4.255
		c-7.646,0-14.604-2.316-20.867-6.955L207.914,234.317z"/>
	<path fill="#ED1C24" d="M252.906,234.317c5.869,3.848,11.074,5.771,15.613,5.771c3.156,0,4.734-0.912,4.734-2.738
		c0-1.184-0.643-2.17-1.924-2.959c-1.283-0.787-3.307-1.727-6.066-2.812c-3.257-1.282-5.936-2.517-8.029-3.7
		c-2.098-1.184-3.922-2.849-5.478-4.995c-1.554-2.146-2.329-4.847-2.329-8.103c0-3.749,1.01-6.932,3.031-9.546
		c2.023-2.614,4.625-4.575,7.811-5.886c3.182-1.306,6.475-1.961,9.879-1.961c3.106,0,6.188,0.521,9.25,1.557
		c3.057,1.036,5.598,2.245,7.621,3.626l-3.33,12.949c-0.347-0.147-1.381-0.604-3.107-1.368c-1.729-0.767-3.479-1.396-5.254-1.89
		c-1.777-0.49-3.33-0.737-4.662-0.737c-1.479,0-2.664,0.283-3.553,0.851c-0.887,0.567-1.332,1.271-1.332,2.109
		c0,0.888,0.518,1.628,1.555,2.22c1.035,0.592,2.738,1.308,5.105,2.146c3.404,1.233,6.254,2.479,8.547,3.736
		c2.295,1.258,4.305,3.146,6.031,5.661c1.726,2.515,2.59,5.748,2.59,9.694c0,5.624-1.775,9.854-5.328,12.688
		c-3.551,2.838-8.287,4.255-14.207,4.255c-7.648,0-14.604-2.316-20.869-6.955L252.906,234.317z"/>
</g>
<g>
	<g>
		<path fill="#FFFFFF" d="M372.838,194.186l-6.336,27h-3.564l-4.932-20.592l-5.184,20.592h-3.6l-6.012-27h3.132l4.896,23.328
			l5.364-21.601h2.844l5.112,21.421l5.112-23.148H372.838z"/>
		<path fill="#FFFFFF" d="M377.986,197.768c-0.408-0.396-0.612-0.882-0.612-1.458c0-0.552,0.198-1.02,0.594-1.404
			c0.396-0.384,0.894-0.576,1.494-0.576c0.576,0,1.062,0.192,1.458,0.576c0.396,0.385,0.594,0.864,0.594,1.44
			s-0.198,1.057-0.594,1.439c-0.396,0.385-0.882,0.576-1.458,0.576C378.885,198.362,378.393,198.163,377.986,197.768z
			 M377.878,202.43h3.096v18.756h-3.096V202.43z"/>
		<path fill="#FFFFFF" d="M401.44,203.798c0.852,1.032,1.277,2.796,1.277,5.292v12.096h-3.096v-11.52
			c0-1.225-0.108-2.154-0.324-2.79c-0.217-0.636-0.564-1.074-1.044-1.314c-0.48-0.239-1.14-0.36-1.979-0.36
			c-0.816,0-1.65,0.108-2.502,0.324c-0.853,0.216-1.831,0.601-2.934,1.152v14.508h-3.096V202.43h3.096v2.16
			c1.104-0.816,2.147-1.41,3.132-1.782s2.1-0.558,3.348-0.558C399.213,202.25,400.586,202.766,401.44,203.798z"/>
		<path fill="#FFFFFF" d="M428.42,202.898c0.888,0.432,1.549,1.158,1.98,2.178c0.432,1.021,0.648,2.431,0.648,4.23v11.88h-2.736
			v-2.412c-1.633,1.8-3.588,2.7-5.868,2.7c-1.896,0-3.307-0.504-4.229-1.512c-0.925-1.009-1.387-2.28-1.387-3.816
			c0-1.775,0.552-3.174,1.656-4.194c1.104-1.02,2.688-1.529,4.752-1.529h4.788c0-1.561-0.126-2.73-0.378-3.511
			c-0.252-0.779-0.648-1.313-1.188-1.602s-1.302-0.432-2.286-0.432c-1.344,0-3.229,0.288-5.652,0.863l-0.539-2.124
			c2.327-0.911,4.619-1.367,6.876-1.367C426.344,202.25,427.532,202.466,428.42,202.898z M428.025,216.938v-4.248h-4.752
			c-1.32,0-2.25,0.318-2.79,0.954s-0.811,1.374-0.811,2.214c0,0.937,0.294,1.674,0.883,2.214c0.588,0.54,1.386,0.811,2.394,0.811
			C424.485,218.882,426.176,218.234,428.025,216.938z"/>
		<path fill="#FFFFFF" d="M450.74,196.058c-0.36,0.769-0.541,1.944-0.541,3.528v2.844h4.824v2.304h-4.824v16.452h-3.096v-16.452
			h-2.268v-2.304h2.268v-2.521c0-2.495,0.414-4.361,1.242-5.598c0.828-1.235,2.166-1.854,4.014-1.854
			c0.527,0,1.129,0.054,1.801,0.161c0.672,0.108,1.283,0.247,1.836,0.414l-0.648,2.232c-0.744-0.239-1.596-0.36-2.556-0.36
			C451.783,194.906,451.1,195.29,450.74,196.058z"/>
		<path fill="#FFFFFF" d="M468.416,205.274c-1.225,0-2.425,0.187-3.6,0.559c-1.177,0.372-2.197,0.87-3.061,1.493v13.86h-3.096
			V202.43h3.096v2.483c0.888-0.743,1.943-1.367,3.168-1.871c1.225-0.505,2.46-0.769,3.708-0.792L468.416,205.274z"/>
		<path fill="#FFFFFF" d="M482.365,218.846c0.732-0.168,1.614-0.42,2.646-0.756l0.468,2.376c-1.177,0.456-2.196,0.792-3.06,1.008
			c-0.864,0.216-1.777,0.324-2.736,0.324c-2.52,0-4.53-0.792-6.03-2.376s-2.25-4.08-2.25-7.488c0-3.359,0.726-5.814,2.179-7.362
			c1.451-1.548,3.389-2.321,5.813-2.321c2.256,0,3.87,0.611,4.843,1.836c0.971,1.224,1.457,2.916,1.457,5.075
			c0,1.345-0.084,2.448-0.252,3.312l-10.943-0.036c0.119,2.521,0.659,4.261,1.619,5.22c0.96,0.961,2.256,1.44,3.889,1.44
			C480.848,219.098,481.633,219.014,482.365,218.846z M475.976,205.832c-0.816,0.852-1.296,2.298-1.44,4.338l8.316-0.108
			c0.048-0.624,0.072-1.14,0.072-1.548c0-1.271-0.283-2.25-0.846-2.935c-0.564-0.684-1.507-1.025-2.826-1.025
			C477.884,204.554,476.791,204.98,475.976,205.832z"/>
		<path fill="#FFFFFF" d="M500.797,218.846c0.732-0.168,1.614-0.42,2.646-0.756l0.468,2.376c-1.177,0.456-2.196,0.792-3.06,1.008
			c-0.864,0.216-1.777,0.324-2.736,0.324c-2.52,0-4.53-0.792-6.03-2.376s-2.25-4.08-2.25-7.488c0-3.359,0.726-5.814,2.179-7.362
			c1.451-1.548,3.389-2.321,5.813-2.321c2.256,0,3.87,0.611,4.843,1.836c0.971,1.224,1.457,2.916,1.457,5.075
			c0,1.345-0.084,2.448-0.252,3.312l-10.943-0.036c0.119,2.521,0.659,4.261,1.619,5.22c0.96,0.961,2.256,1.44,3.889,1.44
			C499.28,219.098,500.065,219.014,500.797,218.846z M494.407,205.832c-0.816,0.852-1.296,2.298-1.44,4.338l8.316-0.108
			c0.048-0.624,0.072-1.14,0.072-1.548c0-1.271-0.283-2.25-0.846-2.935c-0.564-0.684-1.507-1.025-2.826-1.025
			C496.316,204.554,495.223,204.98,494.407,205.832z"/>
		<path fill="#FFFFFF" d="M522.487,196.058c-0.359,0.769-0.539,1.944-0.539,3.528v2.844h4.824v2.304h-4.824v16.452h-3.096v-16.452
			h-2.269v-2.304h2.269v-2.521c0-2.495,0.413-4.361,1.241-5.598c0.828-1.235,2.165-1.854,4.015-1.854
			c0.527,0,1.127,0.054,1.799,0.161c0.672,0.108,1.284,0.247,1.836,0.414l-0.647,2.232c-0.744-0.239-1.597-0.36-2.556-0.36
			C523.531,194.906,522.847,195.29,522.487,196.058z"/>
		<path fill="#FFFFFF" d="M531.001,219.422c-1.309-1.536-1.962-4.02-1.962-7.452c0-3.384,0.66-5.851,1.98-7.398
			c1.318-1.548,3.371-2.321,6.155-2.321s4.829,0.768,6.138,2.304s1.963,3.996,1.963,7.38s-0.666,5.862-1.998,7.434
			c-1.332,1.572-3.402,2.358-6.211,2.358C534.331,221.726,532.309,220.958,531.001,219.422z M540.938,217.46
			c0.803-1.14,1.205-3.078,1.205-5.814c0-1.775-0.162-3.168-0.486-4.176c-0.323-1.008-0.834-1.733-1.529-2.178
			c-0.696-0.444-1.645-0.666-2.844-0.666c-1.248,0-2.244,0.24-2.988,0.72c-0.744,0.48-1.284,1.254-1.62,2.322
			c-0.337,1.067-0.504,2.514-0.504,4.338c0,1.8,0.167,3.222,0.504,4.266c0.336,1.044,0.847,1.788,1.53,2.232
			s1.602,0.666,2.754,0.666C538.807,219.17,540.133,218.6,540.938,217.46z"/>
		<path fill="#FFFFFF" d="M564.445,203.798c0.852,1.032,1.278,2.796,1.278,5.292v12.096h-3.097v-11.52
			c0-1.225-0.108-2.154-0.323-2.79c-0.217-0.636-0.564-1.074-1.045-1.314c-0.48-0.239-1.14-0.36-1.979-0.36
			c-0.816,0-1.65,0.108-2.502,0.324c-0.853,0.216-1.831,0.601-2.935,1.152v14.508h-3.096V202.43h3.096v2.16
			c1.104-0.816,2.148-1.41,3.133-1.782c0.983-0.372,2.1-0.558,3.348-0.558C562.218,202.25,563.592,202.766,564.445,203.798z"/>
		<path fill="#FFFFFF" d="M582.281,221.077c-1.104,0.24-2.111,0.36-3.023,0.36c-2.4,0-4.08-0.63-5.04-1.89
			c-0.96-1.261-1.44-3.234-1.44-5.922v-8.929h-2.268v-2.268h2.268v-4.824h2.988v4.824h5.256v2.268h-5.256v8.964
			c0,1.393,0.138,2.479,0.414,3.259c0.275,0.78,0.72,1.332,1.332,1.655c0.611,0.324,1.445,0.486,2.502,0.486
			c0.359,0,0.973-0.048,1.836-0.144L582.281,221.077z"/>
		<path fill="#FFFFFF" d="M344.974,233.768c-0.408-0.396-0.612-0.882-0.612-1.458c0-0.552,0.198-1.02,0.594-1.404
			c0.396-0.384,0.894-0.576,1.494-0.576c0.576,0,1.062,0.192,1.458,0.576c0.396,0.385,0.594,0.864,0.594,1.44
			s-0.198,1.057-0.594,1.439c-0.396,0.385-0.882,0.576-1.458,0.576C345.874,234.362,345.382,234.163,344.974,233.768z
			 M344.866,238.43h3.096v18.756h-3.096V238.43z"/>
		<path fill="#FFFFFF" d="M358.581,232.058c-0.36,0.769-0.54,1.944-0.54,3.528v2.844h4.824v2.304h-4.824v16.452h-3.096v-16.452
			h-2.268v-2.304h2.268v-2.521c0-2.495,0.414-4.361,1.242-5.598c0.828-1.235,2.166-1.854,4.014-1.854c0.527,0,1.128,0.054,1.8,0.161
			c0.672,0.108,1.284,0.247,1.836,0.414l-0.648,2.232c-0.744-0.239-1.596-0.36-2.556-0.36
			C359.625,230.906,358.941,231.29,358.581,232.058z"/>
		<path fill="#FFFFFF" d="M388.785,238.43l-8.748,25.956h-3.06l2.412-7.2h-0.288l-6.336-18.756h3.384l4.608,15.408l4.86-15.408
			H388.785z"/>
		<path fill="#FFFFFF" d="M393.483,255.422c-1.309-1.536-1.962-4.02-1.962-7.452c0-3.384,0.66-5.851,1.98-7.398
			c1.319-1.548,3.372-2.321,6.155-2.321c2.784,0,4.83,0.768,6.139,2.304c1.308,1.536,1.962,3.996,1.962,7.38
			s-0.666,5.862-1.998,7.434c-1.332,1.572-3.401,2.358-6.21,2.358C396.813,257.726,394.791,256.958,393.483,255.422z
			 M403.419,253.46c0.804-1.14,1.206-3.078,1.206-5.814c0-1.775-0.162-3.168-0.486-4.176s-0.834-1.733-1.529-2.178
			c-0.697-0.444-1.645-0.666-2.845-0.666c-1.248,0-2.244,0.24-2.987,0.72c-0.744,0.48-1.285,1.254-1.621,2.322
			c-0.336,1.067-0.504,2.514-0.504,4.338c0,1.8,0.168,3.222,0.504,4.266s0.847,1.788,1.53,2.232
			c0.685,0.444,1.603,0.666,2.755,0.666C401.289,255.17,402.615,254.6,403.419,253.46z"/>
		<path fill="#FFFFFF" d="M427.52,238.43v18.756h-3.096v-1.908c-0.984,0.72-1.932,1.248-2.844,1.584s-1.896,0.504-2.952,0.504
			c-1.921,0-3.306-0.516-4.157-1.548c-0.854-1.031-1.279-2.796-1.279-5.292V238.43h3.205v11.628c0,1.224,0.107,2.16,0.324,2.808
			c0.215,0.648,0.551,1.093,1.008,1.332c0.455,0.24,1.104,0.36,1.943,0.36c1.225,0,2.809-0.468,4.752-1.404V238.43H427.52z"/>
		<path fill="#FFFFFF" d="M457.149,239.546v17.1c0,2.88-0.619,4.932-1.854,6.156c-1.236,1.224-3.066,1.836-5.49,1.836
			c-2.52,0-4.86-0.877-7.02-2.628l0.936-1.836c0.792,0.647,1.698,1.146,2.718,1.494c1.02,0.348,1.95,0.521,2.791,0.521
			c1.584,0,2.801-0.348,3.653-1.044c0.852-0.696,1.278-2.028,1.278-3.996v-1.26c-1.561,1.2-3.264,1.8-5.112,1.8
			c-2.088,0-3.786-0.75-5.094-2.25c-1.309-1.5-1.962-3.882-1.962-7.146c0-3.456,0.762-6,2.285-7.633
			c1.524-1.632,3.631-2.447,6.318-2.447c1.031,0,2.137,0.103,3.312,0.306c1.176,0.204,2.268,0.486,3.275,0.846L457.149,239.546z
			 M452.054,254.864c0.828-0.228,1.53-0.533,2.106-0.918v-12.779c-1.008-0.217-2.053-0.324-3.133-0.324
			c-1.992,0-3.504,0.51-4.535,1.529c-1.032,1.021-1.549,2.875-1.549,5.562c0,2.664,0.456,4.542,1.369,5.634
			c0.911,1.093,2.051,1.638,3.42,1.638C450.452,255.205,451.227,255.092,452.054,254.864z"/>
		<path fill="#FFFFFF" d="M473.582,254.846c0.731-0.168,1.613-0.42,2.646-0.756l0.467,2.376c-1.176,0.456-2.195,0.792-3.06,1.008
			s-1.776,0.324-2.735,0.324c-2.521,0-4.531-0.792-6.031-2.376s-2.25-4.08-2.25-7.488c0-3.359,0.727-5.814,2.179-7.362
			s3.39-2.321,5.813-2.321c2.256,0,3.871,0.611,4.843,1.836c0.972,1.224,1.458,2.916,1.458,5.075c0,1.345-0.084,2.448-0.252,3.312
			l-10.944-0.036c0.12,2.521,0.659,4.261,1.62,5.22c0.959,0.961,2.256,1.44,3.888,1.44
			C472.064,255.098,472.85,255.014,473.582,254.846z M467.192,241.832c-0.816,0.852-1.295,2.298-1.439,4.338l8.316-0.108
			c0.047-0.624,0.071-1.14,0.071-1.548c0-1.271-0.282-2.25-0.846-2.935c-0.564-0.684-1.507-1.025-2.826-1.025
			C469.1,240.554,468.008,240.98,467.192,241.832z"/>
		<path fill="#FFFFFF" d="M492.14,257.077c-1.104,0.24-2.112,0.36-3.024,0.36c-2.4,0-4.08-0.63-5.039-1.89
			c-0.961-1.261-1.44-3.234-1.44-5.922v-8.929h-2.269v-2.268h2.269v-4.824h2.987v4.824h5.256v2.268h-5.256v8.964
			c0,1.393,0.139,2.479,0.414,3.259s0.721,1.332,1.332,1.655c0.612,0.324,1.445,0.486,2.502,0.486c0.36,0,0.973-0.048,1.836-0.144
			L492.14,257.077z"/>
		<path fill="#FFFFFF" d="M515.144,238.898c0.888,0.432,1.548,1.158,1.979,2.178c0.432,1.021,0.648,2.431,0.648,4.23v11.88h-2.736
			v-2.412c-1.633,1.8-3.588,2.7-5.867,2.7c-1.896,0-3.307-0.504-4.23-1.512c-0.924-1.009-1.387-2.28-1.387-3.816
			c0-1.775,0.553-3.174,1.656-4.194c1.104-1.02,2.688-1.529,4.752-1.529h4.789c0-1.561-0.127-2.73-0.379-3.511
			c-0.252-0.779-0.648-1.313-1.188-1.602c-0.54-0.288-1.303-0.432-2.286-0.432c-1.345,0-3.229,0.288-5.652,0.863l-0.54-2.124
			c2.328-0.911,4.62-1.367,6.877-1.367C513.068,238.25,514.256,238.466,515.144,238.898z M514.748,252.938v-4.248h-4.752
			c-1.32,0-2.25,0.318-2.791,0.954c-0.539,0.636-0.81,1.374-0.81,2.214c0,0.937,0.294,1.674,0.882,2.214s1.387,0.811,2.395,0.811
			C511.207,254.882,512.899,254.234,514.748,252.938z"/>
		<path fill="#FFFFFF" d="M524.574,228.386h3.097v28.8h-3.097V228.386z"/>
		<path fill="#FFFFFF" d="M534.439,228.386h3.097v28.8h-3.097V228.386z"/>
		<path fill="#FFFFFF" d="M559.458,257.186h-3.06v-23.544h-0.037l-4.392,1.62v-2.628l5.257-2.017h2.231V257.186z"/>
		<path fill="#FFFFFF" d="M577.115,242.084c1.716,1.26,2.574,3.438,2.574,6.533c0,2.305-0.456,4.11-1.368,5.418
			c-0.912,1.309-2.011,2.209-3.294,2.7c-1.284,0.492-2.574,0.738-3.87,0.738c-2.016,0-4.067-0.588-6.155-1.764v-2.952
			c1.055,0.6,2.123,1.068,3.203,1.403c1.08,0.337,2.028,0.505,2.844,0.505c3.696,0,5.545-2.053,5.545-6.156
			c0-1.607-0.295-2.826-0.883-3.654s-1.41-1.38-2.465-1.656c-1.057-0.275-2.473-0.414-4.248-0.414h-3.24v-12.132h12.6v2.772h-9.792
			v6.768h1.368C573.006,240.194,575.4,240.823,577.115,242.084z"/>
		<path fill="#FFFFFF" d="M603.665,241.274c-1.224,0-2.425,0.187-3.6,0.559c-1.177,0.372-2.196,0.87-3.06,1.493v13.86h-3.097V238.43
			h3.097v2.483c0.887-0.743,1.943-1.367,3.168-1.871c1.224-0.505,2.459-0.769,3.707-0.792L603.665,241.274z"/>
		<path fill="#FFFFFF" d="M608.057,233.768c-0.408-0.396-0.611-0.882-0.611-1.458c0-0.552,0.197-1.02,0.594-1.404
			c0.396-0.384,0.895-0.576,1.494-0.576c0.576,0,1.062,0.192,1.458,0.576c0.396,0.385,0.594,0.864,0.594,1.44
			s-0.198,1.057-0.594,1.439c-0.396,0.385-0.882,0.576-1.458,0.576S608.465,234.163,608.057,233.768z M607.949,238.43h3.096v18.756
			h-3.096V238.43z"/>
		<path fill="#FFFFFF" d="M631.601,239.546v17.1c0,2.88-0.618,4.932-1.854,6.156c-1.236,1.224-3.066,1.836-5.49,1.836
			c-2.52,0-4.859-0.877-7.02-2.628l0.936-1.836c0.793,0.647,1.698,1.146,2.719,1.494c1.02,0.348,1.949,0.521,2.79,0.521
			c1.584,0,2.802-0.348,3.653-1.044s1.279-2.028,1.279-3.996v-1.26c-1.561,1.2-3.265,1.8-5.113,1.8c-2.088,0-3.785-0.75-5.094-2.25
			s-1.962-3.882-1.962-7.146c0-3.456,0.762-6,2.286-7.633c1.523-1.632,3.63-2.447,6.318-2.447c1.031,0,2.136,0.103,3.312,0.306
			c1.176,0.204,2.269,0.486,3.276,0.846L631.601,239.546z M626.506,254.864c0.828-0.228,1.531-0.533,2.107-0.918v-12.779
			c-1.009-0.217-2.053-0.324-3.133-0.324c-1.992,0-3.504,0.51-4.536,1.529c-1.032,1.021-1.548,2.875-1.548,5.562
			c0,2.664,0.455,4.542,1.368,5.634c0.911,1.093,2.052,1.638,3.42,1.638C624.905,255.205,625.679,255.092,626.506,254.864z"/>
		<path fill="#FFFFFF" d="M652.031,239.798c0.853,1.032,1.278,2.796,1.278,5.292v12.096h-3.096v-11.52
			c0-1.225-0.108-2.154-0.324-2.79c-0.217-0.636-0.564-1.074-1.044-1.314c-0.48-0.239-1.141-0.36-1.979-0.36
			c-0.816,0-1.645,0.108-2.484,0.324c-0.841,0.216-1.801,0.589-2.881,1.116v14.544h-3.096v-28.8h3.096v12.168
			c1.057-0.792,2.076-1.374,3.061-1.746s2.1-0.558,3.348-0.558C649.805,238.25,651.178,238.766,652.031,239.798z"/>
		<path fill="#FFFFFF" d="M669.869,257.077c-1.105,0.24-2.113,0.36-3.024,0.36c-2.4,0-4.081-0.63-5.04-1.89
			c-0.961-1.261-1.439-3.234-1.439-5.922v-8.929h-2.269v-2.268h2.269v-4.824h2.987v4.824h5.256v2.268h-5.256v8.964
			c0,1.393,0.138,2.479,0.414,3.259c0.275,0.78,0.72,1.332,1.332,1.655c0.612,0.324,1.445,0.486,2.502,0.486
			c0.36,0,0.972-0.048,1.836-0.144L669.869,257.077z"/>
	</g>
</g>
</svg>
