<?xml version="1.0" encoding="utf-8"?>
<!-- Generator: Adobe Illustrator 15.1.0, SVG Export Plug-In . SVG Version: 6.00 Build 0)  -->
<!DOCTYPE svg PUBLIC "-//W3C//DTD SVG 1.1//EN" "http://www.w3.org/Graphics/SVG/1.1/DTD/svg11.dtd">
<svg version="1.1" id="Abre" xmlns="http://www.w3.org/2000/svg" xmlns:xlink="http://www.w3.org/1999/xlink" x="0px" y="0px"
	 width="800px" height="150px" viewBox="0 0 800 150" enable-background="new 0 0 800 150" xml:space="preserve">
<g>
	<path fill="#ED1C24" d="M143.598,96.964c-2.812,1.435-6.229,2.47-10.248,3.108c-4.021,0.641-7.762,0.961-11.211,0.961
		c-5.676,0-10.287-0.949-13.842-2.85c-3.551-1.897-6.178-4.888-7.881-8.953c-1.701-4.069-2.556-9.387-2.556-15.948
		c0-10.261,2.146-17.81,6.438-22.646c4.291-4.834,11.074-7.252,20.352-7.252c6.312,0,12.384,1.159,18.203,3.479l-2.146,13.172
		c-1.627-0.689-3.82-1.295-6.586-1.812c-2.765-0.52-5.354-0.775-7.771-0.775c-2.858,0-5.082,0.47-6.66,1.406
		c-1.578,0.938-2.713,2.479-3.401,4.625c-0.689,2.146-1.035,5.143-1.035,8.988c0,3.553,0.283,6.34,0.854,8.361
		c0.564,2.022,1.504,3.467,2.812,4.327c1.309,0.863,3.097,1.297,5.365,1.297c1.479,0,3.106-0.1,4.885-0.297v-6.438h-7.478v-12.95
		h21.904L143.598,96.964L143.598,96.964z"/>
	<path fill="#ED1C24" d="M156.178,94.857c-3.453-4.168-5.182-10.521-5.182-19.06v-31.3h17.239V78.02
		c0,5.029,1.701,7.549,5.104,7.549c3.354,0,5.033-2.52,5.033-7.549V44.498h17.237v31.303c0,8.535-1.909,14.889-5.731,19.057
		c-3.822,4.17-9.531,6.254-17.131,6.254C165.155,101.111,159.629,99.027,156.178,94.857z"/>
	<path fill="#ED1C24" d="M242.166,85.941V100H204.5V44.5h36.926v14.062h-20.055v7.693h17.834v12.58h-17.834v7.104h20.795V85.941z"/>
	<path fill="#ED1C24" d="M251.414,80.316c5.871,3.849,11.071,5.771,15.612,5.771c3.156,0,4.734-0.911,4.734-2.737
		c0-1.185-0.643-2.17-1.926-2.959c-1.281-0.787-3.308-1.728-6.064-2.812c-3.258-1.282-5.936-2.517-8.026-3.7
		c-2.101-1.184-3.925-2.85-5.479-4.994c-1.557-2.146-2.332-4.848-2.332-8.104c0-3.75,1.012-6.932,3.035-9.547
		c2.021-2.613,4.625-4.574,7.807-5.885c3.185-1.307,6.478-1.961,9.879-1.961c3.107,0,6.191,0.521,9.25,1.557
		c3.062,1.035,5.603,2.244,7.623,3.625l-3.33,12.949c-0.346-0.146-1.383-0.604-3.106-1.367c-1.729-0.766-3.479-1.396-5.254-1.891
		c-1.773-0.49-3.33-0.736-4.662-0.736c-1.479,0-2.664,0.283-3.551,0.851c-0.892,0.567-1.332,1.271-1.332,2.108
		c0,0.889,0.52,1.629,1.553,2.221c1.037,0.592,2.738,1.309,5.107,2.146c3.401,1.232,6.252,2.479,8.547,3.735
		c2.293,1.259,4.303,3.146,6.028,5.661c1.728,2.517,2.593,5.748,2.593,9.692c0,5.625-1.777,9.854-5.328,12.688
		c-3.556,2.841-8.289,4.255-14.209,4.255c-7.646,0-14.604-2.314-20.867-6.953L251.414,80.316z"/>
	<path fill="#ED1C24" d="M296.406,80.316c5.869,3.849,11.074,5.771,15.613,5.771c3.156,0,4.734-0.911,4.734-2.737
		c0-1.185-0.646-2.17-1.924-2.959c-1.283-0.787-3.31-1.728-6.066-2.812c-3.257-1.282-5.936-2.517-8.029-3.7
		c-2.098-1.184-3.922-2.85-5.478-4.994c-1.554-2.146-2.329-4.848-2.329-8.104c0-3.75,1.01-6.932,3.031-9.547
		c2.021-2.613,4.625-4.574,7.811-5.885c3.185-1.307,6.478-1.961,9.879-1.961c3.106,0,6.188,0.521,9.25,1.557
		c3.06,1.035,5.601,2.244,7.621,3.625l-3.33,12.949c-0.347-0.146-1.381-0.604-3.104-1.367c-1.729-0.768-3.479-1.396-5.254-1.891
		c-1.777-0.49-3.33-0.736-4.662-0.736c-1.479,0-2.664,0.283-3.556,0.851c-0.887,0.567-1.332,1.271-1.332,2.108
		c0,0.889,0.521,1.629,1.558,2.221c1.035,0.592,2.737,1.309,5.104,2.146c3.404,1.232,6.254,2.479,8.547,3.735
		c2.298,1.259,4.308,3.146,6.031,5.661c1.729,2.517,2.59,5.748,2.59,9.692c0,5.625-1.772,9.854-5.328,12.688
		c-3.551,2.841-8.284,4.255-14.205,4.255c-7.647,0-14.604-2.314-20.868-6.953L296.406,80.316z"/>
</g>
<g>
	<g>
		<path fill="#FFFFFF" d="M416.515,40.034l-6.336,27h-3.563l-4.933-20.592l-5.184,20.592h-3.6l-6.012-27h3.132l4.896,23.328
			l5.364-21.601h2.844l5.111,21.421l5.112-23.148H416.515z"/>
		<path fill="#FFFFFF" d="M421.662,43.616c-0.408-0.396-0.611-0.882-0.611-1.458c0-0.552,0.197-1.02,0.594-1.404
			c0.396-0.384,0.895-0.576,1.494-0.576c0.576,0,1.062,0.192,1.458,0.576c0.396,0.385,0.594,0.864,0.594,1.44
			s-0.198,1.057-0.594,1.439c-0.396,0.385-0.882,0.576-1.458,0.576S422.071,44.011,421.662,43.616z M421.555,48.278h3.096v18.756
			h-3.096V48.278z"/>
		<path fill="#FFFFFF" d="M445.116,49.646c0.852,1.032,1.278,2.796,1.278,5.292v12.096h-3.097v-11.52
			c0-1.225-0.108-2.154-0.323-2.79c-0.217-0.636-0.564-1.074-1.045-1.314c-0.48-0.239-1.14-0.36-1.979-0.36
			c-0.816,0-1.65,0.108-2.502,0.324c-0.853,0.216-1.831,0.601-2.935,1.152v14.508h-3.096V48.278h3.096v2.16
			c1.104-0.816,2.148-1.41,3.133-1.782c0.983-0.372,2.1-0.558,3.348-0.558C442.89,48.098,444.264,48.614,445.116,49.646z"/>
		<path fill="#FFFFFF" d="M472.098,48.746c0.887,0.432,1.548,1.158,1.98,2.178c0.432,1.021,0.647,2.431,0.647,4.23v11.88h-2.736
			v-2.412c-1.632,1.8-3.588,2.7-5.868,2.7c-1.896,0-3.307-0.504-4.229-1.512c-0.925-1.009-1.386-2.28-1.386-3.816
			c0-1.775,0.551-3.174,1.656-4.194c1.104-1.02,2.688-1.529,4.752-1.529h4.787c0-1.561-0.125-2.73-0.378-3.511
			c-0.252-0.779-0.647-1.313-1.188-1.602c-0.539-0.288-1.301-0.432-2.285-0.432c-1.345,0-3.229,0.288-5.652,0.863l-0.539-2.124
			c2.326-0.911,4.619-1.367,6.875-1.367C470.022,48.098,471.209,48.314,472.098,48.746z M471.701,62.786v-4.248h-4.752
			c-1.32,0-2.25,0.318-2.789,0.954c-0.541,0.636-0.811,1.374-0.811,2.214c0,0.937,0.293,1.674,0.882,2.214
			c0.588,0.54,1.386,0.811,2.394,0.811C468.161,64.73,469.854,64.082,471.701,62.786z"/>
		<path fill="#FFFFFF" d="M495.065,44.173v8.28h11.557v3.853h-11.557v10.728h-4.896v-27h17.532v4.14H495.065z"/>
		<path fill="#FFFFFF" d="M521.668,56.018h-4.463v11.016h-4.861v-27h9.793c3.312,0,5.699,0.63,7.164,1.89
			c1.463,1.261,2.195,3.318,2.195,6.175c0,2.159-0.408,3.834-1.224,5.021c-0.816,1.188-2.124,2.011-3.924,2.466l5.832,11.448h-5.292
			L521.668,56.018z M517.205,52.562l4.932-0.036c1.631,0,2.826-0.354,3.582-1.062c0.756-0.707,1.134-1.806,1.134-3.294
			c0-1.463-0.378-2.538-1.134-3.222s-1.951-1.026-3.582-1.026h-4.932V52.562z"/>
		<path fill="#FFFFFF" d="M554.105,62.894v4.14h-17.388v-27h16.812v4.14h-12.024v7.2h10.944v3.853h-10.944v7.668H554.105z"/>
		<path fill="#FFFFFF" d="M576.172,62.894v4.14h-17.388v-27h16.812v4.14h-12.023v7.2h10.943v3.853h-10.943v7.668H576.172z"/>
		<path fill="#FFFFFF" d="M594.748,44.173v8.28h11.557v3.853h-11.557v10.728h-4.896v-27h17.533v4.14H594.748z"/>
		<path fill="#FFFFFF" d="M614.026,64.226c-1.788-2.232-2.682-5.82-2.682-10.765c0-4.896,0.894-8.447,2.682-10.655
			c1.787-2.208,4.613-3.312,8.479-3.312c3.84,0,6.647,1.104,8.424,3.312c1.775,2.208,2.664,5.76,2.664,10.655
			c0,3.337-0.396,6.036-1.188,8.101s-1.997,3.582-3.618,4.554c-1.619,0.972-3.714,1.458-6.281,1.458
			C618.639,67.574,615.813,66.458,614.026,64.226z M625.996,62.461c0.863-0.671,1.494-1.733,1.89-3.186s0.594-3.39,0.594-5.814
			c0-2.472-0.198-4.451-0.594-5.939s-1.032-2.58-1.908-3.276c-0.876-0.695-2.034-1.044-3.474-1.044c-1.465,0-2.635,0.349-3.51,1.044
			c-0.877,0.696-1.519,1.788-1.927,3.276s-0.612,3.468-0.612,5.939c0,2.425,0.204,4.362,0.612,5.814s1.05,2.515,1.927,3.186
			c0.875,0.673,2.045,1.008,3.51,1.008C623.967,63.469,625.131,63.134,625.996,62.461z"/>
		<path fill="#FFFFFF" d="M658.719,40.034v27h-4.644L643.6,47.99l-0.037,19.044h-4.644v-27h4.681l10.476,19.152V40.034H658.719z"/>
		<path fill="#FFFFFF" d="M682.479,44.102h-7.236v22.932h-4.896V44.102h-7.235v-4.068h19.367V44.102z"/>
		<path fill="#FFFFFF" d="M388.651,79.615c-0.408-0.396-0.612-0.881-0.612-1.457c0-0.553,0.198-1.02,0.594-1.404
			s0.894-0.576,1.494-0.576c0.576,0,1.062,0.191,1.458,0.576s0.594,0.863,0.594,1.439s-0.198,1.057-0.594,1.439
			c-0.396,0.385-0.882,0.576-1.458,0.576C389.551,80.209,389.059,80.012,388.651,79.615z M388.543,84.277h3.096v18.756h-3.096
			V84.277z"/>
		<path fill="#FFFFFF" d="M402.258,77.906c-0.359,0.768-0.539,1.943-0.539,3.527v2.844h4.824v2.305h-4.824v16.451h-3.096V86.582
			h-2.268v-2.305h2.268v-2.52c0-2.496,0.414-4.361,1.242-5.598c0.828-1.236,2.165-1.854,4.015-1.854
			c0.527,0,1.127,0.054,1.799,0.161c0.672,0.108,1.284,0.247,1.836,0.414l-0.647,2.232c-0.744-0.238-1.597-0.359-2.556-0.359
			C403.303,76.754,402.618,77.139,402.258,77.906z"/>
		<path fill="#FFFFFF" d="M432.463,84.277l-8.748,25.957h-3.061l2.412-7.201h-0.288l-6.336-18.756h3.384l4.607,15.408l4.861-15.408
			H432.463z"/>
		<path fill="#FFFFFF" d="M437.16,101.27c-1.309-1.535-1.963-4.02-1.963-7.451c0-3.385,0.66-5.852,1.98-7.398
			c1.32-1.549,3.372-2.322,6.156-2.322c2.783,0,4.83,0.768,6.139,2.305c1.307,1.535,1.961,3.996,1.961,7.379
			c0,3.385-0.666,5.863-1.998,7.434c-1.332,1.572-3.401,2.359-6.209,2.359C440.49,103.574,438.468,102.807,437.16,101.27z
			 M447.096,99.309c0.805-1.141,1.206-3.078,1.206-5.814c0-1.775-0.161-3.168-0.485-4.176s-0.834-1.734-1.53-2.178
			c-0.696-0.445-1.645-0.666-2.845-0.666c-1.248,0-2.244,0.24-2.987,0.719c-0.744,0.48-1.284,1.254-1.62,2.322
			s-0.504,2.514-0.504,4.338c0,1.801,0.168,3.223,0.504,4.266c0.336,1.045,0.846,1.789,1.529,2.232
			c0.685,0.445,1.603,0.666,2.755,0.666C444.966,101.018,446.291,100.447,447.096,99.309z"/>
		<path fill="#FFFFFF" d="M471.198,84.277v18.756h-3.096v-1.908c-0.984,0.721-1.933,1.248-2.844,1.584
			c-0.912,0.336-1.896,0.504-2.953,0.504c-1.92,0-3.306-0.516-4.157-1.547c-0.853-1.031-1.278-2.797-1.278-5.293V84.277h3.204
			v11.629c0,1.223,0.108,2.16,0.324,2.807c0.216,0.648,0.552,1.094,1.008,1.332c0.456,0.24,1.104,0.361,1.944,0.361
			c1.224,0,2.808-0.469,4.752-1.404V84.277H471.198z"/>
		<path fill="#FFFFFF" d="M500.825,85.395v17.1c0,2.879-0.618,4.932-1.854,6.156c-1.236,1.223-3.066,1.836-5.49,1.836
			c-2.52,0-4.859-0.877-7.02-2.629l0.936-1.836c0.793,0.648,1.698,1.146,2.719,1.494c1.02,0.348,1.949,0.521,2.79,0.521
			c1.584,0,2.802-0.348,3.653-1.043c0.852-0.697,1.279-2.029,1.279-3.996v-1.26c-1.561,1.199-3.265,1.799-5.113,1.799
			c-2.088,0-3.785-0.75-5.094-2.25s-1.962-3.881-1.962-7.145c0-3.457,0.762-6,2.286-7.633c1.523-1.633,3.63-2.447,6.318-2.447
			c1.031,0,2.136,0.102,3.312,0.305c1.176,0.205,2.269,0.486,3.276,0.846L500.825,85.395z M495.731,100.711
			c0.828-0.227,1.531-0.533,2.107-0.918V87.014c-1.009-0.217-2.053-0.324-3.133-0.324c-1.992,0-3.504,0.51-4.536,1.529
			c-1.032,1.021-1.548,2.875-1.548,5.562c0,2.664,0.455,4.543,1.368,5.635c0.911,1.092,2.052,1.637,3.42,1.637
			C494.129,101.053,494.904,100.939,495.731,100.711z"/>
		<path fill="#FFFFFF" d="M517.26,100.693c0.73-0.168,1.613-0.42,2.646-0.756l0.468,2.377c-1.176,0.455-2.195,0.791-3.061,1.008
			c-0.863,0.215-1.775,0.324-2.735,0.324c-2.521,0-4.53-0.793-6.03-2.377s-2.25-4.08-2.25-7.488c0-3.359,0.727-5.814,2.178-7.361
			c1.452-1.549,3.391-2.322,5.814-2.322c2.256,0,3.87,0.611,4.842,1.836c0.973,1.225,1.459,2.916,1.459,5.076
			c0,1.344-0.085,2.447-0.253,3.312l-10.944-0.037c0.12,2.521,0.66,4.262,1.621,5.221c0.959,0.961,2.255,1.439,3.887,1.439
			C515.74,100.945,516.528,100.861,517.26,100.693z M510.869,87.68c-0.816,0.852-1.296,2.299-1.439,4.338l8.315-0.107
			c0.048-0.625,0.071-1.141,0.071-1.549c0-1.271-0.281-2.25-0.846-2.934s-1.506-1.025-2.826-1.025
			C512.778,86.402,511.685,86.828,510.869,87.68z"/>
		<path fill="#FFFFFF" d="M535.817,102.926c-1.104,0.24-2.111,0.359-3.023,0.359c-2.4,0-4.08-0.629-5.04-1.889
			c-0.96-1.262-1.44-3.234-1.44-5.922v-8.93h-2.268v-2.268h2.268v-4.824h2.988v4.824h5.256v2.268h-5.256v8.965
			c0,1.393,0.138,2.479,0.414,3.258c0.275,0.781,0.72,1.332,1.332,1.656c0.611,0.324,1.445,0.486,2.502,0.486
			c0.359,0,0.973-0.049,1.836-0.145L535.817,102.926z"/>
		<path fill="#FFFFFF" d="M558.821,84.746c0.888,0.432,1.549,1.158,1.98,2.178s0.648,2.43,0.648,4.23v11.879h-2.736v-2.412
			c-1.633,1.801-3.588,2.701-5.868,2.701c-1.896,0-3.307-0.504-4.229-1.512c-0.925-1.01-1.387-2.281-1.387-3.816
			c0-1.775,0.552-3.174,1.656-4.195c1.104-1.02,2.688-1.529,4.752-1.529h4.788c0-1.561-0.126-2.73-0.378-3.51
			s-0.648-1.314-1.188-1.602c-0.54-0.289-1.302-0.432-2.286-0.432c-1.344,0-3.229,0.287-5.652,0.863l-0.539-2.125
			c2.327-0.91,4.619-1.367,6.876-1.367C556.744,84.098,557.933,84.314,558.821,84.746z M558.425,98.785v-4.248h-4.752
			c-1.32,0-2.25,0.318-2.79,0.955c-0.54,0.635-0.811,1.373-0.811,2.213c0,0.938,0.294,1.674,0.883,2.215
			c0.588,0.539,1.386,0.811,2.394,0.811C554.885,100.73,556.576,100.082,558.425,98.785z"/>
		<path fill="#FFFFFF" d="M568.252,74.234h3.096v28.799h-3.096V74.234z"/>
		<path fill="#FFFFFF" d="M578.115,74.234h3.097v28.799h-3.097V74.234z"/>
		<path fill="#FFFFFF" d="M603.135,103.033h-3.06V79.49h-0.036l-4.393,1.619v-2.627l5.257-2.018h2.231V103.033z"/>
		<path fill="#FFFFFF" d="M620.793,87.932c1.715,1.26,2.574,3.438,2.574,6.533c0,2.305-0.457,4.111-1.369,5.418
			c-0.912,1.309-2.01,2.209-3.293,2.701c-1.285,0.492-2.574,0.738-3.871,0.738c-2.016,0-4.067-0.588-6.155-1.764v-2.953
			c1.056,0.6,2.124,1.068,3.204,1.404s2.027,0.504,2.844,0.504c3.695,0,5.544-2.053,5.544-6.156c0-1.607-0.294-2.826-0.882-3.654
			s-1.41-1.379-2.466-1.656c-1.057-0.275-2.472-0.414-4.248-0.414h-3.24V76.502h12.601v2.771h-9.793v6.768h1.369
			C616.683,86.041,619.076,86.672,620.793,87.932z"/>
		<path fill="#FFFFFF" d="M647.342,87.121c-1.223,0-2.424,0.188-3.6,0.559c-1.176,0.373-2.195,0.871-3.06,1.494v13.859h-3.097
			V84.277h3.097v2.484c0.888-0.744,1.944-1.367,3.168-1.871c1.224-0.506,2.46-0.77,3.708-0.793L647.342,87.121z"/>
		<path fill="#FFFFFF" d="M651.735,79.615c-0.408-0.396-0.611-0.881-0.611-1.457c0-0.553,0.197-1.02,0.594-1.404
			c0.396-0.385,0.894-0.576,1.494-0.576c0.575,0,1.062,0.191,1.457,0.576c0.396,0.385,0.594,0.863,0.594,1.439
			s-0.197,1.057-0.594,1.439c-0.396,0.385-0.882,0.576-1.457,0.576C652.635,80.209,652.143,80.012,651.735,79.615z M651.627,84.277
			h3.096v18.756h-3.096V84.277z"/>
		<path fill="#FFFFFF" d="M675.278,85.395v17.1c0,2.879-0.617,4.932-1.854,6.156c-1.236,1.223-3.066,1.836-5.49,1.836
			c-2.52,0-4.859-0.877-7.02-2.629l0.936-1.836c0.792,0.648,1.697,1.146,2.719,1.494c1.02,0.348,1.949,0.521,2.789,0.521
			c1.584,0,2.803-0.348,3.654-1.043c0.852-0.697,1.278-2.029,1.278-3.996v-1.26c-1.561,1.199-3.265,1.799-5.112,1.799
			c-2.088,0-3.786-0.75-5.094-2.25c-1.309-1.5-1.963-3.881-1.963-7.145c0-3.457,0.762-6,2.287-7.633
			c1.523-1.633,3.629-2.447,6.317-2.447c1.032,0,2.136,0.102,3.312,0.305c1.176,0.205,2.269,0.486,3.277,0.846L675.278,85.395z
			 M670.184,100.711c0.828-0.227,1.53-0.533,2.106-0.918V87.014c-1.009-0.217-2.052-0.324-3.132-0.324
			c-1.992,0-3.505,0.51-4.537,1.529c-1.031,1.021-1.547,2.875-1.547,5.562c0,2.664,0.455,4.543,1.367,5.635s2.053,1.637,3.42,1.637
			C668.582,101.053,669.356,100.939,670.184,100.711z"/>
		<path fill="#FFFFFF" d="M695.707,85.646c0.853,1.031,1.279,2.795,1.279,5.291v12.096h-3.097v-11.52
			c0-1.225-0.108-2.154-0.323-2.789c-0.217-0.637-0.564-1.074-1.045-1.314s-1.141-0.361-1.979-0.361
			c-0.816,0-1.645,0.109-2.484,0.324c-0.841,0.217-1.8,0.59-2.88,1.117v14.543h-3.096V74.234h3.096v12.168
			c1.056-0.793,2.076-1.375,3.061-1.746c0.983-0.373,2.1-0.559,3.348-0.559C693.482,84.098,694.856,84.613,695.707,85.646z"/>
		<path fill="#FFFFFF" d="M713.546,102.926c-1.104,0.24-2.112,0.359-3.024,0.359c-2.4,0-4.08-0.629-5.039-1.889
			c-0.961-1.262-1.44-3.234-1.44-5.922v-8.93h-2.269v-2.268h2.269v-4.824h2.987v4.824h5.256v2.268h-5.256v8.965
			c0,1.393,0.139,2.479,0.414,3.258c0.275,0.781,0.721,1.332,1.332,1.656c0.612,0.324,1.445,0.486,2.502,0.486
			c0.36,0,0.973-0.049,1.836-0.145L713.546,102.926z"/>
	</g>
</g>
</svg>
