<?xml version="1.0" encoding="utf-8"?>
<!-- Generator: Adobe Illustrator 15.1.0, SVG Export Plug-In . SVG Version: 6.00 Build 0)  -->
<!DOCTYPE svg PUBLIC "-//W3C//DTD SVG 1.1//EN" "http://www.w3.org/Graphics/SVG/1.1/DTD/svg11.dtd">
<svg version="1.1" id="Layer_29" xmlns="http://www.w3.org/2000/svg" xmlns:xlink="http://www.w3.org/1999/xlink" x="0px" y="0px"
	 width="800px" height="450px" viewBox="0 0 800 450" enable-background="new 0 0 800 450" xml:space="preserve">
<g>
	<path fill="#ED1C24" d="M603.512,30.654v111.52h-24.075V71.768l-69.925,69.924c12.854,16.538,19.83,36.747,19.83,58.035
		c0,25.332-9.867,49.167-27.791,67.05c-17.92,17.926-41.721,27.795-67.045,27.795c-22.237,0-43.321-7.609-60.264-21.584
		c-13.837,11.426-30.43,18.59-48.178,20.822v47.619h54.918v24.076h-54.918v54.914h-24.091v-54.914h-54.878V341.43h54.878v-47.618
		c-20.774-2.614-39.991-11.983-55.045-27.033c-17.885-17.884-27.752-41.719-27.752-67.05c0-25.333,9.869-49.131,27.752-67.03
		c17.927-17.92,41.761-27.792,67.09-27.792c22.235,0,43.293,7.607,60.222,21.589c16.942-13.981,38.029-21.589,60.266-21.589
		c21.248,0,41.424,6.956,57.959,19.776l69.908-69.942h-71.73V30.654H603.512z M314.02,270.498c16.455,0,31.619-5.656,43.64-15.115
		c-11.683-16.078-17.998-35.383-17.998-55.654c0-20.275,6.315-39.568,18.016-55.637c-12.03-9.461-27.195-15.108-43.657-15.108
		c-39.023,0-70.743,31.734-70.743,70.747C243.276,238.716,274.998,270.498,314.02,270.498z M384.765,199.733
		c0-13.584-3.843-26.283-10.503-37.068c-6.662,10.786-10.505,23.484-10.505,37.068c0,13.578,3.843,26.274,10.505,37.061
		C380.923,226.008,384.765,213.311,384.765,199.733z M434.508,270.503c39.01,0,70.739-31.781,70.739-70.769
		c0-39.014-31.729-70.75-70.739-70.75c-16.475,0-31.643,5.649-43.674,15.118c11.708,16.072,18.026,35.361,18.026,55.626
		c0,20.262-6.318,39.572-18.017,55.64c12.03,9.468,27.192,15.131,43.666,15.131V270.503z"/>
</g>
</svg>
