<?xml version="1.0" encoding="utf-8"?>
<!-- Generator: Adobe Illustrator 15.1.0, SVG Export Plug-In . SVG Version: 6.00 Build 0)  -->
<!DOCTYPE svg PUBLIC "-//W3C//DTD SVG 1.1//EN" "http://www.w3.org/Graphics/SVG/1.1/DTD/svg11.dtd">
<svg version="1.1" id="Layer_40" xmlns="http://www.w3.org/2000/svg" xmlns:xlink="http://www.w3.org/1999/xlink" x="0px" y="0px"
	 width="800px" height="450px" viewBox="0 0 800 450" enable-background="new 0 0 800 450" xml:space="preserve">
<g>
	<path fill="#ED1C24" d="M590.156,28.586v111.516h-24.074V69.698l-69.926,69.92c12.863,16.539,19.834,36.745,19.834,58.042
		c0,25.331-9.867,49.164-27.789,67.053c-15.049,15.047-34.236,24.418-55.006,27.032v47.616h54.915v24.075h-54.915v54.909h-24.09
		v-54.909h-54.888v-24.075h54.888v-47.616c-20.778-2.614-39.999-11.985-55.042-27.032c-17.889-17.889-27.759-41.723-27.759-67.053
		c0-25.332,9.87-49.13,27.759-67.032c17.918-17.918,41.757-27.792,67.083-27.792c21.26,0,41.442,6.955,57.973,19.776l69.902-69.937
		h-71.734V28.586H590.156z M491.897,197.66c0-39.018-31.73-70.754-70.75-70.754c-39.023,0-70.741,31.737-70.741,70.754
		c0,38.984,31.717,70.768,70.741,70.768C460.166,268.426,491.897,236.645,491.897,197.66z"/>
</g>
</svg>
