<?xml version="1.0" encoding="utf-8"?>
<!-- Generator: Adobe Illustrator 15.1.0, SVG Export Plug-In . SVG Version: 6.00 Build 0)  -->
<!DOCTYPE svg PUBLIC "-//W3C//DTD SVG 1.1//EN" "http://www.w3.org/Graphics/SVG/1.1/DTD/svg11.dtd">
<svg version="1.1" id="Abre" xmlns="http://www.w3.org/2000/svg" xmlns:xlink="http://www.w3.org/1999/xlink" x="0px" y="0px"
	 width="800px" height="300px" viewBox="0 -25 800 300" enable-background="new 0 -25 800 300" xml:space="preserve">
<g>
	<g>
		<path fill="#EC1C24" d="M391.129,1.354v17.542h-3.785V7.822l-10.998,10.997c2.022,2.601,3.12,5.778,3.12,9.127
			c0,3.984-1.553,7.733-4.371,10.547c-2.82,2.819-6.562,4.371-10.545,4.371c-3.499,0-6.813-1.197-9.479-3.395
			c-2.177,1.796-4.787,2.924-7.575,3.274v7.489h8.636v3.786h-8.636v8.638h-3.79v-8.638h-8.633v-3.786h8.633v-7.489
			c-3.269-0.412-6.29-1.885-8.658-4.251c-2.812-2.813-4.364-6.562-4.364-10.547c0-3.983,1.553-7.726,4.364-10.543
			c2.819-2.816,6.569-4.369,10.553-4.369c3.497,0,6.809,1.196,9.472,3.396c2.665-2.198,5.979-3.396,9.479-3.396
			c3.342,0,6.515,1.093,9.116,3.109l10.994-10.999H373.38v-3.79L391.129,1.354L391.129,1.354z M345.6,39.076
			c2.589,0,4.974-0.889,6.864-2.377c-1.838-2.528-2.831-5.564-2.831-8.754c0-3.188,0.993-6.223,2.833-8.75
			c-1.894-1.488-4.277-2.377-6.866-2.377c-6.138,0-11.127,4.992-11.127,11.127C334.473,34.078,339.462,39.076,345.6,39.076z
			 M356.727,27.946c0-2.136-0.604-4.132-1.652-5.83c-1.048,1.698-1.651,3.694-1.651,5.83c0,2.135,0.604,4.133,1.651,5.829
			C356.121,32.079,356.727,30.081,356.727,27.946z M364.55,39.078c6.136,0,11.125-5,11.125-11.132
			c0-6.136-4.989-11.127-11.125-11.127c-2.591,0-4.979,0.89-6.87,2.378c1.843,2.527,2.835,5.562,2.835,8.748
			c0,3.188-0.992,6.224-2.832,8.751c1.891,1.489,4.276,2.38,6.867,2.38V39.078z"/>
	</g>
	<g>
		<path fill="#EC1C24" d="M170.859,1.353v17.543h-3.786V7.82l-10.999,11c2.023,2.6,3.119,5.778,3.119,9.127
			c0,3.983-1.551,7.732-4.37,10.546c-2.817,2.819-6.562,4.371-10.546,4.371c-3.498,0-6.812-1.196-9.478-3.396
			c-2.067,1.706-4.523,2.808-7.153,3.217v7.548h8.631v3.786h-8.631v8.634h-3.789v-8.634h-7.465v-3.786h7.465v-7.439
			c-2.952-0.287-5.721-1.436-8.009-3.324c-2.287,1.889-5.052,3.037-8.003,3.324v7.439h7.463v3.786h-7.463v8.634h-3.79v-8.634h-8.631
			v-3.786h8.631v-7.548c-3.104-0.48-5.967-1.928-8.229-4.192c-2.813-2.813-4.364-6.562-4.364-10.546
			c0-3.982,1.551-7.727,4.364-10.542c2.818-2.818,6.566-4.371,10.552-4.371c3.496,0,6.809,1.196,9.472,3.396
			c2.664-2.199,5.98-3.396,9.479-3.396s6.809,1.196,9.474,3.396c2.664-2.199,5.979-3.396,9.478-3.396
			c3.344,0,6.518,1.094,9.116,3.109l10.996-11.001h-11.282V1.353H170.859z M106.376,39.078c2.588,0,4.974-0.89,6.863-2.379
			c-1.838-2.528-2.83-5.564-2.83-8.753c0-3.188,0.992-6.223,2.831-8.751c-1.892-1.488-4.275-2.376-6.864-2.376
			c-6.139,0-11.127,4.991-11.127,11.127C95.249,34.079,100.239,39.078,106.376,39.078z M115.851,33.775
			c1.048-1.696,1.652-3.694,1.652-5.829c0-2.136-0.604-4.132-1.652-5.83c-1.047,1.698-1.653,3.694-1.653,5.83
			C114.198,30.081,114.804,32.079,115.851,33.775z M125.325,16.819c-2.592,0-4.977,0.89-6.868,2.378
			c1.841,2.527,2.835,5.562,2.835,8.748c0,3.188-0.994,6.224-2.834,8.752c1.893,1.488,4.276,2.379,6.867,2.379
			c2.589,0,4.974-0.891,6.865-2.379c-1.838-2.528-2.832-5.562-2.832-8.752c0-3.187,0.994-6.221,2.833-8.748
			C130.3,17.709,127.914,16.819,125.325,16.819z M136.452,27.946c0-2.136-0.604-4.132-1.652-5.828
			c-1.046,1.696-1.65,3.692-1.65,5.828c0,2.135,0.604,4.131,1.65,5.828C135.848,32.077,136.452,30.081,136.452,27.946z
			 M155.404,27.946c0-6.136-4.99-11.127-11.127-11.127c-2.59,0-4.977,0.89-6.87,2.379c1.842,2.527,2.836,5.562,2.836,8.748
			c0,3.188-0.993,6.223-2.833,8.751c1.892,1.488,4.277,2.381,6.867,2.381C150.412,39.078,155.404,34.079,155.404,27.946z"/>
	</g>
	<g>
		<path fill="#EC1C24" d="M228.843,10.259v17.544h-3.787V16.725l-10.458,10.463c1.679,2.453,2.581,5.352,2.581,8.39
			c0,3.982-1.552,7.732-4.37,10.544c-2.818,2.821-6.562,4.372-10.547,4.372c-3.983,0-7.732-1.551-10.551-4.372
			c-1.129-1.127-2.055-2.408-2.759-3.793c-1.278,0.354-2.613,0.535-3.978,0.535c-3.984,0-7.733-1.552-10.552-4.371
			c-2.813-2.813-4.364-6.562-4.364-10.546c0-3.982,1.551-7.727,4.364-10.542c2.817-2.818,6.566-4.371,10.552-4.371
			c2.98,0,5.827,0.869,8.253,2.487l10.373-10.377l-11.286-0.006V1.353l17.749,0.006v17.542h-3.786V7.823l-10.183,10.188
			c0.874,0.974,1.606,2.045,2.188,3.187c1.28-0.353,2.616-0.533,3.979-0.533c3.647,0,7.095,1.302,9.814,3.687l10.301-10.307h-11.078
			V10.26L228.843,10.259L228.843,10.259z M187.681,38.745c-0.221-1.03-0.335-2.09-0.335-3.168c0-3.984,1.553-7.728,4.365-10.542
			c0.928-0.928,1.956-1.719,3.062-2.361c-1.883-3.483-5.567-5.854-9.797-5.854c-6.138,0-11.127,4.991-11.127,11.129
			c0,6.131,4.989,11.13,11.127,11.13C185.907,39.078,186.816,38.963,187.681,38.745z M195.993,26.388
			c-2.932,2.006-4.858,5.377-4.858,9.189c0,0.529,0.038,1.05,0.109,1.561c2.932-2.008,4.857-5.38,4.857-9.189
			C196.103,27.417,196.065,26.896,195.993,26.388z M213.389,35.577c0-6.136-4.99-11.127-11.127-11.127
			c-0.932,0-1.838,0.114-2.704,0.332c0.22,1.028,0.334,2.088,0.334,3.166c0,3.981-1.552,7.732-4.369,10.544
			c-0.928,0.927-1.954,1.717-3.056,2.359c1.882,3.481,5.565,5.855,9.795,5.855C208.399,46.707,213.389,41.71,213.389,35.577z"/>
	</g>
	<g>
		<path fill="#EC1C24" d="M90.008,36.187c0,3.982-1.553,7.731-4.371,10.544c-2.818,2.819-6.562,4.371-10.547,4.371
			c-3.982,0-7.731-1.552-10.551-4.371c-2.812-2.812-4.364-6.562-4.364-10.544c0-3.984,1.552-7.729,4.364-10.543
			c2.347-2.346,5.337-3.814,8.571-4.241c0.001-5.641,2.572-7.99,4.586-9.822c1.596-1.455,2.653-2.419,2.653-4.843
			c0-2.783-2.013-4.698-4.935-4.698c-1.833,0-3.231,0.491-4.207,1.487c-1.494,1.532-1.751,4.075-1.743,5.147l-3.789,0.003
			c-0.005-2.407,0.717-5.646,2.833-7.802c1.35-1.377,3.567-2.625,6.906-2.625c5.001,0,8.72,3.622,8.72,8.487
			c0,4.096-2.115,6.029-3.881,7.638c-1.845,1.688-3.337,3.049-3.349,7.006c3.296,0.398,6.345,1.877,8.729,4.263
			C88.455,28.458,90.008,32.202,90.008,36.187z M86.218,36.187c0-6.137-4.991-11.128-11.128-11.128S63.964,30.05,63.964,36.187
			c0,6.13,4.989,11.13,11.126,11.13S86.218,42.316,86.218,36.187z"/>
	</g>
	<g>
		<path fill="#EC1C24" d="M331.481,1.352v17.544h-3.784V7.82l-10.849,10.85c2.099,2.627,3.239,5.863,3.239,9.276
			c0,3.984-1.554,7.733-4.371,10.547c-2.369,2.368-5.389,3.841-8.656,4.252v7.488h8.636v3.786h-8.636v8.634h-3.789v-8.634h-8.632
			v-3.786h8.632v-7.489c-3.266-0.412-6.287-1.886-8.65-4.251c-2.813-2.813-4.366-6.562-4.366-10.547c0-3.354,1.102-6.541,3.13-9.144
			l-2.196-2.196l-3.903,3.905l-2.678-2.679l3.904-3.907l-6.104-6.105v11.076h-3.788V1.356h17.755v3.785H285.09l6.099,6.105
			l3.907-3.909l2.679,2.68l-3.909,3.908l2.201,2.203c2.599-2.007,5.77-3.095,9.104-3.095c3.277,0,6.392,1.05,8.965,2.994
			L325.013,5.14H313.73V1.351L331.481,1.352L331.481,1.352z M316.296,27.945c0-6.135-4.989-11.127-11.126-11.127
			c-6.139,0-11.128,4.992-11.128,11.127c0,6.133,4.989,11.131,11.128,11.131C311.307,39.076,316.296,34.078,316.296,27.945z"/>
	</g>
	<g>
		<path fill="#EC1C24" d="M266.857,50.232h8.632v3.786h-8.632v8.638h-3.79v-8.638h-7.463v-3.786h7.463V42.79
			c-2.951-0.287-5.72-1.435-8.009-3.322c-2.286,1.888-5.052,3.035-8.004,3.322v7.442h7.465v3.786h-7.465v8.638h-3.789v-8.638h-8.631
			v-3.786h8.631v-7.549c-3.104-0.481-5.967-1.929-8.231-4.191c-2.812-2.813-4.363-6.562-4.363-10.547
			c0-3.985,1.552-7.728,4.363-10.543c2.819-2.818,6.568-4.371,10.554-4.371c3.498,0,6.811,1.196,9.472,3.396
			c2.665-2.199,5.981-3.396,9.479-3.396c3.982,0,7.728,1.553,10.546,4.371c2.817,2.815,4.37,6.558,4.37,10.543
			c0,3.984-1.553,7.732-4.37,10.547c-2.265,2.262-5.124,3.709-8.227,4.191L266.857,50.232L266.857,50.232z M245.586,39.076
			c2.589,0,4.974-0.891,6.865-2.377c-1.84-2.53-2.832-5.564-2.832-8.754c0-3.189,0.992-6.223,2.833-8.751
			c-1.893-1.487-4.276-2.376-6.866-2.376c-6.14,0-11.128,4.992-11.128,11.127C234.458,34.078,239.448,39.076,245.586,39.076z
			 M255.062,33.775c1.047-1.696,1.653-3.694,1.653-5.83c0-2.135-0.606-4.133-1.653-5.829c-1.048,1.696-1.653,3.694-1.653,5.829
			C253.407,30.081,254.014,32.079,255.062,33.775z M275.662,27.945c0-6.135-4.99-11.126-11.126-11.126
			c-2.591,0-4.977,0.888-6.869,2.378c1.842,2.527,2.836,5.562,2.836,8.748c0,3.187-0.994,6.224-2.834,8.751
			c1.892,1.489,4.276,2.38,6.867,2.38C270.672,39.076,275.662,34.078,275.662,27.945L275.662,27.945z"/>
	</g>
	<g>
		<path fill="#EC1C24" d="M432.072,37.001v17.538h-17.585v-3.786h11.111l-6.1-6.104l-3.905,3.909l-2.679-2.679l3.905-3.909
			l-2.245-2.248c-2.607,2.035-5.796,3.14-9.156,3.14c-3.982,0-7.731-1.552-10.553-4.369c-2.812-2.814-4.363-6.562-4.363-10.547
			c0-3.985,1.553-7.726,4.363-10.543c2.82-2.816,6.569-4.371,10.553-4.371s7.728,1.555,10.547,4.371
			c2.817,2.817,4.371,6.558,4.371,10.543c0,3.33-1.086,6.5-3.09,9.091l2.254,2.256l3.903-3.908l2.679,2.679l-3.903,3.907
			l6.104,6.105V37.002L432.072,37.001L432.072,37.001z M416.547,27.945c0-6.137-4.992-11.127-11.129-11.127
			c-6.138,0-11.126,4.99-11.126,11.127c0,6.133,4.988,11.131,11.126,11.131C411.555,39.076,416.547,34.078,416.547,27.945z"/>
	</g>
	<g>
		<path fill="#EC1C24" d="M472.704,37.001c0,3.984-1.552,7.732-4.37,10.547c-2.817,2.818-6.562,4.369-10.545,4.369
			c-3.984,0-7.732-1.551-10.552-4.369c-2.814-2.814-4.364-6.562-4.364-10.547c0-0.892,0.077-1.771,0.229-2.63l-19.329-6.021
			l1.272-3.572l19.184,5.986c0.449-0.975,1.006-1.902,1.663-2.767l-16.585-16.581l2.684-2.682l16.555,16.559
			c0.863-0.688,1.795-1.269,2.776-1.74l-5.968-19.148l3.567-1.274l5.992,19.231c0.938-0.181,1.898-0.275,2.873-0.275
			c3.983,0,7.729,1.553,10.547,4.371C471.154,29.273,472.704,33.017,472.704,37.001z M468.914,37.001
			c0-6.136-4.99-11.127-11.125-11.127c-6.139,0-11.129,4.991-11.129,11.127c0,6.132,4.99,11.13,11.129,11.13
			C463.924,48.131,468.914,43.133,468.914,37.001z"/>
	</g>
	<g>
		<path fill="#EC1C24" d="M545.943,27.27c0,3.981-1.552,7.731-4.371,10.546c-2.816,2.817-6.562,4.368-10.544,4.368
			c-3.984,0-7.732-1.551-10.552-4.368c-2.812-2.814-4.366-6.564-4.366-10.546c0-3.349,1.098-6.527,3.115-9.127l-5.192-5.185
			l-1.878,7.037l-3.661-0.979l1.884-7.037l-7.031,1.881l-0.986-3.655l7.038-1.885l-5.149-5.151l2.68-2.678l5.146,5.151l1.891-7.035
			l3.658,0.98l-1.888,7.036l7.035-1.889l0.978,3.665l-7.026,1.879l5.183,5.187c2.603-2.018,5.78-3.111,9.125-3.111
			c3.982,0,7.728,1.553,10.544,4.372C544.391,19.54,545.943,23.284,545.943,27.27z M542.153,27.27
			c0-6.138-4.988-11.129-11.125-11.129c-6.139,0-11.129,4.991-11.129,11.129c0,6.131,4.99,11.13,11.129,11.13
			C537.162,38.399,542.153,33.4,542.153,27.27z"/>
	</g>
	<g>
		<path fill="#EC1C24" d="M709.952,12.509v17.54h-3.784V18.975L695.17,29.973c2.023,2.601,3.119,5.779,3.119,9.129
			c0,3.983-1.553,7.73-4.369,10.544c-2.819,2.82-6.562,4.371-10.547,4.371c-3.983,0-7.732-1.551-10.553-4.371
			c-2.812-2.813-4.363-6.561-4.363-10.544c0-3.984,1.552-7.729,4.363-10.543c2.819-2.818,6.568-4.371,10.553-4.371
			c3.345,0,6.518,1.093,9.116,3.109l10.994-10.999h-11.28v-3.789H709.952z M694.5,39.102c0-6.137-4.991-11.128-11.127-11.128
			c-6.14,0-11.127,4.991-11.127,11.128c0,6.131,4.987,11.129,11.127,11.129C689.509,50.23,694.5,45.232,694.5,39.102z"/>
	</g>
	<g>
		<path fill="#EC1C24" d="M632.682,39.102c0,3.983-1.551,7.732-4.37,10.544c-2.818,2.82-6.562,4.371-10.546,4.371
			s-7.733-1.551-10.552-4.371c-2.813-2.812-4.364-6.561-4.364-10.544c0-3.448,1.163-6.719,3.301-9.36l-13.189-13.187l2.683-2.683
			l13.241,13.244c2.555-1.901,5.64-2.929,8.882-2.929c3.983,0,7.728,1.553,10.546,4.371
			C631.131,31.373,632.682,35.117,632.682,39.102z M628.893,39.102c0-6.137-4.992-11.128-11.127-11.128
			c-6.137,0-11.127,4.991-11.127,11.128c0,6.131,4.99,11.13,11.127,11.13C623.901,50.231,628.893,45.232,628.893,39.102z"/>
	</g>
	<g>
		<path fill="#EC1C24" d="M492.107,42.066v7.491h8.637v3.784h-8.637v8.636h-3.79v-8.636h-8.631v-3.784h8.631v-7.491
			c-3.267-0.412-6.29-1.885-8.657-4.251c-2.812-2.813-4.364-6.562-4.364-10.546c0-3.985,1.554-7.729,4.364-10.543
			c2.819-2.819,6.569-4.37,10.552-4.37c3.984,0,7.729,1.551,10.548,4.37c2.817,2.813,4.371,6.558,4.371,10.543
			c0,3.983-1.554,7.732-4.371,10.546C498.391,40.182,495.373,41.654,492.107,42.066z M490.211,38.399
			c6.138,0,11.128-4.998,11.128-11.13c0-6.136-4.99-11.129-11.128-11.129s-11.127,4.993-11.127,11.129
			C479.084,33.401,484.073,38.399,490.211,38.399z"/>
	</g>
	<g>
		<path fill="#EC1C24" d="M640.15,41.697c-2.812-2.812-4.364-6.562-4.364-10.547c0-3.983,1.553-7.728,4.364-10.542
			c2.819-2.817,6.568-4.371,10.552-4.371c3.984,0,7.729,1.554,10.547,4.371c2.818,2.814,4.37,6.559,4.37,10.542
			c0,3.985-1.552,7.733-4.37,10.547c-2.818,2.819-6.562,4.37-10.547,4.37C646.718,46.067,642.969,44.517,640.15,41.697z
			 M661.827,31.15c0-6.136-4.991-11.126-11.127-11.126c-6.139,0-11.126,4.99-11.126,11.126c0,6.132,4.987,11.131,11.126,11.131
			C656.836,42.281,661.827,37.282,661.827,31.15z"/>
	</g>
	<g>
		<path fill="#EC1C24" d="M590.774,0.678v17.54h-3.785V7.145L575.99,18.143c2.024,2.6,3.12,5.778,3.12,9.128
			c0,3.983-1.552,7.732-4.371,10.545c-2.365,2.366-5.384,3.841-8.65,4.252v7.49h8.638v3.785h-8.638v8.637H562.3v-8.637h-8.634
			v-3.785h8.634v-7.49c-3.269-0.411-6.291-1.886-8.657-4.252c-2.812-2.812-4.366-6.562-4.366-10.545
			c0-3.985,1.553-7.728,4.366-10.542c2.818-2.819,6.566-4.371,10.552-4.371c3.342,0,6.518,1.093,9.117,3.11l10.994-11.002h-11.282
			V0.678H590.774z M575.32,27.271c0-6.137-4.989-11.128-11.126-11.128s-11.128,4.991-11.128,11.128
			c0,6.131,4.991,11.131,11.128,11.131C570.328,38.401,575.32,33.401,575.32,27.271z"/>
	</g>
	<g>
		<path fill="#EC1C24" d="M791.507,9.903v17.543h-3.788V16.367L777.26,26.831c1.68,2.454,2.582,5.351,2.582,8.39
			c0,3.984-1.553,7.731-4.37,10.545c-2.818,2.819-6.563,4.37-10.547,4.37c-3.984,0-7.733-1.551-10.55-4.37
			c-1.131-1.129-2.057-2.407-2.76-3.792c-1.277,0.352-2.615,0.533-3.978,0.533c-3.497,0-6.813-1.196-9.479-3.394
			c-2.177,1.796-4.785,2.923-7.576,3.274v7.489h8.637v3.786h-8.637v8.637h-3.787v-8.637h-8.633v-3.786h8.633v-7.489
			c-3.271-0.411-6.293-1.886-8.658-4.251c-2.812-2.813-4.366-6.562-4.366-10.546c0-3.985,1.554-7.728,4.366-10.543
			c2.816-2.818,6.566-4.371,10.552-4.371c3.497,0,6.81,1.197,9.471,3.396c2.665-2.198,5.981-3.396,9.479-3.396
			c2.98,0,5.829,0.87,8.252,2.487l10.374-10.377L754.98,4.782V0.997l17.749,0.006v17.54h-3.785V7.466L758.76,17.654
			c0.872,0.973,1.604,2.043,2.188,3.187c1.277-0.353,2.613-0.534,3.977-0.534c3.647,0,7.096,1.302,9.814,3.687l10.3-10.307h-11.075
			V9.903H791.507z M728.69,38.722c2.588,0,4.975-0.889,6.862-2.377c-1.837-2.529-2.831-5.565-2.831-8.754
			c0-3.189,0.994-6.223,2.836-8.751c-1.895-1.488-4.277-2.376-6.867-2.376c-6.139,0-11.126,4.99-11.126,11.127
			C717.564,33.724,722.551,38.722,728.69,38.722z M739.818,27.592c0-2.137-0.606-4.134-1.651-5.828
			c-1.049,1.694-1.654,3.691-1.654,5.828c0,2.135,0.605,4.133,1.654,5.829C739.211,31.725,739.818,29.727,739.818,27.592z
			 M747.639,38.724c0.933,0,1.84-0.116,2.705-0.334c-0.224-1.03-0.334-2.09-0.334-3.169c0-3.982,1.55-7.726,4.365-10.541
			c0.927-0.929,1.957-1.717,3.06-2.36c-1.884-3.482-5.566-5.854-9.796-5.854c-2.591,0-4.978,0.889-6.867,2.377
			c1.84,2.527,2.836,5.562,2.836,8.748c0,3.188-0.996,6.225-2.836,8.751c1.895,1.489,4.277,2.38,6.867,2.38V38.724z M758.657,26.032
			c-2.934,2.007-4.859,5.376-4.859,9.188c0,0.53,0.038,1.052,0.109,1.562c2.931-2.007,4.858-5.38,4.858-9.189
			C758.767,27.062,758.729,26.542,758.657,26.032z M776.053,35.221c0-6.136-4.99-11.126-11.128-11.126
			c-0.933,0-1.837,0.115-2.706,0.333c0.223,1.027,0.338,2.088,0.338,3.164c0,3.984-1.555,7.732-4.371,10.546
			c-0.928,0.926-1.955,1.717-3.057,2.358c1.883,3.483,5.565,5.856,9.796,5.856C771.063,46.353,776.053,41.354,776.053,35.221z"/>
	</g>
</g>
<g>
	<path fill="#FFFFFF" d="M121,105.485h-11.774v37.118h-2.905v-37.118h-11.72v-2.481H121V105.485z"/>
	<path fill="#FFFFFF" d="M129.976,139.938c-1.832-2.235-2.746-5.869-2.746-10.902c0-4.964,0.927-8.562,2.774-10.799
		c1.848-2.233,4.725-3.353,8.632-3.353c3.909,0,6.785,1.119,8.635,3.353c1.848,2.236,2.771,5.818,2.771,10.747
		c0,4.999-0.933,8.633-2.799,10.903c-1.865,2.269-4.77,3.405-8.712,3.405C134.657,143.291,131.806,142.173,129.976,139.938z
		 M145.05,138.012c1.354-1.866,2.035-4.981,2.035-9.346c0-2.817-0.273-5.061-0.819-6.732c-0.546-1.673-1.418-2.878-2.613-3.616
		c-1.196-0.739-2.818-1.109-4.857-1.109c-2.112,0-3.794,0.395-5.042,1.188c-1.252,0.793-2.156,2.059-2.722,3.801
		c-0.562,1.742-0.844,4.059-0.844,6.943c0,2.887,0.281,5.175,0.844,6.864c0.565,1.689,1.437,2.913,2.614,3.669
		c1.179,0.758,2.755,1.135,4.728,1.135C141.468,140.809,143.696,139.875,145.05,138.012z"/>
	<path fill="#FFFFFF" d="M192.333,115.148v27.455h-2.852v-2.852c-1.479,1.023-2.95,1.797-4.408,2.321
		c-1.461,0.528-3.002,0.794-4.62,0.794c-1.867,0-3.364-0.307-4.488-0.924c-1.127-0.616-1.954-1.646-2.481-3.091
		c-0.528-1.442-0.794-3.414-0.794-5.913v-17.794h2.906v17.317c0,2.112,0.176,3.715,0.526,4.806c0.351,1.092,0.915,1.848,1.689,2.27
		c0.774,0.423,1.866,0.633,3.275,0.633c2.286,0,5.085-0.863,8.395-2.588v-22.439h2.852V115.148z"/>
	<path fill="#FFFFFF" d="M220.843,115.781c1.127,0.6,1.954,1.62,2.481,3.063c0.528,1.443,0.792,3.415,0.792,5.913v17.848h-2.852
		v-17.215c0-2.111-0.177-3.703-0.526-4.778c-0.353-1.074-0.916-1.821-1.689-2.244c-0.774-0.422-1.883-0.632-3.327-0.632
		c-1.478,0-2.976,0.21-4.488,0.632c-1.514,0.423-3.168,1.11-4.963,2.06v22.176h-2.851v-27.455h2.851v3.22
		c1.619-1.161,3.221-2.032,4.806-2.613c1.582-0.579,3.344-0.871,5.279-0.871C218.221,114.884,219.716,115.184,220.843,115.781z"/>
	<path fill="#FFFFFF" d="M254.107,141.863c-1.443,0.458-3.09,0.818-4.937,1.082c-1.848,0.264-3.46,0.396-4.831,0.396
		c-7.498,0-11.248-4.628-11.248-13.886c0-5.067,1.064-8.8,3.194-11.194s5.111-3.592,8.95-3.592c2.006,0,3.978,0.265,5.913,0.793
		V100.36h2.906L254.107,141.863z M238.161,138.221c1.513,1.761,3.781,2.641,6.81,2.641c1.584,0,3.644-0.247,6.178-0.741v-22.068
		c-2.007-0.528-3.82-0.793-5.437-0.793c-3.17,0-5.599,0.959-7.286,2.876c-1.69,1.919-2.536,5.043-2.536,9.374
		C235.891,133.558,236.648,136.461,238.161,138.221z"/>
	<path fill="#FFFFFF" d="M282.672,129.19l-16.633,0.056c0.034,4.224,0.863,7.199,2.481,8.921c1.621,1.726,3.767,2.59,6.442,2.59
		c1.195,0,2.332-0.133,3.405-0.396s2.35-0.64,3.828-1.134l0.476,2.27c-1.726,0.667-3.143,1.152-4.251,1.449
		c-1.108,0.301-2.314,0.449-3.617,0.449c-3.521,0-6.344-1.168-8.475-3.51c-2.129-2.34-3.192-5.976-3.192-10.903
		c0-4.857,1.021-8.42,3.062-10.691c2.039-2.27,4.769-3.407,8.183-3.407c3.097,0,5.297,0.871,6.6,2.613
		c1.302,1.742,1.954,4.183,1.954,7.312C282.936,126.253,282.848,127.715,282.672,129.19z M266.092,127.027l13.992-0.208
		c0.107-0.848,0.16-1.763,0.16-2.746c0-2.183-0.476-3.863-1.426-5.042c-0.951-1.18-2.5-1.77-4.648-1.77
		C269.207,117.26,266.514,120.516,266.092,127.027z"/>
	<path fill="#FFFFFF" d="M304.901,117.681c-1.972,0.036-3.82,0.353-5.544,0.951c-1.726,0.6-3.221,1.406-4.488,2.429v21.543h-2.851
		v-27.456h2.851v3.59c1.232-1.057,2.754-1.945,4.567-2.666c1.811-0.72,3.702-1.118,5.677-1.188L304.901,117.681z"/>
	<path fill="#FFFFFF" d="M310.602,136.058c0.915,1.304,2.251,2.35,4.013,3.14c1.76,0.794,3.502,1.188,5.228,1.188
		c1.865,0,3.432-0.501,4.697-1.504c1.268-1.004,1.902-2.333,1.902-3.988c0-1.124-0.344-2.04-1.031-2.744
		c-0.687-0.704-1.522-1.241-2.506-1.61c-0.986-0.369-2.341-0.784-4.066-1.242c-1.865-0.457-3.37-0.905-4.514-1.348
		c-1.144-0.438-2.114-1.098-2.905-1.979c-0.792-0.88-1.188-2.039-1.188-3.484c0-1.548,0.44-2.896,1.32-4.04
		c0.88-1.143,2.051-2.024,3.512-2.639c1.458-0.617,3.016-0.925,4.673-0.925c3.061,0,5.806,1.003,8.234,3.008l-1.003,1.953
		c-1.021-0.739-2.146-1.311-3.377-1.716c-1.233-0.404-2.481-0.607-3.749-0.607c-1.937,0-3.582,0.448-4.938,1.347
		c-1.354,0.896-2.032,2.05-2.032,3.46c0,0.879,0.29,1.592,0.871,2.137c0.581,0.547,1.31,0.959,2.191,1.24
		c0.879,0.284,2.092,0.617,3.643,1.004c2.041,0.494,3.696,0.978,4.963,1.451c1.268,0.477,2.352,1.231,3.247,2.268
		c0.898,1.04,1.349,2.438,1.349,4.198c0,2.569-0.871,4.61-2.613,6.125c-1.743,1.513-3.97,2.27-6.68,2.27
		c-2.042,0-4.058-0.438-6.046-1.319s-3.564-2.133-4.726-3.749L310.602,136.058z"/>
	<path fill="#FFFFFF" d="M349.832,142.604c-1.406,0.212-2.711,0.317-3.907,0.317c-2.218,0-3.96-0.396-5.228-1.188
		c-1.268-0.794-2.164-1.981-2.692-3.564c-0.526-1.583-0.792-3.658-0.792-6.23v-14.573h-3.168v-2.217h3.168v-6.971h2.693v6.971h7.973
		v2.217h-7.973v14.627c0,2.148,0.209,3.846,0.631,5.097c0.425,1.25,1.12,2.146,2.087,2.691s2.279,0.816,3.934,0.816
		c0.844,0,1.795-0.052,2.851-0.157L349.832,142.604z"/>
	<path fill="#FFFFFF" d="M369.791,115.781c1.231,0.6,2.146,1.628,2.745,3.09c0.598,1.461,0.896,3.478,0.896,6.046v17.688h-2.534
		v-3.695c-2.605,2.712-5.615,4.065-9.029,4.065c-2.745,0-4.77-0.72-6.073-2.167c-1.302-1.442-1.952-3.275-1.952-5.49
		c0-2.534,0.774-4.488,2.322-5.861s3.82-2.076,6.811-2.111h7.656v-0.686c0-2.463-0.185-4.347-0.555-5.651
		c-0.369-1.303-1.003-2.218-1.9-2.744c-0.897-0.527-2.176-0.793-3.828-0.793c-2.323,0-5.14,0.476-8.447,1.425l-0.581-2.005
		c1.652-0.667,3.247-1.17,4.777-1.505c1.533-0.336,3.123-0.502,4.78-0.502C366.92,114.884,368.558,115.184,369.791,115.781z
		 M358.121,138.987c0.986,0.935,2.36,1.398,4.119,1.398c1.337,0,2.726-0.308,4.171-0.926c1.442-0.614,2.851-1.451,4.224-2.506
		v-7.287h-7.813c-2.22,0-3.802,0.511-4.753,1.532c-0.95,1.023-1.425,2.322-1.425,3.908
		C356.644,136.76,357.135,138.055,358.121,138.987z"/>
	<path fill="#FFFFFF" d="M401.945,115.781c1.127,0.6,1.954,1.62,2.482,3.063c0.527,1.443,0.792,3.415,0.792,5.913v17.848h-2.852
		v-17.215c0-2.111-0.176-3.703-0.526-4.778c-0.353-1.074-0.915-1.821-1.688-2.244c-0.775-0.422-1.884-0.632-3.327-0.632
		c-1.478,0-2.974,0.21-4.485,0.632c-1.514,0.423-3.17,1.11-4.966,2.06v22.176h-2.851v-27.455h2.851v3.22
		c1.621-1.161,3.223-2.032,4.806-2.613c1.584-0.579,3.344-0.871,5.279-0.871C399.323,114.884,400.819,115.184,401.945,115.781z"/>
	<path fill="#FFFFFF" d="M435.208,141.863c-1.443,0.458-3.091,0.818-4.937,1.082c-1.848,0.264-3.458,0.396-4.831,0.396
		c-7.497,0-11.248-4.628-11.248-13.886c0-5.067,1.065-8.8,3.193-11.194c2.133-2.395,5.11-3.592,8.949-3.592
		c2.007,0,3.979,0.265,5.915,0.793V100.36h2.906L435.208,141.863z M419.263,138.221c1.513,1.761,3.783,2.641,6.811,2.641
		c1.583,0,3.643-0.247,6.177-0.741v-22.068c-2.005-0.528-3.82-0.793-5.437-0.793c-3.168,0-5.598,0.959-7.286,2.876
		c-1.69,1.919-2.538,5.043-2.538,9.374C416.99,133.558,417.749,136.461,419.263,138.221z"/>
	<path fill="#FFFFFF" d="M472.433,142.604c-1.41,0.212-2.712,0.317-3.908,0.317c-2.22,0-3.962-0.396-5.228-1.188
		c-1.268-0.794-2.166-1.981-2.691-3.564c-0.529-1.583-0.793-3.658-0.793-6.23v-14.573h-3.169v-2.217h3.169v-6.971h2.69v6.971h7.974
		v2.217h-7.974v14.627c0,2.148,0.212,3.846,0.633,5.097c0.424,1.25,1.119,2.146,2.086,2.691s2.277,0.816,3.932,0.816
		c0.847,0,1.798-0.052,2.854-0.157L472.433,142.604z"/>
	<path fill="#FFFFFF" d="M496.456,115.781c1.126,0.6,1.953,1.62,2.481,3.063c0.527,1.443,0.791,3.415,0.791,5.913v17.848h-2.852
		v-17.215c0-2.111-0.176-3.703-0.526-4.778c-0.353-1.074-0.915-1.821-1.688-2.244c-0.775-0.422-1.884-0.632-3.326-0.632
		s-2.911,0.21-4.409,0.632c-1.499,0.423-3.14,1.092-4.934,2.007v22.229h-2.802v-42.24h2.802v17.953
		c1.581-1.126,3.155-1.98,4.724-2.562c1.566-0.579,3.317-0.871,5.253-0.871C493.833,114.884,495.328,115.184,496.456,115.781z"/>
	<path fill="#FFFFFF" d="M528.294,129.19l-16.634,0.056c0.037,4.224,0.864,7.199,2.484,8.921c1.617,1.726,3.764,2.59,6.44,2.59
		c1.197,0,2.331-0.133,3.405-0.396s2.351-0.64,3.826-1.134l0.478,2.27c-1.726,0.667-3.142,1.152-4.25,1.449
		c-1.11,0.301-2.315,0.449-3.618,0.449c-3.519,0-6.344-1.168-8.473-3.51c-2.132-2.34-3.195-5.976-3.195-10.903
		c0-4.857,1.022-8.42,3.062-10.691c2.041-2.27,4.77-3.407,8.184-3.407c3.098,0,5.298,0.871,6.6,2.613
		c1.303,1.742,1.955,4.183,1.955,7.312C528.558,126.253,528.47,127.715,528.294,129.19z M511.714,127.027l13.993-0.208
		c0.107-0.848,0.159-1.763,0.159-2.746c0-2.183-0.478-3.863-1.425-5.042c-0.951-1.18-2.501-1.77-4.649-1.77
		C514.829,117.26,512.137,120.516,511.714,127.027z"/>
	<path fill="#FFFFFF" d="M570.216,141.863c-1.443,0.458-3.091,0.818-4.937,1.082c-1.848,0.264-3.461,0.396-4.834,0.396
		c-7.494,0-11.245-4.628-11.245-13.886c0-5.067,1.063-8.8,3.194-11.194c2.13-2.395,5.11-3.592,8.948-3.592
		c2.007,0,3.979,0.265,5.915,0.793V100.36h2.902L570.216,141.863z M554.271,138.221c1.513,1.761,3.781,2.641,6.809,2.641
		c1.585,0,3.644-0.247,6.179-0.741v-22.068c-2.007-0.528-3.822-0.793-5.439-0.793c-3.167,0-5.597,0.959-7.286,2.876
		c-1.687,1.919-2.535,5.043-2.535,9.374C552,133.558,552.756,136.461,554.271,138.221z"/>
	<path fill="#FFFFFF" d="M581.199,107.757c-0.424-0.424-0.634-0.95-0.634-1.584c0-0.599,0.21-1.108,0.634-1.531
		c0.421-0.424,0.949-0.633,1.583-0.633c0.563,0,1.063,0.209,1.504,0.633c0.438,0.423,0.66,0.933,0.66,1.531
		c0,0.634-0.211,1.161-0.632,1.584c-0.424,0.423-0.935,0.634-1.532,0.634C582.149,108.391,581.619,108.178,581.199,107.757z
		 M581.302,115.148h2.854v27.455h-2.854V115.148z"/>
	<path fill="#FFFFFF" d="M614.356,115.148l-9.926,27.455h-2.956l-9.928-27.455h3.223l8.184,24.763l8.234-24.763H614.356z"/>
	<path fill="#FFFFFF" d="M639.224,129.19l-16.631,0.056c0.034,4.224,0.861,7.199,2.481,8.921c1.62,1.726,3.767,2.59,6.441,2.59
		c1.196,0,2.331-0.133,3.405-0.396s2.351-0.64,3.828-1.134l0.475,2.27c-1.725,0.667-3.141,1.152-4.249,1.449
		c-1.108,0.301-2.314,0.449-3.616,0.449c-3.519,0-6.347-1.168-8.476-3.51c-2.128-2.34-3.192-5.976-3.192-10.903
		c0-4.857,1.021-8.42,3.063-10.691c2.039-2.27,4.77-3.407,8.182-3.407c3.096,0,5.298,0.871,6.6,2.613
		c1.305,1.742,1.953,4.183,1.953,7.312C639.489,126.253,639.401,127.715,639.224,129.19z M622.645,127.027l13.993-0.208
		c0.104-0.848,0.158-1.763,0.158-2.746c0-2.183-0.475-3.863-1.426-5.042c-0.95-1.18-2.499-1.77-4.646-1.77
		C625.76,117.26,623.068,120.516,622.645,127.027z"/>
	<path fill="#FFFFFF" d="M661.454,117.681c-1.973,0.036-3.82,0.353-5.545,0.951c-1.726,0.6-3.221,1.406-4.488,2.429v21.543h-2.852
		v-27.456h2.852v3.59c1.233-1.057,2.754-1.945,4.567-2.666c1.812-0.72,3.704-1.118,5.676-1.188L661.454,117.681z"/>
	<path fill="#FFFFFF" d="M667.156,136.058c0.915,1.304,2.251,2.35,4.011,3.14c1.762,0.794,3.504,1.188,5.228,1.188
		c1.864,0,3.431-0.501,4.698-1.504c1.266-1.004,1.901-2.333,1.901-3.988c0-1.124-0.344-2.04-1.031-2.744
		c-0.686-0.704-1.525-1.241-2.507-1.61c-0.986-0.369-2.342-0.784-4.065-1.242c-1.864-0.457-3.368-0.905-4.514-1.348
		c-1.143-0.438-2.112-1.098-2.903-1.979c-0.794-0.88-1.188-2.039-1.188-3.484c0-1.548,0.437-2.896,1.317-4.04
		c0.88-1.143,2.05-2.024,3.511-2.639c1.461-0.617,3.019-0.925,4.673-0.925c3.062,0,5.807,1.003,8.234,3.008l-1.003,1.953
		c-1.021-0.739-2.145-1.311-3.378-1.716c-1.23-0.404-2.481-0.607-3.746-0.607c-1.938,0-3.584,0.448-4.938,1.347
		c-1.354,0.896-2.032,2.05-2.032,3.46c0,0.879,0.29,1.592,0.87,2.137c0.58,0.547,1.309,0.959,2.191,1.24
		c0.879,0.284,2.093,0.617,3.643,1.004c2.041,0.494,3.695,0.978,4.965,1.451c1.267,0.474,2.349,1.231,3.245,2.268
		c0.897,1.04,1.349,2.438,1.349,4.198c0,2.569-0.872,4.61-2.615,6.125c-1.742,1.513-3.968,2.27-6.677,2.27
		c-2.042,0-4.057-0.438-6.046-1.319s-3.563-2.133-4.727-3.749L667.156,136.058z"/>
	<path fill="#FFFFFF" d="M693.767,107.757c-0.424-0.424-0.634-0.95-0.634-1.584c0-0.599,0.21-1.108,0.634-1.531
		c0.423-0.424,0.949-0.633,1.583-0.633c0.563,0,1.065,0.209,1.506,0.633c0.437,0.423,0.66,0.933,0.66,1.531
		c0,0.634-0.211,1.161-0.634,1.584c-0.424,0.423-0.933,0.634-1.532,0.634C694.716,108.391,694.188,108.178,693.767,107.757z
		 M693.869,115.148h2.854v27.455h-2.854V115.148z"/>
	<path fill="#FFFFFF" d="M720.325,142.604c-1.409,0.212-2.713,0.317-3.91,0.317c-2.217,0-3.959-0.396-5.227-1.188
		c-1.266-0.794-2.166-1.981-2.69-3.564c-0.528-1.583-0.795-3.658-0.795-6.23v-14.573h-3.167v-2.217h3.167v-6.971h2.692v6.971h7.973
		v2.217h-7.973v14.627c0,2.148,0.21,3.846,0.634,5.097c0.423,1.25,1.117,2.146,2.085,2.691c0.969,0.546,2.279,0.816,3.934,0.816
		c0.846,0,1.796-0.052,2.852-0.157L720.325,142.604z"/>
	<path fill="#FFFFFF" d="M744.927,115.148l-13.146,38.017h-2.905l3.644-10.562l-9.507-27.455h3.115l7.814,23.864l8.079-23.864
		H744.927z"/>
	<path fill="#FFFFFF" d="M109.437,157.257c-0.422-0.424-0.634-0.95-0.634-1.584c0-0.598,0.212-1.109,0.634-1.531
		c0.422-0.424,0.95-0.634,1.584-0.634c0.563,0,1.065,0.21,1.506,0.634c0.438,0.422,0.659,0.934,0.659,1.531
		c0,0.634-0.212,1.162-0.634,1.584s-0.933,0.633-1.531,0.633C110.387,157.89,109.858,157.678,109.437,157.257z M109.543,164.648
		h2.851v27.455h-2.851V164.648z"/>
	<path fill="#FFFFFF" d="M140.906,165.281c1.125,0.6,1.952,1.621,2.481,3.063c0.529,1.443,0.792,3.415,0.792,5.913v17.848h-2.851
		v-17.215c0-2.112-0.178-3.703-0.526-4.778c-0.353-1.074-0.917-1.822-1.69-2.243c-0.774-0.423-1.883-0.634-3.326-0.634
		c-1.479,0-2.976,0.211-4.488,0.634c-1.514,0.421-3.168,1.108-4.963,2.059v22.176h-2.851v-27.455h2.851v3.221
		c1.619-1.161,3.221-2.032,4.805-2.612c1.583-0.58,3.345-0.872,5.28-0.872C138.282,164.385,139.778,164.685,140.906,165.281z"/>
	<path fill="#FFFFFF" d="M181.349,192.104c-1.406,0.212-2.71,0.317-3.906,0.317c-2.218,0-3.96-0.396-5.228-1.188
		c-1.268-0.794-2.164-1.981-2.693-3.564c-0.526-1.583-0.791-3.658-0.791-6.23v-14.575h-3.168v-2.215h3.168v-6.971h2.692v6.971h7.974
		v2.218h-7.974v14.624c0,2.148,0.21,3.846,0.634,5.098c0.423,1.249,1.117,2.145,2.085,2.69c0.969,0.546,2.28,0.818,3.935,0.818
		c0.844,0,1.795-0.054,2.851-0.159L181.349,192.104z"/>
	<path fill="#FFFFFF" d="M205.373,165.281c1.127,0.6,1.954,1.621,2.483,3.063c0.526,1.443,0.792,3.415,0.792,5.913v17.848h-2.852
		v-17.215c0-2.112-0.177-3.703-0.528-4.778c-0.353-1.074-0.916-1.822-1.689-2.243c-0.774-0.423-1.884-0.634-3.325-0.634
		c-1.443,0-2.913,0.211-4.409,0.634c-1.495,0.421-3.142,1.092-4.937,2.007v22.228h-2.798v-42.24h2.798v17.952
		c1.583-1.126,3.159-1.979,4.726-2.561c1.566-0.579,3.317-0.87,5.254-0.87C202.75,164.385,204.246,164.685,205.373,165.281z"/>
	<path fill="#FFFFFF" d="M237.212,178.69l-16.633,0.056c0.035,4.224,0.863,7.199,2.481,8.921c1.621,1.726,3.769,2.59,6.442,2.59
		c1.195,0,2.332-0.133,3.405-0.396c1.075-0.264,2.35-0.64,3.828-1.134l0.476,2.27c-1.726,0.667-3.141,1.152-4.251,1.449
		c-1.108,0.301-2.313,0.449-3.617,0.449c-3.518,0-6.344-1.168-8.472-3.51c-2.132-2.34-3.195-5.976-3.195-10.903
		c0-4.857,1.021-8.421,3.062-10.691c2.039-2.27,4.769-3.408,8.183-3.408c3.097,0,5.297,0.873,6.6,2.615
		c1.305,1.742,1.954,4.181,1.954,7.311C237.476,175.754,237.388,177.215,237.212,178.69z M220.632,176.527l13.994-0.208
		c0.105-0.847,0.158-1.762,0.158-2.746c0-2.183-0.476-3.863-1.426-5.042c-0.951-1.18-2.5-1.769-4.646-1.769
		C223.747,166.761,221.056,170.016,220.632,176.527z"/>
	<path fill="#FFFFFF" d="M291.384,164.648l-7.287,27.455h-2.956l-7.181-21.119l-7.234,21.119h-2.956l-7.286-27.455h3.168
		l5.753,24.024l7.182-21.649h2.692l7.18,21.649l5.755-24.024H291.384z"/>
	<path fill="#FFFFFF" d="M299.462,189.438c-1.832-2.235-2.746-5.869-2.746-10.902c0-4.964,0.924-8.562,2.773-10.798
		c1.848-2.234,4.726-3.354,8.633-3.354c3.906,0,6.784,1.119,8.633,3.354c1.85,2.236,2.773,5.817,2.773,10.746
		c0,4.999-0.933,8.633-2.799,10.903c-1.866,2.269-4.77,3.405-8.712,3.405C304.142,192.791,301.291,191.673,299.462,189.438z
		 M314.536,187.512c1.354-1.866,2.032-4.981,2.032-9.346c0-2.818-0.271-5.062-0.816-6.732c-0.547-1.674-1.418-2.877-2.613-3.616
		c-1.199-0.739-2.819-1.109-4.857-1.109c-2.112,0-3.795,0.395-5.043,1.188c-1.251,0.791-2.156,2.058-2.721,3.8
		c-0.563,1.743-0.845,4.058-0.845,6.943c0,2.887,0.281,5.175,0.845,6.864c0.564,1.689,1.437,2.913,2.613,3.669
		c1.18,0.758,2.753,1.135,4.726,1.135C310.953,190.309,313.181,189.375,314.536,187.512z"/>
	<path fill="#FFFFFF" d="M341.437,167.182c-1.971,0.034-3.82,0.352-5.544,0.949c-1.726,0.6-3.221,1.407-4.488,2.431v21.542h-2.851
		v-27.455h2.851v3.59c1.232-1.057,2.755-1.945,4.567-2.666c1.811-0.72,3.704-1.118,5.677-1.188L341.437,167.182z"/>
	<path fill="#FFFFFF" d="M348.512,149.863h2.798v42.24h-2.798V149.863z"/>
	<path fill="#FFFFFF" d="M381.353,191.363c-1.444,0.458-3.089,0.818-4.938,1.082c-1.848,0.264-3.458,0.396-4.83,0.396
		c-7.498,0-11.249-4.628-11.249-13.886c0-5.067,1.067-8.8,3.195-11.194c2.131-2.395,5.113-3.591,8.949-3.591
		c2.007,0,3.978,0.264,5.913,0.792v-15.101h2.906L381.353,191.363z M365.406,187.721c1.513,1.761,3.784,2.641,6.812,2.641
		c1.582,0,3.643-0.247,6.175-0.741v-22.069c-2.004-0.527-3.819-0.792-5.437-0.792c-3.168,0-5.597,0.96-7.286,2.876
		c-1.689,1.919-2.534,5.043-2.534,9.374C363.137,183.058,363.894,185.961,365.406,187.721z"/>
	<path fill="#FFFFFF" d="M405.956,157.257c-0.424-0.424-0.633-0.95-0.633-1.584c0-0.598,0.209-1.109,0.633-1.531
		c0.423-0.424,0.949-0.634,1.583-0.634c0.564,0,1.063,0.21,1.504,0.634c0.438,0.422,0.66,0.934,0.66,1.531
		c0,0.634-0.209,1.162-0.633,1.584c-0.423,0.422-0.935,0.633-1.531,0.633C406.906,157.89,406.379,157.678,405.956,157.257z
		 M406.063,164.648h2.852v27.455h-2.852V164.648z"/>
	<path fill="#FFFFFF" d="M432.515,192.104c-1.407,0.212-2.711,0.317-3.907,0.317c-2.22,0-3.962-0.396-5.228-1.188
		c-1.267-0.794-2.164-1.981-2.692-3.564c-0.526-1.583-0.792-3.658-0.792-6.23v-14.575h-3.168v-2.215h3.168v-6.971h2.693v6.971h7.971
		v2.218h-7.971v14.624c0,2.148,0.208,3.846,0.631,5.098c0.424,1.249,1.12,2.145,2.087,2.69s2.277,0.818,3.932,0.818
		c0.848,0,1.797-0.054,2.854-0.159L432.515,192.104z"/>
	<path fill="#FFFFFF" d="M452.787,157.257c-0.422-0.424-0.632-0.95-0.632-1.584c0-0.598,0.21-1.109,0.632-1.531
		c0.425-0.424,0.95-0.634,1.583-0.634c0.563,0,1.065,0.21,1.506,0.634c0.438,0.422,0.66,0.934,0.66,1.531
		c0,0.634-0.209,1.162-0.634,1.584c-0.422,0.422-0.933,0.633-1.532,0.633C453.74,157.89,453.212,157.678,452.787,157.257z
		 M452.895,164.648h2.851v27.455h-2.851V164.648z"/>
	<path fill="#FFFFFF" d="M465.461,185.558c0.915,1.304,2.252,2.35,4.013,3.14c1.76,0.794,3.502,1.188,5.228,1.188
		c1.862,0,3.43-0.501,4.697-1.504c1.268-1.004,1.902-2.333,1.902-3.988c0-1.124-0.344-2.04-1.031-2.744s-1.523-1.241-2.508-1.61
		s-2.341-0.784-4.064-1.242c-1.865-0.457-3.37-0.905-4.515-1.348c-1.145-0.438-2.111-1.098-2.904-1.979
		c-0.792-0.881-1.188-2.04-1.188-3.485c0-1.549,0.438-2.896,1.32-4.04c0.88-1.142,2.049-2.024,3.51-2.64
		c1.46-0.616,3.018-0.924,4.673-0.924c3.062,0,5.807,1.004,8.237,3.008l-1.004,1.953c-1.021-0.739-2.148-1.311-3.379-1.717
		c-1.233-0.403-2.481-0.606-3.748-0.606c-1.938,0-3.583,0.448-4.937,1.346c-1.355,0.897-2.033,2.051-2.033,3.461
		c0,0.879,0.291,1.593,0.872,2.136c0.579,0.548,1.31,0.961,2.189,1.242c0.881,0.283,2.094,0.616,3.644,1.003
		c2.039,0.494,3.694,0.978,4.963,1.451s2.351,1.231,3.248,2.268c0.896,1.04,1.347,2.438,1.347,4.198c0,2.569-0.871,4.61-2.614,6.125
		c-1.742,1.513-3.967,2.27-6.677,2.27c-2.041,0-4.058-0.438-6.046-1.319c-1.991-0.881-3.564-2.133-4.727-3.749L465.461,185.558z"/>
	<path fill="#FFFFFF" d="M523.224,165.281c1.126,0.6,1.955,1.621,2.481,3.063c0.528,1.443,0.793,3.415,0.793,5.913v17.848h-2.852
		v-17.215c0-2.112-0.176-3.703-0.526-4.778c-0.353-1.074-0.915-1.822-1.688-2.243c-0.775-0.423-1.884-0.634-3.326-0.634
		c-1.479,0-2.973,0.211-4.487,0.634c-1.513,0.421-3.167,1.108-4.966,2.059v22.176h-2.851v-27.455h2.851v3.221
		c1.622-1.161,3.223-2.032,4.807-2.612c1.583-0.58,3.343-0.872,5.278-0.872C520.603,164.385,522.098,164.685,523.224,165.281z"/>
	<path fill="#FFFFFF" d="M555.01,178.69l-16.634,0.056c0.037,4.224,0.864,7.199,2.484,8.921c1.617,1.726,3.764,2.59,6.44,2.59
		c1.197,0,2.329-0.133,3.405-0.396c1.074-0.264,2.351-0.64,3.826-1.134l0.478,2.27c-1.726,0.667-3.142,1.152-4.25,1.449
		c-1.11,0.301-2.315,0.449-3.618,0.449c-3.519,0-6.344-1.168-8.473-3.51c-2.132-2.34-3.195-5.976-3.195-10.903
		c0-4.857,1.022-8.421,3.062-10.691c2.041-2.27,4.77-3.408,8.184-3.408c3.098,0,5.298,0.873,6.6,2.615
		c1.303,1.742,1.955,4.181,1.955,7.311C555.274,175.754,555.186,177.215,555.01,178.69z M538.43,176.527l13.993-0.208
		c0.105-0.847,0.159-1.762,0.159-2.746c0-2.183-0.478-3.863-1.425-5.042c-0.951-1.18-2.501-1.769-4.649-1.769
		C541.545,166.761,538.854,170.016,538.43,176.527z"/>
	<path fill="#FFFFFF" d="M565.28,167.657c1.987-2.182,4.651-3.275,7.997-3.275c1.305,0,2.615,0.16,3.935,0.479
		c1.318,0.314,2.507,0.757,3.563,1.318l-0.688,2.166c-2.041-0.915-4.152-1.372-6.337-1.372c-2.884,0-5.042,0.86-6.467,2.587
		c-1.427,1.725-2.139,4.56-2.139,8.502c0,7.851,2.868,11.773,8.605,11.773c1.761,0,4.031-0.37,6.812-1.108l0.476,2.058
		c-2.853,1.127-5.351,1.691-7.497,1.691c-3.345,0-6.055-1.164-8.133-3.485c-2.079-2.322-3.115-5.949-3.115-10.878
		C562.295,173.324,563.287,169.839,565.28,167.657z"/>
	<path fill="#FFFFFF" d="M606.963,178.69l-16.631,0.056c0.034,4.224,0.861,7.199,2.481,8.921c1.62,1.726,3.769,2.59,6.441,2.59
		c1.196,0,2.331-0.133,3.405-0.396c1.076-0.264,2.35-0.64,3.828-1.134l0.475,2.27c-1.725,0.667-3.139,1.152-4.249,1.449
		c-1.109,0.301-2.314,0.449-3.616,0.449c-3.52,0-6.347-1.168-8.474-3.51c-2.13-2.34-3.194-5.976-3.194-10.903
		c0-4.857,1.021-8.421,3.063-10.691c2.039-2.27,4.77-3.408,8.182-3.408c3.096,0,5.298,0.873,6.6,2.615
		c1.304,1.742,1.953,4.181,1.953,7.311C607.228,175.754,607.14,177.215,606.963,178.69z M590.386,176.527l13.99-0.208
		c0.105-0.847,0.159-1.762,0.159-2.746c0-2.183-0.475-3.863-1.427-5.042c-0.949-1.18-2.497-1.769-4.645-1.769
		C593.501,166.761,590.807,170.016,590.386,176.527z"/>
	<path fill="#FFFFFF" d="M614.936,185.558c0.916,1.304,2.254,2.35,4.014,3.14c1.76,0.794,3.502,1.188,5.228,1.188
		c1.864,0,3.431-0.501,4.697-1.504c1.268-1.004,1.902-2.333,1.902-3.988c0-1.124-0.344-2.04-1.031-2.744s-1.523-1.241-2.507-1.61
		c-0.985-0.369-2.34-0.784-4.065-1.242c-1.864-0.457-3.371-0.905-4.515-1.348c-1.146-0.438-2.112-1.098-2.904-1.979
		c-0.791-0.881-1.188-2.04-1.188-3.485c0-1.549,0.44-2.896,1.321-4.04c0.879-1.142,2.049-2.024,3.509-2.64
		c1.461-0.616,3.019-0.924,4.673-0.924c3.062,0,5.807,1.004,8.236,3.008l-1.003,1.953c-1.022-0.739-2.148-1.311-3.38-1.717
		c-1.231-0.403-2.481-0.606-3.746-0.606c-1.938,0-3.583,0.448-4.938,1.346c-1.355,0.897-2.033,2.051-2.033,3.461
		c0,0.879,0.291,1.593,0.873,2.136c0.578,0.548,1.309,0.961,2.188,1.242c0.883,0.283,2.095,0.616,3.644,1.003
		c2.039,0.494,3.694,0.978,4.963,1.451s2.352,1.231,3.248,2.268c0.898,1.04,1.346,2.438,1.346,4.198c0,2.569-0.87,4.61-2.612,6.125
		c-1.742,1.513-3.969,2.27-6.678,2.27c-2.041,0-4.058-0.438-6.046-1.319c-1.991-0.881-3.564-2.133-4.725-3.749L614.936,185.558z"/>
	<path fill="#FFFFFF" d="M640.281,185.558c0.915,1.304,2.251,2.35,4.013,3.14c1.76,0.794,3.502,1.188,5.228,1.188
		c1.865,0,3.431-0.501,4.697-1.504c1.268-1.004,1.902-2.333,1.902-3.988c0-1.124-0.344-2.04-1.032-2.744
		c-0.685-0.704-1.522-1.241-2.506-1.61c-0.985-0.369-2.342-0.784-4.063-1.242c-1.867-0.457-3.371-0.905-4.517-1.348
		c-1.142-0.438-2.111-1.098-2.902-1.979c-0.793-0.881-1.188-2.04-1.188-3.485c0-1.549,0.438-2.896,1.318-4.04
		c0.879-1.142,2.049-2.024,3.51-2.64c1.46-0.616,3.018-0.924,4.672-0.924c3.063,0,5.81,1.004,8.237,3.008l-1.004,1.953
		c-1.021-0.739-2.146-1.311-3.378-1.717c-1.23-0.403-2.482-0.606-3.746-0.606c-1.938,0-3.585,0.448-4.937,1.346
		c-1.355,0.897-2.033,2.051-2.033,3.461c0,0.879,0.29,1.593,0.87,2.136c0.578,0.548,1.309,0.961,2.19,1.242
		c0.88,0.283,2.094,0.616,3.644,1.003c2.039,0.494,3.693,0.978,4.963,1.451s2.351,1.231,3.247,2.268
		c0.897,1.04,1.349,2.438,1.349,4.198c0,2.569-0.874,4.61-2.616,6.125c-1.743,1.513-3.967,2.27-6.676,2.27
		c-2.043,0-4.059-0.438-6.046-1.319c-1.991-0.881-3.563-2.133-4.727-3.749L640.281,185.558z"/>
	<path fill="#FFFFFF" d="M680.198,165.281c1.232,0.6,2.146,1.628,2.745,3.091c0.6,1.461,0.898,3.476,0.898,6.046v17.688h-2.537
		v-3.695c-2.604,2.712-5.614,4.065-9.028,4.065c-2.745,0-4.77-0.72-6.071-2.167c-1.307-1.442-1.955-3.275-1.955-5.49
		c0-2.534,0.773-4.488,2.324-5.861c1.545-1.373,3.818-2.076,6.809-2.111h7.655v-0.686c0-2.462-0.185-4.347-0.555-5.651
		c-0.369-1.304-1.003-2.219-1.899-2.745c-0.897-0.526-2.176-0.791-3.828-0.791c-2.322,0-5.139,0.476-8.447,1.424l-0.583-2.006
		c1.654-0.666,3.249-1.168,4.78-1.504c1.532-0.336,3.124-0.502,4.78-0.502C677.329,164.385,678.966,164.685,680.198,165.281z
		 M668.529,188.487c0.984,0.935,2.357,1.398,4.117,1.398c1.338,0,2.728-0.308,4.17-0.926c1.443-0.614,2.853-1.451,4.226-2.506
		v-7.287h-7.814c-2.219,0-3.801,0.511-4.753,1.532c-0.948,1.023-1.424,2.322-1.424,3.908
		C667.051,186.26,667.543,187.555,668.529,188.487z"/>
	<path fill="#FFFFFF" d="M707.811,167.182c-1.97,0.034-3.822,0.352-5.543,0.949c-1.725,0.6-3.223,1.407-4.488,2.431v21.542h-2.851
		v-27.455h2.851v3.59c1.231-1.057,2.755-1.945,4.565-2.666c1.812-0.72,3.704-1.118,5.677-1.188L707.811,167.182z"/>
	<path fill="#FFFFFF" d="M732.732,164.648l-13.148,38.017h-2.902l3.643-10.562l-9.506-27.455h3.115l7.815,23.864l8.078-23.864
		H732.732z"/>
	<path fill="#FFFFFF" d="M139.243,241.604c-1.408,0.212-2.713,0.318-3.909,0.318c-2.218,0-3.96-0.397-5.228-1.188
		c-1.266-0.794-2.164-1.981-2.69-3.564c-0.529-1.583-0.794-3.658-0.794-6.23v-14.575h-3.168v-2.217h3.168v-6.97h2.692v6.97h7.974
		v2.217h-7.974v14.627c0,2.148,0.212,3.846,0.634,5.098c0.423,1.249,1.117,2.145,2.086,2.69c0.968,0.546,2.279,0.818,3.934,0.818
		c0.847,0,1.795-0.054,2.851-0.159L139.243,241.604z"/>
	<path fill="#FFFFFF" d="M146.688,238.938c-1.832-2.235-2.746-5.869-2.746-10.902c0-4.964,0.924-8.562,2.773-10.798
		c1.848-2.234,4.726-3.354,8.633-3.354s6.784,1.119,8.632,3.354c1.851,2.236,2.774,5.817,2.774,10.746
		c0,4.999-0.935,8.633-2.799,10.903c-1.866,2.269-4.77,3.405-8.712,3.405C151.367,242.291,148.518,241.173,146.688,238.938z
		 M161.762,237.012c1.353-1.866,2.032-4.981,2.032-9.346c0-2.818-0.272-5.062-0.818-6.732c-0.547-1.674-1.418-2.877-2.613-3.616
		c-1.197-0.739-2.817-1.109-4.858-1.109c-2.111,0-3.792,0.395-5.042,1.188c-1.249,0.791-2.156,2.058-2.719,3.8
		c-0.562,1.743-0.845,4.058-0.845,6.943c0,2.887,0.282,5.175,0.845,6.864s1.434,2.913,2.613,3.669
		c1.18,0.758,2.754,1.135,4.726,1.135C158.179,239.809,160.406,238.875,161.762,237.012z"/>
	<path fill="#FFFFFF" d="M202.284,216.682c-1.971,0.034-3.819,0.352-5.544,0.949c-1.725,0.6-3.221,1.407-4.488,2.431v21.542h-2.851
		v-27.457h2.851v3.59c1.232-1.055,2.755-1.944,4.568-2.666c1.81-0.72,3.703-1.117,5.676-1.188L202.284,216.682z"/>
	<path fill="#FFFFFF" d="M226.837,228.19l-16.632,0.056c0.034,4.224,0.862,7.199,2.481,8.921c1.618,1.726,3.766,2.59,6.441,2.59
		c1.196,0,2.33-0.133,3.405-0.396c1.073-0.262,2.35-0.64,3.826-1.134l0.478,2.27c-1.726,0.667-3.143,1.152-4.251,1.449
		c-1.108,0.301-2.314,0.449-3.617,0.449c-3.52,0-6.344-1.168-8.474-3.51c-2.13-2.34-3.195-5.976-3.195-10.903
		c0-4.857,1.022-8.421,3.062-10.691c2.041-2.27,4.769-3.408,8.185-3.408c3.095,0,5.295,0.873,6.601,2.615
		c1.302,1.742,1.951,4.181,1.951,7.311C227.099,225.254,227.013,226.715,226.837,228.19z M210.257,226.027l13.992-0.208
		c0.107-0.847,0.16-1.762,0.16-2.746c0-2.183-0.478-3.863-1.426-5.042c-0.95-1.18-2.5-1.769-4.648-1.769
		C213.372,216.261,210.68,219.516,210.257,226.027z"/>
	<path fill="#FFFFFF" d="M237.107,217.157c1.988-2.182,4.652-3.275,7.997-3.275c1.305,0,2.614,0.16,3.935,0.479
		c1.319,0.314,2.508,0.757,3.563,1.318l-0.687,2.166c-2.042-0.915-4.153-1.372-6.335-1.372c-2.887,0-5.043,0.86-6.47,2.587
		c-1.426,1.725-2.138,4.56-2.138,8.502c0,7.851,2.867,11.773,8.607,11.773c1.759,0,4.03-0.37,6.81-1.108l0.477,2.058
		c-2.854,1.127-5.352,1.691-7.498,1.691c-3.345,0-6.055-1.164-8.131-3.485c-2.08-2.322-3.115-5.946-3.115-10.878
		C234.123,222.824,235.117,219.339,237.107,217.157z"/>
	<path fill="#FFFFFF" d="M262.001,238.938c-1.831-2.235-2.745-5.869-2.745-10.902c0-4.964,0.924-8.562,2.771-10.798
		c1.85-2.234,4.728-3.354,8.635-3.354c3.906,0,6.784,1.119,8.632,3.354c1.849,2.236,2.773,5.817,2.773,10.746
		c0,4.999-0.935,8.633-2.798,10.903c-1.866,2.269-4.77,3.405-8.713,3.405C266.682,242.291,263.831,241.173,262.001,238.938z
		 M277.076,237.012c1.353-1.866,2.032-4.981,2.032-9.346c0-2.818-0.273-5.062-0.818-6.732c-0.547-1.674-1.418-2.877-2.614-3.616
		s-2.816-1.109-4.857-1.109c-2.111,0-3.792,0.395-5.042,1.188c-1.25,0.791-2.156,2.058-2.719,3.8
		c-0.563,1.743-0.845,4.058-0.845,6.943c0,2.887,0.281,5.175,0.845,6.864c0.562,1.689,1.434,2.913,2.613,3.669
		c1.18,0.758,2.753,1.135,4.726,1.135C273.493,239.809,275.719,238.875,277.076,237.012z"/>
	<path fill="#FFFFFF" d="M305.428,214.148c1.533,0.247,2.966,0.579,4.304,1.003v26.293c0,4.047-0.827,6.898-2.481,8.553
		c-1.654,1.652-4.119,2.481-7.393,2.481c-1.83,0-3.528-0.309-5.095-0.924c-1.566-0.618-3.124-1.506-4.673-2.666l1.004-1.69
		c1.372,0.949,2.815,1.663,4.329,2.138c1.512,0.477,2.851,0.711,4.013,0.711c2.498,0,4.373-0.598,5.621-1.794
		c1.252-1.196,1.875-3.326,1.875-6.391v-2.164c-2.358,1.688-4.927,2.534-7.709,2.534c-3.098,0-5.604-1.101-7.523-3.301
		c-1.919-2.199-2.878-5.709-2.878-10.532c0-5.141,1.119-8.861,3.353-11.168c2.235-2.303,5.254-3.458,9.056-3.458
		C302.496,213.778,303.897,213.902,305.428,214.148z M303.475,239.121c1.32-0.421,2.473-0.934,3.458-1.533v-20.539
		c-1.936-0.455-3.73-0.686-5.385-0.686c-3.309,0-5.792,0.87-7.446,2.613c-1.654,1.742-2.481,4.727-2.481,8.951
		c0,4.154,0.738,7.164,2.219,9.03c1.479,1.863,3.43,2.797,5.859,2.797C300.897,239.757,302.155,239.545,303.475,239.121z"/>
	<path fill="#FFFFFF" d="M338.243,214.781c1.127,0.6,1.954,1.621,2.483,3.063c0.526,1.443,0.792,3.415,0.792,5.913v17.848h-2.852
		v-17.215c0-2.112-0.177-3.703-0.528-4.778c-0.353-1.074-0.916-1.822-1.689-2.243c-0.774-0.423-1.884-0.634-3.325-0.634
		c-1.48,0-2.976,0.211-4.488,0.634c-1.513,0.421-3.167,1.108-4.965,2.059v22.176h-2.851v-27.455h2.851v3.221
		c1.621-1.162,3.223-2.033,4.806-2.614c1.584-0.579,3.344-0.87,5.279-0.87C335.62,213.885,337.116,214.185,338.243,214.781z"/>
	<path fill="#FFFFFF" d="M352.447,206.757c-0.422-0.424-0.634-0.95-0.634-1.584c0-0.598,0.212-1.109,0.634-1.531
		c0.422-0.424,0.95-0.633,1.584-0.633c0.563,0,1.065,0.209,1.506,0.633c0.438,0.422,0.659,0.934,0.659,1.531
		c0,0.634-0.212,1.162-0.634,1.584s-0.933,0.633-1.531,0.633C353.397,207.39,352.867,207.178,352.447,206.757z M352.553,214.148
		h2.851v27.455h-2.851V214.148z"/>
	<path fill="#FFFFFF" d="M383.23,239.018v2.588h-19.643V238.7l15.576-22.019h-14.942v-2.535h17.793v2.641l-15.521,22.228h16.737
		L383.23,239.018L383.23,239.018z"/>
	<path fill="#FFFFFF" d="M408.888,228.19l-16.631,0.056c0.034,4.224,0.862,7.199,2.481,8.921c1.619,1.726,3.767,2.59,6.438,2.59
		c1.199,0,2.333-0.133,3.409-0.396c1.073-0.262,2.349-0.64,3.826-1.134l0.478,2.27c-1.725,0.667-3.142,1.152-4.25,1.449
		c-1.108,0.301-2.315,0.449-3.617,0.449c-3.521,0-6.347-1.168-8.475-3.51c-2.129-2.34-3.192-5.976-3.192-10.903
		c0-4.857,1.021-8.421,3.061-10.691c2.041-2.27,4.769-3.408,8.185-3.408c3.095,0,5.295,0.873,6.6,2.615
		c1.302,1.742,1.951,4.181,1.951,7.311C409.151,225.254,409.062,226.715,408.888,228.19z M392.31,226.027l13.991-0.208
		c0.105-0.847,0.161-1.762,0.161-2.746c0-2.183-0.477-3.863-1.429-5.042c-0.947-1.18-2.497-1.769-4.645-1.769
		C395.425,216.261,392.732,219.516,392.31,226.027z"/>
	<path fill="#FFFFFF" d="M431.748,206.757c-0.422-0.424-0.63-0.95-0.63-1.584c0-0.598,0.208-1.109,0.63-1.531
		c0.425-0.424,0.951-0.633,1.585-0.633c0.562,0,1.063,0.209,1.504,0.633c0.438,0.422,0.66,0.934,0.66,1.531
		c0,0.634-0.209,1.162-0.634,1.584c-0.422,0.422-0.934,0.633-1.53,0.633C432.701,207.39,432.173,207.178,431.748,206.757z
		 M431.857,214.148h2.852v27.455h-2.852V214.148z"/>
	<path fill="#FFFFFF" d="M458.309,241.604c-1.407,0.212-2.71,0.318-3.908,0.318c-2.218,0-3.961-0.397-5.228-1.188
		c-1.265-0.794-2.165-1.981-2.691-3.564c-0.527-1.583-0.793-3.658-0.793-6.23v-14.575h-3.169v-2.217h3.169v-6.97h2.692v6.97h7.973
		v2.217h-7.973v14.627c0,2.148,0.21,3.846,0.634,5.098c0.422,1.249,1.117,2.145,2.086,2.69s2.277,0.818,3.933,0.818
		c0.848,0,1.797-0.054,2.854-0.159L458.309,241.604z"/>
	<path fill="#FFFFFF" d="M463.693,235.058c0.914,1.304,2.254,2.35,4.013,3.14c1.759,0.794,3.502,1.188,5.227,1.188
		c1.866,0,3.433-0.501,4.697-1.504c1.268-1.004,1.903-2.334,1.903-3.988c0-1.124-0.344-2.04-1.033-2.745
		c-0.685-0.703-1.521-1.24-2.505-1.609c-0.986-0.369-2.342-0.784-4.065-1.242c-1.866-0.457-3.37-0.905-4.516-1.348
		c-1.143-0.438-2.112-1.098-2.903-1.979c-0.793-0.881-1.188-2.04-1.188-3.485c0-1.549,0.438-2.896,1.318-4.039
		c0.88-1.143,2.05-2.025,3.512-2.641c1.458-0.616,3.016-0.924,4.673-0.924c3.061,0,5.807,1.004,8.234,3.008l-1.004,1.953
		c-1.021-0.739-2.145-1.311-3.376-1.717c-1.232-0.403-2.481-0.606-3.749-0.606c-1.937,0-3.582,0.448-4.936,1.346
		s-2.034,2.051-2.034,3.461c0,0.879,0.291,1.593,0.871,2.136c0.578,0.548,1.309,0.961,2.191,1.242
		c0.879,0.283,2.092,0.616,3.643,1.003c2.041,0.494,3.695,0.978,4.963,1.451c1.27,0.474,2.352,1.231,3.247,2.268
		c0.897,1.04,1.349,2.438,1.349,4.198c0,2.569-0.871,4.61-2.613,6.125c-1.743,1.513-3.97,2.27-6.68,2.27
		c-2.042,0-4.058-0.438-6.046-1.321c-1.99-0.879-3.562-2.131-4.726-3.747L463.693,235.058z"/>
	<path fill="#FFFFFF" d="M504.033,199.363h2.798v42.24h-2.798V199.363z"/>
	<path fill="#FFFFFF" d="M531.117,214.781c1.23,0.6,2.146,1.628,2.745,3.091c0.598,1.461,0.896,3.476,0.896,6.046v17.688h-2.535
		v-3.695c-2.604,2.712-5.614,4.065-9.03,4.065c-2.743,0-4.77-0.72-6.071-2.166c-1.302-1.443-1.953-3.276-1.953-5.491
		c0-2.534,0.773-4.488,2.322-5.861s3.82-2.076,6.811-2.111h7.657v-0.686c0-2.462-0.185-4.347-0.555-5.65
		c-0.369-1.305-1.003-2.22-1.902-2.746c-0.896-0.526-2.174-0.791-3.826-0.791c-2.322,0-5.14,0.476-8.449,1.424l-0.578-2.006
		c1.654-0.666,3.245-1.168,4.778-1.504c1.531-0.335,3.123-0.502,4.777-0.502C528.249,213.885,529.886,214.185,531.117,214.781z
		 M519.448,237.987c0.985,0.935,2.359,1.398,4.119,1.398c1.338,0,2.727-0.308,4.172-0.926c1.441-0.614,2.852-1.451,4.224-2.506
		v-7.287h-7.814c-2.217,0-3.803,0.511-4.75,1.532c-0.952,1.023-1.427,2.322-1.427,3.908
		C517.971,235.76,518.463,237.055,519.448,237.987z"/>
	<path fill="#FFFFFF" d="M563.273,214.781c1.126,0.6,1.955,1.621,2.481,3.063c0.528,1.443,0.793,3.415,0.793,5.913v17.848h-2.852
		v-17.215c0-2.112-0.176-3.703-0.526-4.778c-0.352-1.074-0.915-1.822-1.688-2.243c-0.775-0.423-1.884-0.634-3.328-0.634
		c-1.478,0-2.973,0.211-4.487,0.634c-1.513,0.421-3.167,1.108-4.963,2.059v22.176h-2.852v-27.455h2.852v3.221
		c1.619-1.162,3.22-2.033,4.806-2.614c1.581-0.579,3.343-0.87,5.278-0.87C560.652,213.885,562.145,214.185,563.273,214.781z"/>
	<path fill="#FFFFFF" d="M591.918,214.148c1.529,0.247,2.965,0.579,4.303,1.003v26.293c0,4.047-0.829,6.898-2.483,8.553
		c-1.654,1.652-4.116,2.481-7.393,2.481c-1.828,0-3.53-0.309-5.097-0.924c-1.565-0.618-3.123-1.506-4.673-2.666l1.004-1.69
		c1.373,0.949,2.818,1.663,4.331,2.138c1.515,0.477,2.854,0.711,4.011,0.711c2.499,0,4.377-0.598,5.625-1.794
		s1.873-3.326,1.873-6.391v-2.164c-2.36,1.688-4.928,2.534-7.71,2.534c-3.097,0-5.605-1.101-7.524-3.301
		c-1.918-2.199-2.879-5.709-2.879-10.532c0-5.141,1.119-8.861,3.356-11.168c2.231-2.303,5.25-3.458,9.053-3.458
		C588.988,213.778,590.386,213.902,591.918,214.148z M589.962,239.121c1.321-0.421,2.473-0.934,3.461-1.533v-20.539
		c-1.938-0.455-3.734-0.686-5.387-0.686c-3.309,0-5.79,0.87-7.444,2.613c-1.654,1.742-2.481,4.727-2.481,8.951
		c0,4.154,0.739,7.164,2.218,9.03c1.478,1.863,3.433,2.797,5.86,2.797C587.385,239.757,588.644,239.545,589.962,239.121z"/>
	<path fill="#FFFFFF" d="M626.949,214.148v27.455h-2.854v-2.852c-1.478,1.023-2.947,1.797-4.408,2.321
		c-1.461,0.528-3.003,0.794-4.619,0.794c-1.867,0-3.362-0.307-4.488-0.924c-1.127-0.616-1.952-1.646-2.481-3.091
		c-0.527-1.442-0.793-3.414-0.793-5.913v-17.793h2.905v17.317c0,2.112,0.176,3.715,0.527,4.807c0.349,1.09,0.915,1.849,1.688,2.268
		c0.773,0.421,1.864,0.634,3.276,0.634c2.288,0,5.085-0.862,8.394-2.587v-22.44h2.854V214.148z"/>
	<path fill="#FFFFFF" d="M651.237,214.781c1.232,0.6,2.146,1.628,2.745,3.091c0.6,1.461,0.898,3.476,0.898,6.046v17.688h-2.537
		v-3.695c-2.603,2.712-5.614,4.065-9.028,4.065c-2.743,0-4.77-0.72-6.071-2.166c-1.307-1.443-1.955-3.276-1.955-5.491
		c0-2.534,0.773-4.488,2.324-5.861c1.547-1.373,3.818-2.076,6.809-2.111h7.655v-0.686c0-2.462-0.185-4.347-0.555-5.65
		c-0.369-1.305-1.003-2.22-1.899-2.746c-0.897-0.526-2.174-0.791-3.828-0.791c-2.32,0-5.139,0.476-8.447,1.424l-0.583-2.006
		c1.654-0.666,3.249-1.168,4.783-1.504c1.529-0.335,3.121-0.502,4.777-0.502C648.368,213.885,650.003,214.185,651.237,214.781z
		 M639.568,237.987c0.984,0.935,2.357,1.398,4.119,1.398c1.336,0,2.727-0.308,4.17-0.926c1.442-0.614,2.851-1.451,4.224-2.506
		v-7.287h-7.814c-2.218,0-3.801,0.511-4.752,1.532c-0.948,1.023-1.425,2.322-1.425,3.908
		C638.088,235.76,638.582,237.055,639.568,237.987z"/>
	<path fill="#FFFFFF" d="M680.3,214.148c1.534,0.247,2.965,0.579,4.304,1.003v26.293c0,4.047-0.827,6.898-2.481,8.553
		c-1.654,1.652-4.119,2.481-7.393,2.481c-1.831,0-3.528-0.309-5.095-0.924c-1.568-0.618-3.126-1.506-4.673-2.666l1.002-1.69
		c1.372,0.949,2.816,1.663,4.331,2.138c1.513,0.477,2.851,0.711,4.011,0.711c2.499,0,4.374-0.598,5.623-1.794
		c1.248-1.196,1.875-3.326,1.875-6.391v-2.164c-2.358,1.688-4.926,2.534-7.711,2.534c-3.096,0-5.604-1.101-7.523-3.301
		c-1.919-2.199-2.877-5.709-2.877-10.532c0-5.141,1.117-8.861,3.354-11.168c2.234-2.303,5.253-3.458,9.054-3.458
		C677.369,213.778,678.771,213.902,680.3,214.148z M678.35,239.121c1.318-0.421,2.473-0.934,3.459-1.533v-20.539
		c-1.938-0.455-3.732-0.686-5.386-0.686c-3.31,0-5.794,0.87-7.446,2.613c-1.656,1.742-2.483,4.727-2.483,8.951
		c0,4.154,0.741,7.164,2.221,9.03c1.479,1.863,3.43,2.797,5.859,2.797C675.767,239.757,677.029,239.545,678.35,239.121z"/>
	<path fill="#FFFFFF" d="M713.167,228.19l-16.629,0.056c0.032,4.224,0.859,7.199,2.481,8.921c1.617,1.726,3.766,2.59,6.438,2.59
		c1.197,0,2.331-0.133,3.407-0.396c1.074-0.262,2.351-0.64,3.827-1.134l0.475,2.27c-1.724,0.667-3.139,1.152-4.248,1.449
		c-1.108,0.301-2.314,0.449-3.615,0.449c-3.521,0-6.349-1.168-8.476-3.51c-2.129-2.34-3.195-5.976-3.195-10.903
		c0-4.857,1.021-8.421,3.064-10.691c2.041-2.27,4.77-3.408,8.183-3.408c3.094,0,5.296,0.873,6.601,2.615
		c1.302,1.742,1.95,4.181,1.95,7.311C713.434,225.254,713.344,226.715,713.167,228.19z M696.592,226.027l13.99-0.208
		c0.105-0.847,0.159-1.762,0.159-2.746c0-2.183-0.475-3.863-1.427-5.042c-0.947-1.18-2.497-1.769-4.645-1.769
		C699.707,216.261,697.013,219.516,696.592,226.027z"/>
</g>
</svg>
