<?xml version="1.0" encoding="utf-8"?>
<!-- Generator: Adobe Illustrator 15.1.0, SVG Export Plug-In . SVG Version: 6.00 Build 0)  -->
<!DOCTYPE svg PUBLIC "-//W3C//DTD SVG 1.1//EN" "http://www.w3.org/Graphics/SVG/1.1/DTD/svg11.dtd">
<svg version="1.1" id="Abre" xmlns="http://www.w3.org/2000/svg" xmlns:xlink="http://www.w3.org/1999/xlink" x="0px" y="0px"
	 width="800px" height="300px" viewBox="0 0 800 300" enable-background="new 0 0 800 300" xml:space="preserve">
<g>
	<g>
		<path fill="#EC1C24" d="M371.129,33.104v17.542h-3.785V39.572l-10.998,10.997c2.022,2.601,3.12,5.778,3.12,9.127
			c0,3.984-1.553,7.733-4.371,10.547c-2.82,2.819-6.562,4.371-10.545,4.371c-3.499,0-6.813-1.197-9.479-3.395
			c-2.177,1.796-4.787,2.924-7.572,3.274v7.489h8.636v3.786h-8.636v8.638h-3.79v-8.638h-8.636v-3.786h8.636v-7.489
			c-3.271-0.412-6.29-1.885-8.658-4.251c-2.812-2.812-4.364-6.562-4.364-10.547c0-3.983,1.553-7.726,4.364-10.543
			c2.816-2.816,6.566-4.369,10.553-4.369c3.497,0,6.811,1.196,9.472,3.396c2.665-2.198,5.979-3.396,9.479-3.396
			c3.342,0,6.515,1.093,9.116,3.109l10.994-10.999H353.38v-3.79L371.129,33.104L371.129,33.104z M325.6,70.826
			c2.589,0,4.974-0.889,6.864-2.377c-1.838-2.528-2.831-5.562-2.831-8.754c0-3.188,0.993-6.223,2.833-8.75
			c-1.896-1.488-4.277-2.377-6.866-2.377c-6.138,0-11.127,4.992-11.127,11.127C314.473,65.828,319.462,70.826,325.6,70.826z
			 M336.727,59.696c0-2.136-0.604-4.132-1.652-5.83c-1.048,1.698-1.648,3.694-1.648,5.83c0,2.135,0.604,4.133,1.648,5.829
			C336.121,63.829,336.727,61.831,336.727,59.696z M344.55,70.828c6.136,0,11.125-5,11.125-11.132
			c0-6.136-4.989-11.127-11.125-11.127c-2.591,0-4.979,0.89-6.87,2.378c1.843,2.527,2.835,5.562,2.835,8.748
			c0,3.188-0.992,6.224-2.832,8.751c1.891,1.489,4.276,2.38,6.867,2.38V70.828z"/>
	</g>
	<g>
		<path fill="#EC1C24" d="M150.859,33.103v17.543h-3.786V39.57l-10.999,11c2.023,2.6,3.119,5.778,3.119,9.127
			c0,3.983-1.551,7.732-4.37,10.546c-2.814,2.819-6.562,4.371-10.546,4.371c-3.498,0-6.812-1.196-9.478-3.396
			c-2.067,1.706-4.523,2.808-7.153,3.217v7.548h8.631v3.786h-8.631v8.634h-3.789v-8.634h-7.465v-3.786h7.465v-7.439
			c-2.952-0.287-5.721-1.436-8.009-3.324c-2.287,1.889-5.052,3.037-8.003,3.324v7.439h7.463v3.786h-7.463v8.634h-3.79v-8.634h-8.631
			v-3.786h8.631v-7.548c-3.104-0.48-5.967-1.928-8.229-4.192c-2.813-2.813-4.364-6.562-4.364-10.546
			c0-3.982,1.551-7.727,4.364-10.542c2.815-2.818,6.563-4.371,10.552-4.371c3.496,0,6.809,1.196,9.472,3.396
			c2.664-2.199,5.98-3.396,9.479-3.396s6.809,1.196,9.474,3.396c2.664-2.199,5.979-3.396,9.478-3.396
			c3.347,0,6.521,1.094,9.116,3.109l10.996-11.001h-11.282v-3.789H150.859z M86.376,70.828c2.588,0,4.974-0.89,6.86-2.379
			c-1.838-2.528-2.827-5.562-2.827-8.753c0-3.188,0.989-6.223,2.828-8.751c-1.892-1.488-4.272-2.376-6.861-2.376
			c-6.142,0-11.127,4.991-11.127,11.127C75.249,65.829,80.239,70.828,86.376,70.828z M95.851,65.525
			c1.048-1.696,1.652-3.694,1.652-5.829c0-2.136-0.604-4.132-1.652-5.83c-1.047,1.698-1.653,3.694-1.653,5.83
			C94.198,61.831,94.804,63.829,95.851,65.525z M105.325,48.569c-2.595,0-4.979,0.89-6.868,2.378
			c1.841,2.527,2.835,5.562,2.835,8.748c0,3.188-0.994,6.224-2.834,8.752c1.893,1.488,4.273,2.379,6.867,2.379
			c2.589,0,4.974-0.891,6.862-2.379c-1.838-2.528-2.832-5.562-2.832-8.752c0-3.187,0.994-6.221,2.833-8.748
			C110.3,49.459,107.914,48.569,105.325,48.569z M116.452,59.696c0-2.136-0.604-4.132-1.652-5.828
			c-1.046,1.696-1.65,3.692-1.65,5.828c0,2.135,0.604,4.131,1.65,5.828C115.848,63.827,116.452,61.831,116.452,59.696z
			 M135.404,59.696c0-6.136-4.987-11.127-11.127-11.127c-2.59,0-4.977,0.89-6.87,2.379c1.845,2.527,2.839,5.562,2.839,8.748
			c0,3.188-0.993,6.223-2.833,8.751c1.892,1.488,4.274,2.381,6.864,2.381C130.412,70.828,135.404,65.829,135.404,59.696z"/>
	</g>
	<g>
		<path fill="#EC1C24" d="M208.843,42.009v17.544h-3.787V48.475l-10.458,10.463c1.679,2.453,2.581,5.352,2.581,8.39
			c0,3.982-1.552,7.732-4.37,10.544c-2.818,2.821-6.562,4.372-10.547,4.372c-3.983,0-7.732-1.551-10.551-4.372
			c-1.129-1.127-2.058-2.408-2.759-3.793c-1.278,0.354-2.613,0.535-3.979,0.535c-3.984,0-7.733-1.552-10.552-4.371
			c-2.813-2.813-4.364-6.562-4.364-10.546c0-3.982,1.551-7.727,4.364-10.542c2.814-2.818,6.563-4.371,10.552-4.371
			c2.98,0,5.827,0.869,8.253,2.487L183.6,36.894l-11.286-0.006v-3.785l17.749,0.006v17.542h-3.786V39.573l-10.183,10.188
			c0.874,0.974,1.606,2.045,2.188,3.187c1.28-0.353,2.616-0.533,3.979-0.533c3.647,0,7.095,1.302,9.814,3.687l10.301-10.307h-11.078
			V42.01L208.843,42.009L208.843,42.009z M167.681,70.495c-0.221-1.03-0.335-2.09-0.335-3.168c0-3.984,1.553-7.728,4.365-10.542
			c0.928-0.928,1.956-1.719,3.062-2.361c-1.883-3.483-5.564-5.854-9.797-5.854c-6.138,0-11.127,4.991-11.127,11.129
			c0,6.131,4.989,11.13,11.127,11.13C165.906,70.828,166.816,70.713,167.681,70.495z M175.993,58.138
			c-2.935,2.006-4.858,5.377-4.858,9.189c0,0.529,0.038,1.05,0.109,1.561c2.932-2.008,4.854-5.38,4.854-9.189
			C176.103,59.167,176.065,58.646,175.993,58.138z M193.389,67.327c0-6.136-4.99-11.127-11.127-11.127
			c-0.932,0-1.838,0.114-2.704,0.332c0.22,1.028,0.334,2.088,0.334,3.166c0,3.981-1.552,7.732-4.369,10.544
			c-0.928,0.927-1.954,1.717-3.056,2.359c1.882,3.481,5.562,5.855,9.795,5.855C188.399,78.457,193.389,73.46,193.389,67.327z"/>
	</g>
	<g>
		<path fill="#EC1C24" d="M70.008,67.937c0,3.982-1.553,7.731-4.371,10.544c-2.818,2.819-6.562,4.371-10.547,4.371
			c-3.982,0-7.731-1.552-10.551-4.371c-2.812-2.812-4.364-6.562-4.364-10.544c0-3.984,1.552-7.729,4.364-10.543
			c2.347-2.346,5.337-3.814,8.568-4.241c0.001-5.641,2.572-7.99,4.586-9.822c1.599-1.455,2.653-2.419,2.653-4.843
			c0-2.783-2.013-4.698-4.935-4.698c-1.833,0-3.231,0.491-4.207,1.487c-1.494,1.532-1.751,4.075-1.743,5.147l-3.789,0.003
			c-0.005-2.407,0.717-5.646,2.833-7.802C49.857,31.248,52.073,30,55.413,30c5.001,0,8.72,3.622,8.72,8.487
			c0,4.096-2.115,6.029-3.881,7.638c-1.847,1.688-3.337,3.049-3.352,7.006c3.297,0.398,6.348,1.877,8.729,4.263
			C68.455,60.208,70.008,63.952,70.008,67.937z M66.218,67.937c0-6.137-4.991-11.128-11.128-11.128S43.964,61.8,43.964,67.937
			c0,6.13,4.989,11.13,11.126,11.13S66.218,74.066,66.218,67.937z"/>
	</g>
	<g>
		<path fill="#EC1C24" d="M311.481,33.102v17.544h-3.784V39.57l-10.849,10.85c2.099,2.627,3.239,5.863,3.239,9.276
			c0,3.984-1.557,7.733-4.371,10.547c-2.369,2.368-5.389,3.841-8.656,4.252v7.488h8.636v3.786h-8.636v8.634h-3.789v-8.634h-8.632
			v-3.786h8.632v-7.489c-3.266-0.412-6.287-1.886-8.647-4.251c-2.813-2.813-4.366-6.562-4.366-10.547
			c0-3.354,1.102-6.541,3.13-9.144l-2.196-2.196l-3.9,3.905l-2.681-2.679l3.904-3.907l-6.104-6.105v11.076h-3.785v-17.54h17.755
			v3.785H265.09l6.099,6.105l3.907-3.909l2.679,2.68l-3.909,3.908l2.201,2.203c2.602-2.007,5.771-3.095,9.104-3.095
			c3.274,0,6.392,1.05,8.965,2.994l10.877-10.887H293.73v-3.789L311.481,33.102L311.481,33.102z M296.296,59.695
			c0-6.135-4.989-11.127-11.126-11.127c-6.142,0-11.128,4.992-11.128,11.127c0,6.133,4.986,11.131,11.128,11.131
			C291.307,70.826,296.296,65.828,296.296,59.695z"/>
	</g>
	<g>
		<path fill="#EC1C24" d="M246.857,81.982h8.632v3.786h-8.632v8.638h-3.79v-8.638h-7.463v-3.786h7.463V74.54
			c-2.951-0.287-5.72-1.435-8.009-3.322c-2.286,1.888-5.052,3.035-8.004,3.322v7.442h7.465v3.786h-7.465v8.638h-3.789v-8.638h-8.631
			v-3.786h8.631v-7.549c-3.104-0.481-5.967-1.929-8.231-4.191c-2.812-2.812-4.36-6.562-4.36-10.547c0-3.985,1.552-7.728,4.36-10.543
			c2.819-2.818,6.568-4.371,10.557-4.371c3.498,0,6.811,1.196,9.472,3.396c2.665-2.199,5.981-3.396,9.479-3.396
			c3.979,0,7.728,1.553,10.546,4.371c2.814,2.815,4.37,6.558,4.37,10.543c0,3.984-1.556,7.732-4.37,10.547
			c-2.268,2.262-5.124,3.709-8.229,4.191L246.857,81.982L246.857,81.982z M225.586,70.826c2.589,0,4.974-0.891,6.865-2.377
			c-1.843-2.53-2.832-5.562-2.832-8.754c0-3.189,0.989-6.223,2.833-8.751c-1.896-1.487-4.276-2.376-6.866-2.376
			c-6.143,0-11.128,4.992-11.128,11.127C214.458,65.828,219.448,70.826,225.586,70.826z M235.062,65.525
			c1.047-1.696,1.653-3.694,1.653-5.83c0-2.135-0.606-4.133-1.653-5.829c-1.048,1.696-1.653,3.694-1.653,5.829
			C233.406,61.831,234.014,63.829,235.062,65.525z M255.662,59.695c0-6.135-4.99-11.126-11.126-11.126
			c-2.594,0-4.979,0.888-6.869,2.378c1.842,2.527,2.836,5.562,2.836,8.748c0,3.187-0.994,6.224-2.834,8.751
			c1.892,1.489,4.273,2.38,6.867,2.38C250.672,70.826,255.662,65.828,255.662,59.695L255.662,59.695z"/>
	</g>
	<g>
		<path fill="#EC1C24" d="M412.072,68.751v17.538h-17.585v-3.786h11.111l-6.1-6.104l-3.905,3.909l-2.679-2.679l3.902-3.909
			l-2.245-2.248c-2.604,2.035-5.796,3.14-9.153,3.14c-3.982,0-7.731-1.552-10.556-4.369c-2.812-2.814-4.36-6.562-4.36-10.547
			c0-3.985,1.553-7.726,4.36-10.543c2.82-2.816,6.569-4.371,10.556-4.371c3.981,0,7.728,1.555,10.547,4.371
			c2.814,2.817,4.371,6.558,4.371,10.543c0,3.33-1.086,6.5-3.093,9.091l2.257,2.256l3.9-3.908l2.682,2.679l-3.903,3.907l6.104,6.105
			V68.752L412.072,68.751L412.072,68.751z M396.547,59.695c0-6.137-4.992-11.127-11.129-11.127c-6.141,0-11.126,4.99-11.126,11.127
			c0,6.133,4.985,11.131,11.126,11.131C391.555,70.826,396.547,65.828,396.547,59.695z"/>
	</g>
	<g>
		<path fill="#EC1C24" d="M452.701,68.751c0,3.984-1.552,7.732-4.367,10.547c-2.817,2.818-6.562,4.369-10.546,4.369
			s-7.731-1.551-10.554-4.369c-2.812-2.814-4.361-6.562-4.361-10.547c0-0.892,0.074-1.771,0.229-2.63L403.773,60.1l1.272-3.572
			l19.184,5.986c0.449-0.975,1.006-1.902,1.663-2.767l-16.585-16.581l2.684-2.682l16.557,16.559c0.861-0.688,1.796-1.269,2.774-1.74
			l-5.968-19.148l3.566-1.274l5.99,19.231c0.938-0.181,1.898-0.275,2.873-0.275c3.983,0,7.729,1.553,10.549,4.371
			C451.154,61.023,452.701,64.767,452.701,68.751z M448.914,68.751c0-6.136-4.99-11.127-11.125-11.127
			c-6.142,0-11.132,4.991-11.132,11.127c0,6.132,4.99,11.13,11.132,11.13C443.924,79.881,448.914,74.883,448.914,68.751z"/>
	</g>
	<g>
		<path fill="#EC1C24" d="M525.943,59.02c0,3.981-1.552,7.731-4.371,10.546c-2.813,2.817-6.562,4.368-10.544,4.368
			c-3.984,0-7.729-1.551-10.552-4.368c-2.812-2.814-4.366-6.564-4.366-10.546c0-3.349,1.098-6.527,3.115-9.127l-5.192-5.185
			l-1.878,7.037l-3.661-0.979l1.885-7.037l-7.029,1.881l-0.986-3.655l7.038-1.885l-5.146-5.151l2.68-2.678l5.146,5.151l1.893-7.035
			l3.657,0.98l-1.89,7.036l7.035-1.889l0.979,3.665l-7.025,1.879l5.183,5.187c2.604-2.018,5.78-3.111,9.125-3.111
			c3.982,0,7.729,1.553,10.545,4.372C524.391,51.29,525.943,55.034,525.943,59.02z M522.153,59.02
			c0-6.138-4.988-11.129-11.125-11.129c-6.139,0-11.129,4.991-11.129,11.129c0,6.131,4.99,11.13,11.129,11.13
			C517.159,70.149,522.153,65.15,522.153,59.02z"/>
	</g>
	<g>
		<path fill="#EC1C24" d="M689.949,44.259v17.54h-3.781V50.725L675.17,61.723c2.021,2.601,3.119,5.779,3.119,9.129
			c0,3.983-1.556,7.73-4.369,10.544c-2.819,2.82-6.562,4.371-10.547,4.371c-3.983,0-7.732-1.551-10.556-4.371
			c-2.812-2.813-4.36-6.561-4.36-10.544c0-3.984,1.552-7.729,4.36-10.543c2.819-2.818,6.568-4.371,10.556-4.371
			c3.345,0,6.518,1.093,9.113,3.109l10.994-10.999H672.2v-3.789H689.949z M674.5,70.852c0-6.137-4.991-11.128-11.127-11.128
			c-6.143,0-11.13,4.991-11.13,11.128c0,6.131,4.987,11.129,11.13,11.129C669.509,81.98,674.5,76.982,674.5,70.852z"/>
	</g>
	<g>
		<path fill="#EC1C24" d="M612.682,70.852c0,3.983-1.551,7.732-4.37,10.544c-2.818,2.82-6.562,4.371-10.546,4.371
			s-7.733-1.551-10.552-4.371c-2.813-2.812-4.364-6.561-4.364-10.544c0-3.448,1.163-6.719,3.301-9.36l-13.189-13.187l2.686-2.683
			l13.241,13.244c2.555-1.901,5.64-2.929,8.882-2.929c3.98,0,7.729,1.553,10.546,4.371
			C611.131,63.123,612.682,66.867,612.682,70.852z M608.893,70.852c0-6.137-4.992-11.128-11.127-11.128
			c-6.137,0-11.127,4.991-11.127,11.128c0,6.131,4.99,11.13,11.127,11.13C603.901,81.981,608.893,76.982,608.893,70.852z"/>
	</g>
	<g>
		<path fill="#EC1C24" d="M472.107,73.816v7.491h8.637v3.784h-8.637v8.636h-3.79v-8.636h-8.631v-3.784h8.631v-7.491
			c-3.267-0.412-6.29-1.885-8.657-4.251c-2.812-2.813-4.364-6.562-4.364-10.546c0-3.985,1.557-7.729,4.364-10.543
			c2.819-2.819,6.569-4.37,10.552-4.37c3.984,0,7.729,1.551,10.551,4.37c2.814,2.813,4.371,6.558,4.371,10.543
			c0,3.983-1.557,7.732-4.371,10.546C478.391,71.932,475.373,73.404,472.107,73.816z M470.211,70.149
			c6.138,0,11.128-4.998,11.128-11.13c0-6.136-4.99-11.129-11.128-11.129c-6.141,0-11.127,4.993-11.127,11.129
			C459.084,65.151,464.073,70.149,470.211,70.149z"/>
	</g>
	<g>
		<path fill="#EC1C24" d="M620.15,73.447c-2.812-2.812-4.364-6.562-4.364-10.547c0-3.983,1.556-7.728,4.364-10.542
			c2.819-2.817,6.568-4.371,10.552-4.371c3.984,0,7.729,1.554,10.547,4.371c2.818,2.814,4.37,6.559,4.37,10.542
			c0,3.985-1.552,7.733-4.37,10.547c-2.815,2.819-6.562,4.37-10.547,4.37C626.718,77.817,622.969,76.267,620.15,73.447z
			 M641.824,62.9c0-6.136-4.988-11.126-11.127-11.126s-11.126,4.99-11.126,11.126c0,6.132,4.987,11.131,11.126,11.131
			S641.824,69.032,641.824,62.9z"/>
	</g>
	<g>
		<path fill="#EC1C24" d="M570.774,32.428v17.54h-3.785V38.895L555.99,49.893c2.024,2.6,3.12,5.778,3.12,9.128
			c0,3.983-1.552,7.732-4.371,10.545c-2.365,2.366-5.384,3.841-8.647,4.252v7.49h8.638v3.785h-8.638v8.637h-3.79v-8.637h-8.635
			v-3.785h8.635v-7.49c-3.271-0.411-6.291-1.886-8.657-4.252c-2.812-2.812-4.366-6.562-4.366-10.545
			c0-3.985,1.553-7.728,4.366-10.542c2.818-2.819,6.565-4.371,10.552-4.371c3.342,0,6.521,1.093,9.117,3.11l10.994-11.002h-11.282
			v-3.788H570.774z M555.32,59.021c0-6.137-4.989-11.128-11.126-11.128s-11.128,4.991-11.128,11.128
			c0,6.131,4.991,11.131,11.128,11.131C550.325,70.151,555.32,65.151,555.32,59.021z"/>
	</g>
	<g>
		<path fill="#EC1C24" d="M771.507,41.653v17.543h-3.788V48.117L757.26,58.581c1.68,2.454,2.582,5.351,2.582,8.39
			c0,3.984-1.553,7.731-4.37,10.545c-2.818,2.819-6.563,4.37-10.547,4.37c-3.984,0-7.733-1.551-10.55-4.37
			c-1.134-1.129-2.06-2.407-2.763-3.792c-1.274,0.352-2.612,0.533-3.978,0.533c-3.497,0-6.813-1.196-9.479-3.394
			c-2.177,1.796-4.783,2.923-7.573,3.274v7.489h8.637v3.786h-8.637v8.637h-3.787v-8.637h-8.636v-3.786h8.636v-7.489
			c-3.271-0.411-6.293-1.886-8.658-4.251c-2.812-2.813-4.366-6.562-4.366-10.546c0-3.985,1.554-7.728,4.366-10.543
			c2.813-2.818,6.563-4.371,10.552-4.371c3.497,0,6.81,1.197,9.471,3.396c2.665-2.198,5.981-3.396,9.479-3.396
			c2.979,0,5.829,0.87,8.252,2.487l10.374-10.377l-11.285-0.004v-3.785l17.749,0.006v17.54h-3.785V39.216L738.76,49.404
			c0.872,0.973,1.604,2.043,2.188,3.187c1.277-0.353,2.613-0.534,3.979-0.534c3.646,0,7.096,1.302,9.812,3.687l10.301-10.307
			h-11.073v-3.784H771.507z M708.69,70.472c2.588,0,4.975-0.889,6.862-2.377c-1.837-2.529-2.831-5.565-2.831-8.754
			c0-3.189,0.994-6.223,2.836-8.751c-1.896-1.488-4.277-2.376-6.867-2.376c-6.139,0-11.126,4.99-11.126,11.127
			C697.564,65.474,702.551,70.472,708.69,70.472z M719.818,59.342c0-2.137-0.606-4.134-1.651-5.828
			c-1.049,1.694-1.651,3.691-1.651,5.828c0,2.135,0.604,4.133,1.651,5.829C719.211,63.475,719.818,61.477,719.818,59.342z
			 M727.639,70.474c0.933,0,1.84-0.116,2.705-0.334c-0.227-1.03-0.334-2.09-0.334-3.169c0-3.982,1.55-7.726,4.365-10.541
			c0.927-0.929,1.957-1.717,3.06-2.36c-1.884-3.482-5.566-5.854-9.796-5.854c-2.591,0-4.979,0.889-6.867,2.377
			c1.84,2.527,2.836,5.562,2.836,8.748c0,3.188-0.996,6.225-2.836,8.751c1.895,1.489,4.277,2.38,6.867,2.38V70.474z M738.656,57.782
			c-2.934,2.007-4.856,5.376-4.856,9.188c0,0.53,0.038,1.052,0.106,1.562c2.934-2.007,4.858-5.38,4.858-9.188
			C738.767,58.812,738.729,58.292,738.656,57.782z M756.053,66.971c0-6.136-4.99-11.126-11.128-11.126
			c-0.936,0-1.837,0.115-2.706,0.333c0.223,1.027,0.338,2.088,0.338,3.164c0,3.984-1.555,7.729-4.371,10.546
			c-0.928,0.926-1.955,1.717-3.057,2.358c1.883,3.483,5.562,5.856,9.796,5.856C751.063,78.103,756.053,73.104,756.053,66.971z"/>
	</g>
</g>
<rect x="0" y="129.014" fill="none" width="799" height="636.174"/>
<text transform="matrix(1 0 0 1 180.5071 171.4131)"><tspan x="0" y="0" fill="#FFFFFF" font-family="'SuitSansPro-Light'" font-size="53" letter-spacing="-3">T</tspan><tspan x="28.09" y="0" fill="#FFFFFF" font-family="'SuitSansPro-Light'" font-size="53">o understand the</tspan><tspan x="-96.246" y="53" fill="#FFFFFF" font-family="'SuitSansPro-Light'" font-size="53">world</tspan><tspan x="36.516" y="53" fill="#FFFFFF" font-family="'SuitSansPro-Light'" font-size="53" letter-spacing="-5">’</tspan><tspan x="40.332" y="53" fill="#FFFFFF" font-family="'SuitSansPro-Light'" font-size="53">s diversity, one most</tspan><tspan x="-48.573" y="106" fill="#FFFFFF" font-family="'SuitSansPro-Light'" font-size="53">recognize its language</tspan></text>
</svg>
