<?xml version="1.0" encoding="utf-8"?>
<!-- Generator: Adobe Illustrator 15.1.0, SVG Export Plug-In . SVG Version: 6.00 Build 0)  -->
<!DOCTYPE svg PUBLIC "-//W3C//DTD SVG 1.1//EN" "http://www.w3.org/Graphics/SVG/1.1/DTD/svg11.dtd">
<svg version="1.1" id="Abre" xmlns="http://www.w3.org/2000/svg" xmlns:xlink="http://www.w3.org/1999/xlink" x="0px" y="0px"
	 width="800px" height="450px" viewBox="0 0 800 450" enable-background="new 0 0 800 450" xml:space="preserve">
<path fill="#ED1C24" d="M334.444,359.99c3.564,1.435,6.169,3.712,7.817,6.845c1.646,3.135,2.47,7.267,2.47,12.396
	c0,5.346-0.824,9.652-2.47,12.918c-1.648,3.271-4.252,5.658-7.817,7.17c-3.562,1.512-8.262,2.27-14.094,2.27h-1.539v17.013h-18.873
	v-60.75h20.412C326.181,357.845,330.88,358.561,334.444,359.99z M325.372,385.183c1.021-1.216,1.539-3.254,1.539-6.116
	c0-2.646-0.5-4.549-1.498-5.711c-1-1.162-2.688-1.74-5.062-1.74h-1.539v15.393h1.539
	C322.67,387.004,324.345,386.397,325.372,385.183z"/>
<path fill="#ED1C24" d="M394.384,403.201v15.394h-41.553v-60.75h18.873v45.356H394.384L394.384,403.201z"/>
<path fill="#ED1C24" d="M432.696,409.198H419.33l-1.779,9.397h-19.116l15.877-60.75h23.326l16.04,60.75H434.56L432.696,409.198z
	 M430.024,395.429l-4.051-20.979l-3.967,20.979H430.024z"/>
<path fill="#ED1C24" d="M504.461,357.845l-17.334,35.64v25.11h-18.873v-25.11l-17.415-35.64h19.926l7.128,19.602l7.047-19.602
	H504.461z"/>
<g enable-background="new    ">
	<path fill="#FFFFFF" d="M219.067,256.614c-2.546,1.218-4.788,2.043-6.726,2.479c-1.938,0.436-3.99,0.655-6.156,0.655
		c-6.575,0-11.353-1.757-14.335-5.272c-2.983-3.515-4.475-9.072-4.475-16.673c0-7.789,1.501-13.48,4.503-17.071
		c3.001-3.591,7.638-5.387,13.908-5.387c2.241,0,4.351,0.238,6.326,0.713c1.976,0.477,3.952,1.245,5.929,2.31l-1.312,4.73
		c-1.787-0.912-3.477-1.604-5.073-2.081c-1.596-0.475-3.383-0.713-5.357-0.713c-3.041,0-5.492,0.59-7.354,1.768
		c-1.861,1.179-3.221,3.04-4.075,5.587c-0.855,2.546-1.283,5.908-1.283,10.089c0,4.027,0.408,7.238,1.226,9.633
		s2.146,4.143,3.99,5.244c1.843,1.103,4.322,1.652,7.438,1.652c2.432,0,4.883-0.342,7.354-1.025v-11.855h-9.177v-4.959h14.648
		L219.067,256.614L219.067,256.614z"/>
	<path fill="#FFFFFF" d="M251.783,229.253v29.697h-5.928v-3.078c-1.596,1.14-3.105,1.985-4.532,2.537
		c-1.425,0.55-2.974,0.825-4.646,0.825c-3.002,0-5.168-0.815-6.498-2.45c-1.331-1.635-1.995-4.407-1.995-8.322v-19.267h6.042v18.298
		c0,1.747,0.151,3.088,0.456,4.019c0.304,0.932,0.798,1.577,1.482,1.938c0.684,0.362,1.633,0.543,2.85,0.543
		c1.786,0,4.066-0.664,6.84-1.995v-22.743L251.783,229.253L251.783,229.253z"/>
	<path fill="#FFFFFF" d="M282.793,245.384l-16.93-0.057c0.229,3.609,1.056,6.107,2.479,7.494c1.425,1.389,3.372,2.081,5.843,2.081
		c1.292,0,2.545-0.133,3.762-0.398s2.565-0.627,4.048-1.083l0.798,4.39c-1.787,0.685-3.42,1.205-4.902,1.567
		c-1.482,0.359-3.002,0.541-4.56,0.541c-4.028,0-7.26-1.264-9.69-3.79c-2.433-2.527-3.648-6.488-3.648-11.885
		c0-5.319,1.179-9.215,3.534-11.686c2.356-2.47,5.491-3.705,9.405-3.705c3.571,0,6.184,0.969,7.837,2.906s2.479,4.655,2.479,8.151
		C283.249,241.585,283.096,243.409,282.793,245.384z M267.973,234.839c-1.179,1.254-1.881,3.383-2.109,6.385l12.142-0.229
		c0.076-0.835,0.114-1.501,0.114-1.995c0-1.938-0.42-3.43-1.255-4.476c-0.836-1.044-2.223-1.566-4.16-1.566
		C270.727,232.958,269.15,233.585,267.973,234.839z"/>
	<path fill="#FFFFFF" d="M290.944,250.401c1.215,1.254,2.727,2.28,4.531,3.078s3.543,1.196,5.215,1.196
		c1.634,0,2.974-0.417,4.02-1.254c1.045-0.835,1.567-1.881,1.567-3.135c0-0.949-0.305-1.729-0.912-2.338
		c-0.607-0.606-1.367-1.082-2.279-1.425c-0.912-0.342-2.187-0.74-3.819-1.196c-1.976-0.57-3.582-1.111-4.816-1.624
		c-1.234-0.515-2.279-1.273-3.135-2.28c-0.854-1.007-1.282-2.327-1.282-3.962c0-1.785,0.514-3.324,1.539-4.617
		c1.026-1.291,2.385-2.279,4.075-2.964s3.506-1.025,5.444-1.025c1.861,0,3.628,0.295,5.301,0.883
		c1.672,0.591,3.115,1.341,4.332,2.252l-1.596,3.934c-1.141-0.685-2.365-1.227-3.676-1.624c-1.312-0.399-2.595-0.599-3.849-0.599
		c-1.672,0-3.088,0.342-4.247,1.025c-1.159,0.685-1.737,1.577-1.737,2.679c0,1.026,0.483,1.776,1.453,2.251
		c0.97,0.477,2.518,0.998,4.646,1.568c2.166,0.532,3.923,1.083,5.271,1.652s2.518,1.443,3.506,2.622
		c0.987,1.179,1.481,2.756,1.481,4.73c0,2.889-0.998,5.158-2.992,6.812c-1.995,1.651-4.569,2.479-7.724,2.479
		c-2.395,0-4.741-0.466-7.04-1.396c-2.3-0.932-4.114-2.232-5.443-3.905L290.944,250.401z"/>
	<path fill="#FFFFFF" d="M319.044,250.401c1.215,1.254,2.726,2.28,4.53,3.078c1.806,0.798,3.544,1.196,5.216,1.196
		c1.634,0,2.973-0.417,4.019-1.254c1.045-0.835,1.568-1.881,1.568-3.135c0-0.949-0.306-1.729-0.912-2.338
		c-0.608-0.606-1.368-1.082-2.28-1.425c-0.912-0.342-2.186-0.74-3.819-1.196c-1.976-0.57-3.581-1.111-4.815-1.624
		c-1.235-0.515-2.28-1.273-3.135-2.28c-0.855-1.007-1.282-2.327-1.282-3.962c0-1.785,0.513-3.324,1.539-4.617
		c1.025-1.291,2.384-2.279,4.075-2.964c1.689-0.685,3.506-1.025,5.443-1.025c1.861,0,3.628,0.295,5.301,0.883
		c1.673,0.591,3.115,1.341,4.332,2.252l-1.596,3.934c-1.14-0.685-2.365-1.227-3.676-1.624c-1.312-0.399-2.594-0.599-3.848-0.599
		c-1.673,0-3.089,0.342-4.247,1.025c-1.159,0.685-1.738,1.577-1.738,2.679c0,1.026,0.484,1.776,1.454,2.251
		c0.969,0.477,2.517,0.998,4.646,1.568c2.166,0.532,3.923,1.083,5.272,1.652c1.348,0.569,2.517,1.443,3.505,2.622
		s1.482,2.756,1.482,4.73c0,2.889-0.998,5.158-2.992,6.812c-1.995,1.651-4.57,2.479-7.725,2.479c-2.394,0-4.74-0.466-7.04-1.396
		c-2.3-0.932-4.113-2.232-5.442-3.905L319.044,250.401z"/>
	<path fill="#FFFFFF" d="M398.615,229.253l-7.467,29.697h-6.327l-6.44-20.464l-6.498,20.464h-6.213l-7.41-29.697h6.44l4.504,23.77
		l6.726-21.488h4.959l6.726,21.717l4.504-23.997L398.615,229.253L398.615,229.253z"/>
	<path fill="#FFFFFF" d="M427.486,231.391c1.312,1.653,1.967,4.438,1.967,8.352v19.209h-5.929v-18.069
		c0-1.747-0.162-3.087-0.484-4.02c-0.321-0.931-0.825-1.586-1.51-1.966c-0.684-0.38-1.652-0.569-2.906-0.569
		c-1.141,0-2.31,0.151-3.506,0.455c-1.196,0.306-2.557,0.837-4.076,1.597v22.571h-5.928v-45.6h5.928v19.209
		c1.673-1.254,3.269-2.175,4.788-2.765c1.521-0.589,3.249-0.884,5.188-0.884C424.018,228.911,426.174,229.738,427.486,231.391z"/>
	<path fill="#FFFFFF" d="M455.928,229.994c1.5,0.723,2.611,1.908,3.334,3.562c0.722,1.653,1.084,3.924,1.084,6.812v18.582h-5.244
		v-3.877c-1.254,1.521-2.633,2.633-4.133,3.336c-1.502,0.701-3.164,1.054-4.988,1.054c-2.963,0-5.196-0.816-6.697-2.451
		c-1.502-1.633-2.251-3.685-2.251-6.155c0-2.812,0.901-5.062,2.708-6.755c1.805-1.689,4.34-2.555,7.609-2.594h7.295
		c-0.037-2.166-0.256-3.81-0.654-4.93c-0.399-1.121-1.008-1.883-1.823-2.28c-0.818-0.399-1.968-0.6-3.449-0.6
		c-1.978,0-4.939,0.438-8.893,1.312l-0.97-3.876c3.687-1.481,7.391-2.223,11.115-2.223
		C452.442,228.911,454.426,229.273,455.928,229.994z M454.645,251.94v-6.327h-6.953c-1.938,0-3.316,0.467-4.133,1.396
		c-0.818,0.932-1.227,2.022-1.227,3.277c0,1.405,0.438,2.508,1.312,3.306c0.873,0.799,2.07,1.197,3.59,1.197
		C449.553,254.789,452.024,253.84,454.645,251.94z"/>
	<path fill="#FFFFFF" d="M486.85,258.609c-1.787,0.493-3.534,0.741-5.244,0.741c-3.914,0-6.66-1.035-8.236-3.105
		c-1.578-2.071-2.364-5.273-2.364-9.604v-13.281h-3.535v-4.104h3.535v-7.638h5.698v7.638h8.209v4.104h-8.209v13.338
		c0,3.078,0.484,5.217,1.453,6.412c0.971,1.197,2.594,1.796,4.874,1.796c0.874,0,1.882-0.095,3.021-0.284L486.85,258.609z"/>
	<path fill="#FFFFFF" d="M528.174,245.384l-16.93-0.057c0.229,3.609,1.056,6.107,2.479,7.494c1.426,1.389,3.372,2.081,5.843,2.081
		c1.292,0,2.546-0.133,3.762-0.398c1.217-0.266,2.565-0.627,4.049-1.083l0.797,4.39c-1.786,0.685-3.42,1.205-4.901,1.567
		c-1.481,0.359-3.003,0.541-4.56,0.541c-4.029,0-7.261-1.264-9.69-3.79c-2.433-2.527-3.647-6.488-3.647-11.885
		c0-5.319,1.178-9.215,3.533-11.686c2.355-2.47,5.49-3.705,9.405-3.705c3.571,0,6.185,0.969,7.837,2.906
		c1.653,1.938,2.48,4.655,2.48,8.151C528.631,241.585,528.479,243.409,528.174,245.384z M513.355,234.839
		c-1.179,1.254-1.882,3.383-2.109,6.385l12.143-0.229c0.075-0.835,0.112-1.501,0.112-1.995c0-1.938-0.418-3.43-1.254-4.476
		c-0.836-1.044-2.223-1.566-4.16-1.566C516.11,232.958,514.531,233.585,513.355,234.839z"/>
	<path fill="#FFFFFF" d="M553.055,229.994c1.5,0.723,2.611,1.908,3.334,3.562c0.722,1.653,1.084,3.924,1.084,6.812v18.582h-5.244
		v-3.877c-1.254,1.521-2.633,2.633-4.133,3.336c-1.502,0.701-3.164,1.054-4.988,1.054c-2.963,0-5.196-0.816-6.697-2.451
		c-1.502-1.633-2.251-3.685-2.251-6.155c0-2.812,0.901-5.062,2.708-6.755c1.805-1.689,4.34-2.555,7.609-2.594h7.295
		c-0.037-2.166-0.256-3.81-0.654-4.93c-0.399-1.121-1.008-1.883-1.824-2.28c-0.817-0.399-1.967-0.6-3.448-0.6
		c-1.978,0-4.939,0.438-8.893,1.312l-0.97-3.876c3.686-1.481,7.391-2.223,11.115-2.223
		C549.569,228.911,551.553,229.273,553.055,229.994z M551.772,251.94v-6.327h-6.953c-1.938,0-3.316,0.467-4.133,1.396
		c-0.818,0.932-1.227,2.022-1.227,3.277c0,1.405,0.438,2.508,1.312,3.306c0.873,0.799,2.07,1.197,3.59,1.197
		C546.68,254.789,549.151,253.84,551.772,251.94z"/>
	<path fill="#FFFFFF" d="M569.014,232.389c2.261-2.355,5.33-3.534,9.205-3.534c1.52,0,3.059,0.162,4.617,0.484
		c1.559,0.323,2.982,0.808,4.274,1.453l-1.024,4.104c-2.318-0.798-4.523-1.197-6.612-1.197c-2.698,0-4.702,0.741-6.015,2.224
		c-1.312,1.481-1.966,4.086-1.966,7.81c0,4.028,0.712,6.831,2.138,8.407c1.426,1.577,3.372,2.365,5.843,2.365
		c1.786,0,4.18-0.342,7.182-1.025l0.798,4.047c-3.153,1.292-6.155,1.938-9.006,1.938c-3.801,0-6.888-1.263-9.262-3.79
		c-2.376-2.527-3.562-6.488-3.562-11.885C565.623,238.544,566.752,234.745,569.014,232.389z"/>
	<path fill="#FFFFFF" d="M617.35,231.391c1.311,1.653,1.967,4.438,1.967,8.352v19.209h-5.928v-18.069
		c0-1.747-0.162-3.087-0.484-4.02c-0.324-0.931-0.827-1.586-1.512-1.966c-0.684-0.38-1.652-0.569-2.906-0.569
		c-1.141,0-2.309,0.151-3.506,0.455c-1.197,0.306-2.556,0.837-4.075,1.597v22.571h-5.928v-45.6h5.928v19.209
		c1.672-1.254,3.269-2.175,4.788-2.765c1.521-0.589,3.249-0.884,5.188-0.884C613.882,228.911,616.039,229.738,617.35,231.391z"/>
	<path fill="#FFFFFF" d="M165.971,309.401c1.215,1.254,2.726,2.28,4.531,3.078c1.805,0.798,3.543,1.196,5.215,1.196
		c1.634,0,2.973-0.417,4.019-1.254c1.045-0.835,1.568-1.882,1.568-3.136c0-0.948-0.305-1.729-0.912-2.337
		c-0.608-0.606-1.368-1.083-2.28-1.425s-2.186-0.74-3.818-1.196c-1.977-0.57-3.582-1.111-4.816-1.624
		c-1.235-0.515-2.28-1.273-3.135-2.28c-0.855-1.007-1.282-2.327-1.282-3.962c0-1.785,0.513-3.324,1.539-4.617
		c1.026-1.291,2.384-2.279,4.075-2.964c1.689-0.685,3.506-1.025,5.444-1.025c1.86,0,3.628,0.295,5.301,0.883
		c1.672,0.591,3.114,1.341,4.332,2.253l-1.597,3.933c-1.14-0.684-2.364-1.227-3.676-1.624c-1.311-0.399-2.594-0.599-3.848-0.599
		c-1.672,0-3.088,0.342-4.247,1.025c-1.159,0.685-1.738,1.577-1.738,2.679c0,1.026,0.484,1.776,1.454,2.252
		c0.969,0.476,2.517,0.997,4.646,1.567c2.166,0.532,3.923,1.083,5.271,1.652c1.348,0.569,2.518,1.443,3.505,2.622
		c0.988,1.179,1.482,2.756,1.482,4.73c0,2.888-0.998,5.158-2.992,6.812c-1.995,1.651-4.57,2.479-7.724,2.479
		c-2.395,0-4.741-0.466-7.04-1.396c-2.301-0.932-4.114-2.232-5.443-3.905L165.971,309.401z"/>
	<path fill="#FFFFFF" d="M216.814,288.253l-13.623,41.098h-5.757l3.705-11.4h-0.912l-9.747-29.696h6.327l6.783,24.11l7.125-24.11
		L216.814,288.253L216.814,288.253z"/>
	<path fill="#FFFFFF" d="M263.981,290.391c1.312,1.653,1.966,4.438,1.966,8.352v19.208h-5.928v-18.068
		c0-1.747-0.162-3.087-0.485-4.02c-0.322-0.931-0.825-1.586-1.51-1.966c-0.684-0.38-1.652-0.569-2.907-0.569
		c-1.216,0-2.432,0.161-3.647,0.483c-1.216,0.323-2.604,0.884-4.161,1.683c0.114,0.949,0.171,2.032,0.171,3.248v19.209h-5.928
		v-18.068c0-1.747-0.162-3.087-0.484-4.02c-0.322-0.931-0.827-1.586-1.511-1.966s-1.653-0.569-2.907-0.569
		c-1.217,0-2.432,0.161-3.647,0.483c-1.217,0.323-2.604,0.884-4.161,1.683v22.457h-5.928v-29.696h5.928v3.478
		c1.71-1.33,3.343-2.299,4.902-2.907c1.558-0.606,3.324-0.911,5.301-0.911c1.975,0,3.57,0.352,4.788,1.055
		c1.215,0.703,2.127,1.834,2.735,3.392c1.9-1.558,3.677-2.688,5.33-3.392c1.653-0.703,3.524-1.055,5.614-1.055
		C260.513,287.911,262.67,288.738,263.981,290.391z"/>
	<path fill="#FFFFFF" d="M297.583,291.446c2.052,2.395,3.078,6.156,3.078,11.286c0,5.51-1.227,9.566-3.678,12.169
		c-2.451,2.604-5.748,3.905-9.889,3.905c-1.71,0-3.573-0.172-5.586-0.515c-2.014-0.342-3.819-0.798-5.415-1.367v-0.058l0.057-44.517
		h5.871v18.297c2.28-1.86,4.808-2.793,7.581-2.793C292.87,287.855,295.531,289.051,297.583,291.446z M291.028,313.134
		c1.292-0.589,2.3-1.672,3.021-3.249c0.722-1.576,1.083-3.791,1.083-6.641c0-4.027-0.665-6.858-1.995-8.493
		c-1.331-1.633-3.002-2.451-5.016-2.451c-0.912,0-1.938,0.162-3.078,0.485c-1.141,0.322-2.147,0.73-3.021,1.225v19.665
		c1.368,0.229,2.736,0.343,4.104,0.343C288.101,314.018,289.736,313.724,291.028,313.134z"/>
	<path fill="#FFFFFF" d="M310.009,315.129c-2.09-2.451-3.135-6.395-3.135-11.828c0-5.357,1.044-9.271,3.135-11.741
		c2.089-2.47,5.415-3.705,9.975-3.705c4.483,0,7.771,1.235,9.861,3.705c2.089,2.471,3.135,6.384,3.135,11.741
		c0,5.396-1.063,9.33-3.191,11.8c-2.129,2.47-5.473,3.705-10.032,3.705C315.347,318.806,312.098,317.579,310.009,315.129z
		 M325.427,311.537c1.159-1.729,1.739-4.646,1.739-8.749c0-2.659-0.238-4.75-0.712-6.271c-0.477-1.52-1.218-2.603-2.224-3.249
		c-1.007-0.646-2.385-0.97-4.133-0.97c-1.824,0-3.269,0.362-4.332,1.083c-1.063,0.723-1.834,1.872-2.309,3.449
		c-0.477,1.577-0.712,3.732-0.712,6.469s0.236,4.894,0.712,6.47c0.475,1.577,1.206,2.699,2.193,3.363
		c0.988,0.665,2.317,0.997,3.99,0.997C322.34,314.131,324.267,313.268,325.427,311.537z"/>
	<path fill="#FFFFFF" d="M341.131,272.351h5.928v45.6h-5.928V272.351z"/>
	<path fill="#FFFFFF" d="M387.87,293.612c-1.977,0-3.896,0.295-5.758,0.885c-1.861,0.589-3.438,1.377-4.73,2.364v21.09h-5.928
		v-29.696h5.928v4.161c1.33-1.254,2.973-2.317,4.931-3.191c1.957-0.874,3.923-1.33,5.899-1.368L387.87,293.612z"/>
	<path fill="#FFFFFF" d="M415.286,304.384l-16.93-0.057c0.228,3.609,1.055,6.107,2.479,7.494c1.425,1.388,3.371,2.081,5.843,2.081
		c1.291,0,2.545-0.133,3.762-0.398c1.216-0.266,2.564-0.627,4.047-1.083l0.799,4.39c-1.786,0.684-3.42,1.205-4.901,1.567
		c-1.482,0.359-3.002,0.54-4.562,0.54c-4.026,0-7.258-1.263-9.688-3.789c-2.434-2.527-3.648-6.488-3.648-11.885
		c0-5.319,1.179-9.215,3.534-11.686c2.356-2.47,5.491-3.705,9.405-3.705c3.57,0,6.184,0.969,7.838,2.906
		c1.652,1.938,2.479,4.655,2.479,8.151C415.741,300.585,415.59,302.409,415.286,304.384z M400.467,293.839
		c-1.18,1.254-1.881,3.383-2.109,6.385l12.141-0.229c0.076-0.835,0.115-1.501,0.115-1.995c0-1.938-0.42-3.43-1.255-4.476
		c-0.836-1.044-2.223-1.566-4.161-1.566C403.221,291.958,401.645,292.585,400.467,293.839z"/>
	<path fill="#FFFFFF" d="M444.186,291.446c2.47,2.395,3.705,6.251,3.705,11.571c0,5.282-1.188,9.233-3.562,11.854
		c-2.374,2.622-5.613,3.935-9.719,3.935c-1.634,0-3.248-0.267-4.845-0.799v11.399h-5.87V289.28h0.057
		c1.405-0.456,3.039-0.807,4.902-1.055c1.861-0.247,3.59-0.37,5.188-0.37C438.334,287.855,441.715,289.051,444.186,291.446z
		 M440.111,311.823c1.501-1.613,2.251-4.359,2.251-8.235c0-4.027-0.75-6.85-2.251-8.464c-1.501-1.615-3.544-2.423-6.128-2.423
		c-1.292,0-2.698,0.189-4.218,0.569v20.405c1.33,0.381,2.603,0.569,3.819,0.569C436.434,314.244,438.61,313.439,440.111,311.823z"/>
	<path fill="#FFFFFF" d="M472.514,293.612c-1.978,0-3.896,0.295-5.757,0.885c-1.862,0.589-3.439,1.377-4.731,2.364v21.09h-5.928
		v-29.696h5.928v4.161c1.33-1.254,2.975-2.317,4.932-3.191s3.923-1.33,5.898-1.368L472.514,293.612z"/>
	<path fill="#FFFFFF" d="M499.932,304.384l-16.93-0.057c0.229,3.609,1.055,6.107,2.479,7.494c1.425,1.388,3.372,2.081,5.843,2.081
		c1.291,0,2.545-0.133,3.763-0.398c1.216-0.266,2.563-0.627,4.047-1.083l0.799,4.39c-1.787,0.684-3.42,1.205-4.902,1.567
		c-1.481,0.359-3.002,0.54-4.561,0.54c-4.027,0-7.258-1.263-9.689-3.789c-2.433-2.527-3.647-6.488-3.647-11.885
		c0-5.319,1.178-9.215,3.534-11.686c2.355-2.47,5.49-3.705,9.404-3.705c3.571,0,6.185,0.969,7.838,2.906
		c1.652,1.938,2.479,4.655,2.479,8.151C500.387,300.585,500.235,302.409,499.932,304.384z M485.112,293.839
		c-1.179,1.254-1.881,3.383-2.109,6.385l12.142-0.229c0.076-0.835,0.115-1.501,0.115-1.995c0-1.938-0.42-3.43-1.255-4.476
		c-0.836-1.044-2.224-1.566-4.161-1.566C487.865,291.958,486.289,292.585,485.112,293.839z"/>
	<path fill="#FFFFFF" d="M508.082,309.401c1.215,1.254,2.727,2.28,4.53,3.078s3.543,1.196,5.215,1.196
		c1.636,0,2.975-0.417,4.021-1.254c1.045-0.835,1.566-1.882,1.566-3.136c0-0.948-0.305-1.729-0.911-2.337
		c-0.608-0.606-1.368-1.083-2.28-1.425s-2.186-0.74-3.818-1.196c-1.977-0.57-3.582-1.111-4.815-1.624
		c-1.236-0.515-2.281-1.273-3.137-2.28c-0.854-1.007-1.281-2.327-1.281-3.962c0-1.785,0.513-3.324,1.538-4.617
		c1.025-1.291,2.386-2.279,4.075-2.964c1.69-0.685,3.507-1.025,5.444-1.025c1.861,0,3.628,0.295,5.301,0.883
		c1.672,0.591,3.115,1.341,4.332,2.253l-1.597,3.933c-1.14-0.684-2.365-1.227-3.677-1.624c-1.312-0.399-2.595-0.599-3.849-0.599
		c-1.672,0-3.088,0.342-4.246,1.025c-1.159,0.685-1.737,1.577-1.737,2.679c0,1.026,0.483,1.776,1.453,2.252
		c0.969,0.476,2.518,0.997,4.646,1.567c2.166,0.532,3.922,1.083,5.271,1.652c1.35,0.569,2.519,1.443,3.507,2.622
		c0.987,1.179,1.481,2.756,1.481,4.73c0,2.888-0.998,5.158-2.992,6.812c-1.996,1.651-4.569,2.479-7.725,2.479
		c-2.394,0-4.74-0.466-7.039-1.396c-2.3-0.932-4.113-2.232-5.443-3.905L508.082,309.401z"/>
	<path fill="#FFFFFF" d="M557.5,304.384l-16.93-0.057c0.229,3.609,1.055,6.107,2.479,7.494c1.426,1.388,3.372,2.081,5.843,2.081
		c1.292,0,2.546-0.133,3.762-0.398c1.217-0.266,2.565-0.627,4.048-1.083l0.798,4.39c-1.786,0.684-3.42,1.205-4.901,1.567
		c-1.482,0.359-3.003,0.54-4.56,0.54c-4.029,0-7.261-1.263-9.69-3.789c-2.433-2.527-3.648-6.488-3.648-11.885
		c0-5.319,1.179-9.215,3.534-11.686c2.355-2.47,5.49-3.705,9.405-3.705c3.571,0,6.185,0.969,7.837,2.906
		c1.653,1.938,2.48,4.655,2.48,8.151C557.957,300.585,557.805,302.409,557.5,304.384z M542.681,293.839
		c-1.179,1.254-1.882,3.383-2.109,6.385l12.143-0.229c0.075-0.835,0.112-1.501,0.112-1.995c0-1.938-0.418-3.43-1.254-4.476
		c-0.836-1.044-2.223-1.566-4.16-1.566C545.436,291.958,543.858,292.585,542.681,293.839z"/>
	<path fill="#FFFFFF" d="M588.652,290.391c1.312,1.653,1.966,4.438,1.966,8.352v19.208h-5.928v-18.068
		c0-1.747-0.162-3.087-0.484-4.02c-0.322-0.931-0.825-1.586-1.51-1.966s-1.654-0.569-2.908-0.569c-2.354,0-4.938,0.703-7.752,2.108
		v22.515h-5.928v-29.696h5.928v3.478c1.672-1.33,3.287-2.299,4.847-2.907c1.558-0.606,3.323-0.911,5.301-0.911
		C585.184,287.911,587.34,288.738,588.652,290.391z"/>
	<path fill="#FFFFFF" d="M617.18,317.609c-1.787,0.493-3.535,0.741-5.244,0.741c-3.914,0-6.66-1.035-8.236-3.106
		c-1.578-2.07-2.365-5.272-2.365-9.604v-13.281H597.8v-4.104h3.534v-7.638h5.699v7.638h8.208v4.104h-8.208v13.338
		c0,3.078,0.484,5.216,1.453,6.412c0.969,1.197,2.594,1.796,4.873,1.796c0.875,0,1.882-0.095,3.021-0.285L617.18,317.609z"/>
	<path fill="#FFFFFF" d="M622.936,309.401c1.216,1.254,2.727,2.28,4.531,3.078c1.804,0.798,3.543,1.196,5.216,1.196
		c1.634,0,2.974-0.417,4.019-1.254c1.045-0.835,1.568-1.882,1.568-3.136c0-0.948-0.305-1.729-0.912-2.337
		c-0.609-0.606-1.369-1.083-2.281-1.425c-0.91-0.342-2.186-0.74-3.817-1.196c-1.978-0.57-3.582-1.111-4.816-1.624
		c-1.235-0.515-2.28-1.273-3.135-2.28c-0.855-1.007-1.283-2.327-1.283-3.962c0-1.785,0.514-3.324,1.539-4.617
		c1.026-1.291,2.385-2.279,4.076-2.964c1.688-0.685,3.506-1.025,5.442-1.025c1.861,0,3.629,0.295,5.302,0.883
		c1.672,0.591,3.114,1.341,4.332,2.253l-1.597,3.933c-1.141-0.684-2.365-1.227-3.677-1.624c-1.312-0.399-2.594-0.599-3.848-0.599
		c-1.673,0-3.089,0.342-4.247,1.025c-1.158,0.685-1.738,1.577-1.738,2.679c0,1.026,0.484,1.776,1.454,2.252
		c0.969,0.476,2.517,0.997,4.646,1.567c2.166,0.532,3.924,1.083,5.272,1.652s2.517,1.443,3.505,2.622s1.482,2.756,1.482,4.73
		c0,2.888-0.998,5.158-2.992,6.812c-1.995,1.651-4.57,2.479-7.725,2.479c-2.394,0-4.74-0.466-7.039-1.396
		c-2.3-0.931-4.113-2.232-5.443-3.905L622.936,309.401z"/>
</g>
<g>
	<path fill="#FFFFFF" d="M93.626,27.447H81.361v38.665h-3.025V27.447h-12.21v-2.585h27.5V27.447z"/>
	<path fill="#FFFFFF" d="M102.976,63.334c-1.907-2.328-2.86-6.114-2.86-11.357c0-5.17,0.962-8.919,2.888-11.248
		c1.925-2.328,4.922-3.493,8.992-3.493c4.07,0,7.068,1.165,8.993,3.493c1.925,2.329,2.888,6.059,2.888,11.192
		c0,5.207-0.972,8.993-2.915,11.357c-1.944,2.365-4.969,3.547-9.075,3.547C107.852,66.826,104.882,65.663,102.976,63.334z
		 M118.678,61.326c1.411-1.943,2.118-5.188,2.118-9.735c0-2.933-0.285-5.271-0.853-7.013c-0.569-1.741-1.477-2.997-2.723-3.767
		c-1.247-0.77-2.934-1.155-5.06-1.155c-2.2,0-3.951,0.413-5.252,1.238c-1.302,0.825-2.246,2.145-2.833,3.96
		c-0.587,1.815-0.88,4.226-0.88,7.232c0,3.007,0.293,5.39,0.88,7.15c0.586,1.76,1.494,3.035,2.723,3.822
		c1.228,0.789,2.869,1.183,4.922,1.183C114.947,64.241,117.266,63.27,118.678,61.326z"/>
	<path fill="#FFFFFF" d="M167.93,37.511v28.6h-2.97v-2.97c-1.54,1.064-3.072,1.87-4.593,2.42c-1.522,0.55-3.126,0.825-4.812,0.825
		c-1.944,0-3.502-0.32-4.675-0.962c-1.174-0.641-2.035-1.713-2.585-3.217c-0.55-1.503-0.825-3.556-0.825-6.16V37.511h3.025v18.04
		c0,2.2,0.183,3.869,0.55,5.005c0.366,1.137,0.953,1.925,1.76,2.365c0.806,0.44,1.943,0.66,3.41,0.66
		c2.383,0,5.298-0.898,8.745-2.695V37.511H167.93z"/>
	<path fill="#FFFFFF" d="M197.629,38.172c1.173,0.624,2.035,1.687,2.585,3.19c0.55,1.504,0.825,3.557,0.825,6.16v18.59h-2.97v-17.93
		c0-2.2-0.184-3.858-0.55-4.978c-0.367-1.118-0.954-1.897-1.76-2.337c-0.807-0.44-1.962-0.66-3.465-0.66
		c-1.54,0-3.099,0.22-4.675,0.66c-1.577,0.44-3.3,1.155-5.17,2.145v23.1h-2.97v-28.6h2.97v3.355c1.686-1.21,3.355-2.117,5.005-2.722
		s3.483-0.908,5.5-0.908C194.897,37.237,196.455,37.549,197.629,38.172z"/>
	<path fill="#FFFFFF" d="M232.279,65.342c-1.504,0.477-3.217,0.853-5.143,1.127c-1.925,0.275-3.603,0.413-5.032,0.413
		c-7.81,0-11.715-4.821-11.715-14.465c0-5.28,1.109-9.167,3.328-11.66c2.218-2.493,5.326-3.74,9.322-3.74
		c2.09,0,4.143,0.275,6.16,0.825v-15.73h3.025L232.279,65.342z M215.669,61.547c1.576,1.834,3.941,2.75,7.095,2.75
		c1.65,0,3.795-0.256,6.435-0.77v-22.99c-2.09-0.55-3.979-0.825-5.665-0.825c-3.3,0-5.83,1-7.59,2.998
		c-1.76,1.999-2.64,5.252-2.64,9.762C213.304,56.689,214.092,59.714,215.669,61.547z"/>
	<path fill="#FFFFFF" d="M262.033,52.141l-17.325,0.055c0.036,4.4,0.898,7.499,2.585,9.295c1.686,1.797,3.923,2.695,6.71,2.695
		c1.246,0,2.428-0.138,3.547-0.413c1.118-0.275,2.447-0.668,3.987-1.183l0.495,2.365c-1.797,0.697-3.272,1.2-4.427,1.512
		c-1.155,0.311-2.412,0.468-3.768,0.468c-3.667,0-6.609-1.219-8.828-3.658c-2.219-2.438-3.328-6.224-3.328-11.357
		c0-5.06,1.063-8.772,3.19-11.138c2.126-2.365,4.968-3.547,8.525-3.547c3.226,0,5.518,0.908,6.875,2.723
		c1.356,1.815,2.035,4.354,2.035,7.617C262.308,49.08,262.216,50.602,262.033,52.141z M244.763,49.886l14.575-0.22
		c0.11-0.88,0.165-1.833,0.165-2.86c0-2.273-0.495-4.023-1.485-5.252c-0.99-1.228-2.604-1.842-4.84-1.842
		C248.008,39.712,245.203,43.104,244.763,49.886z"/>
	<path fill="#FFFFFF" d="M285.188,40.152c-2.054,0.037-3.979,0.367-5.775,0.99c-1.797,0.624-3.355,1.467-4.675,2.53v22.44h-2.97
		v-28.6h2.97v3.74c1.283-1.1,2.869-2.026,4.757-2.778c1.888-0.751,3.859-1.164,5.913-1.237L285.188,40.152z"/>
	<path fill="#FFFFFF" d="M291.127,59.292c0.953,1.357,2.348,2.447,4.182,3.272c1.832,0.825,3.646,1.237,5.443,1.237
		c1.943,0,3.576-0.522,4.896-1.567c1.318-1.045,1.979-2.429,1.979-4.152c0-1.173-0.357-2.126-1.072-2.86
		c-0.715-0.733-1.586-1.292-2.611-1.677c-1.027-0.385-2.439-0.815-4.236-1.292c-1.943-0.476-3.51-0.944-4.701-1.403
		c-1.193-0.458-2.201-1.146-3.025-2.062c-0.826-0.916-1.238-2.126-1.238-3.63c0-1.613,0.459-3.016,1.375-4.208
		c0.916-1.191,2.137-2.108,3.658-2.75c1.521-0.641,3.143-0.962,4.867-0.962c3.189,0,6.051,1.045,8.58,3.135l-1.045,2.035
		c-1.064-0.77-2.236-1.365-3.52-1.788c-1.285-0.421-2.586-0.632-3.906-0.632c-2.016,0-3.73,0.467-5.143,1.402
		c-1.41,0.935-2.117,2.137-2.117,3.603c0,0.917,0.303,1.66,0.908,2.228c0.605,0.569,1.365,1,2.283,1.292
		c0.916,0.294,2.18,0.642,3.795,1.045c2.125,0.514,3.85,1.018,5.17,1.513c1.318,0.495,2.447,1.284,3.381,2.365
		c0.936,1.082,1.404,2.54,1.404,4.373c0,2.677-0.908,4.804-2.723,6.38c-1.816,1.577-4.135,2.365-6.959,2.365
		c-2.127,0-4.227-0.458-6.297-1.375c-2.072-0.916-3.713-2.218-4.922-3.905L291.127,59.292z"/>
	<path fill="#FFFFFF" d="M331.992,66.112c-1.467,0.22-2.823,0.33-4.069,0.33c-2.311,0-4.125-0.413-5.445-1.238
		c-1.32-0.825-2.255-2.062-2.805-3.712s-0.825-3.813-0.825-6.49v-15.18h-3.3v-2.31h3.3v-7.26h2.805v7.26h8.306v2.31h-8.306v15.235
		c0,2.237,0.221,4.006,0.66,5.308c0.44,1.302,1.164,2.237,2.173,2.805c1.008,0.569,2.373,0.853,4.098,0.853
		c0.88,0,1.869-0.055,2.97-0.165L331.992,66.112z"/>
	<path fill="#FFFFFF" d="M352.782,38.172c1.282,0.624,2.235,1.696,2.859,3.217c0.623,1.522,0.936,3.622,0.936,6.298v18.425h-2.641
		v-3.85c-2.714,2.824-5.849,4.235-9.404,4.235c-2.86,0-4.97-0.751-6.325-2.255c-1.357-1.503-2.035-3.41-2.035-5.72
		c0-2.64,0.806-4.675,2.42-6.105c1.613-1.43,3.979-2.163,7.095-2.2h7.976v-0.715c0-2.566-0.192-4.528-0.578-5.885
		c-0.385-1.356-1.045-2.31-1.979-2.86c-0.936-0.55-2.265-0.825-3.987-0.825c-2.42,0-5.354,0.495-8.801,1.485l-0.604-2.09
		c1.723-0.696,3.383-1.218,4.978-1.567c1.595-0.348,3.254-0.522,4.978-0.522C349.793,37.237,351.498,37.549,352.782,38.172z
		 M340.627,62.344c1.026,0.972,2.456,1.458,4.29,1.458c1.393,0,2.841-0.32,4.345-0.962c1.503-0.641,2.97-1.513,4.4-2.612v-7.59
		h-8.141c-2.31,0-3.96,0.532-4.949,1.595c-0.99,1.064-1.485,2.42-1.485,4.07C339.087,60.026,339.599,61.373,340.627,62.344z"/>
	<path fill="#FFFFFF" d="M386.276,38.172c1.173,0.624,2.035,1.687,2.585,3.19c0.55,1.504,0.825,3.557,0.825,6.16v18.59h-2.97v-17.93
		c0-2.2-0.185-3.858-0.55-4.978c-0.367-1.118-0.954-1.897-1.761-2.337s-1.962-0.66-3.465-0.66c-1.54,0-3.099,0.22-4.675,0.66
		c-1.577,0.44-3.3,1.155-5.17,2.145v23.1h-2.97v-28.6h2.97v3.355c1.686-1.21,3.354-2.117,5.005-2.722s3.483-0.908,5.5-0.908
		C383.545,37.237,385.102,37.549,386.276,38.172z"/>
	<path fill="#FFFFFF" d="M420.926,65.342c-1.504,0.477-3.217,0.853-5.143,1.127s-3.602,0.413-5.033,0.413
		c-7.809,0-11.714-4.821-11.714-14.465c0-5.28,1.108-9.167,3.328-11.66c2.219-2.493,5.326-3.74,9.322-3.74
		c2.09,0,4.143,0.275,6.16,0.825v-15.73h3.025L420.926,65.342z M404.317,61.547c1.576,1.834,3.941,2.75,7.094,2.75
		c1.65,0,3.795-0.256,6.436-0.77v-22.99c-2.09-0.55-3.979-0.825-5.664-0.825c-3.301,0-5.83,1-7.592,2.998
		c-1.76,1.999-2.639,5.252-2.639,9.762C401.951,56.689,402.739,59.714,404.317,61.547z"/>
	<path fill="#FFFFFF" d="M459.699,66.112c-1.467,0.22-2.824,0.33-4.07,0.33c-2.311,0-4.125-0.413-5.445-1.238
		c-1.32-0.825-2.254-2.062-2.805-3.712c-0.549-1.65-0.824-3.813-0.824-6.49v-15.18h-3.301v-2.31h3.301v-7.26h2.805v7.26h8.305v2.31
		h-8.305v15.235c0,2.237,0.221,4.006,0.66,5.308c0.439,1.302,1.164,2.237,2.172,2.805c1.008,0.569,2.373,0.853,4.098,0.853
		c0.881,0,1.869-0.055,2.971-0.165L459.699,66.112z"/>
	<path fill="#FFFFFF" d="M484.723,38.172c1.174,0.624,2.035,1.687,2.586,3.19c0.549,1.504,0.824,3.557,0.824,6.16v18.59h-2.969
		v-17.93c0-2.2-0.186-3.858-0.551-4.978c-0.367-1.118-0.953-1.897-1.76-2.337s-1.963-0.66-3.465-0.66
		c-1.504,0-3.035,0.22-4.594,0.66s-3.271,1.137-5.141,2.09v23.155h-2.916v-44h2.916v18.7c1.648-1.173,3.289-2.062,4.922-2.667
		c1.631-0.605,3.455-0.908,5.473-0.908C481.992,37.237,483.549,37.549,484.723,38.172z"/>
	<path fill="#FFFFFF" d="M517.889,52.141l-17.324,0.055c0.035,4.4,0.896,7.499,2.584,9.295c1.686,1.797,3.924,2.695,6.711,2.695
		c1.246,0,2.428-0.138,3.547-0.413c1.117-0.275,2.447-0.668,3.988-1.183l0.494,2.365c-1.797,0.697-3.273,1.2-4.428,1.512
		c-1.154,0.311-2.412,0.468-3.768,0.468c-3.666,0-6.609-1.219-8.828-3.658c-2.219-2.438-3.326-6.224-3.326-11.357
		c0-5.06,1.062-8.772,3.189-11.138c2.127-2.365,4.969-3.547,8.525-3.547c3.227,0,5.518,0.908,6.875,2.723
		c1.355,1.815,2.035,4.354,2.035,7.617C518.164,49.08,518.073,50.602,517.889,52.141z M500.619,49.886l14.574-0.22
		c0.109-0.88,0.166-1.833,0.166-2.86c0-2.273-0.496-4.023-1.486-5.252c-0.99-1.228-2.604-1.842-4.84-1.842
		C503.864,39.712,501.059,43.104,500.619,49.886z"/>
	<path fill="#FFFFFF" d="M561.557,65.342c-1.504,0.477-3.217,0.853-5.141,1.127c-1.926,0.275-3.604,0.413-5.033,0.413
		c-7.811,0-11.715-4.821-11.715-14.465c0-5.28,1.107-9.167,3.326-11.66c2.219-2.493,5.326-3.74,9.324-3.74
		c2.09,0,4.143,0.275,6.16,0.825v-15.73h3.023L561.557,65.342z M544.948,61.547c1.576,1.834,3.941,2.75,7.096,2.75
		c1.65,0,3.795-0.256,6.436-0.77v-22.99c-2.092-0.55-3.98-0.825-5.666-0.825c-3.301,0-5.83,1-7.59,2.998
		c-1.76,1.999-2.641,5.252-2.641,9.762C542.582,56.689,543.371,59.714,544.948,61.547z"/>
	<path fill="#FFFFFF" d="M572.996,29.812c-0.439-0.44-0.66-0.99-0.66-1.65c0-0.623,0.221-1.155,0.66-1.595
		c0.441-0.44,0.99-0.66,1.65-0.66c0.586,0,1.109,0.22,1.568,0.66c0.457,0.44,0.688,0.972,0.688,1.595c0,0.66-0.221,1.21-0.66,1.65
		c-0.441,0.44-0.973,0.66-1.596,0.66C573.987,30.471,573.438,30.252,572.996,29.812z M573.108,37.511h2.969v28.6h-2.969V37.511z"/>
	<path fill="#FFFFFF" d="M607.535,37.511l-10.34,28.6h-3.08l-10.34-28.6h3.355l8.525,25.795l8.58-25.795H607.535z"/>
	<path fill="#FFFFFF" d="M633.442,52.141l-17.324,0.055c0.035,4.4,0.896,7.499,2.584,9.295c1.686,1.797,3.924,2.695,6.711,2.695
		c1.246,0,2.428-0.138,3.547-0.413c1.117-0.275,2.447-0.668,3.988-1.183l0.494,2.365c-1.797,0.697-3.273,1.2-4.428,1.512
		c-1.154,0.311-2.412,0.468-3.768,0.468c-3.666,0-6.609-1.219-8.828-3.658c-2.219-2.438-3.326-6.224-3.326-11.357
		c0-5.06,1.062-8.772,3.189-11.138c2.127-2.365,4.969-3.547,8.525-3.547c3.227,0,5.518,0.908,6.875,2.723
		c1.355,1.815,2.035,4.354,2.035,7.617C633.717,49.08,633.625,50.602,633.442,52.141z M616.172,49.886l14.574-0.22
		c0.109-0.88,0.166-1.833,0.166-2.86c0-2.273-0.496-4.023-1.486-5.252c-0.99-1.228-2.604-1.842-4.84-1.842
		C619.416,39.712,616.612,43.104,616.172,49.886z"/>
	<path fill="#FFFFFF" d="M656.596,40.152c-2.055,0.037-3.979,0.367-5.775,0.99c-1.797,0.624-3.354,1.467-4.674,2.53v22.44h-2.971
		v-28.6h2.971v3.74c1.283-1.1,2.867-2.026,4.758-2.778c1.887-0.751,3.857-1.164,5.912-1.237L656.596,40.152z"/>
	<path fill="#FFFFFF" d="M662.535,59.292c0.953,1.357,2.346,2.447,4.18,3.272c1.834,0.825,3.648,1.237,5.445,1.237
		c1.943,0,3.574-0.522,4.895-1.567s1.98-2.429,1.98-4.152c0-1.173-0.357-2.126-1.072-2.86c-0.715-0.733-1.586-1.292-2.613-1.677
		c-1.027-0.385-2.439-0.815-4.234-1.292c-1.943-0.476-3.512-0.944-4.703-1.403c-1.191-0.458-2.199-1.146-3.025-2.062
		c-0.824-0.916-1.236-2.126-1.236-3.63c0-1.613,0.457-3.016,1.375-4.208c0.916-1.191,2.135-2.108,3.656-2.75
		c1.521-0.641,3.145-0.962,4.869-0.962c3.189,0,6.049,1.045,8.58,3.135l-1.047,2.035c-1.062-0.77-2.236-1.365-3.52-1.788
		c-1.283-0.421-2.584-0.632-3.904-0.632c-2.018,0-3.732,0.467-5.143,1.402c-1.412,0.935-2.117,2.137-2.117,3.603
		c0,0.917,0.303,1.66,0.906,2.228c0.605,0.569,1.367,1,2.283,1.292c0.916,0.294,2.182,0.642,3.795,1.045
		c2.127,0.514,3.85,1.018,5.17,1.513s2.447,1.284,3.383,2.365c0.936,1.082,1.402,2.54,1.402,4.373c0,2.677-0.908,4.804-2.723,6.38
		c-1.814,1.577-4.135,2.365-6.957,2.365c-2.127,0-4.227-0.458-6.297-1.375c-2.072-0.916-3.713-2.218-4.924-3.905L662.535,59.292z"/>
	<path fill="#FFFFFF" d="M690.254,29.812c-0.439-0.44-0.66-0.99-0.66-1.65c0-0.623,0.221-1.155,0.66-1.595
		c0.441-0.44,0.99-0.66,1.65-0.66c0.586,0,1.109,0.22,1.568,0.66c0.457,0.44,0.688,0.972,0.688,1.595c0,0.66-0.221,1.21-0.66,1.65
		c-0.441,0.44-0.973,0.66-1.596,0.66C691.244,30.471,690.696,30.252,690.254,29.812z M690.365,37.511h2.969v28.6h-2.969V37.511z"/>
	<path fill="#FFFFFF" d="M717.918,66.112c-1.467,0.22-2.822,0.33-4.068,0.33c-2.311,0-4.125-0.413-5.445-1.238
		c-1.32-0.825-2.256-2.062-2.805-3.712c-0.551-1.65-0.826-3.813-0.826-6.49v-15.18h-3.299v-2.31h3.299v-7.26h2.805v7.26h8.307v2.31
		h-8.307v15.235c0,2.237,0.221,4.006,0.66,5.308c0.441,1.302,1.164,2.237,2.174,2.805c1.008,0.569,2.373,0.853,4.098,0.853
		c0.879,0,1.869-0.055,2.969-0.165L717.918,66.112z"/>
	<path fill="#FFFFFF" d="M743.549,37.511l-13.695,39.6h-3.025l3.795-11l-9.9-28.6h3.246l8.139,24.86l8.416-24.86H743.549z"/>
	<path fill="#FFFFFF" d="M74.486,88.812c-0.44-0.44-0.66-0.99-0.66-1.65c0-0.623,0.22-1.155,0.66-1.595s0.99-0.66,1.65-0.66
		c0.586,0,1.109,0.22,1.567,0.66c0.458,0.44,0.688,0.972,0.688,1.595c0,0.66-0.22,1.21-0.66,1.65c-0.44,0.44-0.972,0.66-1.595,0.66
		C75.475,89.471,74.926,89.252,74.486,88.812z M74.595,96.511h2.97v28.6h-2.97V96.511z"/>
	<path fill="#FFFFFF" d="M107.265,97.172c1.173,0.624,2.035,1.687,2.585,3.19c0.55,1.504,0.825,3.557,0.825,6.16v18.59h-2.97v-17.93
		c0-2.2-0.184-3.858-0.55-4.978c-0.367-1.118-0.954-1.897-1.76-2.337c-0.807-0.44-1.962-0.66-3.465-0.66
		c-1.54,0-3.099,0.22-4.675,0.66c-1.577,0.44-3.3,1.155-5.17,2.145v23.1h-2.97v-28.6h2.97v3.355c1.686-1.21,3.355-2.117,5.005-2.722
		s3.483-0.908,5.5-0.908C104.533,96.237,106.091,96.549,107.265,97.172z"/>
	<path fill="#FFFFFF" d="M149.395,125.112c-1.467,0.22-2.824,0.33-4.07,0.33c-2.31,0-4.125-0.413-5.445-1.238
		c-1.32-0.825-2.255-2.062-2.805-3.712c-0.55-1.65-0.825-3.813-0.825-6.49v-15.18h-3.3v-2.31h3.3v-7.26h2.805v7.26h8.305v2.31
		h-8.305v15.235c0,2.237,0.22,4.006,0.66,5.308c0.44,1.302,1.164,2.237,2.173,2.805c1.008,0.569,2.374,0.853,4.097,0.853
		c0.88,0,1.87-0.055,2.97-0.165L149.395,125.112z"/>
	<path fill="#FFFFFF" d="M174.419,97.172c1.173,0.624,2.035,1.687,2.585,3.19c0.55,1.504,0.825,3.557,0.825,6.16v18.59h-2.97v-17.93
		c0-2.2-0.184-3.858-0.55-4.978c-0.367-1.118-0.954-1.897-1.76-2.337c-0.807-0.44-1.962-0.66-3.465-0.66
		c-1.504,0-3.034,0.22-4.592,0.66c-1.559,0.44-3.272,1.137-5.143,2.09v23.155h-2.915v-44h2.915v18.7
		c1.65-1.173,3.291-2.062,4.922-2.667c1.631-0.605,3.456-0.908,5.473-0.908C171.687,96.237,173.245,96.549,174.419,97.172z"/>
	<path fill="#FFFFFF" d="M207.584,111.141l-17.325,0.055c0.036,4.4,0.898,7.499,2.585,9.295c1.686,1.797,3.923,2.695,6.71,2.695
		c1.246,0,2.428-0.138,3.547-0.413c1.118-0.275,2.447-0.668,3.987-1.183l0.495,2.365c-1.797,0.697-3.272,1.2-4.427,1.512
		c-1.155,0.311-2.412,0.468-3.768,0.468c-3.667,0-6.609-1.219-8.828-3.658c-2.219-2.438-3.328-6.224-3.328-11.357
		c0-5.06,1.063-8.772,3.19-11.138c2.126-2.365,4.968-3.547,8.525-3.547c3.226,0,5.518,0.908,6.875,2.723
		c1.356,1.815,2.035,4.354,2.035,7.617C207.859,108.08,207.767,109.602,207.584,111.141z M190.314,108.886l14.575-0.22
		c0.11-0.88,0.165-1.833,0.165-2.86c0-2.273-0.495-4.023-1.485-5.252c-0.99-1.228-2.604-1.842-4.84-1.842
		C193.559,98.712,190.754,102.104,190.314,108.886z"/>
	<path fill="#FFFFFF" d="M264.013,96.511l-7.59,28.6h-3.08l-7.48-22l-7.535,22h-3.08l-7.59-28.6h3.3l5.995,25.025l7.48-22.55h2.805
		l7.48,22.55l5.995-25.025H264.013z"/>
	<path fill="#FFFFFF" d="M272.428,122.334c-1.907-2.328-2.86-6.114-2.86-11.357c0-5.17,0.962-8.919,2.888-11.248
		c1.925-2.328,4.922-3.493,8.992-3.493c4.07,0,7.068,1.165,8.993,3.493c1.925,2.329,2.888,6.059,2.888,11.192
		c0,5.207-0.973,8.993-2.915,11.357c-1.944,2.365-4.969,3.547-9.075,3.547C277.304,125.826,274.334,124.663,272.428,122.334z
		 M288.13,120.326c1.411-1.943,2.118-5.188,2.118-9.735c0-2.933-0.285-5.271-0.853-7.013c-0.569-1.741-1.477-2.997-2.723-3.767
		c-1.247-0.77-2.934-1.155-5.06-1.155c-2.2,0-3.951,0.413-5.252,1.238c-1.302,0.825-2.246,2.145-2.833,3.96
		c-0.587,1.815-0.88,4.226-0.88,7.232c0,3.007,0.293,5.39,0.88,7.15c0.586,1.76,1.494,3.035,2.723,3.822
		c1.228,0.789,2.869,1.183,4.922,1.183C284.399,123.241,286.719,122.27,288.13,120.326z"/>
	<path fill="#FFFFFF" d="M316.153,99.152c-2.055,0.037-3.979,0.367-5.775,0.99c-1.797,0.624-3.354,1.467-4.675,2.53v22.44h-2.97
		v-28.6h2.97v3.74c1.283-1.1,2.868-2.026,4.758-2.778c1.888-0.751,3.858-1.164,5.912-1.237L316.153,99.152z"/>
	<path fill="#FFFFFF" d="M323.522,81.112h2.915v44h-2.915V81.112z"/>
	<path fill="#FFFFFF" d="M357.73,124.342c-1.504,0.477-3.217,0.853-5.142,1.127c-1.926,0.275-3.603,0.413-5.033,0.413
		c-7.81,0-11.715-4.821-11.715-14.465c0-5.28,1.108-9.167,3.327-11.66c2.219-2.493,5.326-3.74,9.323-3.74
		c2.09,0,4.143,0.275,6.16,0.825v-15.73h3.024L357.73,124.342z M341.121,120.547c1.576,1.834,3.941,2.75,7.095,2.75
		c1.65,0,3.795-0.256,6.436-0.77v-22.99c-2.091-0.55-3.979-0.825-5.665-0.825c-3.301,0-5.83,1-7.591,2.998
		c-1.76,1.999-2.64,5.252-2.64,9.762C338.756,115.689,339.544,118.714,341.121,120.547z"/>
	<path fill="#FFFFFF" d="M397.549,88.812c-0.44-0.44-0.66-0.99-0.66-1.65c0-0.623,0.22-1.155,0.66-1.595s0.99-0.66,1.65-0.66
		c0.586,0,1.108,0.22,1.567,0.66c0.459,0.44,0.688,0.972,0.688,1.595c0,0.66-0.221,1.21-0.66,1.65c-0.44,0.44-0.971,0.66-1.594,0.66
		C398.539,89.471,397.989,89.252,397.549,88.812z M397.659,96.511h2.97v28.6h-2.97V96.511z"/>
	<path fill="#FFFFFF" d="M425.213,125.112c-1.467,0.22-2.824,0.33-4.07,0.33c-2.311,0-4.125-0.413-5.445-1.238
		c-1.32-0.825-2.254-2.062-2.805-3.712c-0.549-1.65-0.824-3.813-0.824-6.49v-15.18h-3.301v-2.31h3.301v-7.26h2.805v7.26h8.305v2.31
		h-8.305v15.235c0,2.237,0.221,4.006,0.66,5.308c0.439,1.302,1.164,2.237,2.172,2.805c1.008,0.569,2.373,0.853,4.098,0.853
		c0.881,0,1.869-0.055,2.971-0.165L425.213,125.112z"/>
	<path fill="#FFFFFF" d="M446.332,88.812c-0.441-0.44-0.66-0.99-0.66-1.65c0-0.623,0.219-1.155,0.66-1.595
		c0.439-0.44,0.99-0.66,1.65-0.66c0.586,0,1.107,0.22,1.566,0.66s0.688,0.972,0.688,1.595c0,0.66-0.221,1.21-0.66,1.65
		c-0.439,0.44-0.971,0.66-1.594,0.66C447.323,89.471,446.772,89.252,446.332,88.812z M446.442,96.511h2.971v28.6h-2.971V96.511z"/>
	<path fill="#FFFFFF" d="M459.531,118.292c0.953,1.357,2.346,2.447,4.18,3.272c1.834,0.825,3.648,1.237,5.445,1.237
		c1.943,0,3.574-0.522,4.895-1.567s1.98-2.429,1.98-4.152c0-1.173-0.357-2.126-1.072-2.86c-0.715-0.733-1.586-1.292-2.613-1.677
		c-1.027-0.385-2.439-0.815-4.234-1.292c-1.943-0.476-3.512-0.944-4.703-1.403c-1.191-0.458-2.199-1.146-3.025-2.062
		c-0.824-0.916-1.236-2.126-1.236-3.63c0-1.613,0.457-3.016,1.375-4.208c0.916-1.191,2.135-2.108,3.656-2.75
		c1.521-0.641,3.145-0.962,4.869-0.962c3.189,0,6.049,1.045,8.58,3.135l-1.047,2.035c-1.062-0.77-2.236-1.365-3.52-1.788
		c-1.283-0.421-2.584-0.632-3.904-0.632c-2.018,0-3.732,0.467-5.143,1.402c-1.412,0.935-2.117,2.137-2.117,3.603
		c0,0.917,0.303,1.66,0.906,2.228c0.605,0.569,1.367,1,2.283,1.292c0.916,0.294,2.182,0.642,3.795,1.045
		c2.127,0.514,3.85,1.018,5.17,1.513s2.447,1.284,3.383,2.365c0.936,1.082,1.402,2.54,1.402,4.373c0,2.677-0.908,4.804-2.723,6.38
		c-1.814,1.577-4.135,2.365-6.957,2.365c-2.127,0-4.227-0.458-6.297-1.375c-2.072-0.916-3.713-2.218-4.924-3.905L459.531,118.292z"
		/>
	<path fill="#FFFFFF" d="M519.699,97.172c1.174,0.624,2.035,1.687,2.586,3.19c0.549,1.504,0.824,3.557,0.824,6.16v18.59h-2.969
		v-17.93c0-2.2-0.186-3.858-0.551-4.978c-0.367-1.118-0.953-1.897-1.76-2.337s-1.963-0.66-3.465-0.66c-1.541,0-3.1,0.22-4.676,0.66
		s-3.299,1.155-5.17,2.145v23.1h-2.969v-28.6h2.969v3.355c1.686-1.21,3.355-2.117,5.006-2.722s3.482-0.908,5.5-0.908
		C516.969,96.237,518.526,96.549,519.699,97.172z"/>
	<path fill="#FFFFFF" d="M552.811,111.141l-17.326,0.055c0.037,4.4,0.898,7.499,2.586,9.295c1.686,1.797,3.922,2.695,6.709,2.695
		c1.246,0,2.43-0.138,3.547-0.413c1.119-0.275,2.449-0.668,3.988-1.183l0.496,2.365c-1.799,0.697-3.273,1.2-4.428,1.512
		c-1.156,0.311-2.412,0.468-3.768,0.468c-3.668,0-6.609-1.219-8.828-3.658c-2.219-2.438-3.328-6.224-3.328-11.357
		c0-5.06,1.064-8.772,3.191-11.138c2.125-2.365,4.967-3.547,8.523-3.547c3.227,0,5.52,0.908,6.875,2.723
		c1.357,1.815,2.035,4.354,2.035,7.617C553.084,108.08,552.992,109.602,552.811,111.141z M535.539,108.886l14.576-0.22
		c0.109-0.88,0.164-1.833,0.164-2.86c0-2.273-0.494-4.023-1.484-5.252c-0.99-1.228-2.604-1.842-4.84-1.842
		C538.785,98.712,535.981,102.104,535.539,108.886z"/>
	<path fill="#FFFFFF" d="M563.506,99.647c2.072-2.273,4.85-3.41,8.334-3.41c1.355,0,2.723,0.165,4.098,0.495
		s2.611,0.789,3.711,1.375l-0.715,2.255c-2.127-0.953-4.326-1.43-6.6-1.43c-3.008,0-5.252,0.899-6.738,2.695
		c-1.484,1.797-2.227,4.749-2.227,8.855c0,8.177,2.988,12.265,8.965,12.265c1.834,0,4.197-0.385,7.096-1.155l0.494,2.145
		c-2.971,1.174-5.574,1.76-7.811,1.76c-3.482,0-6.307-1.21-8.469-3.63c-2.164-2.42-3.246-6.196-3.246-11.33
		C560.399,105.551,561.436,101.921,563.506,99.647z"/>
	<path fill="#FFFFFF" d="M606.93,111.141l-17.326,0.055c0.037,4.4,0.898,7.499,2.586,9.295c1.686,1.797,3.922,2.695,6.709,2.695
		c1.246,0,2.43-0.138,3.547-0.413c1.119-0.275,2.449-0.668,3.988-1.183l0.496,2.365c-1.799,0.697-3.273,1.2-4.428,1.512
		c-1.156,0.311-2.412,0.468-3.768,0.468c-3.668,0-6.609-1.219-8.828-3.658c-2.219-2.438-3.328-6.224-3.328-11.357
		c0-5.06,1.064-8.772,3.191-11.138c2.125-2.365,4.967-3.547,8.523-3.547c3.227,0,5.52,0.908,6.875,2.723
		c1.357,1.815,2.035,4.354,2.035,7.617C607.203,108.08,607.112,109.602,606.93,111.141z M589.658,108.886l14.576-0.22
		c0.109-0.88,0.164-1.833,0.164-2.86c0-2.273-0.494-4.023-1.484-5.252c-0.99-1.228-2.604-1.842-4.84-1.842
		C592.905,98.712,590.1,102.104,589.658,108.886z"/>
	<path fill="#FFFFFF" d="M615.233,118.292c0.953,1.357,2.348,2.447,4.182,3.272c1.832,0.825,3.646,1.237,5.443,1.237
		c1.943,0,3.576-0.522,4.896-1.567c1.318-1.045,1.979-2.429,1.979-4.152c0-1.173-0.357-2.126-1.072-2.86
		c-0.715-0.733-1.586-1.292-2.611-1.677c-1.027-0.385-2.439-0.815-4.236-1.292c-1.943-0.476-3.51-0.944-4.701-1.403
		c-1.193-0.458-2.201-1.146-3.025-2.062c-0.826-0.916-1.238-2.126-1.238-3.63c0-1.613,0.459-3.016,1.375-4.208
		c0.916-1.191,2.137-2.108,3.658-2.75c1.521-0.641,3.143-0.962,4.867-0.962c3.189,0,6.051,1.045,8.58,3.135l-1.045,2.035
		c-1.064-0.77-2.236-1.365-3.52-1.788c-1.285-0.421-2.586-0.632-3.906-0.632c-2.016,0-3.73,0.467-5.143,1.402
		c-1.41,0.935-2.117,2.137-2.117,3.603c0,0.917,0.303,1.66,0.908,2.228c0.605,0.569,1.365,1,2.283,1.292
		c0.916,0.294,2.18,0.642,3.795,1.045c2.125,0.514,3.85,1.018,5.17,1.513c1.318,0.495,2.447,1.284,3.381,2.365
		c0.936,1.082,1.404,2.54,1.404,4.373c0,2.677-0.908,4.804-2.723,6.38c-1.816,1.577-4.135,2.365-6.959,2.365
		c-2.127,0-4.227-0.458-6.297-1.375c-2.072-0.916-3.713-2.218-4.922-3.905L615.233,118.292z"/>
	<path fill="#FFFFFF" d="M641.633,118.292c0.953,1.357,2.346,2.447,4.18,3.272c1.834,0.825,3.648,1.237,5.445,1.237
		c1.943,0,3.574-0.522,4.895-1.567s1.98-2.429,1.98-4.152c0-1.173-0.357-2.126-1.072-2.86c-0.715-0.733-1.586-1.292-2.613-1.677
		c-1.027-0.385-2.439-0.815-4.234-1.292c-1.943-0.476-3.512-0.944-4.703-1.403c-1.191-0.458-2.199-1.146-3.025-2.062
		c-0.824-0.916-1.236-2.126-1.236-3.63c0-1.613,0.457-3.016,1.375-4.208c0.916-1.191,2.135-2.108,3.656-2.75
		c1.521-0.641,3.145-0.962,4.869-0.962c3.189,0,6.049,1.045,8.58,3.135l-1.047,2.035c-1.062-0.77-2.236-1.365-3.52-1.788
		c-1.283-0.421-2.584-0.632-3.904-0.632c-2.018,0-3.732,0.467-5.143,1.402c-1.412,0.935-2.117,2.137-2.117,3.603
		c0,0.917,0.303,1.66,0.906,2.228c0.605,0.569,1.367,1,2.283,1.292c0.916,0.294,2.182,0.642,3.795,1.045
		c2.127,0.514,3.85,1.018,5.17,1.513s2.447,1.284,3.383,2.365c0.936,1.082,1.402,2.54,1.402,4.373c0,2.677-0.908,4.804-2.723,6.38
		c-1.814,1.577-4.135,2.365-6.957,2.365c-2.127,0-4.227-0.458-6.297-1.375c-2.072-0.916-3.713-2.218-4.924-3.905L641.633,118.292z"
		/>
	<path fill="#FFFFFF" d="M683.213,97.172c1.281,0.624,2.234,1.696,2.859,3.217c0.623,1.522,0.936,3.622,0.936,6.298v18.425h-2.641
		v-3.85c-2.715,2.824-5.85,4.235-9.404,4.235c-2.861,0-4.971-0.751-6.326-2.255c-1.357-1.503-2.035-3.41-2.035-5.72
		c0-2.64,0.807-4.675,2.42-6.105c1.613-1.43,3.979-2.163,7.096-2.2h7.975v-0.715c0-2.566-0.191-4.528-0.578-5.885
		c-0.385-1.356-1.045-2.31-1.979-2.86c-0.936-0.55-2.266-0.825-3.988-0.825c-2.42,0-5.354,0.495-8.801,1.485l-0.604-2.09
		c1.723-0.696,3.383-1.218,4.977-1.567c1.596-0.348,3.254-0.522,4.979-0.522C680.223,96.237,681.928,96.549,683.213,97.172z
		 M671.057,121.344c1.027,0.972,2.457,1.458,4.291,1.458c1.393,0,2.84-0.32,4.344-0.962c1.504-0.641,2.971-1.513,4.4-2.612v-7.59
		h-8.141c-2.309,0-3.959,0.532-4.949,1.595c-0.99,1.064-1.484,2.42-1.484,4.07C669.518,119.026,670.03,120.373,671.057,121.344z"/>
	<path fill="#FFFFFF" d="M711.977,99.152c-2.055,0.037-3.979,0.367-5.775,0.99c-1.797,0.624-3.354,1.467-4.674,2.53v22.44h-2.971
		v-28.6h2.971v3.74c1.283-1.1,2.867-2.026,4.758-2.778c1.887-0.751,3.857-1.164,5.912-1.237L711.977,99.152z"/>
	<path fill="#FFFFFF" d="M737.936,96.511l-13.695,39.6h-3.025l3.797-11l-9.9-28.6h3.244l8.141,24.86l8.414-24.86H737.936z"/>
	<path fill="#FFFFFF" d="M112.628,184.112c-1.467,0.22-2.824,0.33-4.07,0.33c-2.31,0-4.125-0.413-5.445-1.238
		c-1.32-0.825-2.255-2.062-2.805-3.712c-0.55-1.65-0.825-3.813-0.825-6.49v-15.18h-3.3v-2.31h3.3v-7.26h2.805v7.26h8.305v2.31
		h-8.305v15.235c0,2.237,0.22,4.006,0.66,5.308c0.44,1.302,1.164,2.237,2.173,2.805c1.008,0.569,2.374,0.853,4.097,0.853
		c0.88,0,1.87-0.055,2.97-0.165L112.628,184.112z"/>
	<path fill="#FFFFFF" d="M120.383,181.334c-1.907-2.328-2.86-6.114-2.86-11.357c0-5.17,0.962-8.919,2.888-11.248
		c1.925-2.328,4.922-3.493,8.992-3.493c4.07,0,7.068,1.165,8.993,3.493c1.925,2.329,2.888,6.059,2.888,11.192
		c0,5.207-0.972,8.993-2.915,11.357c-1.944,2.365-4.969,3.547-9.075,3.547C125.259,184.826,122.288,183.663,120.383,181.334z
		 M136.085,179.326c1.411-1.943,2.118-5.188,2.118-9.735c0-2.933-0.285-5.271-0.853-7.013c-0.569-1.741-1.477-2.997-2.723-3.767
		c-1.247-0.77-2.934-1.155-5.06-1.155c-2.2,0-3.951,0.413-5.252,1.238c-1.302,0.825-2.246,2.145-2.833,3.96
		c-0.587,1.815-0.88,4.226-0.88,7.232c0,3.007,0.293,5.39,0.88,7.15c0.586,1.76,1.494,3.035,2.723,3.822
		c1.228,0.789,2.869,1.183,4.922,1.183C132.353,182.241,134.673,181.27,136.085,179.326z"/>
	<path fill="#FFFFFF" d="M178.297,158.152c-2.054,0.037-3.979,0.367-5.775,0.99c-1.797,0.624-3.355,1.467-4.675,2.53v22.44h-2.97
		v-28.6h2.97v3.74c1.283-1.1,2.869-2.026,4.757-2.778c1.888-0.751,3.859-1.164,5.913-1.237L178.297,158.152z"/>
	<path fill="#FFFFFF" d="M203.871,170.141l-17.325,0.055c0.036,4.4,0.898,7.499,2.585,9.295c1.686,1.797,3.923,2.695,6.71,2.695
		c1.246,0,2.428-0.138,3.547-0.413c1.118-0.275,2.447-0.668,3.987-1.183l0.495,2.365c-1.797,0.697-3.272,1.2-4.427,1.512
		c-1.155,0.311-2.412,0.468-3.768,0.468c-3.667,0-6.609-1.219-8.828-3.658c-2.219-2.438-3.328-6.224-3.328-11.357
		c0-5.06,1.063-8.772,3.19-11.138c2.126-2.365,4.968-3.547,8.525-3.547c3.226,0,5.518,0.908,6.875,2.723
		c1.356,1.815,2.035,4.354,2.035,7.617C204.146,167.08,204.054,168.602,203.871,170.141z M186.601,167.886l14.575-0.22
		c0.11-0.88,0.165-1.833,0.165-2.86c0-2.273-0.495-4.023-1.485-5.252c-0.99-1.228-2.604-1.842-4.84-1.842
		C189.846,157.712,187.041,161.104,186.601,167.886z"/>
	<path fill="#FFFFFF" d="M214.569,158.647c2.071-2.273,4.849-3.41,8.333-3.41c1.356,0,2.723,0.165,4.098,0.495
		s2.612,0.789,3.712,1.375l-0.715,2.255c-2.127-0.953-4.327-1.43-6.6-1.43c-3.007,0-5.252,0.899-6.737,2.695
		c-1.485,1.797-2.228,4.749-2.228,8.855c0,8.177,2.988,12.265,8.965,12.265c1.833,0,4.198-0.385,7.095-1.155l0.495,2.145
		c-2.97,1.174-5.574,1.76-7.81,1.76c-3.484,0-6.307-1.21-8.47-3.63c-2.164-2.42-3.245-6.196-3.245-11.33
		C211.461,164.551,212.497,160.921,214.569,158.647z"/>
	<path fill="#FFFFFF" d="M240.501,181.334c-1.907-2.328-2.86-6.114-2.86-11.357c0-5.17,0.962-8.919,2.888-11.248
		c1.925-2.328,4.922-3.493,8.992-3.493c4.07,0,7.068,1.165,8.993,3.493c1.925,2.329,2.888,6.059,2.888,11.192
		c0,5.207-0.972,8.993-2.915,11.357c-1.944,2.365-4.969,3.547-9.075,3.547C245.377,184.826,242.407,183.663,240.501,181.334z
		 M256.203,179.326c1.411-1.943,2.118-5.188,2.118-9.735c0-2.933-0.285-5.271-0.853-7.013c-0.569-1.741-1.477-2.997-2.723-3.767
		c-1.247-0.77-2.934-1.155-5.06-1.155c-2.2,0-3.951,0.413-5.252,1.238c-1.302,0.825-2.246,2.145-2.833,3.96
		c-0.587,1.815-0.88,4.226-0.88,7.232c0,3.007,0.293,5.39,0.88,7.15c0.586,1.76,1.494,3.035,2.723,3.822
		c1.228,0.789,2.869,1.183,4.922,1.183C252.472,182.241,254.792,181.27,256.203,179.326z"/>
	<path fill="#FFFFFF" d="M285.738,155.511c1.595,0.257,3.088,0.605,4.482,1.045v27.39c0,4.216-0.862,7.186-2.585,8.91
		c-1.724,1.723-4.29,2.585-7.7,2.585c-1.907,0-3.676-0.321-5.307-0.962c-1.632-0.642-3.254-1.568-4.868-2.778l1.045-1.76
		c1.43,0.99,2.933,1.732,4.51,2.228c1.576,0.495,2.97,0.742,4.18,0.742c2.603,0,4.556-0.624,5.857-1.87
		c1.301-1.247,1.953-3.465,1.953-6.655v-2.255c-2.457,1.76-5.134,2.64-8.03,2.64c-3.227,0-5.839-1.146-7.837-3.438
		c-1.999-2.291-2.998-5.949-2.998-10.973c0-5.353,1.164-9.23,3.492-11.632c2.328-2.401,5.473-3.603,9.433-3.603
		C282.685,155.127,284.143,155.256,285.738,155.511z M283.703,181.527c1.375-0.44,2.576-0.971,3.603-1.595v-21.395
		c-2.017-0.476-3.887-0.715-5.61-0.715c-3.447,0-6.032,0.908-7.755,2.723c-1.724,1.815-2.585,4.922-2.585,9.322
		c0,4.327,0.77,7.462,2.31,9.405c1.54,1.944,3.575,2.915,6.105,2.915C281.017,182.187,282.328,181.967,283.703,181.527z"/>
	<path fill="#FFFFFF" d="M319.92,156.172c1.173,0.624,2.035,1.687,2.585,3.19c0.55,1.504,0.825,3.557,0.825,6.16v18.59h-2.97v-17.93
		c0-2.2-0.185-3.858-0.55-4.978c-0.367-1.118-0.954-1.897-1.761-2.337s-1.962-0.66-3.465-0.66c-1.54,0-3.099,0.22-4.675,0.66
		c-1.577,0.44-3.3,1.155-5.17,2.145v23.1h-2.97v-28.6h2.97v3.355c1.686-1.21,3.354-2.117,5.005-2.722s3.483-0.908,5.5-0.908
		C317.188,155.237,318.746,155.549,319.92,156.172z"/>
	<path fill="#FFFFFF" d="M334.715,147.812c-0.44-0.44-0.66-0.99-0.66-1.65c0-0.623,0.22-1.155,0.66-1.595s0.99-0.66,1.65-0.66
		c0.586,0,1.108,0.22,1.567,0.66c0.458,0.44,0.688,0.972,0.688,1.595c0,0.66-0.221,1.21-0.66,1.65c-0.44,0.44-0.972,0.66-1.595,0.66
		C335.705,148.471,335.155,148.252,334.715,147.812z M334.825,155.511h2.97v28.6h-2.97V155.511z"/>
	<path fill="#FFFFFF" d="M366.779,181.417v2.695h-20.46v-3.025l16.225-22.935h-15.564v-2.64h18.535v2.75l-16.17,23.155H366.779z"/>
	<path fill="#FFFFFF" d="M393.509,170.141l-17.325,0.055c0.036,4.4,0.897,7.499,2.585,9.295c1.686,1.797,3.923,2.695,6.71,2.695
		c1.246,0,2.429-0.138,3.547-0.413s2.448-0.668,3.988-1.183l0.495,2.365c-1.798,0.697-3.273,1.2-4.428,1.512
		c-1.155,0.311-2.412,0.468-3.768,0.468c-3.667,0-6.609-1.219-8.828-3.658c-2.219-2.438-3.327-6.224-3.327-11.357
		c0-5.06,1.063-8.772,3.19-11.138c2.126-2.365,4.968-3.547,8.524-3.547c3.227,0,5.519,0.908,6.875,2.723s2.035,4.354,2.035,7.617
		C393.783,167.08,393.691,168.602,393.509,170.141z M376.238,167.886l14.575-0.22c0.109-0.88,0.165-1.833,0.165-2.86
		c0-2.273-0.495-4.023-1.485-5.252c-0.99-1.228-2.604-1.842-4.84-1.842C379.483,157.712,376.678,161.104,376.238,167.886z"/>
	<path fill="#FFFFFF" d="M417.323,147.812c-0.441-0.44-0.66-0.99-0.66-1.65c0-0.623,0.219-1.155,0.66-1.595
		c0.439-0.44,0.99-0.66,1.65-0.66c0.586,0,1.107,0.22,1.566,0.66s0.688,0.972,0.688,1.595c0,0.66-0.221,1.21-0.66,1.65
		c-0.439,0.44-0.971,0.66-1.594,0.66C418.313,148.471,417.762,148.252,417.323,147.812z M417.432,155.511h2.971v28.6h-2.971V155.511
		z"/>
	<path fill="#FFFFFF" d="M444.987,184.112c-1.467,0.22-2.824,0.33-4.07,0.33c-2.311,0-4.125-0.413-5.445-1.238
		c-1.32-0.825-2.254-2.062-2.805-3.712c-0.549-1.65-0.824-3.813-0.824-6.49v-15.18h-3.301v-2.31h3.301v-7.26h2.805v7.26h8.305v2.31
		h-8.305v15.235c0,2.237,0.221,4.006,0.66,5.308c0.439,1.302,1.164,2.237,2.172,2.805c1.008,0.569,2.373,0.853,4.098,0.853
		c0.881,0,1.869-0.055,2.971-0.165L444.987,184.112z"/>
	<path fill="#FFFFFF" d="M450.596,177.292c0.953,1.357,2.346,2.447,4.18,3.272c1.834,0.825,3.648,1.237,5.445,1.237
		c1.943,0,3.574-0.522,4.895-1.567s1.98-2.429,1.98-4.152c0-1.173-0.357-2.126-1.072-2.86c-0.715-0.733-1.586-1.292-2.613-1.677
		c-1.027-0.385-2.439-0.815-4.234-1.292c-1.943-0.476-3.512-0.944-4.703-1.403c-1.191-0.458-2.199-1.146-3.025-2.062
		c-0.824-0.916-1.236-2.126-1.236-3.63c0-1.613,0.457-3.016,1.375-4.208c0.916-1.191,2.135-2.108,3.656-2.75
		c1.521-0.641,3.145-0.962,4.869-0.962c3.189,0,6.049,1.045,8.58,3.135l-1.047,2.035c-1.062-0.77-2.236-1.365-3.52-1.788
		c-1.283-0.421-2.584-0.632-3.904-0.632c-2.018,0-3.732,0.467-5.143,1.402c-1.412,0.935-2.117,2.137-2.117,3.603
		c0,0.917,0.303,1.66,0.906,2.228c0.605,0.569,1.367,1,2.283,1.292c0.916,0.294,2.182,0.642,3.795,1.045
		c2.127,0.514,3.85,1.018,5.17,1.513s2.447,1.284,3.383,2.365c0.936,1.082,1.402,2.54,1.402,4.373c0,2.677-0.908,4.804-2.723,6.38
		c-1.814,1.577-4.135,2.365-6.957,2.365c-2.127,0-4.227-0.458-6.297-1.375c-2.072-0.916-3.713-2.218-4.924-3.905L450.596,177.292z"
		/>
	<path fill="#FFFFFF" d="M492.615,140.112h2.914v44h-2.914V140.112z"/>
	<path fill="#FFFFFF" d="M520.828,156.172c1.283,0.624,2.236,1.696,2.859,3.217c0.623,1.522,0.936,3.622,0.936,6.298v18.425h-2.641
		v-3.85c-2.713,2.824-5.848,4.235-9.404,4.235c-2.859,0-4.969-0.751-6.324-2.255c-1.357-1.503-2.035-3.41-2.035-5.72
		c0-2.64,0.805-4.675,2.42-6.105c1.613-1.43,3.979-2.163,7.094-2.2h7.977v-0.715c0-2.566-0.193-4.528-0.578-5.885
		c-0.385-1.356-1.045-2.31-1.98-2.86s-2.264-0.825-3.986-0.825c-2.42,0-5.355,0.495-8.801,1.485l-0.605-2.09
		c1.723-0.696,3.383-1.218,4.979-1.567c1.594-0.348,3.254-0.522,4.977-0.522C517.84,155.237,519.545,155.549,520.828,156.172z
		 M508.674,180.344c1.025,0.972,2.455,1.458,4.289,1.458c1.393,0,2.842-0.32,4.346-0.962c1.502-0.641,2.969-1.513,4.4-2.612v-7.59
		h-8.141c-2.311,0-3.961,0.532-4.949,1.595c-0.99,1.064-1.486,2.42-1.486,4.07C507.133,178.026,507.647,179.373,508.674,180.344z"/>
	<path fill="#FFFFFF" d="M554.323,156.172c1.174,0.624,2.035,1.687,2.586,3.19c0.549,1.504,0.824,3.557,0.824,6.16v18.59h-2.969
		v-17.93c0-2.2-0.186-3.858-0.551-4.978c-0.367-1.118-0.953-1.897-1.76-2.337s-1.963-0.66-3.465-0.66c-1.541,0-3.1,0.22-4.676,0.66
		s-3.299,1.155-5.17,2.145v23.1h-2.969v-28.6h2.969v3.355c1.686-1.21,3.355-2.117,5.006-2.722s3.482-0.908,5.5-0.908
		C551.592,155.237,553.149,155.549,554.323,156.172z"/>
	<path fill="#FFFFFF" d="M584.16,155.511c1.596,0.257,3.088,0.605,4.482,1.045v27.39c0,4.216-0.861,7.186-2.584,8.91
		c-1.725,1.723-4.291,2.585-7.701,2.585c-1.906,0-3.676-0.321-5.307-0.962c-1.633-0.642-3.256-1.568-4.867-2.778l1.045-1.76
		c1.43,0.99,2.932,1.732,4.51,2.228c1.576,0.495,2.969,0.742,4.18,0.742c2.604,0,4.555-0.624,5.857-1.87
		c1.301-1.247,1.953-3.465,1.953-6.655v-2.255c-2.457,1.76-5.135,2.64-8.031,2.64c-3.227,0-5.84-1.146-7.838-3.438
		c-1.998-2.291-2.996-5.949-2.996-10.973c0-5.353,1.162-9.23,3.492-11.632c2.328-2.401,5.473-3.603,9.432-3.603
		C581.108,155.127,582.565,155.256,584.16,155.511z M582.125,181.527c1.375-0.44,2.576-0.971,3.604-1.595v-21.395
		c-2.018-0.476-3.889-0.715-5.611-0.715c-3.447,0-6.031,0.908-7.754,2.723c-1.725,1.815-2.586,4.922-2.586,9.322
		c0,4.327,0.77,7.462,2.311,9.405c1.539,1.944,3.574,2.915,6.105,2.915C579.44,182.187,580.75,181.967,582.125,181.527z"/>
	<path fill="#FFFFFF" d="M620.653,155.511v28.6h-2.971v-2.97c-1.539,1.064-3.07,1.87-4.592,2.42
		c-1.521,0.55-3.127,0.825-4.812,0.825c-1.943,0-3.502-0.32-4.676-0.962c-1.174-0.641-2.033-1.713-2.584-3.217
		c-0.551-1.503-0.824-3.556-0.824-6.16v-18.535h3.023v18.04c0,2.2,0.184,3.869,0.551,5.005c0.365,1.137,0.953,1.925,1.76,2.365
		s1.943,0.66,3.41,0.66c2.383,0,5.299-0.898,8.744-2.695v-23.375H620.653z"/>
	<path fill="#FFFFFF" d="M645.951,156.172c1.283,0.624,2.236,1.696,2.859,3.217c0.623,1.522,0.936,3.622,0.936,6.298v18.425h-2.641
		v-3.85c-2.713,2.824-5.848,4.235-9.404,4.235c-2.859,0-4.969-0.751-6.324-2.255c-1.357-1.503-2.035-3.41-2.035-5.72
		c0-2.64,0.805-4.675,2.42-6.105c1.613-1.43,3.979-2.163,7.094-2.2h7.977v-0.715c0-2.566-0.193-4.528-0.578-5.885
		c-0.385-1.356-1.045-2.31-1.98-2.86s-2.264-0.825-3.986-0.825c-2.42,0-5.355,0.495-8.801,1.485l-0.605-2.09
		c1.723-0.696,3.383-1.218,4.979-1.567c1.594-0.348,3.254-0.522,4.977-0.522C642.963,155.237,644.668,155.549,645.951,156.172z
		 M633.797,180.344c1.025,0.972,2.455,1.458,4.289,1.458c1.393,0,2.842-0.32,4.346-0.962c1.502-0.641,2.969-1.513,4.4-2.612v-7.59
		h-8.141c-2.311,0-3.961,0.532-4.949,1.595c-0.99,1.064-1.486,2.42-1.486,4.07C632.256,178.026,632.77,179.373,633.797,180.344z"/>
	<path fill="#FFFFFF" d="M676.229,155.511c1.596,0.257,3.088,0.605,4.482,1.045v27.39c0,4.216-0.861,7.186-2.584,8.91
		c-1.725,1.723-4.291,2.585-7.701,2.585c-1.906,0-3.676-0.321-5.307-0.962c-1.633-0.642-3.256-1.568-4.867-2.778l1.045-1.76
		c1.43,0.99,2.932,1.732,4.51,2.228c1.576,0.495,2.969,0.742,4.18,0.742c2.604,0,4.555-0.624,5.857-1.87
		c1.301-1.247,1.953-3.465,1.953-6.655v-2.255c-2.457,1.76-5.135,2.64-8.031,2.64c-3.227,0-5.84-1.146-7.838-3.438
		c-1.998-2.291-2.996-5.949-2.996-10.973c0-5.353,1.162-9.23,3.492-11.632c2.328-2.401,5.473-3.603,9.432-3.603
		C673.176,155.127,674.633,155.256,676.229,155.511z M674.194,181.527c1.375-0.44,2.576-0.971,3.604-1.595v-21.395
		c-2.018-0.476-3.889-0.715-5.611-0.715c-3.447,0-6.031,0.908-7.754,2.723c-1.725,1.815-2.586,4.922-2.586,9.322
		c0,4.327,0.77,7.462,2.311,9.405c1.539,1.944,3.574,2.915,6.105,2.915C671.508,182.187,672.819,181.967,674.194,181.527z"/>
	<path fill="#FFFFFF" d="M710.467,170.141l-17.326,0.055c0.037,4.4,0.898,7.499,2.586,9.295c1.686,1.797,3.922,2.695,6.709,2.695
		c1.246,0,2.43-0.138,3.547-0.413c1.119-0.275,2.449-0.668,3.988-1.183l0.496,2.365c-1.799,0.697-3.273,1.2-4.428,1.512
		c-1.156,0.311-2.412,0.468-3.768,0.468c-3.668,0-6.609-1.219-8.828-3.658c-2.219-2.438-3.328-6.224-3.328-11.357
		c0-5.06,1.064-8.772,3.191-11.138c2.125-2.365,4.967-3.547,8.523-3.547c3.227,0,5.52,0.908,6.875,2.723
		c1.357,1.815,2.035,4.354,2.035,7.617C710.74,167.08,710.649,168.602,710.467,170.141z M693.196,167.886l14.576-0.22
		c0.109-0.88,0.164-1.833,0.164-2.86c0-2.273-0.494-4.023-1.484-5.252c-0.99-1.228-2.604-1.842-4.84-1.842
		C696.442,157.712,693.637,161.104,693.196,167.886z"/>
</g>
</svg>
