<?xml version="1.0" encoding="utf-8"?>
<!-- Generator: Adobe Illustrator 15.1.0, SVG Export Plug-In . SVG Version: 6.00 Build 0)  -->
<!DOCTYPE svg PUBLIC "-//W3C//DTD SVG 1.1//EN" "http://www.w3.org/Graphics/SVG/1.1/DTD/svg11.dtd">
<svg version="1.1" id="Abre" xmlns="http://www.w3.org/2000/svg" xmlns:xlink="http://www.w3.org/1999/xlink" x="0px" y="0px"
	 width="800px" height="250px" viewBox="0 -160.638 800 250" enable-background="new 0 -160.638 800 250" xml:space="preserve">
<g>
	<g>
		<path fill="#EC1C24" d="M391.129-140.646v17.542h-3.785v-11.074l-10.998,10.997c2.022,2.601,3.12,5.778,3.12,9.127
			c0,3.984-1.553,7.733-4.371,10.547c-2.82,2.819-6.562,4.371-10.545,4.371c-3.499,0-6.813-1.197-9.479-3.395
			c-2.177,1.796-4.787,2.924-7.576,3.274v7.489h8.636v3.786h-8.636v8.638h-3.79v-8.638h-8.632v-3.786h8.632v-7.489
			c-3.268-0.412-6.29-1.885-8.658-4.251c-2.812-2.813-4.364-6.562-4.364-10.547c0-3.983,1.553-7.726,4.364-10.543
			c2.82-2.816,6.57-4.369,10.553-4.369c3.497,0,6.809,1.196,9.472,3.395c2.665-2.198,5.979-3.395,9.479-3.395
			c3.342,0,6.515,1.093,9.116,3.109l10.994-10.999h-11.281v-3.79H391.129z M345.6-102.924c2.589,0,4.974-0.889,6.864-2.377
			c-1.838-2.528-2.831-5.565-2.831-8.754c0-3.188,0.993-6.223,2.833-8.75c-1.893-1.488-4.277-2.377-6.866-2.377
			c-6.138,0-11.127,4.992-11.127,11.127C334.473-107.922,339.462-102.924,345.6-102.924z M356.727-114.054
			c0-2.136-0.605-4.132-1.652-5.83c-1.048,1.698-1.652,3.694-1.652,5.83c0,2.135,0.604,4.133,1.652,5.829
			C356.121-109.921,356.727-111.919,356.727-114.054z M364.55-102.922c6.136,0,11.125-5,11.125-11.132
			c0-6.136-4.989-11.127-11.125-11.127c-2.591,0-4.978,0.89-6.87,2.378c1.843,2.527,2.835,5.562,2.835,8.748
			c0,3.188-0.992,6.224-2.832,8.751c1.891,1.489,4.276,2.38,6.867,2.38V-102.922z"/>
	</g>
	<g>
		<path fill="#EC1C24" d="M170.859-140.647v17.543h-3.786v-11.076l-10.999,11c2.023,2.6,3.119,5.778,3.119,9.127
			c0,3.983-1.551,7.732-4.37,10.546c-2.818,2.819-6.562,4.371-10.546,4.371c-3.498,0-6.813-1.196-9.478-3.396
			c-2.067,1.706-4.523,2.808-7.153,3.217v7.548h8.631v3.786h-8.631v8.634h-3.789v-8.634h-7.465v-3.786h7.465v-7.439
			c-2.952-0.287-5.721-1.436-8.009-3.324c-2.287,1.889-5.052,3.037-8.003,3.324v7.439h7.463v3.786h-7.463v8.634h-3.79v-8.634h-8.631
			v-3.786h8.631v-7.548c-3.104-0.48-5.967-1.928-8.23-4.192c-2.813-2.813-4.364-6.562-4.364-10.546
			c0-3.982,1.551-7.727,4.364-10.542c2.819-2.818,6.567-4.371,10.552-4.371c3.496,0,6.809,1.196,9.472,3.396
			c2.664-2.199,5.98-3.396,9.478-3.396s6.809,1.196,9.474,3.396c2.664-2.199,5.979-3.396,9.478-3.396
			c3.343,0,6.517,1.094,9.116,3.109l10.996-11.001h-11.282v-3.789H170.859z M106.376-102.922c2.588,0,4.974-0.89,6.864-2.379
			c-1.838-2.528-2.831-5.565-2.831-8.753c0-3.188,0.993-6.223,2.832-8.751c-1.892-1.488-4.276-2.376-6.865-2.376
			c-6.138,0-11.127,4.991-11.127,11.127C95.249-107.921,100.239-102.922,106.376-102.922z M115.851-108.225
			c1.048-1.696,1.652-3.694,1.652-5.829c0-2.136-0.604-4.132-1.652-5.83c-1.047,1.698-1.653,3.694-1.653,5.83
			C114.198-111.919,114.804-109.921,115.851-108.225z M125.325-125.181c-2.591,0-4.976,0.89-6.868,2.378
			c1.841,2.527,2.835,5.562,2.835,8.748c0,3.188-0.994,6.224-2.834,8.752c1.893,1.488,4.277,2.379,6.867,2.379
			c2.589,0,4.974-0.891,6.866-2.379c-1.838-2.528-2.832-5.563-2.832-8.752c0-3.187,0.994-6.221,2.833-8.748
			C130.3-124.291,127.914-125.181,125.325-125.181z M136.452-114.054c0-2.136-0.604-4.132-1.652-5.828
			c-1.046,1.696-1.65,3.692-1.65,5.828c0,2.135,0.604,4.131,1.65,5.828C135.848-109.923,136.452-111.919,136.452-114.054z
			 M155.404-114.054c0-6.136-4.991-11.127-11.127-11.127c-2.59,0-4.977,0.89-6.87,2.379c1.841,2.527,2.835,5.562,2.835,8.748
			c0,3.188-0.993,6.223-2.833,8.751c1.892,1.488,4.278,2.381,6.868,2.381C150.412-102.922,155.404-107.921,155.404-114.054z"/>
	</g>
	<g>
		<path fill="#EC1C24" d="M228.843-131.741v17.544h-3.787v-11.078l-10.458,10.463c1.679,2.453,2.581,5.352,2.581,8.39
			c0,3.982-1.552,7.732-4.37,10.544c-2.818,2.821-6.562,4.372-10.547,4.372c-3.983,0-7.732-1.551-10.551-4.372
			c-1.129-1.127-2.054-2.408-2.759-3.793c-1.278,0.354-2.613,0.535-3.977,0.535c-3.984,0-7.733-1.552-10.552-4.371
			c-2.813-2.813-4.364-6.562-4.364-10.546c0-3.982,1.551-7.727,4.364-10.542c2.818-2.818,6.567-4.371,10.552-4.371
			c2.98,0,5.827,0.869,8.253,2.487l10.373-10.377l-11.286-0.006v-3.785l17.749,0.006v17.542h-3.786v-11.078l-10.183,10.188
			c0.874,0.974,1.606,2.045,2.188,3.187c1.28-0.353,2.616-0.533,3.979-0.533c3.647,0,7.095,1.302,9.814,3.687l10.301-10.307h-11.078
			v-3.785H228.843z M187.681-103.255c-0.221-1.03-0.335-2.09-0.335-3.168c0-3.984,1.553-7.728,4.365-10.542
			c0.928-0.928,1.956-1.719,3.062-2.361c-1.883-3.483-5.568-5.854-9.797-5.854c-6.138,0-11.127,4.991-11.127,11.129
			c0,6.131,4.989,11.13,11.127,11.13C185.908-102.922,186.816-103.037,187.681-103.255z M195.993-115.612
			c-2.931,2.006-4.858,5.377-4.858,9.189c0,0.529,0.038,1.05,0.109,1.561c2.932-2.008,4.858-5.38,4.858-9.189
			C196.103-114.583,196.065-115.104,195.993-115.612z M213.389-106.423c0-6.136-4.99-11.127-11.127-11.127
			c-0.932,0-1.838,0.114-2.704,0.332c0.22,1.028,0.334,2.088,0.334,3.166c0,3.981-1.552,7.732-4.369,10.544
			c-0.928,0.927-1.954,1.717-3.056,2.359c1.882,3.481,5.566,5.855,9.795,5.855C208.399-95.293,213.389-100.29,213.389-106.423z"/>
	</g>
	<g>
		<path fill="#EC1C24" d="M90.008-105.813c0,3.982-1.553,7.731-4.371,10.544c-2.818,2.819-6.562,4.371-10.547,4.371
			c-3.982,0-7.731-1.552-10.551-4.371c-2.812-2.812-4.364-6.562-4.364-10.544c0-3.984,1.552-7.729,4.364-10.543
			c2.347-2.346,5.337-3.814,8.572-4.241c0.001-5.641,2.572-7.99,4.586-9.822c1.595-1.455,2.653-2.419,2.653-4.843
			c0-2.783-2.013-4.698-4.935-4.698c-1.833,0-3.231,0.491-4.207,1.487c-1.494,1.532-1.751,4.075-1.743,5.147l-3.789,0.003
			c-0.005-2.407,0.717-5.646,2.833-7.802c1.35-1.377,3.567-2.625,6.906-2.625c5.001,0,8.72,3.622,8.72,8.487
			c0,4.096-2.115,6.029-3.881,7.638c-1.845,1.688-3.337,3.049-3.348,7.006c3.295,0.398,6.344,1.877,8.729,4.263
			C88.455-113.542,90.008-109.798,90.008-105.813z M86.218-105.813c0-6.137-4.991-11.128-11.128-11.128s-11.126,4.991-11.126,11.128
			c0,6.13,4.989,11.13,11.126,11.13S86.218-99.684,86.218-105.813z"/>
	</g>
	<g>
		<path fill="#EC1C24" d="M331.481-140.648v17.544h-3.784v-11.076l-10.849,10.85c2.099,2.627,3.239,5.863,3.239,9.276
			c0,3.984-1.553,7.733-4.371,10.547c-2.369,2.368-5.389,3.841-8.656,4.252v7.488h8.636v3.786h-8.636v8.634h-3.789v-8.634h-8.632
			v-3.786h8.632v-7.489c-3.266-0.412-6.287-1.886-8.651-4.251c-2.813-2.813-4.366-6.562-4.366-10.547
			c0-3.355,1.102-6.541,3.13-9.144l-2.196-2.196l-3.903,3.905l-2.678-2.679l3.904-3.907l-6.104-6.105v11.076h-3.788v-17.54h17.754
			v3.785H285.09l6.099,6.105l3.907-3.909l2.679,2.68l-3.909,3.908l2.201,2.203c2.598-2.007,5.769-3.095,9.104-3.095
			c3.278,0,6.392,1.05,8.965,2.994l10.877-10.887H313.73v-3.789H331.481z M316.296-114.055c0-6.135-4.989-11.127-11.126-11.127
			c-6.138,0-11.128,4.992-11.128,11.127c0,6.133,4.99,11.131,11.128,11.131C311.307-102.924,316.296-107.922,316.296-114.055z"/>
	</g>
	<g>
		<path fill="#EC1C24" d="M266.857-91.768h8.632v3.786h-8.632v8.638h-3.79v-8.638h-7.463v-3.786h7.463v-7.442
			c-2.951-0.287-5.72-1.435-8.009-3.322c-2.286,1.888-5.052,3.035-8.004,3.322v7.442h7.465v3.786h-7.465v8.638h-3.789v-8.638h-8.631
			v-3.786h8.631v-7.549c-3.104-0.481-5.967-1.929-8.231-4.191c-2.812-2.814-4.364-6.562-4.364-10.547
			c0-3.985,1.552-7.728,4.364-10.543c2.819-2.818,6.568-4.371,10.553-4.371c3.498,0,6.811,1.196,9.472,3.396
			c2.665-2.199,5.981-3.396,9.479-3.396c3.983,0,7.728,1.553,10.546,4.371c2.818,2.815,4.37,6.558,4.37,10.543
			c0,3.984-1.552,7.732-4.37,10.547c-2.264,2.262-5.124,3.709-8.226,4.191V-91.768z M245.586-102.924
			c2.589,0,4.974-0.891,6.865-2.377c-1.839-2.53-2.832-5.565-2.832-8.754c0-3.189,0.993-6.223,2.833-8.751
			c-1.892-1.487-4.276-2.376-6.866-2.376c-6.139,0-11.128,4.992-11.128,11.127C234.458-107.922,239.448-102.924,245.586-102.924z
			 M255.062-108.225c1.047-1.696,1.653-3.694,1.653-5.83c0-2.135-0.606-4.133-1.653-5.829c-1.048,1.696-1.653,3.694-1.653,5.829
			C253.408-111.919,254.014-109.921,255.062-108.225z M275.662-114.055c0-6.135-4.99-11.126-11.126-11.126
			c-2.59,0-4.976,0.888-6.869,2.378c1.842,2.527,2.836,5.561,2.836,8.748s-0.994,6.224-2.834,8.751
			c1.892,1.489,4.277,2.38,6.867,2.38C270.672-102.924,275.662-107.922,275.662-114.055L275.662-114.055z"/>
	</g>
	<g>
		<path fill="#EC1C24" d="M432.072-104.999v17.538h-17.585v-3.786h11.111l-6.1-6.104l-3.905,3.909l-2.679-2.679l3.906-3.909
			l-2.245-2.248c-2.608,2.035-5.796,3.14-9.157,3.14c-3.982,0-7.731-1.552-10.552-4.369c-2.812-2.814-4.364-6.562-4.364-10.547
			c0-3.985,1.553-7.726,4.364-10.543c2.82-2.816,6.569-4.371,10.552-4.371c3.984,0,7.728,1.555,10.547,4.371
			c2.818,2.817,4.371,6.558,4.371,10.543c0,3.33-1.085,6.5-3.089,9.091l2.253,2.256l3.904-3.908l2.679,2.679l-3.904,3.907
			l6.104,6.105v-11.074H432.072z M416.547-114.055c0-6.137-4.992-11.127-11.129-11.127s-11.126,4.99-11.126,11.127
			c0,6.133,4.989,11.131,11.126,11.131S416.547-107.922,416.547-114.055z"/>
	</g>
	<g>
		<path fill="#EC1C24" d="M472.705-104.999c0,3.984-1.552,7.732-4.37,10.547c-2.818,2.818-6.562,4.369-10.546,4.369
			c-3.984,0-7.732-1.551-10.551-4.369c-2.815-2.814-4.365-6.562-4.365-10.547c0-0.892,0.078-1.771,0.23-2.63l-19.329-6.021
			l1.272-3.572l19.184,5.986c0.449-0.975,1.006-1.902,1.663-2.767l-16.585-16.581l2.684-2.682l16.554,16.559
			c0.864-0.688,1.795-1.269,2.777-1.74l-5.968-19.148l3.567-1.274l5.993,19.231c0.937-0.181,1.898-0.275,2.873-0.275
			c3.983,0,7.728,1.553,10.546,4.371C471.154-112.727,472.705-108.983,472.705-104.999z M468.915-104.999
			c0-6.136-4.991-11.127-11.126-11.127c-6.138,0-11.128,4.991-11.128,11.127c0,6.132,4.99,11.13,11.128,11.13
			C463.924-93.869,468.915-98.867,468.915-104.999z"/>
	</g>
	<g>
		<path fill="#EC1C24" d="M545.943-114.73c0,3.981-1.552,7.731-4.371,10.546c-2.817,2.817-6.562,4.368-10.544,4.368
			c-3.984,0-7.733-1.551-10.552-4.368c-2.812-2.814-4.366-6.564-4.366-10.546c0-3.349,1.097-6.527,3.115-9.127l-5.192-5.185
			l-1.878,7.037l-3.661-0.979l1.883-7.037l-7.031,1.881l-0.986-3.655l7.038-1.885l-5.149-5.151l2.679-2.678l5.147,5.151l1.89-7.035
			l3.659,0.98l-1.888,7.036l7.035-1.889l0.978,3.665l-7.027,1.879l5.183,5.187c2.602-2.018,5.78-3.111,9.125-3.111
			c3.982,0,7.727,1.553,10.544,4.372C544.391-122.46,545.943-118.716,545.943-114.73z M542.153-114.73
			c0-6.138-4.989-11.129-11.125-11.129c-6.139,0-11.129,4.991-11.129,11.129c0,6.131,4.99,11.13,11.129,11.13
			C537.163-103.601,542.153-108.6,542.153-114.73z"/>
	</g>
	<g>
		<path fill="#EC1C24" d="M709.953-129.491v17.54h-3.785v-11.074l-10.998,10.998c2.024,2.601,3.12,5.779,3.12,9.129
			c0,3.983-1.553,7.73-4.37,10.544c-2.819,2.82-6.562,4.371-10.547,4.371c-3.983,0-7.732-1.551-10.552-4.371
			c-2.812-2.813-4.364-6.561-4.364-10.544c0-3.984,1.552-7.729,4.364-10.543c2.819-2.818,6.568-4.371,10.552-4.371
			c3.345,0,6.518,1.093,9.117,3.109l10.994-10.999h-11.28v-3.789H709.953z M694.501-102.898c0-6.137-4.992-11.128-11.128-11.128
			c-6.139,0-11.126,4.991-11.126,11.128c0,6.131,4.987,11.129,11.126,11.129C689.509-91.77,694.501-96.768,694.501-102.898z"/>
	</g>
	<g>
		<path fill="#EC1C24" d="M632.682-102.898c0,3.983-1.551,7.732-4.37,10.544c-2.818,2.82-6.562,4.371-10.546,4.371
			c-3.984,0-7.733-1.551-10.552-4.371c-2.813-2.812-4.364-6.561-4.364-10.544c0-3.448,1.163-6.719,3.301-9.36l-13.189-13.187
			l2.682-2.683l13.241,13.244c2.555-1.901,5.64-2.929,8.882-2.929c3.983,0,7.728,1.553,10.546,4.371
			C631.131-110.627,632.682-106.883,632.682-102.898z M628.893-102.898c0-6.137-4.992-11.128-11.127-11.128
			c-6.137,0-11.127,4.991-11.127,11.128c0,6.131,4.99,11.13,11.127,11.13C623.901-91.769,628.893-96.768,628.893-102.898z"/>
	</g>
	<g>
		<path fill="#EC1C24" d="M492.107-99.934v7.491h8.637v3.784h-8.637v8.636h-3.79v-8.636h-8.631v-3.784h8.631v-7.491
			c-3.267-0.412-6.29-1.885-8.657-4.251c-2.812-2.813-4.364-6.562-4.364-10.546c0-3.985,1.553-7.729,4.364-10.543
			c2.819-2.819,6.569-4.37,10.552-4.37c3.984,0,7.729,1.551,10.547,4.37c2.818,2.813,4.371,6.558,4.371,10.543
			c0,3.983-1.553,7.732-4.371,10.546C498.391-101.818,495.373-100.346,492.107-99.934z M490.211-103.601
			c6.138,0,11.128-4.998,11.128-11.13c0-6.136-4.99-11.129-11.128-11.129c-6.137,0-11.126,4.993-11.126,11.129
			C479.085-108.599,484.074-103.601,490.211-103.601z"/>
	</g>
	<g>
		<path fill="#EC1C24" d="M640.15-100.303c-2.812-2.813-4.364-6.562-4.364-10.547c0-3.983,1.552-7.728,4.364-10.542
			c2.819-2.817,6.568-4.371,10.552-4.371c3.984,0,7.728,1.554,10.547,4.371c2.818,2.814,4.37,6.559,4.37,10.542
			c0,3.985-1.552,7.733-4.37,10.547c-2.819,2.819-6.562,4.37-10.547,4.37C646.718-95.933,642.969-97.483,640.15-100.303z
			 M661.828-110.85c0-6.136-4.991-11.126-11.127-11.126c-6.139,0-11.126,4.99-11.126,11.126c0,6.132,4.987,11.131,11.126,11.131
			C656.837-99.719,661.828-104.718,661.828-110.85z"/>
	</g>
	<g>
		<path fill="#EC1C24" d="M590.774-141.322v17.54h-3.785v-11.073l-10.999,10.998c2.024,2.6,3.12,5.778,3.12,9.128
			c0,3.983-1.552,7.732-4.371,10.545c-2.366,2.366-5.384,3.841-8.651,4.252v7.49h8.638v3.785h-8.638v8.637h-3.788v-8.637h-8.633
			v-3.785h8.633v-7.49c-3.268-0.411-6.291-1.886-8.657-4.252c-2.813-2.812-4.366-6.562-4.366-10.545
			c0-3.985,1.553-7.728,4.366-10.542c2.819-2.819,6.567-4.371,10.552-4.371c3.342,0,6.517,1.093,9.117,3.11l10.994-11.002h-11.282
			v-3.788H590.774z M575.32-114.729c0-6.137-4.99-11.128-11.126-11.128c-6.137,0-11.128,4.991-11.128,11.128
			c0,6.131,4.991,11.131,11.128,11.131C570.329-103.599,575.32-108.599,575.32-114.729z"/>
	</g>
	<g>
		<path fill="#EC1C24" d="M791.507-132.097v17.543h-3.788v-11.079l-10.459,10.464c1.68,2.454,2.582,5.351,2.582,8.39
			c0,3.984-1.552,7.731-4.37,10.545c-2.818,2.819-6.563,4.37-10.547,4.37s-7.733-1.551-10.55-4.37
			c-1.13-1.129-2.056-2.407-2.759-3.792c-1.278,0.352-2.616,0.533-3.978,0.533c-3.497,0-6.813-1.196-9.479-3.394
			c-2.177,1.796-4.785,2.923-7.576,3.274v7.489h8.636v3.786h-8.636v8.637h-3.788v-8.637h-8.632v-3.786h8.632v-7.489
			c-3.27-0.411-6.292-1.886-8.658-4.251c-2.812-2.813-4.366-6.562-4.366-10.546c0-3.985,1.554-7.728,4.366-10.543
			c2.817-2.818,6.567-4.371,10.552-4.371c3.497,0,6.809,1.197,9.471,3.396c2.665-2.198,5.981-3.396,9.479-3.396
			c2.981,0,5.829,0.87,8.252,2.487l10.374-10.377l-11.285-0.004v-3.785l17.749,0.006v17.54h-3.785v-11.077l-10.184,10.188
			c0.872,0.973,1.605,2.043,2.189,3.187c1.277-0.353,2.613-0.534,3.976-0.534c3.648,0,7.096,1.302,9.815,3.687l10.299-10.307
			h-11.075v-3.784H791.507z M728.69-103.278c2.588,0,4.974-0.889,6.862-2.377c-1.837-2.529-2.831-5.565-2.831-8.754
			s0.994-6.223,2.836-8.751c-1.894-1.488-4.277-2.376-6.867-2.376c-6.139,0-11.126,4.99-11.126,11.127
			C717.564-108.276,722.551-103.278,728.69-103.278z M739.818-114.408c0-2.137-0.606-4.134-1.652-5.828
			c-1.048,1.694-1.654,3.691-1.654,5.828c0,2.135,0.606,4.133,1.654,5.829C739.211-110.275,739.818-112.273,739.818-114.408z
			 M747.639-103.276c0.933,0,1.84-0.116,2.705-0.334c-0.223-1.03-0.334-2.09-0.334-3.169c0-3.982,1.55-7.726,4.365-10.541
			c0.927-0.929,1.957-1.717,3.06-2.36c-1.884-3.482-5.566-5.854-9.796-5.854c-2.591,0-4.977,0.889-6.867,2.377
			c1.84,2.527,2.836,5.562,2.836,8.748c0,3.188-0.996,6.225-2.836,8.751c1.894,1.489,4.277,2.38,6.867,2.38V-103.276z
			 M758.658-115.968c-2.934,2.007-4.86,5.376-4.86,9.188c0,0.53,0.038,1.052,0.11,1.562c2.93-2.007,4.858-5.38,4.858-9.19
			C758.767-114.938,758.729-115.458,758.658-115.968z M776.053-106.779c0-6.136-4.99-11.126-11.128-11.126
			c-0.932,0-1.837,0.115-2.706,0.333c0.223,1.027,0.338,2.088,0.338,3.164c0,3.984-1.554,7.733-4.371,10.546
			c-0.928,0.926-1.955,1.717-3.057,2.358c1.883,3.483,5.566,5.856,9.796,5.856C771.063-95.647,776.053-100.646,776.053-106.779z"/>
	</g>
</g>
<g>
	<path fill="#FFFFFF" d="M148.161-53.566h-10.704v33.744h-2.641v-33.744h-10.655v-2.256h24V-53.566z"/>
	<path fill="#FFFFFF" d="M156.321-22.245c-1.665-2.032-2.496-5.336-2.496-9.912c0-4.512,0.841-7.783,2.521-9.816
		c1.68-2.031,4.296-3.048,7.848-3.048c3.553,0,6.168,1.017,7.849,3.048c1.68,2.033,2.52,5.289,2.52,9.77
		c0,4.544-0.848,7.848-2.544,9.912c-1.696,2.062-4.336,3.096-7.92,3.096C160.576-19.198,157.985-20.214,156.321-22.245z
		 M170.025-23.997c1.231-1.696,1.849-4.528,1.849-8.496c0-2.561-0.248-4.6-0.744-6.12c-0.497-1.521-1.289-2.616-2.376-3.288
		c-1.088-0.672-2.562-1.008-4.416-1.008c-1.92,0-3.449,0.359-4.584,1.08c-1.137,0.72-1.96,1.871-2.473,3.455
		c-0.512,1.584-0.768,3.689-0.768,6.312c0,2.624,0.256,4.704,0.768,6.24c0.513,1.536,1.305,2.648,2.376,3.336
		c1.072,0.688,2.504,1.031,4.297,1.031C166.768-21.454,168.793-22.302,170.025-23.997z"/>
	<path fill="#FFFFFF" d="M213.009-44.782v24.96h-2.592v-2.593c-1.345,0.93-2.682,1.633-4.008,2.111
		c-1.328,0.48-2.729,0.721-4.2,0.721c-1.697,0-3.058-0.279-4.08-0.84c-1.024-0.56-1.776-1.496-2.256-2.809
		c-0.48-1.312-0.721-3.104-0.721-5.376v-16.176h2.641v15.743c0,1.92,0.16,3.377,0.479,4.369s0.832,1.68,1.536,2.062
		c0.704,0.385,1.696,0.576,2.977,0.576c2.079,0,4.623-0.784,7.632-2.352v-20.4h2.592V-44.782z"/>
	<path fill="#FFFFFF" d="M238.927-44.206c1.024,0.545,1.776,1.473,2.256,2.785c0.48,1.312,0.72,3.104,0.72,5.375v16.225h-2.592
		V-35.47c0-1.92-0.161-3.367-0.479-4.344c-0.32-0.977-0.833-1.656-1.536-2.04c-0.704-0.384-1.712-0.575-3.024-0.575
		c-1.344,0-2.705,0.191-4.08,0.575c-1.376,0.384-2.88,1.009-4.512,1.872v20.16h-2.592v-24.96h2.592v2.928
		c1.472-1.056,2.928-1.848,4.368-2.376c1.439-0.527,3.04-0.792,4.8-0.792C236.543-45.022,237.903-44.749,238.927-44.206z"/>
	<path fill="#FFFFFF" d="M269.167-20.495c-1.312,0.416-2.809,0.744-4.488,0.984c-1.68,0.239-3.145,0.359-4.392,0.359
		c-6.816,0-10.225-4.207-10.225-12.624c0-4.606,0.968-7.999,2.904-10.176c1.936-2.177,4.647-3.265,8.136-3.265
		c1.824,0,3.616,0.24,5.376,0.721v-13.729h2.641L269.167-20.495z M254.671-23.806c1.375,1.6,3.438,2.399,6.191,2.399
		c1.44,0,3.312-0.224,5.616-0.673v-20.062c-1.824-0.48-3.473-0.721-4.943-0.721c-2.881,0-5.089,0.872-6.624,2.615
		c-1.536,1.744-2.305,4.584-2.305,8.521C252.607-28.046,253.295-25.406,254.671-23.806z"/>
	<path fill="#FFFFFF" d="M295.135-32.015l-15.12,0.049c0.031,3.84,0.784,6.545,2.256,8.111c1.473,1.568,3.424,2.354,5.856,2.354
		c1.087,0,2.12-0.121,3.096-0.36c0.976-0.24,2.136-0.583,3.48-1.032l0.432,2.064c-1.568,0.607-2.856,1.048-3.864,1.318
		c-1.008,0.272-2.104,0.408-3.288,0.408c-3.2,0-5.768-1.062-7.704-3.191c-1.936-2.127-2.903-5.432-2.903-9.912
		c0-4.416,0.928-7.655,2.784-9.719c1.854-2.064,4.335-3.098,7.439-3.098c2.815,0,4.815,0.792,6,2.376
		c1.184,1.584,1.776,3.802,1.776,6.647C295.375-34.686,295.295-33.358,295.135-32.015z M280.063-33.982l12.72-0.19
		c0.097-0.77,0.145-1.602,0.145-2.496c0-1.984-0.432-3.512-1.296-4.584s-2.272-1.608-4.225-1.608
		C282.895-42.862,280.447-39.902,280.063-33.982z"/>
	<path fill="#FFFFFF" d="M315.343-42.479c-1.792,0.032-3.473,0.32-5.04,0.864c-1.568,0.545-2.928,1.279-4.08,2.208v19.584h-2.592
		v-24.96h2.592v3.264c1.12-0.96,2.504-1.768,4.152-2.424c1.646-0.654,3.366-1.016,5.16-1.08L315.343-42.479z"/>
	<path fill="#FFFFFF" d="M320.526-25.774c0.832,1.186,2.047,2.137,3.648,2.855c1.6,0.721,3.184,1.08,4.752,1.08
		c1.696,0,3.12-0.455,4.271-1.367c1.152-0.912,1.729-2.12,1.729-3.625c0-1.023-0.312-1.854-0.937-2.495
		c-0.624-0.64-1.384-1.128-2.279-1.464c-0.896-0.336-2.128-0.713-3.696-1.129c-1.696-0.416-3.064-0.823-4.104-1.225
		c-1.04-0.398-1.921-0.998-2.641-1.8c-0.72-0.8-1.08-1.854-1.08-3.168c0-1.407,0.4-2.632,1.2-3.672
		c0.8-1.039,1.864-1.841,3.192-2.399c1.326-0.561,2.742-0.841,4.248-0.841c2.783,0,5.279,0.912,7.487,2.735l-0.912,1.775
		c-0.928-0.672-1.951-1.191-3.071-1.56c-1.121-0.367-2.256-0.552-3.408-0.552c-1.76,0-3.256,0.408-4.488,1.224
		c-1.231,0.815-1.848,1.864-1.848,3.146c0,0.799,0.264,1.447,0.792,1.942c0.528,0.497,1.191,0.872,1.992,1.128
		c0.799,0.258,1.902,0.561,3.312,0.912c1.855,0.449,3.36,0.889,4.512,1.32c1.152,0.432,2.137,1.119,2.952,2.062
		c0.816,0.944,1.225,2.217,1.225,3.816c0,2.336-0.792,4.191-2.376,5.568c-1.584,1.375-3.608,2.062-6.072,2.062
		c-1.856,0-3.688-0.398-5.496-1.199c-1.808-0.8-3.24-1.938-4.296-3.408L320.526-25.774z"/>
	<path fill="#FFFFFF" d="M356.19-19.822c-1.279,0.192-2.464,0.288-3.552,0.288c-2.016,0-3.6-0.36-4.752-1.08
		c-1.152-0.721-1.968-1.801-2.448-3.24c-0.479-1.439-0.72-3.326-0.72-5.664v-13.248h-2.88v-2.016h2.88v-6.336h2.448v6.336h7.248
		v2.016h-7.248v13.297c0,1.953,0.191,3.496,0.575,4.633c0.385,1.136,1.017,1.951,1.896,2.447s2.072,0.743,3.576,0.743
		c0.768,0,1.632-0.048,2.592-0.144L356.19-19.822z"/>
	<path fill="#FFFFFF" d="M374.334-44.206c1.12,0.545,1.952,1.48,2.496,2.809c0.543,1.328,0.815,3.161,0.815,5.496v16.08h-2.304
		v-3.359c-2.368,2.465-5.104,3.695-8.208,3.695c-2.496,0-4.336-0.654-5.521-1.969c-1.184-1.311-1.775-2.977-1.775-4.991
		c0-2.304,0.704-4.08,2.112-5.328c1.407-1.248,3.472-1.888,6.191-1.92h6.96v-0.624c0-2.238-0.168-3.951-0.504-5.137
		c-0.336-1.184-0.912-2.016-1.728-2.495c-0.816-0.479-1.978-0.72-3.48-0.72c-2.112,0-4.673,0.432-7.68,1.295l-0.528-1.823
		c1.503-0.606,2.952-1.063,4.344-1.368c1.393-0.305,2.839-0.456,4.345-0.456C371.725-45.022,373.213-44.749,374.334-44.206z
		 M363.726-23.11c0.896,0.85,2.145,1.271,3.744,1.271c1.216,0,2.479-0.279,3.792-0.84c1.312-0.56,2.592-1.32,3.84-2.279v-6.625
		h-7.104c-2.017,0-3.456,0.465-4.32,1.393c-0.864,0.93-1.296,2.111-1.296,3.553C362.382-25.134,362.829-23.958,363.726-23.11z"/>
	<path fill="#FFFFFF" d="M403.565-44.206c1.024,0.545,1.776,1.473,2.257,2.785c0.479,1.312,0.72,3.104,0.72,5.375v16.225h-2.592
		V-35.47c0-1.92-0.16-3.367-0.479-4.344c-0.32-0.977-0.832-1.656-1.535-2.04c-0.705-0.384-1.713-0.575-3.024-0.575
		c-1.344,0-2.704,0.191-4.079,0.575c-1.376,0.384-2.881,1.009-4.513,1.872v20.16h-2.592v-24.96h2.592v2.928
		c1.473-1.056,2.929-1.848,4.368-2.376c1.44-0.527,3.04-0.792,4.8-0.792C401.181-45.022,402.541-44.749,403.565-44.206z"/>
	<path fill="#FFFFFF" d="M433.805-20.495c-1.312,0.416-2.81,0.744-4.488,0.984c-1.68,0.239-3.144,0.359-4.392,0.359
		c-6.815,0-10.225-4.207-10.225-12.624c0-4.606,0.968-7.999,2.903-10.176c1.938-2.177,4.646-3.265,8.136-3.265
		c1.824,0,3.616,0.24,5.377,0.721v-13.729h2.641L433.805-20.495z M419.309-23.806c1.375,1.6,3.439,2.399,6.191,2.399
		c1.44,0,3.312-0.224,5.616-0.673v-20.062c-1.823-0.48-3.473-0.721-4.943-0.721c-2.88,0-5.089,0.872-6.624,2.615
		c-1.536,1.744-2.306,4.584-2.306,8.521C417.243-28.046,417.933-25.406,419.309-23.806z"/>
	<path fill="#FFFFFF" d="M467.645-19.822c-1.281,0.192-2.465,0.288-3.553,0.288c-2.017,0-3.601-0.36-4.752-1.08
		c-1.152-0.721-1.969-1.801-2.447-3.24c-0.48-1.439-0.721-3.326-0.721-5.664v-13.248h-2.881v-2.016h2.881v-6.336h2.447v6.336h7.248
		v2.016h-7.248v13.297c0,1.953,0.192,3.496,0.575,4.633c0.385,1.136,1.017,1.951,1.896,2.447s2.071,0.743,3.575,0.743
		c0.769,0,1.633-0.048,2.593-0.144L467.645-19.822z"/>
	<path fill="#FFFFFF" d="M489.485-44.206c1.023,0.545,1.775,1.473,2.256,2.785c0.479,1.312,0.719,3.104,0.719,5.375v16.225h-2.592
		V-35.47c0-1.92-0.16-3.367-0.479-4.344c-0.32-0.977-0.832-1.656-1.535-2.04c-0.705-0.384-1.713-0.575-3.023-0.575
		c-1.312,0-2.647,0.191-4.009,0.575s-2.855,0.992-4.486,1.824v20.208h-2.546v-38.4h2.546v16.32c1.438-1.023,2.87-1.8,4.295-2.328
		c1.424-0.527,3.016-0.792,4.776-0.792C487.1-45.022,488.459-44.749,489.485-44.206z"/>
	<path fill="#FFFFFF" d="M518.428-32.015l-15.121,0.049c0.033,3.84,0.785,6.545,2.258,8.111c1.471,1.568,3.422,2.354,5.855,2.354
		c1.088,0,2.119-0.121,3.096-0.36c0.977-0.24,2.137-0.583,3.479-1.032l0.433,2.064c-1.568,0.607-2.855,1.048-3.863,1.318
		c-1.01,0.272-2.105,0.408-3.289,0.408c-3.199,0-5.768-1.062-7.703-3.191c-1.938-2.127-2.904-5.432-2.904-9.912
		c0-4.416,0.929-7.655,2.783-9.719c1.855-2.064,4.336-3.098,7.439-3.098c2.816,0,4.816,0.792,6,2.376s1.777,3.802,1.777,6.647
		C518.668-34.686,518.588-33.358,518.428-32.015z M503.356-33.982l12.721-0.19c0.097-0.77,0.144-1.602,0.144-2.496
		c0-1.984-0.433-3.512-1.295-4.584c-0.865-1.072-2.273-1.608-4.226-1.608C506.188-42.862,503.74-39.902,503.356-33.982z"/>
	<path fill="#FFFFFF" d="M556.539-20.495c-1.312,0.416-2.81,0.744-4.488,0.984c-1.68,0.239-3.146,0.359-4.394,0.359
		c-6.813,0-10.223-4.207-10.223-12.624c0-4.606,0.967-7.999,2.904-10.176c1.936-2.177,4.646-3.265,8.135-3.265
		c1.824,0,3.617,0.24,5.377,0.721v-13.729h2.639L556.539-20.495z M542.043-23.806c1.375,1.6,3.438,2.399,6.19,2.399
		c1.441,0,3.312-0.224,5.617-0.673v-20.062c-1.824-0.48-3.474-0.721-4.945-0.721c-2.879,0-5.088,0.872-6.623,2.615
		c-1.534,1.744-2.305,4.584-2.305,8.521C539.979-28.046,540.666-25.406,542.043-23.806z"/>
	<path fill="#FFFFFF" d="M566.524-51.501c-0.385-0.385-0.576-0.864-0.576-1.44c0-0.544,0.191-1.008,0.576-1.392
		c0.383-0.385,0.863-0.576,1.439-0.576c0.512,0,0.967,0.191,1.367,0.576c0.399,0.384,0.6,0.848,0.6,1.392
		c0,0.576-0.191,1.056-0.574,1.44c-0.385,0.384-0.85,0.576-1.393,0.576C567.387-50.925,566.906-51.118,566.524-51.501z
		 M566.618-44.782h2.593v24.96h-2.593V-44.782z"/>
	<path fill="#FFFFFF" d="M596.666-44.782l-9.023,24.96h-2.688l-9.025-24.96h2.93l7.439,22.512l7.487-22.512H596.666z"/>
	<path fill="#FFFFFF" d="M619.274-32.015l-15.119,0.049c0.031,3.84,0.783,6.545,2.256,8.111c1.472,1.568,3.424,2.354,5.855,2.354
		c1.088,0,2.119-0.121,3.096-0.36c0.977-0.24,2.137-0.583,3.48-1.032l0.432,2.064c-1.568,0.607-2.855,1.048-3.863,1.318
		c-1.008,0.272-2.104,0.408-3.287,0.408c-3.2,0-5.77-1.062-7.705-3.191c-1.935-2.127-2.903-5.432-2.903-9.912
		c0-4.416,0.928-7.655,2.785-9.719c1.854-2.064,4.336-3.098,7.438-3.098c2.814,0,4.816,0.792,6,2.376
		c1.185,1.584,1.775,3.802,1.775,6.647C619.514-34.686,619.434-33.358,619.274-32.015z M604.202-33.982l12.72-0.19
		c0.096-0.77,0.145-1.602,0.145-2.496c0-1.984-0.432-3.512-1.297-4.584c-0.863-1.072-2.271-1.608-4.223-1.608
		C607.034-42.862,604.586-39.902,604.202-33.982z"/>
	<path fill="#FFFFFF" d="M639.483-42.479c-1.793,0.032-3.473,0.32-5.041,0.864c-1.568,0.545-2.928,1.279-4.08,2.208v19.584h-2.592
		v-24.96h2.592v3.264c1.121-0.96,2.504-1.768,4.152-2.424c1.647-0.654,3.367-1.016,5.16-1.08L639.483-42.479z"/>
	<path fill="#FFFFFF" d="M644.666-25.774c0.832,1.186,2.047,2.137,3.647,2.855c1.601,0.721,3.185,1.08,4.752,1.08
		c1.695,0,3.119-0.455,4.271-1.367c1.151-0.912,1.729-2.12,1.729-3.625c0-1.023-0.312-1.854-0.938-2.495
		c-0.623-0.64-1.386-1.128-2.279-1.464c-0.896-0.336-2.129-0.713-3.695-1.129c-1.696-0.416-3.063-0.823-4.104-1.225
		c-1.039-0.398-1.92-0.998-2.639-1.8c-0.722-0.8-1.08-1.854-1.08-3.168c0-1.407,0.397-2.632,1.198-3.672
		c0.8-1.039,1.863-1.841,3.191-2.399c1.328-0.561,2.744-0.841,4.248-0.841c2.784,0,5.28,0.912,7.487,2.735l-0.912,1.775
		c-0.928-0.672-1.95-1.191-3.071-1.56c-1.119-0.367-2.256-0.552-3.406-0.552c-1.762,0-3.258,0.408-4.488,1.224
		c-1.231,0.815-1.848,1.864-1.848,3.146c0,0.799,0.264,1.447,0.791,1.942c0.527,0.497,1.19,0.872,1.992,1.128
		c0.799,0.258,1.903,0.561,3.312,0.912c1.855,0.449,3.359,0.889,4.513,1.32c1.152,0.431,2.135,1.119,2.95,2.062
		c0.816,0.944,1.226,2.217,1.226,3.816c0,2.336-0.793,4.191-2.377,5.568c-1.584,1.375-3.607,2.062-6.07,2.062
		c-1.856,0-3.688-0.398-5.496-1.199c-1.809-0.8-3.239-1.938-4.297-3.408L644.666-25.774z"/>
	<path fill="#FFFFFF" d="M668.858-51.501c-0.385-0.385-0.576-0.864-0.576-1.44c0-0.544,0.191-1.008,0.576-1.392
		c0.385-0.385,0.863-0.576,1.439-0.576c0.512,0,0.969,0.191,1.369,0.576c0.397,0.384,0.6,0.848,0.6,1.392
		c0,0.576-0.191,1.056-0.576,1.44c-0.385,0.384-0.848,0.576-1.393,0.576C669.721-50.925,669.241-51.118,668.858-51.501z
		 M668.952-44.782h2.593v24.96h-2.593V-44.782z"/>
	<path fill="#FFFFFF" d="M693.002-19.822c-1.281,0.192-2.466,0.288-3.554,0.288c-2.016,0-3.6-0.36-4.752-1.08
		c-1.151-0.721-1.969-1.801-2.446-3.24c-0.48-1.439-0.722-3.326-0.722-5.664v-13.248h-2.879v-2.016h2.879v-6.336h2.447v6.336h7.248
		v2.016h-7.248v13.297c0,1.953,0.192,3.496,0.576,4.633c0.385,1.136,1.016,1.951,1.896,2.447c0.881,0.496,2.072,0.743,3.576,0.743
		c0.768,0,1.633-0.048,2.592-0.144L693.002-19.822z"/>
	<path fill="#FFFFFF" d="M715.368-44.782l-11.952,34.561h-2.64l3.312-9.601l-8.642-24.96h2.832l7.104,21.695l7.344-21.695H715.368z"
		/>
	<path fill="#FFFFFF" d="M137.649-6.501c-0.384-0.385-0.576-0.864-0.576-1.44c0-0.544,0.192-1.008,0.576-1.392
		c0.384-0.385,0.864-0.576,1.44-0.576c0.512,0,0.968,0.191,1.368,0.576c0.399,0.384,0.6,0.848,0.6,1.392
		c0,0.576-0.192,1.056-0.576,1.44c-0.384,0.384-0.848,0.576-1.392,0.576C138.513-5.925,138.032-6.118,137.649-6.501z M137.745,0.218
		h2.592v24.96h-2.592V0.218z"/>
	<path fill="#FFFFFF" d="M166.257,0.794c1.023,0.545,1.775,1.473,2.256,2.785c0.48,1.312,0.72,3.104,0.72,5.375v16.225h-2.592V9.53
		c0-1.92-0.161-3.367-0.479-4.344c-0.32-0.977-0.833-1.656-1.536-2.04c-0.704-0.384-1.712-0.575-3.024-0.575
		c-1.344,0-2.705,0.191-4.08,0.575c-1.376,0.384-2.88,1.009-4.512,1.872v20.16h-2.592V0.219h2.592v2.928
		c1.472-1.056,2.928-1.848,4.368-2.376c1.439-0.527,3.04-0.792,4.8-0.792C163.872-0.022,165.232,0.251,166.257,0.794z"/>
	<path fill="#FFFFFF" d="M203.024,25.178c-1.279,0.192-2.464,0.288-3.552,0.288c-2.016,0-3.6-0.36-4.752-1.08
		c-1.152-0.721-1.968-1.801-2.448-3.24c-0.479-1.439-0.72-3.326-0.72-5.664V2.233h-2.88V0.218h2.88v-6.336H194v6.336h7.248v2.016
		H194V15.53c0,1.953,0.191,3.496,0.576,4.633c0.384,1.136,1.016,1.951,1.896,2.447s2.072,0.743,3.576,0.743
		c0.768,0,1.632-0.048,2.592-0.144L203.024,25.178z"/>
	<path fill="#FFFFFF" d="M224.864,0.794c1.024,0.545,1.776,1.473,2.257,2.785c0.479,1.312,0.72,3.104,0.72,5.375v16.225h-2.592V9.53
		c0-1.92-0.161-3.367-0.48-4.344c-0.32-0.977-0.833-1.656-1.536-2.04c-0.704-0.384-1.712-0.575-3.023-0.575
		c-1.312,0-2.648,0.191-4.009,0.575c-1.359,0.384-2.855,0.992-4.487,1.824v20.208h-2.544v-38.4h2.544v16.32
		c1.439-1.023,2.872-1.8,4.296-2.328c1.424-0.527,3.016-0.792,4.776-0.792C222.479-0.022,223.839,0.251,224.864,0.794z"/>
	<path fill="#FFFFFF" d="M253.808,12.985l-15.12,0.049c0.031,3.84,0.784,6.545,2.256,8.111c1.473,1.568,3.425,2.354,5.856,2.354
		c1.087,0,2.12-0.121,3.096-0.36c0.977-0.24,2.136-0.583,3.48-1.032l0.432,2.064c-1.568,0.607-2.855,1.048-3.864,1.318
		c-1.008,0.272-2.104,0.408-3.288,0.408c-3.199,0-5.768-1.062-7.703-3.191c-1.937-2.127-2.904-5.432-2.904-9.912
		c0-4.416,0.928-7.655,2.784-9.719c1.854-2.064,4.335-3.098,7.439-3.098c2.815,0,4.815,0.792,6,2.376s1.776,3.802,1.776,6.647
		C254.048,10.314,253.968,11.642,253.808,12.985z M238.736,11.018l12.721-0.19c0.096-0.77,0.144-1.602,0.144-2.496
		c0-1.984-0.432-3.512-1.296-4.584s-2.272-1.608-4.224-1.608C241.568,2.138,239.12,5.098,238.736,11.018z"/>
	<path fill="#FFFFFF" d="M303.055,0.218l-6.624,24.96h-2.688l-6.528-19.2l-6.576,19.2h-2.688l-6.624-24.96h2.88l5.231,21.84
		l6.528-19.68h2.448l6.527,19.68l5.232-21.84H303.055z"/>
	<path fill="#FFFFFF" d="M310.399,22.755c-1.665-2.032-2.496-5.336-2.496-9.912c0-4.512,0.84-7.783,2.521-9.816
		c1.68-2.031,4.296-3.048,7.848-3.048s6.168,1.017,7.848,3.048c1.681,2.033,2.521,5.289,2.521,9.77c0,4.544-0.848,7.848-2.544,9.912
		c-1.696,2.062-4.336,3.096-7.92,3.096C314.654,25.802,312.062,24.786,310.399,22.755z M324.103,21.003
		c1.231-1.696,1.848-4.528,1.848-8.496c0-2.561-0.247-4.6-0.743-6.12c-0.497-1.521-1.289-2.616-2.376-3.288
		c-1.089-0.672-2.562-1.008-4.416-1.008c-1.92,0-3.449,0.359-4.584,1.08c-1.137,0.72-1.96,1.871-2.473,3.455
		c-0.512,1.584-0.768,3.689-0.768,6.312c0,2.624,0.256,4.704,0.768,6.24c0.513,1.536,1.305,2.648,2.376,3.336
		c1.072,0.688,2.503,1.031,4.296,1.031C320.846,23.546,322.87,22.698,324.103,21.003z"/>
	<path fill="#FFFFFF" d="M348.558,2.521c-1.792,0.032-3.473,0.32-5.04,0.864c-1.568,0.545-2.928,1.279-4.08,2.208v19.584h-2.592
		V0.218h2.592v3.264c1.12-0.96,2.504-1.768,4.152-2.424c1.646-0.654,3.367-1.016,5.16-1.08L348.558,2.521z"/>
	<path fill="#FFFFFF" d="M354.99-13.222h2.544v38.399h-2.544V-13.222z"/>
	<path fill="#FFFFFF" d="M384.845,24.505c-1.312,0.416-2.808,0.744-4.488,0.984c-1.68,0.239-3.144,0.359-4.392,0.359
		c-6.816,0-10.225-4.207-10.225-12.624c0-4.606,0.969-7.999,2.904-10.176c1.937-2.177,4.648-3.265,8.136-3.265
		c1.824,0,3.616,0.24,5.376,0.721v-13.729h2.641L384.845,24.505z M370.349,21.194c1.375,1.6,3.439,2.399,6.192,2.399
		c1.439,0,3.312-0.224,5.615-0.673V2.858c-1.823-0.48-3.473-0.721-4.943-0.721c-2.88,0-5.088,0.872-6.624,2.615
		c-1.536,1.744-2.304,4.584-2.304,8.521C368.285,16.954,368.973,19.594,370.349,21.194z"/>
	<path fill="#FFFFFF" d="M407.212-6.501c-0.385-0.385-0.575-0.864-0.575-1.44c0-0.544,0.19-1.008,0.575-1.392
		c0.384-0.385,0.863-0.576,1.439-0.576c0.513,0,0.967,0.191,1.367,0.576c0.399,0.384,0.601,0.848,0.601,1.392
		c0,0.576-0.191,1.056-0.575,1.44c-0.385,0.384-0.85,0.576-1.393,0.576C408.075-5.925,407.596-6.118,407.212-6.501z M407.309,0.218
		h2.592v24.96h-2.592V0.218z"/>
	<path fill="#FFFFFF" d="M431.356,25.178c-1.279,0.192-2.464,0.288-3.552,0.288c-2.017,0-3.601-0.36-4.752-1.08
		c-1.151-0.721-1.968-1.801-2.448-3.24c-0.479-1.439-0.72-3.326-0.72-5.664V2.233h-2.88V0.218h2.88v-6.336h2.448v6.336h7.247v2.016
		h-7.247V15.53c0,1.953,0.19,3.496,0.575,4.633c0.384,1.136,1.017,1.951,1.896,2.447s2.071,0.743,3.575,0.743
		c0.77,0,1.633-0.048,2.594-0.144L431.356,25.178z"/>
	<path fill="#FFFFFF" d="M449.786-6.501c-0.384-0.385-0.575-0.864-0.575-1.44c0-0.544,0.191-1.008,0.575-1.392
		c0.386-0.385,0.864-0.576,1.439-0.576c0.512,0,0.969,0.191,1.369,0.576c0.398,0.384,0.6,0.848,0.6,1.392
		c0,0.576-0.19,1.056-0.576,1.44c-0.384,0.384-0.848,0.576-1.393,0.576C450.652-5.925,450.172-6.118,449.786-6.501z M449.883,0.218
		h2.592v24.96h-2.592V0.218z"/>
	<path fill="#FFFFFF" d="M461.307,19.226c0.832,1.186,2.048,2.137,3.648,2.855c1.6,0.721,3.184,1.08,4.752,1.08
		c1.694,0,3.119-0.455,4.271-1.367c1.152-0.912,1.729-2.12,1.729-3.625c0-1.023-0.312-1.854-0.937-2.495
		c-0.625-0.64-1.385-1.128-2.28-1.464s-2.128-0.713-3.695-1.129c-1.696-0.416-3.064-0.823-4.104-1.225
		c-1.041-0.398-1.92-0.998-2.641-1.8c-0.72-0.8-1.08-1.854-1.08-3.168c0-1.407,0.399-2.632,1.2-3.672
		c0.8-1.039,1.863-1.841,3.191-2.399c1.327-0.561,2.743-0.841,4.248-0.841c2.783,0,5.279,0.912,7.488,2.735l-0.912,1.775
		c-0.929-0.672-1.953-1.191-3.072-1.56c-1.121-0.367-2.256-0.552-3.408-0.552c-1.76,0-3.256,0.408-4.487,1.224
		c-1.232,0.815-1.849,1.864-1.849,3.146c0,0.799,0.265,1.447,0.793,1.942c0.527,0.497,1.191,0.872,1.991,1.128
		c0.8,0.258,1.903,0.561,3.312,0.912c1.854,0.449,3.359,0.889,4.512,1.32s2.137,1.119,2.953,2.062
		c0.815,0.944,1.224,2.217,1.224,3.816c0,2.336-0.792,4.191-2.376,5.568c-1.584,1.375-3.607,2.062-6.071,2.062
		c-1.855,0-3.688-0.398-5.496-1.199c-1.81-0.8-3.24-1.938-4.297-3.408L461.307,19.226z"/>
	<path fill="#FFFFFF" d="M513.819,0.794c1.023,0.545,1.777,1.473,2.256,2.785c0.48,1.312,0.721,3.104,0.721,5.375v16.225h-2.592
		V9.53c0-1.92-0.16-3.367-0.479-4.344c-0.32-0.977-0.832-1.656-1.535-2.04c-0.705-0.384-1.713-0.575-3.024-0.575
		c-1.345,0-2.703,0.191-4.08,0.575c-1.375,0.384-2.879,1.009-4.513,1.872v20.16h-2.592V0.219h2.592v2.928
		c1.474-1.056,2.929-1.848,4.369-2.376c1.439-0.527,3.039-0.792,4.799-0.792C511.436-0.022,512.795,0.251,513.819,0.794z"/>
	<path fill="#FFFFFF" d="M542.715,12.985l-15.121,0.049c0.033,3.84,0.785,6.545,2.258,8.111c1.471,1.568,3.422,2.354,5.855,2.354
		c1.088,0,2.118-0.121,3.096-0.36c0.977-0.24,2.137-0.583,3.479-1.032l0.433,2.064c-1.568,0.607-2.855,1.048-3.863,1.318
		c-1.01,0.272-2.105,0.408-3.289,0.408c-3.199,0-5.768-1.062-7.703-3.191c-1.938-2.127-2.904-5.432-2.904-9.912
		c0-4.416,0.929-7.655,2.783-9.719c1.855-2.064,4.336-3.098,7.439-3.098c2.816,0,4.816,0.792,6,2.376s1.777,3.802,1.777,6.647
		C542.955,10.314,542.875,11.642,542.715,12.985z M527.643,11.018l12.721-0.19c0.096-0.77,0.144-1.602,0.144-2.496
		c0-1.984-0.433-3.512-1.295-4.584c-0.865-1.072-2.273-1.608-4.226-1.608C530.475,2.138,528.028,5.098,527.643,11.018z"/>
	<path fill="#FFFFFF" d="M552.051,2.954c1.807-1.983,4.229-2.977,7.271-2.977c1.185,0,2.377,0.145,3.576,0.434
		c1.199,0.287,2.279,0.688,3.24,1.199l-0.625,1.969c-1.855-0.832-3.775-1.248-5.761-1.248c-2.622,0-4.584,0.783-5.879,2.352
		c-1.297,1.568-1.944,4.145-1.944,7.729c0,7.137,2.608,10.703,7.823,10.703c1.601,0,3.664-0.336,6.193-1.008l0.432,1.872
		c-2.592,1.024-4.864,1.536-6.815,1.536c-3.041,0-5.504-1.057-7.394-3.168c-1.889-2.111-2.832-5.407-2.832-9.889
		C549.338,8.106,550.241,4.938,552.051,2.954z"/>
	<path fill="#FFFFFF" d="M589.946,12.985l-15.119,0.049c0.031,3.84,0.783,6.545,2.256,8.111c1.472,1.568,3.425,2.354,5.855,2.354
		c1.088,0,2.119-0.121,3.096-0.36c0.978-0.24,2.137-0.583,3.48-1.032l0.432,2.064c-1.568,0.607-2.854,1.048-3.863,1.318
		c-1.008,0.272-2.104,0.408-3.287,0.408c-3.2,0-5.77-1.062-7.704-3.191c-1.936-2.127-2.904-5.432-2.904-9.912
		c0-4.416,0.928-7.655,2.785-9.719c1.854-2.064,4.336-3.098,7.438-3.098c2.814,0,4.816,0.792,6,2.376
		c1.185,1.584,1.775,3.802,1.775,6.647C590.186,10.314,590.106,11.642,589.946,12.985z M574.875,11.018l12.719-0.19
		c0.096-0.77,0.145-1.602,0.145-2.496c0-1.984-0.432-3.512-1.297-4.584c-0.863-1.072-2.271-1.608-4.223-1.608
		C577.707,2.138,575.258,5.098,574.875,11.018z"/>
	<path fill="#FFFFFF" d="M597.194,19.226c0.832,1.186,2.049,2.137,3.648,2.855c1.6,0.721,3.184,1.08,4.752,1.08
		c1.695,0,3.119-0.455,4.271-1.367c1.152-0.912,1.729-2.12,1.729-3.625c0-1.023-0.312-1.854-0.937-2.495
		c-0.625-0.64-1.385-1.128-2.28-1.464s-2.127-0.713-3.695-1.129c-1.695-0.416-3.064-0.823-4.104-1.225
		c-1.041-0.398-1.92-0.998-2.641-1.8c-0.719-0.8-1.08-1.854-1.08-3.168c0-1.407,0.4-2.632,1.201-3.672
		c0.799-1.039,1.862-1.841,3.19-2.399c1.328-0.561,2.744-0.841,4.248-0.841c2.783,0,5.279,0.912,7.488,2.735l-0.912,1.775
		c-0.93-0.672-1.953-1.191-3.072-1.56c-1.121-0.367-2.256-0.552-3.407-0.552c-1.761,0-3.257,0.408-4.488,1.224
		c-1.232,0.815-1.849,1.864-1.849,3.146c0,0.799,0.265,1.447,0.794,1.942c0.526,0.497,1.19,0.872,1.989,1.128
		c0.802,0.258,1.904,0.561,3.312,0.912c1.854,0.449,3.359,0.889,4.512,1.32c1.153,0.431,2.137,1.119,2.953,2.062
		c0.816,0.944,1.223,2.217,1.223,3.816c0,2.336-0.791,4.191-2.375,5.568c-1.584,1.375-3.608,2.062-6.071,2.062
		c-1.855,0-3.688-0.398-5.496-1.199c-1.81-0.8-3.24-1.938-4.295-3.408L597.194,19.226z"/>
	<path fill="#FFFFFF" d="M620.235,19.226c0.832,1.186,2.047,2.137,3.648,2.855c1.6,0.721,3.184,1.08,4.752,1.08
		c1.695,0,3.119-0.455,4.271-1.367c1.152-0.912,1.729-2.12,1.729-3.625c0-1.023-0.312-1.854-0.938-2.495
		c-0.623-0.64-1.385-1.128-2.278-1.464c-0.896-0.336-2.129-0.713-3.695-1.129c-1.697-0.416-3.064-0.823-4.105-1.225
		c-1.039-0.398-1.92-0.998-2.639-1.8c-0.721-0.8-1.08-1.854-1.08-3.168c0-1.407,0.398-2.632,1.199-3.672
		c0.799-1.039,1.863-1.841,3.191-2.399c1.327-0.561,2.743-0.841,4.247-0.841c2.785,0,5.281,0.912,7.488,2.735l-0.912,1.775
		c-0.928-0.672-1.951-1.191-3.071-1.56c-1.119-0.367-2.257-0.552-3.406-0.552c-1.763,0-3.258,0.408-4.488,1.224
		c-1.232,0.815-1.848,1.864-1.848,3.146c0,0.799,0.264,1.447,0.791,1.942c0.526,0.497,1.19,0.872,1.992,1.128
		c0.799,0.258,1.903,0.561,3.312,0.912c1.854,0.449,3.358,0.889,4.512,1.32c1.153,0.431,2.136,1.119,2.951,2.062
		c0.816,0.944,1.226,2.217,1.226,3.816c0,2.336-0.794,4.191-2.378,5.568c-1.584,1.375-3.606,2.062-6.069,2.062
		c-1.857,0-3.689-0.398-5.496-1.199c-1.81-0.8-3.24-1.938-4.297-3.408L620.235,19.226z"/>
	<path fill="#FFFFFF" d="M656.522,0.794c1.121,0.545,1.951,1.48,2.496,2.809s0.816,3.161,0.816,5.496v16.08h-2.306v-3.359
		c-2.367,2.465-5.104,3.695-8.207,3.695c-2.496,0-4.336-0.654-5.52-1.969c-1.187-1.311-1.777-2.977-1.777-4.991
		c0-2.304,0.703-4.08,2.113-5.328c1.405-1.248,3.471-1.888,6.19-1.92h6.959v-0.624c0-2.238-0.168-3.951-0.504-5.137
		c-0.336-1.184-0.912-2.016-1.727-2.495c-0.816-0.479-1.978-0.72-3.48-0.72c-2.111,0-4.672,0.432-7.68,1.295l-0.529-1.823
		c1.504-0.606,2.953-1.063,4.346-1.368c1.392-0.305,2.839-0.456,4.345-0.456C653.914-0.022,655.403,0.251,656.522,0.794z
		 M645.914,21.89c0.895,0.85,2.143,1.271,3.743,1.271c1.216,0,2.479-0.279,3.791-0.84c1.312-0.56,2.593-1.32,3.841-2.279v-6.625
		h-7.104c-2.016,0-3.455,0.465-4.32,1.393c-0.862,0.93-1.295,2.111-1.295,3.553C644.571,19.866,645.018,21.042,645.914,21.89z"/>
	<path fill="#FFFFFF" d="M681.625,2.521c-1.791,0.032-3.474,0.32-5.039,0.864c-1.568,0.545-2.929,1.279-4.08,2.208v19.584h-2.592
		V0.218h2.592v3.264c1.119-0.96,2.504-1.768,4.151-2.424c1.646-0.654,3.367-1.016,5.16-1.08L681.625,2.521z"/>
	<path fill="#FFFFFF" d="M704.281,0.218l-11.953,34.561h-2.639L693,25.178l-8.641-24.96h2.832l7.104,21.695l7.344-21.695H704.281z"
		/>
	<path fill="#FFFFFF" d="M164.745,70.178c-1.28,0.192-2.465,0.288-3.553,0.288c-2.016,0-3.6-0.36-4.752-1.08
		c-1.151-0.721-1.968-1.801-2.447-3.24c-0.48-1.439-0.721-3.326-0.721-5.664V47.233h-2.88v-2.016h2.88v-6.336h2.448v6.336h7.248
		v2.016h-7.248V60.53c0,1.953,0.192,3.496,0.576,4.633c0.384,1.136,1.016,1.951,1.896,2.447s2.072,0.743,3.576,0.743
		c0.769,0,1.632-0.048,2.592-0.144L164.745,70.178z"/>
	<path fill="#FFFFFF" d="M171.513,67.755c-1.665-2.032-2.496-5.336-2.496-9.912c0-4.512,0.84-7.783,2.521-9.816
		c1.68-2.031,4.296-3.048,7.848-3.048s6.168,1.017,7.848,3.048c1.681,2.033,2.521,5.289,2.521,9.77c0,4.544-0.849,7.848-2.544,9.912
		c-1.696,2.062-4.336,3.096-7.92,3.096C175.768,70.802,173.177,69.786,171.513,67.755z M185.217,66.003
		c1.23-1.696,1.848-4.528,1.848-8.496c0-2.561-0.248-4.6-0.744-6.12c-0.497-1.521-1.289-2.616-2.376-3.288
		c-1.088-0.672-2.561-1.008-4.416-1.008c-1.92,0-3.448,0.359-4.584,1.08c-1.136,0.72-1.96,1.871-2.472,3.455
		s-0.768,3.688-0.768,6.312s0.256,4.704,0.768,6.24s1.304,2.648,2.376,3.336s2.503,1.031,4.296,1.031
		C181.96,68.546,183.985,67.698,185.217,66.003z"/>
	<path fill="#FFFFFF" d="M222.056,47.521c-1.792,0.032-3.473,0.32-5.04,0.864c-1.568,0.545-2.928,1.279-4.08,2.208v19.584h-2.592
		v-24.96h2.592v3.264c1.12-0.959,2.504-1.768,4.152-2.424c1.646-0.654,3.367-1.016,5.16-1.08L222.056,47.521z"/>
	<path fill="#FFFFFF" d="M244.376,57.985l-15.12,0.049c0.031,3.84,0.784,6.545,2.256,8.111c1.472,1.568,3.424,2.354,5.856,2.354
		c1.087,0,2.119-0.121,3.096-0.36c0.976-0.239,2.136-0.583,3.479-1.032l0.433,2.064c-1.568,0.607-2.856,1.048-3.864,1.318
		c-1.008,0.272-2.104,0.408-3.288,0.408c-3.2,0-5.768-1.062-7.704-3.191c-1.936-2.127-2.904-5.432-2.904-9.912
		c0-4.416,0.929-7.655,2.784-9.719c1.855-2.064,4.335-3.098,7.44-3.098c2.814,0,4.814,0.792,6,2.376
		c1.184,1.584,1.775,3.802,1.775,6.647C244.615,55.314,244.536,56.642,244.376,57.985z M229.304,56.018l12.72-0.19
		c0.097-0.77,0.145-1.602,0.145-2.496c0-1.984-0.433-3.512-1.296-4.584c-0.864-1.072-2.272-1.608-4.225-1.608
		C232.136,47.138,229.688,50.098,229.304,56.018z"/>
	<path fill="#FFFFFF" d="M253.712,47.954c1.808-1.983,4.23-2.977,7.271-2.977c1.185,0,2.376,0.145,3.576,0.434
		c1.2,0.287,2.28,0.688,3.24,1.199l-0.624,1.969c-1.856-0.832-3.776-1.248-5.76-1.248c-2.624,0-4.584,0.783-5.88,2.352
		c-1.297,1.568-1.944,4.145-1.944,7.729c0,7.137,2.607,10.703,7.824,10.703c1.6,0,3.664-0.336,6.191-1.008l0.433,1.872
		c-2.593,1.024-4.865,1.536-6.816,1.536c-3.041,0-5.504-1.057-7.392-3.168c-1.89-2.111-2.832-5.406-2.832-9.889
		C251,53.106,251.904,49.938,253.712,47.954z"/>
	<path fill="#FFFFFF" d="M276.344,67.755c-1.665-2.032-2.496-5.336-2.496-9.912c0-4.512,0.84-7.783,2.52-9.816
		c1.681-2.031,4.297-3.048,7.849-3.048s6.168,1.017,7.848,3.048c1.68,2.033,2.521,5.289,2.521,9.77c0,4.544-0.849,7.848-2.544,9.912
		c-1.696,2.062-4.336,3.096-7.921,3.096C280.599,70.802,278.007,69.786,276.344,67.755z M290.048,66.003
		c1.23-1.696,1.848-4.528,1.848-8.496c0-2.561-0.248-4.6-0.744-6.12c-0.497-1.521-1.289-2.616-2.376-3.288
		c-1.088-0.672-2.561-1.008-4.416-1.008c-1.92,0-3.448,0.359-4.584,1.08c-1.136,0.72-1.96,1.871-2.472,3.455
		s-0.768,3.688-0.768,6.312s0.256,4.704,0.768,6.24s1.304,2.648,2.376,3.336s2.503,1.031,4.296,1.031
		C286.791,68.546,288.815,67.698,290.048,66.003z"/>
	<path fill="#FFFFFF" d="M315.823,45.218c1.393,0.225,2.696,0.527,3.912,0.912v23.904c0,3.678-0.752,6.271-2.256,7.774
		s-3.744,2.256-6.72,2.256c-1.664,0-3.208-0.28-4.632-0.84c-1.424-0.562-2.84-1.368-4.248-2.424l0.912-1.536
		c1.248,0.863,2.56,1.512,3.936,1.943c1.375,0.433,2.592,0.647,3.648,0.647c2.271,0,3.976-0.544,5.111-1.632
		c1.137-1.088,1.704-3.023,1.704-5.809v-1.967c-2.144,1.535-4.479,2.303-7.008,2.303c-2.816,0-5.096-1-6.84-3
		s-2.616-5.19-2.616-9.575c0-4.673,1.017-8.056,3.048-10.152c2.032-2.095,4.776-3.144,8.232-3.144
		C313.158,44.882,314.431,44.995,315.823,45.218z M314.047,67.921c1.2-0.383,2.248-0.848,3.144-1.393V47.856
		c-1.76-0.414-3.392-0.623-4.896-0.623c-3.008,0-5.265,0.791-6.769,2.375s-2.256,4.297-2.256,8.137c0,3.776,0.672,6.513,2.017,8.209
		c1.344,1.695,3.119,2.543,5.327,2.543C311.703,68.499,312.847,68.306,314.047,67.921z"/>
	<path fill="#FFFFFF" d="M345.655,45.794c1.024,0.545,1.776,1.473,2.257,2.785c0.479,1.312,0.72,3.104,0.72,5.375v16.225h-2.592
		V54.53c0-1.92-0.161-3.367-0.48-4.344c-0.32-0.977-0.833-1.656-1.536-2.04c-0.704-0.384-1.712-0.575-3.023-0.575
		c-1.345,0-2.705,0.191-4.08,0.575c-1.376,0.384-2.88,1.009-4.513,1.872v20.16h-2.592v-24.96h2.592v2.928
		c1.473-1.056,2.929-1.848,4.368-2.376c1.44-0.527,3.04-0.792,4.8-0.792C343.27,44.978,344.63,45.251,345.655,45.794z"/>
	<path fill="#FFFFFF" d="M358.567,38.499c-0.384-0.385-0.576-0.864-0.576-1.44c0-0.544,0.192-1.008,0.576-1.392
		c0.384-0.385,0.864-0.576,1.44-0.576c0.512,0,0.968,0.191,1.368,0.576c0.399,0.384,0.6,0.848,0.6,1.392
		c0,0.576-0.192,1.056-0.576,1.44c-0.384,0.384-0.848,0.576-1.392,0.576C359.431,39.075,358.95,38.882,358.567,38.499z
		 M358.663,45.218h2.592v24.96h-2.592V45.218z"/>
	<path fill="#FFFFFF" d="M386.551,67.827v2.352h-17.856v-2.641l14.16-20.017h-13.584v-2.304h16.176v2.4l-14.111,20.207h15.216
		V67.827z"/>
	<path fill="#FFFFFF" d="M409.877,57.985l-15.119,0.049c0.031,3.84,0.784,6.545,2.256,8.111c1.472,1.568,3.424,2.354,5.854,2.354
		c1.089,0,2.12-0.121,3.098-0.36c0.976-0.239,2.136-0.583,3.479-1.032l0.434,2.064c-1.568,0.607-2.856,1.048-3.864,1.318
		c-1.008,0.272-2.104,0.408-3.288,0.408c-3.2,0-5.769-1.062-7.704-3.191c-1.936-2.127-2.903-5.432-2.903-9.912
		c0-4.416,0.928-7.655,2.783-9.719c1.855-2.064,4.335-3.098,7.44-3.098c2.814,0,4.814,0.792,6,2.376
		c1.184,1.584,1.774,3.802,1.774,6.647C410.116,55.314,410.036,56.642,409.877,57.985z M394.806,56.018l12.72-0.19
		c0.096-0.77,0.146-1.602,0.146-2.496c0-1.984-0.433-3.512-1.298-4.584c-0.862-1.072-2.271-1.608-4.223-1.608
		C397.638,47.138,395.19,50.098,394.806,56.018z"/>
	<path fill="#FFFFFF" d="M430.66,38.499c-0.384-0.385-0.574-0.864-0.574-1.44c0-0.544,0.19-1.008,0.574-1.392
		c0.385-0.385,0.864-0.576,1.44-0.576c0.512,0,0.967,0.191,1.367,0.576c0.399,0.384,0.601,0.848,0.601,1.392
		c0,0.576-0.191,1.056-0.576,1.44c-0.384,0.384-0.849,0.576-1.392,0.576C431.526,39.075,431.045,38.882,430.66,38.499z
		 M430.758,45.218h2.592v24.96h-2.592V45.218z"/>
	<path fill="#FFFFFF" d="M454.805,70.178c-1.279,0.192-2.464,0.288-3.553,0.288c-2.016,0-3.6-0.36-4.752-1.08
		c-1.15-0.721-1.968-1.801-2.447-3.24s-0.721-3.326-0.721-5.664V47.233h-2.88v-2.016h2.88v-6.336h2.448v6.336h7.248v2.016h-7.248
		V60.53c0,1.953,0.191,3.496,0.576,4.633c0.384,1.136,1.016,1.951,1.896,2.447c0.881,0.496,2.071,0.743,3.576,0.743
		c0.77,0,1.633-0.048,2.594-0.144L454.805,70.178z"/>
	<path fill="#FFFFFF" d="M459.7,64.226c0.831,1.186,2.048,2.137,3.647,2.855c1.6,0.721,3.184,1.08,4.752,1.08
		c1.696,0,3.12-0.455,4.271-1.367c1.152-0.912,1.729-2.121,1.729-3.625c0-1.023-0.312-1.854-0.938-2.496
		c-0.623-0.639-1.384-1.127-2.278-1.463c-0.896-0.336-2.129-0.713-3.696-1.129c-1.696-0.416-3.064-0.823-4.104-1.225
		c-1.039-0.398-1.921-0.998-2.64-1.8c-0.721-0.8-1.08-1.854-1.08-3.168c0-1.407,0.399-2.632,1.199-3.672
		c0.8-1.039,1.863-1.841,3.192-2.399c1.326-0.561,2.742-0.841,4.248-0.841c2.783,0,5.279,0.912,7.486,2.735l-0.912,1.775
		c-0.928-0.672-1.951-1.191-3.07-1.56c-1.12-0.367-2.256-0.552-3.408-0.552c-1.761,0-3.257,0.408-4.487,1.224
		c-1.231,0.815-1.849,1.864-1.849,3.146c0,0.799,0.265,1.447,0.792,1.942c0.526,0.497,1.19,0.872,1.992,1.128
		c0.799,0.258,1.902,0.561,3.312,0.912c1.855,0.449,3.359,0.889,4.512,1.32c1.153,0.431,2.137,1.119,2.951,2.062
		c0.816,0.944,1.226,2.217,1.226,3.816c0,2.336-0.792,4.191-2.376,5.568c-1.584,1.375-3.608,2.062-6.072,2.062
		c-1.856,0-3.688-0.398-5.496-1.2c-1.809-0.799-3.239-1.937-4.296-3.407L459.7,64.226z"/>
	<path fill="#FFFFFF" d="M496.373,31.778h2.543v38.399h-2.543V31.778z"/>
	<path fill="#FFFFFF" d="M520.995,45.794c1.119,0.545,1.951,1.48,2.496,2.809c0.543,1.328,0.814,3.161,0.814,5.496v16.08h-2.304
		v-3.359c-2.368,2.465-5.104,3.695-8.209,3.695c-2.495,0-4.336-0.654-5.52-1.968c-1.184-1.312-1.775-2.978-1.775-4.992
		c0-2.304,0.703-4.08,2.111-5.328s3.473-1.888,6.191-1.92h6.961v-0.624c0-2.238-0.168-3.951-0.504-5.136s-0.912-2.017-1.729-2.496
		c-0.815-0.479-1.977-0.72-3.479-0.72c-2.111,0-4.672,0.432-7.681,1.295l-0.526-1.823c1.504-0.606,2.951-1.063,4.344-1.368
		c1.393-0.304,2.84-0.456,4.344-0.456C518.387,44.978,519.875,45.251,520.995,45.794z M510.387,66.89
		c0.896,0.85,2.145,1.271,3.744,1.271c1.217,0,2.479-0.279,3.793-0.84c1.311-0.56,2.592-1.32,3.84-2.279v-6.625h-7.104
		c-2.016,0-3.457,0.465-4.319,1.393c-0.865,0.93-1.297,2.111-1.297,3.553C509.043,64.866,509.491,66.042,510.387,66.89z"/>
	<path fill="#FFFFFF" d="M550.227,45.794c1.023,0.545,1.777,1.473,2.256,2.785c0.48,1.312,0.721,3.104,0.721,5.375v16.225h-2.592
		V54.53c0-1.92-0.16-3.367-0.479-4.344c-0.32-0.977-0.832-1.656-1.535-2.04c-0.705-0.384-1.713-0.575-3.025-0.575
		c-1.344,0-2.703,0.191-4.08,0.575c-1.375,0.384-2.879,1.009-4.512,1.872v20.16h-2.592v-24.96h2.592v2.928
		c1.473-1.056,2.928-1.848,4.369-2.376c1.438-0.527,3.039-0.792,4.799-0.792C547.844,44.978,549.202,45.251,550.227,45.794z"/>
	<path fill="#FFFFFF" d="M576.268,45.218c1.391,0.225,2.695,0.527,3.912,0.912v23.904c0,3.678-0.754,6.271-2.258,7.774
		s-3.742,2.256-6.72,2.256c-1.663,0-3.209-0.28-4.633-0.84c-1.424-0.562-2.84-1.368-4.248-2.424l0.912-1.536
		c1.248,0.863,2.562,1.512,3.937,1.943c1.377,0.433,2.594,0.647,3.647,0.647c2.271,0,3.978-0.544,5.113-1.632
		c1.135-1.088,1.703-3.023,1.703-5.809v-1.967c-2.146,1.535-4.48,2.303-7.009,2.303c-2.815,0-5.096-1-6.84-3
		s-2.617-5.19-2.617-9.575c0-4.673,1.017-8.056,3.05-10.152c2.03-2.095,4.774-3.144,8.231-3.144
		C573.604,44.882,574.875,44.995,576.268,45.218z M574.49,67.921c1.201-0.383,2.248-0.848,3.146-1.393V47.856
		c-1.76-0.414-3.394-0.623-4.896-0.623c-3.008,0-5.264,0.791-6.768,2.375s-2.256,4.297-2.256,8.137c0,3.776,0.672,6.513,2.016,8.209
		c1.344,1.695,3.121,2.543,5.328,2.543C572.147,68.499,573.291,68.306,574.49,67.921z"/>
	<path fill="#FFFFFF" d="M608.115,45.218v24.96h-2.594v-2.593c-1.344,0.93-2.68,1.633-4.008,2.111
		c-1.328,0.48-2.729,0.721-4.199,0.721c-1.697,0-3.057-0.279-4.08-0.84c-1.024-0.56-1.774-1.496-2.256-2.809
		c-0.479-1.312-0.721-3.104-0.721-5.376V45.217h2.641V60.96c0,1.92,0.16,3.377,0.479,4.369c0.318,0.992,0.832,1.68,1.535,2.062
		s1.695,0.576,2.978,0.576c2.08,0,4.623-0.784,7.631-2.352v-20.4h2.594V45.218z"/>
	<path fill="#FFFFFF" d="M630.194,45.794c1.121,0.545,1.951,1.48,2.496,2.809s0.816,3.161,0.816,5.496v16.08H631.2v-3.359
		c-2.366,2.465-5.104,3.695-8.207,3.695c-2.495,0-4.336-0.654-5.52-1.968c-1.187-1.312-1.777-2.978-1.777-4.992
		c0-2.304,0.703-4.08,2.113-5.328c1.406-1.248,3.471-1.888,6.19-1.92h6.959v-0.624c0-2.238-0.168-3.951-0.504-5.136
		s-0.912-2.017-1.727-2.496c-0.816-0.479-1.977-0.72-3.48-0.72c-2.11,0-4.672,0.432-7.68,1.295l-0.529-1.823
		c1.504-0.606,2.953-1.063,4.347-1.368c1.391-0.304,2.838-0.456,4.344-0.456C627.586,44.978,629.073,45.251,630.194,45.794z
		 M619.586,66.89c0.895,0.85,2.143,1.271,3.744,1.271c1.215,0,2.479-0.279,3.791-0.84c1.312-0.56,2.592-1.32,3.84-2.279v-6.625
		h-7.104c-2.016,0-3.455,0.465-4.319,1.393c-0.863,0.93-1.296,2.111-1.296,3.553C618.241,64.866,618.69,66.042,619.586,66.89z"/>
	<path fill="#FFFFFF" d="M656.616,45.218c1.394,0.225,2.695,0.527,3.912,0.912v23.904c0,3.678-0.752,6.271-2.256,7.774
		s-3.744,2.256-6.721,2.256c-1.664,0-3.207-0.28-4.631-0.84c-1.425-0.562-2.841-1.368-4.248-2.424l0.911-1.536
		c1.248,0.863,2.56,1.512,3.937,1.943c1.375,0.433,2.592,0.647,3.647,0.647c2.271,0,3.976-0.544,5.111-1.632
		c1.135-1.088,1.705-3.023,1.705-5.809v-1.967c-2.145,1.535-4.479,2.303-7.01,2.303c-2.814,0-5.096-1-6.84-3
		s-2.615-5.19-2.615-9.575c0-4.673,1.016-8.056,3.049-10.152c2.031-2.095,4.775-3.144,8.23-3.144
		C653.952,44.882,655.225,44.995,656.616,45.218z M654.842,67.921c1.199-0.383,2.248-0.848,3.145-1.393V47.856
		c-1.762-0.414-3.393-0.623-4.896-0.623c-3.009,0-5.267,0.791-6.769,2.375c-1.506,1.584-2.258,4.297-2.258,8.137
		c0,3.776,0.674,6.513,2.018,8.209c1.345,1.695,3.119,2.543,5.328,2.543C652.495,68.499,653.641,68.306,654.842,67.921z"/>
	<path fill="#FFFFFF" d="M686.495,57.985l-15.118,0.049c0.03,3.84,0.782,6.545,2.256,8.111c1.471,1.568,3.424,2.354,5.854,2.354
		c1.088,0,2.119-0.121,3.097-0.36c0.977-0.239,2.137-0.583,3.479-1.032l0.432,2.064c-1.567,0.607-2.854,1.048-3.862,1.318
		c-1.008,0.272-2.104,0.408-3.287,0.408c-3.201,0-5.771-1.062-7.705-3.191c-1.936-2.127-2.904-5.432-2.904-9.912
		c0-4.416,0.928-7.655,2.785-9.719c1.855-2.064,4.336-3.098,7.439-3.098c2.813,0,4.815,0.792,6,2.376
		c1.184,1.584,1.774,3.802,1.774,6.647C686.737,55.314,686.656,56.642,686.495,57.985z M671.426,56.018l12.719-0.19
		c0.096-0.77,0.145-1.602,0.145-2.496c0-1.984-0.432-3.512-1.297-4.584c-0.862-1.072-2.271-1.608-4.223-1.608
		C674.258,47.138,671.809,50.098,671.426,56.018z"/>
</g>
</svg>
