<?xml version="1.0" encoding="utf-8"?>
<!-- Generator: Adobe Illustrator 15.1.0, SVG Export Plug-In . SVG Version: 6.00 Build 0)  -->
<!DOCTYPE svg PUBLIC "-//W3C//DTD SVG 1.1//EN" "http://www.w3.org/Graphics/SVG/1.1/DTD/svg11.dtd">
<svg version="1.1" id="Abre" xmlns="http://www.w3.org/2000/svg" xmlns:xlink="http://www.w3.org/1999/xlink" x="0px" y="0px"
	 width="800px" height="150px" viewBox="0 150 800 150" enable-background="new 0 150 800 150" xml:space="preserve">
<g>
	<path fill="#FFFFFF" d="M148.161,164.169h-10.704v33.744h-2.64v-33.744h-10.656v-2.256h24V164.169z"/>
	<path fill="#FFFFFF" d="M156.321,195.49c-1.665-2.032-2.496-5.336-2.496-9.912c0-4.512,0.84-7.783,2.52-9.816
		c1.68-2.031,4.296-3.048,7.848-3.048c3.552,0,6.168,1.017,7.848,3.048c1.68,2.033,2.52,5.289,2.52,9.769
		c0,4.544-0.848,7.848-2.544,9.912c-1.696,2.063-4.336,3.096-7.92,3.096C160.576,198.537,157.985,197.522,156.321,195.49z
		 M170.025,193.738c1.231-1.696,1.848-4.528,1.848-8.496c0-2.56-0.248-4.6-0.744-6.12c-0.497-1.52-1.289-2.616-2.376-3.288
		c-1.088-0.672-2.561-1.008-4.416-1.008c-1.92,0-3.449,0.36-4.584,1.08c-1.136,0.72-1.96,1.872-2.472,3.456
		c-0.512,1.584-0.768,3.688-0.768,6.312c0,2.624,0.256,4.704,0.768,6.24c0.512,1.536,1.304,2.648,2.376,3.336
		c1.072,0.688,2.503,1.032,4.296,1.032C166.768,196.281,168.793,195.434,170.025,193.738z"/>
	<path fill="#FFFFFF" d="M213.009,172.953v24.96h-2.592v-2.592c-1.344,0.929-2.681,1.632-4.008,2.111
		c-1.328,0.48-2.729,0.721-4.2,0.721c-1.697,0-3.057-0.28-4.08-0.84c-1.024-0.56-1.776-1.496-2.256-2.809
		c-0.48-1.312-0.72-3.104-0.72-5.376v-16.176h2.64v15.744c0,1.92,0.16,3.376,0.48,4.368c0.319,0.992,0.832,1.68,1.536,2.063
		c0.704,0.384,1.696,0.576,2.976,0.576c2.08,0,4.624-0.784,7.632-2.352v-20.4H213.009z"/>
	<path fill="#FFFFFF" d="M238.927,173.53c1.024,0.544,1.776,1.472,2.256,2.784c0.48,1.312,0.72,3.104,0.72,5.376v16.224h-2.592
		v-15.648c0-1.92-0.161-3.367-0.48-4.344c-0.32-0.976-0.833-1.656-1.536-2.04c-0.704-0.384-1.712-0.576-3.024-0.576
		c-1.344,0-2.705,0.192-4.08,0.576c-1.376,0.384-2.88,1.008-4.512,1.872v20.16h-2.592v-24.96h2.592v2.928
		c1.472-1.056,2.928-1.848,4.368-2.376c1.44-0.527,3.04-0.792,4.8-0.792C236.543,172.713,237.903,172.986,238.927,173.53z"/>
	<path fill="#FFFFFF" d="M269.167,197.241c-1.312,0.416-2.808,0.744-4.488,0.983c-1.68,0.24-3.144,0.36-4.392,0.36
		c-6.816,0-10.224-4.207-10.224-12.624c0-4.607,0.968-7.999,2.904-10.176c1.936-2.176,4.648-3.264,8.136-3.264
		c1.824,0,3.616,0.239,5.376,0.72v-13.729h2.64L269.167,197.241z M254.671,193.929c1.375,1.601,3.439,2.4,6.192,2.4
		c1.44,0,3.312-0.224,5.616-0.672v-20.064c-1.824-0.479-3.473-0.72-4.944-0.72c-2.88,0-5.088,0.872-6.624,2.616
		c-1.536,1.744-2.304,4.584-2.304,8.52C252.607,189.69,253.295,192.329,254.671,193.929z"/>
	<path fill="#FFFFFF" d="M295.135,185.721l-15.12,0.049c0.031,3.84,0.784,6.544,2.256,8.111c1.472,1.568,3.424,2.353,5.856,2.353
		c1.087,0,2.12-0.12,3.096-0.36c0.976-0.24,2.136-0.583,3.48-1.032l0.432,2.064c-1.568,0.608-2.856,1.048-3.864,1.319
		c-1.008,0.272-2.104,0.408-3.288,0.408c-3.2,0-5.768-1.063-7.704-3.191s-2.904-5.432-2.904-9.912c0-4.416,0.928-7.656,2.784-9.72
		c1.855-2.064,4.335-3.097,7.44-3.097c2.815,0,4.815,0.792,6,2.376c1.184,1.584,1.776,3.801,1.776,6.648
		C295.375,183.05,295.295,184.377,295.135,185.721z M280.063,183.753l12.72-0.191c0.096-0.769,0.144-1.601,0.144-2.496
		c0-1.984-0.432-3.512-1.296-4.584c-0.864-1.072-2.272-1.608-4.224-1.608C282.895,174.873,280.447,177.833,280.063,183.753z"/>
	<path fill="#FFFFFF" d="M315.343,175.257c-1.792,0.032-3.473,0.32-5.04,0.864c-1.568,0.545-2.928,1.28-4.08,2.208v19.584h-2.592
		v-24.96h2.592v3.264c1.12-0.96,2.504-1.768,4.152-2.424c1.647-0.655,3.367-1.016,5.16-1.08L315.343,175.257z"/>
	<path fill="#FFFFFF" d="M320.526,191.961c0.832,1.185,2.047,2.136,3.648,2.856c1.6,0.72,3.184,1.08,4.752,1.08
		c1.696,0,3.12-0.456,4.272-1.368c1.152-0.912,1.728-2.12,1.728-3.624c0-1.024-0.312-1.855-0.936-2.496
		c-0.624-0.64-1.384-1.128-2.28-1.464c-0.896-0.336-2.128-0.712-3.696-1.128c-1.696-0.416-3.064-0.824-4.104-1.225
		c-1.04-0.399-1.92-0.999-2.64-1.8c-0.72-0.8-1.08-1.855-1.08-3.168c0-1.407,0.4-2.632,1.2-3.672c0.8-1.039,1.864-1.84,3.192-2.4
		c1.327-0.56,2.743-0.84,4.248-0.84c2.784,0,5.28,0.912,7.488,2.736l-0.912,1.775c-0.928-0.672-1.952-1.191-3.072-1.56
		c-1.121-0.367-2.256-0.552-3.408-0.552c-1.76,0-3.256,0.408-4.488,1.224c-1.232,0.816-1.848,1.864-1.848,3.145
		c0,0.8,0.264,1.448,0.792,1.943c0.528,0.497,1.192,0.872,1.992,1.128c0.799,0.257,1.903,0.561,3.312,0.912
		c1.855,0.449,3.36,0.889,4.512,1.32c1.152,0.432,2.136,1.12,2.952,2.063c0.816,0.944,1.224,2.217,1.224,3.816
		c0,2.336-0.792,4.192-2.376,5.568s-3.608,2.063-6.072,2.063c-1.856,0-3.688-0.399-5.496-1.2c-1.808-0.799-3.24-1.936-4.296-3.407
		L320.526,191.961z"/>
	<path fill="#FFFFFF" d="M356.19,197.913c-1.28,0.192-2.464,0.288-3.552,0.288c-2.016,0-3.6-0.36-4.752-1.08
		c-1.152-0.72-1.968-1.8-2.448-3.24c-0.48-1.439-0.72-3.327-0.72-5.664v-13.248h-2.88v-2.016h2.88v-6.336h2.448v6.336h7.248v2.016
		h-7.248v13.296c0,1.953,0.192,3.497,0.576,4.633c0.384,1.136,1.016,1.952,1.896,2.447c0.88,0.497,2.072,0.744,3.576,0.744
		c0.768,0,1.632-0.048,2.592-0.144L356.19,197.913z"/>
	<path fill="#FFFFFF" d="M374.334,173.53c1.12,0.544,1.952,1.48,2.496,2.808c0.543,1.328,0.816,3.161,0.816,5.496v16.08h-2.304
		v-3.36c-2.368,2.465-5.104,3.696-8.208,3.696c-2.496,0-4.336-0.655-5.52-1.968c-1.184-1.312-1.776-2.977-1.776-4.992
		c0-2.304,0.704-4.08,2.112-5.328s3.472-1.888,6.192-1.92h6.96v-0.624c0-2.239-0.168-3.951-0.504-5.136
		c-0.336-1.184-0.912-2.017-1.728-2.496c-0.816-0.48-1.977-0.72-3.48-0.72c-2.112,0-4.673,0.432-7.68,1.296l-0.528-1.824
		c1.503-0.607,2.952-1.063,4.344-1.368c1.392-0.304,2.839-0.456,4.344-0.456C371.725,172.713,373.213,172.986,374.334,173.53z
		 M363.726,194.625c0.896,0.849,2.144,1.272,3.744,1.272c1.216,0,2.479-0.28,3.792-0.841c1.312-0.559,2.592-1.319,3.84-2.279v-6.624
		h-7.104c-2.016,0-3.456,0.464-4.32,1.392c-0.864,0.929-1.296,2.112-1.296,3.552C362.382,192.602,362.829,193.778,363.726,194.625z"
		/>
	<path fill="#FFFFFF" d="M403.565,173.53c1.024,0.544,1.776,1.472,2.257,2.784c0.479,1.312,0.72,3.104,0.72,5.376v16.224h-2.592
		v-15.648c0-1.92-0.16-3.367-0.48-4.344c-0.32-0.976-0.832-1.656-1.535-2.04c-0.705-0.384-1.713-0.576-3.024-0.576
		c-1.344,0-2.705,0.192-4.08,0.576c-1.376,0.384-2.88,1.008-4.512,1.872v20.16h-2.592v-24.96h2.592v2.928
		c1.472-1.056,2.928-1.848,4.368-2.376c1.44-0.527,3.04-0.792,4.8-0.792C401.181,172.713,402.541,172.986,403.565,173.53z"/>
	<path fill="#FFFFFF" d="M433.805,197.241c-1.312,0.416-2.809,0.744-4.488,0.983c-1.68,0.24-3.144,0.36-4.392,0.36
		c-6.815,0-10.224-4.207-10.224-12.624c0-4.607,0.967-7.999,2.903-10.176c1.937-2.176,4.647-3.264,8.136-3.264
		c1.824,0,3.616,0.239,5.377,0.72v-13.729h2.64L433.805,197.241z M419.309,193.929c1.375,1.601,3.439,2.4,6.191,2.4
		c1.441,0,3.312-0.224,5.617-0.672v-20.064c-1.824-0.479-3.473-0.72-4.944-0.72c-2.88,0-5.089,0.872-6.624,2.616
		c-1.536,1.744-2.305,4.584-2.305,8.52C417.244,189.69,417.933,192.329,419.309,193.929z"/>
	<path fill="#FFFFFF" d="M467.645,197.913c-1.281,0.192-2.465,0.288-3.553,0.288c-2.016,0-3.6-0.36-4.752-1.08
		s-1.968-1.8-2.447-3.24c-0.48-1.439-0.721-3.327-0.721-5.664v-13.248h-2.88v-2.016h2.88v-6.336h2.448v6.336h7.248v2.016h-7.248
		v13.296c0,1.953,0.192,3.497,0.575,4.633c0.385,1.136,1.016,1.952,1.896,2.447c0.88,0.497,2.072,0.744,3.576,0.744
		c0.768,0,1.632-0.048,2.592-0.144L467.645,197.913z"/>
	<path fill="#FFFFFF" d="M489.485,173.53c1.023,0.544,1.775,1.472,2.256,2.784c0.479,1.312,0.719,3.104,0.719,5.376v16.224h-2.592
		v-15.648c0-1.92-0.16-3.367-0.48-4.344c-0.32-0.976-0.832-1.656-1.535-2.04c-0.705-0.384-1.713-0.576-3.023-0.576
		c-1.312,0-2.648,0.192-4.009,0.576s-2.856,0.992-4.487,1.824v20.208h-2.545v-38.4h2.545v16.32c1.439-1.023,2.871-1.8,4.295-2.328
		c1.424-0.527,3.016-0.792,4.777-0.792C487.1,172.713,488.459,172.986,489.485,173.53z"/>
	<path fill="#FFFFFF" d="M518.428,185.721l-15.121,0.049c0.033,3.84,0.785,6.544,2.258,8.111c1.471,1.568,3.422,2.353,5.855,2.353
		c1.088,0,2.119-0.12,3.096-0.36s2.137-0.583,3.48-1.032l0.432,2.064c-1.568,0.608-2.855,1.048-3.863,1.319
		c-1.01,0.272-2.105,0.408-3.289,0.408c-3.199,0-5.768-1.063-7.703-3.191c-1.938-2.128-2.904-5.432-2.904-9.912
		c0-4.416,0.928-7.656,2.783-9.72c1.855-2.064,4.336-3.097,7.439-3.097c2.816,0,4.816,0.792,6,2.376s1.777,3.801,1.777,6.648
		C518.668,183.05,518.588,184.377,518.428,185.721z M503.356,183.753l12.721-0.191c0.096-0.769,0.143-1.601,0.143-2.496
		c0-1.984-0.432-3.512-1.295-4.584c-0.865-1.072-2.273-1.608-4.225-1.608C506.188,174.873,503.74,177.833,503.356,183.753z"/>
	<path fill="#FFFFFF" d="M556.539,197.241c-1.312,0.416-2.809,0.744-4.488,0.983c-1.68,0.24-3.145,0.36-4.393,0.36
		c-6.814,0-10.223-4.207-10.223-12.624c0-4.607,0.967-7.999,2.904-10.176c1.936-2.176,4.646-3.264,8.135-3.264
		c1.824,0,3.617,0.239,5.377,0.72v-13.729h2.639L556.539,197.241z M542.043,193.929c1.375,1.601,3.439,2.4,6.191,2.4
		c1.441,0,3.312-0.224,5.617-0.672v-20.064c-1.824-0.479-3.473-0.72-4.945-0.72c-2.879,0-5.088,0.872-6.623,2.616
		s-2.305,4.584-2.305,8.52C539.979,189.69,540.666,192.329,542.043,193.929z"/>
	<path fill="#FFFFFF" d="M566.524,166.234c-0.385-0.385-0.576-0.864-0.576-1.44c0-0.544,0.191-1.008,0.576-1.392
		c0.383-0.385,0.863-0.576,1.439-0.576c0.512,0,0.967,0.191,1.367,0.576c0.4,0.384,0.6,0.848,0.6,1.392
		c0,0.576-0.191,1.056-0.574,1.44c-0.385,0.384-0.85,0.576-1.393,0.576C567.387,166.81,566.906,166.617,566.524,166.234z
		 M566.619,172.953h2.592v24.96h-2.592V172.953z"/>
	<path fill="#FFFFFF" d="M596.666,172.953l-9.023,24.96h-2.688l-9.025-24.96h2.93l7.439,22.512l7.488-22.512H596.666z"/>
	<path fill="#FFFFFF" d="M619.274,185.721l-15.119,0.049c0.031,3.84,0.783,6.544,2.256,8.111c1.471,1.568,3.424,2.353,5.855,2.353
		c1.088,0,2.119-0.12,3.096-0.36s2.137-0.583,3.48-1.032l0.432,2.064c-1.568,0.608-2.855,1.048-3.863,1.319
		c-1.008,0.272-2.104,0.408-3.287,0.408c-3.201,0-5.77-1.063-7.705-3.191s-2.904-5.432-2.904-9.912c0-4.416,0.928-7.656,2.785-9.72
		c1.855-2.064,4.336-3.097,7.439-3.097c2.814,0,4.816,0.792,6,2.376s1.775,3.801,1.775,6.648
		C619.514,183.05,619.434,184.377,619.274,185.721z M604.203,183.753l12.719-0.191c0.096-0.769,0.145-1.601,0.145-2.496
		c0-1.984-0.432-3.512-1.297-4.584c-0.863-1.072-2.271-1.608-4.223-1.608C607.035,174.873,604.586,177.833,604.203,183.753z"/>
	<path fill="#FFFFFF" d="M639.483,175.257c-1.793,0.032-3.473,0.32-5.041,0.864c-1.568,0.545-2.928,1.28-4.08,2.208v19.584h-2.592
		v-24.96h2.592v3.264c1.121-0.96,2.504-1.768,4.152-2.424c1.648-0.655,3.367-1.016,5.16-1.08L639.483,175.257z"/>
	<path fill="#FFFFFF" d="M644.666,191.961c0.832,1.185,2.047,2.136,3.648,2.856c1.6,0.72,3.184,1.08,4.752,1.08
		c1.695,0,3.119-0.456,4.271-1.368s1.729-2.12,1.729-3.624c0-1.024-0.312-1.855-0.938-2.496c-0.623-0.64-1.385-1.128-2.279-1.464
		c-0.896-0.336-2.129-0.712-3.695-1.128c-1.697-0.416-3.064-0.824-4.105-1.225c-1.039-0.399-1.92-0.999-2.639-1.8
		c-0.721-0.8-1.08-1.855-1.08-3.168c0-1.407,0.398-2.632,1.199-3.672c0.799-1.039,1.863-1.84,3.191-2.4
		c1.328-0.56,2.744-0.84,4.248-0.84c2.785,0,5.281,0.912,7.488,2.736l-0.912,1.775c-0.928-0.672-1.951-1.191-3.072-1.56
		c-1.119-0.367-2.256-0.552-3.406-0.552c-1.762,0-3.258,0.408-4.488,1.224c-1.232,0.816-1.848,1.864-1.848,3.145
		c0,0.8,0.264,1.448,0.791,1.943c0.527,0.497,1.191,0.872,1.992,1.128c0.799,0.257,1.904,0.561,3.312,0.912
		c1.855,0.449,3.359,0.889,4.512,1.32s2.135,1.12,2.951,2.063c0.816,0.944,1.225,2.217,1.225,3.816c0,2.336-0.793,4.192-2.377,5.568
		s-3.607,2.063-6.07,2.063c-1.857,0-3.689-0.399-5.496-1.2c-1.809-0.799-3.24-1.936-4.297-3.407L644.666,191.961z"/>
	<path fill="#FFFFFF" d="M668.858,166.234c-0.385-0.385-0.576-0.864-0.576-1.44c0-0.544,0.191-1.008,0.576-1.392
		c0.385-0.385,0.863-0.576,1.439-0.576c0.512,0,0.969,0.191,1.369,0.576c0.398,0.384,0.6,0.848,0.6,1.392
		c0,0.576-0.191,1.056-0.576,1.44c-0.385,0.384-0.848,0.576-1.393,0.576C669.721,166.81,669.242,166.617,668.858,166.234z
		 M668.953,172.953h2.592v24.96h-2.592V172.953z"/>
	<path fill="#FFFFFF" d="M693.002,197.913c-1.281,0.192-2.465,0.288-3.553,0.288c-2.016,0-3.6-0.36-4.752-1.08
		s-1.969-1.8-2.447-3.24c-0.48-1.439-0.721-3.327-0.721-5.664v-13.248h-2.879v-2.016h2.879v-6.336h2.447v6.336h7.248v2.016h-7.248
		v13.296c0,1.953,0.193,3.497,0.576,4.633c0.385,1.136,1.016,1.952,1.896,2.447c0.881,0.497,2.072,0.744,3.576,0.744
		c0.768,0,1.633-0.048,2.592-0.144L693.002,197.913z"/>
	<path fill="#FFFFFF" d="M715.369,172.953l-11.953,34.56h-2.639l3.312-9.6l-8.641-24.96h2.832l7.104,21.696l7.344-21.696H715.369z"
		/>
	<path fill="#FFFFFF" d="M137.649,211.234c-0.384-0.385-0.576-0.864-0.576-1.44c0-0.544,0.192-1.008,0.576-1.392
		c0.384-0.385,0.864-0.576,1.44-0.576c0.512,0,0.968,0.191,1.368,0.576c0.4,0.384,0.6,0.848,0.6,1.392
		c0,0.576-0.192,1.056-0.576,1.44c-0.384,0.384-0.848,0.576-1.392,0.576C138.513,211.81,138.033,211.617,137.649,211.234z
		 M137.745,217.953h2.592v24.96h-2.592V217.953z"/>
	<path fill="#FFFFFF" d="M166.257,218.53c1.024,0.544,1.776,1.472,2.256,2.784c0.48,1.312,0.72,3.104,0.72,5.376v16.224h-2.592
		v-15.648c0-1.92-0.161-3.367-0.48-4.344c-0.32-0.976-0.833-1.656-1.536-2.04c-0.704-0.384-1.712-0.576-3.024-0.576
		c-1.344,0-2.705,0.192-4.08,0.576c-1.376,0.384-2.88,1.008-4.512,1.872v20.16h-2.592v-24.96h2.592v2.928
		c1.472-1.056,2.928-1.848,4.368-2.376c1.44-0.527,3.04-0.792,4.8-0.792C163.872,217.713,165.232,217.986,166.257,218.53z"/>
	<path fill="#FFFFFF" d="M203.024,242.913c-1.28,0.192-2.464,0.288-3.552,0.288c-2.016,0-3.6-0.36-4.752-1.08
		c-1.152-0.72-1.968-1.8-2.448-3.24c-0.48-1.439-0.72-3.327-0.72-5.664v-13.248h-2.88v-2.016h2.88v-6.336H194v6.336h7.248v2.016H194
		v13.296c0,1.953,0.192,3.497,0.576,4.633c0.384,1.136,1.016,1.952,1.896,2.447c0.88,0.497,2.072,0.744,3.576,0.744
		c0.768,0,1.632-0.048,2.592-0.144L203.024,242.913z"/>
	<path fill="#FFFFFF" d="M224.864,218.53c1.024,0.544,1.776,1.472,2.256,2.784s0.72,3.104,0.72,5.376v16.224h-2.592v-15.648
		c0-1.92-0.161-3.367-0.48-4.344c-0.32-0.976-0.833-1.656-1.536-2.04c-0.704-0.384-1.712-0.576-3.024-0.576
		c-1.312,0-2.648,0.192-4.008,0.576c-1.36,0.384-2.856,0.992-4.488,1.824v20.208h-2.544v-38.4h2.544v16.32
		c1.44-1.023,2.872-1.8,4.296-2.328c1.424-0.527,3.016-0.792,4.776-0.792C222.479,217.713,223.839,217.986,224.864,218.53z"/>
	<path fill="#FFFFFF" d="M253.808,230.721l-15.12,0.049c0.031,3.84,0.784,6.544,2.256,8.111c1.472,1.568,3.424,2.353,5.856,2.353
		c1.087,0,2.12-0.12,3.096-0.36c0.976-0.24,2.136-0.583,3.48-1.032l0.432,2.064c-1.568,0.608-2.856,1.048-3.864,1.319
		c-1.008,0.272-2.104,0.408-3.288,0.408c-3.2,0-5.768-1.063-7.704-3.191s-2.904-5.432-2.904-9.912c0-4.416,0.928-7.656,2.784-9.72
		c1.855-2.064,4.335-3.097,7.44-3.097c2.815,0,4.815,0.792,6,2.376c1.184,1.584,1.776,3.801,1.776,6.648
		C254.048,228.05,253.968,229.377,253.808,230.721z M238.736,228.753l12.72-0.191c0.096-0.769,0.144-1.601,0.144-2.496
		c0-1.984-0.432-3.512-1.296-4.584c-0.864-1.072-2.272-1.608-4.224-1.608C241.568,219.873,239.12,222.833,238.736,228.753z"/>
	<path fill="#FFFFFF" d="M303.055,217.953l-6.624,24.96h-2.688l-6.528-19.2l-6.576,19.2h-2.688l-6.624-24.96h2.88l5.232,21.84
		l6.528-19.68h2.448l6.528,19.68l5.232-21.84H303.055z"/>
	<path fill="#FFFFFF" d="M310.399,240.49c-1.665-2.032-2.496-5.336-2.496-9.912c0-4.512,0.84-7.783,2.52-9.816
		c1.68-2.031,4.296-3.048,7.848-3.048c3.552,0,6.168,1.017,7.848,3.048c1.68,2.033,2.52,5.289,2.52,9.769
		c0,4.544-0.848,7.848-2.544,9.912c-1.696,2.063-4.336,3.096-7.92,3.096C314.654,243.537,312.062,242.522,310.399,240.49z
		 M324.103,238.738c1.231-1.696,1.848-4.528,1.848-8.496c0-2.56-0.248-4.6-0.744-6.12c-0.497-1.52-1.289-2.616-2.376-3.288
		c-1.088-0.672-2.561-1.008-4.416-1.008c-1.92,0-3.449,0.36-4.584,1.08c-1.136,0.72-1.96,1.872-2.472,3.456
		c-0.512,1.584-0.768,3.688-0.768,6.312c0,2.624,0.256,4.704,0.768,6.24c0.512,1.536,1.304,2.648,2.376,3.336
		c1.072,0.688,2.503,1.032,4.296,1.032C320.846,241.281,322.87,240.434,324.103,238.738z"/>
	<path fill="#FFFFFF" d="M348.558,220.257c-1.792,0.032-3.473,0.32-5.04,0.864c-1.568,0.545-2.928,1.28-4.08,2.208v19.584h-2.592
		v-24.96h2.592v3.264c1.12-0.96,2.504-1.768,4.152-2.424c1.647-0.655,3.367-1.016,5.16-1.08L348.558,220.257z"/>
	<path fill="#FFFFFF" d="M354.99,204.513h2.544v38.4h-2.544V204.513z"/>
	<path fill="#FFFFFF" d="M384.845,242.241c-1.312,0.416-2.808,0.744-4.488,0.983c-1.68,0.24-3.144,0.36-4.392,0.36
		c-6.816,0-10.224-4.207-10.224-12.624c0-4.607,0.968-7.999,2.904-10.176c1.936-2.176,4.648-3.264,8.136-3.264
		c1.824,0,3.616,0.239,5.376,0.72v-13.729h2.64L384.845,242.241z M370.349,238.929c1.375,1.601,3.439,2.4,6.192,2.4
		c1.44,0,3.312-0.224,5.616-0.672v-20.064c-1.824-0.479-3.473-0.72-4.944-0.72c-2.88,0-5.088,0.872-6.624,2.616
		c-1.536,1.744-2.304,4.584-2.304,8.52C368.285,234.69,368.973,237.329,370.349,238.929z"/>
	<path fill="#FFFFFF" d="M407.212,211.234c-0.384-0.385-0.575-0.864-0.575-1.44c0-0.544,0.191-1.008,0.575-1.392
		c0.384-0.385,0.864-0.576,1.44-0.576c0.512,0,0.967,0.191,1.367,0.576c0.4,0.384,0.601,0.848,0.601,1.392
		c0,0.576-0.192,1.056-0.576,1.44c-0.384,0.384-0.849,0.576-1.392,0.576C408.076,211.81,407.596,211.617,407.212,211.234z
		 M407.309,217.953h2.592v24.96h-2.592V217.953z"/>
	<path fill="#FFFFFF" d="M431.356,242.913c-1.279,0.192-2.464,0.288-3.552,0.288c-2.016,0-3.6-0.36-4.752-1.08
		c-1.151-0.72-1.968-1.8-2.448-3.24c-0.479-1.439-0.72-3.327-0.72-5.664v-13.248h-2.88v-2.016h2.88v-6.336h2.448v6.336h7.248v2.016
		h-7.248v13.296c0,1.953,0.191,3.497,0.576,4.633c0.384,1.136,1.016,1.952,1.896,2.447c0.88,0.497,2.071,0.744,3.576,0.744
		c0.769,0,1.632-0.048,2.593-0.144L431.356,242.913z"/>
	<path fill="#FFFFFF" d="M449.787,211.234c-0.384-0.385-0.576-0.864-0.576-1.44c0-0.544,0.192-1.008,0.576-1.392
		c0.385-0.385,0.864-0.576,1.439-0.576c0.512,0,0.969,0.191,1.369,0.576c0.399,0.384,0.6,0.848,0.6,1.392
		c0,0.576-0.191,1.056-0.576,1.44c-0.384,0.384-0.848,0.576-1.393,0.576C450.652,211.81,450.172,211.617,449.787,211.234z
		 M449.883,217.953h2.592v24.96h-2.592V217.953z"/>
	<path fill="#FFFFFF" d="M461.307,236.961c0.832,1.185,2.048,2.136,3.648,2.856c1.6,0.72,3.184,1.08,4.752,1.08
		c1.695,0,3.12-0.456,4.271-1.368c1.152-0.912,1.729-2.12,1.729-3.624c0-1.024-0.312-1.855-0.936-2.496
		c-0.625-0.64-1.385-1.128-2.28-1.464c-0.896-0.336-2.128-0.712-3.696-1.128c-1.696-0.416-3.064-0.824-4.104-1.225
		c-1.041-0.399-1.92-0.999-2.641-1.8c-0.72-0.8-1.08-1.855-1.08-3.168c0-1.407,0.4-2.632,1.2-3.672c0.8-1.039,1.864-1.84,3.192-2.4
		c1.327-0.56,2.743-0.84,4.248-0.84c2.783,0,5.279,0.912,7.488,2.736l-0.912,1.775c-0.929-0.672-1.953-1.191-3.072-1.56
		c-1.121-0.367-2.256-0.552-3.408-0.552c-1.76,0-3.256,0.408-4.488,1.224c-1.232,0.816-1.848,1.864-1.848,3.145
		c0,0.8,0.264,1.448,0.792,1.943c0.528,0.497,1.192,0.872,1.992,1.128c0.8,0.257,1.903,0.561,3.312,0.912
		c1.855,0.449,3.36,0.889,4.512,1.32c1.152,0.432,2.137,1.12,2.953,2.063c0.815,0.944,1.224,2.217,1.224,3.816
		c0,2.336-0.792,4.192-2.376,5.568s-3.608,2.063-6.072,2.063c-1.855,0-3.688-0.399-5.496-1.2c-1.809-0.799-3.24-1.936-4.296-3.407
		L461.307,236.961z"/>
	<path fill="#FFFFFF" d="M513.819,218.53c1.023,0.544,1.777,1.472,2.256,2.784c0.48,1.312,0.721,3.104,0.721,5.376v16.224h-2.592
		v-15.648c0-1.92-0.16-3.367-0.48-4.344c-0.32-0.976-0.832-1.656-1.535-2.04c-0.705-0.384-1.713-0.576-3.025-0.576
		c-1.344,0-2.703,0.192-4.08,0.576c-1.375,0.384-2.879,1.008-4.512,1.872v20.16h-2.592v-24.96h2.592v2.928
		c1.473-1.056,2.928-1.848,4.369-2.376c1.439-0.527,3.039-0.792,4.799-0.792C511.436,217.713,512.795,217.986,513.819,218.53z"/>
	<path fill="#FFFFFF" d="M542.715,230.721l-15.121,0.049c0.033,3.84,0.785,6.544,2.258,8.111c1.471,1.568,3.422,2.353,5.855,2.353
		c1.088,0,2.119-0.12,3.096-0.36s2.137-0.583,3.48-1.032l0.432,2.064c-1.568,0.608-2.855,1.048-3.863,1.319
		c-1.01,0.272-2.105,0.408-3.289,0.408c-3.199,0-5.768-1.063-7.703-3.191c-1.938-2.128-2.904-5.432-2.904-9.912
		c0-4.416,0.928-7.656,2.783-9.72c1.855-2.064,4.336-3.097,7.439-3.097c2.816,0,4.816,0.792,6,2.376s1.777,3.801,1.777,6.648
		C542.955,228.05,542.875,229.377,542.715,230.721z M527.643,228.753l12.721-0.191c0.096-0.769,0.143-1.601,0.143-2.496
		c0-1.984-0.432-3.512-1.295-4.584c-0.865-1.072-2.273-1.608-4.225-1.608C530.475,219.873,528.028,222.833,527.643,228.753z"/>
	<path fill="#FFFFFF" d="M552.051,220.69c1.807-1.984,4.23-2.977,7.271-2.977c1.184,0,2.377,0.145,3.576,0.433
		c1.199,0.287,2.279,0.688,3.24,1.199l-0.625,1.969c-1.855-0.832-3.775-1.248-5.76-1.248c-2.623,0-4.584,0.784-5.879,2.352
		c-1.297,1.568-1.945,4.145-1.945,7.729c0,7.136,2.609,10.703,7.824,10.703c1.6,0,3.664-0.336,6.193-1.008l0.432,1.872
		c-2.592,1.024-4.865,1.536-6.816,1.536c-3.041,0-5.504-1.056-7.393-3.168s-2.832-5.407-2.832-9.888
		C549.338,225.842,550.242,222.674,552.051,220.69z"/>
	<path fill="#FFFFFF" d="M589.946,230.721l-15.119,0.049c0.031,3.84,0.783,6.544,2.256,8.111c1.471,1.568,3.424,2.353,5.855,2.353
		c1.088,0,2.119-0.12,3.096-0.36s2.137-0.583,3.48-1.032l0.432,2.064c-1.568,0.608-2.855,1.048-3.863,1.319
		c-1.008,0.272-2.104,0.408-3.287,0.408c-3.201,0-5.77-1.063-7.705-3.191s-2.904-5.432-2.904-9.912c0-4.416,0.928-7.656,2.785-9.72
		c1.855-2.064,4.336-3.097,7.439-3.097c2.814,0,4.816,0.792,6,2.376s1.775,3.801,1.775,6.648
		C590.186,228.05,590.106,229.377,589.946,230.721z M574.875,228.753l12.719-0.191c0.096-0.769,0.145-1.601,0.145-2.496
		c0-1.984-0.432-3.512-1.297-4.584c-0.863-1.072-2.271-1.608-4.223-1.608C577.707,219.873,575.258,222.833,574.875,228.753z"/>
	<path fill="#FFFFFF" d="M597.194,236.961c0.832,1.185,2.049,2.136,3.648,2.856c1.6,0.72,3.184,1.08,4.752,1.08
		c1.695,0,3.119-0.456,4.271-1.368s1.729-2.12,1.729-3.624c0-1.024-0.312-1.855-0.936-2.496c-0.625-0.64-1.385-1.128-2.281-1.464
		c-0.895-0.336-2.127-0.712-3.695-1.128c-1.695-0.416-3.064-0.824-4.104-1.225c-1.041-0.399-1.92-0.999-2.641-1.8
		c-0.719-0.8-1.08-1.855-1.08-3.168c0-1.407,0.4-2.632,1.201-3.672c0.799-1.039,1.863-1.84,3.191-2.4
		c1.328-0.56,2.744-0.84,4.248-0.84c2.783,0,5.279,0.912,7.488,2.736l-0.912,1.775c-0.93-0.672-1.953-1.191-3.072-1.56
		c-1.121-0.367-2.256-0.552-3.408-0.552c-1.76,0-3.256,0.408-4.488,1.224c-1.232,0.816-1.848,1.864-1.848,3.145
		c0,0.8,0.264,1.448,0.793,1.943c0.527,0.497,1.191,0.872,1.99,1.128c0.801,0.257,1.904,0.561,3.312,0.912
		c1.855,0.449,3.359,0.889,4.512,1.32s2.137,1.12,2.953,2.063c0.816,0.944,1.223,2.217,1.223,3.816c0,2.336-0.791,4.192-2.375,5.568
		s-3.609,2.063-6.072,2.063c-1.855,0-3.688-0.399-5.496-1.2c-1.809-0.799-3.24-1.936-4.295-3.407L597.194,236.961z"/>
	<path fill="#FFFFFF" d="M620.235,236.961c0.832,1.185,2.047,2.136,3.648,2.856c1.6,0.72,3.184,1.08,4.752,1.08
		c1.695,0,3.119-0.456,4.271-1.368s1.729-2.12,1.729-3.624c0-1.024-0.312-1.855-0.938-2.496c-0.623-0.64-1.385-1.128-2.279-1.464
		c-0.896-0.336-2.129-0.712-3.695-1.128c-1.697-0.416-3.064-0.824-4.105-1.225c-1.039-0.399-1.92-0.999-2.639-1.8
		c-0.721-0.8-1.08-1.855-1.08-3.168c0-1.407,0.398-2.632,1.199-3.672c0.799-1.039,1.863-1.84,3.191-2.4
		c1.328-0.56,2.744-0.84,4.248-0.84c2.785,0,5.281,0.912,7.488,2.736l-0.912,1.775c-0.928-0.672-1.951-1.191-3.072-1.56
		c-1.119-0.367-2.256-0.552-3.406-0.552c-1.762,0-3.258,0.408-4.488,1.224c-1.232,0.816-1.848,1.864-1.848,3.145
		c0,0.8,0.264,1.448,0.791,1.943c0.527,0.497,1.191,0.872,1.992,1.128c0.799,0.257,1.904,0.561,3.312,0.912
		c1.855,0.449,3.359,0.889,4.512,1.32s2.135,1.12,2.951,2.063c0.816,0.944,1.225,2.217,1.225,3.816c0,2.336-0.793,4.192-2.377,5.568
		s-3.607,2.063-6.07,2.063c-1.857,0-3.689-0.399-5.496-1.2c-1.809-0.799-3.24-1.936-4.297-3.407L620.235,236.961z"/>
	<path fill="#FFFFFF" d="M656.522,218.53c1.121,0.544,1.951,1.48,2.496,2.808c0.545,1.328,0.816,3.161,0.816,5.496v16.08h-2.305
		v-3.36c-2.367,2.465-5.104,3.696-8.207,3.696c-2.496,0-4.336-0.655-5.52-1.968c-1.186-1.312-1.777-2.977-1.777-4.992
		c0-2.304,0.703-4.08,2.113-5.328c1.406-1.248,3.471-1.888,6.191-1.92h6.959v-0.624c0-2.239-0.168-3.951-0.504-5.136
		c-0.336-1.184-0.912-2.017-1.727-2.496c-0.816-0.48-1.977-0.72-3.48-0.72c-2.111,0-4.672,0.432-7.68,1.296l-0.529-1.824
		c1.504-0.607,2.953-1.063,4.346-1.368c1.391-0.304,2.838-0.456,4.344-0.456C653.914,217.713,655.403,217.986,656.522,218.53z
		 M645.914,239.625c0.895,0.849,2.143,1.272,3.744,1.272c1.215,0,2.479-0.28,3.791-0.841c1.312-0.559,2.592-1.319,3.84-2.279v-6.624
		h-7.104c-2.016,0-3.455,0.464-4.32,1.392c-0.863,0.929-1.295,2.112-1.295,3.552C644.571,237.602,645.018,238.778,645.914,239.625z"
		/>
	<path fill="#FFFFFF" d="M681.625,220.257c-1.791,0.032-3.473,0.32-5.039,0.864c-1.568,0.545-2.928,1.28-4.08,2.208v19.584h-2.592
		v-24.96h2.592v3.264c1.119-0.96,2.504-1.768,4.152-2.424c1.646-0.655,3.367-1.016,5.16-1.08L681.625,220.257z"/>
	<path fill="#FFFFFF" d="M704.281,217.953l-11.953,34.56h-2.639l3.312-9.6l-8.641-24.96h2.832l7.104,21.696l7.344-21.696H704.281z"
		/>
	<path fill="#FFFFFF" d="M164.745,287.913c-1.28,0.192-2.464,0.288-3.552,0.288c-2.016,0-3.6-0.36-4.752-1.08
		c-1.152-0.72-1.968-1.8-2.448-3.24c-0.48-1.439-0.72-3.327-0.72-5.664v-13.248h-2.88v-2.016h2.88v-6.336h2.448v6.336h7.248v2.016
		h-7.248v13.296c0,1.953,0.192,3.497,0.576,4.633c0.384,1.136,1.016,1.952,1.896,2.447c0.88,0.497,2.072,0.744,3.576,0.744
		c0.768,0,1.632-0.048,2.592-0.144L164.745,287.913z"/>
	<path fill="#FFFFFF" d="M171.513,285.49c-1.665-2.032-2.496-5.336-2.496-9.912c0-4.512,0.84-7.783,2.52-9.816
		c1.68-2.031,4.296-3.048,7.848-3.048c3.552,0,6.168,1.017,7.848,3.048c1.68,2.033,2.52,5.289,2.52,9.769
		c0,4.544-0.848,7.848-2.544,9.912c-1.696,2.063-4.336,3.096-7.92,3.096C175.768,288.537,173.177,287.522,171.513,285.49z
		 M185.217,283.738c1.231-1.696,1.848-4.528,1.848-8.496c0-2.56-0.248-4.6-0.744-6.12c-0.497-1.52-1.289-2.616-2.376-3.288
		c-1.088-0.672-2.561-1.008-4.416-1.008c-1.92,0-3.449,0.36-4.584,1.08c-1.136,0.72-1.96,1.872-2.472,3.456
		c-0.512,1.584-0.768,3.688-0.768,6.312c0,2.624,0.256,4.704,0.768,6.24c0.512,1.536,1.304,2.648,2.376,3.336
		c1.072,0.688,2.503,1.032,4.296,1.032C181.96,286.281,183.985,285.434,185.217,283.738z"/>
	<path fill="#FFFFFF" d="M222.056,265.257c-1.792,0.032-3.473,0.32-5.04,0.864c-1.568,0.545-2.928,1.28-4.08,2.208v19.584h-2.592
		v-24.96h2.592v3.264c1.12-0.96,2.504-1.768,4.152-2.424c1.647-0.655,3.367-1.016,5.16-1.08L222.056,265.257z"/>
	<path fill="#FFFFFF" d="M244.376,275.721l-15.12,0.049c0.031,3.84,0.784,6.544,2.256,8.111c1.472,1.568,3.424,2.353,5.856,2.353
		c1.087,0,2.12-0.12,3.096-0.36c0.976-0.24,2.136-0.583,3.48-1.032l0.432,2.064c-1.568,0.608-2.856,1.048-3.864,1.319
		c-1.008,0.272-2.104,0.408-3.288,0.408c-3.2,0-5.768-1.063-7.704-3.191s-2.904-5.432-2.904-9.912c0-4.416,0.928-7.656,2.784-9.72
		c1.855-2.064,4.335-3.097,7.44-3.097c2.815,0,4.815,0.792,6,2.376c1.184,1.584,1.776,3.801,1.776,6.648
		C244.616,273.05,244.536,274.377,244.376,275.721z M229.304,273.753l12.72-0.191c0.096-0.769,0.144-1.601,0.144-2.496
		c0-1.984-0.432-3.512-1.296-4.584c-0.864-1.072-2.272-1.608-4.224-1.608C232.136,264.873,229.688,267.833,229.304,273.753z"/>
	<path fill="#FFFFFF" d="M253.712,265.69c1.808-1.984,4.231-2.977,7.272-2.977c1.184,0,2.376,0.145,3.576,0.433
		c1.2,0.287,2.28,0.688,3.24,1.199l-0.624,1.969c-1.856-0.832-3.776-1.248-5.76-1.248c-2.624,0-4.584,0.784-5.88,2.352
		c-1.296,1.568-1.944,4.145-1.944,7.729c0,7.136,2.608,10.703,7.824,10.703c1.6,0,3.664-0.336,6.192-1.008l0.432,1.872
		c-2.592,1.024-4.865,1.536-6.816,1.536c-3.041,0-5.504-1.056-7.392-3.168c-1.889-2.112-2.832-5.407-2.832-9.888
		C251,270.842,251.904,267.674,253.712,265.69z"/>
	<path fill="#FFFFFF" d="M276.344,285.49c-1.665-2.032-2.496-5.336-2.496-9.912c0-4.512,0.84-7.783,2.52-9.816
		c1.68-2.031,4.296-3.048,7.848-3.048c3.552,0,6.168,1.017,7.848,3.048c1.68,2.033,2.52,5.289,2.52,9.769
		c0,4.544-0.848,7.848-2.544,9.912c-1.696,2.063-4.336,3.096-7.92,3.096C280.599,288.537,278.007,287.522,276.344,285.49z
		 M290.048,283.738c1.231-1.696,1.848-4.528,1.848-8.496c0-2.56-0.248-4.6-0.744-6.12c-0.497-1.52-1.289-2.616-2.376-3.288
		c-1.088-0.672-2.561-1.008-4.416-1.008c-1.92,0-3.449,0.36-4.584,1.08c-1.136,0.72-1.96,1.872-2.472,3.456
		c-0.512,1.584-0.768,3.688-0.768,6.312c0,2.624,0.256,4.704,0.768,6.24c0.512,1.536,1.304,2.648,2.376,3.336
		c1.072,0.688,2.503,1.032,4.296,1.032C286.791,286.281,288.815,285.434,290.048,283.738z"/>
	<path fill="#FFFFFF" d="M315.823,262.953c1.392,0.225,2.696,0.528,3.912,0.912v23.904c0,3.679-0.752,6.271-2.256,7.775
		c-1.504,1.504-3.744,2.256-6.72,2.256c-1.664,0-3.208-0.28-4.632-0.84c-1.424-0.561-2.84-1.368-4.248-2.424l0.912-1.536
		c1.248,0.864,2.56,1.512,3.936,1.944c1.375,0.432,2.592,0.647,3.648,0.647c2.271,0,3.976-0.544,5.112-1.632
		c1.136-1.088,1.704-3.023,1.704-5.808v-1.968c-2.144,1.535-4.48,2.304-7.008,2.304c-2.816,0-5.096-1-6.84-3
		s-2.616-5.191-2.616-9.576c0-4.672,1.016-8.056,3.048-10.152c2.032-2.095,4.776-3.144,8.232-3.144
		C313.159,262.617,314.431,262.73,315.823,262.953z M314.047,285.657c1.2-0.384,2.248-0.848,3.144-1.393v-18.672
		c-1.76-0.415-3.392-0.624-4.896-0.624c-3.008,0-5.264,0.792-6.768,2.376c-1.504,1.584-2.256,4.296-2.256,8.137
		c0,3.776,0.672,6.512,2.016,8.208c1.344,1.696,3.12,2.544,5.328,2.544C311.703,286.234,312.847,286.041,314.047,285.657z"/>
	<path fill="#FFFFFF" d="M345.655,263.53c1.024,0.544,1.776,1.472,2.256,2.784c0.48,1.312,0.72,3.104,0.72,5.376v16.224h-2.592
		v-15.648c0-1.92-0.161-3.367-0.48-4.344c-0.32-0.976-0.833-1.656-1.536-2.04c-0.704-0.384-1.712-0.576-3.024-0.576
		c-1.344,0-2.705,0.192-4.08,0.576c-1.376,0.384-2.88,1.008-4.512,1.872v20.16h-2.592v-24.96h2.592v2.928
		c1.472-1.056,2.928-1.848,4.368-2.376c1.44-0.527,3.04-0.792,4.8-0.792C343.27,262.713,344.63,262.986,345.655,263.53z"/>
	<path fill="#FFFFFF" d="M358.567,256.234c-0.384-0.385-0.576-0.864-0.576-1.44c0-0.544,0.192-1.008,0.576-1.392
		c0.384-0.385,0.864-0.576,1.44-0.576c0.512,0,0.968,0.191,1.368,0.576c0.4,0.384,0.6,0.848,0.6,1.392
		c0,0.576-0.192,1.056-0.576,1.44c-0.384,0.384-0.848,0.576-1.392,0.576C359.431,256.81,358.951,256.617,358.567,256.234z
		 M358.663,262.953h2.592v24.96h-2.592V262.953z"/>
	<path fill="#FFFFFF" d="M386.551,285.562v2.352h-17.856v-2.64l14.16-20.017h-13.584v-2.304h16.176v2.4l-14.112,20.208H386.551z"/>
	<path fill="#FFFFFF" d="M409.878,275.721l-15.12,0.049c0.031,3.84,0.784,6.544,2.256,8.111c1.472,1.568,3.424,2.353,5.855,2.353
		c1.088,0,2.12-0.12,3.097-0.36c0.976-0.24,2.136-0.583,3.479-1.032l0.433,2.064c-1.568,0.608-2.856,1.048-3.864,1.319
		c-1.008,0.272-2.104,0.408-3.288,0.408c-3.2,0-5.768-1.063-7.704-3.191s-2.904-5.432-2.904-9.912c0-4.416,0.928-7.656,2.784-9.72
		c1.855-2.064,4.335-3.097,7.44-3.097c2.815,0,4.815,0.792,6,2.376c1.184,1.584,1.775,3.801,1.775,6.648
		C410.117,273.05,410.037,274.377,409.878,275.721z M394.806,273.753l12.72-0.191c0.096-0.769,0.145-1.601,0.145-2.496
		c0-1.984-0.432-3.512-1.297-4.584c-0.863-1.072-2.271-1.608-4.223-1.608C397.638,264.873,395.19,267.833,394.806,273.753z"/>
	<path fill="#FFFFFF" d="M430.661,256.234c-0.384-0.385-0.575-0.864-0.575-1.44c0-0.544,0.191-1.008,0.575-1.392
		c0.384-0.385,0.864-0.576,1.44-0.576c0.512,0,0.967,0.191,1.367,0.576c0.4,0.384,0.601,0.848,0.601,1.392
		c0,0.576-0.192,1.056-0.576,1.44c-0.384,0.384-0.849,0.576-1.392,0.576C431.526,256.81,431.045,256.617,430.661,256.234z
		 M430.758,262.953h2.592v24.96h-2.592V262.953z"/>
	<path fill="#FFFFFF" d="M454.805,287.913c-1.279,0.192-2.464,0.288-3.552,0.288c-2.016,0-3.6-0.36-4.752-1.08
		c-1.151-0.72-1.968-1.8-2.448-3.24c-0.479-1.439-0.72-3.327-0.72-5.664v-13.248h-2.88v-2.016h2.88v-6.336h2.448v6.336h7.248v2.016
		h-7.248v13.296c0,1.953,0.191,3.497,0.576,4.633c0.384,1.136,1.016,1.952,1.896,2.447c0.88,0.497,2.071,0.744,3.576,0.744
		c0.769,0,1.632-0.048,2.593-0.144L454.805,287.913z"/>
	<path fill="#FFFFFF" d="M459.701,281.961c0.831,1.185,2.047,2.136,3.647,2.856c1.6,0.72,3.184,1.08,4.752,1.08
		c1.696,0,3.12-0.456,4.272-1.368s1.728-2.12,1.728-3.624c0-1.024-0.312-1.855-0.937-2.496c-0.623-0.64-1.384-1.128-2.279-1.464
		c-0.896-0.336-2.129-0.712-3.696-1.128c-1.696-0.416-3.064-0.824-4.104-1.225c-1.039-0.399-1.92-0.999-2.639-1.8
		c-0.721-0.8-1.08-1.855-1.08-3.168c0-1.407,0.399-2.632,1.199-3.672c0.8-1.039,1.863-1.84,3.192-2.4
		c1.327-0.56,2.743-0.84,4.248-0.84c2.784,0,5.28,0.912,7.487,2.736l-0.912,1.775c-0.928-0.672-1.951-1.191-3.071-1.56
		c-1.12-0.367-2.256-0.552-3.408-0.552c-1.761,0-3.257,0.408-4.487,1.224c-1.232,0.816-1.849,1.864-1.849,3.145
		c0,0.8,0.265,1.448,0.792,1.943c0.527,0.497,1.191,0.872,1.992,1.128c0.799,0.257,1.903,0.561,3.312,0.912
		c1.855,0.449,3.359,0.889,4.512,1.32s2.136,1.12,2.951,2.063c0.816,0.944,1.225,2.217,1.225,3.816c0,2.336-0.792,4.192-2.376,5.568
		s-3.608,2.063-6.072,2.063c-1.856,0-3.688-0.399-5.496-1.2c-1.808-0.799-3.239-1.936-4.296-3.407L459.701,281.961z"/>
	<path fill="#FFFFFF" d="M496.373,249.513h2.543v38.4h-2.543V249.513z"/>
	<path fill="#FFFFFF" d="M520.996,263.53c1.119,0.544,1.951,1.48,2.496,2.808c0.543,1.328,0.814,3.161,0.814,5.496v16.08h-2.303
		v-3.36c-2.369,2.465-5.105,3.696-8.209,3.696c-2.496,0-4.336-0.655-5.52-1.968c-1.184-1.312-1.775-2.977-1.775-4.992
		c0-2.304,0.703-4.08,2.111-5.328s3.473-1.888,6.191-1.92h6.961v-0.624c0-2.239-0.168-3.951-0.504-5.136
		c-0.336-1.184-0.912-2.017-1.729-2.496c-0.816-0.48-1.977-0.72-3.48-0.72c-2.111,0-4.672,0.432-7.68,1.296l-0.527-1.824
		c1.504-0.607,2.951-1.063,4.344-1.368c1.393-0.304,2.84-0.456,4.344-0.456C518.387,262.713,519.875,262.986,520.996,263.53z
		 M510.387,284.625c0.896,0.849,2.145,1.272,3.744,1.272c1.217,0,2.48-0.28,3.793-0.841c1.311-0.559,2.592-1.319,3.84-2.279v-6.624
		h-7.104c-2.016,0-3.457,0.464-4.32,1.392c-0.865,0.929-1.297,2.112-1.297,3.552C509.043,282.602,509.492,283.778,510.387,284.625z"
		/>
	<path fill="#FFFFFF" d="M550.227,263.53c1.023,0.544,1.777,1.472,2.256,2.784c0.48,1.312,0.721,3.104,0.721,5.376v16.224h-2.592
		v-15.648c0-1.92-0.16-3.367-0.48-4.344c-0.32-0.976-0.832-1.656-1.535-2.04c-0.705-0.384-1.713-0.576-3.025-0.576
		c-1.344,0-2.703,0.192-4.08,0.576c-1.375,0.384-2.879,1.008-4.512,1.872v20.16h-2.592v-24.96h2.592v2.928
		c1.473-1.056,2.928-1.848,4.369-2.376c1.439-0.527,3.039-0.792,4.799-0.792C547.844,262.713,549.203,262.986,550.227,263.53z"/>
	<path fill="#FFFFFF" d="M576.268,262.953c1.391,0.225,2.695,0.528,3.912,0.912v23.904c0,3.679-0.754,6.271-2.258,7.775
		s-3.742,2.256-6.719,2.256c-1.664,0-3.209-0.28-4.633-0.84c-1.424-0.561-2.84-1.368-4.248-2.424l0.912-1.536
		c1.248,0.864,2.561,1.512,3.936,1.944c1.377,0.432,2.594,0.647,3.648,0.647c2.271,0,3.977-0.544,5.113-1.632
		c1.135-1.088,1.703-3.023,1.703-5.808v-1.968c-2.145,1.535-4.48,2.304-7.008,2.304c-2.816,0-5.096-1-6.84-3
		s-2.617-5.191-2.617-9.576c0-4.672,1.016-8.056,3.049-10.152c2.031-2.095,4.775-3.144,8.232-3.144
		C573.604,262.617,574.875,262.73,576.268,262.953z M574.49,285.657c1.201-0.384,2.248-0.848,3.145-1.393v-18.672
		c-1.76-0.415-3.393-0.624-4.896-0.624c-3.008,0-5.264,0.792-6.768,2.376s-2.256,4.296-2.256,8.137c0,3.776,0.672,6.512,2.016,8.208
		s3.121,2.544,5.328,2.544C572.147,286.234,573.291,286.041,574.49,285.657z"/>
	<path fill="#FFFFFF" d="M608.115,262.953v24.96h-2.594v-2.592c-1.344,0.929-2.68,1.632-4.008,2.111
		c-1.328,0.48-2.729,0.721-4.199,0.721c-1.697,0-3.057-0.28-4.08-0.84c-1.025-0.56-1.775-1.496-2.256-2.809
		c-0.48-1.312-0.721-3.104-0.721-5.376v-16.176h2.641v15.744c0,1.92,0.16,3.376,0.48,4.368c0.318,0.992,0.832,1.68,1.535,2.063
		s1.695,0.576,2.977,0.576c2.08,0,4.623-0.784,7.631-2.352v-20.4H608.115z"/>
	<path fill="#FFFFFF" d="M630.194,263.53c1.121,0.544,1.951,1.48,2.496,2.808c0.545,1.328,0.816,3.161,0.816,5.496v16.08h-2.305
		v-3.36c-2.367,2.465-5.104,3.696-8.207,3.696c-2.496,0-4.336-0.655-5.52-1.968c-1.186-1.312-1.777-2.977-1.777-4.992
		c0-2.304,0.703-4.08,2.113-5.328c1.406-1.248,3.471-1.888,6.191-1.92h6.959v-0.624c0-2.239-0.168-3.951-0.504-5.136
		c-0.336-1.184-0.912-2.017-1.727-2.496c-0.816-0.48-1.977-0.72-3.48-0.72c-2.111,0-4.672,0.432-7.68,1.296l-0.529-1.824
		c1.504-0.607,2.953-1.063,4.346-1.368c1.391-0.304,2.838-0.456,4.344-0.456C627.586,262.713,629.074,262.986,630.194,263.53z
		 M619.586,284.625c0.895,0.849,2.143,1.272,3.744,1.272c1.215,0,2.479-0.28,3.791-0.841c1.312-0.559,2.592-1.319,3.84-2.279v-6.624
		h-7.104c-2.016,0-3.455,0.464-4.32,1.392c-0.863,0.929-1.295,2.112-1.295,3.552C618.242,282.602,618.69,283.778,619.586,284.625z"
		/>
	<path fill="#FFFFFF" d="M656.617,262.953c1.393,0.225,2.695,0.528,3.912,0.912v23.904c0,3.679-0.752,6.271-2.256,7.775
		s-3.744,2.256-6.721,2.256c-1.664,0-3.207-0.28-4.631-0.84c-1.424-0.561-2.84-1.368-4.248-2.424l0.912-1.536
		c1.248,0.864,2.559,1.512,3.936,1.944c1.375,0.432,2.592,0.647,3.648,0.647c2.271,0,3.975-0.544,5.111-1.632
		c1.135-1.088,1.705-3.023,1.705-5.808v-1.968c-2.145,1.535-4.48,2.304-7.01,2.304c-2.814,0-5.096-1-6.84-3
		s-2.615-5.191-2.615-9.576c0-4.672,1.016-8.056,3.049-10.152c2.031-2.095,4.775-3.144,8.23-3.144
		C653.953,262.617,655.225,262.73,656.617,262.953z M654.842,285.657c1.199-0.384,2.248-0.848,3.145-1.393v-18.672
		c-1.762-0.415-3.393-0.624-4.896-0.624c-3.008,0-5.266,0.792-6.768,2.376c-1.506,1.584-2.258,4.296-2.258,8.137
		c0,3.776,0.674,6.512,2.018,8.208s3.119,2.544,5.328,2.544C652.496,286.234,653.641,286.041,654.842,285.657z"/>
	<path fill="#FFFFFF" d="M686.496,275.721l-15.119,0.049c0.031,3.84,0.783,6.544,2.256,8.111c1.471,1.568,3.424,2.353,5.855,2.353
		c1.088,0,2.119-0.12,3.096-0.36s2.137-0.583,3.48-1.032l0.432,2.064c-1.568,0.608-2.855,1.048-3.863,1.319
		c-1.008,0.272-2.104,0.408-3.287,0.408c-3.201,0-5.77-1.063-7.705-3.191s-2.904-5.432-2.904-9.912c0-4.416,0.928-7.656,2.785-9.72
		c1.855-2.064,4.336-3.097,7.439-3.097c2.814,0,4.816,0.792,6,2.376s1.775,3.801,1.775,6.648
		C686.737,273.05,686.656,274.377,686.496,275.721z M671.426,273.753l12.719-0.191c0.096-0.769,0.145-1.601,0.145-2.496
		c0-1.984-0.432-3.512-1.297-4.584c-0.863-1.072-2.271-1.608-4.223-1.608C674.258,264.873,671.809,267.833,671.426,273.753z"/>
</g>
</svg>
