<?xml version="1.0" encoding="utf-8"?>
<!-- Generator: Adobe Illustrator 15.1.0, SVG Export Plug-In . SVG Version: 6.00 Build 0)  -->
<!DOCTYPE svg PUBLIC "-//W3C//DTD SVG 1.1//EN" "http://www.w3.org/Graphics/SVG/1.1/DTD/svg11.dtd">
<svg version="1.1" id="Abre" xmlns="http://www.w3.org/2000/svg" xmlns:xlink="http://www.w3.org/1999/xlink" x="0px" y="0px"
	 width="800px" height="260px" viewBox="0 1.5 800 260" enable-background="new 0 1.5 800 260" xml:space="preserve">
<g>
	<g>
		<path fill="#EC1C24" d="M366.088,33.393v18.573h-4.008V40.241l-11.645,11.644c2.142,2.754,3.304,6.118,3.304,9.664
			c0,4.219-1.644,8.188-4.628,11.167c-2.986,2.985-6.948,4.628-11.165,4.628c-3.705,0-7.214-1.268-10.037-3.594
			c-2.305,1.901-5.068,3.096-8.018,3.466v7.929h9.144v4.009h-9.144v9.146h-4.013v-9.146h-9.144v-4.009h9.144v-7.929
			c-3.464-0.437-6.66-1.996-9.167-4.501c-2.978-2.977-4.621-6.947-4.621-11.167c0-4.217,1.644-8.18,4.621-11.163
			c2.982-2.982,6.953-4.626,11.173-4.626c3.703,0,7.211,1.267,10.028,3.596c2.822-2.327,6.331-3.596,10.037-3.596
			c3.538,0,6.897,1.158,9.652,3.292l11.641-11.646h-11.948v-4.013L366.088,33.393L366.088,33.393z M317.882,73.333
			c2.741,0,5.266-0.941,7.268-2.517c-1.946-2.676-2.998-5.889-2.998-9.269c0-3.375,1.052-6.588,3-9.265
			c-2.008-1.575-4.528-2.517-7.27-2.517c-6.499,0-11.781,5.286-11.781,11.781C306.101,68.042,311.383,73.333,317.882,73.333z
			 M329.663,61.548c0-2.261-0.639-4.375-1.75-6.173c-1.109,1.798-1.745,3.912-1.745,6.173c0,2.261,0.639,4.376,1.745,6.172
			C329.022,65.925,329.663,63.809,329.663,61.548z M337.947,73.335c6.496,0,11.779-5.294,11.779-11.787
			c0-6.497-5.283-11.781-11.779-11.781c-2.743,0-5.272,0.943-7.274,2.518c1.951,2.676,3.002,5.889,3.002,9.262
			c0,3.376-1.051,6.59-2.999,9.266c2.001,1.577,4.528,2.52,7.271,2.52V73.335z"/>
	</g>
	<g>
		<path fill="#EC1C24" d="M132.866,33.392v18.574h-4.009V40.239l-11.646,11.646c2.142,2.753,3.302,6.118,3.302,9.664
			c0,4.218-1.642,8.187-4.627,11.167c-2.98,2.985-6.947,4.628-11.166,4.628c-3.704,0-7.212-1.267-10.035-3.595
			c-2.189,1.806-4.79,2.973-7.574,3.406v7.992h9.139v4.009h-9.139v9.141h-4.012v-9.141h-7.903v-4.009h7.903V77.27
			c-3.125-0.304-6.057-1.521-8.479-3.519c-2.422,2-5.349,3.215-8.474,3.519v7.876h7.902v4.009h-7.902v9.141h-4.013v-9.141h-9.139
			v-4.009h9.139v-7.992c-3.286-0.508-6.318-2.042-8.712-4.438c-2.979-2.979-4.621-6.948-4.621-11.167
			c0-4.216,1.642-8.181,4.621-11.162c2.981-2.983,6.949-4.627,11.172-4.627c3.701,0,7.209,1.266,10.028,3.595
			c2.821-2.328,6.332-3.595,10.037-3.595c3.705,0,7.209,1.266,10.03,3.595c2.821-2.328,6.33-3.595,10.035-3.595
			c3.543,0,6.904,1.158,9.652,3.292l11.643-11.648h-11.946v-4.012H132.866z M64.593,73.335c2.74,0,5.266-0.943,7.264-2.52
			c-1.946-2.676-2.994-5.889-2.994-9.268c0-3.375,1.047-6.588,2.995-9.266c-2.003-1.575-4.524-2.516-7.265-2.516
			c-6.502,0-11.781,5.285-11.781,11.781C52.812,68.042,58.094,73.335,64.593,73.335z M74.624,67.72
			c1.109-1.795,1.75-3.911,1.75-6.172c0-2.261-0.64-4.375-1.75-6.173c-1.108,1.798-1.75,3.912-1.75,6.173
			C72.874,63.809,73.516,65.925,74.624,67.72z M84.656,49.767c-2.747,0-5.272,0.943-7.272,2.518
			c1.949,2.676,3.002,5.889,3.002,9.262c0,3.376-1.053,6.59-3.001,9.267c2.004,1.576,4.525,2.519,7.271,2.519
			c2.741,0,5.266-0.943,7.266-2.519c-1.946-2.676-2.999-5.889-2.999-9.267c0-3.374,1.053-6.586,3-9.262
			C89.923,50.71,87.397,49.767,84.656,49.767z M96.437,61.548c0-2.261-0.64-4.375-1.75-6.17c-1.107,1.796-1.748,3.909-1.748,6.17
			c0,2.261,0.64,4.375,1.748,6.171C95.797,65.923,96.437,63.809,96.437,61.548z M116.503,61.548c0-6.497-5.281-11.781-11.781-11.781
			c-2.742,0-5.269,0.943-7.274,2.519c1.953,2.676,3.006,5.89,3.006,9.262c0,3.376-1.052,6.589-3,9.266
			c2.003,1.576,4.526,2.521,7.268,2.521C111.218,73.335,116.503,68.042,116.503,61.548z"/>
	</g>
	<g>
		<path fill="#EC1C24" d="M194.26,42.822v18.576h-4.01V49.668l-11.073,11.078c1.777,2.597,2.733,5.667,2.733,8.883
			c0,4.216-1.643,8.187-4.627,11.164c-2.984,2.987-6.947,4.629-11.167,4.629c-4.218,0-8.188-1.642-11.171-4.629
			c-1.195-1.193-2.179-2.55-2.921-4.016c-1.354,0.375-2.767,0.566-4.213,0.566c-4.219,0-8.188-1.643-11.172-4.628
			c-2.979-2.979-4.621-6.948-4.621-11.167c0-4.216,1.642-8.181,4.621-11.162c2.98-2.983,6.95-4.627,11.172-4.627
			c3.155,0,6.169,0.919,8.738,2.633l10.983-10.987L155.583,37.4v-4.008l18.792,0.006v18.573h-4.009V40.242L159.586,51.03
			c0.925,1.031,1.701,2.165,2.316,3.374c1.355-0.374,2.77-0.564,4.214-0.564c3.861,0,7.512,1.379,10.391,3.904l10.907-10.913
			h-11.729v-4.007L194.26,42.822L194.26,42.822z M150.678,72.982c-0.234-1.091-0.354-2.213-0.354-3.354
			c0-4.218,1.644-8.182,4.622-11.162c0.982-0.983,2.071-1.82,3.242-2.5c-1.994-3.688-5.892-6.198-10.373-6.198
			c-6.499,0-11.781,5.285-11.781,11.784c0,6.492,5.283,11.785,11.781,11.785C148.798,73.335,149.762,73.213,150.678,72.982z
			 M159.479,59.899c-3.107,2.124-5.144,5.693-5.144,9.729c0,0.56,0.04,1.112,0.116,1.653c3.104-2.126,5.14-5.696,5.14-9.729
			C159.595,60.988,159.554,60.437,159.479,59.899z M177.897,69.628c0-6.497-5.284-11.782-11.781-11.782
			c-0.987,0-1.946,0.121-2.863,0.352c0.232,1.089,0.354,2.211,0.354,3.352c0,4.216-1.643,8.187-4.626,11.164
			c-0.982,0.982-2.069,1.818-3.235,2.498c1.993,3.686,5.89,6.199,10.371,6.199C172.614,81.413,177.897,76.122,177.897,69.628z"/>
	</g>
	<g>
		<path fill="#EC1C24" d="M47.262,70.274c0,4.216-1.644,8.186-4.628,11.164c-2.984,2.985-6.947,4.628-11.167,4.628
			c-4.217,0-8.186-1.643-11.171-4.628c-2.978-2.977-4.621-6.948-4.621-11.164c0-4.218,1.643-8.184,4.621-11.163
			c2.484-2.484,5.65-4.038,9.072-4.491c0.001-5.972,2.724-8.459,4.856-10.399c1.692-1.541,2.809-2.562,2.809-5.128
			c0-2.946-2.131-4.974-5.225-4.974c-1.941,0-3.421,0.52-4.455,1.574c-1.582,1.622-1.854,4.314-1.846,5.449l-4.012,0.004
			c-0.005-2.549,0.759-5.979,3-8.261c1.43-1.458,3.776-2.779,7.313-2.779c5.295,0,9.232,3.835,9.232,8.986
			c0,4.337-2.24,6.384-4.109,8.087c-1.956,1.787-3.533,3.228-3.549,7.418c3.491,0.421,6.721,1.988,9.243,4.514
			C45.618,62.091,47.262,66.055,47.262,70.274z M43.249,70.274c0-6.498-5.285-11.782-11.782-11.782s-11.78,5.284-11.78,11.782
			c0,6.49,5.283,11.784,11.78,11.784S43.249,76.764,43.249,70.274z"/>
	</g>
	<g>
		<path fill="#EC1C24" d="M302.933,33.391v18.575h-4.007V40.239L287.44,51.727c2.222,2.782,3.43,6.208,3.43,9.821
			c0,4.219-1.648,8.188-4.628,11.167c-2.508,2.507-5.706,4.067-9.165,4.502v7.928h9.144v4.009h-9.144v9.141h-4.012v-9.141h-9.139
			v-4.009h9.139v-7.929c-3.458-0.437-6.656-1.997-9.156-4.501c-2.979-2.979-4.623-6.948-4.623-11.167
			c0-3.551,1.166-6.925,3.313-9.681l-2.325-2.325l-4.13,4.135l-2.838-2.837l4.134-4.136l-6.464-6.464v11.727h-4.007V33.395h18.799
			v4.008h-11.953l6.458,6.464l4.137-4.139l2.836,2.837l-4.139,4.138l2.331,2.332c2.754-2.125,6.111-3.277,9.64-3.277
			c3.467,0,6.767,1.112,9.492,3.17l11.517-11.527h-11.947V33.39L302.933,33.391L302.933,33.391z M286.855,61.547
			c0-6.496-5.283-11.781-11.78-11.781c-6.502,0-11.782,5.286-11.782,11.781c0,6.494,5.28,11.786,11.782,11.786
			C281.573,73.333,286.855,68.042,286.855,61.547z"/>
	</g>
	<g>
		<path fill="#EC1C24" d="M234.509,85.145h9.139v4.009h-9.139v9.146h-4.013v-9.146h-7.901v-4.009h7.901v-7.879
			c-3.125-0.304-6.056-1.52-8.479-3.517c-2.42,1.999-5.349,3.213-8.475,3.517v7.879h7.904v4.009h-7.904v9.146h-4.012v-9.146h-9.138
			v-4.009h9.138v-7.993c-3.286-0.509-6.318-2.043-8.715-4.438c-2.977-2.977-4.617-6.947-4.617-11.167
			c0-4.219,1.643-8.182,4.617-11.163c2.985-2.984,6.955-4.628,11.177-4.628c3.704,0,7.211,1.267,10.029,3.596
			c2.821-2.329,6.333-3.596,10.037-3.596c4.213,0,8.182,1.645,11.166,4.628c2.98,2.98,4.627,6.943,4.627,11.163
			c0,4.219-1.647,8.187-4.627,11.167c-2.401,2.395-5.425,3.928-8.713,4.438L234.509,85.145L234.509,85.145z M211.988,73.333
			c2.741,0,5.266-0.943,7.269-2.517c-1.951-2.678-2.999-5.889-2.999-9.269c0-3.376,1.047-6.588,3-9.266
			c-2.007-1.574-4.528-2.516-7.27-2.516c-6.503,0-11.782,5.286-11.782,11.781C200.205,68.042,205.488,73.333,211.988,73.333z
			 M222.021,67.72c1.108-1.795,1.75-3.911,1.75-6.173c0-2.26-0.642-4.376-1.75-6.172c-1.11,1.796-1.751,3.912-1.751,6.172
			C220.267,63.809,220.911,65.925,222.021,67.72z M243.832,61.547c0-6.496-5.284-11.78-11.78-11.78c-2.746,0-5.272,0.94-7.273,2.518
			c1.95,2.676,3.003,5.889,3.003,9.262c0,3.375-1.053,6.59-3,9.266c2.002,1.577,4.524,2.52,7.271,2.52
			C238.549,73.333,243.832,68.042,243.832,61.547L243.832,61.547z"/>
	</g>
	<g>
		<path fill="#EC1C24" d="M409.438,71.136v18.569h-18.619v-4.009h11.764l-6.458-6.463l-4.135,4.139l-2.836-2.836l4.131-4.139
			l-2.377-2.38c-2.758,2.154-6.137,3.324-9.691,3.324c-4.217,0-8.186-1.643-11.176-4.625c-2.977-2.979-4.617-6.948-4.617-11.167
			c0-4.219,1.645-8.18,4.617-11.163c2.986-2.981,6.956-4.628,11.176-4.628c4.215,0,8.182,1.647,11.167,4.628
			c2.98,2.983,4.628,6.943,4.628,11.163c0,3.526-1.15,6.882-3.274,9.626l2.389,2.388l4.13-4.137l2.839,2.836l-4.133,4.137
			l6.463,6.464V71.137L409.438,71.136L409.438,71.136z M393.001,61.547c0-6.498-5.286-11.781-11.783-11.781
			c-6.502,0-11.78,5.284-11.78,11.781c0,6.494,5.278,11.786,11.78,11.786C387.715,73.333,393.001,68.042,393.001,61.547z"/>
	</g>
	<g>
		<path fill="#EC1C24" d="M452.456,71.136c0,4.218-1.643,8.187-4.624,11.167c-2.982,2.984-6.948,4.626-11.166,4.626
			c-4.217,0-8.186-1.643-11.174-4.626c-2.977-2.979-4.617-6.948-4.617-11.167c0-0.944,0.078-1.875,0.241-2.784l-20.466-6.375
			l1.348-3.782l20.312,6.338c0.476-1.032,1.065-2.014,1.761-2.93l-17.56-17.556l2.841-2.84l17.53,17.533
			c0.912-0.729,1.901-1.344,2.938-1.842l-6.318-20.274l3.776-1.349l6.342,20.362c0.994-0.191,2.01-0.291,3.042-0.291
			c4.218,0,8.185,1.645,11.169,4.628C450.818,62.954,452.456,66.918,452.456,71.136z M448.447,71.136
			c0-6.497-5.283-11.781-11.778-11.781c-6.503,0-11.787,5.284-11.787,11.781c0,6.493,5.284,11.785,11.787,11.785
			C443.163,82.92,448.447,77.629,448.447,71.136z"/>
	</g>
	<g>
		<path fill="#EC1C24" d="M530.004,60.833c0,4.215-1.643,8.186-4.628,11.166c-2.979,2.983-6.947,4.625-11.164,4.625
			c-4.219,0-8.184-1.642-11.172-4.625c-2.978-2.979-4.623-6.95-4.623-11.166c0-3.546,1.162-6.911,3.298-9.664l-5.497-5.49
			l-1.988,7.451l-3.877-1.037l1.996-7.451l-7.442,1.992l-1.045-3.87l7.452-1.996l-5.449-5.454l2.837-2.836l5.449,5.454l2.004-7.449
			l3.872,1.038l-2,7.45l7.448-2l1.037,3.88l-7.438,1.99l5.487,5.492c2.758-2.137,6.12-3.293,9.662-3.293
			c4.216,0,8.184,1.644,11.164,4.629C528.362,52.648,530.004,56.613,530.004,60.833z M525.991,60.833
			c0-6.499-5.282-11.783-11.779-11.783c-6.499,0-11.783,5.284-11.783,11.783c0,6.491,5.284,11.784,11.783,11.784
			C520.704,72.616,525.991,67.323,525.991,60.833z"/>
	</g>
	<g>
		<path fill="#EC1C24" d="M703.655,45.204v18.571h-4.004V52.05l-11.645,11.645c2.139,2.753,3.303,6.119,3.303,9.666
			c0,4.217-1.647,8.185-4.627,11.164c-2.984,2.986-6.948,4.628-11.166,4.628s-8.188-1.642-11.177-4.628
			c-2.977-2.979-4.617-6.947-4.617-11.164c0-4.218,1.644-8.183,4.617-11.163c2.985-2.984,6.954-4.628,11.177-4.628
			c3.541,0,6.9,1.157,9.648,3.292l11.641-11.646h-11.943v-4.012H703.655z M687.296,73.36c0-6.498-5.284-11.782-11.78-11.782
			c-6.504,0-11.785,5.284-11.785,11.782c0,6.492,5.281,11.784,11.785,11.784C682.012,85.143,687.296,79.851,687.296,73.36z"/>
	</g>
	<g>
		<path fill="#EC1C24" d="M621.843,73.36c0,4.217-1.642,8.187-4.627,11.164c-2.983,2.986-6.947,4.628-11.166,4.628
			c-4.218,0-8.188-1.642-11.172-4.628c-2.979-2.977-4.621-6.947-4.621-11.164c0-3.651,1.231-7.113,3.495-9.911l-13.965-13.961
			l2.844-2.841l14.02,14.022c2.705-2.013,5.971-3.101,9.404-3.101c4.214,0,8.183,1.645,11.166,4.628
			C620.201,65.177,621.843,69.141,621.843,73.36z M617.831,73.36c0-6.498-5.285-11.782-11.781-11.782
			c-6.497,0-11.78,5.284-11.78,11.782c0,6.492,5.283,11.785,11.78,11.785C612.546,85.144,617.831,79.851,617.831,73.36z"/>
	</g>
	<g>
		<path fill="#EC1C24" d="M473.003,76.499v7.932h9.145v4.006h-9.145v9.144h-4.013v-9.144h-9.139v-4.006h9.139v-7.932
			c-3.459-0.436-6.66-1.996-9.167-4.5c-2.977-2.979-4.62-6.948-4.62-11.166c0-4.219,1.647-8.184,4.62-11.163
			c2.985-2.985,6.956-4.627,11.173-4.627c4.219,0,8.184,1.642,11.171,4.627c2.979,2.979,4.628,6.944,4.628,11.163
			c0,4.217-1.648,8.187-4.628,11.166C479.656,74.504,476.461,76.062,473.003,76.499z M470.996,72.616
			c6.498,0,11.781-5.292,11.781-11.784c0-6.497-5.283-11.783-11.781-11.783c-6.502,0-11.781,5.287-11.781,11.783
			C459.215,67.324,464.496,72.616,470.996,72.616z"/>
	</g>
	<g>
		<path fill="#EC1C24" d="M629.75,76.108c-2.977-2.977-4.621-6.947-4.621-11.167c0-4.217,1.647-8.183,4.621-11.162
			c2.985-2.983,6.955-4.628,11.172-4.628c4.219,0,8.185,1.646,11.167,4.628c2.984,2.979,4.628,6.944,4.628,11.162
			c0,4.22-1.644,8.188-4.628,11.167c-2.98,2.985-6.947,4.627-11.167,4.627C636.705,80.735,632.736,79.094,629.75,76.108z
			 M652.699,64.941c0-6.497-5.281-11.78-11.781-11.78s-11.78,5.284-11.78,11.78c0,6.492,5.28,11.785,11.78,11.785
			S652.699,71.433,652.699,64.941z"/>
	</g>
	<g>
		<path fill="#EC1C24" d="M577.471,32.678v18.571h-4.008V39.524l-11.646,11.645c2.144,2.753,3.304,6.118,3.304,9.665
			c0,4.217-1.643,8.187-4.628,11.165c-2.505,2.505-5.7,4.066-9.156,4.502v7.931h9.146v4.007h-9.146v9.145h-4.013v-9.145h-9.143
			v-4.007h9.143v-7.931c-3.464-0.436-6.661-1.997-9.166-4.502c-2.977-2.978-4.623-6.948-4.623-11.165
			c0-4.219,1.644-8.183,4.623-11.162c2.983-2.984,6.951-4.628,11.172-4.628c3.538,0,6.904,1.158,9.653,3.293l11.641-11.649h-11.945
			v-4.011H577.471z M561.109,60.834c0-6.498-5.283-11.782-11.78-11.782c-6.498,0-11.782,5.285-11.782,11.782
			c0,6.491,5.284,11.785,11.782,11.785C555.821,72.618,561.109,67.324,561.109,60.834z"/>
	</g>
	<g>
		<path fill="#EC1C24" d="M790.007,42.444v18.575h-4.011v-11.73l-11.074,11.08c1.778,2.598,2.734,5.666,2.734,8.883
			c0,4.218-1.645,8.186-4.627,11.165c-2.984,2.984-6.95,4.627-11.168,4.627s-8.188-1.643-11.17-4.627
			c-1.2-1.195-2.181-2.549-2.925-4.015c-1.35,0.373-2.766,0.564-4.212,0.564c-3.702,0-7.214-1.267-10.036-3.594
			c-2.305,1.901-5.064,3.095-8.019,3.467v7.929h9.145v4.009H725.5v9.145h-4.01v-9.145h-9.144v-4.009h9.144v-7.929
			c-3.464-0.435-6.663-1.997-9.168-4.501c-2.978-2.979-4.622-6.948-4.622-11.167c0-4.219,1.645-8.182,4.622-11.163
			c2.979-2.984,6.95-4.628,11.173-4.628c3.702,0,7.21,1.268,10.027,3.595c2.821-2.327,6.333-3.595,10.037-3.595
			c3.153,0,6.172,0.921,8.737,2.633l10.983-10.987l-11.948-0.004v-4.007l18.792,0.006v18.571h-4.007V39.864l-10.783,10.787
			c0.924,1.03,1.698,2.163,2.316,3.375c1.353-0.374,2.767-0.565,4.214-0.565c3.859,0,7.513,1.378,10.388,3.904l10.906-10.913
			h-11.724v-4.007H790.007z M723.496,72.958c2.74,0,5.267-0.941,7.266-2.517c-1.945-2.678-2.997-5.893-2.997-9.269
			c0-3.377,1.052-6.589,3.002-9.266c-2.008-1.575-4.528-2.516-7.271-2.516c-6.5,0-11.78,5.283-11.78,11.781
			C711.716,67.667,716.996,72.958,723.496,72.958z M735.279,61.174c0-2.263-0.643-4.377-1.749-6.171
			c-1.11,1.793-1.748,3.908-1.748,6.171c0,2.26,0.639,4.375,1.748,6.171C734.636,65.55,735.279,63.435,735.279,61.174z
			 M743.56,72.96c0.987,0,1.948-0.123,2.864-0.354c-0.24-1.091-0.354-2.213-0.354-3.355c0-4.216,1.641-8.18,4.621-11.161
			c0.981-0.984,2.072-1.818,3.24-2.499c-1.995-3.687-5.895-6.198-10.372-6.198c-2.743,0-5.272,0.941-7.271,2.517
			c1.948,2.675,3.003,5.889,3.003,9.262c0,3.375-1.055,6.591-3.003,9.266c2.006,1.576,4.529,2.52,7.271,2.52V72.96z M755.224,59.522
			c-3.106,2.125-5.142,5.692-5.142,9.729c0,0.561,0.04,1.114,0.112,1.653c3.106-2.125,5.145-5.696,5.145-9.728
			C755.342,60.613,755.301,60.062,755.224,59.522z M773.645,69.251c0-6.497-5.284-11.78-11.783-11.78
			c-0.99,0-1.944,0.121-2.864,0.353c0.235,1.087,0.357,2.21,0.357,3.35c0,4.218-1.646,8.184-4.628,11.166
			c-0.982,0.98-2.07,1.818-3.236,2.497c1.993,3.688,5.89,6.201,10.371,6.201C768.361,81.038,773.645,75.745,773.645,69.251z"/>
	</g>
</g>
<g>
	<path fill="#FFFFFF" d="M30.007,138.862h-11.15v35.15h-2.75v-35.15h-11.1v-2.35h25V138.862z"/>
	<path fill="#FFFFFF" d="M34.757,171.487c-1.733-2.116-2.6-5.558-2.6-10.324c0-4.7,0.875-8.108,2.625-10.226
		c1.75-2.116,4.475-3.175,8.175-3.175c3.7,0,6.425,1.059,8.175,3.175c1.75,2.117,2.625,5.509,2.625,10.175
		c0,4.734-0.883,8.176-2.65,10.325c-1.767,2.15-4.517,3.226-8.25,3.226C39.19,174.663,36.49,173.604,34.757,171.487z
		 M49.031,169.663c1.283-1.767,1.925-4.717,1.925-8.851c0-2.666-0.259-4.791-0.775-6.375c-0.518-1.583-1.342-2.725-2.475-3.425
		c-1.134-0.7-2.667-1.05-4.6-1.05c-2,0-3.592,0.375-4.775,1.125c-1.184,0.75-2.042,1.95-2.575,3.6c-0.534,1.65-0.8,3.843-0.8,6.575
		c0,2.733,0.266,4.9,0.8,6.5c0.533,1.6,1.358,2.759,2.475,3.475c1.116,0.718,2.608,1.075,4.475,1.075
		C45.639,172.312,47.748,171.43,49.031,169.663z"/>
	<path fill="#FFFFFF" d="M93.806,148.013v26h-2.7v-2.7c-1.4,0.968-2.792,1.7-4.175,2.2c-1.384,0.5-2.842,0.75-4.375,0.75
		c-1.767,0-3.184-0.291-4.25-0.875c-1.067-0.583-1.85-1.558-2.35-2.925c-0.5-1.366-0.75-3.233-0.75-5.601v-16.85h2.75v16.4
		c0,2,0.167,3.517,0.5,4.55c0.333,1.033,0.866,1.75,1.6,2.149c0.733,0.4,1.766,0.601,3.1,0.601c2.166,0,4.816-0.816,7.95-2.45
		v-21.25H93.806z"/>
	<path fill="#FFFFFF" d="M120.805,148.612c1.066,0.567,1.85,1.534,2.35,2.9c0.5,1.367,0.75,3.233,0.75,5.6v16.9h-2.7v-16.3
		c0-2-0.167-3.508-0.5-4.525c-0.333-1.017-0.867-1.725-1.6-2.125c-0.733-0.399-1.783-0.6-3.15-0.6c-1.4,0-2.817,0.2-4.25,0.6
		c-1.434,0.4-3,1.05-4.7,1.95v21h-2.7v-26h2.7v3.05c1.533-1.1,3.05-1.925,4.55-2.475s3.167-0.825,5-0.825
		C118.322,147.763,119.738,148.046,120.805,148.612z"/>
	<path fill="#FFFFFF" d="M152.305,173.312c-1.367,0.434-2.925,0.775-4.675,1.025s-3.275,0.375-4.575,0.375
		c-7.1,0-10.65-4.383-10.65-13.15c0-4.8,1.008-8.333,3.025-10.6c2.016-2.267,4.841-3.4,8.475-3.4c1.9,0,3.767,0.25,5.6,0.75v-14.3
		h2.75L152.305,173.312z M137.205,169.862c1.433,1.668,3.583,2.5,6.45,2.5c1.5,0,3.45-0.232,5.85-0.699v-20.9
		c-1.9-0.5-3.617-0.75-5.15-0.75c-3,0-5.3,0.908-6.9,2.725c-1.6,1.817-2.4,4.775-2.4,8.875
		C135.055,165.446,135.772,168.196,137.205,169.862z"/>
	<path fill="#FFFFFF" d="M179.354,161.312l-15.75,0.05c0.033,4,0.816,6.817,2.35,8.45c1.533,1.634,3.566,2.45,6.1,2.45
		c1.133,0,2.208-0.125,3.225-0.375c1.016-0.25,2.225-0.607,3.625-1.075l0.45,2.15c-1.633,0.634-2.975,1.091-4.025,1.375
		c-1.05,0.282-2.192,0.425-3.425,0.425c-3.333,0-6.009-1.107-8.025-3.325c-2.018-2.216-3.025-5.657-3.025-10.325
		c0-4.6,0.967-7.975,2.9-10.125c1.933-2.149,4.516-3.225,7.75-3.225c2.933,0,5.016,0.825,6.25,2.475
		c1.232,1.65,1.85,3.959,1.85,6.926C179.604,158.53,179.521,159.913,179.354,161.312z M163.655,159.263l13.25-0.2
		c0.1-0.8,0.15-1.666,0.15-2.6c0-2.066-0.45-3.658-1.35-4.775c-0.9-1.116-2.367-1.675-4.4-1.675
		C166.604,150.013,164.054,153.097,163.655,159.263z"/>
	<path fill="#FFFFFF" d="M200.405,150.413c-1.867,0.033-3.617,0.333-5.25,0.899c-1.634,0.567-3.05,1.334-4.25,2.3v20.4h-2.7v-26h2.7
		v3.4c1.166-1,2.607-1.842,4.325-2.525c1.716-0.683,3.508-1.058,5.375-1.125L200.405,150.413z"/>
	<path fill="#FFFFFF" d="M205.804,167.812c0.866,1.233,2.133,2.226,3.8,2.976c1.667,0.75,3.316,1.125,4.95,1.125
		c1.766,0,3.25-0.476,4.45-1.426c1.2-0.949,1.8-2.207,1.8-3.774c0-1.066-0.325-1.933-0.975-2.601
		c-0.65-0.666-1.442-1.175-2.375-1.524c-0.934-0.351-2.217-0.741-3.85-1.175c-1.767-0.434-3.192-0.858-4.275-1.275
		c-1.083-0.416-2-1.041-2.75-1.875c-0.75-0.833-1.125-1.933-1.125-3.3c0-1.467,0.417-2.741,1.25-3.825
		c0.833-1.083,1.941-1.916,3.325-2.5c1.383-0.583,2.858-0.875,4.425-0.875c2.9,0,5.5,0.95,7.8,2.85l-0.95,1.851
		c-0.967-0.7-2.034-1.241-3.2-1.625c-1.167-0.383-2.35-0.575-3.55-0.575c-1.834,0-3.393,0.425-4.675,1.275
		c-1.284,0.85-1.925,1.941-1.925,3.274c0,0.834,0.275,1.509,0.825,2.025c0.55,0.517,1.242,0.908,2.075,1.175
		c0.833,0.268,1.983,0.584,3.45,0.95c1.933,0.467,3.5,0.925,4.7,1.375c1.2,0.45,2.225,1.167,3.075,2.149
		c0.85,0.984,1.275,2.309,1.275,3.976c0,2.434-0.825,4.367-2.475,5.8c-1.65,1.434-3.758,2.15-6.325,2.15
		c-1.934,0-3.842-0.417-5.725-1.25c-1.884-0.833-3.375-2.017-4.475-3.551L205.804,167.812z"/>
	<path fill="#FFFFFF" d="M242.954,174.013c-1.333,0.2-2.567,0.3-3.7,0.3c-2.1,0-3.75-0.375-4.95-1.125
		c-1.2-0.75-2.05-1.875-2.55-3.375s-0.75-3.466-0.75-5.899v-13.801h-3v-2.1h3v-6.6h2.55v6.6h7.55v2.1h-7.55v13.851
		c0,2.033,0.2,3.642,0.6,4.825c0.4,1.184,1.058,2.033,1.975,2.55c0.917,0.517,2.158,0.774,3.725,0.774c0.8,0,1.7-0.05,2.7-0.149
		L242.954,174.013z"/>
	<path fill="#FFFFFF" d="M261.853,148.612c1.167,0.567,2.033,1.543,2.6,2.926c0.566,1.383,0.85,3.292,0.85,5.725v16.75h-2.4v-3.5
		c-2.467,2.567-5.317,3.85-8.55,3.85c-2.6,0-4.517-0.683-5.75-2.05c-1.233-1.366-1.85-3.1-1.85-5.2c0-2.399,0.733-4.25,2.2-5.55
		c1.466-1.3,3.616-1.966,6.45-2h7.25v-0.649c0-2.333-0.175-4.117-0.525-5.351c-0.35-1.232-0.95-2.1-1.8-2.6s-2.059-0.75-3.625-0.75
		c-2.2,0-4.867,0.45-8,1.35l-0.55-1.899c1.566-0.633,3.075-1.108,4.525-1.426c1.45-0.316,2.958-0.475,4.525-0.475
		C259.136,147.763,260.686,148.046,261.853,148.612z M250.803,170.588c0.933,0.884,2.232,1.325,3.9,1.325
		c1.266,0,2.583-0.292,3.95-0.875c1.367-0.583,2.7-1.375,4-2.375v-6.9h-7.4c-2.1,0-3.6,0.483-4.5,1.45s-1.35,2.2-1.35,3.7
		C249.403,168.479,249.87,169.705,250.803,170.588z"/>
	<path fill="#FFFFFF" d="M292.303,148.612c1.066,0.567,1.85,1.534,2.35,2.9c0.5,1.367,0.75,3.233,0.75,5.6v16.9h-2.7v-16.3
		c0-2-0.167-3.508-0.5-4.525c-0.333-1.017-0.867-1.725-1.6-2.125c-0.733-0.399-1.783-0.6-3.15-0.6c-1.4,0-2.817,0.2-4.25,0.6
		c-1.434,0.4-3,1.05-4.7,1.95v21h-2.7v-26h2.7v3.05c1.533-1.1,3.05-1.925,4.55-2.475s3.167-0.825,5-0.825
		C289.82,147.763,291.236,148.046,292.303,148.612z"/>
	<path fill="#FFFFFF" d="M323.803,173.312c-1.367,0.434-2.925,0.775-4.675,1.025s-3.275,0.375-4.575,0.375
		c-7.1,0-10.65-4.383-10.65-13.15c0-4.8,1.008-8.333,3.025-10.6c2.016-2.267,4.841-3.4,8.475-3.4c1.9,0,3.767,0.25,5.6,0.75v-14.3
		h2.75L323.803,173.312z M308.703,169.862c1.433,1.668,3.583,2.5,6.45,2.5c1.5,0,3.45-0.232,5.85-0.699v-20.9
		c-1.9-0.5-3.617-0.75-5.15-0.75c-3,0-5.3,0.908-6.9,2.725c-1.6,1.817-2.4,4.775-2.4,8.875
		C306.553,165.446,307.269,168.196,308.703,169.862z"/>
	<path fill="#FFFFFF" d="M359.052,174.013c-1.333,0.2-2.567,0.3-3.7,0.3c-2.1,0-3.75-0.375-4.95-1.125
		c-1.2-0.75-2.05-1.875-2.55-3.375s-0.75-3.466-0.75-5.899v-13.801h-3v-2.1h3v-6.6h2.55v6.6h7.55v2.1h-7.55v13.851
		c0,2.033,0.2,3.642,0.6,4.825c0.4,1.184,1.058,2.033,1.975,2.55c0.917,0.517,2.158,0.774,3.725,0.774c0.8,0,1.7-0.05,2.7-0.149
		L359.052,174.013z"/>
	<path fill="#FFFFFF" d="M381.802,148.612c1.066,0.567,1.85,1.534,2.35,2.9c0.5,1.367,0.75,3.233,0.75,5.6v16.9h-2.7v-16.3
		c0-2-0.167-3.508-0.5-4.525c-0.333-1.017-0.867-1.725-1.6-2.125c-0.733-0.399-1.784-0.6-3.15-0.6c-1.367,0-2.759,0.2-4.175,0.6
		c-1.417,0.4-2.975,1.034-4.675,1.9v21.05h-2.65v-40h2.65v17c1.5-1.066,2.992-1.875,4.475-2.425c1.483-0.55,3.142-0.825,4.975-0.825
		C379.318,147.763,380.734,148.046,381.802,148.612z"/>
	<path fill="#FFFFFF" d="M411.951,161.312l-15.75,0.05c0.033,4,0.816,6.817,2.35,8.45c1.533,1.634,3.566,2.45,6.1,2.45
		c1.133,0,2.208-0.125,3.226-0.375c1.016-0.25,2.225-0.607,3.625-1.075l0.449,2.15c-1.633,0.634-2.975,1.091-4.025,1.375
		c-1.049,0.282-2.191,0.425-3.424,0.425c-3.334,0-6.009-1.107-8.025-3.325c-2.018-2.216-3.025-5.657-3.025-10.325
		c0-4.6,0.967-7.975,2.9-10.125c1.933-2.149,4.516-3.225,7.75-3.225c2.933,0,5.016,0.825,6.25,2.475
		c1.232,1.65,1.85,3.959,1.85,6.926C412.201,158.53,412.117,159.913,411.951,161.312z M396.252,159.263l13.25-0.2
		c0.1-0.8,0.149-1.666,0.149-2.6c0-2.066-0.45-3.658-1.351-4.775c-0.899-1.116-2.367-1.675-4.399-1.675
		C399.201,150.013,396.652,153.097,396.252,159.263z"/>
	<path fill="#FFFFFF" d="M463.251,148.013l-6.899,26h-2.801l-6.8-20l-6.85,20h-2.8l-6.9-26h3l5.45,22.75l6.8-20.5h2.55l6.8,20.5
		l5.45-22.75H463.251z"/>
	<path fill="#FFFFFF" d="M470.902,171.487c-1.734-2.116-2.601-5.558-2.601-10.324c0-4.7,0.875-8.108,2.625-10.226
		c1.75-2.116,4.476-3.175,8.175-3.175c3.7,0,6.426,1.059,8.176,3.175c1.75,2.117,2.625,5.509,2.625,10.175
		c0,4.734-0.884,8.176-2.65,10.325c-1.768,2.15-4.518,3.226-8.25,3.226C475.334,174.663,472.634,173.604,470.902,171.487z
		 M485.176,169.663c1.283-1.767,1.925-4.717,1.925-8.851c0-2.666-0.258-4.791-0.774-6.375c-0.518-1.583-1.343-2.725-2.476-3.425
		s-2.667-1.05-4.6-1.05c-2,0-3.592,0.375-4.775,1.125s-2.042,1.95-2.574,3.6c-0.534,1.65-0.801,3.843-0.801,6.575
		c0,2.733,0.267,4.9,0.801,6.5c0.532,1.6,1.357,2.759,2.475,3.475c1.116,0.718,2.607,1.075,4.475,1.075
		C481.784,172.312,483.893,171.43,485.176,169.663z"/>
	<path fill="#FFFFFF" d="M510.652,150.413c-1.867,0.033-3.617,0.333-5.25,0.899c-1.634,0.567-3.05,1.334-4.25,2.3v20.4h-2.7v-26h2.7
		v3.4c1.166-1,2.607-1.842,4.325-2.525c1.716-0.683,3.508-1.058,5.375-1.125L510.652,150.413z"/>
	<path fill="#FFFFFF" d="M517.351,134.013h2.65v40h-2.65V134.013z"/>
	<path fill="#FFFFFF" d="M548.45,173.312c-1.367,0.434-2.925,0.775-4.675,1.025s-3.275,0.375-4.575,0.375
		c-7.101,0-10.65-4.383-10.65-13.15c0-4.8,1.008-8.333,3.025-10.6c2.017-2.267,4.841-3.4,8.475-3.4c1.9,0,3.767,0.25,5.601,0.75
		v-14.3h2.75L548.45,173.312z M533.35,169.862c1.434,1.668,3.583,2.5,6.45,2.5c1.5,0,3.45-0.232,5.851-0.699v-20.9
		c-1.9-0.5-3.617-0.75-5.15-0.75c-3,0-5.3,0.908-6.9,2.725c-1.6,1.817-2.399,4.775-2.399,8.875
		C531.2,165.446,531.916,168.196,533.35,169.862z"/>
	<path fill="#FFFFFF" d="M555.35,146.562l2.699-10.75l2.601,0.65l-3.601,10.649L555.35,146.562z"/>
	<path fill="#FFFFFF" d="M561.249,167.812c0.866,1.233,2.133,2.226,3.8,2.976c1.666,0.75,3.316,1.125,4.95,1.125
		c1.767,0,3.25-0.476,4.45-1.426c1.199-0.949,1.8-2.207,1.8-3.774c0-1.066-0.325-1.933-0.976-2.601
		c-0.649-0.666-1.441-1.175-2.375-1.524c-0.934-0.351-2.217-0.741-3.85-1.175c-1.768-0.434-3.192-0.858-4.275-1.275
		c-1.083-0.416-2-1.041-2.75-1.875c-0.75-0.833-1.125-1.933-1.125-3.3c0-1.467,0.417-2.741,1.25-3.825
		c0.833-1.083,1.941-1.916,3.325-2.5c1.383-0.583,2.858-0.875,4.425-0.875c2.9,0,5.5,0.95,7.801,2.85l-0.95,1.851
		c-0.968-0.7-2.034-1.241-3.2-1.625c-1.167-0.383-2.35-0.575-3.55-0.575c-1.834,0-3.393,0.425-4.675,1.275
		c-1.284,0.85-1.926,1.941-1.926,3.274c0,0.834,0.275,1.509,0.825,2.025s1.241,0.908,2.075,1.175c0.833,0.268,1.982,0.584,3.45,0.95
		c1.933,0.467,3.5,0.925,4.7,1.375c1.199,0.45,2.225,1.167,3.074,2.149c0.851,0.984,1.275,2.309,1.275,3.976
		c0,2.434-0.825,4.367-2.475,5.8c-1.65,1.434-3.759,2.15-6.325,2.15c-1.934,0-3.843-0.417-5.726-1.25s-3.375-2.017-4.475-3.551
		L561.249,167.812z"/>
	<path fill="#FFFFFF" d="M617.399,173.312c-1.367,0.434-2.925,0.775-4.675,1.025s-3.275,0.375-4.575,0.375
		c-7.101,0-10.65-4.383-10.65-13.15c0-4.8,1.008-8.333,3.025-10.6c2.017-2.267,4.841-3.4,8.475-3.4c1.9,0,3.767,0.25,5.601,0.75
		v-14.3h2.75L617.399,173.312z M602.298,169.862c1.434,1.668,3.583,2.5,6.45,2.5c1.5,0,3.45-0.232,5.851-0.699v-20.9
		c-1.9-0.5-3.617-0.75-5.15-0.75c-3,0-5.3,0.908-6.9,2.725c-1.6,1.817-2.399,4.775-2.399,8.875
		C600.149,165.446,600.865,168.196,602.298,169.862z"/>
	<path fill="#FFFFFF" d="M627.798,141.013c-0.4-0.4-0.601-0.9-0.601-1.5c0-0.566,0.2-1.05,0.601-1.45c0.399-0.399,0.899-0.6,1.5-0.6
		c0.532,0,1.008,0.2,1.425,0.6c0.416,0.4,0.625,0.884,0.625,1.45c0,0.6-0.2,1.1-0.601,1.5c-0.399,0.4-0.883,0.6-1.449,0.6
		C628.698,141.612,628.198,141.413,627.798,141.013z M627.898,148.013h2.7v26h-2.7V148.013z"/>
	<path fill="#FFFFFF" d="M659.197,148.013l-9.399,26h-2.8l-9.4-26h3.05l7.75,23.45l7.8-23.45H659.197z"/>
	<path fill="#FFFFFF" d="M682.746,161.312l-15.75,0.05c0.033,4,0.816,6.817,2.351,8.45c1.532,1.634,3.566,2.45,6.1,2.45
		c1.133,0,2.208-0.125,3.225-0.375s2.226-0.607,3.625-1.075l0.45,2.15c-1.634,0.634-2.975,1.091-4.024,1.375
		c-1.051,0.282-2.192,0.425-3.426,0.425c-3.333,0-6.008-1.107-8.024-3.325c-2.018-2.216-3.025-5.657-3.025-10.325
		c0-4.6,0.967-7.975,2.9-10.125c1.933-2.149,4.517-3.225,7.75-3.225c2.933,0,5.017,0.825,6.25,2.475
		c1.232,1.65,1.85,3.959,1.85,6.926C682.996,158.53,682.913,159.913,682.746,161.312z M667.046,159.263l13.25-0.2
		c0.101-0.8,0.15-1.666,0.15-2.6c0-2.066-0.45-3.658-1.35-4.775c-0.9-1.116-2.367-1.675-4.4-1.675
		C669.996,150.013,667.447,153.097,667.046,159.263z"/>
	<path fill="#FFFFFF" d="M703.796,150.413c-1.867,0.033-3.617,0.333-5.25,0.899c-1.634,0.567-3.05,1.334-4.25,2.3v20.4h-2.7v-26h2.7
		v3.4c1.166-1,2.607-1.842,4.325-2.525c1.716-0.683,3.508-1.058,5.375-1.125L703.796,150.413z"/>
	<path fill="#FFFFFF" d="M709.196,167.812c0.866,1.233,2.133,2.226,3.8,2.976c1.666,0.75,3.316,1.125,4.95,1.125
		c1.767,0,3.25-0.476,4.45-1.426c1.199-0.949,1.8-2.207,1.8-3.774c0-1.066-0.325-1.933-0.976-2.601
		c-0.649-0.666-1.441-1.175-2.375-1.524c-0.934-0.351-2.217-0.741-3.85-1.175c-1.768-0.434-3.192-0.858-4.275-1.275
		c-1.083-0.416-2-1.041-2.75-1.875c-0.75-0.833-1.125-1.933-1.125-3.3c0-1.467,0.417-2.741,1.25-3.825
		c0.833-1.083,1.941-1.916,3.325-2.5c1.383-0.583,2.858-0.875,4.425-0.875c2.9,0,5.5,0.95,7.801,2.85l-0.95,1.851
		c-0.968-0.7-2.034-1.241-3.2-1.625c-1.167-0.383-2.35-0.575-3.55-0.575c-1.834,0-3.393,0.425-4.675,1.275
		c-1.284,0.85-1.926,1.941-1.926,3.274c0,0.834,0.275,1.509,0.825,2.025s1.241,0.908,2.075,1.175c0.833,0.268,1.982,0.584,3.45,0.95
		c1.933,0.467,3.5,0.925,4.7,1.375c1.199,0.45,2.225,1.167,3.074,2.149c0.851,0.984,1.275,2.309,1.275,3.976
		c0,2.434-0.825,4.367-2.475,5.8c-1.65,1.434-3.759,2.15-6.325,2.15c-1.934,0-3.843-0.417-5.726-1.25s-3.375-2.017-4.475-3.551
		L709.196,167.812z"/>
	<path fill="#FFFFFF" d="M734.396,141.013c-0.4-0.4-0.601-0.9-0.601-1.5c0-0.566,0.2-1.05,0.601-1.45c0.399-0.399,0.899-0.6,1.5-0.6
		c0.532,0,1.008,0.2,1.425,0.6c0.416,0.4,0.625,0.884,0.625,1.45c0,0.6-0.2,1.1-0.601,1.5c-0.399,0.4-0.883,0.6-1.449,0.6
		C735.295,141.612,734.795,141.413,734.396,141.013z M734.495,148.013h2.7v26h-2.7V148.013z"/>
	<path fill="#FFFFFF" d="M759.544,174.013c-1.333,0.2-2.566,0.3-3.699,0.3c-2.101,0-3.75-0.375-4.95-1.125s-2.05-1.875-2.55-3.375
		s-0.75-3.466-0.75-5.899v-13.801h-3v-2.1h3v-6.6h2.55v6.6h7.55v2.1h-7.55v13.851c0,2.033,0.2,3.642,0.6,4.825
		c0.4,1.184,1.058,2.033,1.976,2.55c0.916,0.517,2.157,0.774,3.725,0.774c0.8,0,1.7-0.05,2.7-0.149L759.544,174.013z"/>
	<path fill="#FFFFFF" d="M782.845,148.013l-12.45,36h-2.75l3.45-10l-9-26h2.949l7.4,22.6l7.65-22.6H782.845z"/>
	<path fill="#FFFFFF" d="M786.743,180.112l2.7-10.75l3.1,0.65l-3.6,10.65L786.743,180.112z"/>
	<path fill="#FFFFFF" d="M39.23,224.487c-1.733-2.116-2.6-5.558-2.6-10.324c0-4.7,0.875-8.108,2.625-10.226
		c1.75-2.116,4.475-3.175,8.175-3.175c3.7,0,6.425,1.059,8.175,3.175c1.75,2.117,2.625,5.509,2.625,10.175
		c0,4.734-0.883,8.176-2.65,10.325c-1.767,2.15-4.517,3.226-8.25,3.226C43.663,227.663,40.963,226.604,39.23,224.487z
		 M53.505,222.663c1.283-1.767,1.925-4.717,1.925-8.851c0-2.666-0.259-4.791-0.775-6.375c-0.518-1.583-1.342-2.725-2.475-3.425
		c-1.134-0.7-2.667-1.05-4.6-1.05c-2,0-3.592,0.375-4.775,1.125c-1.184,0.75-2.042,1.95-2.575,3.6c-0.534,1.65-0.8,3.843-0.8,6.575
		c0,2.733,0.266,4.9,0.8,6.5c0.533,1.6,1.358,2.759,2.475,3.475c1.116,0.718,2.608,1.075,4.475,1.075
		C50.113,225.312,52.222,224.43,53.505,222.663z"/>
	<path fill="#FFFFFF" d="M83.28,201.612c1.066,0.567,1.85,1.534,2.35,2.9c0.5,1.367,0.75,3.233,0.75,5.6v16.9h-2.7v-16.3
		c0-2-0.167-3.508-0.5-4.525c-0.333-1.017-0.867-1.725-1.6-2.125c-0.733-0.399-1.783-0.6-3.15-0.6c-1.4,0-2.817,0.2-4.25,0.6
		c-1.434,0.4-3,1.05-4.7,1.95v21h-2.7v-26h2.7v3.05c1.533-1.1,3.05-1.925,4.55-2.475s3.167-0.825,5-0.825
		C80.797,200.763,82.213,201.046,83.28,201.612z"/>
	<path fill="#FFFFFF" d="M113.38,214.312l-15.75,0.05c0.033,4,0.816,6.817,2.35,8.45c1.533,1.634,3.566,2.45,6.1,2.45
		c1.133,0,2.208-0.125,3.225-0.375c1.016-0.25,2.225-0.607,3.625-1.075l0.45,2.15c-1.633,0.634-2.975,1.091-4.025,1.375
		c-1.05,0.282-2.192,0.425-3.425,0.425c-3.333,0-6.009-1.107-8.025-3.325c-2.018-2.216-3.025-5.657-3.025-10.325
		c0-4.6,0.967-7.975,2.9-10.125c1.933-2.149,4.516-3.225,7.75-3.225c2.933,0,5.016,0.825,6.25,2.475
		c1.232,1.65,1.85,3.959,1.85,6.926C113.63,211.53,113.546,212.913,113.38,214.312z M97.68,212.263l13.25-0.2
		c0.1-0.8,0.15-1.666,0.15-2.6c0-2.066-0.45-3.658-1.35-4.775c-0.9-1.116-2.367-1.675-4.4-1.675
		C100.63,203.013,98.08,206.097,97.68,212.263z"/>
	<path fill="#FFFFFF" d="M168.23,201.612c1.066,0.567,1.85,1.534,2.35,2.9c0.5,1.367,0.75,3.233,0.75,5.6v16.9h-2.7v-16.3
		c0-2-0.167-3.508-0.5-4.525c-0.333-1.017-0.867-1.725-1.6-2.125c-0.733-0.399-1.784-0.6-3.15-0.6c-1.4,0-2.817,0.2-4.25,0.6
		c-1.434,0.4-3.017,1.05-4.75,1.95c0.233,1.067,0.35,2.434,0.35,4.1v16.9h-2.7v-16.3c0-2-0.167-3.508-0.5-4.525
		c-0.333-1.017-0.867-1.725-1.6-2.125c-0.733-0.399-1.783-0.6-3.15-0.6c-1.4,0-2.817,0.2-4.25,0.6c-1.434,0.4-3,1.05-4.7,1.95v21
		h-2.7v-26h2.7v3.05c1.533-1.1,3.05-1.925,4.55-2.475s3.167-0.825,5-0.825c1.767,0,3.175,0.283,4.225,0.85
		c1.05,0.567,1.825,1.5,2.325,2.801c1.633-1.2,3.233-2.108,4.8-2.726c1.566-0.616,3.316-0.925,5.25-0.925
		C165.746,200.763,167.162,201.046,168.23,201.612z"/>
	<path fill="#FFFFFF" d="M200.429,201.013v26h-2.7v-2.7c-1.4,0.968-2.792,1.7-4.175,2.2c-1.384,0.5-2.842,0.75-4.375,0.75
		c-1.767,0-3.184-0.291-4.25-0.875c-1.067-0.583-1.85-1.558-2.35-2.925c-0.5-1.366-0.75-3.233-0.75-5.601v-16.85h2.75v16.4
		c0,2,0.167,3.517,0.5,4.55c0.333,1.033,0.866,1.75,1.6,2.149c0.733,0.4,1.766,0.601,3.1,0.601c2.166,0,4.816-0.816,7.95-2.45
		v-21.25H200.429z"/>
	<path fill="#FFFFFF" d="M209.629,220.812c0.866,1.233,2.133,2.226,3.8,2.976c1.667,0.75,3.316,1.125,4.95,1.125
		c1.766,0,3.25-0.476,4.45-1.426c1.2-0.949,1.8-2.207,1.8-3.774c0-1.066-0.325-1.933-0.975-2.601
		c-0.65-0.666-1.442-1.175-2.375-1.524c-0.934-0.351-2.217-0.741-3.85-1.175c-1.767-0.434-3.192-0.858-4.275-1.275
		c-1.083-0.416-2-1.041-2.75-1.875c-0.75-0.833-1.125-1.933-1.125-3.3c0-1.467,0.417-2.741,1.25-3.825
		c0.833-1.083,1.941-1.916,3.325-2.5c1.383-0.583,2.858-0.875,4.425-0.875c2.9,0,5.5,0.95,7.8,2.85l-0.95,1.851
		c-0.967-0.7-2.034-1.241-3.2-1.625c-1.167-0.383-2.35-0.575-3.55-0.575c-1.834,0-3.393,0.425-4.675,1.275
		c-1.284,0.85-1.925,1.941-1.925,3.274c0,0.834,0.275,1.509,0.825,2.025c0.55,0.517,1.242,0.908,2.075,1.175
		c0.833,0.268,1.983,0.584,3.45,0.95c1.933,0.467,3.5,0.925,4.7,1.375c1.2,0.45,2.225,1.167,3.075,2.149
		c0.85,0.984,1.275,2.309,1.275,3.976c0,2.434-0.825,4.367-2.475,5.8c-1.65,1.434-3.758,2.15-6.325,2.15
		c-1.934,0-3.842-0.417-5.725-1.25c-1.884-0.833-3.375-2.017-4.475-3.551L209.629,220.812z"/>
	<path fill="#FFFFFF" d="M246.779,227.013c-1.333,0.2-2.567,0.3-3.7,0.3c-2.1,0-3.75-0.375-4.95-1.125
		c-1.2-0.75-2.05-1.875-2.55-3.375s-0.75-3.466-0.75-5.899v-13.801h-3v-2.1h3v-6.6h2.55v6.6h7.55v2.1h-7.55v13.851
		c0,2.033,0.2,3.642,0.6,4.825c0.4,1.184,1.058,2.033,1.975,2.55c0.917,0.517,2.158,0.774,3.725,0.774c0.8,0,1.7-0.05,2.7-0.149
		L246.779,227.013z"/>
	<path fill="#FFFFFF" d="M278.278,203.413c-1.867,0.033-3.617,0.333-5.25,0.899c-1.634,0.567-3.05,1.334-4.25,2.3v20.4h-2.7v-26h2.7
		v3.4c1.166-1,2.607-1.842,4.325-2.525c1.716-0.683,3.508-1.058,5.375-1.125L278.278,203.413z"/>
	<path fill="#FFFFFF" d="M301.527,214.312l-15.75,0.05c0.033,4,0.816,6.817,2.35,8.45c1.533,1.634,3.566,2.45,6.1,2.45
		c1.133,0,2.208-0.125,3.225-0.375c1.016-0.25,2.225-0.607,3.625-1.075l0.45,2.15c-1.633,0.634-2.975,1.091-4.025,1.375
		c-1.05,0.282-2.192,0.425-3.425,0.425c-3.333,0-6.009-1.107-8.025-3.325c-2.018-2.216-3.025-5.657-3.025-10.325
		c0-4.6,0.967-7.975,2.9-10.125c1.933-2.149,4.516-3.225,7.75-3.225c2.933,0,5.016,0.825,6.25,2.475
		c1.232,1.65,1.85,3.959,1.85,6.926C301.777,211.53,301.694,212.913,301.527,214.312z M285.827,212.263l13.25-0.2
		c0.1-0.8,0.15-1.666,0.15-2.6c0-2.066-0.45-3.658-1.35-4.775c-0.9-1.116-2.367-1.675-4.4-1.675
		C288.777,203.013,286.227,206.097,285.827,212.263z"/>
	<path fill="#FFFFFF" d="M311.252,203.862c1.883-2.066,4.408-3.1,7.575-3.1c1.232,0,2.475,0.15,3.725,0.45s2.375,0.717,3.375,1.25
		l-0.65,2.05c-1.934-0.866-3.934-1.3-6-1.3c-2.733,0-4.775,0.817-6.125,2.45s-2.025,4.316-2.025,8.05
		c0,7.434,2.716,11.149,8.15,11.149c1.667,0,3.816-0.35,6.45-1.05l0.45,1.95c-2.7,1.067-5.067,1.6-7.1,1.6
		c-3.167,0-5.734-1.1-7.7-3.3c-1.967-2.2-2.95-5.633-2.95-10.3C308.427,209.229,309.368,205.93,311.252,203.862z"/>
	<path fill="#FFFFFF" d="M334.827,224.487c-1.733-2.116-2.6-5.558-2.6-10.324c0-4.7,0.875-8.108,2.625-10.226
		c1.75-2.116,4.475-3.175,8.175-3.175c3.7,0,6.425,1.059,8.175,3.175c1.75,2.117,2.625,5.509,2.625,10.175
		c0,4.734-0.883,8.176-2.65,10.325c-1.767,2.15-4.517,3.226-8.25,3.226C339.26,227.663,336.56,226.604,334.827,224.487z
		 M349.102,222.663c1.283-1.767,1.925-4.717,1.925-8.851c0-2.666-0.259-4.791-0.775-6.375c-0.518-1.583-1.342-2.725-2.475-3.425
		c-1.134-0.7-2.667-1.05-4.6-1.05c-2,0-3.592,0.375-4.775,1.125c-1.184,0.75-2.042,1.95-2.575,3.6c-0.534,1.65-0.8,3.843-0.8,6.575
		c0,2.733,0.266,4.9,0.8,6.5c0.533,1.6,1.358,2.759,2.475,3.475c1.116,0.718,2.608,1.075,4.475,1.075
		C345.71,225.312,347.819,224.43,349.102,222.663z"/>
	<path fill="#FFFFFF" d="M375.952,201.013c1.45,0.233,2.808,0.55,4.075,0.95v24.899c0,3.833-0.784,6.533-2.35,8.101
		c-1.567,1.566-3.9,2.35-7,2.35c-1.733,0-3.342-0.292-4.825-0.875c-1.484-0.583-2.958-1.425-4.425-2.524l0.95-1.601
		c1.3,0.9,2.667,1.575,4.1,2.025c1.433,0.45,2.7,0.675,3.8,0.675c2.367,0,4.142-0.567,5.325-1.7c1.183-1.134,1.775-3.149,1.775-6.05
		v-2.05c-2.233,1.6-4.667,2.399-7.3,2.399c-2.934,0-5.309-1.041-7.125-3.125c-1.817-2.082-2.725-5.407-2.725-9.975
		c0-4.866,1.058-8.392,3.175-10.575c2.117-2.183,4.975-3.274,8.575-3.274C373.177,200.663,374.502,200.78,375.952,201.013z
		 M374.102,224.663c1.25-0.4,2.341-0.883,3.275-1.45v-19.45c-1.833-0.433-3.534-0.65-5.1-0.65c-3.133,0-5.483,0.825-7.05,2.476
		c-1.567,1.649-2.35,4.475-2.35,8.475c0,3.934,0.7,6.784,2.1,8.55c1.4,1.768,3.25,2.65,5.55,2.65
		C371.659,225.263,372.852,225.062,374.102,224.663z"/>
	<path fill="#FFFFFF" d="M407.026,201.612c1.066,0.567,1.851,1.534,2.351,2.9c0.5,1.367,0.75,3.233,0.75,5.6v16.9h-2.7v-16.3
		c0-2-0.167-3.508-0.5-4.525c-0.334-1.017-0.867-1.725-1.6-2.125c-0.734-0.399-1.783-0.6-3.15-0.6c-1.4,0-2.817,0.2-4.25,0.6
		c-1.434,0.4-3,1.05-4.7,1.95v21h-2.7v-26h2.7v3.05c1.533-1.1,3.05-1.925,4.55-2.475s3.167-0.825,5-0.825
		C404.543,200.763,405.959,201.046,407.026,201.612z"/>
	<path fill="#FFFFFF" d="M420.476,194.013c-0.399-0.4-0.601-0.9-0.601-1.5c0-0.566,0.201-1.05,0.601-1.45
		c0.399-0.399,0.899-0.6,1.5-0.6c0.532,0,1.008,0.2,1.425,0.6c0.416,0.4,0.625,0.884,0.625,1.45c0,0.6-0.199,1.1-0.6,1.5
		s-0.884,0.6-1.45,0.6C421.375,194.612,420.875,194.413,420.476,194.013z M420.576,201.013h2.699v26h-2.699V201.013z"/>
	<path fill="#FFFFFF" d="M449.625,224.562v2.45h-18.6v-2.75l14.75-20.85h-14.15v-2.4h16.851v2.5l-14.7,21.05H449.625z"/>
	<path fill="#FFFFFF" d="M473.925,214.312l-15.751,0.05c0.033,4,0.816,6.817,2.351,8.45c1.532,1.634,3.566,2.45,6.1,2.45
		c1.133,0,2.209-0.125,3.225-0.375c1.018-0.25,2.227-0.607,3.625-1.075l0.451,2.15c-1.635,0.634-2.975,1.091-4.025,1.375
		c-1.051,0.282-2.191,0.425-3.426,0.425c-3.333,0-6.008-1.107-8.024-3.325c-2.018-2.216-3.025-5.657-3.025-10.325
		c0-4.6,0.967-7.975,2.9-10.125c1.934-2.149,4.517-3.225,7.751-3.225c2.932,0,5.016,0.825,6.25,2.475
		c1.232,1.65,1.85,3.959,1.85,6.926C474.175,211.53,474.091,212.913,473.925,214.312z M458.225,212.263l13.249-0.2
		c0.102-0.8,0.15-1.666,0.15-2.6c0-2.066-0.449-3.658-1.35-4.775c-0.9-1.116-2.367-1.675-4.4-1.675
		C461.174,203.013,458.625,206.097,458.225,212.263z"/>
	<path fill="#FFFFFF" d="M495.574,194.013c-0.4-0.4-0.601-0.9-0.601-1.5c0-0.566,0.2-1.05,0.601-1.45c0.399-0.399,0.899-0.6,1.5-0.6
		c0.532,0,1.008,0.2,1.425,0.6c0.416,0.4,0.625,0.884,0.625,1.45c0,0.6-0.2,1.1-0.601,1.5c-0.399,0.4-0.883,0.6-1.449,0.6
		C496.474,194.612,495.974,194.413,495.574,194.013z M495.674,201.013h2.7v26h-2.7V201.013z"/>
	<path fill="#FFFFFF" d="M520.723,227.013c-1.333,0.2-2.566,0.3-3.699,0.3c-2.101,0-3.75-0.375-4.95-1.125s-2.05-1.875-2.55-3.375
		s-0.75-3.466-0.75-5.899v-13.801h-3v-2.1h3v-6.6h2.55v6.6h7.55v2.1h-7.55v13.851c0,2.033,0.2,3.642,0.6,4.825
		c0.4,1.184,1.058,2.033,1.976,2.55c0.916,0.517,2.157,0.774,3.725,0.774c0.8,0,1.7-0.05,2.7-0.149L520.723,227.013z"/>
	<path fill="#FFFFFF" d="M525.823,220.812c0.866,1.233,2.133,2.226,3.8,2.976c1.666,0.75,3.316,1.125,4.95,1.125
		c1.767,0,3.25-0.476,4.45-1.426c1.199-0.949,1.8-2.207,1.8-3.774c0-1.066-0.325-1.933-0.976-2.601
		c-0.649-0.666-1.441-1.175-2.375-1.524c-0.934-0.351-2.217-0.741-3.85-1.175c-1.768-0.434-3.192-0.858-4.275-1.275
		c-1.083-0.416-2-1.041-2.75-1.875c-0.75-0.833-1.125-1.933-1.125-3.3c0-1.467,0.417-2.741,1.25-3.825
		c0.833-1.083,1.941-1.916,3.325-2.5c1.383-0.583,2.858-0.875,4.425-0.875c2.9,0,5.5,0.95,7.801,2.85l-0.95,1.851
		c-0.968-0.7-2.034-1.241-3.2-1.625c-1.167-0.383-2.35-0.575-3.55-0.575c-1.834,0-3.393,0.425-4.675,1.275
		c-1.284,0.85-1.926,1.941-1.926,3.274c0,0.834,0.275,1.509,0.825,2.025s1.241,0.908,2.075,1.175c0.833,0.268,1.982,0.584,3.45,0.95
		c1.933,0.467,3.5,0.925,4.7,1.375c1.199,0.45,2.225,1.167,3.074,2.149c0.851,0.984,1.275,2.309,1.275,3.976
		c0,2.434-0.825,4.367-2.475,5.8c-1.65,1.434-3.759,2.15-6.325,2.15c-1.934,0-3.843-0.417-5.726-1.25s-3.375-2.017-4.475-3.551
		L525.823,220.812z"/>
	<path fill="#FFFFFF" d="M564.022,187.013h2.65v40h-2.65V187.013z"/>
	<path fill="#FFFFFF" d="M589.671,201.612c1.166,0.567,2.033,1.543,2.6,2.926s0.851,3.292,0.851,5.725v16.75h-2.4v-3.5
		c-2.467,2.567-5.317,3.85-8.55,3.85c-2.6,0-4.518-0.683-5.75-2.05c-1.233-1.366-1.85-3.1-1.85-5.2c0-2.399,0.732-4.25,2.199-5.55
		s3.617-1.966,6.45-2h7.25v-0.649c0-2.333-0.175-4.117-0.524-5.351c-0.351-1.232-0.95-2.1-1.801-2.6
		c-0.85-0.5-2.059-0.75-3.625-0.75c-2.199,0-4.867,0.45-8,1.35l-0.55-1.899c1.566-0.633,3.075-1.108,4.525-1.426
		c1.45-0.316,2.958-0.475,4.524-0.475C586.954,200.763,588.504,201.046,589.671,201.612z M578.621,223.588
		c0.933,0.884,2.232,1.325,3.899,1.325c1.267,0,2.583-0.292,3.95-0.875c1.366-0.583,2.7-1.375,4-2.375v-6.9h-7.399
		c-2.101,0-3.601,0.483-4.5,1.45c-0.9,0.967-1.351,2.2-1.351,3.7C577.221,221.479,577.688,222.705,578.621,223.588z"/>
	<path fill="#FFFFFF" d="M620.12,201.612c1.066,0.567,1.85,1.534,2.35,2.9c0.5,1.367,0.75,3.233,0.75,5.6v16.9h-2.699v-16.3
		c0-2-0.168-3.508-0.5-4.525c-0.334-1.017-0.867-1.725-1.601-2.125c-0.733-0.399-1.783-0.6-3.149-0.6c-1.4,0-2.817,0.2-4.25,0.6
		c-1.434,0.4-3,1.05-4.7,1.95v21h-2.7v-26h2.7v3.05c1.532-1.1,3.05-1.925,4.55-2.475s3.166-0.825,5-0.825
		C617.637,200.763,619.053,201.046,620.12,201.612z"/>
	<path fill="#FFFFFF" d="M647.245,201.013c1.45,0.233,2.808,0.55,4.075,0.95v24.899c0,3.833-0.784,6.533-2.351,8.101
		c-1.567,1.566-3.899,2.35-7,2.35c-1.733,0-3.342-0.292-4.825-0.875s-2.958-1.425-4.425-2.524l0.95-1.601
		c1.3,0.9,2.666,1.575,4.1,2.025s2.7,0.675,3.801,0.675c2.366,0,4.141-0.567,5.324-1.7c1.184-1.134,1.775-3.149,1.775-6.05v-2.05
		c-2.233,1.6-4.667,2.399-7.3,2.399c-2.934,0-5.309-1.041-7.125-3.125c-1.817-2.082-2.726-5.407-2.726-9.975
		c0-4.866,1.059-8.392,3.176-10.575c2.116-2.183,4.975-3.274,8.574-3.274C644.47,200.663,645.795,200.78,647.245,201.013z
		 M645.395,224.663c1.25-0.4,2.342-0.883,3.275-1.45v-19.45c-1.834-0.433-3.533-0.65-5.1-0.65c-3.134,0-5.484,0.825-7.051,2.476
		c-1.566,1.649-2.35,4.475-2.35,8.475c0,3.934,0.7,6.784,2.1,8.55c1.4,1.768,3.25,2.65,5.551,2.65
		C642.953,225.263,644.145,225.062,645.395,224.663z"/>
	<path fill="#FFFFFF" d="M680.419,201.013v26h-2.699v-2.7c-1.4,0.968-2.793,1.7-4.176,2.2s-2.842,0.75-4.375,0.75
		c-1.767,0-3.184-0.291-4.25-0.875c-1.066-0.583-1.85-1.558-2.35-2.925c-0.5-1.366-0.75-3.233-0.75-5.601v-16.85h2.75v16.4
		c0,2,0.166,3.517,0.5,4.55c0.333,1.033,0.866,1.75,1.6,2.149c0.733,0.4,1.767,0.601,3.101,0.601c2.166,0,4.816-0.816,7.95-2.45
		v-21.25H680.419z"/>
	<path fill="#FFFFFF" d="M703.419,201.612c1.166,0.567,2.033,1.543,2.6,2.926s0.851,3.292,0.851,5.725v16.75h-2.4v-3.5
		c-2.467,2.567-5.317,3.85-8.55,3.85c-2.6,0-4.518-0.683-5.75-2.05c-1.233-1.366-1.85-3.1-1.85-5.2c0-2.399,0.732-4.25,2.199-5.55
		s3.617-1.966,6.45-2h7.25v-0.649c0-2.333-0.175-4.117-0.524-5.351c-0.351-1.232-0.95-2.1-1.801-2.6
		c-0.85-0.5-2.059-0.75-3.625-0.75c-2.199,0-4.867,0.45-8,1.35l-0.55-1.899c1.566-0.633,3.075-1.108,4.525-1.426
		c1.45-0.316,2.958-0.475,4.524-0.475C700.702,200.763,702.252,201.046,703.419,201.612z M692.369,223.588
		c0.933,0.884,2.232,1.325,3.899,1.325c1.267,0,2.583-0.292,3.95-0.875c1.366-0.583,2.7-1.375,4-2.375v-6.9h-7.399
		c-2.101,0-3.601,0.483-4.5,1.45c-0.9,0.967-1.351,2.2-1.351,3.7C690.969,221.479,691.436,222.705,692.369,223.588z"/>
	<path fill="#FFFFFF" d="M730.944,201.013c1.45,0.233,2.808,0.55,4.075,0.95v24.899c0,3.833-0.784,6.533-2.351,8.101
		c-1.567,1.566-3.899,2.35-7,2.35c-1.733,0-3.342-0.292-4.825-0.875s-2.958-1.425-4.425-2.524l0.95-1.601
		c1.3,0.9,2.666,1.575,4.1,2.025s2.7,0.675,3.801,0.675c2.366,0,4.141-0.567,5.324-1.7c1.184-1.134,1.775-3.149,1.775-6.05v-2.05
		c-2.233,1.6-4.667,2.399-7.3,2.399c-2.934,0-5.309-1.041-7.125-3.125c-1.817-2.082-2.726-5.407-2.726-9.975
		c0-4.866,1.059-8.392,3.176-10.575c2.116-2.183,4.975-3.274,8.574-3.274C728.168,200.663,729.493,200.78,730.944,201.013z
		 M729.093,224.663c1.25-0.4,2.342-0.883,3.275-1.45v-19.45c-1.834-0.433-3.533-0.65-5.1-0.65c-3.134,0-5.484,0.825-7.051,2.476
		c-1.566,1.649-2.35,4.475-2.35,8.475c0,3.934,0.7,6.784,2.1,8.55c1.4,1.768,3.25,2.65,5.551,2.65
		C726.652,225.263,727.843,225.062,729.093,224.663z"/>
	<path fill="#FFFFFF" d="M762.068,214.312l-15.75,0.05c0.033,4,0.816,6.817,2.351,8.45c1.532,1.634,3.566,2.45,6.1,2.45
		c1.133,0,2.208-0.125,3.225-0.375s2.226-0.607,3.625-1.075l0.45,2.15c-1.634,0.634-2.975,1.091-4.024,1.375
		c-1.051,0.282-2.192,0.425-3.426,0.425c-3.333,0-6.008-1.107-8.024-3.325c-2.018-2.216-3.025-5.657-3.025-10.325
		c0-4.6,0.967-7.975,2.9-10.125c1.933-2.149,4.517-3.225,7.75-3.225c2.933,0,5.017,0.825,6.25,2.475
		c1.232,1.65,1.85,3.959,1.85,6.926C762.318,211.53,762.235,212.913,762.068,214.312z M746.367,212.263l13.25-0.2
		c0.101-0.8,0.15-1.666,0.15-2.6c0-2.066-0.45-3.658-1.35-4.775c-0.9-1.116-2.367-1.675-4.4-1.675
		C749.318,203.013,746.768,206.097,746.367,212.263z"/>
</g>
</svg>
