<?xml version="1.0" encoding="utf-8"?>
<!-- Generator: Adobe Illustrator 15.1.0, SVG Export Plug-In . SVG Version: 6.00 Build 0)  -->
<!DOCTYPE svg PUBLIC "-//W3C//DTD SVG 1.1//EN" "http://www.w3.org/Graphics/SVG/1.1/DTD/svg11.dtd">
<svg version="1.1" id="Abre" xmlns="http://www.w3.org/2000/svg" xmlns:xlink="http://www.w3.org/1999/xlink" x="0px" y="0px"
	 width="800px" height="300px" viewBox="0 0 800 300" enable-background="new 0 0 800 300" xml:space="preserve">
<g>
	<g>
		<path fill="#EC1C24" d="M371.129,33.104v17.542h-3.785V39.572l-10.998,10.997c2.022,2.601,3.12,5.778,3.12,9.127
			c0,3.984-1.553,7.733-4.371,10.547c-2.82,2.819-6.562,4.371-10.545,4.371c-3.499,0-6.813-1.197-9.479-3.395
			c-2.177,1.796-4.787,2.924-7.573,3.274v7.489h8.636v3.786h-8.636v8.638h-3.79v-8.638h-8.635v-3.786h8.635v-7.489
			c-3.271-0.412-6.29-1.885-8.658-4.251c-2.812-2.812-4.364-6.562-4.364-10.547c0-3.983,1.553-7.726,4.364-10.543
			c2.817-2.816,6.567-4.369,10.553-4.369c3.497,0,6.81,1.196,9.472,3.396c2.665-2.198,5.979-3.396,9.479-3.396
			c3.342,0,6.515,1.093,9.116,3.109l10.994-10.999H353.38v-3.79L371.129,33.104L371.129,33.104z M325.6,70.826
			c2.589,0,4.974-0.889,6.864-2.377c-1.838-2.528-2.831-5.562-2.831-8.754c0-3.188,0.993-6.223,2.833-8.75
			c-1.896-1.488-4.277-2.377-6.866-2.377c-6.138,0-11.127,4.992-11.127,11.127C314.473,65.828,319.462,70.826,325.6,70.826z
			 M336.727,59.696c0-2.136-0.604-4.132-1.652-5.83c-1.048,1.698-1.649,3.694-1.649,5.83c0,2.135,0.604,4.133,1.649,5.829
			C336.121,63.829,336.727,61.831,336.727,59.696z M344.55,70.828c6.136,0,11.125-5,11.125-11.132
			c0-6.136-4.989-11.127-11.125-11.127c-2.591,0-4.979,0.89-6.87,2.378c1.843,2.527,2.835,5.562,2.835,8.748
			c0,3.188-0.992,6.224-2.832,8.751c1.891,1.489,4.276,2.38,6.867,2.38V70.828z"/>
	</g>
	<g>
		<path fill="#EC1C24" d="M150.859,33.103v17.543h-3.786V39.57l-10.999,11c2.023,2.6,3.119,5.778,3.119,9.127
			c0,3.983-1.551,7.732-4.37,10.546c-2.815,2.819-6.562,4.371-10.546,4.371c-3.498,0-6.812-1.196-9.478-3.396
			c-2.067,1.706-4.523,2.808-7.153,3.217v7.548h8.631v3.786h-8.631v8.634h-3.789v-8.634h-7.465v-3.786h7.465v-7.439
			c-2.952-0.287-5.721-1.436-8.009-3.324c-2.287,1.889-5.052,3.037-8.003,3.324v7.439h7.463v3.786h-7.463v8.634h-3.79v-8.634h-8.631
			v-3.786h8.631v-7.548c-3.104-0.48-5.967-1.928-8.229-4.192c-2.813-2.813-4.364-6.562-4.364-10.546
			c0-3.982,1.551-7.727,4.364-10.542c2.816-2.818,6.564-4.371,10.552-4.371c3.496,0,6.809,1.196,9.472,3.396
			c2.664-2.199,5.98-3.396,9.479-3.396s6.809,1.196,9.474,3.396c2.664-2.199,5.979-3.396,9.478-3.396
			c3.346,0,6.52,1.094,9.116,3.109l10.996-11.001h-11.282v-3.789H150.859z M86.376,70.828c2.588,0,4.974-0.89,6.861-2.379
			c-1.838-2.528-2.828-5.562-2.828-8.753c0-3.188,0.99-6.223,2.829-8.751c-1.892-1.488-4.273-2.376-6.862-2.376
			c-6.141,0-11.127,4.991-11.127,11.127C75.249,65.829,80.239,70.828,86.376,70.828z M95.851,65.525
			c1.048-1.696,1.652-3.694,1.652-5.829c0-2.136-0.604-4.132-1.652-5.83c-1.047,1.698-1.653,3.694-1.653,5.83
			C94.198,61.831,94.804,63.829,95.851,65.525z M105.325,48.569c-2.594,0-4.979,0.89-6.868,2.378
			c1.841,2.527,2.835,5.562,2.835,8.748c0,3.188-0.994,6.224-2.834,8.752c1.893,1.488,4.274,2.379,6.867,2.379
			c2.589,0,4.974-0.891,6.863-2.379c-1.838-2.528-2.832-5.562-2.832-8.752c0-3.187,0.994-6.221,2.833-8.748
			C110.3,49.459,107.914,48.569,105.325,48.569z M116.452,59.696c0-2.136-0.604-4.132-1.652-5.828
			c-1.046,1.696-1.65,3.692-1.65,5.828c0,2.135,0.604,4.131,1.65,5.828C115.848,63.827,116.452,61.831,116.452,59.696z
			 M135.404,59.696c0-6.136-4.988-11.127-11.127-11.127c-2.59,0-4.977,0.89-6.87,2.379c1.844,2.527,2.838,5.562,2.838,8.748
			c0,3.188-0.993,6.223-2.833,8.751c1.892,1.488,4.275,2.381,6.865,2.381C130.412,70.828,135.404,65.829,135.404,59.696z"/>
	</g>
	<g>
		<path fill="#EC1C24" d="M208.843,42.009v17.544h-3.787V48.475l-10.458,10.463c1.679,2.453,2.581,5.352,2.581,8.39
			c0,3.982-1.552,7.732-4.37,10.544c-2.818,2.821-6.562,4.372-10.547,4.372c-3.983,0-7.732-1.551-10.551-4.372
			c-1.129-1.127-2.057-2.408-2.759-3.793c-1.278,0.354-2.613,0.535-3.979,0.535c-3.984,0-7.733-1.552-10.552-4.371
			c-2.813-2.813-4.364-6.562-4.364-10.546c0-3.982,1.551-7.727,4.364-10.542c2.815-2.818,6.564-4.371,10.552-4.371
			c2.98,0,5.827,0.869,8.253,2.487L183.6,36.894l-11.286-0.006v-3.785l17.749,0.006v17.542h-3.786V39.573l-10.183,10.188
			c0.874,0.974,1.606,2.045,2.188,3.187c1.28-0.353,2.616-0.533,3.979-0.533c3.647,0,7.095,1.302,9.814,3.687l10.301-10.307h-11.078
			V42.01L208.843,42.009L208.843,42.009z M167.681,70.495c-0.221-1.03-0.335-2.09-0.335-3.168c0-3.984,1.553-7.728,4.365-10.542
			c0.928-0.928,1.956-1.719,3.062-2.361c-1.883-3.483-5.565-5.854-9.797-5.854c-6.138,0-11.127,4.991-11.127,11.129
			c0,6.131,4.989,11.13,11.127,11.13C165.906,70.828,166.816,70.713,167.681,70.495z M175.993,58.138
			c-2.934,2.006-4.858,5.377-4.858,9.189c0,0.529,0.038,1.05,0.109,1.561c2.932-2.008,4.855-5.38,4.855-9.189
			C176.103,59.167,176.065,58.646,175.993,58.138z M193.389,67.327c0-6.136-4.99-11.127-11.127-11.127
			c-0.932,0-1.838,0.114-2.704,0.332c0.22,1.028,0.334,2.088,0.334,3.166c0,3.981-1.552,7.732-4.369,10.544
			c-0.928,0.927-1.954,1.717-3.056,2.359c1.882,3.481,5.563,5.855,9.795,5.855C188.399,78.457,193.389,73.46,193.389,67.327z"/>
	</g>
	<g>
		<path fill="#EC1C24" d="M70.008,67.937c0,3.982-1.553,7.731-4.371,10.544c-2.818,2.819-6.562,4.371-10.547,4.371
			c-3.982,0-7.731-1.552-10.551-4.371c-2.812-2.812-4.364-6.562-4.364-10.544c0-3.984,1.552-7.729,4.364-10.543
			c2.347-2.346,5.337-3.814,8.569-4.241c0.001-5.641,2.572-7.99,4.586-9.822c1.598-1.455,2.653-2.419,2.653-4.843
			c0-2.783-2.013-4.698-4.935-4.698c-1.833,0-3.231,0.491-4.207,1.487c-1.494,1.532-1.751,4.075-1.743,5.147l-3.789,0.003
			c-0.005-2.407,0.717-5.646,2.833-7.802C49.857,31.248,52.073,30,55.413,30c5.001,0,8.72,3.622,8.72,8.487
			c0,4.096-2.115,6.029-3.881,7.638c-1.846,1.688-3.337,3.049-3.351,7.006c3.297,0.398,6.347,1.877,8.729,4.263
			C68.455,60.208,70.008,63.952,70.008,67.937z M66.218,67.937c0-6.137-4.991-11.128-11.128-11.128S43.964,61.8,43.964,67.937
			c0,6.13,4.989,11.13,11.126,11.13S66.218,74.066,66.218,67.937z"/>
	</g>
	<g>
		<path fill="#EC1C24" d="M311.481,33.102v17.544h-3.784V39.57l-10.849,10.85c2.099,2.627,3.239,5.863,3.239,9.276
			c0,3.984-1.556,7.733-4.371,10.547c-2.369,2.368-5.389,3.841-8.656,4.252v7.488h8.636v3.786h-8.636v8.634h-3.789v-8.634h-8.632
			v-3.786h8.632v-7.489c-3.266-0.412-6.287-1.886-8.648-4.251c-2.813-2.813-4.366-6.562-4.366-10.547
			c0-3.354,1.102-6.541,3.13-9.144l-2.196-2.196l-3.901,3.905l-2.68-2.679l3.904-3.907l-6.104-6.105v11.076h-3.786v-17.54h17.755
			v3.785H265.09l6.099,6.105l3.907-3.909l2.679,2.68l-3.909,3.908l2.201,2.203c2.601-2.007,5.771-3.095,9.104-3.095
			c3.275,0,6.392,1.05,8.965,2.994l10.877-10.887H293.73v-3.789L311.481,33.102L311.481,33.102z M296.296,59.695
			c0-6.135-4.989-11.127-11.126-11.127c-6.141,0-11.128,4.992-11.128,11.127c0,6.133,4.987,11.131,11.128,11.131
			C291.307,70.826,296.296,65.828,296.296,59.695z"/>
	</g>
	<g>
		<path fill="#EC1C24" d="M246.857,81.982h8.632v3.786h-8.632v8.638h-3.79v-8.638h-7.463v-3.786h7.463V74.54
			c-2.951-0.287-5.72-1.435-8.009-3.322c-2.286,1.888-5.052,3.035-8.004,3.322v7.442h7.465v3.786h-7.465v8.638h-3.789v-8.638h-8.631
			v-3.786h8.631v-7.549c-3.104-0.481-5.967-1.929-8.231-4.191c-2.812-2.812-4.361-6.562-4.361-10.547
			c0-3.985,1.552-7.728,4.361-10.543c2.819-2.818,6.568-4.371,10.556-4.371c3.498,0,6.811,1.196,9.472,3.396
			c2.665-2.199,5.981-3.396,9.479-3.396c3.98,0,7.728,1.553,10.546,4.371c2.815,2.815,4.37,6.558,4.37,10.543
			c0,3.984-1.555,7.732-4.37,10.547c-2.267,2.262-5.124,3.709-8.229,4.191L246.857,81.982L246.857,81.982z M225.586,70.826
			c2.589,0,4.974-0.891,6.865-2.377c-1.842-2.53-2.832-5.562-2.832-8.754c0-3.189,0.99-6.223,2.833-8.751
			c-1.895-1.487-4.276-2.376-6.866-2.376c-6.142,0-11.128,4.992-11.128,11.127C214.458,65.828,219.448,70.826,225.586,70.826z
			 M235.062,65.525c1.047-1.696,1.653-3.694,1.653-5.83c0-2.135-0.606-4.133-1.653-5.829c-1.048,1.696-1.653,3.694-1.653,5.829
			C233.406,61.831,234.014,63.829,235.062,65.525z M255.662,59.695c0-6.135-4.99-11.126-11.126-11.126
			c-2.593,0-4.979,0.888-6.869,2.378c1.842,2.527,2.836,5.562,2.836,8.748c0,3.187-0.994,6.224-2.834,8.751
			c1.892,1.489,4.274,2.38,6.867,2.38C250.672,70.826,255.662,65.828,255.662,59.695L255.662,59.695z"/>
	</g>
	<g>
		<path fill="#EC1C24" d="M412.072,68.751v17.538h-17.585v-3.786h11.111l-6.1-6.104l-3.905,3.909l-2.679-2.679l3.903-3.909
			l-2.245-2.248c-2.605,2.035-5.796,3.14-9.154,3.14c-3.982,0-7.731-1.552-10.555-4.369c-2.812-2.814-4.361-6.562-4.361-10.547
			c0-3.985,1.553-7.726,4.361-10.543c2.82-2.816,6.569-4.371,10.555-4.371c3.982,0,7.728,1.555,10.547,4.371
			c2.815,2.817,4.371,6.558,4.371,10.543c0,3.33-1.086,6.5-3.092,9.091l2.256,2.256l3.901-3.908l2.681,2.679l-3.903,3.907
			l6.104,6.105V68.752L412.072,68.751L412.072,68.751z M396.547,59.695c0-6.137-4.992-11.127-11.129-11.127
			c-6.14,0-11.126,4.99-11.126,11.127c0,6.133,4.986,11.131,11.126,11.131C391.555,70.826,396.547,65.828,396.547,59.695z"/>
	</g>
	<g>
		<path fill="#EC1C24" d="M452.702,68.751c0,3.984-1.552,7.732-4.368,10.547c-2.817,2.818-6.562,4.369-10.545,4.369
			c-3.984,0-7.732-1.551-10.554-4.369c-2.812-2.814-4.362-6.562-4.362-10.547c0-0.892,0.075-1.771,0.229-2.63L403.773,60.1
			l1.272-3.572l19.184,5.986c0.449-0.975,1.006-1.902,1.663-2.767l-16.585-16.581l2.684-2.682l16.556,16.559
			c0.862-0.688,1.796-1.269,2.775-1.74l-5.968-19.148l3.566-1.274l5.991,19.231c0.938-0.181,1.898-0.275,2.873-0.275
			c3.983,0,7.729,1.553,10.548,4.371C451.154,61.023,452.702,64.767,452.702,68.751z M448.914,68.751
			c0-6.136-4.99-11.127-11.125-11.127c-6.141,0-11.131,4.991-11.131,11.127c0,6.132,4.99,11.13,11.131,11.13
			C443.924,79.881,448.914,74.883,448.914,68.751z"/>
	</g>
	<g>
		<path fill="#EC1C24" d="M525.943,59.02c0,3.981-1.552,7.731-4.371,10.546c-2.814,2.817-6.562,4.368-10.544,4.368
			c-3.984,0-7.73-1.551-10.552-4.368c-2.812-2.814-4.366-6.564-4.366-10.546c0-3.349,1.098-6.527,3.115-9.127l-5.192-5.185
			l-1.878,7.037l-3.661-0.979l1.884-7.037l-7.029,1.881l-0.986-3.655l7.038-1.885l-5.147-5.151l2.68-2.678l5.146,5.151l1.893-7.035
			l3.657,0.98l-1.889,7.036l7.035-1.889l0.979,3.665l-7.025,1.879l5.183,5.187c2.604-2.018,5.78-3.111,9.125-3.111
			c3.982,0,7.729,1.553,10.544,4.372C524.391,51.29,525.943,55.034,525.943,59.02z M522.153,59.02
			c0-6.138-4.988-11.129-11.125-11.129c-6.139,0-11.129,4.991-11.129,11.129c0,6.131,4.99,11.13,11.129,11.13
			C517.16,70.149,522.153,65.15,522.153,59.02z"/>
	</g>
	<g>
		<path fill="#EC1C24" d="M689.95,44.259v17.54h-3.782V50.725L675.17,61.723c2.021,2.601,3.119,5.779,3.119,9.129
			c0,3.983-1.555,7.73-4.369,10.544c-2.819,2.82-6.562,4.371-10.547,4.371c-3.983,0-7.732-1.551-10.555-4.371
			c-2.812-2.813-4.361-6.561-4.361-10.544c0-3.984,1.552-7.729,4.361-10.543c2.819-2.818,6.568-4.371,10.555-4.371
			c3.345,0,6.518,1.093,9.114,3.109l10.994-10.999h-11.28v-3.789H689.95z M674.5,70.852c0-6.137-4.991-11.128-11.127-11.128
			c-6.142,0-11.129,4.991-11.129,11.128c0,6.131,4.987,11.129,11.129,11.129C669.509,81.98,674.5,76.982,674.5,70.852z"/>
	</g>
	<g>
		<path fill="#EC1C24" d="M612.682,70.852c0,3.983-1.551,7.732-4.37,10.544c-2.818,2.82-6.562,4.371-10.546,4.371
			s-7.733-1.551-10.552-4.371c-2.813-2.812-4.364-6.561-4.364-10.544c0-3.448,1.163-6.719,3.301-9.36l-13.189-13.187l2.685-2.683
			l13.241,13.244c2.555-1.901,5.64-2.929,8.882-2.929c3.981,0,7.729,1.553,10.546,4.371
			C611.131,63.123,612.682,66.867,612.682,70.852z M608.893,70.852c0-6.137-4.992-11.128-11.127-11.128
			c-6.137,0-11.127,4.991-11.127,11.128c0,6.131,4.99,11.13,11.127,11.13C603.901,81.981,608.893,76.982,608.893,70.852z"/>
	</g>
	<g>
		<path fill="#EC1C24" d="M472.107,73.816v7.491h8.637v3.784h-8.637v8.636h-3.79v-8.636h-8.631v-3.784h8.631v-7.491
			c-3.267-0.412-6.29-1.885-8.657-4.251c-2.812-2.813-4.364-6.562-4.364-10.546c0-3.985,1.556-7.729,4.364-10.543
			c2.819-2.819,6.569-4.37,10.552-4.37c3.984,0,7.729,1.551,10.55,4.37c2.815,2.813,4.371,6.558,4.371,10.543
			c0,3.983-1.556,7.732-4.371,10.546C478.391,71.932,475.373,73.404,472.107,73.816z M470.211,70.149
			c6.138,0,11.128-4.998,11.128-11.13c0-6.136-4.99-11.129-11.128-11.129c-6.14,0-11.127,4.993-11.127,11.129
			C459.084,65.151,464.073,70.149,470.211,70.149z"/>
	</g>
	<g>
		<path fill="#EC1C24" d="M620.15,73.447c-2.812-2.812-4.364-6.562-4.364-10.547c0-3.983,1.555-7.728,4.364-10.542
			c2.819-2.817,6.568-4.371,10.552-4.371c3.984,0,7.729,1.554,10.547,4.371c2.818,2.814,4.37,6.559,4.37,10.542
			c0,3.985-1.552,7.733-4.37,10.547c-2.816,2.819-6.562,4.37-10.547,4.37C626.718,77.817,622.969,76.267,620.15,73.447z
			 M641.825,62.9c0-6.136-4.989-11.126-11.127-11.126c-6.139,0-11.126,4.99-11.126,11.126c0,6.132,4.987,11.131,11.126,11.131
			C636.836,74.031,641.825,69.032,641.825,62.9z"/>
	</g>
	<g>
		<path fill="#EC1C24" d="M570.774,32.428v17.54h-3.785V38.895L555.99,49.893c2.024,2.6,3.12,5.778,3.12,9.128
			c0,3.983-1.552,7.732-4.371,10.545c-2.365,2.366-5.384,3.841-8.648,4.252v7.49h8.638v3.785h-8.638v8.637h-3.79v-8.637h-8.634
			v-3.785h8.634v-7.49c-3.271-0.411-6.291-1.886-8.657-4.252c-2.812-2.812-4.366-6.562-4.366-10.545
			c0-3.985,1.553-7.728,4.366-10.542c2.818-2.819,6.566-4.371,10.552-4.371c3.342,0,6.52,1.093,9.117,3.11l10.994-11.002h-11.282
			v-3.788H570.774z M555.32,59.021c0-6.137-4.989-11.128-11.126-11.128s-11.128,4.991-11.128,11.128
			c0,6.131,4.991,11.131,11.128,11.131C550.326,70.151,555.32,65.151,555.32,59.021z"/>
	</g>
	<g>
		<path fill="#EC1C24" d="M771.507,41.653v17.543h-3.788V48.117L757.26,58.581c1.68,2.454,2.582,5.351,2.582,8.39
			c0,3.984-1.553,7.731-4.37,10.545c-2.818,2.819-6.563,4.37-10.547,4.37c-3.984,0-7.733-1.551-10.55-4.37
			c-1.133-1.129-2.059-2.407-2.762-3.792c-1.275,0.352-2.613,0.533-3.978,0.533c-3.497,0-6.813-1.196-9.479-3.394
			c-2.177,1.796-4.783,2.923-7.574,3.274v7.489h8.637v3.786h-8.637v8.637h-3.787v-8.637h-8.635v-3.786h8.635v-7.489
			c-3.271-0.411-6.293-1.886-8.658-4.251c-2.812-2.813-4.366-6.562-4.366-10.546c0-3.985,1.554-7.728,4.366-10.543
			c2.814-2.818,6.564-4.371,10.552-4.371c3.497,0,6.81,1.197,9.471,3.396c2.665-2.198,5.981-3.396,9.479-3.396
			c2.979,0,5.829,0.87,8.252,2.487l10.374-10.377l-11.285-0.004v-3.785l17.749,0.006v17.54h-3.785V39.216L738.76,49.404
			c0.872,0.973,1.604,2.043,2.188,3.187c1.277-0.353,2.613-0.534,3.979-0.534c3.646,0,7.096,1.302,9.812,3.687l10.301-10.307
			h-11.074v-3.784H771.507z M708.69,70.472c2.588,0,4.975-0.889,6.862-2.377c-1.837-2.529-2.831-5.565-2.831-8.754
			s0.994-6.223,2.836-8.751c-1.896-1.488-4.277-2.376-6.867-2.376c-6.139,0-11.126,4.99-11.126,11.127
			C697.564,65.474,702.551,70.472,708.69,70.472z M719.818,59.342c0-2.137-0.606-4.134-1.651-5.828
			c-1.049,1.694-1.652,3.691-1.652,5.828c0,2.135,0.604,4.133,1.652,5.829C719.211,63.475,719.818,61.477,719.818,59.342z
			 M727.639,70.474c0.933,0,1.84-0.116,2.705-0.334c-0.226-1.03-0.334-2.09-0.334-3.169c0-3.982,1.55-7.726,4.365-10.541
			c0.927-0.929,1.957-1.717,3.06-2.36c-1.884-3.482-5.566-5.854-9.796-5.854c-2.591,0-4.979,0.889-6.867,2.377
			c1.84,2.527,2.836,5.562,2.836,8.748c0,3.188-0.996,6.225-2.836,8.751c1.895,1.489,4.277,2.38,6.867,2.38V70.474z M738.656,57.782
			c-2.934,2.007-4.857,5.376-4.857,9.188c0,0.53,0.038,1.052,0.107,1.562c2.933-2.007,4.858-5.38,4.858-9.188
			C738.767,58.812,738.729,58.292,738.656,57.782z M756.053,66.971c0-6.136-4.99-11.126-11.128-11.126
			c-0.935,0-1.837,0.115-2.706,0.333c0.223,1.027,0.338,2.088,0.338,3.164c0,3.984-1.555,7.73-4.371,10.546
			c-0.928,0.926-1.955,1.717-3.057,2.358c1.883,3.483,5.563,5.856,9.796,5.856C751.063,78.103,756.053,73.104,756.053,66.971z"/>
	</g>
</g>
<g>
	<path fill="#FFFFFF" d="M101,137.235H89.226v37.119h-2.905v-37.119h-11.72v-2.481H101V137.235z"/>
	<path fill="#FFFFFF" d="M109.976,171.688c-1.832-2.234-2.746-5.869-2.746-10.901c0-4.964,0.927-8.562,2.774-10.799
		c1.848-2.233,4.725-3.353,8.632-3.353c3.909,0,6.785,1.119,8.635,3.353c1.85,2.236,2.771,5.818,2.771,10.748
		c0,4.998-0.935,8.633-2.799,10.902c-1.865,2.27-4.771,3.405-8.714,3.405C114.656,175.041,111.806,173.923,109.976,171.688z
		 M125.05,169.762c1.354-1.865,2.035-4.98,2.035-9.346c0-2.816-0.273-5.061-0.819-6.732s-1.418-2.877-2.613-3.616
		c-1.194-0.739-2.816-1.109-4.855-1.109c-2.112,0-3.794,0.395-5.042,1.188c-1.252,0.792-2.156,2.059-2.724,3.8
		c-0.562,1.742-0.844,4.06-0.844,6.943c0,2.887,0.281,5.176,0.844,6.864c0.565,1.688,1.438,2.913,2.614,3.669
		c1.179,0.758,2.755,1.135,4.729,1.135C121.468,172.559,123.696,171.625,125.05,169.762z"/>
	<path fill="#FFFFFF" d="M172.333,146.898v27.456h-2.854v-2.853c-1.479,1.022-2.95,1.797-4.408,2.321
		c-1.461,0.527-3.002,0.793-4.618,0.793c-1.867,0-3.364-0.307-4.488-0.924c-1.127-0.615-1.954-1.646-2.481-3.09
		c-0.526-1.443-0.794-3.414-0.794-5.914v-17.793h2.906v17.317c0,2.111,0.176,3.715,0.526,4.807s0.915,1.848,1.688,2.27
		c0.774,0.423,1.866,0.633,3.275,0.633c2.286,0,5.085-0.863,8.395-2.588v-22.439h2.854V146.898z"/>
	<path fill="#FFFFFF" d="M200.843,147.531c1.127,0.6,1.954,1.62,2.479,3.063c0.528,1.443,0.792,3.416,0.792,5.913v17.849h-2.852
		v-17.215c0-2.111-0.177-3.703-0.526-4.779c-0.353-1.073-0.916-1.82-1.688-2.243c-0.774-0.422-1.883-0.632-3.327-0.632
		c-1.478,0-2.976,0.21-4.488,0.632c-1.514,0.423-3.168,1.11-4.963,2.06v22.176h-2.851v-27.455h2.851v3.22
		c1.619-1.161,3.221-2.032,4.808-2.613c1.582-0.579,3.344-0.871,5.277-0.871C198.221,146.634,199.716,146.934,200.843,147.531z"/>
	<path fill="#FFFFFF" d="M234.107,173.613c-1.441,0.457-3.09,0.818-4.937,1.082c-1.85,0.264-3.46,0.396-4.831,0.396
		c-7.498,0-11.248-4.629-11.248-13.887c0-5.066,1.062-8.801,3.194-11.194c2.13-2.396,5.109-3.592,8.948-3.592
		c2.006,0,3.979,0.265,5.913,0.793V132.11h2.906L234.107,173.613z M218.161,169.971c1.513,1.762,3.779,2.641,6.81,2.641
		c1.584,0,3.644-0.246,6.178-0.74v-22.068c-2.007-0.528-3.818-0.793-5.437-0.793c-3.17,0-5.601,0.959-7.286,2.876
		c-1.69,1.918-2.536,5.043-2.536,9.373C215.891,165.309,216.648,168.211,218.161,169.971z"/>
	<path fill="#FFFFFF" d="M262.672,160.939l-16.633,0.057c0.032,4.225,0.861,7.199,2.479,8.921c1.621,1.726,3.769,2.59,6.442,2.59
		c1.193,0,2.332-0.133,3.403-0.396c1.073-0.264,2.352-0.641,3.828-1.135l0.478,2.271c-1.728,0.667-3.145,1.151-4.251,1.448
		c-1.108,0.302-2.314,0.449-3.617,0.449c-3.521,0-6.344-1.168-8.476-3.51c-2.13-2.34-3.191-5.976-3.191-10.902
		c0-4.857,1.021-8.42,3.062-10.691c2.039-2.27,4.771-3.407,8.185-3.407c3.097,0,5.297,0.871,6.6,2.613
		c1.302,1.741,1.954,4.183,1.954,7.312C262.936,158.003,262.848,159.465,262.672,160.939z M246.092,158.777l13.992-0.209
		c0.105-0.848,0.16-1.762,0.16-2.746c0-2.182-0.478-3.862-1.428-5.041c-0.95-1.18-2.5-1.77-4.646-1.77
		C249.207,149.01,246.514,152.266,246.092,158.777z"/>
	<path fill="#FFFFFF" d="M284.901,149.431c-1.972,0.036-3.818,0.353-5.544,0.951c-1.726,0.601-3.221,1.406-4.486,2.429v21.543
		h-2.853v-27.456h2.853v3.59c1.23-1.057,2.754-1.945,4.565-2.666c1.812-0.72,3.702-1.118,5.677-1.188L284.901,149.431z"/>
	<path fill="#FFFFFF" d="M290.602,167.809c0.915,1.303,2.251,2.35,4.013,3.139c1.762,0.795,3.502,1.189,5.229,1.189
		c1.865,0,3.432-0.502,4.697-1.505c1.268-1.004,1.9-2.333,1.9-3.987c0-1.125-0.344-2.041-1.029-2.744
		c-0.688-0.705-1.522-1.242-2.508-1.61c-0.984-0.369-2.341-0.784-4.064-1.242c-1.865-0.457-3.37-0.905-4.516-1.349
		c-1.144-0.438-2.112-1.098-2.903-1.979c-0.792-0.88-1.188-2.039-1.188-3.484c0-1.547,0.44-2.896,1.32-4.04
		c0.88-1.143,2.051-2.024,3.512-2.639c1.458-0.617,3.018-0.925,4.673-0.925c3.062,0,5.808,1.003,8.234,3.008l-1.003,1.953
		c-1.021-0.738-2.146-1.312-3.377-1.716c-1.233-0.404-2.481-0.607-3.749-0.607c-1.938,0-3.582,0.448-4.938,1.346
		c-1.354,0.896-2.03,2.051-2.03,3.461c0,0.879,0.29,1.592,0.87,2.137c0.58,0.547,1.311,0.959,2.19,1.24
		c0.879,0.283,2.092,0.617,3.645,1.004c2.04,0.494,3.694,0.979,4.963,1.451c1.268,0.477,2.352,1.23,3.247,2.268
		c0.896,1.041,1.349,2.438,1.349,4.198c0,2.569-0.871,4.61-2.613,6.125c-1.743,1.513-3.97,2.271-6.68,2.271
		c-2.042,0-4.058-0.438-6.046-1.319c-1.988-0.882-3.564-2.134-4.728-3.749L290.602,167.809z"/>
	<path fill="#FFFFFF" d="M329.832,174.354c-1.406,0.213-2.711,0.317-3.907,0.317c-2.218,0-3.96-0.396-5.229-1.188
		c-1.268-0.793-2.164-1.98-2.69-3.563s-0.792-3.657-0.792-6.229v-14.574h-3.168v-2.217h3.168v-6.971h2.691v6.971h7.975v2.217h-7.975
		v14.627c0,2.147,0.209,3.846,0.633,5.097c0.425,1.25,1.118,2.146,2.087,2.691c0.967,0.545,2.277,0.816,3.934,0.816
		c0.844,0,1.795-0.053,2.852-0.158L329.832,174.354z"/>
	<path fill="#FFFFFF" d="M349.791,147.531c1.229,0.6,2.146,1.628,2.745,3.09c0.598,1.461,0.896,3.479,0.896,6.046v17.688h-2.534
		v-3.695c-2.604,2.712-5.615,4.064-9.027,4.064c-2.745,0-4.771-0.72-6.073-2.166c-1.302-1.443-1.952-3.275-1.952-5.49
		c0-2.535,0.773-4.488,2.322-5.861c1.548-1.373,3.818-2.076,6.811-2.111h7.656v-0.688c0-2.463-0.187-4.346-0.555-5.648
		c-0.369-1.304-1.005-2.219-1.9-2.745c-0.897-0.527-2.176-0.793-3.828-0.793c-2.323,0-5.14,0.476-8.447,1.424l-0.581-2.004
		c1.652-0.667,3.247-1.17,4.777-1.505c1.533-0.336,3.123-0.502,4.78-0.502C346.92,146.634,348.558,146.934,349.791,147.531z
		 M338.121,170.736c0.984,0.936,2.358,1.398,4.117,1.398c1.339,0,2.728-0.308,4.173-0.926c1.44-0.613,2.851-1.451,4.224-2.506
		v-7.287h-7.813c-2.22,0-3.802,0.512-4.753,1.531c-0.948,1.023-1.425,2.322-1.425,3.908
		C336.644,168.51,337.135,169.805,338.121,170.736z"/>
	<path fill="#FFFFFF" d="M381.945,147.531c1.127,0.6,1.954,1.62,2.482,3.063c0.525,1.443,0.792,3.416,0.792,5.913v17.849h-2.854
		v-17.215c0-2.111-0.176-3.703-0.524-4.779c-0.354-1.073-0.915-1.82-1.688-2.243c-0.773-0.422-1.884-0.632-3.327-0.632
		c-1.478,0-2.974,0.21-4.483,0.632c-1.514,0.423-3.17,1.11-4.966,2.06v22.176h-2.853v-27.455h2.853v3.22
		c1.621-1.161,3.223-2.032,4.806-2.613c1.584-0.579,3.344-0.871,5.277-0.871C379.323,146.634,380.819,146.934,381.945,147.531z"/>
	<path fill="#FFFFFF" d="M415.207,173.613c-1.442,0.457-3.092,0.818-4.938,1.082c-1.848,0.264-3.458,0.396-4.831,0.396
		c-7.497,0-11.248-4.629-11.248-13.887c0-5.066,1.065-8.801,3.193-11.194c2.133-2.396,5.108-3.592,8.948-3.592
		c2.008,0,3.979,0.265,5.914,0.793V132.11h2.906L415.207,173.613z M399.263,169.971c1.513,1.762,3.783,2.641,6.811,2.641
		c1.583,0,3.645-0.246,6.177-0.74v-22.068c-2.005-0.528-3.818-0.793-5.437-0.793c-3.168,0-5.598,0.959-7.286,2.876
		c-1.688,1.918-2.538,5.043-2.538,9.373C396.99,165.309,397.748,168.211,399.263,169.971z"/>
	<path fill="#FFFFFF" d="M452.433,174.354c-1.41,0.213-2.712,0.317-3.908,0.317c-2.22,0-3.962-0.396-5.228-1.188
		c-1.27-0.793-2.166-1.98-2.691-3.563c-0.529-1.583-0.793-3.657-0.793-6.229v-14.574h-3.169v-2.217h3.169v-6.971h2.69v6.971h7.974
		v2.217h-7.974v14.627c0,2.147,0.212,3.846,0.633,5.097c0.424,1.25,1.119,2.146,2.086,2.691s2.276,0.816,3.932,0.816
		c0.847,0,1.798-0.053,2.854-0.158L452.433,174.354z"/>
	<path fill="#FFFFFF" d="M476.454,147.531c1.128,0.6,1.953,1.62,2.481,3.063c0.527,1.443,0.791,3.416,0.791,5.913v17.849h-2.854
		v-17.215c0-2.111-0.176-3.703-0.524-4.779c-0.354-1.073-0.915-1.82-1.688-2.243c-0.773-0.422-1.884-0.632-3.324-0.632
		c-1.442,0-2.911,0.21-4.409,0.632c-1.499,0.423-3.142,1.092-4.936,2.007v22.229h-2.802v-42.24h2.802v17.953
		c1.581-1.126,3.155-1.98,4.726-2.562c1.564-0.579,3.315-0.871,5.253-0.871C473.832,146.634,475.326,146.934,476.454,147.531z"/>
	<path fill="#FFFFFF" d="M508.293,160.939l-16.635,0.057c0.037,4.225,0.864,7.199,2.484,8.921c1.617,1.726,3.764,2.59,6.439,2.59
		c1.196,0,2.33-0.133,3.404-0.396c1.074-0.264,2.353-0.641,3.826-1.135l0.479,2.271c-1.727,0.667-3.143,1.151-4.25,1.448
		c-1.109,0.302-2.314,0.449-3.617,0.449c-3.521,0-6.346-1.168-8.475-3.51c-2.132-2.34-3.193-5.976-3.193-10.902
		c0-4.857,1.021-8.42,3.062-10.691c2.041-2.27,4.771-3.407,8.186-3.407c3.098,0,5.298,0.871,6.6,2.613
		c1.303,1.741,1.955,4.183,1.955,7.312C508.558,158.003,508.47,159.465,508.293,160.939z M491.714,158.777l13.993-0.209
		c0.105-0.848,0.157-1.762,0.157-2.746c0-2.182-0.478-3.862-1.425-5.041c-0.951-1.18-2.501-1.77-4.648-1.77
		C494.827,149.01,492.137,152.266,491.714,158.777z"/>
	<path fill="#FFFFFF" d="M550.216,173.613c-1.443,0.457-3.091,0.818-4.938,1.082s-3.461,0.396-4.834,0.396
		c-7.494,0-11.245-4.629-11.245-13.887c0-5.066,1.063-8.801,3.194-11.194c2.13-2.396,5.109-3.592,8.948-3.592
		c2.007,0,3.979,0.265,5.915,0.793V132.11h2.9L550.216,173.613z M534.271,169.971c1.513,1.762,3.781,2.641,6.81,2.641
		c1.584,0,3.645-0.246,6.18-0.74v-22.068c-2.008-0.528-3.822-0.793-5.439-0.793c-3.167,0-5.597,0.959-7.286,2.876
		c-1.687,1.918-2.534,5.043-2.534,9.373C532,165.309,532.756,168.211,534.271,169.971z"/>
	<path fill="#FFFFFF" d="M561.198,139.507c-0.424-0.424-0.634-0.95-0.634-1.584c0-0.599,0.21-1.108,0.634-1.531
		c0.421-0.424,0.949-0.633,1.583-0.633c0.563,0,1.063,0.209,1.504,0.633c0.438,0.423,0.66,0.933,0.66,1.531
		c0,0.634-0.211,1.161-0.632,1.584c-0.424,0.423-0.936,0.634-1.532,0.634C562.149,140.141,561.617,139.928,561.198,139.507z
		 M561.302,146.898h2.854v27.456h-2.854V146.898z"/>
	<path fill="#FFFFFF" d="M594.356,146.898l-9.926,27.456h-2.956l-9.928-27.456h3.223l8.185,24.763l8.233-24.763H594.356z"/>
	<path fill="#FFFFFF" d="M619.224,160.939l-16.631,0.057c0.034,4.225,0.859,7.199,2.479,8.921c1.62,1.726,3.769,2.59,6.441,2.59
		c1.195,0,2.331-0.133,3.404-0.396c1.074-0.264,2.352-0.641,3.828-1.135l0.476,2.271c-1.726,0.667-3.142,1.151-4.249,1.448
		c-1.108,0.302-2.314,0.449-3.616,0.449c-3.519,0-6.347-1.168-8.476-3.51c-2.129-2.34-3.192-5.976-3.192-10.902
		c0-4.857,1.021-8.42,3.062-10.691c2.039-2.27,4.771-3.407,8.184-3.407c3.096,0,5.298,0.871,6.6,2.613
		c1.307,1.741,1.953,4.183,1.953,7.312C619.489,158.003,619.401,159.465,619.224,160.939z M602.645,158.777l13.993-0.209
		c0.104-0.848,0.158-1.762,0.158-2.746c0-2.182-0.477-3.862-1.428-5.041c-0.948-1.18-2.499-1.77-4.646-1.77
		C605.76,149.01,603.068,152.266,602.645,158.777z"/>
	<path fill="#FFFFFF" d="M641.452,149.431c-1.973,0.036-3.818,0.353-5.545,0.951c-1.726,0.601-3.221,1.406-4.486,2.429v21.543
		h-2.854v-27.456h2.854v3.59c1.231-1.057,2.754-1.945,4.565-2.666c1.812-0.72,3.704-1.118,5.678-1.188L641.452,149.431z"/>
	<path fill="#FFFFFF" d="M647.156,167.809c0.915,1.303,2.251,2.35,4.011,3.139c1.764,0.795,3.506,1.189,5.229,1.189
		c1.864,0,3.431-0.502,4.698-1.505c1.266-1.004,1.899-2.333,1.899-3.987c0-1.125-0.344-2.041-1.029-2.744
		c-0.687-0.705-1.525-1.242-2.509-1.61c-0.984-0.369-2.342-0.784-4.063-1.242c-1.864-0.457-3.368-0.905-4.515-1.349
		c-1.144-0.438-2.111-1.098-2.902-1.979c-0.794-0.88-1.188-2.039-1.188-3.484c0-1.547,0.438-2.896,1.317-4.04
		c0.88-1.143,2.05-2.024,3.511-2.639c1.461-0.617,3.021-0.925,4.673-0.925c3.062,0,5.809,1.003,8.234,3.008l-1.003,1.953
		c-1.021-0.738-2.146-1.312-3.378-1.716c-1.23-0.404-2.481-0.607-3.746-0.607c-1.938,0-3.584,0.448-4.938,1.346
		c-1.354,0.896-2.031,2.051-2.031,3.461c0,0.879,0.29,1.592,0.87,2.137c0.579,0.547,1.309,0.959,2.189,1.24
		c0.879,0.283,2.095,0.617,3.645,1.004c2.041,0.494,3.693,0.979,4.965,1.451c1.267,0.475,2.349,1.23,3.245,2.268
		c0.896,1.041,1.349,2.438,1.349,4.198c0,2.569-0.872,4.61-2.615,6.125c-1.741,1.513-3.968,2.271-6.677,2.271
		c-2.042,0-4.057-0.438-6.046-1.319c-1.989-0.882-3.563-2.134-4.728-3.749L647.156,167.809z"/>
	<path fill="#FFFFFF" d="M673.767,139.507c-0.424-0.424-0.634-0.95-0.634-1.584c0-0.599,0.21-1.108,0.634-1.531
		c0.423-0.424,0.949-0.633,1.583-0.633c0.562,0,1.064,0.209,1.506,0.633c0.438,0.423,0.66,0.933,0.66,1.531
		c0,0.634-0.211,1.161-0.634,1.584c-0.425,0.423-0.935,0.634-1.532,0.634C674.716,140.141,674.188,139.928,673.767,139.507z
		 M673.867,146.898h2.854v27.456h-2.854V146.898z"/>
	<path fill="#FFFFFF" d="M700.323,174.354c-1.407,0.213-2.713,0.317-3.909,0.317c-2.218,0-3.959-0.396-5.228-1.188
		c-1.266-0.793-2.166-1.98-2.688-3.563c-0.528-1.583-0.796-3.657-0.796-6.229v-14.574h-3.168v-2.217h3.168v-6.971h2.691v6.971h7.973
		v2.217h-7.973v14.627c0,2.147,0.21,3.846,0.634,5.097c0.423,1.25,1.117,2.146,2.085,2.691c0.97,0.546,2.279,0.816,3.936,0.816
		c0.846,0,1.796-0.053,2.852-0.158L700.323,174.354z"/>
	<path fill="#FFFFFF" d="M724.927,146.898l-13.146,38.017h-2.905l3.646-10.562l-9.507-27.456h3.113l7.814,23.864l8.079-23.864
		H724.927z"/>
	<path fill="#FFFFFF" d="M89.437,189.007c-0.422-0.424-0.634-0.95-0.634-1.584c0-0.598,0.212-1.108,0.634-1.53
		c0.422-0.424,0.95-0.635,1.584-0.635c0.563,0,1.065,0.211,1.506,0.635c0.438,0.422,0.659,0.935,0.659,1.53
		c0,0.634-0.212,1.162-0.634,1.584c-0.422,0.423-0.933,0.634-1.531,0.634C90.387,189.641,89.858,189.428,89.437,189.007z
		 M89.543,196.398h2.851v27.455h-2.851V196.398z"/>
	<path fill="#FFFFFF" d="M120.906,197.031c1.125,0.6,1.952,1.621,2.481,3.062c0.529,1.442,0.792,3.416,0.792,5.912v17.85h-2.851
		v-17.215c0-2.113-0.18-3.703-0.526-4.779c-0.354-1.073-0.917-1.821-1.69-2.242c-0.772-0.424-1.883-0.635-3.324-0.635
		c-1.479,0-2.978,0.211-4.488,0.635c-1.514,0.421-3.168,1.107-4.963,2.059v22.176h-2.853v-27.455h2.853v3.223
		c1.619-1.161,3.221-2.032,4.805-2.612c1.583-0.579,3.345-0.87,5.28-0.87C118.281,196.135,119.778,196.436,120.906,197.031z"/>
	<path fill="#FFFFFF" d="M161.349,223.854c-1.406,0.213-2.71,0.317-3.906,0.317c-2.218,0-3.96-0.396-5.228-1.188
		c-1.27-0.793-2.164-1.979-2.693-3.562c-0.524-1.583-0.791-3.656-0.791-6.229v-14.576h-3.168V196.4h3.168v-6.971h2.692v6.971h7.974
		v2.219h-7.974v14.624c0,2.147,0.21,3.846,0.634,5.098c0.423,1.249,1.117,2.146,2.085,2.69c0.969,0.546,2.28,0.818,3.937,0.818
		c0.844,0,1.795-0.056,2.851-0.16L161.349,223.854z"/>
	<path fill="#FFFFFF" d="M185.373,197.031c1.127,0.6,1.954,1.621,2.481,3.062c0.526,1.442,0.792,3.416,0.792,5.912v17.85h-2.852
		v-17.215c0-2.113-0.177-3.703-0.528-4.779c-0.353-1.073-0.916-1.821-1.688-2.242c-0.774-0.424-1.886-0.635-3.325-0.635
		c-1.443,0-2.913,0.211-4.409,0.635c-1.495,0.421-3.142,1.092-4.938,2.007v22.228h-2.798v-42.24h2.798v17.953
		c1.583-1.127,3.159-1.979,4.728-2.562c1.564-0.579,3.317-0.87,5.254-0.87C182.75,196.135,184.246,196.436,185.373,197.031z"/>
	<path fill="#FFFFFF" d="M217.212,210.439l-16.633,0.057c0.033,4.225,0.861,7.199,2.479,8.921c1.621,1.726,3.771,2.59,6.442,2.59
		c1.193,0,2.332-0.133,3.403-0.396c1.075-0.264,2.352-0.641,3.828-1.135l0.478,2.271c-1.728,0.667-3.143,1.151-4.251,1.448
		c-1.108,0.302-2.313,0.449-3.617,0.449c-3.52,0-6.344-1.168-8.472-3.51c-2.134-2.341-3.195-5.977-3.195-10.902
		c0-4.857,1.021-8.422,3.062-10.691c2.039-2.27,4.771-3.408,8.185-3.408c3.097,0,5.297,0.873,6.6,2.615
		c1.306,1.742,1.954,4.182,1.954,7.311C217.476,207.504,217.388,208.965,217.212,210.439z M200.632,208.277l13.994-0.209
		c0.104-0.846,0.158-1.762,0.158-2.746c0-2.182-0.478-3.862-1.428-5.041c-0.951-1.18-2.5-1.77-4.646-1.77
		C203.747,198.512,201.056,201.766,200.632,208.277z"/>
	<path fill="#FFFFFF" d="M271.384,196.398l-7.287,27.455h-2.956l-7.181-21.119l-7.234,21.119h-2.956l-7.286-27.455h3.168
		l5.753,24.022l7.184-21.647h2.69l7.182,21.647l5.755-24.022H271.384z"/>
	<path fill="#FFFFFF" d="M279.462,221.188c-1.832-2.233-2.746-5.869-2.746-10.9c0-4.965,0.924-8.562,2.771-10.799
		c1.85-2.233,4.728-3.354,8.635-3.354c3.904,0,6.782,1.118,8.633,3.354c1.85,2.236,2.771,5.816,2.771,10.746
		c0,4.998-0.933,8.634-2.799,10.902c-1.866,2.27-4.77,3.405-8.712,3.405C284.142,224.541,281.291,223.423,279.462,221.188z
		 M294.536,219.262c1.354-1.865,2.03-4.98,2.03-9.346c0-2.818-0.271-5.062-0.814-6.732c-0.547-1.674-1.418-2.877-2.613-3.615
		c-1.199-0.738-2.819-1.108-4.857-1.108c-2.11,0-3.795,0.396-5.043,1.188c-1.251,0.791-2.154,2.059-2.721,3.801
		c-0.562,1.742-0.845,4.058-0.845,6.943c0,2.887,0.281,5.174,0.845,6.862c0.564,1.688,1.438,2.913,2.613,3.669
		c1.18,0.76,2.753,1.137,4.726,1.137C290.953,222.059,293.181,221.125,294.536,219.262z"/>
	<path fill="#FFFFFF" d="M321.437,198.932c-1.971,0.034-3.82,0.354-5.544,0.949c-1.726,0.6-3.221,1.407-4.488,2.432v21.541h-2.851
		v-27.455h2.851v3.59c1.232-1.057,2.757-1.943,4.567-2.666c1.811-0.719,3.704-1.116,5.677-1.188L321.437,198.932z"/>
	<path fill="#FFFFFF" d="M328.512,181.613h2.798v42.24h-2.798V181.613z"/>
	<path fill="#FFFFFF" d="M361.353,223.113c-1.444,0.457-3.089,0.818-4.938,1.082c-1.85,0.264-3.458,0.396-4.83,0.396
		c-7.498,0-11.249-4.628-11.249-13.886c0-5.066,1.065-8.801,3.193-11.193c2.133-2.396,5.113-3.592,8.949-3.592
		c2.007,0,3.979,0.264,5.913,0.792v-15.101h2.906L361.353,223.113z M345.406,219.471c1.515,1.762,3.784,2.641,6.812,2.641
		c1.582,0,3.643-0.246,6.175-0.739v-22.067c-2.004-0.527-3.819-0.793-5.437-0.793c-3.168,0-5.599,0.961-7.286,2.877
		c-1.689,1.918-2.534,5.043-2.534,9.373C343.137,214.809,343.894,217.711,345.406,219.471z"/>
	<path fill="#FFFFFF" d="M385.954,189.007c-0.424-0.424-0.633-0.95-0.633-1.584c0-0.598,0.209-1.108,0.633-1.53
		c0.425-0.424,0.949-0.635,1.585-0.635c0.562,0,1.062,0.211,1.504,0.635c0.438,0.422,0.658,0.935,0.658,1.53
		c0,0.634-0.209,1.162-0.633,1.584c-0.423,0.423-0.935,0.634-1.529,0.634C386.906,189.641,386.379,189.428,385.954,189.007z
		 M386.063,196.398h2.852v27.455h-2.852V196.398z"/>
	<path fill="#FFFFFF" d="M412.515,223.854c-1.407,0.213-2.711,0.317-3.907,0.317c-2.22,0-3.962-0.396-5.228-1.188
		c-1.269-0.793-2.164-1.979-2.692-3.562c-0.526-1.583-0.792-3.656-0.792-6.229v-14.576h-3.168V196.4h3.168v-6.971h2.693v6.971h7.971
		v2.219h-7.971v14.624c0,2.147,0.208,3.846,0.631,5.098c0.424,1.249,1.12,2.146,2.087,2.69c0.967,0.544,2.277,0.818,3.932,0.818
		c0.85,0,1.797-0.056,2.854-0.16L412.515,223.854z"/>
	<path fill="#FFFFFF" d="M432.785,189.007c-0.422-0.424-0.632-0.95-0.632-1.584c0-0.598,0.21-1.108,0.632-1.53
		c0.426-0.424,0.95-0.635,1.583-0.635c0.563,0,1.065,0.211,1.507,0.635c0.438,0.422,0.659,0.935,0.659,1.53
		c0,0.634-0.209,1.162-0.634,1.584c-0.422,0.423-0.933,0.634-1.532,0.634C433.74,189.641,433.212,189.428,432.785,189.007z
		 M432.895,196.398h2.851v27.455h-2.851V196.398z"/>
	<path fill="#FFFFFF" d="M445.461,217.309c0.914,1.303,2.252,2.351,4.013,3.139c1.76,0.796,3.502,1.189,5.228,1.189
		c1.862,0,3.432-0.502,4.697-1.505c1.268-1.004,1.902-2.333,1.902-3.987c0-1.125-0.344-2.041-1.031-2.744
		c-0.688-0.705-1.523-1.24-2.508-1.609c-0.985-0.369-2.341-0.784-4.064-1.242c-1.865-0.457-3.37-0.904-4.515-1.35
		c-1.146-0.438-2.111-1.098-2.904-1.979c-0.792-0.881-1.188-2.039-1.188-3.484c0-1.549,0.438-2.896,1.318-4.041
		c0.882-1.141,2.05-2.022,3.512-2.639c1.46-0.617,3.018-0.925,4.673-0.925c3.062,0,5.807,1.005,8.235,3.009l-1.004,1.953
		c-1.021-0.74-2.146-1.312-3.379-1.718c-1.231-0.403-2.479-0.606-3.748-0.606c-1.938,0-3.583,0.449-4.937,1.346
		c-1.355,0.898-2.033,2.053-2.033,3.463c0,0.879,0.291,1.593,0.872,2.136c0.579,0.55,1.311,0.961,2.188,1.242
		c0.882,0.282,2.095,0.614,3.645,1.003c2.039,0.494,3.694,0.979,4.963,1.451c1.27,0.473,2.352,1.23,3.248,2.27
		s1.347,2.438,1.347,4.196c0,2.567-0.871,4.608-2.612,6.125c-1.742,1.515-3.969,2.271-6.679,2.271c-2.041,0-4.058-0.438-6.046-1.318
		c-1.99-0.881-3.562-2.133-4.727-3.749L445.461,217.309z"/>
	<path fill="#FFFFFF" d="M503.224,197.031c1.126,0.6,1.955,1.621,2.481,3.062c0.526,1.442,0.793,3.416,0.793,5.912v17.85h-2.854
		v-17.215c0-2.113-0.176-3.703-0.526-4.779c-0.353-1.073-0.913-1.821-1.688-2.242c-0.775-0.424-1.884-0.635-3.326-0.635
		c-1.479,0-2.973,0.211-4.486,0.635c-1.514,0.421-3.168,1.107-4.967,2.059v22.176h-2.851v-27.455h2.851v3.223
		c1.622-1.161,3.224-2.032,4.808-2.612c1.584-0.579,3.344-0.87,5.277-0.87C500.603,196.135,502.098,196.436,503.224,197.031z"/>
	<path fill="#FFFFFF" d="M535.01,210.439l-16.635,0.057c0.036,4.225,0.863,7.199,2.483,8.921c1.617,1.726,3.765,2.59,6.44,2.59
		c1.195,0,2.328-0.133,3.404-0.396c1.073-0.264,2.352-0.641,3.825-1.135l0.479,2.271c-1.728,0.667-3.144,1.151-4.25,1.448
		c-1.11,0.302-2.315,0.449-3.618,0.449c-3.521,0-6.344-1.168-8.474-3.51c-2.133-2.341-3.194-5.977-3.194-10.902
		c0-4.857,1.021-8.422,3.062-10.691s4.771-3.408,8.185-3.408c3.098,0,5.298,0.873,6.6,2.615c1.304,1.742,1.955,4.182,1.955,7.311
		C535.274,207.504,535.186,208.965,535.01,210.439z M518.43,208.277l13.993-0.209c0.104-0.846,0.159-1.762,0.159-2.746
		c0-2.182-0.479-3.862-1.427-5.041c-0.951-1.18-2.501-1.77-4.647-1.77C521.545,198.512,518.854,201.766,518.43,208.277z"/>
	<path fill="#FFFFFF" d="M545.28,199.406c1.987-2.182,4.651-3.274,7.997-3.274c1.306,0,2.615,0.16,3.937,0.479
		c1.316,0.312,2.507,0.757,3.562,1.318l-0.688,2.166c-2.041-0.916-4.152-1.373-6.337-1.373c-2.886,0-5.043,0.859-6.469,2.588
		c-1.427,1.725-2.139,4.56-2.139,8.502c0,7.851,2.868,11.771,8.604,11.771c1.763,0,4.031-0.37,6.812-1.107l0.477,2.059
		c-2.854,1.127-5.352,1.691-7.498,1.691c-3.345,0-6.055-1.164-8.133-3.486c-2.078-2.321-3.113-5.948-3.113-10.877
		C542.295,205.074,543.285,201.589,545.28,199.406z"/>
	<path fill="#FFFFFF" d="M586.963,210.439l-16.631,0.057c0.032,4.225,0.859,7.199,2.479,8.921c1.62,1.726,3.771,2.59,6.44,2.59
		c1.195,0,2.33-0.133,3.404-0.396c1.076-0.264,2.352-0.641,3.828-1.135l0.477,2.271c-1.727,0.667-3.141,1.151-4.25,1.448
		c-1.108,0.302-2.313,0.449-3.615,0.449c-3.521,0-6.348-1.168-8.475-3.51c-2.131-2.341-3.193-5.977-3.193-10.902
		c0-4.857,1.021-8.422,3.062-10.691c2.039-2.27,4.771-3.408,8.184-3.408c3.096,0,5.298,0.873,6.6,2.615
		c1.304,1.742,1.953,4.182,1.953,7.311C587.228,207.504,587.14,208.965,586.963,210.439z M570.386,208.277l13.989-0.209
		c0.104-0.846,0.158-1.762,0.158-2.746c0-2.182-0.475-3.862-1.427-5.041c-0.949-1.18-2.497-1.77-4.646-1.77
		C573.5,198.512,570.807,201.766,570.386,208.277z"/>
	<path fill="#FFFFFF" d="M594.936,217.309c0.916,1.303,2.254,2.351,4.014,3.139c1.76,0.796,3.502,1.189,5.229,1.189
		c1.862,0,3.431-0.502,4.696-1.505c1.269-1.004,1.901-2.333,1.901-3.987c0-1.125-0.344-2.041-1.031-2.744
		c-0.687-0.705-1.521-1.24-2.507-1.609c-0.984-0.369-2.34-0.784-4.063-1.242c-1.864-0.457-3.371-0.904-4.517-1.35
		c-1.146-0.438-2.111-1.098-2.904-1.979c-0.791-0.881-1.188-2.039-1.188-3.484c0-1.549,0.44-2.896,1.321-4.041
		c0.879-1.141,2.049-2.022,3.509-2.639c1.461-0.617,3.019-0.925,4.673-0.925c3.062,0,5.808,1.005,8.236,3.009l-1.003,1.953
		c-1.022-0.74-2.148-1.312-3.381-1.718c-1.23-0.403-2.48-0.606-3.745-0.606c-1.938,0-3.583,0.449-4.938,1.346
		c-1.354,0.898-2.033,2.053-2.033,3.463c0,0.879,0.291,1.593,0.873,2.136c0.578,0.55,1.311,0.961,2.188,1.242
		c0.883,0.282,2.095,0.614,3.644,1.003c2.039,0.494,3.694,0.979,4.963,1.451c1.271,0.473,2.354,1.23,3.248,2.27
		c0.898,1.039,1.348,2.438,1.348,4.196c0,2.567-0.87,4.608-2.612,6.125c-1.742,1.515-3.969,2.271-6.678,2.271
		c-2.041,0-4.06-0.438-6.048-1.318c-1.989-0.881-3.562-2.133-4.725-3.749L594.936,217.309z"/>
	<path fill="#FFFFFF" d="M620.281,217.309c0.915,1.303,2.251,2.351,4.013,3.139c1.762,0.796,3.504,1.189,5.229,1.189
		c1.865,0,3.433-0.502,4.697-1.505c1.268-1.004,1.901-2.333,1.901-3.987c0-1.125-0.345-2.041-1.031-2.744
		c-0.687-0.705-1.522-1.24-2.508-1.609c-0.984-0.369-2.342-0.784-4.062-1.242c-1.867-0.457-3.371-0.904-4.517-1.35
		c-1.144-0.438-2.111-1.098-2.902-1.979c-0.793-0.881-1.188-2.039-1.188-3.484c0-1.549,0.438-2.896,1.317-4.041
		c0.879-1.141,2.049-2.022,3.51-2.639c1.461-0.617,3.02-0.925,4.673-0.925c3.062,0,5.811,1.005,8.236,3.009l-1.004,1.953
		c-1.021-0.74-2.146-1.312-3.378-1.718c-1.229-0.403-2.482-0.606-3.746-0.606c-1.938,0-3.585,0.449-4.937,1.346
		c-1.355,0.898-2.033,2.053-2.033,3.463c0,0.879,0.29,1.593,0.87,2.136c0.577,0.55,1.309,0.961,2.188,1.242
		c0.88,0.282,2.094,0.614,3.646,1.003c2.039,0.494,3.691,0.979,4.963,1.451c1.27,0.473,2.351,1.23,3.247,2.27
		c0.896,1.039,1.349,2.438,1.349,4.196c0,2.567-0.874,4.608-2.616,6.125c-1.742,1.515-3.967,2.271-6.676,2.271
		c-2.043,0-4.059-0.438-6.046-1.318c-1.991-0.881-3.562-2.133-4.728-3.749L620.281,217.309z"/>
	<path fill="#FFFFFF" d="M660.198,197.031c1.232,0.6,2.146,1.628,2.745,3.091c0.601,1.461,0.898,3.476,0.898,6.046v17.688h-2.537
		v-3.693c-2.604,2.712-5.614,4.064-9.028,4.064c-2.745,0-4.77-0.721-6.07-2.168c-1.308-1.44-1.955-3.273-1.955-5.49
		c0-2.532,0.772-4.486,2.323-5.859c1.545-1.373,3.818-2.076,6.811-2.109h7.653v-0.688c0-2.462-0.185-4.348-0.555-5.65
		c-0.369-1.305-1.003-2.22-1.898-2.744c-0.896-0.527-2.177-0.791-3.827-0.791c-2.322,0-5.141,0.476-8.447,1.424l-0.583-2.006
		c1.654-0.666,3.249-1.168,4.78-1.504c1.53-0.336,3.124-0.502,4.778-0.502C657.327,196.135,658.966,196.436,660.198,197.031z
		 M648.529,220.236c0.984,0.936,2.357,1.397,4.117,1.397c1.338,0,2.728-0.308,4.17-0.926c1.443-0.612,2.853-1.451,4.226-2.506
		v-7.287h-7.812c-2.219,0-3.801,0.513-4.753,1.53c-0.948,1.023-1.424,2.322-1.424,3.908
		C647.051,218.01,647.543,219.305,648.529,220.236z"/>
	<path fill="#FFFFFF" d="M687.811,198.932c-1.97,0.034-3.822,0.354-5.543,0.949c-1.725,0.6-3.223,1.407-4.488,2.432v21.541h-2.851
		v-27.455h2.851v3.59c1.231-1.057,2.755-1.943,4.565-2.666c1.812-0.719,3.704-1.116,5.677-1.188L687.811,198.932z"/>
	<path fill="#FFFFFF" d="M712.732,196.398l-13.147,38.017h-2.901l3.643-10.562l-9.506-27.455h3.115l7.813,23.863l8.078-23.863
		H712.732z"/>
	<path fill="#FFFFFF" d="M119.243,273.354c-1.408,0.213-2.715,0.318-3.909,0.318c-2.22,0-3.96-0.396-5.229-1.188
		c-1.266-0.795-2.164-1.981-2.688-3.564c-0.529-1.583-0.794-3.658-0.794-6.23v-14.574h-3.168v-2.217h3.168v-6.971h2.69v6.971h7.976
		v2.217h-7.976v14.628c0,2.147,0.212,3.846,0.634,5.098c0.425,1.249,1.117,2.146,2.086,2.688c0.97,0.548,2.279,0.818,3.936,0.818
		c0.847,0,1.795-0.054,2.851-0.158L119.243,273.354z"/>
	<path fill="#FFFFFF" d="M126.688,270.688c-1.832-2.233-2.746-5.869-2.746-10.9c0-4.965,0.924-8.562,2.773-10.799
		c1.848-2.233,4.726-3.354,8.633-3.354s6.784,1.118,8.632,3.354c1.853,2.236,2.774,5.816,2.774,10.746
		c0,4.998-0.937,8.634-2.799,10.902c-1.866,2.27-4.771,3.405-8.712,3.405C131.365,274.041,128.518,272.923,126.688,270.688z
		 M141.762,268.762c1.353-1.865,2.032-4.98,2.032-9.346c0-2.818-0.272-5.062-0.818-6.732c-0.547-1.674-1.418-2.877-2.613-3.615
		s-2.815-1.108-4.856-1.108c-2.111,0-3.792,0.396-5.042,1.188c-1.249,0.791-2.156,2.059-2.719,3.801
		c-0.563,1.742-0.847,4.058-0.847,6.943c0,2.887,0.282,5.174,0.847,6.862c0.562,1.688,1.434,2.913,2.611,3.669
		c1.182,0.76,2.754,1.137,4.728,1.137C138.179,271.559,140.406,270.625,141.762,268.762z"/>
	<path fill="#FFFFFF" d="M182.282,248.432c-1.971,0.034-3.817,0.354-5.544,0.949c-1.725,0.6-3.221,1.407-4.486,2.432v21.541H169.4
		v-27.457h2.853v3.59c1.23-1.055,2.755-1.942,4.566-2.666c1.812-0.719,3.703-1.115,5.678-1.188L182.282,248.432z"/>
	<path fill="#FFFFFF" d="M206.837,259.939l-16.632,0.057c0.032,4.225,0.86,7.199,2.479,8.921c1.618,1.726,3.768,2.59,6.441,2.59
		c1.194,0,2.33-0.133,3.403-0.396c1.073-0.262,2.352-0.641,3.826-1.135l0.479,2.271c-1.728,0.667-3.145,1.151-4.251,1.448
		c-1.108,0.302-2.314,0.449-3.617,0.449c-3.521,0-6.344-1.168-8.474-3.51c-2.132-2.341-3.195-5.977-3.195-10.902
		c0-4.857,1.021-8.422,3.062-10.691s4.771-3.408,8.187-3.408c3.095,0,5.295,0.873,6.601,2.615c1.302,1.742,1.951,4.182,1.951,7.311
		C207.099,257.004,207.013,258.465,206.837,259.939z M190.257,257.777l13.992-0.209c0.105-0.846,0.16-1.762,0.16-2.746
		c0-2.182-0.479-3.862-1.428-5.041c-0.95-1.18-2.5-1.77-4.646-1.77C193.372,248.012,190.68,251.266,190.257,257.777z"/>
	<path fill="#FFFFFF" d="M217.107,248.906c1.988-2.182,4.652-3.274,7.997-3.274c1.305,0,2.614,0.16,3.937,0.479
		c1.317,0.312,2.508,0.757,3.562,1.318l-0.687,2.166c-2.042-0.916-4.153-1.373-6.335-1.373c-2.889,0-5.043,0.859-6.472,2.588
		c-1.426,1.725-2.138,4.56-2.138,8.502c0,7.851,2.867,11.771,8.607,11.771c1.759,0,4.028-0.37,6.81-1.107l0.477,2.059
		c-2.854,1.127-5.352,1.691-7.498,1.691c-3.345,0-6.055-1.164-8.131-3.486c-2.08-2.321-3.113-5.945-3.113-10.877
		C214.123,254.574,215.115,251.089,217.107,248.906z"/>
	<path fill="#FFFFFF" d="M242.001,270.688c-1.831-2.233-2.745-5.869-2.745-10.9c0-4.965,0.924-8.562,2.771-10.799
		c1.852-2.233,4.729-3.354,8.637-3.354c3.904,0,6.782,1.118,8.632,3.354c1.849,2.236,2.771,5.816,2.771,10.746
		c0,4.998-0.935,8.634-2.798,10.902c-1.866,2.27-4.77,3.405-8.713,3.405C246.682,274.041,243.831,272.923,242.001,270.688z
		 M257.074,268.762c1.354-1.865,2.032-4.98,2.032-9.346c0-2.818-0.271-5.062-0.816-6.732c-0.547-1.674-1.418-2.877-2.614-3.615
		s-2.816-1.108-4.857-1.108c-2.109,0-3.792,0.396-5.042,1.188c-1.25,0.791-2.154,2.059-2.719,3.801
		c-0.562,1.742-0.845,4.058-0.845,6.943c0,2.887,0.281,5.174,0.845,6.862c0.562,1.688,1.435,2.913,2.613,3.669
		c1.18,0.76,2.753,1.137,4.726,1.137C253.493,271.559,255.719,270.625,257.074,268.762z"/>
	<path fill="#FFFFFF" d="M285.428,245.898c1.533,0.246,2.966,0.578,4.304,1.002v26.293c0,4.047-0.827,6.897-2.479,8.554
		c-1.654,1.651-4.119,2.481-7.395,2.481c-1.83,0-3.526-0.311-5.095-0.924c-1.566-0.619-3.124-1.508-4.673-2.666l1.004-1.691
		c1.372,0.949,2.813,1.664,4.329,2.139c1.512,0.477,2.851,0.711,4.013,0.711c2.498,0,4.373-0.598,5.621-1.794
		c1.252-1.196,1.875-3.325,1.875-6.392v-2.164c-2.358,1.689-4.927,2.535-7.709,2.535c-3.098,0-5.604-1.103-7.523-3.301
		c-1.919-2.199-2.878-5.709-2.878-10.533c0-5.142,1.119-8.86,3.354-11.168c2.233-2.303,5.254-3.457,9.056-3.457
		C282.496,245.527,283.897,245.652,285.428,245.898z M283.475,270.871c1.32-0.421,2.473-0.934,3.458-1.533v-20.539
		c-1.936-0.455-3.729-0.686-5.385-0.686c-3.311,0-5.792,0.869-7.446,2.613c-1.654,1.742-2.479,4.727-2.479,8.951
		c0,4.152,0.736,7.162,2.219,9.028c1.479,1.862,3.43,2.797,5.857,2.797C280.897,271.507,282.155,271.295,283.475,270.871z"/>
	<path fill="#FFFFFF" d="M318.243,246.531c1.127,0.6,1.952,1.621,2.481,3.062c0.526,1.442,0.792,3.416,0.792,5.912v17.85h-2.852
		v-17.215c0-2.113-0.179-3.703-0.528-4.779c-0.354-1.073-0.916-1.821-1.689-2.242c-0.772-0.424-1.884-0.635-3.323-0.635
		c-1.48,0-2.978,0.211-4.488,0.635c-1.513,0.421-3.167,1.107-4.965,2.059v22.176h-2.853v-27.455h2.853v3.223
		c1.621-1.162,3.223-2.033,4.806-2.614c1.584-0.577,3.344-0.868,5.279-0.868C315.62,245.635,317.115,245.936,318.243,246.531z"/>
	<path fill="#FFFFFF" d="M332.447,238.507c-0.422-0.424-0.634-0.95-0.634-1.584c0-0.598,0.212-1.108,0.634-1.53
		c0.424-0.424,0.95-0.633,1.584-0.633c0.563,0,1.065,0.209,1.508,0.633c0.438,0.422,0.657,0.935,0.657,1.53
		c0,0.634-0.212,1.162-0.634,1.584c-0.422,0.423-0.933,0.634-1.531,0.634C333.397,239.141,332.865,238.928,332.447,238.507z
		 M332.553,245.898h2.851v27.455h-2.851V245.898z"/>
	<path fill="#FFFFFF" d="M363.23,270.768v2.588h-19.643v-2.904l15.576-22.02h-14.942v-2.535h17.793v2.642l-15.521,22.229H363.23
		L363.23,270.768L363.23,270.768z"/>
	<path fill="#FFFFFF" d="M388.888,259.939l-16.631,0.057c0.034,4.225,0.862,7.199,2.479,8.921c1.619,1.726,3.769,2.59,6.438,2.59
		c1.198,0,2.333-0.133,3.407-0.396c1.073-0.262,2.351-0.641,3.826-1.135l0.479,2.271c-1.727,0.667-3.144,1.151-4.25,1.448
		c-1.108,0.302-2.315,0.449-3.617,0.449c-3.521,0-6.347-1.168-8.475-3.51c-2.129-2.341-3.192-5.977-3.192-10.902
		c0-4.857,1.021-8.422,3.062-10.691s4.769-3.408,8.185-3.408c3.095,0,5.295,0.873,6.6,2.615c1.302,1.742,1.951,4.182,1.951,7.311
		C389.151,257.004,389.062,258.465,388.888,259.939z M372.31,257.777l13.991-0.209c0.104-0.846,0.161-1.762,0.161-2.746
		c0-2.182-0.479-3.862-1.431-5.041c-0.945-1.18-2.497-1.77-4.645-1.77C375.425,248.012,372.732,251.266,372.31,257.777z"/>
	<path fill="#FFFFFF" d="M411.748,238.507c-0.424-0.424-0.632-0.95-0.632-1.584c0-0.598,0.208-1.108,0.632-1.53
		c0.425-0.424,0.949-0.633,1.584-0.633c0.562,0,1.062,0.209,1.504,0.633c0.438,0.422,0.659,0.935,0.659,1.53
		c0,0.634-0.209,1.162-0.634,1.584c-0.422,0.423-0.934,0.634-1.529,0.634C412.699,239.141,412.173,238.928,411.748,238.507z
		 M411.857,245.898h2.853v27.455h-2.853V245.898z"/>
	<path fill="#FFFFFF" d="M438.309,273.354c-1.407,0.213-2.71,0.318-3.908,0.318c-2.218,0-3.961-0.396-5.228-1.188
		c-1.267-0.795-2.165-1.981-2.691-3.564c-0.527-1.583-0.793-3.658-0.793-6.23v-14.574h-3.169v-2.217h3.169v-6.971h2.692v6.971h7.973
		v2.217h-7.973v14.628c0,2.147,0.21,3.846,0.634,5.098c0.422,1.249,1.117,2.146,2.086,2.688c0.969,0.547,2.276,0.818,3.933,0.818
		c0.85,0,1.797-0.054,2.854-0.158L438.309,273.354z"/>
	<path fill="#FFFFFF" d="M443.693,266.809c0.914,1.303,2.254,2.351,4.013,3.139c1.761,0.796,3.502,1.189,5.229,1.189
		c1.866,0,3.433-0.502,4.697-1.505c1.268-1.004,1.901-2.334,1.901-3.987c0-1.125-0.344-2.041-1.032-2.746
		c-0.686-0.703-1.521-1.238-2.506-1.607c-0.984-0.369-2.342-0.784-4.063-1.242c-1.866-0.457-3.37-0.904-4.517-1.348
		c-1.144-0.438-2.111-1.1-2.902-1.979c-0.793-0.882-1.188-2.039-1.188-3.484c0-1.549,0.438-2.896,1.318-4.039
		s2.05-2.025,3.512-2.641c1.458-0.617,3.017-0.926,4.673-0.926c3.062,0,5.809,1.006,8.234,3.01l-1.004,1.953
		c-1.021-0.74-2.146-1.312-3.376-1.719c-1.232-0.402-2.481-0.605-3.749-0.605c-1.938,0-3.582,0.449-4.938,1.346
		c-1.354,0.898-2.033,2.052-2.033,3.462c0,0.879,0.291,1.593,0.871,2.136c0.577,0.549,1.31,0.961,2.19,1.242
		c0.879,0.283,2.092,0.615,3.644,1.003c2.041,0.494,3.694,0.978,4.964,1.451s2.352,1.231,3.245,2.269
		c0.897,1.039,1.351,2.438,1.351,4.197c0,2.568-0.871,4.609-2.613,6.125c-1.743,1.514-3.97,2.27-6.68,2.27
		c-2.042,0-4.06-0.438-6.046-1.319c-1.99-0.88-3.562-2.132-4.728-3.747L443.693,266.809z"/>
	<path fill="#FFFFFF" d="M484.031,231.113h2.799v42.24h-2.799V231.113z"/>
	<path fill="#FFFFFF" d="M511.115,246.531c1.23,0.6,2.146,1.628,2.745,3.091c0.599,1.461,0.896,3.476,0.896,6.046v17.688h-2.535
		v-3.693c-2.604,2.712-5.614,4.064-9.03,4.064c-2.743,0-4.77-0.721-6.07-2.166c-1.303-1.442-1.953-3.275-1.953-5.492
		c0-2.532,0.772-4.486,2.321-5.859c1.55-1.373,3.82-2.076,6.812-2.109h7.657v-0.688c0-2.462-0.187-4.348-0.557-5.648
		c-0.369-1.307-1.003-2.222-1.9-2.746c-0.896-0.527-2.176-0.791-3.826-0.791c-2.322,0-5.142,0.476-8.449,1.424l-0.578-2.006
		c1.654-0.666,3.245-1.168,4.778-1.504c1.53-0.336,3.123-0.502,4.776-0.502C508.248,245.635,509.886,245.936,511.115,246.531z
		 M499.448,269.736c0.985,0.936,2.359,1.397,4.119,1.397c1.338,0,2.727-0.308,4.172-0.926c1.441-0.612,2.854-1.451,4.226-2.506
		v-7.287h-7.814c-2.217,0-3.803,0.513-4.75,1.53c-0.952,1.023-1.427,2.322-1.427,3.908
		C497.971,267.51,498.463,268.805,499.448,269.736z"/>
	<path fill="#FFFFFF" d="M543.273,246.531c1.126,0.6,1.955,1.621,2.481,3.062c0.526,1.442,0.793,3.416,0.793,5.912v17.85h-2.854
		v-17.215c0-2.113-0.176-3.703-0.525-4.779c-0.353-1.073-0.914-1.821-1.688-2.242c-0.775-0.424-1.884-0.635-3.328-0.635
		c-1.478,0-2.973,0.211-4.486,0.635c-1.514,0.421-3.168,1.107-4.963,2.059v22.176h-2.853v-27.455h2.853v3.223
		c1.618-1.162,3.221-2.033,4.807-2.614c1.581-0.577,3.343-0.868,5.277-0.868C540.652,245.635,542.145,245.936,543.273,246.531z"/>
	<path fill="#FFFFFF" d="M571.918,245.898c1.527,0.246,2.965,0.578,4.303,1.002v26.293c0,4.047-0.829,6.897-2.483,8.554
		c-1.653,1.651-4.116,2.481-7.393,2.481c-1.828,0-3.53-0.311-5.097-0.924c-1.565-0.619-3.123-1.508-4.675-2.666l1.005-1.691
		c1.372,0.949,2.817,1.664,4.331,2.139c1.516,0.477,2.854,0.711,4.012,0.711c2.499,0,4.377-0.598,5.625-1.794
		c1.247-1.196,1.872-3.325,1.872-6.392v-2.164c-2.359,1.689-4.929,2.535-7.709,2.535c-3.099,0-5.605-1.103-7.524-3.301
		c-1.918-2.199-2.879-5.709-2.879-10.533c0-5.142,1.119-8.86,3.355-11.168c2.23-2.303,5.25-3.457,9.054-3.457
		C568.988,245.527,570.386,245.652,571.918,245.898z M569.961,270.871c1.32-0.421,2.474-0.934,3.462-1.533v-20.539
		c-1.938-0.455-3.734-0.686-5.389-0.686c-3.309,0-5.79,0.869-7.442,2.613c-1.654,1.742-2.481,4.727-2.481,8.951
		c0,4.152,0.739,7.162,2.218,9.028c1.479,1.862,3.435,2.797,5.86,2.797C567.385,271.507,568.644,271.295,569.961,270.871z"/>
	<path fill="#FFFFFF" d="M606.948,245.898v27.455h-2.854V270.5c-1.479,1.021-2.947,1.797-4.408,2.32
		c-1.461,0.527-3.003,0.793-4.619,0.793c-1.867,0-3.362-0.307-4.488-0.924c-1.127-0.614-1.951-1.646-2.479-3.09
		c-0.527-1.441-0.793-3.414-0.793-5.914v-17.793h2.905v17.317c0,2.112,0.176,3.716,0.525,4.808c0.35,1.09,0.915,1.85,1.688,2.269
		c0.771,0.421,1.862,0.634,3.274,0.634c2.288,0,5.085-0.861,8.396-2.587v-22.438h2.854L606.948,245.898L606.948,245.898z"/>
	<path fill="#FFFFFF" d="M631.237,246.531c1.232,0.6,2.146,1.628,2.745,3.091c0.601,1.461,0.898,3.476,0.898,6.046v17.688h-2.537
		v-3.693c-2.604,2.712-5.614,4.064-9.028,4.064c-2.743,0-4.77-0.721-6.071-2.166c-1.307-1.442-1.954-3.275-1.954-5.492
		c0-2.532,0.772-4.486,2.323-5.859c1.547-1.373,3.818-2.076,6.811-2.109h7.653v-0.688c0-2.462-0.185-4.348-0.555-5.648
		c-0.369-1.307-1.003-2.222-1.898-2.746c-0.896-0.527-2.175-0.791-3.827-0.791c-2.32,0-5.141,0.476-8.447,1.424l-0.583-2.006
		c1.652-0.666,3.249-1.168,4.783-1.504c1.527-0.336,3.119-0.502,4.775-0.502C628.366,245.635,630.002,245.936,631.237,246.531z
		 M619.568,269.736c0.984,0.936,2.357,1.397,4.119,1.397c1.336,0,2.728-0.308,4.17-0.926c1.442-0.612,2.851-1.451,4.224-2.506
		v-7.287h-7.812c-2.218,0-3.801,0.513-4.752,1.53c-0.948,1.023-1.425,2.322-1.425,3.908
		C618.088,267.51,618.582,268.805,619.568,269.736z"/>
	<path fill="#FFFFFF" d="M660.3,245.898c1.534,0.246,2.965,0.578,4.304,1.002v26.293c0,4.047-0.827,6.897-2.48,8.554
		c-1.653,1.651-4.118,2.481-7.394,2.481c-1.831,0-3.528-0.311-5.095-0.924c-1.568-0.619-3.126-1.508-4.673-2.666l1.002-1.691
		c1.372,0.949,2.814,1.664,4.331,2.139c1.513,0.477,2.851,0.711,4.011,0.711c2.499,0,4.374-0.598,5.623-1.794
		c1.248-1.196,1.875-3.325,1.875-6.392v-2.164c-2.358,1.689-4.927,2.535-7.711,2.535c-3.097,0-5.604-1.103-7.523-3.301
		c-1.919-2.199-2.877-5.709-2.877-10.533c0-5.142,1.117-8.86,3.354-11.168c2.232-2.303,5.253-3.457,9.054-3.457
		C657.367,245.527,658.771,245.652,660.3,245.898z M658.35,270.871c1.318-0.421,2.473-0.934,3.459-1.533v-20.539
		c-1.938-0.455-3.732-0.686-5.386-0.686c-3.312,0-5.794,0.869-7.446,2.613c-1.656,1.742-2.483,4.727-2.483,8.951
		c0,4.152,0.741,7.162,2.223,9.028c1.479,1.862,3.43,2.797,5.857,2.797C655.767,271.507,657.029,271.295,658.35,270.871z"/>
	<path fill="#FFFFFF" d="M693.166,259.939l-16.63,0.057c0.032,4.225,0.859,7.199,2.481,8.921c1.617,1.726,3.766,2.59,6.438,2.59
		c1.196,0,2.33-0.133,3.406-0.396c1.074-0.262,2.353-0.641,3.827-1.135l0.476,2.271c-1.725,0.667-3.14,1.151-4.248,1.448
		c-1.107,0.302-2.313,0.449-3.614,0.449c-3.521,0-6.351-1.168-8.478-3.51c-2.129-2.341-3.193-5.977-3.193-10.902
		c0-4.857,1.021-8.422,3.062-10.691c2.041-2.27,4.771-3.408,8.185-3.408c3.094,0,5.296,0.873,6.601,2.615
		c1.302,1.742,1.95,4.182,1.95,7.311C693.434,257.004,693.344,258.465,693.166,259.939z M676.592,257.777l13.99-0.209
		c0.104-0.846,0.157-1.762,0.157-2.746c0-2.182-0.475-3.862-1.427-5.041c-0.947-1.18-2.497-1.77-4.646-1.77
		C679.707,248.012,677.013,251.266,676.592,257.777z"/>
</g>
</svg>
