<?xml version="1.0" encoding="utf-8"?>
<!-- Generator: Adobe Illustrator 15.1.0, SVG Export Plug-In . SVG Version: 6.00 Build 0)  -->
<!DOCTYPE svg PUBLIC "-//W3C//DTD SVG 1.1//EN" "http://www.w3.org/Graphics/SVG/1.1/DTD/svg11.dtd">
<svg version="1.1" id="Abre" xmlns="http://www.w3.org/2000/svg" xmlns:xlink="http://www.w3.org/1999/xlink" x="0px" y="0px"
	 width="800px" height="450px" viewBox="0 0 800 450" enable-background="new 0 0 800 450" xml:space="preserve">
<g>
	<path fill="#FFFFFF" d="M187.482,30.061h-12.481v39.424h-5.132V30.061H157.33v-4.316h30.152V30.061z"/>
	<path fill="#FFFFFF" d="M196.725,66.626c-2.12-2.487-3.18-6.512-3.18-12.071c0-5.483,1.07-9.478,3.208-11.986
		s5.462-3.762,9.973-3.762c4.51,0,7.824,1.246,9.944,3.733c2.118,2.488,3.178,6.472,3.178,11.955c0,5.482-1.079,9.497-3.237,12.043
		c-2.158,2.547-5.511,3.82-10.06,3.82C202.119,70.36,198.843,69.115,196.725,66.626z M212.82,63.448
		c1.303-1.846,1.954-4.986,1.954-9.418c0-2.877-0.262-5.132-0.787-6.765c-0.525-1.634-1.351-2.81-2.478-3.529
		c-1.129-0.719-2.664-1.079-4.608-1.079c-2.022,0-3.636,0.39-4.84,1.167c-1.207,0.777-2.081,2.032-2.625,3.761
		c-0.545,1.73-0.816,4.074-0.816,7.027c0,2.917,0.271,5.22,0.816,6.911c0.544,1.691,1.371,2.896,2.478,3.616
		c1.108,0.72,2.595,1.079,4.462,1.079C209.37,66.218,211.517,65.296,212.82,63.448z"/>
	<path fill="#FFFFFF" d="M266.445,39.1v30.384h-5.015v-3.091c-1.596,1.167-3.13,2.022-4.608,2.566
		c-1.479,0.545-3.072,0.818-4.781,0.818c-3.112,0-5.357-0.836-6.737-2.509c-1.381-1.669-2.07-4.529-2.07-8.573V39.1h5.19v18.837
		c0,1.983,0.176,3.5,0.525,4.549c0.35,1.05,0.894,1.77,1.633,2.158c0.739,0.388,1.789,0.583,3.15,0.583
		c1.982,0,4.548-0.759,7.698-2.275V39.1H266.445z"/>
	<path fill="#FFFFFF" d="M299.717,41.315c1.38,1.672,2.071,4.531,2.071,8.573v19.596h-5.016V50.822c0-1.983-0.175-3.489-0.525-4.52
		c-0.35-1.029-0.914-1.739-1.691-2.129c-0.777-0.388-1.846-0.583-3.208-0.583c-1.322,0-2.674,0.175-4.053,0.524
		c-1.38,0.351-2.965,0.973-4.753,1.868v23.502h-5.015V39.1h5.015v3.498c1.788-1.321,3.479-2.283,5.074-2.886
		c1.594-0.603,3.401-0.904,5.423-0.904C296.109,38.808,298.335,39.646,299.717,41.315z"/>
	<path fill="#FFFFFF" d="M335.204,68.61c-1.945,0.545-4.005,0.971-6.183,1.283c-2.178,0.311-4.102,0.466-5.773,0.466
		c-8.397,0-12.597-5.113-12.597-15.339c0-5.597,1.196-9.748,3.586-12.45c2.391-2.703,5.687-4.055,9.885-4.055
		c1.75,0,3.712,0.312,5.891,0.933V22.828h5.132L335.204,68.61z M317.677,63.77c1.497,1.671,3.625,2.507,6.386,2.507
		c1.517,0,3.499-0.253,5.949-0.759V43.183c-1.712-0.428-3.325-0.642-4.841-0.642c-3.071,0-5.463,0.953-7.173,2.856
		c-1.711,1.906-2.566,5.113-2.566,9.623C315.432,59.182,316.18,62.098,317.677,63.77z"/>
	<path fill="#FFFFFF" d="M361.768,65.694c1.186-0.272,2.614-0.68,4.286-1.226l0.758,3.849c-1.905,0.74-3.558,1.283-4.958,1.634
		c-1.399,0.35-2.877,0.524-4.432,0.524c-4.083,0-7.339-1.283-9.768-3.849c-2.43-2.566-3.645-6.609-3.645-12.13
		c0-5.443,1.174-9.418,3.528-11.927c2.352-2.508,5.491-3.762,9.418-3.762c3.654,0,6.27,0.991,7.844,2.975
		c1.574,1.982,2.362,4.724,2.362,8.223c0,2.177-0.138,3.966-0.409,5.366l-17.729-0.058c0.195,4.082,1.07,6.902,2.625,8.456
		c1.554,1.555,3.654,2.333,6.298,2.333C359.308,66.102,360.582,65.967,361.768,65.694z M351.416,44.612
		c-1.322,1.38-2.1,3.723-2.333,7.027l13.472-0.175c0.078-1.011,0.117-1.846,0.117-2.507c0-2.061-0.458-3.645-1.37-4.753
		c-0.914-1.108-2.44-1.662-4.578-1.662C354.507,42.541,352.737,43.232,351.416,44.612z"/>
	<path fill="#FFFFFF" d="M391.888,43.707c-1.982,0-3.927,0.302-5.832,0.904c-1.904,0.603-3.557,1.41-4.957,2.42v22.453h-5.016V39.1
		h5.016v4.024c1.438-1.205,3.149-2.217,5.132-3.033c1.982-0.816,3.984-1.244,6.007-1.283L391.888,43.707z"/>
	<path fill="#FFFFFF" d="M398.245,61.26c1.088,1.283,2.585,2.344,4.491,3.18c1.904,0.835,3.752,1.254,5.541,1.254
		c1.826,0,3.332-0.476,4.52-1.43c1.186-0.951,1.778-2.128,1.778-3.527c0-1.05-0.341-1.905-1.021-2.566s-1.517-1.176-2.507-1.546
		c-0.992-0.369-2.344-0.787-4.055-1.254c-2.1-0.583-3.771-1.137-5.016-1.662c-1.244-0.525-2.312-1.293-3.207-2.305
		c-0.895-1.01-1.341-2.333-1.341-3.965c0-1.788,0.505-3.333,1.516-4.638c1.011-1.301,2.361-2.293,4.053-2.974
		c1.691-0.68,3.509-1.021,5.453-1.021c1.867,0,3.615,0.292,5.248,0.875c1.633,0.583,3.07,1.362,4.316,2.333l-1.518,3.441
		c-1.166-0.738-2.42-1.321-3.761-1.75c-1.343-0.427-2.655-0.642-3.938-0.642c-1.827,0-3.392,0.389-4.694,1.167
		c-1.303,0.778-1.953,1.807-1.953,3.09c0,1.129,0.525,1.964,1.574,2.509c1.051,0.545,2.721,1.088,5.014,1.633
		c2.217,0.545,4.024,1.089,5.426,1.632c1.398,0.546,2.604,1.42,3.615,2.625c1.01,1.206,1.516,2.819,1.516,4.842
		c0,2.878-1,5.171-3.004,6.882c-2.002,1.71-4.577,2.566-7.727,2.566c-2.373,0-4.714-0.488-7.027-1.459
		c-2.314-0.97-4.113-2.333-5.396-4.082L398.245,61.26z"/>
	<path fill="#FFFFFF" d="M443.326,69.31c-1.789,0.388-3.421,0.583-4.899,0.583c-3.888,0-6.609-1.021-8.165-3.062
		c-1.555-2.041-2.332-5.238-2.332-9.593V42.775h-3.674V39.1h3.674v-7.815h4.84V39.1h8.516v3.674h-8.516v14.521
		c0,2.255,0.225,4.015,0.67,5.277c0.449,1.265,1.168,2.158,2.159,2.684c0.991,0.523,2.343,0.787,4.054,0.787
		c0.584,0,1.574-0.077,2.975-0.233L443.326,69.31z"/>
	<path fill="#FFFFFF" d="M466.014,39.858c1.437,0.7,2.508,1.876,3.207,3.529c0.698,1.652,1.049,3.936,1.049,6.853v19.245h-4.432
		v-3.907c-2.645,2.917-5.812,4.374-9.507,4.374c-3.071,0-5.354-0.816-6.853-2.45c-1.498-1.633-2.245-3.693-2.245-6.182
		c0-2.876,0.894-5.142,2.683-6.794c1.787-1.652,4.354-2.479,7.697-2.479h7.758c0-2.526-0.205-4.422-0.612-5.686
		c-0.409-1.265-1.052-2.129-1.926-2.596c-0.872-0.467-2.108-0.7-3.702-0.7c-2.178,0-5.23,0.467-9.156,1.401l-0.875-3.441
		c3.77-1.478,7.484-2.217,11.139-2.217C462.651,38.808,464.574,39.157,466.014,39.858z M465.371,62.603v-6.882h-7.697
		c-2.141,0-3.646,0.516-4.521,1.546c-0.874,1.031-1.312,2.226-1.312,3.586c0,1.517,0.475,2.713,1.43,3.588
		c0.952,0.873,2.244,1.311,3.877,1.311C459.636,65.751,462.375,64.701,465.371,62.603z"/>
	<path fill="#FFFFFF" d="M503.539,41.315c1.381,1.672,2.073,4.531,2.073,8.573v19.596h-5.017V50.822c0-1.983-0.174-3.489-0.523-4.52
		c-0.352-1.029-0.914-1.739-1.691-2.129c-0.779-0.388-1.848-0.583-3.209-0.583c-1.322,0-2.673,0.175-4.053,0.524
		c-1.382,0.351-2.965,0.973-4.752,1.868v23.502h-5.016V39.1h5.016v3.498c1.787-1.321,3.479-2.283,5.074-2.886
		c1.593-0.603,3.4-0.904,5.422-0.904C499.933,38.808,502.16,39.646,503.539,41.315z"/>
	<path fill="#FFFFFF" d="M539.029,68.61c-1.945,0.545-4.005,0.971-6.183,1.283c-2.178,0.311-4.101,0.466-5.773,0.466
		c-8.398,0-12.6-5.113-12.6-15.339c0-5.597,1.197-9.748,3.59-12.45c2.389-2.703,5.686-4.055,9.885-4.055
		c1.748,0,3.713,0.312,5.889,0.933V22.828h5.133L539.029,68.61z M521.503,63.77c1.495,1.671,3.624,2.507,6.386,2.507
		c1.517,0,3.498-0.253,5.949-0.759V43.183c-1.711-0.428-3.325-0.642-4.842-0.642c-3.071,0-5.461,0.953-7.174,2.856
		c-1.71,1.906-2.564,5.113-2.564,9.623C519.258,59.182,520.006,62.098,521.503,63.77z"/>
	<path fill="#FFFFFF" d="M580.377,69.31c-1.789,0.388-3.422,0.583-4.898,0.583c-3.891,0-6.61-1.021-8.166-3.062
		c-1.555-2.041-2.332-5.238-2.332-9.593V42.775h-3.675V39.1h3.675v-7.815h4.84V39.1h8.514v3.674h-8.514v14.521
		c0,2.255,0.223,4.015,0.67,5.277c0.445,1.265,1.166,2.158,2.158,2.684c0.991,0.523,2.342,0.787,4.053,0.787
		c0.584,0,1.576-0.077,2.975-0.233L580.377,69.31z"/>
	<path fill="#FFFFFF" d="M609.1,41.315c1.379,1.672,2.07,4.531,2.07,8.573v19.596h-5.016V50.822c0-1.983-0.174-3.489-0.524-4.52
		c-0.351-1.029-0.914-1.739-1.69-2.129c-0.779-0.388-1.848-0.583-3.209-0.583c-1.322,0-2.664,0.175-4.025,0.524
		c-1.359,0.351-2.916,0.953-4.664,1.808v23.561h-5.016V22.828h5.016V42.54c1.709-1.283,3.361-2.226,4.957-2.829
		c1.594-0.603,3.401-0.904,5.423-0.904C605.491,38.808,607.719,39.646,609.1,41.315z"/>
	<path fill="#FFFFFF" d="M637.791,65.694c1.186-0.272,2.615-0.68,4.287-1.226l0.759,3.849c-1.907,0.74-3.56,1.283-4.958,1.634
		c-1.399,0.35-2.877,0.524-4.432,0.524c-4.084,0-7.339-1.283-9.77-3.849c-2.43-2.566-3.645-6.609-3.645-12.13
		c0-5.443,1.176-9.418,3.528-11.927c2.353-2.508,5.489-3.762,9.419-3.762c3.654,0,6.27,0.991,7.844,2.975
		c1.574,1.982,2.361,4.724,2.361,8.223c0,2.177-0.135,3.966-0.408,5.366l-17.729-0.058c0.193,4.082,1.068,6.902,2.623,8.456
		c1.555,1.555,3.656,2.333,6.299,2.333C635.332,66.102,636.606,65.967,637.791,65.694z M627.442,44.612
		c-1.324,1.38-2.102,3.723-2.335,7.027l13.473-0.175c0.079-1.011,0.117-1.846,0.117-2.507c0-2.061-0.458-3.645-1.371-4.753
		c-0.914-1.108-2.438-1.662-4.577-1.662C630.533,42.541,628.762,43.232,627.442,44.612z"/>
	<path fill="#FFFFFF" d="M149.342,144.75c-1.945,0.545-4.005,0.971-6.183,1.283c-2.177,0.311-4.102,0.467-5.773,0.467
		c-8.397,0-12.597-5.113-12.597-15.339c0-5.597,1.196-9.748,3.586-12.45c2.391-2.703,5.687-4.055,9.886-4.055
		c1.75,0,3.712,0.312,5.89,0.933V98.968h5.132L149.342,144.75z M131.815,139.91c1.498,1.671,3.626,2.507,6.387,2.507
		c1.517,0,3.499-0.253,5.949-0.759v-22.335c-1.712-0.428-3.325-0.642-4.841-0.642c-3.071,0-5.462,0.953-7.173,2.856
		c-1.71,1.906-2.566,5.113-2.566,9.623C129.571,135.322,130.319,138.238,131.815,139.91z"/>
	<path fill="#FFFFFF" d="M160.422,107.688c-0.662-0.642-0.991-1.429-0.991-2.362c0-0.895,0.321-1.652,0.962-2.274
		c0.642-0.623,1.448-0.933,2.42-0.933c0.933,0,1.72,0.312,2.362,0.933c0.641,0.621,0.961,1.399,0.961,2.333
		c0,0.932-0.32,1.71-0.961,2.333c-0.642,0.623-1.429,0.932-2.362,0.932C161.88,108.649,161.083,108.329,160.422,107.688z
		 M160.247,115.24h5.015v30.384h-5.015V115.24z"/>
	<path fill="#FFFFFF" d="M199.262,115.24l-10.731,30.384h-5.482l-10.73-30.384h5.541l7.989,26.127l7.99-26.127H199.262z"/>
	<path fill="#FFFFFF" d="M221.977,141.834c1.186-0.272,2.614-0.68,4.286-1.226l0.758,3.849c-1.905,0.74-3.557,1.283-4.957,1.634
		c-1.399,0.35-2.878,0.523-4.433,0.523c-4.082,0-7.339-1.283-9.768-3.849c-2.43-2.566-3.645-6.608-3.645-12.13
		c0-5.443,1.174-9.419,3.528-11.926c2.353-2.509,5.491-3.763,9.418-3.763c3.654,0,6.27,0.992,7.845,2.975
		c1.574,1.983,2.362,4.724,2.362,8.223c0,2.177-0.137,3.966-0.408,5.366l-17.73-0.059c0.195,4.083,1.069,6.902,2.625,8.457
		c1.555,1.555,3.654,2.333,6.299,2.333C219.518,142.242,220.791,142.106,221.977,141.834z M211.626,120.751
		c-1.322,1.38-2.099,3.723-2.333,7.027l13.472-0.175c0.078-1.011,0.117-1.846,0.117-2.507c0-2.061-0.458-3.645-1.371-4.753
		c-0.914-1.108-2.44-1.662-4.579-1.662C214.717,118.681,212.947,119.372,211.626,120.751z"/>
	<path fill="#FFFFFF" d="M252.099,119.847c-1.982,0-3.927,0.302-5.833,0.904c-1.904,0.604-3.557,1.41-4.956,2.421v22.453h-5.016
		V115.24h5.016v4.024c1.437-1.205,3.149-2.217,5.132-3.033c1.982-0.816,3.985-1.244,6.007-1.283L252.099,119.847z"/>
	<path fill="#FFFFFF" d="M258.456,137.401c1.087,1.283,2.584,2.344,4.491,3.18c1.904,0.835,3.751,1.254,5.54,1.254
		c1.827,0,3.333-0.476,4.52-1.43c1.186-0.952,1.778-2.128,1.778-3.527c0-1.05-0.341-1.906-1.021-2.566
		c-0.68-0.661-1.517-1.175-2.507-1.545c-0.992-0.369-2.342-0.787-4.053-1.254c-2.1-0.583-3.772-1.137-5.016-1.662
		c-1.245-0.525-2.312-1.293-3.208-2.305c-0.895-1.01-1.341-2.333-1.341-3.965c0-1.788,0.505-3.333,1.516-4.638
		c1.011-1.301,2.362-2.293,4.053-2.974c1.692-0.679,3.508-1.021,5.453-1.021c1.866,0,3.616,0.292,5.25,0.875
		c1.632,0.583,3.07,1.361,4.315,2.333l-1.517,3.441c-1.166-0.738-2.419-1.321-3.761-1.749c-1.342-0.426-2.654-0.642-3.937-0.642
		c-1.828,0-3.392,0.389-4.695,1.167c-1.303,0.778-1.954,1.807-1.954,3.09c0,1.129,0.525,1.964,1.574,2.509
		c1.05,0.545,2.721,1.088,5.016,1.633c2.216,0.545,4.024,1.089,5.423,1.633c1.4,0.546,2.604,1.42,3.617,2.625
		c1.01,1.205,1.515,2.819,1.515,4.842c0,2.877-1,5.171-3.003,6.882c-2.003,1.71-4.578,2.566-7.727,2.566
		c-2.373,0-4.714-0.488-7.028-1.459c-2.313-0.97-4.111-2.333-5.395-4.083L258.456,137.401z"/>
	<path fill="#FFFFFF" d="M287.85,107.688c-0.662-0.642-0.992-1.429-0.992-2.362c0-0.895,0.321-1.652,0.963-2.274
		c0.642-0.623,1.448-0.933,2.419-0.933c0.934,0,1.721,0.312,2.362,0.933c0.642,0.621,0.962,1.399,0.962,2.333
		c0,0.932-0.321,1.71-0.962,2.333s-1.429,0.932-2.362,0.932S288.51,108.329,287.85,107.688z M287.673,115.24h5.016v30.384h-5.016
		V115.24z"/>
	<path fill="#FFFFFF" d="M319.399,145.45c-1.789,0.388-3.421,0.583-4.899,0.583c-3.888,0-6.61-1.02-8.165-3.062
		c-1.556-2.041-2.333-5.238-2.333-9.594v-14.462h-3.674v-3.675h3.674v-7.815h4.841v7.815h8.514v3.674h-8.514v14.522
		c0,2.255,0.222,4.015,0.669,5.277c0.447,1.265,1.167,2.158,2.158,2.683c0.992,0.523,2.342,0.787,4.054,0.787
		c0.583,0,1.574-0.078,2.974-0.233L319.399,145.45z"/>
	<path fill="#FFFFFF" d="M347.626,115.24l-14.172,42.049h-4.957l3.907-11.665h-0.466l-10.264-30.384h5.482l7.464,24.959
		l7.874-24.959H347.626z"/>
	<path fill="#FFFFFF" d="M368.911,107.688c-0.662-0.642-0.991-1.429-0.991-2.362c0-0.895,0.321-1.652,0.962-2.274
		c0.642-0.623,1.448-0.933,2.42-0.933c0.933,0,1.72,0.312,2.362,0.933c0.642,0.621,0.963,1.399,0.963,2.333
		c0,0.932-0.321,1.71-0.963,2.333s-1.429,0.932-2.362,0.932C370.37,108.649,369.573,108.329,368.911,107.688z M368.737,115.24h5.016
		v30.384h-5.016V115.24z"/>
	<path fill="#FFFFFF" d="M406.906,117.455c1.379,1.672,2.07,4.531,2.07,8.573v19.596h-5.014v-18.663c0-1.983-0.176-3.489-0.525-4.52
		c-0.35-1.029-0.914-1.739-1.691-2.128c-0.778-0.388-1.848-0.583-3.208-0.583c-1.322,0-2.674,0.175-4.053,0.524
		c-1.38,0.351-2.965,0.973-4.753,1.867v23.503h-5.015V115.24h5.015v3.498c1.788-1.321,3.479-2.283,5.074-2.886
		c1.594-0.603,3.401-0.904,5.423-0.904C403.299,114.948,405.526,115.785,406.906,117.455z"/>
	<path fill="#FFFFFF" d="M450.383,145.45c-1.789,0.388-3.422,0.583-4.899,0.583c-3.888,0-6.61-1.02-8.164-3.062
		c-1.557-2.041-2.333-5.238-2.333-9.594v-14.462h-3.674v-3.675h3.674v-7.815h4.842v7.815h8.515v3.674h-8.515v14.522
		c0,2.255,0.223,4.015,0.67,5.277c0.445,1.265,1.166,2.158,2.158,2.683c0.991,0.523,2.342,0.787,4.053,0.787
		c0.582,0,1.574-0.078,2.975-0.233L450.383,145.45z"/>
	<path fill="#FFFFFF" d="M479.105,117.455c1.382,1.672,2.071,4.531,2.071,8.573v19.596h-5.015v-18.663
		c0-1.983-0.176-3.489-0.524-4.52c-0.35-1.029-0.916-1.739-1.692-2.128c-0.778-0.388-1.847-0.583-3.207-0.583
		c-1.321,0-2.663,0.175-4.024,0.524c-1.361,0.351-2.916,0.953-4.666,1.808v23.562h-5.016V98.968h5.016v19.712
		c1.71-1.283,3.362-2.227,4.957-2.829c1.595-0.603,3.4-0.905,5.424-0.905C475.499,114.948,477.725,115.785,479.105,117.455z"/>
	<path fill="#FFFFFF" d="M507.799,141.834c1.186-0.272,2.615-0.68,4.285-1.226l0.76,3.849c-1.905,0.74-3.558,1.283-4.957,1.634
		c-1.4,0.35-2.877,0.523-4.434,0.523c-4.081,0-7.338-1.283-9.77-3.849c-2.43-2.566-3.645-6.608-3.645-12.13
		c0-5.443,1.177-9.419,3.53-11.926c2.35-2.509,5.491-3.763,9.417-3.763c3.654,0,6.27,0.992,7.846,2.975
		c1.574,1.983,2.361,4.724,2.361,8.223c0,2.177-0.137,3.966-0.409,5.366l-17.728-0.059c0.192,4.083,1.066,6.902,2.625,8.457
		c1.553,1.555,3.652,2.333,6.296,2.333C505.34,142.242,506.613,142.106,507.799,141.834z M497.448,120.751
		c-1.324,1.38-2.101,3.723-2.332,7.027l13.471-0.175c0.078-1.011,0.117-1.846,0.117-2.507c0-2.061-0.456-3.645-1.369-4.753
		c-0.915-1.108-2.441-1.662-4.578-1.662C500.537,118.681,498.768,119.372,497.448,120.751z"/>
	<path fill="#FFFFFF" d="M572.914,115.24l-7.582,30.384h-5.248l-7.232-21.811l-7.289,21.811h-5.191l-7.582-30.384h5.541
		l5.016,24.726l7.29-22.394h4.374l7.346,22.628l5.017-24.96L572.914,115.24L572.914,115.24z"/>
	<path fill="#FFFFFF" d="M581.048,142.766c-2.12-2.487-3.179-6.512-3.179-12.071c0-5.484,1.069-9.478,3.209-11.985
		c2.137-2.509,5.461-3.763,9.972-3.763s7.825,1.245,9.944,3.733c2.117,2.488,3.179,6.472,3.179,11.956
		c0,5.482-1.079,9.497-3.237,12.043s-5.512,3.819-10.06,3.819C586.442,146.5,583.165,145.255,581.048,142.766z M597.145,139.589
		c1.301-1.846,1.951-4.986,1.951-9.419c0-2.876-0.26-5.132-0.785-6.764c-0.525-1.635-1.352-2.81-2.479-3.529
		c-1.129-0.719-2.665-1.079-4.608-1.079c-2.022,0-3.634,0.389-4.841,1.167c-1.207,0.777-2.08,2.032-2.625,3.761
		c-0.543,1.73-0.816,4.074-0.816,7.027c0,2.917,0.273,5.22,0.816,6.911c0.545,1.691,1.371,2.896,2.48,3.615
		c1.105,0.721,2.594,1.08,4.461,1.08C593.694,142.358,595.841,141.436,597.145,139.589z"/>
	<path fill="#FFFFFF" d="M628.84,119.847c-1.982,0-3.928,0.302-5.832,0.904c-1.904,0.604-3.559,1.41-4.956,2.421v22.453h-5.017
		V115.24h5.017v4.024c1.438-1.205,3.149-2.217,5.132-3.033c1.982-0.816,3.984-1.244,6.008-1.283L628.84,119.847z"/>
	<path fill="#FFFFFF" d="M635.838,98.969h5.016v46.656h-5.016V98.969z"/>
	<path fill="#FFFFFF" d="M674.211,144.75c-1.943,0.545-4.005,0.971-6.182,1.283c-2.177,0.311-4.104,0.467-5.773,0.467
		c-8.398,0-12.598-5.113-12.598-15.339c0-5.597,1.197-9.748,3.586-12.45c2.393-2.703,5.686-4.055,9.887-4.055
		c1.75,0,3.711,0.312,5.889,0.933V98.968h5.133L674.211,144.75z M656.687,139.91c1.497,1.671,3.624,2.507,6.388,2.507
		c1.515,0,3.498-0.253,5.947-0.759v-22.335c-1.711-0.428-3.324-0.642-4.84-0.642c-3.073,0-5.464,0.953-7.172,2.856
		c-1.713,1.906-2.568,5.113-2.568,9.623C654.442,135.322,655.19,138.238,656.687,139.91z"/>
	<path fill="#FFFFFF" d="M184.011,183.828c-0.662-0.642-0.992-1.429-0.992-2.362c0-0.895,0.321-1.652,0.962-2.274
		c0.642-0.623,1.448-0.934,2.42-0.934c0.933,0,1.72,0.312,2.362,0.934c0.642,0.621,0.962,1.399,0.962,2.333
		c0,0.932-0.32,1.71-0.962,2.333c-0.642,0.623-1.429,0.932-2.362,0.932C185.469,184.789,184.672,184.469,184.011,183.828z
		 M183.837,191.38h5.015v30.385h-5.015V191.38z"/>
	<path fill="#FFFFFF" d="M215.562,221.59c-1.789,0.388-3.422,0.583-4.899,0.583c-3.888,0-6.61-1.02-8.165-3.062
		c-1.555-2.041-2.333-5.238-2.333-9.594v-14.463h-3.673v-3.674h3.673v-7.815h4.841v7.815h8.514v3.674h-8.514v14.522
		c0,2.255,0.223,4.015,0.67,5.278c0.446,1.265,1.166,2.158,2.158,2.683c0.991,0.524,2.341,0.788,4.053,0.788
		c0.583,0,1.574-0.078,2.974-0.233L215.562,221.59z"/>
	<path fill="#FFFFFF" d="M236.906,183.828c-0.661-0.642-0.991-1.429-0.991-2.362c0-0.895,0.32-1.652,0.961-2.274
		c0.642-0.623,1.448-0.934,2.42-0.934c0.934,0,1.721,0.312,2.362,0.934c0.642,0.621,0.963,1.399,0.963,2.333
		c0,0.932-0.321,1.71-0.963,2.333c-0.642,0.623-1.429,0.932-2.362,0.932C238.365,184.789,237.567,184.469,236.906,183.828z
		 M236.732,191.38h5.016v30.385h-5.016V191.38z"/>
	<path fill="#FFFFFF" d="M252.011,213.541c1.088,1.283,2.584,2.343,4.491,3.179c1.904,0.836,3.752,1.255,5.541,1.255
		c1.827,0,3.333-0.477,4.52-1.43c1.186-0.952,1.779-2.128,1.779-3.527c0-1.049-0.341-1.905-1.021-2.567
		c-0.68-0.66-1.516-1.175-2.508-1.544c-0.991-0.37-2.342-0.788-4.053-1.254c-2.1-0.583-3.771-1.137-5.016-1.663
		c-1.245-0.524-2.313-1.292-3.208-2.304c-0.895-1.011-1.341-2.333-1.341-3.965c0-1.788,0.505-3.334,1.516-4.638
		c1.011-1.301,2.362-2.293,4.053-2.974c1.692-0.679,3.508-1.021,5.454-1.021c1.866,0,3.615,0.292,5.249,0.875
		c1.633,0.583,3.071,1.361,4.315,2.333l-1.516,3.441c-1.167-0.738-2.42-1.321-3.762-1.75c-1.341-0.427-2.654-0.642-3.937-0.642
		c-1.827,0-3.392,0.389-4.694,1.167s-1.954,1.807-1.954,3.09c0,1.129,0.525,1.964,1.575,2.508c1.05,0.545,2.721,1.089,5.016,1.633
		c2.216,0.545,4.024,1.09,5.423,1.633c1.4,0.545,2.605,1.42,3.616,2.625c1.011,1.205,1.516,2.818,1.516,4.841
		c0,2.878-1.001,5.171-3.004,6.882c-2.002,1.711-4.577,2.566-7.727,2.566c-2.373,0-4.715-0.487-7.028-1.458
		c-2.313-0.971-4.112-2.333-5.395-4.083L252.011,213.541z"/>
	<path fill="#FFFFFF" d="M318.115,193.595c1.38,1.672,2.071,4.531,2.071,8.573v19.596h-5.016v-18.663c0-1.983-0.175-3.49-0.525-4.52
		s-0.914-1.739-1.692-2.129c-0.777-0.388-1.846-0.583-3.208-0.583c-1.322,0-2.673,0.175-4.053,0.523
		c-1.38,0.351-2.966,0.973-4.753,1.867v23.503h-5.015V191.38h5.015v3.498c1.788-1.321,3.479-2.283,5.074-2.886
		c1.594-0.603,3.402-0.904,5.423-0.904C314.509,191.089,316.735,191.925,318.115,193.595z"/>
	<path fill="#FFFFFF" d="M346.808,217.974c1.187-0.273,2.615-0.681,4.286-1.226l0.759,3.849c-1.905,0.74-3.558,1.283-4.958,1.634
		c-1.399,0.35-2.877,0.523-4.432,0.523c-4.083,0-7.34-1.283-9.769-3.849c-2.43-2.566-3.645-6.609-3.645-12.13
		c0-5.443,1.175-9.418,3.528-11.927c2.353-2.508,5.491-3.762,9.418-3.762c3.654,0,6.27,0.992,7.844,2.974
		c1.575,1.983,2.362,4.724,2.362,8.224c0,2.177-0.137,3.965-0.408,5.365l-17.729-0.058c0.195,4.083,1.07,6.901,2.625,8.456
		c1.554,1.555,3.654,2.333,6.298,2.333C344.349,218.383,345.622,218.246,346.808,217.974z M336.457,196.891
		c-1.322,1.38-2.099,3.723-2.333,7.027l13.471-0.175c0.078-1.011,0.117-1.846,0.117-2.507c0-2.062-0.457-3.645-1.37-4.753
		c-0.914-1.108-2.441-1.663-4.578-1.663C339.547,194.821,337.779,195.511,336.457,196.891z"/>
	<path fill="#FFFFFF" d="M362.291,194.674c2.255-2.391,5.307-3.586,9.157-3.586c1.477,0,2.993,0.166,4.548,0.495
		c1.554,0.331,2.974,0.828,4.257,1.488l-0.991,3.557c-2.294-0.854-4.569-1.283-6.823-1.283c-2.917,0-5.064,0.797-6.444,2.391
		c-1.381,1.595-2.07,4.394-2.07,8.398c0,4.394,0.757,7.445,2.274,9.156c1.516,1.711,3.596,2.566,6.24,2.566
		c1.633,0,4.101-0.35,7.406-1.05l0.7,3.499c-3.111,1.283-6.046,1.925-8.807,1.925c-3.849,0-6.95-1.293-9.301-3.878
		c-2.353-2.585-3.529-6.619-3.529-12.102C358.91,200.925,360.036,197.066,362.291,194.674z"/>
	<path fill="#FFFFFF" d="M404.369,217.974c1.186-0.273,2.613-0.681,4.287-1.226l0.757,3.849c-1.904,0.74-3.557,1.283-4.956,1.634
		c-1.4,0.35-2.877,0.523-4.432,0.523c-4.083,0-7.339-1.283-9.768-3.849c-2.43-2.566-3.645-6.609-3.645-12.13
		c0-5.443,1.175-9.418,3.528-11.927s5.491-3.762,9.418-3.762c3.655,0,6.27,0.992,7.845,2.974c1.573,1.983,2.361,4.724,2.361,8.224
		c0,2.177-0.137,3.965-0.409,5.365l-17.729-0.058c0.194,4.083,1.069,6.901,2.625,8.456c1.554,1.555,3.653,2.333,6.298,2.333
		C401.91,218.383,403.184,218.246,404.369,217.974z M394.017,196.891c-1.322,1.38-2.099,3.723-2.333,7.027l13.47-0.175
		c0.078-1.011,0.119-1.846,0.119-2.507c0-2.062-0.457-3.645-1.37-4.753c-0.914-1.108-2.441-1.663-4.58-1.663
		C397.109,194.821,395.338,195.511,394.017,196.891z"/>
	<path fill="#FFFFFF" d="M417.986,213.541c1.089,1.283,2.585,2.343,4.491,3.179c1.904,0.836,3.751,1.255,5.541,1.255
		c1.828,0,3.332-0.477,4.52-1.43c1.186-0.952,1.778-2.128,1.778-3.527c0-1.049-0.341-1.905-1.021-2.567
		c-0.682-0.66-1.518-1.175-2.51-1.544c-0.99-0.37-2.341-0.788-4.053-1.254c-2.1-0.583-3.771-1.137-5.016-1.663
		c-1.243-0.524-2.312-1.292-3.206-2.304c-0.895-1.011-1.341-2.333-1.341-3.965c0-1.788,0.504-3.334,1.516-4.638
		c1.01-1.301,2.361-2.293,4.053-2.974c1.691-0.679,3.509-1.021,5.453-1.021c1.867,0,3.616,0.292,5.248,0.875
		c1.632,0.583,3.071,1.361,4.316,2.333l-1.517,3.441c-1.167-0.738-2.421-1.321-3.761-1.75c-1.342-0.427-2.655-0.642-3.938-0.642
		c-1.827,0-3.393,0.389-4.694,1.167c-1.303,0.778-1.953,1.807-1.953,3.09c0,1.129,0.525,1.964,1.574,2.508
		c1.051,0.545,2.721,1.089,5.014,1.633c2.217,0.545,4.025,1.09,5.426,1.633c1.399,0.545,2.604,1.42,3.615,2.625
		c1.01,1.205,1.516,2.818,1.516,4.841c0,2.878-1,5.171-3.004,6.882c-2.002,1.711-4.578,2.566-7.727,2.566
		c-2.373,0-4.714-0.487-7.027-1.458c-2.314-0.971-4.111-2.333-5.395-4.083L417.986,213.541z"/>
	<path fill="#FFFFFF" d="M446.621,213.541c1.089,1.283,2.584,2.343,4.49,3.179c1.904,0.836,3.753,1.255,5.541,1.255
		c1.826,0,3.334-0.477,4.521-1.43c1.185-0.952,1.777-2.128,1.777-3.527c0-1.049-0.341-1.905-1.021-2.567
		c-0.682-0.66-1.518-1.175-2.508-1.544c-0.991-0.37-2.343-0.788-4.053-1.254c-2.102-0.583-3.773-1.137-5.018-1.663
		c-1.243-0.524-2.311-1.292-3.206-2.304c-0.895-1.011-1.341-2.333-1.341-3.965c0-1.788,0.504-3.334,1.516-4.638
		c1.01-1.301,2.361-2.293,4.055-2.974c1.689-0.679,3.507-1.021,5.451-1.021c1.867,0,3.616,0.292,5.248,0.875
		c1.633,0.583,3.071,1.361,4.316,2.333l-1.517,3.441c-1.167-0.738-2.419-1.321-3.761-1.75c-1.342-0.427-2.654-0.642-3.938-0.642
		c-1.828,0-3.393,0.389-4.695,1.167s-1.953,1.807-1.953,3.09c0,1.129,0.525,1.964,1.574,2.508c1.051,0.545,2.721,1.089,5.014,1.633
		c2.217,0.545,4.025,1.09,5.426,1.633c1.4,0.545,2.604,1.42,3.614,2.625c1.011,1.205,1.517,2.818,1.517,4.841
		c0,2.878-1,5.171-3.004,6.882c-2.002,1.711-4.576,2.566-7.727,2.566c-2.371,0-4.714-0.487-7.027-1.458
		c-2.312-0.971-4.111-2.333-5.395-4.083L446.621,213.541z"/>
	<path fill="#FFFFFF" d="M491.935,192.138c1.438,0.7,2.509,1.876,3.208,3.528c0.699,1.653,1.049,3.937,1.049,6.854v19.245h-4.433
		v-3.908c-2.644,2.917-5.812,4.375-9.505,4.375c-3.072,0-5.355-0.817-6.854-2.45c-1.496-1.633-2.244-3.693-2.244-6.182
		c0-2.877,0.895-5.142,2.682-6.794c1.788-1.652,4.354-2.479,7.699-2.479h7.757c0-2.527-0.204-4.422-0.614-5.687
		c-0.408-1.264-1.049-2.128-1.924-2.595s-2.109-0.7-3.703-0.7c-2.178,0-5.23,0.467-9.156,1.4l-0.873-3.441
		c3.77-1.477,7.482-2.216,11.139-2.216C488.573,191.089,490.496,191.437,491.935,192.138z M491.294,214.883v-6.882h-7.698
		c-2.139,0-3.645,0.516-4.52,1.546c-0.875,1.029-1.312,2.226-1.312,3.586c0,1.517,0.477,2.712,1.429,3.587
		c0.952,0.874,2.245,1.312,3.88,1.312C485.557,218.031,488.299,216.982,491.294,214.883z"/>
	<path fill="#FFFFFF" d="M523.077,195.987c-1.981,0-3.929,0.302-5.831,0.904c-1.907,0.604-3.559,1.409-4.959,2.42v22.454h-5.014
		V191.38h5.014v4.024c1.438-1.205,3.151-2.217,5.133-3.033c1.984-0.816,3.984-1.243,6.006-1.283L523.077,195.987z"/>
	<path fill="#FFFFFF" d="M551.655,191.38l-14.172,42.048h-4.957l3.908-11.664h-0.467l-10.265-30.385h5.481l7.465,24.96l7.874-24.96
		H551.655z"/>
	<path fill="#FFFFFF" d="M588.629,221.59c-1.79,0.388-3.423,0.583-4.899,0.583c-3.89,0-6.61-1.02-8.165-3.062
		c-1.556-2.041-2.332-5.238-2.332-9.594v-14.463h-3.676v-3.674h3.676v-7.815h4.838v7.815h8.517v3.674h-8.517v14.522
		c0,2.255,0.225,4.015,0.672,5.278c0.447,1.265,1.166,2.158,2.158,2.683c0.992,0.524,2.342,0.788,4.053,0.788
		c0.585,0,1.576-0.078,2.975-0.233L588.629,221.59z"/>
	<path fill="#FFFFFF" d="M596.296,218.906c-2.118-2.488-3.179-6.511-3.179-12.071c0-5.483,1.07-9.477,3.209-11.985
		s5.461-3.762,9.973-3.762s7.824,1.245,9.943,3.732c2.119,2.489,3.18,6.473,3.18,11.956c0,5.482-1.08,9.497-3.237,12.043
		c-2.157,2.547-5.513,3.82-10.06,3.82C601.692,222.639,598.414,221.395,596.296,218.906z M612.395,215.729
		c1.301-1.846,1.951-4.986,1.951-9.419c0-2.876-0.261-5.132-0.786-6.765c-0.526-1.634-1.351-2.809-2.479-3.528
		c-1.13-0.719-2.665-1.079-4.608-1.079c-2.021,0-3.636,0.388-4.841,1.167c-1.206,0.777-2.081,2.032-2.624,3.762
		c-0.545,1.73-0.816,4.074-0.816,7.027c0,2.917,0.271,5.22,0.816,6.911c0.543,1.691,1.369,2.897,2.479,3.616
		c1.107,0.72,2.596,1.079,4.462,1.079C608.942,218.498,611.091,217.576,612.395,215.729z"/>
	<path fill="#FFFFFF" d="M134.936,272.127c-1.982,0-3.928,0.302-5.832,0.903c-1.905,0.605-3.557,1.41-4.957,2.421v22.453h-5.015
		V267.52h5.015v4.023c1.438-1.204,3.149-2.216,5.132-3.032c1.982-0.816,3.984-1.243,6.007-1.283L134.936,272.127z"/>
	<path fill="#FFFFFF" d="M157.534,294.114c1.187-0.272,2.615-0.68,4.287-1.225l0.758,3.849c-1.905,0.739-3.558,1.282-4.958,1.634
		c-1.399,0.35-2.877,0.524-4.432,0.524c-4.083,0-7.34-1.283-9.769-3.85c-2.43-2.565-3.645-6.608-3.645-12.13
		c0-5.443,1.175-9.418,3.528-11.927c2.352-2.508,5.491-3.762,9.419-3.762c3.653,0,6.27,0.991,7.844,2.974
		c1.575,1.983,2.362,4.725,2.362,8.224c0,2.177-0.137,3.965-0.408,5.366l-17.729-0.059c0.194,4.083,1.069,6.902,2.625,8.456
		c1.555,1.556,3.654,2.333,6.298,2.333C155.075,294.523,156.348,294.386,157.534,294.114z M147.183,273.031
		c-1.322,1.381-2.1,3.724-2.333,7.028l13.472-0.174c0.078-1.012,0.116-1.847,0.116-2.508c0-2.061-0.458-3.645-1.37-4.753
		c-0.914-1.107-2.441-1.662-4.578-1.662C150.273,270.961,148.505,271.652,147.183,273.031z"/>
	<path fill="#FFFFFF" d="M173.018,270.814c2.254-2.391,5.307-3.586,9.156-3.586c1.478,0,2.994,0.166,4.549,0.495
		c1.554,0.331,2.974,0.827,4.257,1.488l-0.991,3.557c-2.295-0.854-4.569-1.283-6.824-1.283c-2.917,0-5.065,0.797-6.444,2.392
		c-1.381,1.594-2.07,4.395-2.07,8.398c0,4.394,0.757,7.445,2.274,9.156c1.516,1.712,3.595,2.566,6.24,2.566
		c1.633,0,4.101-0.35,7.406-1.05l0.7,3.5c-3.111,1.283-6.046,1.925-8.806,1.925c-3.849,0-6.95-1.294-9.303-3.879
		c-2.352-2.584-3.528-6.618-3.528-12.101C169.635,277.065,170.762,273.206,173.018,270.814z"/>
	<path fill="#FFFFFF" d="M200.515,295.046c-2.12-2.487-3.178-6.511-3.178-12.071c0-5.483,1.068-9.477,3.208-11.985
		c2.137-2.508,5.462-3.762,9.972-3.762s7.824,1.245,9.944,3.732c2.119,2.488,3.178,6.473,3.178,11.956
		c0,5.482-1.079,9.497-3.237,12.043c-2.158,2.547-5.511,3.82-10.06,3.82C205.91,298.779,202.634,297.535,200.515,295.046z
		 M216.612,291.869c1.302-1.848,1.954-4.987,1.954-9.419c0-2.876-0.262-5.132-0.788-6.765c-0.524-1.634-1.351-2.809-2.479-3.528
		c-1.128-0.72-2.663-1.08-4.607-1.08c-2.021,0-3.636,0.389-4.84,1.167c-1.206,0.777-2.08,2.033-2.625,3.761
		c-0.545,1.731-0.816,4.074-0.816,7.027c0,2.918,0.271,5.221,0.816,6.912c0.544,1.691,1.371,2.896,2.479,3.616
		c1.107,0.719,2.596,1.078,4.461,1.078C213.161,294.638,215.308,293.716,216.612,291.869z"/>
	<path fill="#FFFFFF" d="M254.839,269.327v27.702c0,4.666-1.001,7.99-3.004,9.972c-2.002,1.982-4.967,2.974-8.893,2.974
		c-4.083,0-7.873-1.419-11.373-4.256l1.517-2.976c1.283,1.051,2.75,1.857,4.403,2.42c1.652,0.564,3.158,0.846,4.52,0.846
		c2.566,0,4.54-0.563,5.92-1.691c1.38-1.128,2.07-3.286,2.07-6.473v-2.041c-2.528,1.943-5.288,2.916-8.281,2.916
		c-3.384,0-6.134-1.215-8.253-3.645c-2.12-2.429-3.178-6.289-3.178-11.576c0-5.599,1.234-9.72,3.703-12.364
		c2.469-2.644,5.881-3.966,10.235-3.966c1.671,0,3.46,0.167,5.365,0.496c1.904,0.331,3.674,0.787,5.307,1.37L254.839,269.327z
		 M246.587,294.143c1.341-0.37,2.479-0.865,3.412-1.488v-20.704c-1.632-0.35-3.324-0.525-5.073-0.525
		c-3.228,0-5.677,0.828-7.349,2.48c-1.673,1.653-2.508,4.657-2.508,9.011c0,4.315,0.739,7.358,2.215,9.126
		c1.477,1.772,3.325,2.654,5.541,2.654C243.992,294.698,245.246,294.512,246.587,294.143z"/>
	<path fill="#FFFFFF" d="M288.111,269.735c1.38,1.672,2.07,4.53,2.07,8.573v19.596h-5.016v-18.663c0-1.983-0.175-3.489-0.525-4.519
		c-0.35-1.03-0.914-1.74-1.691-2.129c-0.778-0.389-1.847-0.583-3.208-0.583c-1.322,0-2.674,0.175-4.054,0.523
		c-1.38,0.352-2.965,0.974-4.753,1.867v23.503h-5.015V267.52h5.015v3.498c1.788-1.321,3.479-2.282,5.074-2.885
		c1.594-0.603,3.402-0.904,5.423-0.904C284.504,267.229,286.731,268.065,288.111,269.735z"/>
	<path fill="#FFFFFF" d="M301.32,259.968c-0.663-0.641-0.992-1.429-0.992-2.362c0-0.895,0.321-1.652,0.962-2.275
		c0.642-0.622,1.449-0.933,2.421-0.933c0.932,0,1.719,0.312,2.361,0.933c0.642,0.622,0.963,1.4,0.963,2.333
		c0,0.932-0.321,1.71-0.963,2.333c-0.642,0.623-1.429,0.932-2.361,0.932C302.778,260.928,301.98,260.609,301.32,259.968z
		 M301.144,267.52h5.016v30.384h-5.016V267.52z"/>
	<path fill="#FFFFFF" d="M336.661,293.589v4.315h-22.336v-4.665l15.804-21.404h-15.222v-4.315h20.412v4.373l-15.862,21.696H336.661z
		"/>
	<path fill="#FFFFFF" d="M360.426,294.114c1.186-0.272,2.614-0.68,4.287-1.225l0.758,3.849c-1.905,0.739-3.558,1.282-4.957,1.634
		c-1.4,0.35-2.878,0.524-4.433,0.524c-4.083,0-7.339-1.283-9.769-3.85c-2.43-2.565-3.645-6.608-3.645-12.13
		c0-5.443,1.175-9.418,3.528-11.927c2.353-2.508,5.491-3.762,9.419-3.762c3.654,0,6.27,0.991,7.845,2.974
		c1.574,1.983,2.361,4.725,2.361,8.224c0,2.177-0.137,3.965-0.408,5.366l-17.73-0.059c0.194,4.083,1.069,6.902,2.625,8.456
		c1.555,1.556,3.654,2.333,6.299,2.333C357.967,294.523,359.24,294.386,360.426,294.114z M350.074,273.031
		c-1.322,1.381-2.099,3.724-2.333,7.028l13.472-0.174c0.079-1.012,0.117-1.847,0.117-2.508c0-2.061-0.458-3.645-1.371-4.753
		c-0.914-1.107-2.44-1.662-4.578-1.662C353.165,270.961,351.396,271.652,350.074,273.031z"/>
	<path fill="#FFFFFF" d="M389.382,259.968c-0.662-0.641-0.991-1.429-0.991-2.362c0-0.895,0.32-1.652,0.962-2.275
		c0.641-0.622,1.448-0.933,2.421-0.933c0.932,0,1.72,0.312,2.361,0.933c0.642,0.622,0.962,1.4,0.962,2.333
		c0,0.932-0.32,1.71-0.962,2.333c-0.641,0.623-1.429,0.932-2.361,0.932C390.84,260.928,390.043,260.609,389.382,259.968z
		 M389.207,267.52h5.015v30.384h-5.015V267.52z"/>
	<path fill="#FFFFFF" d="M420.932,297.73c-1.788,0.389-3.423,0.583-4.899,0.583c-3.888,0-6.61-1.021-8.163-3.062
		c-1.558-2.041-2.334-5.238-2.334-9.594v-14.462h-3.674v-3.674h3.674v-7.815h4.842v7.815h8.515v3.673h-8.515v14.522
		c0,2.255,0.223,4.016,0.67,5.278c0.447,1.265,1.166,2.158,2.158,2.682c0.99,0.524,2.342,0.788,4.055,0.788
		c0.582,0,1.572-0.077,2.974-0.234L420.932,297.73z"/>
	<path fill="#FFFFFF" d="M426.938,289.681c1.09,1.283,2.586,2.343,4.492,3.179c1.904,0.836,3.752,1.254,5.54,1.254
		c1.828,0,3.333-0.477,4.521-1.43c1.186-0.952,1.777-2.128,1.777-3.527c0-1.049-0.341-1.906-1.02-2.566
		c-0.682-0.66-1.518-1.175-2.508-1.545c-0.992-0.369-2.344-0.787-4.054-1.253c-2.101-0.584-3.772-1.138-5.017-1.663
		s-2.312-1.293-3.207-2.305c-0.895-1.011-1.341-2.333-1.341-3.965c0-1.788,0.505-3.333,1.515-4.638
		c1.012-1.301,2.363-2.293,4.055-2.974c1.692-0.679,3.508-1.021,5.452-1.021c1.866,0,3.618,0.291,5.25,0.875
		c1.632,0.583,3.069,1.361,4.314,2.333l-1.517,3.441c-1.166-0.737-2.42-1.321-3.76-1.75c-1.343-0.427-2.656-0.642-3.938-0.642
		c-1.828,0-3.393,0.389-4.695,1.167s-1.953,1.807-1.953,3.089c0,1.129,0.525,1.964,1.574,2.508c1.05,0.545,2.72,1.089,5.016,1.634
		c2.215,0.545,4.023,1.089,5.423,1.632c1.399,0.546,2.604,1.419,3.616,2.625c1.01,1.205,1.517,2.818,1.517,4.841
		c0,2.877-1.001,5.171-3.005,6.882s-4.576,2.565-7.727,2.565c-2.372,0-4.714-0.488-7.027-1.458
		c-2.314-0.972-4.111-2.333-5.395-4.083L426.938,289.681z"/>
	<path fill="#FFFFFF" d="M470.155,289.681c1.088,1.283,2.585,2.343,4.49,3.179c1.904,0.836,3.752,1.254,5.541,1.254
		c1.826,0,3.334-0.477,4.52-1.43c1.186-0.952,1.779-2.128,1.779-3.527c0-1.049-0.343-1.906-1.021-2.566
		c-0.683-0.66-1.517-1.175-2.508-1.545c-0.992-0.369-2.342-0.787-4.053-1.253c-2.102-0.584-3.773-1.138-5.018-1.663
		s-2.312-1.293-3.207-2.305c-0.895-1.011-1.34-2.333-1.34-3.965c0-1.788,0.504-3.333,1.516-4.638
		c1.01-1.301,2.362-2.293,4.053-2.974c1.691-0.679,3.51-1.021,5.453-1.021c1.867,0,3.615,0.291,5.249,0.875
		c1.632,0.583,3.071,1.361,4.315,2.333l-1.518,3.441c-1.165-0.737-2.418-1.321-3.762-1.75c-1.34-0.427-2.652-0.642-3.936-0.642
		c-1.828,0-3.393,0.389-4.695,1.167s-1.953,1.807-1.953,3.089c0,1.129,0.524,1.964,1.574,2.508c1.051,0.545,2.721,1.089,5.015,1.634
		c2.217,0.545,4.024,1.089,5.425,1.632c1.4,0.546,2.604,1.419,3.615,2.625c1.01,1.205,1.517,2.818,1.517,4.841
		c0,2.877-1.001,5.171-3.004,6.882c-2.004,1.71-4.577,2.565-7.727,2.565c-2.373,0-4.714-0.488-7.028-1.458
		c-2.314-0.972-4.111-2.333-5.395-4.083L470.155,289.681z"/>
	<path fill="#FFFFFF" d="M521.009,267.52l-14.173,42.048h-4.955l3.907-11.664h-0.468l-10.264-30.384h5.481l7.465,24.96l7.874-24.96
		H521.009z"/>
	<path fill="#FFFFFF" d="M569.034,269.735c1.38,1.672,2.071,4.53,2.071,8.573v19.596h-5.015v-18.663
		c0-1.983-0.177-3.489-0.524-4.519c-0.35-1.03-0.916-1.74-1.691-2.129c-0.779-0.389-1.849-0.583-3.209-0.583
		s-2.74,0.185-4.141,0.554c-1.398,0.37-3.013,1.02-4.841,1.954c0.155,0.972,0.233,2.236,0.233,3.79v19.596h-5.016v-18.663
		c0-1.983-0.174-3.489-0.523-4.519c-0.352-1.03-0.916-1.74-1.691-2.129c-0.777-0.389-1.847-0.583-3.209-0.583
		c-1.322,0-2.674,0.175-4.053,0.523c-1.381,0.352-2.965,0.974-4.752,1.867v23.503h-5.016V267.52h5.016v3.498
		c1.787-1.321,3.479-2.282,5.074-2.885c1.594-0.603,3.4-0.904,5.422-0.904s3.676,0.349,4.959,1.049s2.235,1.847,2.855,3.441
		c2.021-1.594,3.879-2.741,5.569-3.441c1.692-0.7,3.626-1.049,5.804-1.049C565.429,267.229,567.655,268.065,569.034,269.735z"/>
	<path fill="#FFFFFF" d="M603.5,270.873c2.12,2.43,3.18,6.29,3.18,11.577c0,5.599-1.234,9.72-3.702,12.364
		c-2.471,2.646-5.884,3.965-10.237,3.965c-1.67,0-3.459-0.165-5.364-0.496c-1.906-0.331-3.675-0.787-5.308-1.369v-0.058
		l0.059-45.607h5.014v18.78c2.449-1.867,5.15-2.8,8.107-2.8C598.631,267.229,601.381,268.444,603.5,270.873z M599.39,292.043
		c1.67-1.652,2.507-4.656,2.507-9.011c0-4.316-0.737-7.358-2.215-9.127c-1.479-1.769-3.325-2.654-5.541-2.654
		c-1.09,0-2.295,0.186-3.617,0.554c-1.322,0.37-2.447,0.828-3.383,1.371v20.878c1.672,0.312,3.305,0.466,4.9,0.466
		C595.266,294.523,597.719,293.696,599.39,292.043z"/>
	<path fill="#FFFFFF" d="M616.506,295.046c-2.12-2.487-3.178-6.511-3.178-12.071c0-5.483,1.068-9.477,3.207-11.985
		c2.138-2.508,5.462-3.762,9.973-3.762c4.51,0,7.824,1.245,9.943,3.732c2.119,2.488,3.178,6.473,3.178,11.956
		c0,5.482-1.078,9.497-3.235,12.043c-2.157,2.547-5.513,3.82-10.06,3.82C621.901,298.779,618.623,297.535,616.506,295.046z
		 M632.602,291.869c1.303-1.848,1.953-4.987,1.953-9.419c0-2.876-0.261-5.132-0.785-6.765c-0.525-1.634-1.352-2.809-2.48-3.528
		c-1.129-0.72-2.664-1.08-4.607-1.08c-2.021,0-3.635,0.389-4.842,1.167c-1.205,0.777-2.08,2.033-2.623,3.761
		c-0.545,1.731-0.818,4.074-0.818,7.027c0,2.918,0.273,5.221,0.818,6.912c0.543,1.691,1.371,2.896,2.479,3.616
		c1.107,0.719,2.594,1.078,4.461,1.078C629.151,294.638,631.299,293.716,632.602,291.869z"/>
	<path fill="#FFFFFF" d="M648.435,251.248h5.016v46.656h-5.016V251.248z"/>
	<path fill="#FFFFFF" d="M663.773,289.681c1.089,1.283,2.587,2.343,4.491,3.179s3.751,1.254,5.541,1.254
		c1.826,0,3.333-0.477,4.52-1.43c1.186-0.952,1.778-2.128,1.778-3.527c0-1.049-0.341-1.906-1.021-2.566
		c-0.681-0.66-1.515-1.175-2.507-1.545c-0.992-0.369-2.344-0.787-4.055-1.253c-2.098-0.584-3.771-1.138-5.015-1.663
		c-1.245-0.525-2.313-1.293-3.208-2.305c-0.894-1.011-1.342-2.333-1.342-3.965c0-1.788,0.506-3.333,1.518-4.638
		c1.011-1.301,2.363-2.293,4.054-2.974c1.69-0.679,3.508-1.021,5.452-1.021c1.865,0,3.615,0.291,5.25,0.875
		c1.633,0.583,3.071,1.361,4.314,2.333l-1.516,3.441c-1.166-0.737-2.42-1.321-3.763-1.75c-1.341-0.427-2.653-0.642-3.937-0.642
		c-1.828,0-3.393,0.389-4.694,1.167s-1.954,1.807-1.954,3.089c0,1.129,0.525,1.964,1.575,2.508c1.048,0.545,2.722,1.089,5.015,1.634
		c2.217,0.545,4.025,1.089,5.424,1.632c1.399,0.546,2.605,1.419,3.616,2.625c1.011,1.205,1.515,2.818,1.515,4.841
		c0,2.877-1,5.171-3.002,6.882c-2.004,1.71-4.578,2.565-7.727,2.565c-2.373,0-4.715-0.488-7.028-1.458
		c-2.314-0.972-4.112-2.333-5.396-4.083L663.773,289.681z"/>
	<path fill="#ED1C24" d="M334.444,359.991c3.564,1.431,6.169,3.712,7.817,6.843c1.646,3.133,2.47,7.265,2.47,12.395
		c0,5.346-0.824,9.652-2.47,12.918c-1.648,3.27-4.252,5.658-7.817,7.17c-3.563,1.512-8.262,2.268-14.094,2.268h-1.539v17.011
		h-18.873v-60.75h20.412C326.181,357.845,330.88,358.561,334.444,359.991z M325.372,385.183c1.025-1.216,1.539-3.254,1.539-6.116
		c0-2.646-0.5-4.549-1.498-5.711c-1-1.162-2.687-1.74-5.062-1.74h-1.539v15.389h1.539
		C322.67,387.004,324.345,386.397,325.372,385.183z"/>
	<path fill="#ED1C24" d="M394.384,403.205v15.39h-41.553v-60.75h18.873v45.36H394.384z"/>
	<path fill="#ED1C24" d="M432.696,409.198H419.33l-1.781,9.397h-19.116l15.877-60.75h23.326l16.04,60.75H434.56L432.696,409.198z
		 M430.024,395.429l-4.051-20.979l-3.967,20.979H430.024z"/>
	<path fill="#ED1C24" d="M504.461,357.845l-17.334,35.64v25.11h-18.873v-25.11l-17.415-35.64h19.926l7.128,19.602l7.047-19.602
		H504.461z"/>
</g>
</svg>
