<?xml version="1.0" encoding="utf-8"?>
<!-- Generator: Adobe Illustrator 15.1.0, SVG Export Plug-In . SVG Version: 6.00 Build 0)  -->
<!DOCTYPE svg PUBLIC "-//W3C//DTD SVG 1.1//EN" "http://www.w3.org/Graphics/SVG/1.1/DTD/svg11.dtd">
<svg version="1.1" id="Abre" xmlns="http://www.w3.org/2000/svg" xmlns:xlink="http://www.w3.org/1999/xlink" x="0px" y="0px"
	 width="800px" height="150px" viewBox="0 150 800 150" enable-background="new 0 150 800 150" xml:space="preserve">
<g>
	<path fill="#ED1C24" d="M87.468,235.433v14.06H49.506v-55.5h17.242v41.44H87.468z"/>
	<path fill="#ED1C24" d="M131.794,235.433v14.06H94.128v-55.5h36.926v14.062H111v7.694h17.834v12.58H111v7.104H131.794z"/>
	<path fill="#ED1C24" d="M167.536,240.908h-12.21l-1.628,8.584h-17.466l14.506-55.5h21.312l14.652,55.5h-17.464L167.536,240.908z
		 M165.093,228.328l-3.7-19.166l-3.626,19.166H165.093z"/>
	<path fill="#ED1C24" d="M211.046,229.512h-1.554v19.979H192.62v-55.5h20.202c5.572,0,9.964,0.592,13.172,1.776
		c3.207,1.184,5.522,3.068,6.956,5.66c1.43,2.591,2.146,6.131,2.146,10.617c0,4.292-0.666,7.687-1.998,10.178
		c-1.332,2.489-3.503,4.305-6.512,5.438l10.434,21.83h-17.906L211.046,229.512z M209.492,206.573v11.84h3.33
		c2.22,0,3.772-0.432,4.66-1.295c0.89-0.862,1.332-2.405,1.332-4.625c0-2.17-0.442-3.7-1.332-4.588
		c-0.888-0.888-2.44-1.332-4.66-1.332H209.492L209.492,206.573z"/>
	<path fill="#ED1C24" d="M289.115,193.992v55.5h-16.206l-13.024-26.418v26.418h-16.206v-55.5h16.206l13.024,27.38v-27.38H289.115z"
		/>
</g>
<g>
	<path fill="#FFFFFF" d="M361.786,213.687l0.648,2.447c-1.561,0.792-2.904,1.351-4.032,1.674c-1.128,0.324-2.352,0.486-3.672,0.486
		c-3.528,0-6.156-1.121-7.884-3.366c-1.728-2.243-2.592-5.741-2.592-10.494c0-4.896,0.894-8.483,2.682-10.764
		c1.788-2.279,4.458-3.42,8.01-3.42c1.271,0,2.436,0.15,3.492,0.45c1.056,0.3,2.16,0.798,3.312,1.494l-0.756,2.34
		c-0.96-0.504-1.908-0.9-2.844-1.188s-1.992-0.432-3.168-0.432c-2.544,0-4.44,0.918-5.688,2.754
		c-1.248,1.836-1.872,4.782-1.872,8.838c0,2.616,0.264,4.723,0.792,6.318c0.528,1.597,1.344,2.754,2.448,3.474
		c1.104,0.72,2.532,1.08,4.284,1.08C357.201,215.378,359.482,214.815,361.786,213.687z"/>
	<path fill="#FFFFFF" d="M367.581,188.99h3.096v28.8h-3.096V188.99z"/>
	<path fill="#FFFFFF" d="M377.517,194.372c-0.408-0.396-0.612-0.882-0.612-1.458c0-0.552,0.198-1.02,0.594-1.404
		c0.396-0.384,0.894-0.576,1.494-0.576c0.576,0,1.062,0.192,1.458,0.576c0.396,0.385,0.594,0.864,0.594,1.44
		s-0.198,1.057-0.594,1.439c-0.396,0.385-0.882,0.576-1.458,0.576C378.417,194.966,377.925,194.768,377.517,194.372z
		 M377.409,199.034h3.096v18.756h-3.096V199.034z"/>
	<path fill="#FFFFFF" d="M387.992,201.069c1.392-1.477,3.276-2.214,5.652-2.214c0.912,0,1.848,0.102,2.808,0.306
		s1.836,0.51,2.628,0.918l-0.611,2.196c-1.417-0.528-2.821-0.792-4.213-0.792c-1.8,0-3.126,0.492-3.978,1.476
		c-0.852,0.984-1.278,2.713-1.278,5.184c0,2.713,0.468,4.597,1.404,5.652c0.936,1.057,2.22,1.584,3.852,1.584
		c1.008,0,2.532-0.216,4.572-0.647l0.432,2.159c-1.92,0.792-3.732,1.188-5.436,1.188c-2.376,0-4.291-0.798-5.742-2.395
		c-1.452-1.596-2.178-4.086-2.178-7.47C385.904,204.926,386.6,202.544,387.992,201.069z"/>
	<path fill="#FFFFFF" d="M415.856,217.79l-8.424-9.036v9.036h-3.096v-28.8h3.096v18.216l7.561-8.172h3.635l-8.135,8.82l9.359,9.936
		H415.856z"/>
	<path fill="#FFFFFF" d="M433.226,216.027c-1.309-1.536-1.962-4.02-1.962-7.452c0-3.384,0.66-5.851,1.98-7.398
		c1.318-1.548,3.371-2.321,6.155-2.321s4.829,0.768,6.138,2.304s1.963,3.996,1.963,7.38s-0.666,5.862-1.998,7.434
		c-1.332,1.572-3.402,2.358-6.211,2.358C436.556,218.33,434.533,217.563,433.226,216.027z M443.162,214.065
		c0.803-1.14,1.205-3.078,1.205-5.814c0-1.775-0.162-3.168-0.486-4.176c-0.323-1.008-0.834-1.733-1.529-2.178
		c-0.696-0.444-1.645-0.666-2.844-0.666c-1.248,0-2.244,0.24-2.988,0.72c-0.744,0.48-1.284,1.254-1.62,2.322
		c-0.337,1.067-0.504,2.514-0.504,4.338c0,1.8,0.167,3.222,0.504,4.266c0.336,1.044,0.847,1.788,1.53,2.232s1.602,0.666,2.754,0.666
		C441.031,215.775,442.358,215.204,443.162,214.065z"/>
	<path fill="#FFFFFF" d="M466.669,200.403c0.852,1.032,1.278,2.796,1.278,5.292v12.096h-3.097v-11.52
		c0-1.225-0.108-2.154-0.323-2.79c-0.217-0.636-0.564-1.074-1.045-1.314c-0.48-0.239-1.14-0.36-1.979-0.36
		c-0.816,0-1.65,0.108-2.502,0.324c-0.853,0.216-1.831,0.601-2.935,1.152v14.508h-3.096v-18.756h3.096v2.16
		c1.104-0.816,2.148-1.41,3.133-1.782c0.983-0.372,2.1-0.558,3.348-0.558C464.443,198.855,465.817,199.37,466.669,200.403z"/>
	<path fill="#FFFFFF" d="M493.506,217.682c-1.104,0.24-2.111,0.36-3.023,0.36c-2.4,0-4.08-0.63-5.04-1.89
		c-0.96-1.261-1.44-3.234-1.44-5.922v-8.929h-2.268v-2.268h2.268v-4.824h2.988v4.824h5.256v2.268h-5.256v8.964
		c0,1.393,0.138,2.479,0.414,3.259c0.275,0.78,0.72,1.332,1.332,1.655c0.611,0.324,1.445,0.486,2.502,0.486
		c0.359,0,0.973-0.048,1.836-0.144L493.506,217.682z"/>
	<path fill="#FFFFFF" d="M511.237,200.403c0.852,1.032,1.277,2.796,1.277,5.292v12.096h-3.096v-11.52
		c0-1.225-0.107-2.154-0.324-2.79c-0.216-0.636-0.564-1.074-1.043-1.314c-0.48-0.239-1.141-0.36-1.98-0.36
		c-0.816,0-1.645,0.108-2.484,0.324s-1.8,0.589-2.88,1.116v14.544h-3.097v-28.8h3.097v12.168c1.056-0.792,2.075-1.374,3.06-1.746
		s2.1-0.558,3.349-0.558C509.01,198.855,510.384,199.37,511.237,200.403z"/>
	<path fill="#FFFFFF" d="M528.948,215.45c0.731-0.168,1.614-0.42,2.646-0.756l0.469,2.376c-1.177,0.456-2.196,0.792-3.061,1.008
		c-0.863,0.216-1.776,0.324-2.736,0.324c-2.52,0-4.529-0.792-6.029-2.376s-2.25-4.08-2.25-7.488c0-3.359,0.726-5.814,2.178-7.362
		c1.451-1.548,3.39-2.321,5.814-2.321c2.256,0,3.869,0.611,4.842,1.836c0.972,1.224,1.458,2.916,1.458,5.075
		c0,1.345-0.085,2.448-0.253,3.312l-10.943-0.036c0.119,2.521,0.66,4.261,1.62,5.22c0.96,0.961,2.255,1.44,3.888,1.44
		C527.43,215.702,528.216,215.618,528.948,215.45z M522.559,202.437c-0.816,0.852-1.297,2.298-1.44,4.338l8.315-0.108
		c0.049-0.624,0.072-1.14,0.072-1.548c0-1.271-0.282-2.25-0.846-2.935c-0.564-0.684-1.506-1.025-2.826-1.025
		C524.467,201.158,523.373,201.584,522.559,202.437z"/>
	<path fill="#FFFFFF" d="M560.485,200.403c0.852,1.032,1.277,2.796,1.277,5.292v12.096h-3.096v-11.52
		c0-1.225-0.108-2.154-0.324-2.79c-0.217-0.636-0.564-1.074-1.044-1.314c-0.48-0.239-1.14-0.36-1.979-0.36
		c-0.816,0-1.65,0.108-2.502,0.324c-0.854,0.216-1.831,0.601-2.935,1.152v14.508h-3.097v-18.756h3.097v2.16
		c1.104-0.816,2.147-1.41,3.132-1.782s2.1-0.558,3.348-0.558C558.258,198.855,559.631,199.37,560.485,200.403z"/>
	<path fill="#FFFFFF" d="M578.465,199.502c0.888,0.432,1.549,1.158,1.98,2.178c0.432,1.021,0.648,2.431,0.648,4.23v11.88h-2.736
		v-2.412c-1.633,1.8-3.588,2.7-5.868,2.7c-1.896,0-3.307-0.504-4.229-1.512c-0.925-1.009-1.387-2.28-1.387-3.816
		c0-1.775,0.552-3.174,1.656-4.194c1.104-1.02,2.688-1.529,4.752-1.529h4.788c0-1.561-0.126-2.73-0.378-3.511
		c-0.252-0.779-0.648-1.313-1.188-1.602s-1.302-0.432-2.286-0.432c-1.344,0-3.229,0.288-5.652,0.863l-0.539-2.124
		c2.327-0.911,4.619-1.367,6.876-1.367C576.389,198.855,577.577,199.071,578.465,199.502z M578.07,213.542v-4.248h-4.752
		c-1.32,0-2.25,0.318-2.79,0.954s-0.811,1.374-0.811,2.214c0,0.937,0.294,1.674,0.883,2.214c0.588,0.54,1.386,0.811,2.394,0.811
		C574.53,215.487,576.221,214.838,578.07,213.542z"/>
	<path fill="#FFFFFF" d="M613.475,200.403c0.852,1.032,1.278,2.796,1.278,5.292v12.096h-3.097v-11.52
		c0-1.225-0.107-2.154-0.324-2.79c-0.215-0.636-0.563-1.074-1.043-1.314c-0.48-0.239-1.141-0.36-1.98-0.36s-1.691,0.114-2.556,0.343
		c-0.864,0.228-1.86,0.63-2.988,1.206c0.096,0.6,0.144,1.38,0.144,2.34v12.096h-3.096v-11.52c0-1.225-0.107-2.154-0.324-2.79
		c-0.216-0.636-0.564-1.074-1.043-1.314c-0.48-0.239-1.141-0.36-1.98-0.36c-0.816,0-1.65,0.108-2.502,0.324
		c-0.853,0.216-1.83,0.601-2.934,1.152v14.508h-3.097v-18.756h3.097v2.16c1.104-0.816,2.146-1.41,3.131-1.782
		s2.101-0.558,3.349-0.558c1.247,0,2.269,0.216,3.06,0.647c0.793,0.432,1.381,1.141,1.764,2.124
		c1.248-0.983,2.395-1.692,3.438-2.124s2.237-0.647,3.582-0.647C611.248,198.855,612.623,199.37,613.475,200.403z"/>
	<path fill="#FFFFFF" d="M631.151,215.45c0.731-0.168,1.613-0.42,2.646-0.756l0.467,2.376c-1.176,0.456-2.195,0.792-3.06,1.008
		s-1.776,0.324-2.735,0.324c-2.521,0-4.531-0.792-6.031-2.376s-2.25-4.08-2.25-7.488c0-3.359,0.727-5.814,2.179-7.362
		s3.39-2.321,5.813-2.321c2.256,0,3.871,0.611,4.843,1.836c0.972,1.224,1.458,2.916,1.458,5.075c0,1.345-0.084,2.448-0.252,3.312
		l-10.944-0.036c0.12,2.521,0.659,4.261,1.62,5.22c0.959,0.961,2.256,1.44,3.888,1.44
		C629.632,215.702,630.418,215.618,631.151,215.45z M624.76,202.437c-0.816,0.852-1.295,2.298-1.439,4.338l8.316-0.108
		c0.047-0.624,0.071-1.14,0.071-1.548c0-1.271-0.282-2.25-0.846-2.935c-0.564-0.684-1.507-1.025-2.826-1.025
		C626.668,201.158,625.576,201.584,624.76,202.437z"/>
	<path fill="#FFFFFF" d="M639.556,212.714c0.672,0.792,1.597,1.446,2.772,1.962c1.176,0.517,2.315,0.774,3.42,0.774
		c1.127,0,2.058-0.294,2.79-0.882c0.731-0.588,1.098-1.314,1.098-2.179c0-0.647-0.21-1.175-0.63-1.584
		c-0.42-0.407-0.936-0.726-1.548-0.954c-0.612-0.228-1.446-0.485-2.502-0.773c-1.296-0.36-2.329-0.702-3.097-1.026
		c-0.768-0.323-1.428-0.797-1.979-1.422c-0.552-0.624-0.828-1.439-0.828-2.448c0-1.104,0.312-2.058,0.937-2.861
		c0.623-0.804,1.457-1.416,2.502-1.836c1.043-0.42,2.165-0.63,3.365-0.63c1.152,0,2.232,0.18,3.24,0.539
		c1.008,0.36,1.896,0.841,2.664,1.44l-0.936,2.124c-0.721-0.456-1.494-0.815-2.322-1.08c-0.828-0.264-1.639-0.396-2.43-0.396
		c-1.129,0-2.095,0.24-2.898,0.72c-0.805,0.48-1.206,1.116-1.206,1.908c0,0.696,0.324,1.212,0.972,1.548
		c0.648,0.336,1.68,0.672,3.096,1.008c1.369,0.336,2.484,0.672,3.349,1.008c0.864,0.337,1.608,0.877,2.231,1.62
		c0.625,0.744,0.937,1.74,0.937,2.988c0,1.776-0.618,3.192-1.854,4.248s-2.825,1.584-4.77,1.584c-1.464,0-2.91-0.301-4.338-0.9
		s-2.538-1.439-3.33-2.52L639.556,212.714z"/>
	<path fill="#FFFFFF" d="M354.658,253.682c-1.104,0.24-2.112,0.36-3.024,0.36c-2.4,0-4.081-0.63-5.04-1.89
		c-0.96-1.261-1.44-3.234-1.44-5.922v-8.929h-2.268v-2.268h2.268v-4.824h2.988v4.824h5.256v2.268h-5.256v8.964
		c0,1.393,0.138,2.479,0.414,3.259c0.275,0.78,0.72,1.332,1.332,1.655c0.612,0.324,1.445,0.486,2.502,0.486
		c0.36,0,0.972-0.048,1.836-0.144L354.658,253.682z"/>
	<path fill="#FFFFFF" d="M359.392,252.027c-1.309-1.536-1.962-4.02-1.962-7.452c0-3.384,0.66-5.851,1.98-7.398
		c1.319-1.548,3.372-2.321,6.156-2.321c2.784,0,4.83,0.768,6.138,2.304c1.308,1.536,1.962,3.996,1.962,7.38
		s-0.666,5.862-1.998,7.434c-1.332,1.572-3.402,2.358-6.21,2.358C362.722,254.33,360.699,253.563,359.392,252.027z M369.328,250.065
		c0.804-1.14,1.206-3.078,1.206-5.814c0-1.775-0.162-3.168-0.486-4.176c-0.324-1.008-0.834-1.733-1.53-2.178
		c-0.696-0.444-1.645-0.666-2.844-0.666c-1.248,0-2.244,0.24-2.988,0.72c-0.744,0.48-1.284,1.254-1.62,2.322
		c-0.336,1.067-0.504,2.514-0.504,4.338c0,1.8,0.167,3.222,0.504,4.266c0.336,1.044,0.846,1.788,1.53,2.232
		c0.684,0.444,1.602,0.666,2.754,0.666C367.198,251.775,368.523,251.204,369.328,250.065z"/>
	<path fill="#FFFFFF" d="M387.705,248.714c0.672,0.792,1.596,1.446,2.772,1.962c1.176,0.517,2.316,0.774,3.42,0.774
		c1.127,0,2.058-0.294,2.791-0.882c0.73-0.588,1.098-1.314,1.098-2.179c0-0.647-0.211-1.175-0.631-1.584
		c-0.42-0.407-0.936-0.726-1.547-0.954c-0.613-0.228-1.447-0.485-2.502-0.773c-1.296-0.36-2.329-0.702-3.096-1.026
		c-0.769-0.323-1.428-0.797-1.98-1.422c-0.552-0.624-0.828-1.439-0.828-2.448c0-1.104,0.312-2.058,0.936-2.861
		c0.624-0.804,1.458-1.416,2.502-1.836s2.166-0.63,3.366-0.63c1.151,0,2.231,0.18,3.239,0.539c1.009,0.36,1.896,0.841,2.664,1.44
		l-0.936,2.124c-0.72-0.456-1.494-0.815-2.322-1.08c-0.828-0.264-1.638-0.396-2.43-0.396c-1.128,0-2.094,0.24-2.898,0.72
		c-0.804,0.48-1.206,1.116-1.206,1.908c0,0.696,0.324,1.212,0.972,1.548s1.68,0.672,3.096,1.008
		c1.368,0.336,2.484,0.672,3.349,1.008c0.863,0.337,1.607,0.877,2.231,1.62c0.624,0.744,0.937,1.74,0.937,2.988
		c0,1.776-0.619,3.192-1.854,4.248c-1.236,1.056-2.825,1.584-4.77,1.584c-1.464,0-2.91-0.301-4.338-0.9
		c-1.428-0.6-2.538-1.439-3.33-2.52L387.705,248.714z"/>
	<path fill="#FFFFFF" d="M415.406,251.45c0.732-0.168,1.614-0.42,2.646-0.756l0.468,2.376c-1.177,0.456-2.196,0.792-3.06,1.008
		c-0.864,0.216-1.777,0.324-2.736,0.324c-2.52,0-4.53-0.792-6.03-2.376s-2.25-4.08-2.25-7.488c0-3.359,0.726-5.814,2.179-7.362
		c1.451-1.548,3.389-2.321,5.813-2.321c2.256,0,3.87,0.611,4.843,1.836c0.971,1.224,1.457,2.916,1.457,5.075
		c0,1.345-0.084,2.448-0.252,3.312l-10.943-0.036c0.119,2.521,0.659,4.261,1.619,5.22c0.96,0.961,2.256,1.44,3.889,1.44
		C413.889,251.702,414.674,251.618,415.406,251.45z M409.017,238.437c-0.816,0.852-1.296,2.298-1.44,4.338l8.316-0.108
		c0.048-0.624,0.072-1.14,0.072-1.548c0-1.271-0.283-2.25-0.846-2.935c-0.564-0.684-1.507-1.025-2.826-1.025
		C410.925,237.158,409.832,237.584,409.017,238.437z"/>
	<path fill="#FFFFFF" d="M433.838,251.45c0.732-0.168,1.614-0.42,2.646-0.756l0.468,2.376c-1.177,0.456-2.196,0.792-3.06,1.008
		c-0.864,0.216-1.777,0.324-2.736,0.324c-2.52,0-4.53-0.792-6.03-2.376s-2.25-4.08-2.25-7.488c0-3.359,0.726-5.814,2.179-7.362
		c1.451-1.548,3.389-2.321,5.813-2.321c2.256,0,3.87,0.611,4.843,1.836c0.971,1.224,1.457,2.916,1.457,5.075
		c0,1.345-0.084,2.448-0.252,3.312l-10.943-0.036c0.119,2.521,0.659,4.261,1.619,5.22c0.96,0.961,2.256,1.44,3.889,1.44
		C432.321,251.702,433.106,251.618,433.838,251.45z M427.448,238.437c-0.816,0.852-1.296,2.298-1.44,4.338l8.316-0.108
		c0.048-0.624,0.072-1.14,0.072-1.548c0-1.271-0.283-2.25-0.846-2.935c-0.564-0.684-1.507-1.025-2.826-1.025
		C429.357,237.158,428.264,237.584,427.448,238.437z"/>
	<path fill="#FFFFFF" d="M461.397,253.682c-1.105,0.24-2.113,0.36-3.024,0.36c-2.4,0-4.081-0.63-5.04-1.89
		c-0.961-1.261-1.439-3.234-1.439-5.922v-8.929h-2.269v-2.268h2.269v-4.824h2.987v4.824h5.256v2.268h-5.256v8.964
		c0,1.393,0.138,2.479,0.414,3.259c0.275,0.78,0.72,1.332,1.332,1.655c0.612,0.324,1.445,0.486,2.502,0.486
		c0.36,0,0.972-0.048,1.836-0.144L461.397,253.682z"/>
	<path fill="#FFFFFF" d="M479.125,236.403c0.853,1.032,1.279,2.796,1.279,5.292v12.096h-3.097v-11.52
		c0-1.225-0.108-2.154-0.323-2.79c-0.217-0.636-0.564-1.074-1.045-1.314c-0.48-0.239-1.141-0.36-1.979-0.36
		c-0.816,0-1.645,0.108-2.484,0.324c-0.841,0.216-1.8,0.589-2.88,1.116v14.544H465.5v-28.8h3.096v12.168
		c1.056-0.792,2.076-1.374,3.061-1.746c0.983-0.372,2.1-0.558,3.348-0.558C476.9,234.855,478.274,235.37,479.125,236.403z"/>
	<path fill="#FFFFFF" d="M496.838,251.45c0.731-0.168,1.613-0.42,2.646-0.756l0.467,2.376c-1.176,0.456-2.195,0.792-3.06,1.008
		s-1.776,0.324-2.735,0.324c-2.521,0-4.531-0.792-6.031-2.376s-2.25-4.08-2.25-7.488c0-3.359,0.727-5.814,2.179-7.362
		s3.39-2.321,5.813-2.321c2.256,0,3.871,0.611,4.843,1.836c0.972,1.224,1.458,2.916,1.458,5.075c0,1.345-0.084,2.448-0.252,3.312
		l-10.944-0.036c0.12,2.521,0.659,4.261,1.62,5.22c0.959,0.961,2.256,1.44,3.888,1.44
		C495.32,251.702,496.106,251.618,496.838,251.45z M490.448,238.437c-0.816,0.852-1.295,2.298-1.439,4.338l8.316-0.108
		c0.047-0.624,0.071-1.14,0.071-1.548c0-1.271-0.282-2.25-0.846-2.935c-0.564-0.684-1.507-1.025-2.826-1.025
		C492.356,237.158,491.264,237.584,490.448,238.437z"/>
	<path fill="#FFFFFF" d="M515.396,237.069c1.392-1.477,3.276-2.214,5.651-2.214c0.912,0,1.848,0.102,2.809,0.306
		c0.959,0.204,1.836,0.51,2.628,0.918l-0.612,2.196c-1.416-0.528-2.82-0.792-4.212-0.792c-1.8,0-3.126,0.492-3.978,1.476
		c-0.853,0.984-1.278,2.713-1.278,5.184c0,2.713,0.468,4.597,1.403,5.652c0.937,1.057,2.221,1.584,3.853,1.584
		c1.009,0,2.532-0.216,4.572-0.647l0.433,2.159c-1.921,0.792-3.732,1.188-5.437,1.188c-2.376,0-4.29-0.798-5.742-2.395
		c-1.452-1.596-2.179-4.086-2.179-7.47C513.307,240.926,514.004,238.544,515.396,237.069z"/>
	<path fill="#FFFFFF" d="M532.369,252.027c-1.309-1.536-1.963-4.02-1.963-7.452c0-3.384,0.66-5.851,1.98-7.398
		s3.372-2.321,6.156-2.321c2.783,0,4.83,0.768,6.139,2.304c1.307,1.536,1.961,3.996,1.961,7.38s-0.666,5.862-1.998,7.434
		c-1.332,1.572-3.401,2.358-6.209,2.358C535.699,254.33,533.677,253.563,532.369,252.027z M542.305,250.065
		c0.805-1.14,1.206-3.078,1.206-5.814c0-1.775-0.161-3.168-0.485-4.176s-0.834-1.733-1.53-2.178s-1.645-0.666-2.845-0.666
		c-1.248,0-2.244,0.24-2.987,0.72c-0.744,0.48-1.284,1.254-1.62,2.322c-0.336,1.067-0.504,2.514-0.504,4.338
		c0,1.8,0.168,3.222,0.504,4.266s0.846,1.788,1.529,2.232c0.685,0.444,1.603,0.666,2.755,0.666
		C540.175,251.775,541.5,251.204,542.305,250.065z"/>
	<path fill="#FFFFFF" d="M561.87,237.878c-1.224,0-2.425,0.187-3.6,0.559c-1.177,0.372-2.196,0.87-3.06,1.493v13.86h-3.097v-18.756
		h3.097v2.483c0.887-0.743,1.943-1.367,3.168-1.871c1.224-0.505,2.459-0.769,3.707-0.792L561.87,237.878z"/>
	<path fill="#FFFFFF" d="M575.983,237.878c-1.225,0-2.425,0.187-3.6,0.559c-1.177,0.372-2.197,0.87-3.061,1.493v13.86h-3.096
		v-18.756h3.096v2.483c0.888-0.743,1.943-1.367,3.168-1.871c1.225-0.505,2.46-0.769,3.708-0.792L575.983,237.878z"/>
	<path fill="#FFFFFF" d="M589.932,251.45c0.732-0.168,1.614-0.42,2.646-0.756l0.468,2.376c-1.177,0.456-2.196,0.792-3.06,1.008
		c-0.864,0.216-1.777,0.324-2.736,0.324c-2.52,0-4.53-0.792-6.03-2.376s-2.25-4.08-2.25-7.488c0-3.359,0.726-5.814,2.179-7.362
		c1.451-1.548,3.389-2.321,5.813-2.321c2.256,0,3.87,0.611,4.843,1.836c0.971,1.224,1.457,2.916,1.457,5.075
		c0,1.345-0.084,2.448-0.252,3.312l-10.943-0.036c0.119,2.521,0.659,4.261,1.619,5.22c0.96,0.961,2.256,1.44,3.889,1.44
		C588.414,251.702,589.199,251.618,589.932,251.45z M583.542,238.437c-0.816,0.852-1.296,2.298-1.44,4.338l8.316-0.108
		c0.048-0.624,0.072-1.14,0.072-1.548c0-1.271-0.283-2.25-0.846-2.935c-0.564-0.684-1.507-1.025-2.826-1.025
		C585.45,237.158,584.358,237.584,583.542,238.437z"/>
	<path fill="#FFFFFF" d="M599.49,237.069c1.391-1.477,3.275-2.214,5.651-2.214c0.911,0,1.848,0.102,2.808,0.306
		s1.836,0.51,2.629,0.918l-0.612,2.196c-1.417-0.528-2.821-0.792-4.212-0.792c-1.801,0-3.127,0.492-3.979,1.476
		c-0.852,0.984-1.277,2.713-1.277,5.184c0,2.713,0.468,4.597,1.403,5.652c0.937,1.057,2.22,1.584,3.853,1.584
		c1.008,0,2.531-0.216,4.572-0.647l0.432,2.159c-1.92,0.792-3.732,1.188-5.436,1.188c-2.377,0-4.291-0.798-5.742-2.395
		c-1.453-1.596-2.179-4.086-2.179-7.47C597.402,240.926,598.098,238.544,599.49,237.069z"/>
	<path fill="#FFFFFF" d="M625.59,253.682c-1.105,0.24-2.113,0.36-3.024,0.36c-2.4,0-4.081-0.63-5.04-1.89
		c-0.961-1.261-1.439-3.234-1.439-5.922v-8.929h-2.269v-2.268h2.269v-4.824h2.987v4.824h5.256v2.268h-5.256v8.964
		c0,1.393,0.138,2.479,0.414,3.259c0.275,0.78,0.72,1.332,1.332,1.655c0.612,0.324,1.445,0.486,2.502,0.486
		c0.36,0,0.972-0.048,1.836-0.144L625.59,253.682z"/>
	<path fill="#FFFFFF" d="M638.297,248.714c0.672,0.792,1.596,1.446,2.771,1.962c1.176,0.517,2.316,0.774,3.421,0.774
		c1.128,0,2.058-0.294,2.79-0.882c0.731-0.588,1.098-1.314,1.098-2.179c0-0.647-0.211-1.175-0.63-1.584
		c-0.421-0.407-0.937-0.726-1.548-0.954c-0.612-0.228-1.446-0.485-2.502-0.773c-1.297-0.36-2.328-0.702-3.096-1.026
		c-0.77-0.323-1.429-0.797-1.98-1.422c-0.553-0.624-0.828-1.439-0.828-2.448c0-1.104,0.312-2.058,0.936-2.861
		c0.625-0.804,1.459-1.416,2.502-1.836c1.045-0.42,2.166-0.63,3.367-0.63c1.151,0,2.231,0.18,3.239,0.539
		c1.009,0.36,1.896,0.841,2.664,1.44l-0.937,2.124c-0.719-0.456-1.493-0.815-2.321-1.08c-0.828-0.264-1.638-0.396-2.431-0.396
		c-1.128,0-2.094,0.24-2.897,0.72c-0.804,0.48-1.206,1.116-1.206,1.908c0,0.696,0.324,1.212,0.973,1.548
		c0.647,0.336,1.68,0.672,3.096,1.008c1.367,0.336,2.484,0.672,3.348,1.008c0.864,0.337,1.607,0.877,2.232,1.62
		c0.623,0.744,0.936,1.74,0.936,2.988c0,1.776-0.618,3.192-1.854,4.248c-1.236,1.056-2.826,1.584-4.771,1.584
		c-1.464,0-2.91-0.301-4.338-0.9c-1.429-0.6-2.538-1.439-3.33-2.52L638.297,248.714z"/>
	<path fill="#FFFFFF" d="M669.69,235.034l-8.748,25.956h-3.061l2.412-7.2h-0.288l-6.336-18.756h3.384l4.607,15.408l4.861-15.408
		H669.69z"/>
	<path fill="#FFFFFF" d="M699.334,236.403c0.852,1.032,1.279,2.796,1.279,5.292v12.096h-3.098v-11.52
		c0-1.225-0.107-2.154-0.322-2.79c-0.217-0.636-0.564-1.074-1.045-1.314c-0.48-0.239-1.141-0.36-1.98-0.36s-1.691,0.114-2.555,0.343
		c-0.865,0.228-1.861,0.63-2.988,1.206c0.096,0.6,0.145,1.38,0.145,2.34v12.096h-3.098v-11.52c0-1.225-0.107-2.154-0.324-2.79
		c-0.215-0.636-0.562-1.074-1.043-1.314c-0.48-0.239-1.141-0.36-1.98-0.36c-0.816,0-1.65,0.108-2.502,0.324s-1.83,0.601-2.934,1.152
		v14.508h-3.096v-18.756h3.096v2.16c1.104-0.816,2.147-1.41,3.132-1.782c0.983-0.372,2.101-0.558,3.349-0.558
		c1.246,0,2.268,0.216,3.059,0.647c0.793,0.432,1.381,1.141,1.766,2.124c1.246-0.983,2.393-1.692,3.438-2.124
		c1.043-0.432,2.238-0.647,3.582-0.647C697.108,234.855,698.483,235.37,699.334,236.403z"/>
	<path fill="#FFFFFF" d="M720.611,237.105c1.308,1.5,1.962,3.882,1.962,7.146c0,3.456-0.763,6-2.286,7.632
		c-1.524,1.633-3.631,2.448-6.318,2.448c-1.032,0-2.136-0.103-3.312-0.306c-1.177-0.204-2.269-0.486-3.276-0.847v-0.036
		l0.036-28.151h3.096v11.592c1.513-1.152,3.181-1.728,5.004-1.728C717.605,234.855,719.302,235.605,720.611,237.105z
		 M718.073,250.172c1.031-1.02,1.548-2.874,1.548-5.562c0-2.664-0.456-4.542-1.368-5.635c-0.912-1.092-2.052-1.638-3.42-1.638
		c-0.672,0-1.416,0.114-2.232,0.342c-0.815,0.229-1.512,0.511-2.088,0.847v12.888c1.032,0.192,2.04,0.288,3.024,0.288
		C715.529,251.702,717.04,251.193,718.073,250.172z"/>
	<path fill="#FFFFFF" d="M728.638,252.027c-1.308-1.536-1.962-4.02-1.962-7.452c0-3.384,0.66-5.851,1.98-7.398
		c1.319-1.548,3.371-2.321,6.156-2.321c2.783,0,4.829,0.768,6.138,2.304c1.308,1.536,1.962,3.996,1.962,7.38
		s-0.666,5.862-1.998,7.434c-1.332,1.572-3.402,2.358-6.21,2.358C731.968,254.33,729.947,253.563,728.638,252.027z M738.574,250.065
		c0.804-1.14,1.206-3.078,1.206-5.814c0-1.775-0.162-3.168-0.486-4.176s-0.834-1.733-1.53-2.178s-1.644-0.666-2.844-0.666
		c-1.248,0-2.244,0.24-2.988,0.72c-0.744,0.48-1.284,1.254-1.619,2.322c-0.337,1.067-0.505,2.514-0.505,4.338
		c0,1.8,0.168,3.222,0.505,4.266c0.335,1.044,0.846,1.788,1.529,2.232c0.685,0.444,1.603,0.666,2.754,0.666
		C736.444,251.775,737.77,251.204,738.574,250.065z"/>
	<path fill="#FFFFFF" d="M748.348,224.99h3.097v28.8h-3.097V224.99z"/>
</g>
</svg>
