<?xml version="1.0" encoding="utf-8"?>
<!-- Generator: Adobe Illustrator 15.1.0, SVG Export Plug-In . SVG Version: 6.00 Build 0)  -->
<!DOCTYPE svg PUBLIC "-//W3C//DTD SVG 1.1//EN" "http://www.w3.org/Graphics/SVG/1.1/DTD/svg11.dtd">
<svg version="1.1" id="Abre" xmlns="http://www.w3.org/2000/svg" xmlns:xlink="http://www.w3.org/1999/xlink" x="0px" y="0px"
	 width="800px" height="150px" viewBox="0 0 800 150" enable-background="new 0 0 800 150" xml:space="preserve">
<g>
	<path fill="#ED1C24" d="M109.968,85.434v14.062H72.006v-55.5h17.242v41.438H109.968z"/>
	<path fill="#ED1C24" d="M154.294,85.434v14.062h-37.666v-55.5h36.926v14.062H133.5v7.694h17.834v12.58H133.5v7.104h20.794V85.434z"
		/>
	<path fill="#ED1C24" d="M190.036,90.908h-12.213l-1.628,8.584H158.73l14.506-55.5h21.312l14.649,55.5h-17.464L190.036,90.908z
		 M187.593,78.328l-3.7-19.166l-3.626,19.166H187.593z"/>
	<path fill="#ED1C24" d="M233.546,79.512h-1.557V99.49H215.12v-55.5h20.199c5.572,0,9.967,0.593,13.175,1.777
		c3.204,1.184,5.521,3.067,6.953,5.66c1.433,2.59,2.146,6.131,2.146,10.616c0,4.292-0.666,7.687-1.998,10.179
		c-1.332,2.488-3.503,4.305-6.512,5.438l10.434,21.83h-17.906L233.546,79.512z M231.99,56.572v11.841h3.33
		c2.223,0,3.772-0.433,4.66-1.295c0.893-0.862,1.332-2.405,1.332-4.625c0-2.171-0.439-3.7-1.332-4.589
		c-0.888-0.887-2.438-1.332-4.66-1.332H231.99L231.99,56.572z"/>
	<path fill="#ED1C24" d="M311.615,43.992v55.5h-16.206l-13.021-26.418v26.418H266.18v-55.5h16.206l13.021,27.38v-27.38H311.615z"/>
</g>
<g>
	<path fill="#FFFFFF" d="M384.285,63.688l0.646,2.447c-1.562,0.791-2.904,1.35-4.032,1.674c-1.128,0.323-2.352,0.485-3.672,0.485
		c-3.525,0-6.156-1.121-7.884-3.366c-1.729-2.242-2.592-5.74-2.592-10.494c0-4.896,0.894-8.482,2.682-10.764
		c1.788-2.279,4.458-3.42,8.01-3.42c1.271,0,2.438,0.15,3.492,0.449c1.058,0.301,2.16,0.799,3.312,1.494l-0.757,2.341
		c-0.961-0.505-1.907-0.9-2.846-1.188c-0.937-0.287-1.992-0.432-3.168-0.432c-2.544,0-4.438,0.918-5.688,2.754
		s-1.872,4.781-1.872,8.838c0,2.616,0.264,4.723,0.792,6.318c0.526,1.597,1.344,2.754,2.447,3.474c1.104,0.72,2.53,1.08,4.282,1.08
		C379.698,65.378,381.982,64.814,384.285,63.688z"/>
	<path fill="#FFFFFF" d="M390.08,38.99h3.097v28.8h-3.097V38.99z"/>
	<path fill="#FFFFFF" d="M400.017,44.372c-0.408-0.396-0.612-0.882-0.612-1.458c0-0.553,0.198-1.02,0.596-1.404
		c0.396-0.384,0.895-0.576,1.493-0.576c0.575,0,1.062,0.192,1.458,0.576c0.396,0.385,0.596,0.864,0.596,1.438
		c0,0.575-0.198,1.057-0.596,1.438c-0.396,0.385-0.883,0.576-1.458,0.576C400.916,44.966,400.425,44.768,400.017,44.372z
		 M399.906,49.034h3.099V67.79h-3.099V49.034z"/>
	<path fill="#FFFFFF" d="M410.49,51.068c1.395-1.477,3.276-2.213,5.652-2.213c0.912,0,1.848,0.102,2.808,0.306
		c0.961,0.204,1.836,0.51,2.631,0.918l-0.611,2.196c-1.417-0.528-2.821-0.793-4.213-0.793c-1.801,0-3.126,0.492-3.979,1.477
		c-0.852,0.984-1.276,2.713-1.276,5.184c0,2.713,0.469,4.598,1.402,5.652c0.938,1.057,2.221,1.584,3.854,1.584
		c1.008,0,2.529-0.216,4.569-0.646l0.435,2.158c-1.92,0.793-3.732,1.188-5.438,1.188c-2.376,0-4.291-0.798-5.74-2.396
		c-1.451-1.596-2.18-4.086-2.18-7.47C408.404,54.926,409.1,52.544,410.49,51.068z"/>
	<path fill="#FFFFFF" d="M438.356,67.79l-8.424-9.036v9.036h-3.096v-28.8h3.096v18.216l7.561-8.172h3.635l-8.135,8.819l9.359,9.937
		H438.356L438.356,67.79z"/>
	<path fill="#FFFFFF" d="M455.726,66.027c-1.31-1.537-1.962-4.021-1.962-7.452c0-3.384,0.66-5.851,1.979-7.396
		c1.318-1.549,3.371-2.322,6.155-2.322s4.829,0.769,6.138,2.305c1.312,1.535,1.965,3.996,1.965,7.38s-0.666,5.862-1.997,7.435
		c-1.332,1.571-3.402,2.357-6.212,2.357C459.056,68.33,457.031,67.562,455.726,66.027z M465.659,64.064
		c0.806-1.14,1.205-3.078,1.205-5.813c0-1.774-0.162-3.168-0.483-4.176c-0.323-1.009-0.834-1.731-1.529-2.179
		c-0.696-0.443-1.645-0.666-2.844-0.666c-1.248,0-2.244,0.24-2.988,0.721s-1.284,1.254-1.62,2.322
		c-0.337,1.066-0.504,2.514-0.504,4.338c0,1.8,0.167,3.222,0.504,4.266c0.336,1.044,0.847,1.788,1.53,2.232
		c0.683,0.443,1.602,0.666,2.754,0.666C463.531,65.775,464.858,65.204,465.659,64.064z"/>
	<path fill="#FFFFFF" d="M489.168,50.402c0.853,1.033,1.276,2.797,1.276,5.293v12.096h-3.097v-11.52
		c0-1.226-0.108-2.154-0.323-2.791c-0.217-0.635-0.562-1.074-1.045-1.313c-0.479-0.239-1.14-0.36-1.979-0.36
		c-0.815,0-1.649,0.108-2.504,0.324c-0.853,0.217-1.828,0.602-2.935,1.152v14.508h-3.096V49.035h3.096v2.16
		c1.104-0.816,2.147-1.41,3.133-1.782c0.983-0.372,2.103-0.558,3.351-0.558C486.943,48.855,488.317,49.37,489.168,50.402z"/>
	<path fill="#FFFFFF" d="M516.006,67.682c-1.104,0.24-2.111,0.36-3.023,0.36c-2.4,0-4.08-0.63-5.04-1.89
		c-0.96-1.262-1.44-3.234-1.44-5.922V51.3h-2.268v-2.27h2.268v-4.824h2.988v4.824h5.256v2.27h-5.256v8.965
		c0,1.393,0.141,2.479,0.414,3.258c0.275,0.781,0.721,1.332,1.332,1.656c0.611,0.323,1.445,0.485,2.502,0.485
		c0.359,0,0.975-0.048,1.836-0.144L516.006,67.682z"/>
	<path fill="#FFFFFF" d="M533.737,50.402c0.854,1.033,1.277,2.797,1.277,5.293v12.096h-3.096v-11.52
		c0-1.226-0.107-2.154-0.324-2.791c-0.217-0.635-0.564-1.074-1.043-1.313c-0.48-0.239-1.144-0.36-1.98-0.36
		c-0.815,0-1.645,0.108-2.484,0.324c-0.838,0.217-1.8,0.59-2.879,1.116v14.544h-3.098v-28.8h3.098v12.168
		c1.058-0.792,2.074-1.374,3.062-1.746s2.1-0.558,3.349-0.558C531.51,48.855,532.884,49.37,533.737,50.402z"/>
	<path fill="#FFFFFF" d="M551.448,65.45c0.731-0.169,1.614-0.421,2.646-0.757l0.469,2.377c-1.177,0.455-2.196,0.791-3.061,1.008
		c-0.863,0.216-1.776,0.324-2.736,0.324c-2.521,0-4.529-0.793-6.029-2.377s-2.25-4.08-2.25-7.487c0-3.358,0.729-5.813,2.178-7.362
		c1.451-1.548,3.393-2.32,5.814-2.32c2.256,0,3.869,0.61,4.842,1.836c0.973,1.224,1.458,2.916,1.458,5.074
		c0,1.346-0.085,2.448-0.253,3.312l-10.943-0.036c0.119,2.521,0.66,4.261,1.62,5.22c0.96,0.961,2.255,1.44,3.891,1.44
		C549.93,65.702,550.716,65.618,551.448,65.45z M545.059,52.438c-0.816,0.852-1.297,2.297-1.44,4.338l8.315-0.108
		c0.049-0.624,0.072-1.14,0.072-1.548c0-1.271-0.282-2.25-0.849-2.936c-0.562-0.684-1.506-1.024-2.823-1.024
		C546.967,51.158,545.873,51.584,545.059,52.438z"/>
	<path fill="#FFFFFF" d="M582.985,50.402c0.852,1.033,1.277,2.797,1.277,5.293v12.096h-3.096v-11.52
		c0-1.226-0.108-2.154-0.324-2.791c-0.217-0.635-0.564-1.074-1.044-1.313c-0.48-0.239-1.143-0.36-1.979-0.36
		c-0.816,0-1.65,0.108-2.502,0.324c-0.854,0.217-1.831,0.602-2.935,1.152v14.508h-3.1V49.035h3.1v2.16
		c1.104-0.816,2.146-1.41,3.132-1.782c0.984-0.372,2.1-0.558,3.348-0.558C580.758,48.855,582.131,49.37,582.985,50.402z"/>
	<path fill="#FFFFFF" d="M600.965,49.502c0.888,0.432,1.549,1.158,1.979,2.178c0.435,1.021,0.648,2.432,0.648,4.23v11.88h-2.736
		v-2.412c-1.633,1.8-3.588,2.7-5.868,2.7c-1.896,0-3.307-0.504-4.229-1.512c-0.927-1.01-1.388-2.28-1.388-3.816
		c0-1.775,0.553-3.174,1.654-4.193c1.104-1.021,2.688-1.529,4.752-1.529h4.788c0-1.562-0.126-2.73-0.378-3.512
		c-0.252-0.779-0.646-1.312-1.188-1.602s-1.305-0.432-2.286-0.432c-1.345,0-3.229,0.287-5.652,0.863l-0.539-2.125
		c2.327-0.91,4.619-1.367,6.876-1.367C598.889,48.855,600.074,49.07,600.965,49.502z M600.57,63.542v-4.248h-4.752
		c-1.319,0-2.25,0.317-2.79,0.954s-0.811,1.374-0.811,2.214c0,0.937,0.294,1.675,0.883,2.214c0.588,0.54,1.386,0.811,2.394,0.811
		C597.03,65.486,598.721,64.838,600.57,63.542z"/>
	<path fill="#FFFFFF" d="M635.975,50.402c0.852,1.033,1.277,2.797,1.277,5.293v12.096h-3.099v-11.52
		c0-1.226-0.104-2.154-0.322-2.791c-0.217-0.635-0.562-1.074-1.044-1.313c-0.479-0.239-1.142-0.36-1.979-0.36
		s-1.691,0.114-2.557,0.344c-0.863,0.228-1.859,0.629-2.987,1.205c0.096,0.601,0.144,1.381,0.144,2.34v12.097h-3.096V56.271
		c0-1.225-0.107-2.153-0.324-2.789c-0.216-0.637-0.562-1.074-1.043-1.314c-0.479-0.238-1.141-0.359-1.979-0.359
		c-0.816,0-1.65,0.107-2.502,0.323c-0.854,0.216-1.83,0.601-2.937,1.152v14.508h-3.097V49.036h3.097v2.159
		c1.104-0.815,2.146-1.409,3.131-1.781s2.104-0.559,3.352-0.559c1.247,0,2.269,0.217,3.06,0.647
		c0.793,0.433,1.381,1.142,1.766,2.124c1.246-0.982,2.396-1.691,3.438-2.124s2.237-0.647,3.582-0.647
		C633.748,48.855,635.123,49.37,635.975,50.402z"/>
	<path fill="#FFFFFF" d="M653.651,65.45c0.731-0.169,1.613-0.421,2.646-0.757l0.467,2.377c-1.176,0.455-2.195,0.791-3.062,1.008
		c-0.862,0.216-1.773,0.324-2.732,0.324c-2.521,0-4.531-0.793-6.031-2.377s-2.25-4.08-2.25-7.487c0-3.358,0.727-5.813,2.179-7.362
		c1.452-1.548,3.393-2.32,5.813-2.32c2.256,0,3.871,0.61,4.843,1.836c0.972,1.224,1.458,2.916,1.458,5.074
		c0,1.346-0.084,2.448-0.252,3.312l-10.944-0.036c0.12,2.521,0.659,4.261,1.62,5.22c0.959,0.961,2.256,1.44,3.889,1.44
		C652.132,65.702,652.918,65.618,653.651,65.45z M647.26,52.438c-0.816,0.852-1.295,2.297-1.439,4.338l8.316-0.108
		c0.047-0.624,0.07-1.14,0.07-1.548c0-1.271-0.281-2.25-0.848-2.936c-0.562-0.684-1.507-1.024-2.826-1.024
		C649.168,51.158,648.073,51.584,647.26,52.438z"/>
	<path fill="#FFFFFF" d="M662.056,62.714c0.672,0.792,1.597,1.446,2.771,1.962c1.179,0.518,2.315,0.772,3.422,0.772
		c1.127,0,2.059-0.294,2.789-0.882s1.1-1.314,1.1-2.18c0-0.646-0.21-1.175-0.63-1.584c-0.42-0.406-0.938-0.726-1.55-0.953
		c-0.61-0.229-1.444-0.485-2.502-0.773c-1.297-0.359-2.328-0.702-3.098-1.025c-0.768-0.324-1.428-0.798-1.979-1.423
		c-0.555-0.624-0.828-1.438-0.828-2.448c0-1.104,0.312-2.058,0.937-2.861c0.623-0.803,1.457-1.416,2.502-1.836
		c1.043-0.42,2.165-0.629,3.365-0.629c1.152,0,2.231,0.18,3.24,0.539c1.008,0.359,1.896,0.84,2.664,1.439l-0.938,2.124
		c-0.721-0.456-1.493-0.815-2.32-1.08s-1.641-0.396-2.432-0.396c-1.129,0-2.095,0.24-2.896,0.72
		c-0.808,0.479-1.206,1.116-1.206,1.907c0,0.697,0.322,1.213,0.972,1.549c0.649,0.336,1.68,0.672,3.096,1.008
		c1.369,0.336,2.484,0.672,3.352,1.008c0.862,0.338,1.605,0.877,2.229,1.62c0.625,0.744,0.938,1.74,0.938,2.987
		c0,1.777-0.618,3.193-1.854,4.248c-1.233,1.057-2.825,1.584-4.77,1.584c-1.464,0-2.91-0.301-4.338-0.899
		c-1.431-0.599-2.538-1.438-3.33-2.521L662.056,62.714z"/>
	<path fill="#FFFFFF" d="M700.707,67.681c-1.104,0.24-2.109,0.36-3.021,0.36c-2.4,0-4.081-0.63-5.04-1.89
		c-0.96-1.262-1.44-3.234-1.44-5.922V51.3h-2.268V49.03h2.268v-4.823h2.988v4.823h5.256V51.3h-5.256v8.965
		c0,1.393,0.139,2.479,0.414,3.258c0.275,0.781,0.72,1.332,1.332,1.656c0.612,0.322,1.445,0.484,2.502,0.484
		c0.36,0,0.973-0.049,1.836-0.145L700.707,67.681z"/>
	<path fill="#FFFFFF" d="M705.444,66.027c-1.309-1.537-1.962-4.021-1.962-7.453c0-3.383,0.66-5.85,1.979-7.396
		c1.317-1.549,3.371-2.322,6.154-2.322c2.784,0,4.83,0.77,6.141,2.306c1.308,1.534,1.962,3.995,1.962,7.38s-0.666,5.861-1.998,7.436
		c-1.332,1.57-3.402,2.356-6.21,2.356C708.774,68.33,706.748,67.562,705.444,66.027z M715.38,64.064
		c0.804-1.141,1.204-3.078,1.204-5.813c0-1.774-0.16-3.168-0.484-4.177c-0.324-1.008-0.834-1.731-1.53-2.178
		c-0.696-0.443-1.645-0.666-2.844-0.666c-1.248,0-2.244,0.24-2.988,0.721s-1.284,1.254-1.62,2.322
		c-0.336,1.065-0.504,2.514-0.504,4.338c0,1.8,0.167,3.222,0.504,4.266c0.336,1.044,0.849,1.788,1.53,2.232
		c0.685,0.443,1.603,0.666,2.754,0.666C713.248,65.775,714.573,65.204,715.38,64.064z"/>
	<path fill="#FFFFFF" d="M368.205,98.714c0.672,0.792,1.596,1.446,2.771,1.962c1.176,0.518,2.315,0.773,3.42,0.773
		c1.127,0,2.059-0.293,2.791-0.881c0.729-0.588,1.098-1.314,1.098-2.18c0-0.646-0.211-1.177-0.631-1.584
		c-0.42-0.406-0.936-0.728-1.547-0.953c-0.611-0.229-1.446-0.486-2.502-0.773c-1.296-0.359-2.329-0.702-3.096-1.025
		c-0.771-0.324-1.428-0.798-1.98-1.423c-0.552-0.624-0.828-1.438-0.828-2.448c0-1.104,0.312-2.058,0.938-2.861
		c0.624-0.803,1.458-1.416,2.502-1.836s2.166-0.629,3.366-0.629c1.148,0,2.229,0.182,3.236,0.539
		c1.011,0.359,1.896,0.84,2.664,1.439l-0.936,2.124c-0.722-0.456-1.494-0.815-2.322-1.08s-1.638-0.396-2.43-0.396
		c-1.128,0-2.095,0.24-2.898,0.72c-0.803,0.479-1.206,1.116-1.206,1.907c0,0.697,0.324,1.213,0.975,1.549
		c0.646,0.336,1.68,0.672,3.096,1.008c1.368,0.336,2.482,0.672,3.349,1.008c0.863,0.338,1.607,0.877,2.231,1.62
		c0.624,0.744,0.937,1.74,0.937,2.987c0,1.777-0.618,3.193-1.854,4.248c-1.236,1.057-2.825,1.584-4.771,1.584
		c-1.465,0-2.908-0.301-4.339-0.899c-1.428-0.601-2.538-1.438-3.33-2.521L368.205,98.714z"/>
	<path fill="#FFFFFF" d="M395.906,101.449c0.732-0.168,1.614-0.42,2.646-0.756l0.468,2.377c-1.177,0.455-2.196,0.791-3.061,1.008
		c-0.863,0.216-1.776,0.324-2.735,0.324c-2.521,0-4.53-0.793-6.03-2.377s-2.25-4.08-2.25-7.487c0-3.358,0.729-5.813,2.18-7.362
		c1.45-1.548,3.391-2.32,5.812-2.32c2.256,0,3.87,0.611,4.843,1.836c0.972,1.226,1.457,2.916,1.457,5.074
		c0,1.346-0.084,2.448-0.252,3.312l-10.942-0.036c0.118,2.521,0.658,4.261,1.618,5.22c0.96,0.961,2.257,1.44,3.892,1.44
		C394.389,101.702,395.174,101.618,395.906,101.449z M389.517,88.438c-0.816,0.854-1.296,2.297-1.44,4.338l8.316-0.106
		c0.048-0.624,0.072-1.142,0.072-1.548c0-1.271-0.283-2.25-0.849-2.938c-0.562-0.684-1.507-1.022-2.823-1.022
		C391.425,87.158,390.332,87.584,389.517,88.438z"/>
	<path fill="#FFFFFF" d="M414.338,101.449c0.729-0.168,1.611-0.42,2.646-0.756l0.468,2.377c-1.177,0.455-2.193,0.791-3.06,1.008
		c-0.864,0.216-1.777,0.324-2.736,0.324c-2.52,0-4.53-0.793-6.03-2.377s-2.25-4.08-2.25-7.487c0-3.358,0.729-5.813,2.182-7.362
		c1.451-1.548,3.389-2.32,5.812-2.32c2.257,0,3.87,0.611,4.846,1.836c0.971,1.226,1.456,2.916,1.456,5.074
		c0,1.346-0.084,2.448-0.252,3.312l-10.942-0.036c0.119,2.521,0.659,4.261,1.619,5.22c0.96,0.961,2.256,1.44,3.889,1.44
		C412.821,101.702,413.606,101.618,414.338,101.449z M407.948,88.438c-0.813,0.854-1.296,2.297-1.438,4.338l8.313-0.106
		c0.048-0.624,0.072-1.142,0.072-1.548c0-1.271-0.283-2.25-0.846-2.938c-0.564-0.684-1.507-1.022-2.826-1.022
		C409.857,87.158,408.764,87.584,407.948,88.438z"/>
	<path fill="#FFFFFF" d="M441.897,103.682c-1.105,0.24-2.113,0.36-3.023,0.36c-2.398,0-4.082-0.63-5.041-1.89
		c-0.961-1.262-1.438-3.234-1.438-5.922v-8.93h-2.27v-2.271h2.27v-4.822h2.987v4.822h5.256v2.271h-5.256v8.965
		c0,1.393,0.138,2.479,0.414,3.258c0.272,0.781,0.72,1.332,1.332,1.656c0.609,0.321,1.442,0.483,2.502,0.483
		c0.357,0,0.972-0.05,1.836-0.146L441.897,103.682z"/>
	<path fill="#FFFFFF" d="M459.625,86.402c0.853,1.033,1.276,2.797,1.276,5.293v12.096h-3.097v-11.52
		c0-1.228-0.108-2.154-0.323-2.791c-0.217-0.635-0.562-1.074-1.045-1.313c-0.479-0.239-1.141-0.36-1.979-0.36
		c-0.814,0-1.646,0.108-2.482,0.324c-0.841,0.217-1.8,0.59-2.88,1.116v14.544H446v-28.8h3.096v12.167
		c1.056-0.791,2.076-1.373,3.061-1.745c0.983-0.372,2.103-0.558,3.351-0.558C457.4,84.855,458.774,85.37,459.625,86.402z"/>
	<path fill="#FFFFFF" d="M477.338,101.449c0.729-0.168,1.61-0.42,2.646-0.756l0.467,2.377c-1.176,0.455-2.192,0.791-3.06,1.008
		c-0.865,0.216-1.776,0.324-2.735,0.324c-2.521,0-4.53-0.793-6.03-2.377s-2.25-4.08-2.25-7.487c0-3.358,0.729-5.813,2.181-7.362
		c1.452-1.548,3.39-2.32,5.812-2.32c2.258,0,3.871,0.611,4.844,1.836c0.974,1.226,1.46,2.916,1.46,5.074
		c0,1.346-0.085,2.448-0.253,3.312l-10.943-0.036c0.12,2.521,0.659,4.261,1.62,5.22c0.959,0.961,2.256,1.44,3.888,1.44
		C475.82,101.702,476.606,101.618,477.338,101.449z M470.948,88.438c-0.813,0.854-1.295,2.297-1.438,4.338l8.313-0.106
		c0.047-0.624,0.071-1.142,0.071-1.548c0-1.271-0.282-2.25-0.846-2.938c-0.564-0.684-1.508-1.022-2.826-1.022
		C472.856,87.158,471.764,87.584,470.948,88.438z"/>
	<path fill="#FFFFFF" d="M495.896,87.068c1.392-1.477,3.276-2.213,5.651-2.213c0.912,0,1.848,0.102,2.809,0.306
		c0.959,0.204,1.836,0.51,2.628,0.918l-0.612,2.196c-1.416-0.528-2.817-0.793-4.212-0.793c-1.8,0-3.126,0.492-3.978,1.477
		c-0.854,0.984-1.278,2.713-1.278,5.184c0,2.713,0.468,4.598,1.403,5.652c0.937,1.057,2.221,1.584,3.853,1.584
		c1.009,0,2.532-0.216,4.572-0.646l0.433,2.158c-1.921,0.793-3.729,1.188-5.437,1.188c-2.376,0-4.29-0.798-5.742-2.396
		s-2.179-4.086-2.179-7.472C493.807,90.926,494.504,88.544,495.896,87.068z"/>
	<path fill="#FFFFFF" d="M512.866,102.027c-1.309-1.537-1.963-4.021-1.963-7.453c0-3.383,0.66-5.85,1.98-7.396
		c1.317-1.548,3.372-2.322,6.153-2.322c2.783,0,4.83,0.771,6.142,2.307c1.307,1.533,1.961,3.994,1.961,7.38s-0.666,5.86-1.998,7.437
		c-1.332,1.569-3.401,2.355-6.209,2.355C516.198,104.33,514.177,103.562,512.866,102.027z M522.805,100.064
		c0.805-1.142,1.206-3.078,1.206-5.813c0-1.774-0.161-3.168-0.485-4.177c-0.324-1.008-0.834-1.732-1.53-2.178
		c-0.693-0.444-1.645-0.666-2.845-0.666c-1.248,0-2.244,0.24-2.986,0.721c-0.744,0.48-1.282,1.254-1.621,2.322
		c-0.336,1.064-0.504,2.514-0.504,4.338c0,1.8,0.168,3.222,0.504,4.266c0.339,1.044,0.849,1.788,1.529,2.232
		c0.688,0.443,1.604,0.666,2.755,0.666C520.675,101.775,522,101.204,522.805,100.064z"/>
	<path fill="#FFFFFF" d="M542.367,87.878c-1.224,0-2.425,0.187-3.6,0.56c-1.177,0.371-2.196,0.869-3.062,1.492v13.86h-3.097V85.033
		h3.097v2.484c0.89-0.744,1.943-1.367,3.17-1.871c1.225-0.506,2.459-0.771,3.705-0.793L542.367,87.878z"/>
	<path fill="#FFFFFF" d="M556.483,87.878c-1.225,0-2.425,0.187-3.6,0.56c-1.178,0.371-2.197,0.869-3.062,1.492v13.86h-3.096V85.033
		h3.096v2.484c0.889-0.744,1.943-1.367,3.168-1.871c1.228-0.506,2.46-0.771,3.708-0.793L556.483,87.878z"/>
	<path fill="#FFFFFF" d="M570.432,101.449c0.732-0.168,1.614-0.42,2.646-0.756l0.471,2.377c-1.18,0.455-2.196,0.791-3.062,1.008
		c-0.864,0.216-1.776,0.324-2.735,0.324c-2.521,0-4.528-0.793-6.028-2.377s-2.25-4.08-2.25-7.487c0-3.358,0.726-5.813,2.179-7.362
		c1.451-1.548,3.391-2.32,5.812-2.32c2.257,0,3.869,0.611,4.844,1.836c0.971,1.226,1.457,2.916,1.457,5.074
		c0,1.346-0.084,2.448-0.252,3.312l-10.943-0.036c0.119,2.521,0.659,4.261,1.619,5.22c0.96,0.961,2.256,1.44,3.889,1.44
		C568.914,101.702,569.698,101.618,570.432,101.449z M564.041,88.438c-0.815,0.854-1.298,2.297-1.439,4.338l8.316-0.106
		c0.048-0.624,0.069-1.142,0.069-1.548c0-1.271-0.28-2.25-0.846-2.938c-0.564-0.684-1.507-1.022-2.826-1.022
		C565.948,87.158,564.858,87.584,564.041,88.438z"/>
	<path fill="#FFFFFF" d="M579.99,87.068c1.394-1.477,3.275-2.213,5.651-2.213c0.911,0,1.848,0.102,2.808,0.306
		s1.836,0.51,2.629,0.918l-0.609,2.196c-1.417-0.528-2.821-0.793-4.212-0.793c-1.803,0-3.128,0.492-3.979,1.477
		c-0.851,0.984-1.276,2.713-1.276,5.184c0,2.713,0.468,4.598,1.4,5.652c0.938,1.057,2.223,1.584,3.854,1.584
		c1.008,0,2.529-0.216,4.57-0.646l0.434,2.158c-1.92,0.793-3.732,1.188-5.438,1.188c-2.377,0-4.291-0.798-5.74-2.396
		c-1.453-1.598-2.181-4.086-2.181-7.472C577.902,90.926,578.598,88.544,579.99,87.068z"/>
	<path fill="#FFFFFF" d="M606.09,103.682c-1.105,0.24-2.113,0.36-3.024,0.36c-2.399,0-4.081-0.63-5.04-1.89
		c-0.961-1.262-1.438-3.234-1.438-5.922v-8.93h-2.271v-2.271h2.271v-4.822h2.984v4.822h5.258v2.271h-5.258v8.965
		c0,1.393,0.141,2.479,0.414,3.258c0.275,0.781,0.721,1.332,1.332,1.656c0.612,0.321,1.445,0.483,2.502,0.483
		c0.36,0,0.974-0.05,1.836-0.146L606.09,103.682z"/>
	<path fill="#FFFFFF" d="M618.797,98.714c0.672,0.792,1.596,1.446,2.771,1.962c1.176,0.518,2.316,0.773,3.421,0.773
		c1.128,0,2.061-0.293,2.79-0.881c0.731-0.588,1.099-1.314,1.099-2.18c0-0.646-0.211-1.177-0.631-1.584
		c-0.421-0.406-0.937-0.728-1.548-0.953c-0.609-0.229-1.443-0.486-2.502-0.773c-1.297-0.359-2.328-0.702-3.096-1.025
		c-0.771-0.324-1.429-0.798-1.979-1.423c-0.554-0.624-0.828-1.438-0.828-2.448c0-1.104,0.312-2.058,0.938-2.861
		c0.625-0.803,1.459-1.416,2.502-1.836c1.045-0.42,2.166-0.629,3.367-0.629c1.148,0,2.229,0.182,3.239,0.539
		c1.009,0.359,1.896,0.84,2.661,1.439l-0.937,2.124c-0.719-0.456-1.493-0.815-2.321-1.08s-1.638-0.396-2.431-0.396
		c-1.128,0-2.094,0.24-2.897,0.72c-0.803,0.479-1.205,1.116-1.205,1.907c0,0.697,0.323,1.213,0.975,1.549
		c0.646,0.336,1.68,0.672,3.096,1.008c1.367,0.336,2.484,0.672,3.351,1.008c0.861,0.338,1.604,0.877,2.229,1.62
		c0.623,0.744,0.938,1.74,0.938,2.987c0,1.777-0.618,3.193-1.854,4.248c-1.236,1.057-2.826,1.584-4.771,1.584
		c-1.464,0-2.91-0.301-4.339-0.899c-1.431-0.601-2.537-1.438-3.33-2.521L618.797,98.714z"/>
	<path fill="#FFFFFF" d="M650.19,85.033l-8.748,25.957h-3.061l2.412-7.2h-0.288l-6.337-18.757h3.385l4.604,15.408l4.861-15.408
		H650.19z"/>
	<path fill="#FFFFFF" d="M679.834,86.402c0.852,1.033,1.276,2.797,1.276,5.293v12.096h-3.098v-11.52
		c0-1.228-0.107-2.154-0.322-2.791c-0.217-0.635-0.562-1.074-1.045-1.313c-0.479-0.239-1.142-0.36-1.979-0.36
		c-0.841,0-1.69,0.114-2.557,0.344c-0.864,0.229-1.859,0.629-2.986,1.205c0.097,0.603,0.146,1.381,0.146,2.34v12.099h-3.099V92.271
		c0-1.227-0.106-2.153-0.323-2.789c-0.216-0.637-0.562-1.074-1.043-1.314c-0.48-0.238-1.143-0.359-1.98-0.359
		c-0.813,0-1.647,0.107-2.502,0.323c-0.852,0.216-1.83,0.601-2.934,1.151v14.509h-3.097V85.036h3.097v2.159
		c1.104-0.815,2.146-1.409,3.132-1.781c0.982-0.372,2.101-0.559,3.349-0.559c1.246,0,2.271,0.217,3.062,0.646
		c0.793,0.435,1.381,1.144,1.766,2.124c1.246-0.98,2.395-1.689,3.438-2.124c1.044-0.435,2.236-0.646,3.582-0.646
		C677.608,84.855,678.983,85.37,679.834,86.402z"/>
	<path fill="#FFFFFF" d="M701.111,87.105c1.308,1.5,1.962,3.881,1.962,7.146c0,3.456-0.763,6-2.286,7.632
		c-1.521,1.633-3.631,2.448-6.315,2.448c-1.032,0-2.139-0.103-3.312-0.306c-1.177-0.205-2.269-0.486-3.273-0.848v-0.035
		l0.035-28.154h3.097v11.593c1.513-1.15,3.181-1.729,5.004-1.729C698.105,84.855,699.802,85.605,701.111,87.105z M698.573,100.172
		c1.031-1.02,1.548-2.874,1.548-5.562c0-2.664-0.456-4.541-1.368-5.635c-0.909-1.092-2.052-1.638-3.42-1.638
		c-0.672,0-1.416,0.114-2.229,0.343c-0.815,0.229-1.512,0.51-2.088,0.846v12.891c1.031,0.189,2.04,0.288,3.021,0.288
		C696.029,101.702,697.539,101.193,698.573,100.172z"/>
	<path fill="#FFFFFF" d="M709.138,102.027c-1.308-1.537-1.962-4.021-1.962-7.453c0-3.383,0.66-5.85,1.979-7.396
		c1.319-1.549,3.371-2.322,6.156-2.322c2.783,0,4.829,0.771,6.138,2.307c1.311,1.533,1.962,3.994,1.962,7.38
		s-0.666,5.86-1.996,7.437c-1.332,1.569-3.401,2.355-6.211,2.355C712.468,104.33,710.447,103.562,709.138,102.027z M719.073,100.064
		c0.805-1.142,1.206-3.078,1.206-5.813c0-1.774-0.162-3.168-0.485-4.177c-0.322-1.008-0.834-1.732-1.528-2.178
		c-0.696-0.444-1.646-0.666-2.844-0.666c-1.248,0-2.244,0.24-2.988,0.721s-1.284,1.254-1.619,2.322
		c-0.337,1.064-0.505,2.514-0.505,4.338c0,1.8,0.168,3.222,0.505,4.266c0.335,1.044,0.846,1.788,1.529,2.232
		c0.685,0.443,1.603,0.666,2.754,0.666C716.944,101.775,718.27,101.204,719.073,100.064z"/>
	<path fill="#FFFFFF" d="M728.848,74.99h3.097v28.8h-3.097V74.99z"/>
</g>
</svg>
