<?xml version="1.0" encoding="utf-8"?>
<!-- Generator: Adobe Illustrator 15.1.0, SVG Export Plug-In . SVG Version: 6.00 Build 0)  -->
<!DOCTYPE svg PUBLIC "-//W3C//DTD SVG 1.1//EN" "http://www.w3.org/Graphics/SVG/1.1/DTD/svg11.dtd">
<svg version="1.1" id="Layer_28" xmlns="http://www.w3.org/2000/svg" xmlns:xlink="http://www.w3.org/1999/xlink" x="0px" y="0px"
	 width="800px" height="450px" viewBox="0 0 800 450" enable-background="new 0 0 800 450" xml:space="preserve">
<g>
	<path fill="#ED1C24" d="M484.324,312.276h60.981v26.75h-60.981v61.014h-26.772v-61.014h-52.727v-26.75h52.727v-52.574
		c-20.849-2.024-40.406-10.136-56.575-23.468c-16.159,13.332-35.697,21.443-56.541,23.468v52.574h52.725v26.75h-52.725v61.014
		h-26.771v-61.014h-60.978v-26.75h60.978v-53.327c-21.93-3.405-42.16-13.624-58.152-29.616
		c-19.872-19.875-30.833-46.365-30.833-74.505c0-28.146,10.962-54.591,30.833-74.48c19.913-19.91,46.398-30.874,74.542-30.874
		c24.712,0,48.107,8.449,66.921,23.983c18.816-15.534,42.249-23.983,66.954-23.983c28.144,0,54.587,10.964,74.502,30.874
		c19.91,19.889,30.884,46.335,30.884,74.48c0,28.14-10.974,54.629-30.884,74.505c-15.983,15.986-36.195,26.203-58.109,29.616
		L484.324,312.276L484.324,312.276z M334.056,233.46c18.295,0,35.14-6.285,48.499-16.798
		c-12.979-17.861-20.004-39.313-20.004-61.836c0-22.528,7.024-43.964,20.017-61.823c-13.366-10.512-30.21-16.783-48.512-16.783
		c-43.358,0-78.61,35.261-78.61,78.605C255.447,198.15,290.698,233.46,334.056,233.46z M400.996,196.012
		c7.402-11.988,11.672-26.097,11.672-41.178c0-15.095-4.27-29.205-11.672-41.194c-7.399,11.988-11.671,26.099-11.671,41.194
		C389.325,169.915,393.598,184.024,400.996,196.012z M546.536,154.834c0-43.349-35.255-78.61-78.604-78.61
		c-18.302,0-35.155,6.274-48.522,16.797c13.013,17.855,20.034,39.288,20.034,61.806c0,22.515-7.021,43.969-20.02,61.826
		c13.365,10.521,30.213,16.808,48.508,16.808c43.348,0,78.604-35.311,78.604-78.634V154.834L546.536,154.834z"/>
</g>
</svg>
