<?xml version="1.0" encoding="utf-8"?>
<!-- Generator: Adobe Illustrator 15.1.0, SVG Export Plug-In . SVG Version: 6.00 Build 0)  -->
<!DOCTYPE svg PUBLIC "-//W3C//DTD SVG 1.1//EN" "http://www.w3.org/Graphics/SVG/1.1/DTD/svg11.dtd">
<svg version="1.1" id="Layer_39" xmlns="http://www.w3.org/2000/svg" xmlns:xlink="http://www.w3.org/1999/xlink" x="0px" y="0px"
	 width="800px" height="450px" viewBox="0 0 800 450" enable-background="new 0 0 800 450" xml:space="preserve">
<g>
	<path fill="#ED1C24" d="M604.812,77.843V201.76h-26.746v-78.233l-77.699,77.697c14.288,18.365,22.038,40.825,22.038,64.482
		c0,28.14-10.971,54.626-30.874,74.505c-19.913,19.908-46.364,30.871-74.513,30.871c-28.141,0-54.629-10.963-74.539-30.871
		c-19.869-19.879-30.833-46.365-30.833-74.505c0-28.148,10.965-54.591,30.833-74.479c19.91-19.909,46.398-30.88,74.539-30.88
		c23.622,0,46.049,7.726,64.415,21.975l77.672-77.711h-79.7V77.843H604.812z M495.632,265.706c0-43.351-35.257-78.611-78.614-78.611
		c-43.36,0-78.606,35.26-78.606,78.611c0,43.315,35.246,78.63,78.606,78.63C460.374,344.336,495.632,309.022,495.632,265.706z"/>
</g>
</svg>
