<?xml version="1.0" encoding="utf-8"?>
<!-- Generator: Adobe Illustrator 15.1.0, SVG Export Plug-In . SVG Version: 6.00 Build 0)  -->
<!DOCTYPE svg PUBLIC "-//W3C//DTD SVG 1.1//EN" "http://www.w3.org/Graphics/SVG/1.1/DTD/svg11.dtd">
<svg version="1.1" id="Layer_38" xmlns="http://www.w3.org/2000/svg" xmlns:xlink="http://www.w3.org/1999/xlink" x="0px" y="0px"
	 width="800px" height="450px" viewBox="0 0 800 450" enable-background="new 0 0 800 450" xml:space="preserve">
<g>
	<path fill="#ED1C24" d="M326.455,291.25c-19.876-19.879-30.833-46.364-30.833-74.503c0-28.15,10.958-54.599,30.833-74.48
		c19.913-19.916,46.396-30.88,74.534-30.88c28.145,0,54.597,10.965,74.515,30.88c19.91,19.881,30.872,46.332,30.872,74.48
		c0,28.138-10.962,54.625-30.872,74.503c-19.917,19.908-46.37,30.871-74.515,30.871C372.85,322.123,346.368,311.158,326.455,291.25z
		 M479.6,216.748c0-43.353-35.256-78.613-78.61-78.613c-43.357,0-78.597,35.26-78.597,78.613c0,43.314,35.24,78.625,78.597,78.625
		C444.344,295.374,479.6,260.062,479.6,216.748z"/>
</g>
</svg>
