<?xml version="1.0" encoding="utf-8"?>
<!-- Generator: Adobe Illustrator 15.1.0, SVG Export Plug-In . SVG Version: 6.00 Build 0)  -->
<!DOCTYPE svg PUBLIC "-//W3C//DTD SVG 1.1//EN" "http://www.w3.org/Graphics/SVG/1.1/DTD/svg11.dtd">
<svg version="1.1" id="Layer_31" xmlns="http://www.w3.org/2000/svg" xmlns:xlink="http://www.w3.org/1999/xlink" x="0px" y="0px"
	 width="800px" height="450px" viewBox="0 0 800 450" enable-background="new 0 0 800 450" xml:space="preserve">
<g>
	<path fill="#ED1C24" d="M518.123,279.259c0,28.144-10.961,54.63-30.872,74.504c-19.909,19.91-46.361,30.872-74.506,30.872
		s-54.627-10.962-74.546-30.872c-19.871-19.875-30.833-46.36-30.833-74.504c0-6.3,0.551-12.509,1.63-18.579l-136.548-42.537
		l8.982-25.231l135.532,42.29c3.171-6.889,7.098-13.434,11.746-19.542L211.546,98.522l18.946-18.949l116.95,116.976
		c6.114-4.846,12.689-8.956,19.625-12.296L324.904,48.988l25.205-9.013l42.337,135.875c6.622-1.283,13.413-1.946,20.3-1.946
		c28.145,0,54.597,10.97,74.506,30.879C507.162,224.666,518.123,251.114,518.123,279.259z M491.353,279.259
		c0-43.348-35.26-78.607-78.607-78.607c-43.361,0-78.607,35.259-78.607,78.607c0,43.317,35.246,78.633,78.607,78.633
		C456.093,357.892,491.353,322.576,491.353,279.259z"/>
</g>
</svg>
