<?xml version="1.0" encoding="utf-8"?>
<!-- Generator: Adobe Illustrator 15.1.0, SVG Export Plug-In . SVG Version: 6.00 Build 0)  -->
<!DOCTYPE svg PUBLIC "-//W3C//DTD SVG 1.1//EN" "http://www.w3.org/Graphics/SVG/1.1/DTD/svg11.dtd">
<svg version="1.1" id="Layer_36" xmlns="http://www.w3.org/2000/svg" xmlns:xlink="http://www.w3.org/1999/xlink" x="0px" y="0px"
	 width="800px" height="450px" viewBox="0 0 800 450" enable-background="new 0 0 800 450" xml:space="preserve">
<g>
	<path fill="#ED1C24" d="M506.782,258.424c0,28.145-10.97,54.631-30.883,74.5c-19.911,19.917-46.354,30.881-74.496,30.881
		c-28.144,0-54.628-10.964-74.542-30.881c-19.87-19.869-30.841-46.355-30.841-74.5c0-23.654,7.741-46.103,22.01-64.468
		L281.35,157.33l-13.287,49.713l-25.892-6.908l13.324-49.708l-49.691,13.283l-6.967-25.83l49.715-13.306L212.186,88.17
		l18.916-18.917l36.402,36.404l13.347-49.709l25.855,6.926l-13.342,49.715l49.707-13.348l6.913,25.895l-49.648,13.281l36.614,36.639
		c18.381-14.251,40.83-21.978,64.456-21.978c28.142,0,54.585,10.969,74.496,30.874C495.813,203.837,506.782,230.283,506.782,258.424
		z M480.001,258.424c0-43.341-35.25-78.604-78.598-78.604c-43.364,0-78.612,35.264-78.612,78.604
		c0,43.323,35.248,78.632,78.612,78.632C444.751,337.057,480.001,301.747,480.001,258.424z"/>
</g>
</svg>
