<?xml version="1.0" encoding="utf-8"?>
<!-- Generator: Adobe Illustrator 15.1.0, SVG Export Plug-In . SVG Version: 6.00 Build 0)  -->
<!DOCTYPE svg PUBLIC "-//W3C//DTD SVG 1.1//EN" "http://www.w3.org/Graphics/SVG/1.1/DTD/svg11.dtd">
<svg version="1.1" id="Layer_37" xmlns="http://www.w3.org/2000/svg" xmlns:xlink="http://www.w3.org/1999/xlink" x="0px" y="0px"
	 width="800px" height="450px" viewBox="0 0 800 450" enable-background="new 0 0 800 450" xml:space="preserve">
<g>
	<path fill="#ED1C24" d="M506.376,306.219c0,28.141-10.958,54.625-30.867,74.497c-19.919,19.917-46.366,30.879-74.509,30.879
		c-28.144,0-54.63-10.962-74.548-30.879c-19.871-19.874-30.832-46.356-30.832-74.497c0-28.151,10.962-54.593,30.832-74.477
		c16.58-16.575,37.708-26.948,60.555-29.961c0.014-39.846,18.18-56.45,32.403-69.385c11.271-10.282,18.745-17.093,18.745-34.215
		c0-19.666-14.223-33.192-34.854-33.192c-12.95,0-22.833,3.473-29.72,10.502c-10.561,10.83-12.371,28.793-12.318,36.365
		l-26.772,0.021c-0.026-17.003,5.066-39.888,20.018-55.119c9.531-9.73,25.2-18.539,48.792-18.539
		c35.33,0,61.602,25.585,61.602,59.962c0,28.931-14.95,42.592-27.418,53.955c-13.037,11.924-23.575,21.535-23.653,49.492
		c23.283,2.82,44.826,13.261,61.679,30.112C495.419,251.626,506.376,278.069,506.376,306.219z M479.614,306.219
		c0-43.35-35.266-78.607-78.612-78.607c-43.366,0-78.607,35.259-78.607,78.607c0,43.32,35.239,78.63,78.607,78.63
		C444.347,384.849,479.614,349.539,479.614,306.219z"/>
</g>
</svg>
