<?xml version="1.0" encoding="utf-8"?>
<!-- Generator: Adobe Illustrator 15.1.0, SVG Export Plug-In . SVG Version: 6.00 Build 0)  -->
<!DOCTYPE svg PUBLIC "-//W3C//DTD SVG 1.1//EN" "http://www.w3.org/Graphics/SVG/1.1/DTD/svg11.dtd">
<svg version="1.1" id="RESULT" xmlns="http://www.w3.org/2000/svg" xmlns:xlink="http://www.w3.org/1999/xlink" x="0px" y="0px"
	 width="800px" height="226px" viewBox="12 112 800 226" enable-background="new 12 112 800 226" xml:space="preserve">
<g>
	<g>
		<path fill="#ED1C24" d="M274.452,146.899l-23.101,58.601h-22.2l22.601-55.7h-23.5v-18h46.2V146.899z"/>
		<path fill="#ED1C24" d="M348.351,173.299c-3.066,0-6.134,0.435-9.2,1.3c-3.066,0.867-5.535,2.134-7.399,3.8v27.101h-23.3v-52.601
			h23.3v9.9c2-3.2,4.55-5.833,7.649-7.9c3.101-2.064,6.283-3.1,9.55-3.1L348.351,173.299z"/>
		<path fill="#ED1C24" d="M357.35,144.149c-2.4-2.033-3.6-4.683-3.6-7.95c0-3.133,1.149-5.666,3.449-7.6
			c2.301-1.933,5.283-2.9,8.95-2.9c3.333,0,6.215,1,8.65,3c2.433,2,3.649,4.635,3.649,7.9c0,3.134-1.134,5.684-3.399,7.65
			c-2.268,1.967-5.234,2.949-8.9,2.949C362.683,147.198,359.75,146.184,357.35,144.149z M354.449,152.899h23.301v52.601h-23.301
			V152.899z"/>
		<path fill="#ED1C24" d="M435.049,198.799c0,9.399-2.017,16.466-6.049,21.2c-4.035,4.732-10.687,7.1-19.951,7.1
			c-7.601,0-14.935-1.367-22-4.1l3.7-13.801c4.532,2,8.766,3,12.699,3c3.4,0,5.865-0.717,7.4-2.149c1.533-1.435,2.365-3.75,2.5-6.95
			c-2.4,2.733-5.634,4.1-9.7,4.1c-3.467,0-6.634-0.967-9.5-2.899c-2.867-1.934-5.149-4.851-6.85-8.75
			c-1.7-3.9-2.55-8.715-2.55-14.45c0-6.933,1.232-12.6,3.699-17c2.466-4.4,5.5-7.55,9.101-9.45c3.6-1.899,7.2-2.85,10.8-2.85
			c4.199,0,9.051,0.45,14.551,1.35c5.5,0.9,9.549,1.917,12.148,3.05L435.049,198.799L435.049,198.799z M413.35,192.399v-24.1
			c-2.734,0.066-4.8,0.95-6.2,2.649c-1.399,1.7-2.1,5.018-2.1,9.95c0,4.535,0.565,7.7,1.7,9.5c1.133,1.8,2.433,2.7,3.899,2.7
			C411.315,193.099,412.216,192.865,413.35,192.399z"/>
		<path fill="#ED1C24" d="M494.599,156.999c2.033,3.267,3.05,7.899,3.05,13.899v34.601h-23.3v-30.101c0-1.2-0.267-2.25-0.8-3.149
			c-0.534-0.9-1.436-1.351-2.7-1.351c-0.734,0-1.534,0.167-2.399,0.5v34.101H445.05v-80h23.399v33.699
			c2.732-2.532,5.267-4.35,7.601-5.449c2.333-1.101,4.933-1.65,7.8-1.65C488.982,152.099,492.565,153.734,494.599,156.999z"/>
		<path fill="#ED1C24" d="M546.948,202.399c-3.066,1.467-5.717,2.467-7.95,3s-4.55,0.8-6.948,0.8c-7.936,0-13.668-2.282-17.2-6.85
			c-3.534-4.566-5.3-11.05-5.3-19.45v-13h-5.9v-14h5.9v-13.399h22.1v13.399h12.4v14h-12.4v12.8c0,4.067,0.55,6.885,1.65,8.45
			c1.1,1.567,2.648,2.351,4.648,2.351c1.533,0,3.634-0.4,6.3-1.2L546.948,202.399z"/>
		<path fill="#ED1C24" d="M555.248,184.599c4.199,2.2,7.516,3.8,9.949,4.8s4.684,1.5,6.75,1.5c0.934,0,1.717-0.183,2.351-0.55
			c0.633-0.366,0.95-0.916,0.95-1.65c0-1.065-0.584-1.933-1.75-2.6c-1.168-0.666-3.084-1.433-5.75-2.3
			c-3.067-1-5.635-2.017-7.7-3.05c-2.066-1.033-3.851-2.533-5.351-4.5s-2.25-4.483-2.25-7.551c0-5.532,2.232-9.732,6.7-12.6
			c4.466-2.866,9.966-4.3,16.5-4.3c3.933,0,7.716,0.45,11.351,1.35c3.633,0.9,6.55,1.984,8.75,3.25l-4.2,14.7
			c-1.935-1-4.084-1.816-6.449-2.45c-2.367-0.633-4.418-0.95-6.15-0.95c-2.935,0-4.399,0.601-4.399,1.801
			c0,0.6,0.466,1.134,1.399,1.6c0.934,0.467,2.4,1,4.4,1.6c3.332,1,6.165,2.067,8.5,3.2c2.332,1.134,4.399,2.867,6.199,5.2
			c1.801,2.334,2.7,5.367,2.7,9.1c0,5.734-1.918,10-5.75,12.801c-3.834,2.8-8.95,4.199-15.351,4.199
			c-5.268,0-10.185-0.784-14.75-2.35c-4.567-1.566-8.218-3.583-10.95-6.05L555.248,184.599z"/>
		<path fill="#939598" d="M241.153,270.099c1.9,3.2,2.851,7.234,2.851,12.1c0,7.268-2.284,12.667-6.851,16.2
			c-4.566,3.535-11.149,5.3-19.75,5.3c-8.066,0-14.366-1.532-18.899-4.6c-4.534-3.065-6.8-7.666-6.8-13.8
			c0-4.333,1.064-8.083,3.199-11.25c2.134-3.166,4.9-5.95,8.301-8.351c-3.268-2.266-5.817-4.8-7.65-7.6
			c-1.834-2.8-2.75-6.133-2.75-10c0-4.333,1.2-8.066,3.6-11.2c2.4-3.133,5.615-5.482,9.65-7.05c4.033-1.566,8.383-2.35,13.05-2.35
			c5,0,9.25,0.85,12.75,2.55s6.133,4,7.9,6.899c1.766,2.9,2.649,6.051,2.649,9.45c0,3.467-0.816,6.417-2.449,8.851
			c-1.635,2.435-3.851,4.649-6.65,6.649C236.635,264.166,239.252,266.899,241.153,270.099z M221.903,286.198c1-1,1.5-2.3,1.5-3.899
			c0-1.732-0.616-3.3-1.85-4.7c-1.234-1.399-2.984-2.8-5.25-4.2c-1.334,1.334-2.3,2.617-2.9,3.851
			c-0.6,1.233-0.899,2.649-0.899,4.25c0,1.867,0.433,3.367,1.3,4.5c0.866,1.134,2.2,1.7,4,1.7
			C219.535,287.698,220.903,287.198,221.903,286.198z M215.153,243.849c-0.899,0.834-1.35,1.95-1.35,3.35
			c0,1.534,0.516,2.867,1.55,4c1.033,1.135,2.55,2.268,4.55,3.4c0.934-1,1.684-2.133,2.25-3.4c0.565-1.266,0.851-2.532,0.851-3.8
			c0-1.266-0.334-2.383-1-3.35c-0.667-0.965-1.8-1.45-3.4-1.45C217.202,242.599,216.052,243.016,215.153,243.849z"/>
		<path fill="#939598" d="M357.501,249.899l-13.2,52.601h-25.8l-3.7-18.7l-4.101,18.7h-24.8l-13.2-52.601h24.5l3.101,32.3l6.6-28.3
			h16.4l6.5,30.2l3.2-34.2H357.501L357.501,249.899z"/>
		<path fill="#939598" d="M403.401,270.299c-3.066,0-6.134,0.435-9.2,1.3c-3.066,0.867-5.534,2.134-7.399,3.8v27.101h-23.3v-52.601
			h23.3v9.9c2-3.2,4.55-5.833,7.649-7.9c3.101-2.064,6.283-3.1,9.551-3.1L403.401,270.299z"/>
		<path fill="#939598" d="M415.151,297.599c-3.768-4.4-5.65-11.4-5.65-21c0-6.4,0.815-11.633,2.45-15.7
			c1.634-4.064,4.333-7.1,8.101-9.1c3.766-2,8.814-3,15.149-3c8.934,0,15.282,2.233,19.05,6.7c3.767,4.467,5.65,11.5,5.65,21.1
			c0,6.4-0.816,11.617-2.45,15.65c-1.635,4.033-4.316,7.033-8.05,9c-3.734,1.966-8.801,2.949-15.2,2.949
			C425.266,304.198,418.916,301.999,415.151,297.599z M437.901,285.198c0.6-1.665,0.899-4.865,0.899-9.6c0-4.533-0.3-7.6-0.899-9.2
			c-0.601-1.6-1.668-2.399-3.2-2.399c-1.066,0-1.885,0.334-2.45,1c-0.566,0.667-0.967,1.816-1.199,3.449
			c-0.234,1.635-0.351,4.018-0.351,7.15c0,3.267,0.115,5.767,0.351,7.5c0.232,1.734,0.633,2.935,1.199,3.6
			c0.565,0.668,1.384,1,2.45,1C436.233,287.698,437.3,286.865,437.901,285.198z"/>
		<path fill="#939598" d="M518.15,253.999c2.033,3.267,3.05,7.899,3.05,13.899v34.601h-23.3v-30.101c0-1.2-0.268-2.25-0.8-3.149
			c-0.534-0.9-1.436-1.351-2.7-1.351c-0.6,0-1.5,0.2-2.7,0.601v34h-23.3v-52.601h23.3v6.5c2.801-2.533,5.4-4.383,7.801-5.55
			c2.399-1.166,5.032-1.75,7.899-1.75C512.531,249.099,516.115,250.734,518.15,253.999z"/>
		<path fill="#939598" d="M579.998,295.799c0,9.399-2.018,16.466-6.051,21.2c-4.033,4.732-10.685,7.1-19.949,7.1
			c-7.601,0-14.936-1.367-22-4.1l3.699-13.801c4.533,2,8.767,3,12.7,3c3.399,0,5.865-0.717,7.399-2.149
			c1.533-1.435,2.365-3.75,2.5-6.95c-2.399,2.733-5.635,4.1-9.699,4.1c-3.468,0-6.635-0.967-9.5-2.899
			c-2.867-1.933-5.15-4.851-6.852-8.75c-1.699-3.9-2.55-8.715-2.55-14.45c0-6.933,1.232-12.6,3.7-17c2.466-4.399,5.5-7.55,9.1-9.45
			c3.602-1.899,7.2-2.85,10.801-2.85c4.199,0,9.051,0.45,14.551,1.35c5.5,0.9,9.55,1.917,12.148,3.05v42.601H579.998z
			 M558.298,289.399v-24.1c-2.734,0.066-4.8,0.95-6.199,2.649c-1.4,1.7-2.101,5.018-2.101,9.95c0,4.535,0.564,7.7,1.699,9.5
			c1.133,1.8,2.434,2.7,3.9,2.7C556.264,290.099,557.164,289.865,558.298,289.399z"/>
		<path fill="#939598" d="M591.298,281.599c4.2,2.2,7.516,3.8,9.95,4.8c2.433,1,4.683,1.5,6.75,1.5c0.933,0,1.716-0.183,2.35-0.55
			c0.633-0.366,0.95-0.916,0.95-1.65c0-1.065-0.584-1.933-1.75-2.6c-1.167-0.666-3.084-1.433-5.75-2.3
			c-3.067-1-5.634-2.017-7.7-3.05s-3.85-2.533-5.35-4.5s-2.25-4.483-2.25-7.551c0-5.532,2.231-9.732,6.699-12.6
			c4.467-2.866,9.967-4.3,16.5-4.3c3.934,0,7.717,0.45,11.351,1.35c3.633,0.9,6.55,1.984,8.75,3.25l-4.2,14.7
			c-1.935-1-4.084-1.816-6.449-2.45c-2.367-0.633-4.418-0.95-6.15-0.95c-2.935,0-4.399,0.601-4.399,1.801
			c0,0.6,0.466,1.134,1.399,1.6c0.934,0.467,2.4,1,4.4,1.6c3.332,1,6.165,2.067,8.5,3.2c2.332,1.135,4.399,2.867,6.199,5.2
			c1.801,2.334,2.7,5.367,2.7,9.1c0,5.734-1.917,10-5.75,12.801c-3.834,2.8-8.95,4.199-15.351,4.199
			c-5.268,0-10.185-0.784-14.75-2.35c-4.566-1.565-8.218-3.583-10.949-6.05L591.298,281.599z"/>
	</g>
</g>
</svg>
