<?xml version="1.0" encoding="utf-8"?>
<!-- Generator: Adobe Illustrator 15.1.0, SVG Export Plug-In . SVG Version: 6.00 Build 0)  -->
<!DOCTYPE svg PUBLIC "-//W3C//DTD SVG 1.1//EN" "http://www.w3.org/Graphics/SVG/1.1/DTD/svg11.dtd">
<svg version="1.1" id="RESULT" xmlns="http://www.w3.org/2000/svg" xmlns:xlink="http://www.w3.org/1999/xlink" x="0px" y="0px"
	 width="800px" height="226px" viewBox="12 112 800 226" enable-background="new 12 112 800 226" xml:space="preserve">
<g>
	<g>
		<path fill="#ED1C24" d="M274.052,173.099c1.9,3.2,2.85,7.234,2.85,12.1c0,7.268-2.283,12.667-6.85,16.2
			c-4.567,3.535-11.15,5.3-19.75,5.3c-8.067,0-14.367-1.532-18.9-4.6c-4.533-3.066-6.8-7.666-6.8-13.8
			c0-4.333,1.065-8.083,3.2-11.25c2.133-3.166,4.9-5.95,8.3-8.351c-3.267-2.266-5.816-4.8-7.649-7.6c-1.834-2.8-2.75-6.133-2.75-10
			c0-4.333,1.199-8.066,3.6-11.2c2.4-3.133,5.615-5.482,9.65-7.05c4.032-1.566,8.383-2.35,13.05-2.35c5,0,9.25,0.85,12.75,2.55
			s6.133,4,7.899,6.899c1.767,2.9,2.65,6.051,2.65,9.45c0,3.467-0.817,6.417-2.45,8.851c-1.634,2.435-3.85,4.649-6.649,6.649
			C269.535,167.166,272.152,169.899,274.052,173.099z M254.802,189.198c1-1,1.5-2.3,1.5-3.899c0-1.732-0.617-3.3-1.85-4.7
			c-1.234-1.4-2.984-2.8-5.25-4.2c-1.334,1.334-2.301,2.617-2.9,3.851s-0.9,2.649-0.9,4.25c0,1.866,0.434,3.366,1.301,4.5
			c0.865,1.134,2.199,1.699,4,1.699C252.435,190.698,253.802,190.198,254.802,189.198z M248.052,146.849
			c-0.9,0.834-1.35,1.95-1.35,3.35c0,1.534,0.516,2.867,1.55,4c1.033,1.135,2.55,2.268,4.55,3.4c0.933-1,1.683-2.133,2.25-3.4
			c0.564-1.266,0.85-2.532,0.85-3.8c0-1.266-0.334-2.383-1-3.35c-0.667-0.965-1.8-1.45-3.399-1.45
			C250.102,145.599,248.952,146.016,248.052,146.849z"/>
		<path fill="#ED1C24" d="M349.501,173.299c-3.067,0-6.135,0.435-9.2,1.3c-3.067,0.867-5.535,2.134-7.4,3.8v27.101h-23.3v-52.601
			h23.3v9.9c2-3.2,4.55-5.833,7.65-7.9c3.1-2.064,6.283-3.1,9.55-3.1L349.501,173.299z"/>
		<path fill="#ED1C24" d="M358.5,144.149c-2.4-2.033-3.601-4.683-3.601-7.95c0-3.133,1.15-5.666,3.45-7.6
			c2.3-1.933,5.283-2.9,8.95-2.9c3.333,0,6.215,1,8.649,3c2.434,2,3.65,4.635,3.65,7.9c0,3.134-1.134,5.684-3.4,7.65
			s-5.233,2.949-8.899,2.949C363.833,147.198,360.9,146.184,358.5,144.149z M355.6,152.899h23.3v52.601h-23.3V152.899z"/>
		<path fill="#ED1C24" d="M436.198,198.799c0,9.399-2.017,16.466-6.05,21.2c-4.034,4.732-10.685,7.1-19.95,7.1
			c-7.6,0-14.934-1.367-22-4.1l3.7-13.801c4.533,2,8.767,3,12.7,3c3.399,0,5.865-0.717,7.399-2.149c1.532-1.435,2.365-3.75,2.5-6.95
			c-2.399,2.733-5.635,4.1-9.7,4.1c-3.467,0-6.634-0.967-9.5-2.899c-2.867-1.934-5.15-4.851-6.851-8.75
			c-1.699-3.9-2.55-8.715-2.55-14.45c0-6.933,1.233-12.6,3.7-17c2.465-4.4,5.5-7.55,9.1-9.45c3.601-1.899,7.2-2.85,10.801-2.85
			c4.199,0,9.05,0.45,14.55,1.35c5.5,0.9,9.55,1.917,12.148,3.05v42.601H436.198z M414.498,192.399v-24.1
			c-2.732,0.066-4.8,0.95-6.199,2.649c-1.4,1.7-2.101,5.018-2.101,9.95c0,4.535,0.566,7.7,1.7,9.5c1.133,1.8,2.434,2.7,3.899,2.7
			C412.465,193.099,413.365,192.865,414.498,192.399z"/>
		<path fill="#ED1C24" d="M495.748,156.999c2.033,3.267,3.051,7.899,3.051,13.899v34.601h-23.301v-30.101
			c0-1.2-0.267-2.25-0.8-3.149c-0.534-0.9-1.435-1.351-2.7-1.351c-0.733,0-1.533,0.167-2.398,0.5v34.101h-23.4v-80h23.4v33.699
			c2.732-2.532,5.266-4.35,7.6-5.449c2.333-1.101,4.934-1.65,7.801-1.65C490.132,152.099,493.715,153.734,495.748,156.999z"/>
		<path fill="#ED1C24" d="M548.1,202.399c-3.067,1.467-5.717,2.467-7.95,3s-4.55,0.8-6.949,0.8c-7.935,0-13.668-2.282-17.2-6.85
			c-3.533-4.566-5.3-11.05-5.3-19.45v-13h-5.899v-14h5.899v-13.399h22.101v13.399H545.2v14h-12.399v12.8
			c0,4.067,0.55,6.885,1.649,8.45c1.101,1.567,2.649,2.351,4.649,2.351c1.533,0,3.633-0.4,6.3-1.2L548.1,202.399z"/>
		<path fill="#ED1C24" d="M556.399,184.599c4.2,2.2,7.516,3.8,9.95,4.8c2.433,1,4.683,1.5,6.75,1.5c0.933,0,1.716-0.183,2.35-0.55
			c0.634-0.366,0.95-0.916,0.95-1.65c0-1.065-0.584-1.933-1.75-2.6c-1.167-0.666-3.084-1.433-5.75-2.3
			c-3.066-1-5.634-2.017-7.7-3.05c-2.065-1.033-3.85-2.533-5.35-4.5s-2.25-4.483-2.25-7.551c0-5.532,2.231-9.732,6.7-12.6
			c4.466-2.866,9.966-4.3,16.5-4.3c3.933,0,7.716,0.45,11.35,1.35c3.633,0.9,6.55,1.984,8.75,3.25l-4.2,14.7
			c-1.934-1-4.084-1.816-6.448-2.45c-2.367-0.633-4.418-0.95-6.15-0.95c-2.936,0-4.4,0.601-4.4,1.801c0,0.6,0.467,1.134,1.4,1.6
			c0.933,0.467,2.4,1,4.4,1.6c3.332,1,6.164,2.067,8.5,3.2c2.332,1.134,4.398,2.867,6.198,5.2c1.802,2.334,2.7,5.367,2.7,9.1
			c0,5.734-1.917,10-5.75,12.801c-3.834,2.8-8.95,4.199-15.35,4.199c-5.269,0-10.186-0.784-14.75-2.35
			c-4.567-1.566-8.219-3.583-10.95-6.05L556.399,184.599z"/>
		<path fill="#939598" d="M239.553,243.899l-23.1,58.601h-22.2l22.6-55.7h-23.5v-18h46.2V243.899z"/>
		<path fill="#939598" d="M354.352,249.899l-13.2,52.601h-25.8l-3.7-18.7l-4.1,18.7h-24.8l-13.2-52.601h24.5l3.1,32.3l6.601-28.3
			h16.399l6.5,30.2l3.2-34.2H354.352L354.352,249.899z"/>
		<path fill="#939598" d="M400.252,270.299c-3.067,0-6.134,0.435-9.2,1.3c-3.067,0.867-5.535,2.134-7.4,3.8v27.101h-23.3v-52.601
			h23.3v9.9c2-3.2,4.551-5.833,7.65-7.9c3.1-2.064,6.283-3.1,9.55-3.1L400.252,270.299z"/>
		<path fill="#939598" d="M412,297.599c-3.768-4.4-5.649-11.4-5.649-21c0-6.4,0.815-11.633,2.45-15.7c1.633-4.064,4.333-7.1,8.1-9.1
			c3.766-2,8.815-3,15.15-3c8.933,0,15.281,2.233,19.05,6.7c3.766,4.467,5.649,11.5,5.649,21.1c0,6.4-0.816,11.617-2.449,15.65
			c-1.635,4.033-4.317,7.033-8.051,9c-3.733,1.966-8.801,2.949-15.199,2.949C422.115,304.198,415.767,301.999,412,297.599z
			 M434.75,285.198c0.601-1.665,0.899-4.865,0.899-9.6c0-4.533-0.3-7.6-0.899-9.2c-0.601-1.6-1.668-2.399-3.199-2.399
			c-1.067,0-1.885,0.334-2.45,1c-0.567,0.667-0.967,1.816-1.2,3.449c-0.234,1.635-0.35,4.018-0.35,7.15
			c0,3.267,0.115,5.767,0.35,7.5c0.233,1.734,0.633,2.935,1.2,3.6c0.565,0.668,1.383,1,2.45,1
			C433.082,287.698,434.151,286.865,434.75,285.198z"/>
		<path fill="#939598" d="M515,253.999c2.032,3.267,3.05,7.899,3.05,13.899v34.601h-23.3v-30.101c0-1.2-0.269-2.25-0.801-3.149
			c-0.533-0.9-1.435-1.351-2.699-1.351c-0.601,0-1.5,0.2-2.7,0.601v34h-23.3v-52.601h23.3v6.5c2.8-2.533,5.399-4.383,7.8-5.55
			c2.4-1.166,5.033-1.75,7.9-1.75C509.383,249.099,512.966,250.734,515,253.999z"/>
		<path fill="#939598" d="M576.849,295.799c0,9.399-2.017,16.466-6.05,21.2c-4.034,4.732-10.686,7.1-19.95,7.1
			c-7.601,0-14.935-1.367-22-4.1l3.7-13.801c4.533,2,8.766,3,12.699,3c3.399,0,5.865-0.717,7.399-2.149
			c1.533-1.435,2.366-3.75,2.5-6.95c-2.399,2.733-5.634,4.1-9.699,4.1c-3.468,0-6.635-0.967-9.5-2.899
			c-2.866-1.933-5.149-4.851-6.851-8.75c-1.7-3.9-2.55-8.715-2.55-14.45c0-6.933,1.231-12.6,3.7-17c2.466-4.399,5.5-7.55,9.1-9.45
			c3.601-1.899,7.2-2.85,10.8-2.85c4.2,0,9.051,0.45,14.551,1.35c5.5,0.9,9.55,1.917,12.149,3.05L576.849,295.799L576.849,295.799z
			 M555.149,289.399v-24.1c-2.734,0.066-4.8,0.95-6.199,2.649c-1.399,1.7-2.101,5.018-2.101,9.95c0,4.535,0.565,7.7,1.7,9.5
			c1.133,1.8,2.433,2.7,3.899,2.7C553.115,290.099,554.015,289.865,555.149,289.399z"/>
		<path fill="#939598" d="M588.149,281.599c4.2,2.2,7.516,3.8,9.95,4.8c2.433,1,4.683,1.5,6.75,1.5c0.933,0,1.716-0.183,2.35-0.55
			c0.634-0.366,0.95-0.916,0.95-1.65c0-1.065-0.584-1.933-1.75-2.6c-1.167-0.666-3.084-1.433-5.75-2.3
			c-3.066-1-5.634-2.017-7.7-3.05c-2.065-1.033-3.85-2.533-5.35-4.5s-2.25-4.483-2.25-7.551c0-5.532,2.231-9.732,6.7-12.6
			c4.466-2.866,9.966-4.3,16.5-4.3c3.933,0,7.716,0.45,11.35,1.35c3.633,0.9,6.55,1.984,8.75,3.25l-4.2,14.7
			c-1.934-1-4.084-1.816-6.448-2.45c-2.367-0.633-4.418-0.95-6.15-0.95c-2.936,0-4.4,0.601-4.4,1.801c0,0.6,0.467,1.134,1.4,1.6
			c0.933,0.467,2.4,1,4.4,1.6c3.332,1,6.164,2.067,8.5,3.2c2.332,1.135,4.398,2.867,6.198,5.2c1.802,2.334,2.7,5.367,2.7,9.1
			c0,5.734-1.917,10-5.75,12.801c-3.834,2.8-8.95,4.199-15.35,4.199c-5.269,0-10.186-0.784-14.75-2.35
			c-4.567-1.565-8.219-3.583-10.95-6.05L588.149,281.599z"/>
	</g>
</g>
</svg>
