<?xml version="1.0" encoding="utf-8"?>
<!-- Generator: Adobe Illustrator 15.1.0, SVG Export Plug-In . SVG Version: 6.00 Build 0)  -->
<!DOCTYPE svg PUBLIC "-//W3C//DTD SVG 1.1//EN" "http://www.w3.org/Graphics/SVG/1.1/DTD/svg11.dtd">
<svg version="1.1" id="RESULT" xmlns="http://www.w3.org/2000/svg" xmlns:xlink="http://www.w3.org/1999/xlink" x="0px" y="0px"
	 width="800px" height="226px" viewBox="0 0 800 226" enable-background="new 0 0 800 226" xml:space="preserve">
<g>
	<path fill="#EC1C24" d="M225.145,90.327h-22.6v-54.6h-0.7l-10.3,2.7v-16.5l21.3-5.9h12.3V90.327z"/>
	<path fill="#EC1C24" d="M266.894,42.977c4.833-4.233,11.283-6.35,19.35-6.35c6.266,0,12.4,1.1,18.4,3.3l-2.1,14.7
		c-4-1-7.667-1.5-11-1.5c-3.2,0-5.567,0.75-7.1,2.25c-1.534,1.5-2.3,4.35-2.3,8.55c0,3.934,0.75,6.7,2.25,8.3s3.983,2.4,7.45,2.4
		c3.533,0,7.365-0.6,11.5-1.8l2.4,15.2c-2.467,1.134-5.567,2.084-9.3,2.85c-3.734,0.766-7.267,1.15-10.6,1.15
		c-7.535,0-13.785-2.283-18.75-6.85c-4.967-4.566-7.45-11.75-7.45-21.55C259.644,54.094,262.06,47.211,266.894,42.977z"/>
	<path fill="#EC1C24" d="M316.893,85.427c-3.767-4.4-5.65-11.4-5.65-21c0-6.4,0.815-11.633,2.45-15.7c1.633-4.065,4.333-7.1,8.1-9.1
		c3.766-2,8.816-3,15.15-3c8.933,0,15.283,2.234,19.05,6.7c3.766,4.467,5.65,11.5,5.65,21.1c0,6.4-0.817,11.617-2.45,15.65
		c-1.635,4.034-4.317,7.034-8.05,9c-3.734,1.966-8.8,2.95-15.2,2.95C327.009,92.027,320.659,89.827,316.893,85.427z M339.643,73.027
		c0.6-1.666,0.9-4.866,0.9-9.6c0-4.533-0.3-7.6-0.9-9.2s-1.667-2.4-3.2-2.4c-1.067,0-1.885,0.334-2.45,1
		c-0.567,0.667-0.967,1.817-1.2,3.45c-0.234,1.634-0.35,4.017-0.35,7.15c0,3.267,0.115,5.767,0.35,7.5
		c0.233,1.734,0.633,2.934,1.2,3.6c0.565,0.667,1.383,1,2.45,1C337.976,75.527,339.043,74.694,339.643,73.027z"/>
	<path fill="#EC1C24" d="M410.043,58.127c-3.068,0-6.135,0.435-9.201,1.3c-3.067,0.867-5.534,2.134-7.4,3.8v27.1h-23.3v-52.6h23.3
		v9.9c2-3.2,4.55-5.833,7.65-7.9c3.1-2.065,6.283-3.1,9.551-3.1L410.043,58.127z"/>
	<path fill="#EC1C24" d="M457.542,58.127c-3.067,0-6.135,0.435-9.2,1.3c-3.067,0.867-5.534,2.134-7.4,3.8v27.1h-23.3v-52.6h23.3v9.9
		c2-3.2,4.55-5.833,7.65-7.9c3.1-2.065,6.282-3.1,9.55-3.1L457.542,58.127z"/>
	<path fill="#EC1C24" d="M508.541,72.427l2.399,15.5c-2.8,1.267-6.084,2.267-9.85,3c-3.768,0.733-7.284,1.1-10.55,1.1
		c-7.734,0-14.15-2.283-19.25-6.85c-5.101-4.566-7.65-11.683-7.65-21.35c0-9.666,2.516-16.616,7.55-20.85
		c5.033-4.233,11.351-6.35,18.95-6.35c6.533,0,11.865,1.584,16,4.75c4.133,3.167,6.2,8.317,6.2,15.45
		c0,3.467-0.534,7.167-1.601,11.1l-24.6-0.2c0.666,2.467,1.766,4.234,3.3,5.3c1.533,1.067,3.633,1.6,6.3,1.6
		C499.274,74.627,503.541,73.895,508.541,72.427z M486.291,51.027c-0.7,1.267-1.085,3.3-1.15,6.1l9.5-0.3v-0.9
		c0-2.133-0.284-3.8-0.85-5c-0.567-1.2-1.785-1.8-3.65-1.8C488.274,49.127,486.99,49.762,486.291,51.027z"/>
	<path fill="#EC1C24" d="M526.59,42.977c4.833-4.233,11.283-6.35,19.35-6.35c6.266,0,12.4,1.1,18.4,3.3l-2.1,14.7
		c-4-1-7.668-1.5-11-1.5c-3.2,0-5.567,0.75-7.101,2.25c-1.534,1.5-2.3,4.35-2.3,8.55c0,3.934,0.75,6.7,2.25,8.3s3.982,2.4,7.45,2.4
		c3.532,0,7.365-0.6,11.5-1.8l2.399,15.2c-2.467,1.134-5.566,2.084-9.3,2.85c-3.734,0.766-7.267,1.15-10.6,1.15
		c-7.534,0-13.784-2.283-18.75-6.85c-4.968-4.566-7.45-11.75-7.45-21.55C519.34,54.094,521.756,47.211,526.59,42.977z"/>
	<path fill="#EC1C24" d="M612.74,87.227c-3.067,1.467-5.717,2.467-7.95,3c-2.234,0.533-4.55,0.8-6.949,0.8
		c-7.935,0-13.668-2.283-17.2-6.85c-3.534-4.566-5.3-11.05-5.3-19.45v-13h-5.9v-14h5.9v-13.4h22.1v13.4h12.4v14h-12.4v12.8
		c0,4.067,0.55,6.884,1.65,8.45c1.1,1.567,2.649,2.35,4.649,2.35c1.533,0,3.633-0.4,6.3-1.2L612.74,87.227z"/>
	<path fill="#929497" d="M215.494,187.327h-22.6v-54.601h-0.7l-10.3,2.701v-16.5l21.3-5.9h12.3V187.327z"/>
	<path fill="#929497" d="M283.094,172.127h-7.9v15.2h-22.6v-15.2h-29.1v-16.5l31.5-41.9h20.2v42.101h7.9V172.127z M252.594,155.827
		v-14l-10.6,14H252.594z"/>
	<path fill="#929497" d="M396.893,134.727l-13.2,52.601h-25.8l-3.7-18.7l-4.1,18.7h-24.8l-13.2-52.601h24.5l3.1,32.301l6.6-28.301
		h16.4l6.5,30.201l3.2-34.201H396.893z"/>
	<path fill="#929497" d="M442.793,155.127c-3.067,0-6.135,0.435-9.2,1.301c-3.067,0.867-5.534,2.134-7.4,3.799v27.101h-23.3v-52.601
		h23.3v9.9c2-3.199,4.55-5.832,7.65-7.9c3.1-2.064,6.282-3.1,9.55-3.1L442.793,155.127z"/>
	<path fill="#929497" d="M454.542,182.428c-3.768-4.4-5.65-11.4-5.65-21c0-6.4,0.815-11.633,2.45-15.701
		c1.633-4.064,4.333-7.1,8.1-9.1c3.766-2,8.815-3,15.15-3c8.933,0,15.282,2.234,19.05,6.7c3.766,4.468,5.65,11.5,5.65,21.101
		c0,6.399-0.817,11.617-2.45,15.649c-1.635,4.034-4.317,7.034-8.05,9c-3.734,1.966-8.801,2.95-15.2,2.95
		C464.657,189.027,458.308,186.827,454.542,182.428z M477.292,170.027c0.6-1.666,0.899-4.865,0.899-9.6
		c0-4.533-0.3-7.601-0.899-9.201c-0.601-1.6-1.668-2.399-3.2-2.399c-1.067,0-1.885,0.335-2.45,1c-0.567,0.667-0.967,1.817-1.2,3.45
		c-0.234,1.635-0.35,4.018-0.35,7.15c0,3.267,0.115,5.767,0.35,7.5c0.233,1.734,0.633,2.934,1.2,3.6c0.565,0.667,1.383,1,2.45,1
		C475.624,172.527,476.692,171.694,477.292,170.027z"/>
	<path fill="#929497" d="M557.541,138.827c2.033,3.267,3.05,7.899,3.05,13.899v34.601h-23.3v-30.101c0-1.199-0.268-2.25-0.8-3.149
		c-0.534-0.899-1.435-1.351-2.7-1.351c-0.6,0-1.5,0.201-2.7,0.601v34h-23.3v-52.601h23.3v6.5c2.8-2.532,5.4-4.383,7.8-5.549
		c2.4-1.166,5.033-1.75,7.9-1.75C551.924,133.928,555.507,135.562,557.541,138.827z"/>
	<path fill="#929497" d="M619.39,180.627c0,9.4-2.017,16.466-6.05,21.2c-4.034,4.733-10.685,7.101-19.95,7.101
		c-7.6,0-14.935-1.367-22-4.101l3.7-13.8c4.533,2,8.766,3,12.7,3c3.399,0,5.865-0.717,7.399-2.15c1.533-1.434,2.366-3.75,2.5-6.949
		c-2.399,2.732-5.634,4.1-9.699,4.1c-3.468,0-6.635-0.967-9.5-2.9c-2.867-1.933-5.15-4.85-6.851-8.75s-2.55-8.715-2.55-14.449
		c0-6.934,1.232-12.601,3.7-17c2.466-4.4,5.5-7.551,9.1-9.451c3.601-1.899,7.2-2.85,10.8-2.85c4.2,0,9.051,0.45,14.551,1.35
		c5.5,0.9,9.55,1.918,12.149,3.051V180.627z M597.69,174.227v-24.1c-2.734,0.067-4.8,0.95-6.199,2.65
		c-1.4,1.699-2.101,5.018-2.101,9.949c0,4.535,0.565,7.701,1.7,9.5c1.133,1.801,2.433,2.701,3.9,2.701
		C595.656,174.928,596.556,174.694,597.69,174.227z"/>
</g>
</svg>
