<?xml version="1.0" encoding="utf-8"?>
<!-- Generator: Adobe Illustrator 15.1.0, SVG Export Plug-In . SVG Version: 6.00 Build 0)  -->
<!DOCTYPE svg PUBLIC "-//W3C//DTD SVG 1.1//EN" "http://www.w3.org/Graphics/SVG/1.1/DTD/svg11.dtd">
<svg version="1.1" id="RESULT" xmlns="http://www.w3.org/2000/svg" xmlns:xlink="http://www.w3.org/1999/xlink" x="0px" y="0px"
	 width="800px" height="226px" viewBox="12 112 800 226" enable-background="new 12 112 800 226" xml:space="preserve">
<g>
	<g>
		<path fill="#ED1C24" d="M274.752,180.399c0,6.867-1.634,12.268-4.9,16.2c-3.267,3.934-7.084,6.617-11.45,8.05
			c-4.366,1.434-8.584,2.15-12.649,2.15c-7.067,0-13-1.134-17.8-3.4v-19.3c2.732,1.134,5.25,1.95,7.55,2.45s4.649,0.75,7.05,0.75
			c3.2,0,5.55-0.533,7.05-1.601c1.5-1.065,2.25-2.8,2.25-5.199c0-2-0.6-3.45-1.8-4.351c-1.2-0.899-3.4-1.35-6.6-1.35h-15.4v-43h42.1
			v17.5h-21.6v8.6C266.018,157.899,274.752,165.399,274.752,180.399z"/>
		<path fill="#ED1C24" d="M349.652,173.299c-3.066,0-6.134,0.435-9.199,1.3c-3.067,0.867-5.535,2.134-7.4,3.8v27.101h-23.3v-52.601
			h23.3v9.9c2-3.2,4.55-5.833,7.65-7.9c3.1-2.064,6.282-3.1,9.55-3.1L349.652,173.299z"/>
		<path fill="#ED1C24" d="M358.651,144.149c-2.399-2.033-3.6-4.683-3.6-7.95c0-3.133,1.149-5.666,3.45-7.6
			c2.3-1.933,5.282-2.9,8.95-2.9c3.333,0,6.215,1,8.649,3c2.434,2,3.65,4.635,3.65,7.9c0,3.134-1.135,5.684-3.4,7.65
			c-2.267,1.967-5.234,2.949-8.899,2.949C363.984,147.198,361.051,146.184,358.651,144.149z M355.751,152.899h23.3v52.601h-23.3
			V152.899z"/>
		<path fill="#ED1C24" d="M436.35,198.799c0,9.399-2.018,16.466-6.05,21.2c-4.034,4.732-10.686,7.1-19.95,7.1
			c-7.6,0-14.934-1.367-22-4.1l3.7-13.801c4.533,2,8.766,3,12.7,3c3.399,0,5.864-0.717,7.399-2.149c1.533-1.435,2.366-3.75,2.5-6.95
			c-2.399,2.733-5.634,4.1-9.7,4.1c-3.467,0-6.634-0.967-9.5-2.899c-2.866-1.934-5.149-4.851-6.85-8.75
			c-1.7-3.9-2.55-8.715-2.55-14.45c0-6.933,1.232-12.6,3.7-17c2.465-4.4,5.5-7.55,9.1-9.45c3.601-1.899,7.2-2.85,10.8-2.85
			c4.2,0,9.05,0.45,14.55,1.35c5.5,0.9,9.551,1.917,12.149,3.05L436.35,198.799L436.35,198.799z M414.65,192.399v-24.1
			c-2.733,0.066-4.8,0.95-6.2,2.649c-1.399,1.7-2.1,5.018-2.1,9.95c0,4.535,0.566,7.7,1.7,9.5c1.133,1.8,2.433,2.7,3.899,2.7
			C412.615,193.099,413.516,192.865,414.65,192.399z"/>
		<path fill="#ED1C24" d="M495.9,156.999c2.033,3.267,3.05,7.899,3.05,13.899v34.601h-23.3v-30.101c0-1.2-0.267-2.25-0.8-3.149
			c-0.534-0.9-1.436-1.351-2.7-1.351c-0.733,0-1.534,0.167-2.399,0.5v34.101h-23.399v-80h23.399v33.699
			c2.732-2.532,5.267-4.35,7.601-5.449c2.333-1.101,4.933-1.65,7.8-1.65C490.281,152.099,493.865,153.734,495.9,156.999z"/>
		<path fill="#ED1C24" d="M548.25,202.399c-3.067,1.467-5.718,2.467-7.95,3c-2.234,0.533-4.55,0.8-6.949,0.8
			c-7.935,0-13.668-2.282-17.2-6.85c-3.534-4.566-5.3-11.05-5.3-19.45v-13h-5.9v-14h5.9v-13.399h22.1v13.399h12.4v14h-12.4v12.8
			c0,4.067,0.55,6.885,1.65,8.45c1.1,1.567,2.649,2.351,4.649,2.351c1.532,0,3.633-0.4,6.3-1.2L548.25,202.399z"/>
		<path fill="#ED1C24" d="M556.549,184.599c4.199,2.2,7.516,3.8,9.949,4.8s4.684,1.5,6.75,1.5c0.934,0,1.717-0.183,2.351-0.55
			c0.633-0.366,0.95-0.916,0.95-1.65c0-1.065-0.584-1.933-1.75-2.6c-1.167-0.666-3.084-1.433-5.75-2.3
			c-3.067-1-5.635-2.017-7.7-3.05c-2.066-1.033-3.851-2.533-5.351-4.5s-2.25-4.483-2.25-7.551c0-5.532,2.232-9.732,6.7-12.6
			c4.466-2.866,9.966-4.3,16.5-4.3c3.934,0,7.716,0.45,11.351,1.35c3.633,0.9,6.55,1.984,8.75,3.25l-4.2,14.7
			c-1.935-1-4.084-1.816-6.449-2.45c-2.367-0.633-4.418-0.95-6.149-0.95c-2.936,0-4.4,0.601-4.4,1.801c0,0.6,0.466,1.134,1.4,1.6
			c0.933,0.467,2.399,1,4.399,1.6c3.332,1,6.165,2.067,8.5,3.2c2.332,1.134,4.399,2.867,6.199,5.2c1.801,2.334,2.7,5.367,2.7,9.1
			c0,5.734-1.917,10-5.75,12.801c-3.834,2.8-8.95,4.199-15.351,4.199c-5.268,0-10.185-0.784-14.75-2.35
			c-4.566-1.566-8.218-3.583-10.95-6.05L556.549,184.599z"/>
		<path fill="#939598" d="M201.203,302.499h-22.601v-54.601h-0.7l-10.3,2.7v-16.5l21.3-5.9h12.301V302.499z"/>
		<path fill="#939598" d="M217.102,295.749c-4.6-4.967-6.899-13.116-6.899-24.45v-10.9c0-8,1.032-14.399,3.1-19.2
			c2.065-4.8,5.183-8.282,9.35-10.449c4.166-2.166,9.551-3.25,16.15-3.25s11.983,1.084,16.15,3.25
			c4.166,2.167,7.266,5.649,9.3,10.449c2.033,4.801,3.05,11.2,3.05,19.2v10.9c0,7.667-1.017,13.834-3.05,18.5
			c-2.034,4.667-5.134,8.066-9.3,10.2c-4.167,2.134-9.551,3.199-16.15,3.199C228.935,303.198,221.702,300.717,217.102,295.749z
			 M242.002,282.399c0.732-0.533,1.266-1.583,1.6-3.149c0.333-1.565,0.5-3.916,0.5-7.051v-14.899c0-3.4-0.167-5.95-0.5-7.65
			c-0.334-1.7-0.884-2.85-1.649-3.45c-0.768-0.6-1.817-0.899-3.15-0.899c-1.334,0-2.384,0.3-3.15,0.899
			c-0.768,0.601-1.316,1.75-1.649,3.45c-0.334,1.7-0.5,4.25-0.5,7.65v14.899c0,3.135,0.166,5.484,0.5,7.051
			c0.333,1.566,0.866,2.617,1.6,3.149c0.733,0.535,1.8,0.8,3.2,0.8S241.268,282.934,242.002,282.399z"/>
		<path fill="#939598" d="M381.102,249.899l-13.2,52.601h-25.8l-3.7-18.7l-4.1,18.7h-24.8l-13.2-52.601h24.5l3.1,32.3l6.601-28.3
			h16.399l6.5,30.2l3.2-34.2H381.102L381.102,249.899z"/>
		<path fill="#939598" d="M427.002,270.299c-3.067,0-6.136,0.435-9.2,1.3c-3.067,0.867-5.535,2.134-7.4,3.8v27.101h-23.3v-52.601
			h23.3v9.9c2-3.2,4.55-5.833,7.65-7.9c3.1-2.064,6.282-3.1,9.55-3.1L427.002,270.299z"/>
		<path fill="#939598" d="M438.75,297.599c-3.768-4.4-5.649-11.4-5.649-21c0-6.4,0.815-11.633,2.45-15.7
			c1.633-4.064,4.333-7.1,8.1-9.1c3.766-2,8.815-3,15.15-3c8.933,0,15.281,2.233,19.05,6.7c3.766,4.467,5.649,11.5,5.649,21.1
			c0,6.4-0.816,11.617-2.449,15.65c-1.635,4.033-4.317,7.033-8.051,9c-3.733,1.966-8.801,2.949-15.199,2.949
			C448.865,304.198,442.517,301.999,438.75,297.599z M461.5,285.198c0.601-1.665,0.899-4.865,0.899-9.6c0-4.533-0.3-7.6-0.899-9.2
			c-0.601-1.6-1.668-2.399-3.199-2.399c-1.067,0-1.885,0.334-2.45,1c-0.567,0.667-0.967,1.816-1.2,3.449
			c-0.234,1.635-0.35,4.018-0.35,7.15c0,3.267,0.115,5.767,0.35,7.5c0.233,1.734,0.633,2.935,1.2,3.6c0.565,0.668,1.383,1,2.45,1
			C459.832,287.698,460.901,286.865,461.5,285.198z"/>
		<path fill="#939598" d="M541.75,253.999c2.032,3.267,3.05,7.899,3.05,13.899v34.601h-23.3v-30.101c0-1.2-0.269-2.25-0.801-3.149
			c-0.533-0.9-1.435-1.351-2.699-1.351c-0.601,0-1.5,0.2-2.7,0.601v34H492v-52.601h23.3v6.5c2.8-2.533,5.399-4.383,7.8-5.55
			c2.4-1.166,5.033-1.75,7.9-1.75C536.133,249.099,539.716,250.734,541.75,253.999z"/>
		<path fill="#939598" d="M603.599,295.799c0,9.399-2.017,16.466-6.05,21.2c-4.034,4.732-10.686,7.1-19.95,7.1
			c-7.601,0-14.935-1.367-22-4.1l3.7-13.801c4.533,2,8.766,3,12.699,3c3.399,0,5.865-0.717,7.399-2.149
			c1.533-1.435,2.366-3.75,2.5-6.95c-2.399,2.733-5.634,4.1-9.699,4.1c-3.468,0-6.635-0.967-9.5-2.899
			c-2.866-1.933-5.149-4.851-6.851-8.75c-1.7-3.9-2.55-8.715-2.55-14.45c0-6.933,1.231-12.6,3.7-17c2.466-4.399,5.5-7.55,9.1-9.45
			c3.601-1.899,7.2-2.85,10.8-2.85c4.2,0,9.051,0.45,14.551,1.35c5.5,0.9,9.55,1.917,12.149,3.05L603.599,295.799L603.599,295.799z
			 M581.899,289.399v-24.1c-2.734,0.066-4.8,0.95-6.199,2.649c-1.399,1.7-2.101,5.018-2.101,9.95c0,4.535,0.565,7.7,1.7,9.5
			c1.133,1.8,2.433,2.7,3.899,2.7C579.865,290.099,580.765,289.865,581.899,289.399z"/>
		<path fill="#939598" d="M614.899,281.599c4.2,2.2,7.516,3.8,9.95,4.8c2.433,1,4.683,1.5,6.75,1.5c0.933,0,1.716-0.183,2.35-0.55
			c0.634-0.366,0.95-0.916,0.95-1.65c0-1.065-0.584-1.933-1.75-2.6c-1.167-0.666-3.084-1.433-5.75-2.3
			c-3.066-1-5.634-2.017-7.7-3.05c-2.065-1.033-3.85-2.533-5.35-4.5s-2.25-4.483-2.25-7.551c0-5.532,2.231-9.732,6.7-12.6
			c4.466-2.866,9.966-4.3,16.5-4.3c3.933,0,7.716,0.45,11.35,1.35c3.633,0.9,6.55,1.984,8.75,3.25l-4.2,14.7
			c-1.934-1-4.084-1.816-6.448-2.45c-2.367-0.633-4.418-0.95-6.15-0.95c-2.936,0-4.4,0.601-4.4,1.801c0,0.6,0.467,1.134,1.4,1.6
			c0.933,0.467,2.4,1,4.4,1.6c3.332,1,6.164,2.067,8.5,3.2c2.332,1.135,4.398,2.867,6.198,5.2c1.802,2.334,2.7,5.367,2.7,9.1
			c0,5.734-1.917,10-5.75,12.801c-3.834,2.8-8.95,4.199-15.35,4.199c-5.269,0-10.186-0.784-14.75-2.35
			c-4.567-1.565-8.219-3.583-10.95-6.05L614.899,281.599z"/>
	</g>
</g>
</svg>
