<?xml version="1.0" encoding="utf-8"?>
<!-- Generator: Adobe Illustrator 15.1.0, SVG Export Plug-In . SVG Version: 6.00 Build 0)  -->
<!DOCTYPE svg PUBLIC "-//W3C//DTD SVG 1.1//EN" "http://www.w3.org/Graphics/SVG/1.1/DTD/svg11.dtd">
<svg version="1.1" id="RESULT" xmlns="http://www.w3.org/2000/svg" xmlns:xlink="http://www.w3.org/1999/xlink" x="0px" y="0px"
	 width="800px" height="226px" viewBox="0 0 800 226" enable-background="new 0 0 800 226" xml:space="preserve">
<g>
	<path fill="#EC1C24" d="M229.197,57.25c2.232,3.535,3.35,7.734,3.35,12.601c0,4.867-1.234,9.017-3.7,12.45
		c-2.467,3.434-5.75,6-9.85,7.699c-4.1,1.7-8.65,2.551-13.65,2.551c-3.6,0-7.867-0.351-12.8-1.051
		c-4.934-0.699-8.367-1.615-10.3-2.75v-19.1c2.533,1,5.716,1.817,9.55,2.45c3.833,0.634,6.983,0.95,9.45,0.95
		c3.2,0,5.55-0.633,7.05-1.9c1.5-1.266,2.25-2.865,2.25-4.8c0-1.933-0.617-3.433-1.85-4.5c-1.234-1.065-2.984-1.601-5.25-1.601
		h-13.2v-15.6h9.8c2.533,0,4.416-0.5,5.65-1.5c1.232-1,1.85-2.333,1.85-4c0-1.6-0.55-2.815-1.65-3.65
		c-1.1-0.832-2.65-1.25-4.65-1.25c-2.334,0-5.25,0.468-8.75,1.4c-3.5,0.935-6.25,1.967-8.25,3.1v-18.1
		c3.466-1.466,6.75-2.583,9.85-3.35c3.1-0.766,6.45-1.15,10.05-1.15c7.8,0,13.766,1.734,17.9,5.2c4.133,3.467,6.2,8.034,6.2,13.7
		c0,3.199-0.634,6.084-1.9,8.649c-1.267,2.567-2.935,4.617-5,6.15C224.347,51.25,226.963,53.718,229.197,57.25z"/>
	<path fill="#EC1C24" d="M272.297,43.801c4.833-4.233,11.283-6.351,19.35-6.351c6.266,0,12.4,1.101,18.4,3.3l-2.1,14.7
		c-4-1-7.667-1.5-11-1.5c-3.2,0-5.567,0.75-7.1,2.25c-1.534,1.5-2.3,4.351-2.3,8.55c0,3.935,0.75,6.7,2.25,8.301
		c1.5,1.6,3.983,2.399,7.45,2.399c3.533,0,7.365-0.6,11.5-1.8l2.4,15.2c-2.467,1.134-5.567,2.084-9.3,2.85
		c-3.734,0.766-7.267,1.15-10.6,1.15c-7.535,0-13.785-2.283-18.75-6.851c-4.967-4.565-7.45-11.75-7.45-21.55
		C265.047,54.918,267.462,48.035,272.297,43.801z"/>
	<path fill="#EC1C24" d="M322.296,86.25c-3.767-4.399-5.65-11.399-5.65-21c0-6.399,0.815-11.633,2.45-15.699
		c1.633-4.066,4.333-7.101,8.1-9.101c3.766-2,8.816-3,15.15-3c8.933,0,15.283,2.234,19.05,6.7c3.766,4.467,5.65,11.5,5.65,21.1
		c0,6.4-0.817,11.617-2.45,15.65c-1.635,4.034-4.317,7.034-8.05,9c-3.734,1.966-8.8,2.95-15.2,2.95
		C332.411,92.851,326.061,90.65,322.296,86.25z M345.046,73.851c0.6-1.666,0.9-4.866,0.9-9.601c0-4.532-0.3-7.6-0.9-9.199
		c-0.6-1.601-1.667-2.4-3.2-2.4c-1.067,0-1.885,0.334-2.45,1c-0.567,0.667-0.967,1.817-1.2,3.45c-0.234,1.634-0.35,4.017-0.35,7.149
		c0,3.268,0.115,5.768,0.35,7.5c0.233,1.734,0.633,2.935,1.2,3.601c0.565,0.667,1.383,1,2.45,1
		C343.379,76.351,344.446,75.518,345.046,73.851z"/>
	<path fill="#EC1C24" d="M415.445,58.95c-3.067,0-6.134,0.435-9.2,1.3c-3.066,0.867-5.534,2.135-7.4,3.801v27.1h-23.299v-52.6
		h23.299v9.899c2-3.2,4.551-5.833,7.65-7.899s6.283-3.101,9.551-3.101L415.445,58.95z"/>
	<path fill="#EC1C24" d="M462.944,58.95c-3.066,0-6.135,0.435-9.199,1.3c-3.068,0.867-5.535,2.135-7.4,3.801v27.1h-23.301v-52.6
		h23.301v9.899c2-3.2,4.55-5.833,7.65-7.899c3.1-2.066,6.282-3.101,9.549-3.101L462.944,58.95z"/>
	<path fill="#EC1C24" d="M513.944,73.25l2.398,15.5c-2.799,1.268-6.084,2.268-9.85,3c-3.768,0.733-7.283,1.101-10.549,1.101
		c-7.734,0-14.15-2.283-19.25-6.851c-5.102-4.565-7.65-11.683-7.65-21.35c0-9.666,2.516-16.615,7.549-20.85
		c5.033-4.233,11.352-6.351,18.951-6.351c6.533,0,11.865,1.585,16,4.75c4.133,3.167,6.199,8.317,6.199,15.45
		c0,3.467-0.533,7.167-1.6,11.1l-24.6-0.199c0.666,2.467,1.766,4.234,3.299,5.3c1.533,1.067,3.633,1.6,6.301,1.6
		C504.676,75.45,508.944,74.718,513.944,73.25z M491.694,51.851c-0.701,1.267-1.086,3.3-1.15,6.1l9.5-0.3v-0.9
		c0-2.133-0.285-3.8-0.85-5c-0.568-1.199-1.785-1.8-3.65-1.8C493.676,49.95,492.393,50.585,491.694,51.851z"/>
	<path fill="#EC1C24" d="M531.992,43.801c4.832-4.233,11.283-6.351,19.35-6.351c6.266,0,12.4,1.101,18.4,3.3l-2.1,14.7
		c-4-1-7.668-1.5-11-1.5c-3.201,0-5.568,0.75-7.102,2.25s-2.299,4.351-2.299,8.55c0,3.935,0.75,6.7,2.25,8.301
		c1.5,1.6,3.982,2.399,7.449,2.399c3.533,0,7.365-0.6,11.5-1.8l2.4,15.2c-2.467,1.134-5.566,2.084-9.301,2.85s-7.266,1.15-10.6,1.15
		c-7.533,0-13.783-2.283-18.75-6.851c-4.967-4.565-7.449-11.75-7.449-21.55C524.742,54.918,527.158,48.035,531.992,43.801z"/>
	<path fill="#EC1C24" d="M618.141,88.051c-3.066,1.467-5.717,2.467-7.949,3c-2.234,0.532-4.551,0.8-6.949,0.8
		c-7.936,0-13.668-2.283-17.201-6.851c-3.533-4.565-5.299-11.05-5.299-19.449v-13h-5.9v-14h5.9v-13.4h22.1v13.4h12.4v14h-12.4v12.8
		c0,4.067,0.549,6.884,1.65,8.45c1.1,1.566,2.648,2.35,4.648,2.35c1.533,0,3.633-0.4,6.301-1.2L618.141,88.051z"/>
	<path fill="#929497" d="M216.696,188.15h-22.6v-54.6h-0.7l-10.3,2.699v-16.5l21.3-5.899h12.3V188.15z"/>
	<path fill="#929497" d="M275.995,169.15v19h-48.8c0-8.266,1.033-15.315,3.1-21.15c2.065-5.832,4.433-10.415,7.1-13.75
		c2.666-3.332,5.9-6.699,9.7-10.1c2.266-2,3.866-3.565,4.8-4.7c0.933-1.133,1.4-2.3,1.4-3.5s-0.717-2.165-2.15-2.899
		c-1.435-0.733-3.25-1.101-5.45-1.101c-3.267,0-7.9,1.034-13.9,3.101l-2.2-16.9c7.6-2.666,14.966-4,22.1-4
		c4.533,0,8.633,0.7,12.3,2.1c3.666,1.4,6.566,3.468,8.7,6.2c2.133,2.734,3.2,6,3.2,9.8c0,3.2-0.5,5.984-1.5,8.351
		c-1,2.367-2.234,4.399-3.7,6.1c-1.467,1.7-3.534,3.784-6.2,6.25c-3.267,3-5.934,5.734-8,8.2c-2.067,2.467-3.834,5.467-5.3,9
		H275.995z"/>
	<path fill="#929497" d="M391.795,135.551l-13.2,52.6h-25.8l-3.7-18.7l-4.1,18.7h-24.8l-13.2-52.6h24.5l3.1,32.3l6.6-28.3h16.4
		l6.5,30.199l3.2-34.199H391.795z"/>
	<path fill="#929497" d="M437.695,155.95c-3.067,0-6.134,0.435-9.2,1.3c-3.066,0.867-5.534,2.135-7.4,3.801v27.1h-23.299v-52.6
		h23.299v9.899c2-3.2,4.551-5.833,7.65-7.899s6.283-3.101,9.551-3.101L437.695,155.95z"/>
	<path fill="#929497" d="M449.444,183.25c-3.768-4.399-5.65-11.399-5.65-21c0-6.399,0.816-11.633,2.451-15.699
		c1.633-4.066,4.332-7.101,8.1-9.101c3.766-2,8.815-3,15.15-3c8.932,0,15.281,2.234,19.049,6.7c3.766,4.467,5.65,11.5,5.65,21.1
		c0,6.4-0.816,11.617-2.449,15.65c-1.635,4.034-4.318,7.034-8.051,9c-3.734,1.966-8.801,2.95-15.199,2.95
		C459.559,189.851,453.209,187.65,449.444,183.25z M472.194,170.851c0.6-1.666,0.9-4.866,0.9-9.601c0-4.532-0.301-7.6-0.9-9.199
		c-0.6-1.601-1.668-2.4-3.199-2.4c-1.068,0-1.885,0.334-2.451,1c-0.566,0.667-0.967,1.817-1.199,3.45
		c-0.234,1.634-0.35,4.017-0.35,7.149c0,3.268,0.115,5.768,0.35,7.5c0.232,1.734,0.633,2.935,1.199,3.601
		c0.566,0.667,1.383,1,2.451,1C470.526,173.351,471.594,172.518,472.194,170.851z"/>
	<path fill="#929497" d="M552.444,139.65c2.033,3.268,3.049,7.9,3.049,13.9v34.6h-23.299v-30.1c0-1.2-0.268-2.25-0.801-3.15
		s-1.434-1.35-2.699-1.35c-0.6,0-1.5,0.199-2.701,0.6v34h-23.299v-52.6h23.299v6.5c2.801-2.533,5.4-4.383,7.801-5.551
		c2.4-1.165,5.033-1.75,7.9-1.75C546.826,134.75,550.408,136.385,552.444,139.65z"/>
	<path fill="#929497" d="M614.291,181.45c0,9.4-2.016,16.466-6.049,21.2c-4.035,4.732-10.686,7.1-19.951,7.1
		c-7.6,0-14.934-1.367-22-4.1l3.701-13.8c4.533,2,8.766,3,12.699,3c3.4,0,5.865-0.718,7.4-2.15c1.533-1.435,2.365-3.75,2.5-6.95
		c-2.4,2.733-5.635,4.101-9.699,4.101c-3.469,0-6.635-0.968-9.5-2.9c-2.867-1.933-5.15-4.85-6.852-8.75
		c-1.699-3.899-2.549-8.716-2.549-14.45c0-6.933,1.232-12.6,3.699-17c2.467-4.399,5.5-7.55,9.1-9.449
		c3.602-1.9,7.201-2.851,10.801-2.851c4.199,0,9.051,0.45,14.551,1.351c5.5,0.899,9.549,1.917,12.148,3.05V181.45z M592.592,175.051
		V150.95c-2.734,0.067-4.801,0.95-6.199,2.65c-1.4,1.7-2.102,5.017-2.102,9.95c0,4.534,0.566,7.699,1.701,9.5
		c1.133,1.8,2.432,2.699,3.9,2.699C590.557,175.75,591.457,175.518,592.592,175.051z"/>
</g>
</svg>
