<?xml version="1.0" encoding="utf-8"?>
<!-- Generator: Adobe Illustrator 15.1.0, SVG Export Plug-In . SVG Version: 6.00 Build 0)  -->
<!DOCTYPE svg PUBLIC "-//W3C//DTD SVG 1.1//EN" "http://www.w3.org/Graphics/SVG/1.1/DTD/svg11.dtd">
<svg version="1.1" id="RESULT" xmlns="http://www.w3.org/2000/svg" xmlns:xlink="http://www.w3.org/1999/xlink" x="0px" y="0px"
	 width="800px" height="226px" viewBox="0 0 800 226" enable-background="new 0 0 800 226" xml:space="preserve">
<g>
	<path fill="#EC1C24" d="M192.247,90.703h-22.6v-54.6h-0.7l-10.3,2.699v-16.5l21.3-5.899h12.3V90.703z"/>
	<path fill="#EC1C24" d="M208.146,83.953c-4.6-4.966-6.9-13.115-6.9-24.45V48.604c0-8,1.033-14.4,3.1-19.2
		c2.065-4.8,5.183-8.283,9.35-10.45c4.166-2.166,9.55-3.25,16.15-3.25s11.983,1.084,16.15,3.25c4.166,2.167,7.266,5.65,9.3,10.45
		c2.033,4.8,3.05,11.2,3.05,19.2v10.899c0,7.667-1.017,13.835-3.05,18.5c-2.034,4.667-5.134,8.067-9.3,10.2
		c-4.167,2.135-9.55,3.2-16.15,3.2C219.979,91.403,212.746,88.92,208.146,83.953z M233.046,70.604c0.733-0.533,1.266-1.583,1.6-3.15
		c0.333-1.565,0.5-3.916,0.5-7.05v-14.9c0-3.399-0.167-5.95-0.5-7.649c-0.334-1.7-0.884-2.851-1.65-3.45
		c-0.767-0.601-1.817-0.9-3.15-0.9c-1.334,0-2.384,0.3-3.15,0.9c-0.768,0.6-1.317,1.75-1.65,3.45c-0.334,1.699-0.5,4.25-0.5,7.649
		v14.9c0,3.134,0.166,5.484,0.5,7.05c0.333,1.567,0.866,2.617,1.6,3.15c0.733,0.534,1.8,0.8,3.2,0.8S232.312,71.138,233.046,70.604z
		"/>
	<path fill="#EC1C24" d="M297.096,43.354c4.833-4.233,11.283-6.351,19.35-6.351c6.266,0,12.4,1.101,18.4,3.3l-2.1,14.7
		c-4-1-7.667-1.5-11-1.5c-3.2,0-5.567,0.75-7.1,2.25c-1.534,1.5-2.3,4.351-2.3,8.55c0,3.935,0.75,6.7,2.25,8.301
		c1.5,1.6,3.983,2.399,7.45,2.399c3.533,0,7.365-0.6,11.5-1.8l2.4,15.2c-2.467,1.134-5.567,2.084-9.3,2.85
		c-3.734,0.766-7.267,1.15-10.6,1.15c-7.535,0-13.785-2.283-18.75-6.851c-4.967-4.565-7.45-11.75-7.45-21.55
		C289.846,54.471,292.261,47.588,297.096,43.354z"/>
	<path fill="#EC1C24" d="M347.095,85.803c-3.767-4.399-5.65-11.399-5.65-21c0-6.399,0.815-11.633,2.45-15.699
		c1.633-4.066,4.333-7.101,8.1-9.101c3.766-2,8.816-3,15.15-3c8.933,0,15.283,2.234,19.05,6.7c3.766,4.467,5.65,11.5,5.65,21.1
		c0,6.4-0.817,11.617-2.45,15.65c-1.635,4.034-4.317,7.034-8.05,9c-3.734,1.966-8.8,2.95-15.2,2.95
		C357.211,92.403,350.861,90.203,347.095,85.803z M369.845,73.403c0.6-1.666,0.9-4.866,0.9-9.601c0-4.532-0.3-7.6-0.9-9.199
		c-0.6-1.601-1.667-2.4-3.2-2.4c-1.067,0-1.885,0.334-2.45,1c-0.567,0.667-0.967,1.817-1.2,3.45c-0.234,1.634-0.35,4.017-0.35,7.149
		c0,3.268,0.115,5.768,0.35,7.5c0.233,1.734,0.633,2.935,1.2,3.601c0.565,0.667,1.383,1,2.45,1
		C368.178,75.903,369.245,75.07,369.845,73.403z"/>
	<path fill="#EC1C24" d="M440.244,58.503c-3.067,0-6.135,0.435-9.2,1.3c-3.067,0.867-5.534,2.135-7.4,3.801v27.1h-23.3v-52.6h23.3
		v9.899c2-3.2,4.55-5.833,7.65-7.899c3.1-2.066,6.282-3.101,9.55-3.101L440.244,58.503z"/>
	<path fill="#EC1C24" d="M487.744,58.503c-3.068,0-6.135,0.435-9.201,1.3c-3.066,0.867-5.533,2.135-7.4,3.801v27.1h-23.3v-52.6h23.3
		v9.899c2-3.2,4.551-5.833,7.65-7.899s6.283-3.101,9.551-3.101L487.744,58.503z"/>
	<path fill="#EC1C24" d="M538.742,72.803l2.4,15.5c-2.801,1.268-6.084,2.268-9.85,3c-3.768,0.733-7.285,1.101-10.551,1.101
		c-7.734,0-14.15-2.283-19.25-6.851c-5.1-4.565-7.65-11.683-7.65-21.35c0-9.666,2.516-16.615,7.551-20.85
		c5.033-4.233,11.35-6.351,18.949-6.351c6.533,0,11.865,1.585,16,4.75c4.133,3.167,6.201,8.317,6.201,15.45
		c0,3.467-0.535,7.167-1.602,11.1l-24.6-0.199c0.666,2.467,1.766,4.234,3.301,5.3c1.533,1.067,3.633,1.6,6.299,1.6
		C529.475,75.003,533.742,74.271,538.742,72.803z M516.492,51.403c-0.699,1.267-1.084,3.3-1.15,6.1l9.5-0.3v-0.9
		c0-2.133-0.283-3.8-0.85-5c-0.566-1.199-1.785-1.8-3.65-1.8C518.475,49.503,517.192,50.138,516.492,51.403z"/>
	<path fill="#EC1C24" d="M556.791,43.354c4.834-4.233,11.283-6.351,19.35-6.351c6.266,0,12.4,1.101,18.4,3.3l-2.1,14.7
		c-4-1-7.668-1.5-11-1.5c-3.199,0-5.566,0.75-7.1,2.25c-1.535,1.5-2.301,4.351-2.301,8.55c0,3.935,0.75,6.7,2.25,8.301
		c1.5,1.6,3.982,2.399,7.451,2.399c3.531,0,7.365-0.6,11.5-1.8l2.398,15.2c-2.467,1.134-5.566,2.084-9.299,2.85
		c-3.734,0.766-7.268,1.15-10.6,1.15c-7.535,0-13.785-2.283-18.75-6.851c-4.969-4.565-7.451-11.75-7.451-21.55
		C549.541,54.471,551.957,47.588,556.791,43.354z"/>
	<path fill="#EC1C24" d="M642.94,87.604c-3.066,1.467-5.717,2.467-7.949,3c-2.234,0.532-4.551,0.8-6.949,0.8
		c-7.936,0-13.668-2.283-17.201-6.851c-3.533-4.565-5.299-11.05-5.299-19.449v-13h-5.9v-14h5.9v-13.4h22.1v13.4h12.4v14h-12.4v12.8
		c0,4.067,0.549,6.884,1.65,8.45c1.1,1.566,2.648,2.35,4.648,2.35c1.533,0,3.633-0.4,6.301-1.2L642.94,87.604z"/>
	<path fill="#929497" d="M254.545,162.604c0,6.867-1.634,12.267-4.9,16.199c-3.267,3.935-7.084,6.617-11.45,8.051
		c-4.367,1.433-8.584,2.149-12.65,2.149c-7.067,0-13-1.134-17.8-3.399v-19.301c2.733,1.135,5.25,1.95,7.55,2.45
		c2.3,0.5,4.65,0.75,7.05,0.75c3.2,0,5.55-0.532,7.05-1.6c1.5-1.065,2.25-2.8,2.25-5.2c0-2-0.6-3.45-1.8-4.35
		c-1.2-0.9-3.4-1.351-6.6-1.351h-15.4v-43h42.1v17.5h-21.6v8.601C245.811,140.104,254.545,147.604,254.545,162.604z"/>
	<path fill="#929497" d="M370.344,135.104l-13.2,52.6h-25.8l-3.7-18.7l-4.1,18.7h-24.8l-13.2-52.6h24.5l3.1,32.3l6.6-28.3h16.4
		l6.5,30.199l3.2-34.199H370.344z"/>
	<path fill="#929497" d="M416.244,155.503c-3.066,0-6.135,0.435-9.199,1.3c-3.068,0.867-5.535,2.135-7.401,3.801v27.1h-23.3v-52.6
		h23.3v9.899c2-3.2,4.55-5.833,7.651-7.899c3.1-2.066,6.282-3.101,9.549-3.101L416.244,155.503z"/>
	<path fill="#929497" d="M427.993,182.803c-3.767-4.399-5.649-11.399-5.649-21c0-6.399,0.814-11.633,2.449-15.699
		c1.633-4.066,4.333-7.101,8.1-9.101c3.766-2,8.816-3,15.15-3c8.934,0,15.283,2.234,19.051,6.7c3.766,4.467,5.65,11.5,5.65,21.1
		c0,6.4-0.818,11.617-2.451,15.65c-1.635,4.034-4.316,7.034-8.05,9c-3.734,1.966-8.8,2.95-15.2,2.95
		C438.11,189.403,431.759,187.203,427.993,182.803z M450.743,170.403c0.601-1.666,0.899-4.866,0.899-9.601
		c0-4.532-0.299-7.6-0.899-9.199c-0.601-1.601-1.667-2.4-3.2-2.4c-1.066,0-1.885,0.334-2.449,1c-0.568,0.667-0.968,1.817-1.201,3.45
		c-0.234,1.634-0.35,4.017-0.35,7.149c0,3.268,0.115,5.768,0.35,7.5c0.233,1.734,0.633,2.935,1.201,3.601
		c0.564,0.667,1.383,1,2.449,1C449.076,172.903,450.143,172.07,450.743,170.403z"/>
	<path fill="#929497" d="M530.992,139.203c2.033,3.268,3.051,7.9,3.051,13.9v34.6h-23.301v-30.1c0-1.2-0.268-2.25-0.799-3.15
		c-0.535-0.9-1.436-1.35-2.701-1.35c-0.6,0-1.5,0.199-2.699,0.6v34h-23.301v-52.6h23.301v6.5c2.799-2.533,5.4-4.383,7.799-5.551
		c2.4-1.165,5.033-1.75,7.9-1.75C525.375,134.303,528.959,135.938,530.992,139.203z"/>
	<path fill="#929497" d="M592.842,181.003c0,9.4-2.018,16.466-6.051,21.2c-4.033,4.732-10.684,7.1-19.949,7.1
		c-7.6,0-14.936-1.367-22-4.1l3.699-13.8c4.533,2,8.766,3,12.701,3c3.398,0,5.865-0.718,7.398-2.15c1.533-1.435,2.367-3.75,2.5-6.95
		c-2.398,2.733-5.633,4.101-9.699,4.101c-3.467,0-6.635-0.968-9.5-2.9c-2.867-1.933-5.15-4.85-6.85-8.75
		c-1.701-3.899-2.551-8.716-2.551-14.45c0-6.933,1.232-12.6,3.701-17c2.465-4.399,5.5-7.55,9.1-9.449
		c3.6-1.9,7.199-2.851,10.799-2.851c4.201,0,9.051,0.45,14.551,1.351c5.5,0.899,9.551,1.917,12.15,3.05V181.003z M571.141,174.604
		v-24.101c-2.734,0.067-4.799,0.95-6.199,2.65s-2.1,5.017-2.1,9.95c0,4.534,0.564,7.699,1.699,9.5c1.133,1.8,2.434,2.699,3.9,2.699
		C569.108,175.303,570.008,175.07,571.141,174.604z"/>
</g>
</svg>
