<?xml version="1.0" encoding="utf-8"?>
<!-- Generator: Adobe Illustrator 15.1.0, SVG Export Plug-In . SVG Version: 6.00 Build 0)  -->
<!DOCTYPE svg PUBLIC "-//W3C//DTD SVG 1.1//EN" "http://www.w3.org/Graphics/SVG/1.1/DTD/svg11.dtd">
<svg version="1.1" id="RESULT" xmlns="http://www.w3.org/2000/svg" xmlns:xlink="http://www.w3.org/1999/xlink" x="0px" y="0px"
	 width="800px" height="226px" viewBox="0 0 800 226" enable-background="new 0 0 800 226" xml:space="preserve">
<g>
	<path fill="#EC1C24" d="M228.447,52.104c3.333,4.3,5,10.117,5,17.45c0,15.667-8.2,23.5-24.6,23.5c-9.134,0-15.667-2.2-19.6-6.601
		c-3.935-4.399-6-10.065-6.2-17v-0.699v-0.601v-1.1l0.1-18.601c0-10.399,2.433-18.35,7.3-23.85c4.866-5.5,11.666-8.25,20.4-8.25
		c6.733,0,13.466,1.6,20.2,4.8l-3.2,16.5c-1.934-0.732-4.334-1.399-7.2-2c-2.867-0.6-5.334-0.899-7.4-0.899
		c-3.334,0-5.617,0.984-6.85,2.949c-1.234,1.968-1.917,5.317-2.05,10.051c3.666-1.4,7.133-2.101,10.4-2.101
		C220.547,45.653,225.112,47.804,228.447,52.104z M211.397,74.653c0.633-1.266,0.95-3.3,0.95-6.1s-0.317-4.783-0.95-5.95
		c-0.634-1.166-1.717-1.75-3.25-1.75c-1.4,0-2.384,0.534-2.95,1.6c-0.567,1.067-0.884,2.9-0.95,5.5v0.5c0,2.867,0.3,4.935,0.9,6.2
		c0.6,1.268,1.633,1.9,3.1,1.9C209.712,76.554,210.762,75.921,211.397,74.653z"/>
	<path fill="#EC1C24" d="M272.196,44.004c4.833-4.233,11.283-6.351,19.35-6.351c6.266,0,12.4,1.101,18.4,3.3l-2.1,14.7
		c-4-1-7.667-1.5-11-1.5c-3.2,0-5.567,0.75-7.1,2.25c-1.534,1.5-2.3,4.351-2.3,8.55c0,3.935,0.75,6.7,2.25,8.301
		c1.5,1.6,3.983,2.399,7.45,2.399c3.533,0,7.365-0.6,11.5-1.8l2.4,15.2c-2.467,1.134-5.567,2.084-9.3,2.85
		c-3.734,0.766-7.267,1.15-10.6,1.15c-7.535,0-13.785-2.283-18.75-6.851c-4.967-4.565-7.45-11.75-7.45-21.55
		C264.946,55.121,267.362,48.238,272.196,44.004z"/>
	<path fill="#EC1C24" d="M322.195,86.453c-3.767-4.399-5.65-11.399-5.65-21c0-6.399,0.815-11.633,2.45-15.699
		c1.633-4.066,4.333-7.101,8.1-9.101c3.766-2,8.816-3,15.15-3c8.933,0,15.283,2.234,19.05,6.7c3.766,4.467,5.65,11.5,5.65,21.1
		c0,6.4-0.817,11.617-2.45,15.65c-1.635,4.034-4.317,7.034-8.05,9c-3.734,1.966-8.8,2.95-15.2,2.95
		C332.311,93.054,325.961,90.854,322.195,86.453z M344.945,74.054c0.6-1.666,0.9-4.866,0.9-9.601c0-4.532-0.3-7.6-0.9-9.199
		c-0.6-1.601-1.667-2.4-3.2-2.4c-1.067,0-1.885,0.334-2.45,1c-0.567,0.667-0.967,1.817-1.2,3.45c-0.234,1.634-0.35,4.017-0.35,7.149
		c0,3.268,0.115,5.768,0.35,7.5c0.233,1.734,0.633,2.935,1.2,3.601c0.565,0.667,1.383,1,2.45,1
		C343.278,76.554,344.345,75.721,344.945,74.054z"/>
	<path fill="#EC1C24" d="M415.344,59.153c-3.066,0-6.135,0.435-9.199,1.3c-3.068,0.867-5.535,2.135-7.401,3.801v27.1h-23.3v-52.6
		h23.3v9.899c2-3.2,4.55-5.833,7.651-7.899c3.1-2.066,6.282-3.101,9.549-3.101L415.344,59.153z"/>
	<path fill="#EC1C24" d="M462.843,59.153c-3.067,0-6.134,0.435-9.2,1.3c-3.066,0.867-5.534,2.135-7.4,3.801v27.1h-23.299v-52.6
		h23.299v9.899c2-3.2,4.551-5.833,7.65-7.899s6.283-3.101,9.551-3.101L462.843,59.153z"/>
	<path fill="#EC1C24" d="M513.842,73.453l2.4,15.5c-2.801,1.268-6.084,2.268-9.85,3c-3.768,0.733-7.285,1.101-10.551,1.101
		c-7.734,0-14.15-2.283-19.25-6.851c-5.1-4.565-7.65-11.683-7.65-21.35c0-9.666,2.516-16.615,7.551-20.85
		c5.033-4.233,11.35-6.351,18.949-6.351c6.533,0,11.865,1.585,16,4.75c4.133,3.167,6.201,8.317,6.201,15.45
		c0,3.467-0.535,7.167-1.602,11.1l-24.6-0.199c0.666,2.467,1.766,4.234,3.301,5.3c1.533,1.067,3.633,1.6,6.299,1.6
		C504.574,75.653,508.842,74.921,513.842,73.453z M491.592,52.054c-0.699,1.267-1.084,3.3-1.15,6.1l9.5-0.3v-0.9
		c0-2.133-0.283-3.8-0.85-5c-0.566-1.199-1.785-1.8-3.65-1.8C493.574,50.153,492.291,50.788,491.592,52.054z"/>
	<path fill="#EC1C24" d="M531.891,44.004c4.834-4.233,11.283-6.351,19.35-6.351c6.266,0,12.4,1.101,18.4,3.3l-2.1,14.7
		c-4-1-7.668-1.5-11-1.5c-3.199,0-5.566,0.75-7.1,2.25c-1.535,1.5-2.301,4.351-2.301,8.55c0,3.935,0.75,6.7,2.25,8.301
		c1.5,1.6,3.982,2.399,7.451,2.399c3.531,0,7.365-0.6,11.5-1.8l2.398,15.2c-2.467,1.134-5.566,2.084-9.299,2.85
		c-3.734,0.766-7.268,1.15-10.6,1.15c-7.535,0-13.785-2.283-18.75-6.851c-4.969-4.565-7.451-11.75-7.451-21.55
		C524.641,55.121,527.057,48.238,531.891,44.004z"/>
	<path fill="#EC1C24" d="M618.039,88.254c-3.066,1.467-5.717,2.467-7.949,3c-2.234,0.532-4.551,0.8-6.949,0.8
		c-7.936,0-13.668-2.283-17.201-6.851c-3.533-4.565-5.299-11.05-5.299-19.449v-13h-5.9v-14h5.9v-13.4h22.1v13.4h12.4v14h-12.4v12.8
		c0,4.067,0.549,6.884,1.65,8.45c1.1,1.566,2.648,2.35,4.648,2.35c1.533,0,3.633-0.4,6.301-1.2L618.039,88.254z"/>
	<path fill="#929497" d="M256.095,137.254v1.1l-0.1,18.6c0,10.4-2.434,18.351-7.3,23.851c-4.867,5.5-11.667,8.25-20.4,8.25
		c-6.734,0-13.467-1.601-20.2-4.8l3.2-16.5c1.933,0.734,4.333,1.399,7.2,2c2.866,0.6,5.333,0.899,7.4,0.899
		c3.333,0,5.615-0.982,6.85-2.95c1.233-1.965,1.916-5.315,2.05-10.05c-3.667,1.4-7.134,2.101-10.4,2.101
		c-5.8,0-10.367-2.15-13.7-6.45c-3.334-4.3-5-10.116-5-17.45c0-15.666,8.2-23.5,24.6-23.5c9.133,0,15.666,2.2,19.6,6.6
		c3.933,4.4,6,10.067,6.2,17v0.7V137.254z M233.945,142.953c0.565-1.065,0.883-2.899,0.95-5.5v-0.5c0-2.933-0.3-5.016-0.9-6.25
		c-0.6-1.232-1.634-1.85-3.1-1.85c-1.467,0-2.518,0.617-3.15,1.85c-0.634,1.234-0.95,3.285-0.95,6.15c0,2.8,0.315,4.784,0.95,5.95
		c0.633,1.167,1.716,1.75,3.25,1.75C232.395,144.554,233.378,144.021,233.945,142.953z"/>
	<path fill="#929497" d="M369.894,135.754l-13.2,52.6h-25.8l-3.7-18.7l-4.1,18.7h-24.8l-13.2-52.6h24.5l3.1,32.3l6.6-28.3h16.4
		l6.5,30.199l3.2-34.199H369.894z"/>
	<path fill="#929497" d="M415.794,156.153c-3.067,0-6.134,0.435-9.2,1.3c-3.066,0.867-5.534,2.135-7.4,3.801v27.1h-23.3v-52.6h23.3
		v9.899c2-3.2,4.55-5.833,7.65-7.899s6.283-3.101,9.551-3.101L415.794,156.153z"/>
	<path fill="#929497" d="M427.543,183.453c-3.768-4.399-5.65-11.399-5.65-21c0-6.399,0.816-11.633,2.451-15.699
		c1.633-4.066,4.332-7.101,8.1-9.101c3.766-2,8.815-3,15.15-3c8.932,0,15.282,2.234,19.049,6.7c3.766,4.467,5.65,11.5,5.65,21.1
		c0,6.4-0.816,11.617-2.449,15.65c-1.635,4.034-4.318,7.034-8.051,9c-3.734,1.966-8.8,2.95-15.199,2.95
		C437.658,190.054,431.309,187.854,427.543,183.453z M450.293,171.054c0.6-1.666,0.9-4.866,0.9-9.601c0-4.532-0.301-7.6-0.9-9.199
		c-0.6-1.601-1.667-2.4-3.199-2.4c-1.068,0-1.885,0.334-2.451,1c-0.566,0.667-0.967,1.817-1.199,3.45
		c-0.234,1.634-0.35,4.017-0.35,7.149c0,3.268,0.115,5.768,0.35,7.5c0.232,1.734,0.633,2.935,1.199,3.601
		c0.566,0.667,1.383,1,2.451,1C448.626,173.554,449.694,172.721,450.293,171.054z"/>
	<path fill="#929497" d="M530.543,139.854c2.033,3.268,3.049,7.9,3.049,13.9v34.6h-23.299v-30.1c0-1.2-0.268-2.25-0.801-3.15
		s-1.434-1.35-2.699-1.35c-0.6,0-1.5,0.199-2.701,0.6v34h-23.299v-52.6h23.299v6.5c2.801-2.533,5.4-4.383,7.801-5.551
		c2.4-1.165,5.033-1.75,7.9-1.75C524.926,134.953,528.508,136.588,530.543,139.854z"/>
	<path fill="#929497" d="M592.391,181.653c0,9.4-2.016,16.466-6.049,21.2c-4.035,4.732-10.686,7.1-19.951,7.1
		c-7.6,0-14.934-1.367-22-4.1l3.701-13.8c4.533,2,8.766,3,12.699,3c3.4,0,5.865-0.718,7.4-2.15c1.533-1.435,2.365-3.75,2.5-6.95
		c-2.4,2.733-5.635,4.101-9.699,4.101c-3.469,0-6.635-0.968-9.5-2.9c-2.867-1.933-5.15-4.85-6.852-8.75
		c-1.699-3.899-2.549-8.716-2.549-14.45c0-6.933,1.232-12.6,3.699-17c2.467-4.399,5.5-7.55,9.1-9.449
		c3.602-1.9,7.201-2.851,10.801-2.851c4.199,0,9.051,0.45,14.551,1.351c5.5,0.899,9.549,1.917,12.148,3.05V181.653z
		 M570.692,175.254v-24.101c-2.734,0.067-4.801,0.95-6.199,2.65c-1.4,1.7-2.102,5.017-2.102,9.95c0,4.534,0.566,7.699,1.701,9.5
		c1.133,1.8,2.432,2.699,3.9,2.699C568.656,175.953,569.557,175.721,570.692,175.254z"/>
</g>
</svg>
