<?xml version="1.0" encoding="utf-8"?>
<!-- Generator: Adobe Illustrator 15.1.0, SVG Export Plug-In . SVG Version: 6.00 Build 0)  -->
<!DOCTYPE svg PUBLIC "-//W3C//DTD SVG 1.1//EN" "http://www.w3.org/Graphics/SVG/1.1/DTD/svg11.dtd">
<svg version="1.1" id="RESULT" xmlns="http://www.w3.org/2000/svg" xmlns:xlink="http://www.w3.org/1999/xlink" x="0px" y="0px"
	 width="800px" height="226px" viewBox="12 112 800 226" enable-background="new 12 112 800 226" xml:space="preserve">
<g>
	<g>
		<path fill="#ED1C24" d="M237.503,205.499h-22.601v-54.601h-0.699l-10.301,2.7v-16.5l21.301-5.9h12.3V205.499z"/>
		<path fill="#ED1C24" d="M296.802,186.499v19h-48.8c0-8.267,1.033-15.315,3.1-21.15c2.065-5.833,4.434-10.416,7.101-13.75
			c2.666-3.333,5.899-6.7,9.699-10.1c2.267-2,3.866-3.565,4.801-4.7c0.933-1.133,1.399-2.3,1.399-3.5s-0.717-2.166-2.149-2.9
			c-1.436-0.732-3.25-1.1-5.45-1.1c-3.268,0-7.9,1.035-13.9,3.1l-2.2-16.899c7.601-2.666,14.967-4,22.101-4
			c4.533,0,8.633,0.699,12.3,2.1c3.666,1.4,6.566,3.467,8.7,6.2c2.133,2.733,3.2,6,3.2,9.8c0,3.2-0.5,5.984-1.5,8.35
			c-1,2.367-2.234,4.4-3.7,6.101c-1.467,1.7-3.534,3.785-6.2,6.25c-3.267,3-5.934,5.733-8,8.2c-2.067,2.467-3.834,5.467-5.3,9
			H296.802z"/>
		<path fill="#ED1C24" d="M371.7,173.299c-3.066,0-6.134,0.435-9.199,1.3c-3.067,0.867-5.535,2.134-7.4,3.8v27.101h-23.3v-52.601
			h23.3v9.9c2-3.2,4.55-5.833,7.65-7.9c3.1-2.064,6.282-3.1,9.55-3.1L371.7,173.299z"/>
		<path fill="#ED1C24" d="M380.699,144.149c-2.399-2.033-3.6-4.683-3.6-7.95c0-3.133,1.15-5.666,3.45-7.6
			c2.3-1.933,5.283-2.9,8.95-2.9c3.333,0,6.215,1,8.649,3c2.434,2,3.65,4.635,3.65,7.9c0,3.134-1.134,5.684-3.4,7.65
			s-5.233,2.949-8.899,2.949C386.032,147.198,383.1,146.184,380.699,144.149z M377.801,152.899h23.3v52.601h-23.3V152.899z"/>
		<path fill="#ED1C24" d="M458.4,198.799c0,9.399-2.017,16.466-6.05,21.2c-4.034,4.732-10.686,7.1-19.95,7.1
			c-7.6,0-14.935-1.367-22-4.1l3.7-13.801c4.533,2,8.766,3,12.7,3c3.398,0,5.864-0.717,7.398-2.149c1.533-1.435,2.366-3.75,2.5-6.95
			c-2.398,2.733-5.634,4.1-9.698,4.1c-3.469,0-6.636-0.967-9.5-2.899c-2.867-1.934-5.15-4.851-6.852-8.75
			c-1.7-3.9-2.55-8.715-2.55-14.45c0-6.933,1.233-12.6,3.7-17c2.466-4.4,5.5-7.55,9.1-9.45c3.602-1.899,7.2-2.85,10.8-2.85
			c4.2,0,9.052,0.45,14.552,1.35c5.5,0.9,9.55,1.917,12.148,3.05L458.4,198.799L458.4,198.799z M436.698,192.399v-24.1
			c-2.733,0.066-4.8,0.95-6.198,2.649c-1.4,1.7-2.102,5.018-2.102,9.95c0,4.535,0.565,7.7,1.7,9.5c1.133,1.8,2.433,2.7,3.899,2.7
			C434.664,193.099,435.566,192.865,436.698,192.399z"/>
		<path fill="#ED1C24" d="M517.948,156.999c2.033,3.267,3.05,7.899,3.05,13.899v34.601h-23.3v-30.101c0-1.2-0.267-2.25-0.8-3.149
			c-0.534-0.9-1.435-1.351-2.7-1.351c-0.733,0-1.534,0.167-2.398,0.5v34.101h-23.4v-80h23.4v33.699
			c2.731-2.532,5.266-4.35,7.6-5.449c2.333-1.101,4.933-1.65,7.8-1.65C512.332,152.099,515.914,153.734,517.948,156.999z"/>
		<path fill="#ED1C24" d="M570.3,202.399c-3.067,1.467-5.718,2.467-7.95,3c-2.234,0.533-4.55,0.8-6.949,0.8
			c-7.935,0-13.668-2.282-17.2-6.85c-3.534-4.566-5.3-11.05-5.3-19.45v-13H527v-14h5.899v-13.399H555v13.399H567.4v14H555v12.8
			c0,4.067,0.55,6.885,1.649,8.45c1.101,1.567,2.649,2.351,4.649,2.351c1.533,0,3.633-0.4,6.3-1.2L570.3,202.399z"/>
		<path fill="#ED1C24" d="M578.599,184.599c4.2,2.2,7.516,3.8,9.95,4.8c2.433,1,4.683,1.5,6.75,1.5c0.933,0,1.716-0.183,2.35-0.55
			c0.633-0.366,0.95-0.916,0.95-1.65c0-1.065-0.584-1.933-1.75-2.6c-1.167-0.666-3.084-1.433-5.75-2.3
			c-3.067-1-5.634-2.017-7.7-3.05s-3.85-2.533-5.35-4.5s-2.25-4.483-2.25-7.551c0-5.532,2.231-9.732,6.699-12.6
			c4.467-2.866,9.967-4.3,16.5-4.3c3.934,0,7.717,0.45,11.351,1.35c3.633,0.9,6.55,1.984,8.75,3.25l-4.2,14.7
			c-1.934-1-4.084-1.816-6.449-2.45c-2.367-0.633-4.418-0.95-6.149-0.95c-2.936,0-4.4,0.601-4.4,1.801c0,0.6,0.466,1.134,1.4,1.6
			c0.933,0.467,2.399,1,4.399,1.6c3.332,1,6.165,2.067,8.5,3.2c2.332,1.134,4.399,2.867,6.199,5.2c1.801,2.334,2.7,5.367,2.7,9.1
			c0,5.734-1.917,10-5.75,12.801c-3.834,2.8-8.95,4.199-15.351,4.199c-5.268,0-10.185-0.784-14.75-2.35
			c-4.566-1.566-8.218-3.583-10.949-6.05L578.599,184.599z"/>
		<path fill="#939598" d="M238.753,268.599c2.231,3.534,3.35,7.734,3.35,12.6c0,4.867-1.233,9.018-3.7,12.45
			c-2.467,3.436-5.75,6-9.85,7.7s-8.65,2.55-13.65,2.55c-3.6,0-7.866-0.35-12.8-1.05s-8.367-1.616-10.3-2.75v-19.1
			c2.533,1,5.716,1.816,9.55,2.449c3.833,0.635,6.983,0.95,9.45,0.95c3.2,0,5.55-0.633,7.05-1.899s2.25-2.866,2.25-4.801
			c0-1.933-0.617-3.433-1.85-4.5c-1.234-1.065-2.984-1.6-5.25-1.6h-13.2v-15.6h9.8c2.533,0,4.416-0.5,5.65-1.5
			c1.231-1,1.85-2.333,1.85-4c0-1.601-0.55-2.815-1.649-3.65c-1.101-0.833-2.65-1.25-4.65-1.25c-2.334,0-5.25,0.467-8.75,1.4
			c-3.5,0.935-6.25,1.967-8.25,3.1v-18.1c3.466-1.467,6.75-2.583,9.85-3.351c3.101-0.766,6.45-1.149,10.051-1.149
			c7.8,0,13.766,1.733,17.899,5.199c4.133,3.468,6.2,8.034,6.2,13.7c0,3.2-0.634,6.084-1.9,8.65s-2.935,4.617-5,6.149
			C233.903,262.599,236.518,265.067,238.753,268.599z"/>
		<path fill="#939598" d="M356.902,249.899l-13.199,52.601h-25.801l-3.699-18.7l-4.101,18.7h-24.8l-13.2-52.601h24.5l3.101,32.3
			l6.6-28.3h16.4l6.5,30.2l3.199-34.2H356.902L356.902,249.899z"/>
		<path fill="#939598" d="M402.802,270.299c-3.067,0-6.134,0.435-9.2,1.3c-3.066,0.867-5.535,2.134-7.399,3.8v27.101h-23.301
			v-52.601h23.301v9.9c2-3.2,4.55-5.833,7.649-7.9c3.101-2.064,6.283-3.1,9.55-3.1L402.802,270.299z"/>
		<path fill="#939598" d="M414.551,297.599c-3.768-4.4-5.65-11.4-5.65-21c0-6.4,0.815-11.633,2.45-15.7
			c1.633-4.064,4.333-7.1,8.1-9.1s8.814-3,15.15-3c8.932,0,15.281,2.233,19.049,6.7c3.767,4.467,5.65,11.5,5.65,21.1
			c0,6.4-0.816,11.617-2.449,15.65c-1.635,4.033-4.318,7.033-8.051,9c-3.734,1.966-8.802,2.949-15.199,2.949
			C424.666,304.198,418.317,301.999,414.551,297.599z M437.301,285.198c0.6-1.665,0.899-4.865,0.899-9.6
			c0-4.533-0.301-7.6-0.899-9.2c-0.6-1.6-1.668-2.399-3.199-2.399c-1.068,0-1.885,0.334-2.451,1
			c-0.566,0.667-0.967,1.816-1.199,3.449c-0.233,1.635-0.35,4.018-0.35,7.15c0,3.267,0.115,5.767,0.35,7.5
			c0.232,1.734,0.633,2.935,1.199,3.6c0.566,0.668,1.383,1,2.451,1C435.633,287.698,436.7,286.865,437.301,285.198z"/>
		<path fill="#939598" d="M517.55,253.999c2.032,3.267,3.05,7.899,3.05,13.899v34.601h-23.3v-30.101c0-1.2-0.269-2.25-0.8-3.149
			c-0.534-0.9-1.436-1.351-2.7-1.351c-0.601,0-1.5,0.2-2.7,0.601v34h-23.3v-52.601h23.3v6.5c2.8-2.533,5.4-4.383,7.8-5.55
			c2.4-1.166,5.033-1.75,7.9-1.75C511.933,249.099,515.516,250.734,517.55,253.999z"/>
		<path fill="#939598" d="M579.399,295.799c0,9.399-2.017,16.466-6.05,21.2c-4.034,4.732-10.685,7.1-19.95,7.1
			c-7.6,0-14.935-1.367-22-4.1l3.7-13.801c4.533,2,8.766,3,12.7,3c3.398,0,5.865-0.717,7.398-2.149c1.533-1.435,2.366-3.75,2.5-6.95
			c-2.398,2.733-5.634,4.1-9.699,4.1c-3.468,0-6.635-0.967-9.5-2.899c-2.866-1.933-5.149-4.851-6.851-8.75
			c-1.7-3.9-2.55-8.715-2.55-14.45c0-6.933,1.232-12.6,3.7-17c2.466-4.399,5.5-7.55,9.1-9.45c3.601-1.899,7.2-2.85,10.8-2.85
			c4.2,0,9.051,0.45,14.551,1.35c5.5,0.9,9.551,1.917,12.149,3.05L579.399,295.799L579.399,295.799z M557.698,289.399v-24.1
			c-2.733,0.066-4.8,0.95-6.199,2.649c-1.399,1.7-2.101,5.018-2.101,9.95c0,4.535,0.565,7.7,1.7,9.5c1.133,1.8,2.433,2.7,3.9,2.7
			C555.664,290.099,556.565,289.865,557.698,289.399z"/>
		<path fill="#939598" d="M590.698,281.599c4.2,2.2,7.517,3.8,9.95,4.8c2.433,1,4.683,1.5,6.75,1.5c0.933,0,1.716-0.183,2.351-0.55
			c0.633-0.366,0.949-0.916,0.949-1.65c0-1.065-0.584-1.933-1.75-2.6c-1.167-0.666-3.084-1.433-5.75-2.3
			c-3.066-1-5.634-2.017-7.699-3.05c-2.066-1.033-3.851-2.533-5.351-4.5s-2.25-4.483-2.25-7.551c0-5.532,2.232-9.732,6.7-12.6
			c4.466-2.866,9.966-4.3,16.5-4.3c3.933,0,7.716,0.45,11.35,1.35c3.633,0.9,6.551,1.984,8.75,3.25l-4.199,14.7
			c-1.935-1-4.084-1.816-6.449-2.45c-2.367-0.633-4.418-0.95-6.15-0.95c-2.935,0-4.4,0.601-4.4,1.801c0,0.6,0.467,1.134,1.4,1.6
			c0.934,0.467,2.4,1,4.4,1.6c3.332,1,6.165,2.067,8.5,3.2c2.332,1.135,4.398,2.867,6.199,5.2c1.801,2.334,2.699,5.367,2.699,9.1
			c0,5.734-1.917,10-5.75,12.801c-3.834,2.8-8.949,4.199-15.35,4.199c-5.268,0-10.186-0.784-14.75-2.35
			c-4.567-1.565-8.218-3.583-10.95-6.05L590.698,281.599z"/>
	</g>
</g>
</svg>
