<?xml version="1.0" encoding="utf-8"?>
<!-- Generator: Adobe Illustrator 15.1.0, SVG Export Plug-In . SVG Version: 6.00 Build 0)  -->
<!DOCTYPE svg PUBLIC "-//W3C//DTD SVG 1.1//EN" "http://www.w3.org/Graphics/SVG/1.1/DTD/svg11.dtd">
<svg version="1.1" id="RESULT" xmlns="http://www.w3.org/2000/svg" xmlns:xlink="http://www.w3.org/1999/xlink" x="0px" y="0px"
	 width="800px" height="226px" viewBox="0 0 800 226" enable-background="new 0 0 800 226" xml:space="preserve">
<g>
	<path fill="#EC1C24" d="M231.197,58.852c1.9,3.2,2.85,7.234,2.85,12.101c0,7.267-2.284,12.667-6.85,16.2
		c-4.567,3.534-11.15,5.3-19.75,5.3c-8.067,0-14.367-1.533-18.9-4.601c-4.534-3.065-6.8-7.665-6.8-13.8
		c0-4.333,1.065-8.083,3.2-11.25c2.133-3.165,4.9-5.95,8.3-8.35c-3.267-2.266-5.817-4.8-7.65-7.601c-1.834-2.8-2.75-6.133-2.75-10
		c0-4.332,1.2-8.065,3.6-11.199c2.4-3.133,5.615-5.483,9.65-7.051c4.033-1.565,8.383-2.35,13.05-2.35c5,0,9.25,0.85,12.75,2.55
		s6.133,4,7.9,6.9c1.766,2.899,2.65,6.05,2.65,9.45c0,3.467-0.817,6.417-2.45,8.85c-1.634,2.435-3.85,4.65-6.65,6.65
		C226.679,52.919,229.297,55.652,231.197,58.852z M211.947,74.952c1-1,1.5-2.3,1.5-3.9c0-1.732-0.617-3.3-1.85-4.7
		c-1.234-1.399-2.984-2.8-5.25-4.199c-1.334,1.334-2.3,2.617-2.9,3.85c-0.6,1.234-0.9,2.65-0.9,4.25c0,1.867,0.433,3.367,1.3,4.5
		c0.866,1.135,2.2,1.7,4,1.7C209.58,76.452,210.947,75.952,211.947,74.952z M205.197,32.602c-0.9,0.835-1.35,1.95-1.35,3.351
		c0,1.534,0.516,2.867,1.55,4c1.033,1.134,2.55,2.267,4.55,3.399c0.933-1,1.683-2.133,2.25-3.399c0.565-1.266,0.85-2.533,0.85-3.8
		c0-1.266-0.334-2.383-1-3.351c-0.667-0.966-1.8-1.45-3.4-1.45C207.247,31.352,206.097,31.77,205.197,32.602z"/>
	<path fill="#EC1C24" d="M272.496,43.902c4.833-4.233,11.283-6.351,19.35-6.351c6.266,0,12.4,1.101,18.4,3.3l-2.1,14.7
		c-4-1-7.667-1.5-11-1.5c-3.2,0-5.567,0.75-7.1,2.25c-1.534,1.5-2.3,4.351-2.3,8.55c0,3.935,0.75,6.7,2.25,8.301
		c1.5,1.6,3.983,2.399,7.45,2.399c3.533,0,7.365-0.6,11.5-1.8l2.4,15.2c-2.467,1.134-5.567,2.084-9.3,2.85
		c-3.734,0.766-7.267,1.15-10.6,1.15c-7.535,0-13.785-2.283-18.75-6.851c-4.967-4.565-7.45-11.75-7.45-21.55
		C265.246,55.02,267.661,48.137,272.496,43.902z"/>
	<path fill="#EC1C24" d="M322.495,86.352c-3.767-4.399-5.65-11.399-5.65-21c0-6.399,0.815-11.633,2.45-15.699
		c1.633-4.066,4.333-7.101,8.1-9.101c3.766-2,8.816-3,15.15-3c8.933,0,15.283,2.234,19.05,6.7c3.766,4.467,5.65,11.5,5.65,21.1
		c0,6.4-0.817,11.617-2.45,15.65c-1.635,4.034-4.317,7.034-8.05,9c-3.734,1.966-8.8,2.95-15.2,2.95
		C332.611,92.952,326.26,90.752,322.495,86.352z M345.245,73.952c0.6-1.666,0.9-4.866,0.9-9.601c0-4.532-0.3-7.6-0.9-9.199
		c-0.6-1.601-1.667-2.4-3.2-2.4c-1.067,0-1.885,0.334-2.45,1c-0.567,0.667-0.967,1.817-1.2,3.45c-0.234,1.634-0.35,4.017-0.35,7.149
		c0,3.268,0.115,5.768,0.35,7.5c0.233,1.734,0.633,2.935,1.2,3.601c0.565,0.667,1.383,1,2.45,1
		C343.578,76.452,344.645,75.619,345.245,73.952z"/>
	<path fill="#EC1C24" d="M415.644,59.052c-3.067,0-6.134,0.435-9.2,1.3c-3.066,0.867-5.534,2.135-7.4,3.801v27.1h-23.299v-52.6
		h23.299v9.899c2-3.2,4.551-5.833,7.65-7.899s6.283-3.101,9.551-3.101L415.644,59.052z"/>
	<path fill="#EC1C24" d="M463.143,59.052c-3.066,0-6.135,0.435-9.199,1.3c-3.068,0.867-5.535,2.135-7.4,3.801v27.1h-23.301v-52.6
		h23.301v9.899c2-3.2,4.55-5.833,7.65-7.899c3.1-2.066,6.282-3.101,9.549-3.101L463.143,59.052z"/>
	<path fill="#EC1C24" d="M514.143,73.352l2.398,15.5c-2.799,1.268-6.084,2.268-9.85,3c-3.768,0.733-7.283,1.101-10.549,1.101
		c-7.734,0-14.15-2.283-19.25-6.851c-5.102-4.565-7.65-11.683-7.65-21.35c0-9.666,2.516-16.615,7.549-20.85
		c5.033-4.233,11.352-6.351,18.951-6.351c6.533,0,11.865,1.585,16,4.75c4.133,3.167,6.199,8.317,6.199,15.45
		c0,3.467-0.533,7.167-1.6,11.1l-24.6-0.199c0.666,2.467,1.766,4.234,3.299,5.3c1.533,1.067,3.633,1.6,6.301,1.6
		C504.875,75.552,509.143,74.819,514.143,73.352z M491.893,51.952c-0.701,1.267-1.086,3.3-1.15,6.1l9.5-0.3v-0.9
		c0-2.133-0.285-3.8-0.85-5c-0.568-1.199-1.785-1.8-3.65-1.8C493.875,50.052,492.592,50.687,491.893,51.952z"/>
	<path fill="#EC1C24" d="M532.192,43.902c4.832-4.233,11.283-6.351,19.35-6.351c6.266,0,12.4,1.101,18.4,3.3l-2.1,14.7
		c-4-1-7.668-1.5-11-1.5c-3.201,0-5.568,0.75-7.102,2.25s-2.299,4.351-2.299,8.55c0,3.935,0.75,6.7,2.25,8.301
		c1.5,1.6,3.982,2.399,7.449,2.399c3.533,0,7.365-0.6,11.5-1.8l2.4,15.2c-2.467,1.134-5.566,2.084-9.301,2.85s-7.266,1.15-10.6,1.15
		c-7.533,0-13.783-2.283-18.75-6.851c-4.967-4.565-7.449-11.75-7.449-21.55C524.942,55.02,527.358,48.137,532.192,43.902z"/>
	<path fill="#EC1C24" d="M618.34,88.152c-3.066,1.467-5.717,2.467-7.949,3c-2.234,0.532-4.551,0.8-6.949,0.8
		c-7.936,0-13.668-2.283-17.201-6.851c-3.533-4.565-5.299-11.05-5.299-19.449v-13h-5.9v-14h5.9v-13.4h22.1v13.4h12.4v14h-12.4v12.8
		c0,4.067,0.549,6.884,1.65,8.45c1.1,1.566,2.648,2.35,4.648,2.35c1.533,0,3.633-0.4,6.301-1.2L618.34,88.152z"/>
	<path fill="#929497" d="M253.245,129.652l-23.1,58.6h-22.2l22.6-55.7h-23.5v-18h46.2V129.652z"/>
	<path fill="#929497" d="M368.044,135.652l-13.2,52.6h-25.8l-3.7-18.7l-4.1,18.7h-24.8l-13.2-52.6h24.5l3.1,32.3l6.6-28.3h16.4
		l6.5,30.199l3.2-34.199H368.044z"/>
	<path fill="#929497" d="M413.944,156.052c-3.066,0-6.134,0.435-9.199,1.3c-3.067,0.867-5.535,2.135-7.4,3.801v27.1h-23.3v-52.6
		h23.3v9.899c2-3.2,4.551-5.833,7.65-7.899s6.283-3.101,9.55-3.101L413.944,156.052z"/>
	<path fill="#929497" d="M425.694,183.352c-3.768-4.399-5.65-11.399-5.65-21c0-6.399,0.815-11.633,2.45-15.699
		c1.633-4.066,4.333-7.101,8.1-9.101c3.766-2,8.815-3,15.15-3c8.933,0,15.282,2.234,19.05,6.7c3.766,4.467,5.65,11.5,5.65,21.1
		c0,6.4-0.816,11.617-2.449,15.65c-1.635,4.034-4.318,7.034-8.051,9c-3.734,1.966-8.801,2.95-15.2,2.95
		C435.809,189.952,429.459,187.752,425.694,183.352z M448.444,170.952c0.6-1.666,0.899-4.866,0.899-9.601
		c0-4.532-0.3-7.6-0.899-9.199c-0.601-1.601-1.668-2.4-3.2-2.4c-1.067,0-1.885,0.334-2.45,1c-0.567,0.667-0.967,1.817-1.2,3.45
		c-0.234,1.634-0.35,4.017-0.35,7.149c0,3.268,0.115,5.768,0.35,7.5c0.233,1.734,0.633,2.935,1.2,3.601c0.565,0.667,1.383,1,2.45,1
		C446.776,173.452,447.843,172.619,448.444,170.952z"/>
	<path fill="#929497" d="M528.692,139.752c2.033,3.268,3.051,7.9,3.051,13.9v34.6h-23.301v-30.1c0-1.2-0.268-2.25-0.799-3.15
		c-0.535-0.9-1.436-1.35-2.701-1.35c-0.6,0-1.5,0.199-2.699,0.6v34h-23.301v-52.6h23.301v6.5c2.799-2.533,5.4-4.383,7.799-5.551
		c2.4-1.165,5.033-1.75,7.9-1.75C523.074,134.852,526.658,136.486,528.692,139.752z"/>
	<path fill="#929497" d="M590.541,181.552c0,9.4-2.018,16.466-6.051,21.2c-4.033,4.732-10.684,7.1-19.949,7.1
		c-7.6,0-14.936-1.367-22-4.1l3.699-13.8c4.533,2,8.766,3,12.701,3c3.398,0,5.865-0.718,7.398-2.15c1.533-1.435,2.367-3.75,2.5-6.95
		c-2.398,2.733-5.633,4.101-9.699,4.101c-3.467,0-6.635-0.968-9.5-2.9c-2.867-1.933-5.15-4.85-6.85-8.75
		c-1.701-3.899-2.551-8.716-2.551-14.45c0-6.933,1.232-12.6,3.701-17c2.465-4.399,5.5-7.55,9.1-9.449
		c3.6-1.9,7.199-2.851,10.799-2.851c4.201,0,9.051,0.45,14.551,1.351c5.5,0.899,9.551,1.917,12.15,3.05V181.552z M568.84,175.152
		v-24.101c-2.734,0.067-4.799,0.95-6.199,2.65s-2.1,5.017-2.1,9.95c0,4.534,0.564,7.699,1.699,9.5c1.133,1.8,2.434,2.699,3.9,2.699
		C566.807,175.852,567.707,175.619,568.84,175.152z"/>
</g>
</svg>
