<?xml version="1.0" encoding="utf-8"?>
<!-- Generator: Adobe Illustrator 15.1.0, SVG Export Plug-In . SVG Version: 6.00 Build 0)  -->
<!DOCTYPE svg PUBLIC "-//W3C//DTD SVG 1.1//EN" "http://www.w3.org/Graphics/SVG/1.1/DTD/svg11.dtd">
<svg version="1.1" id="RESULT" xmlns="http://www.w3.org/2000/svg" xmlns:xlink="http://www.w3.org/1999/xlink" x="0px" y="0px"
	 width="800px" height="226px" viewBox="0 0 800 226" enable-background="new 0 0 800 226" xml:space="preserve">
<g>
	<path fill="#EC1C24" d="M191.448,91.13h-22.6v-54.6h-0.7l-10.3,2.7v-16.5l21.3-5.9h12.3V91.13z"/>
	<path fill="#EC1C24" d="M259.047,75.93h-7.9v15.2h-22.6v-15.2h-29.1v-16.5l31.5-41.9h20.2v42.1h7.9V75.93z M228.547,59.63v-14
		l-10.6,14H228.547z"/>
	<path fill="#EC1C24" d="M297.797,43.78c4.833-4.233,11.283-6.35,19.35-6.35c6.266,0,12.4,1.1,18.4,3.3l-2.1,14.7
		c-4-1-7.667-1.5-11-1.5c-3.2,0-5.567,0.75-7.1,2.25c-1.534,1.5-2.3,4.35-2.3,8.55c0,3.934,0.75,6.7,2.25,8.3s3.983,2.4,7.45,2.4
		c3.533,0,7.365-0.6,11.5-1.8l2.4,15.2c-2.467,1.134-5.567,2.084-9.3,2.85c-3.734,0.766-7.267,1.15-10.6,1.15
		c-7.535,0-13.785-2.283-18.75-6.85c-4.967-4.566-7.45-11.75-7.45-21.55C290.547,54.897,292.962,48.015,297.797,43.78z"/>
	<path fill="#EC1C24" d="M347.796,86.23c-3.767-4.4-5.65-11.4-5.65-21c0-6.4,0.815-11.633,2.45-15.7c1.633-4.065,4.333-7.1,8.1-9.1
		c3.766-2,8.816-3,15.15-3c8.933,0,15.283,2.234,19.05,6.7c3.766,4.467,5.65,11.5,5.65,21.1c0,6.4-0.817,11.617-2.45,15.65
		c-1.635,4.034-4.317,7.034-8.05,9c-3.734,1.966-8.8,2.95-15.2,2.95C357.911,92.831,351.561,90.63,347.796,86.23z M370.546,73.831
		c0.6-1.666,0.9-4.866,0.9-9.6c0-4.533-0.3-7.6-0.9-9.2s-1.667-2.4-3.2-2.4c-1.067,0-1.885,0.334-2.45,1
		c-0.567,0.667-0.967,1.817-1.2,3.45c-0.234,1.634-0.35,4.017-0.35,7.15c0,3.267,0.115,5.767,0.35,7.5
		c0.233,1.734,0.633,2.934,1.2,3.6c0.565,0.667,1.383,1,2.45,1C368.879,76.331,369.946,75.498,370.546,73.831z"/>
	<path fill="#EC1C24" d="M440.945,58.93c-3.066,0-6.135,0.435-9.199,1.3c-3.068,0.867-5.535,2.134-7.4,3.8v27.1h-23.3v-52.6h23.3
		v9.9c2-3.2,4.549-5.833,7.65-7.9c3.1-2.065,6.281-3.1,9.549-3.1L440.945,58.93z"/>
	<path fill="#EC1C24" d="M488.445,58.93c-3.067,0-6.135,0.435-9.2,1.3c-3.067,0.867-5.534,2.134-7.4,3.8v27.1h-23.3v-52.6h23.3v9.9
		c2-3.2,4.55-5.833,7.65-7.9c3.1-2.065,6.282-3.1,9.55-3.1L488.445,58.93z"/>
	<path fill="#EC1C24" d="M539.444,73.23l2.399,15.5c-2.8,1.267-6.084,2.267-9.85,3c-3.768,0.733-7.284,1.1-10.55,1.1
		c-7.734,0-14.15-2.283-19.25-6.85c-5.101-4.566-7.65-11.683-7.65-21.35c0-9.666,2.516-16.616,7.55-20.85
		c5.033-4.233,11.351-6.35,18.95-6.35c6.533,0,11.865,1.584,16,4.75c4.133,3.167,6.2,8.317,6.2,15.45
		c0,3.467-0.534,7.167-1.601,11.1l-24.6-0.2c0.666,2.467,1.766,4.234,3.3,5.3c1.533,1.067,3.633,1.6,6.3,1.6
		C530.176,75.43,534.444,74.698,539.444,73.23z M517.194,51.831c-0.7,1.267-1.085,3.3-1.15,6.1l9.5-0.3v-0.9
		c0-2.133-0.284-3.8-0.85-5c-0.567-1.2-1.785-1.8-3.65-1.8C519.176,49.93,517.893,50.565,517.194,51.831z"/>
	<path fill="#EC1C24" d="M557.492,43.78c4.833-4.233,11.283-6.35,19.35-6.35c6.266,0,12.4,1.1,18.4,3.3l-2.1,14.7
		c-4-1-7.668-1.5-11-1.5c-3.2,0-5.567,0.75-7.101,2.25c-1.534,1.5-2.3,4.35-2.3,8.55c0,3.934,0.75,6.7,2.25,8.3s3.982,2.4,7.45,2.4
		c3.532,0,7.365-0.6,11.5-1.8l2.399,15.2c-2.467,1.134-5.566,2.084-9.3,2.85c-3.734,0.766-7.267,1.15-10.6,1.15
		c-7.534,0-13.784-2.283-18.75-6.85c-4.968-4.566-7.45-11.75-7.45-21.55C550.242,54.897,552.658,48.015,557.492,43.78z"/>
	<path fill="#EC1C24" d="M643.641,88.03c-3.067,1.467-5.717,2.467-7.95,3c-2.234,0.533-4.55,0.8-6.949,0.8
		c-7.935,0-13.668-2.283-17.2-6.85c-3.534-4.566-5.3-11.05-5.3-19.45v-13h-5.9v-14h5.9v-13.4h22.1v13.4h12.4v14h-12.4v12.8
		c0,4.067,0.55,6.884,1.65,8.45c1.1,1.567,2.649,2.35,4.649,2.35c1.533,0,3.633-0.4,6.3-1.2L643.641,88.03z"/>
	<path fill="#929497" d="M246.396,188.131h-22.6V133.53h-0.7l-10.3,2.7v-16.5l21.3-5.9h12.3V188.131z"/>
	<path fill="#929497" d="M363.196,135.53l-13.2,52.601h-25.8l-3.7-18.701l-4.1,18.701h-24.8l-13.2-52.601h24.5l3.1,32.3l6.6-28.3
		h16.4l6.5,30.2l3.2-34.2H363.196z"/>
	<path fill="#929497" d="M409.096,155.93c-3.067,0-6.135,0.436-9.2,1.301c-3.067,0.867-5.535,2.135-7.4,3.8v27.101h-23.3V135.53
		h23.3v9.899c2-3.199,4.55-5.832,7.65-7.899c3.1-2.065,6.282-3.101,9.55-3.101L409.096,155.93z"/>
	<path fill="#929497" d="M420.845,183.23c-3.768-4.4-5.65-11.4-5.65-21c0-6.4,0.815-11.633,2.45-15.7
		c1.633-4.065,4.333-7.101,8.1-9.101c3.766-2,8.815-3,15.15-3c8.933,0,15.282,2.234,19.05,6.701c3.766,4.467,5.65,11.5,5.65,21.1
		c0,6.4-0.817,11.617-2.45,15.65c-1.635,4.033-4.317,7.033-8.05,9c-3.734,1.965-8.801,2.949-15.2,2.949
		C430.96,189.83,424.611,187.631,420.845,183.23z M443.595,170.83c0.6-1.666,0.899-4.865,0.899-9.6c0-4.533-0.3-7.6-0.899-9.2
		c-0.601-1.601-1.668-2.399-3.2-2.399c-1.067,0-1.885,0.334-2.45,1c-0.567,0.666-0.967,1.816-1.2,3.449
		c-0.234,1.635-0.35,4.018-0.35,7.15c0,3.268,0.115,5.768,0.35,7.5c0.233,1.734,0.633,2.934,1.2,3.6c0.565,0.668,1.383,1,2.45,1
		C441.927,173.33,442.994,172.498,443.595,170.83z"/>
	<path fill="#929497" d="M523.844,139.631c2.033,3.267,3.05,7.899,3.05,13.899v34.601h-23.3V158.03c0-1.2-0.268-2.25-0.8-3.149
		c-0.534-0.9-1.435-1.351-2.7-1.351c-0.6,0-1.5,0.2-2.7,0.601v34h-23.3V135.53h23.3v6.5c2.8-2.532,5.4-4.383,7.8-5.55
		c2.4-1.166,5.033-1.75,7.9-1.75C518.227,134.73,521.81,136.365,523.844,139.631z"/>
	<path fill="#929497" d="M585.693,181.43c0,9.4-2.017,16.467-6.05,21.201c-4.034,4.732-10.685,7.1-19.95,7.1
		c-7.6,0-14.935-1.367-22-4.1l3.7-13.801c4.533,2,8.766,3,12.7,3c3.399,0,5.865-0.717,7.399-2.15c1.533-1.434,2.366-3.75,2.5-6.949
		c-2.399,2.732-5.634,4.1-9.699,4.1c-3.468,0-6.635-0.967-9.5-2.9c-2.867-1.932-5.15-4.85-6.851-8.75
		c-1.7-3.899-2.55-8.715-2.55-14.449c0-6.934,1.232-12.6,3.7-17c2.466-4.4,5.5-7.551,9.1-9.45c3.601-1.899,7.2-2.851,10.8-2.851
		c4.2,0,9.051,0.451,14.551,1.351s9.55,1.917,12.149,3.05V181.43z M563.992,175.03V150.93c-2.734,0.068-4.8,0.951-6.199,2.65
		c-1.4,1.7-2.101,5.018-2.101,9.95c0,4.534,0.565,7.7,1.7,9.5c1.133,1.8,2.433,2.7,3.9,2.7
		C561.958,175.73,562.859,175.498,563.992,175.03z"/>
</g>
</svg>
