<?xml version="1.0" encoding="utf-8"?>
<!-- Generator: Adobe Illustrator 15.1.0, SVG Export Plug-In . SVG Version: 6.00 Build 0)  -->
<!DOCTYPE svg PUBLIC "-//W3C//DTD SVG 1.1//EN" "http://www.w3.org/Graphics/SVG/1.1/DTD/svg11.dtd">
<svg version="1.1" id="RESULT" xmlns="http://www.w3.org/2000/svg" xmlns:xlink="http://www.w3.org/1999/xlink" x="0px" y="0px"
	 width="824px" height="125px" viewBox="0 162.5 824 125" enable-background="new 0 162.5 824 125" xml:space="preserve">
<g>
	<g enable-background="new    ">
		<path fill="#ED1C24" d="M238.238,262.953h-22.602v-54.599h-0.698l-10.302,2.699v-16.5l21.302-5.899h12.3V262.953z"/>
		<path fill="#ED1C24" d="M296.037,237.854c0,6.867-1.634,12.27-4.9,16.199c-3.267,3.936-7.084,6.617-11.448,8.051
			c-4.367,1.436-8.585,2.15-12.65,2.15c-7.067,0-13-1.135-17.8-3.4v-19.301c2.731,1.135,5.25,1.951,7.55,2.451s4.65,0.75,7.05,0.75
			c3.2,0,5.55-0.533,7.05-1.602c1.5-1.064,2.25-2.801,2.25-5.199c0-2-0.6-3.449-1.8-4.352c-1.2-0.898-3.398-1.35-6.6-1.35h-15.4v-43
			h42.102v17.5h-21.602v8.603C287.302,215.354,296.037,222.854,296.037,237.854z"/>
		<path fill="#ED1C24" d="M370.934,230.754c-3.065,0-6.134,0.434-9.198,1.299c-3.067,0.867-5.535,2.135-7.4,3.801v27.102h-23.3
			v-52.601h23.3v9.899c2-3.2,4.55-5.833,7.65-7.899c3.1-2.064,6.281-3.101,9.55-3.101L370.934,230.754z"/>
		<path fill="#ED1C24" d="M379.933,201.604c-2.398-2.033-3.6-4.684-3.6-7.95c0-3.133,1.15-5.664,3.45-7.601
			c2.3-1.933,5.283-2.899,8.95-2.899c3.333,0,6.215,1,8.648,3c2.433,2,3.65,4.636,3.65,7.899c0,3.135-1.134,5.687-3.4,7.65
			c-2.267,1.967-5.232,2.948-8.898,2.948C385.266,204.652,382.335,203.638,379.933,201.604z M377.036,210.354h23.3v52.601h-23.3
			V210.354z"/>
		<path fill="#ED1C24" d="M457.635,256.254c0,9.398-2.018,16.465-6.051,21.199c-4.033,4.73-10.686,7.1-19.949,7.1
			c-7.6,0-14.936-1.367-22-4.1l3.7-13.801c4.533,2,8.766,3,12.701,3c3.396,0,5.863-0.719,7.396-2.148
			c1.533-1.438,2.367-3.75,2.5-6.951c-2.396,2.734-5.633,4.102-9.697,4.102c-3.469,0-6.637-0.969-9.5-2.898
			c-2.867-1.936-5.15-4.852-6.852-8.75c-1.7-3.9-2.55-8.717-2.55-14.451c0-6.932,1.232-12.6,3.7-17c2.465-4.397,5.5-7.55,9.1-9.449
			c3.602-1.898,7.199-2.851,10.799-2.851c4.201,0,9.053,0.45,14.553,1.351c5.5,0.899,9.551,1.917,12.148,3.052L457.635,256.254
			L457.635,256.254z M435.932,249.854v-24.1c-2.732,0.064-4.799,0.949-6.197,2.648c-1.4,1.699-2.102,5.018-2.102,9.949
			c0,4.535,0.564,7.699,1.699,9.5c1.133,1.801,2.434,2.699,3.898,2.699C433.899,250.553,434.801,250.319,435.932,249.854z"/>
		<path fill="#ED1C24" d="M517.182,214.454c2.033,3.268,3.053,7.898,3.053,13.898v34.602h-23.303v-30.1
			c0-1.199-0.268-2.25-0.799-3.148c-0.535-0.9-1.436-1.352-2.701-1.352c-0.732,0-1.533,0.168-2.398,0.5v34.102h-23.398v-80h23.398
			v33.698c2.732-2.531,5.266-4.351,7.602-5.448c2.332-1.102,4.932-1.65,7.799-1.65C511.567,209.553,515.149,211.188,517.182,214.454
			z"/>
		<path fill="#ED1C24" d="M569.533,259.854c-3.066,1.467-5.717,2.467-7.949,3c-2.234,0.533-4.551,0.801-6.951,0.801
			c-7.934,0-13.666-2.281-17.199-6.852c-3.535-4.562-5.301-11.049-5.301-19.449v-13h-5.898v-14h5.898v-13.399h22.102v13.399h12.398
			v14h-12.398v12.8c0,4.066,0.551,6.885,1.648,8.449c1.102,1.566,2.65,2.352,4.65,2.352c1.531,0,3.633-0.4,6.301-1.199
			L569.533,259.854z"/>
		<path fill="#ED1C24" d="M577.832,242.053c4.201,2.201,7.516,3.801,9.951,4.801c2.432,1,4.682,1.5,6.75,1.5
			c0.932,0,1.715-0.184,2.35-0.551c0.633-0.365,0.949-0.914,0.949-1.648c0-1.064-0.584-1.934-1.75-2.602
			c-1.166-0.664-3.084-1.432-5.75-2.299c-3.066-1-5.633-2.018-7.699-3.051s-3.85-2.533-5.35-4.5s-2.25-4.482-2.25-7.551
			c0-5.532,2.23-9.732,6.699-12.601c4.467-2.865,9.967-4.3,16.5-4.3c3.934,0,7.717,0.45,11.35,1.351
			c3.633,0.899,6.551,1.984,8.75,3.25l-4.199,14.699c-1.934-1-4.084-1.814-6.449-2.449c-2.367-0.632-4.418-0.95-6.148-0.95
			c-2.938,0-4.4,0.602-4.4,1.801c0,0.6,0.465,1.135,1.4,1.6c0.932,0.469,2.398,1,4.398,1.602c3.332,1,6.164,2.066,8.5,3.199
			c2.332,1.135,4.398,2.867,6.199,5.199c1.801,2.336,2.699,5.367,2.699,9.102c0,5.734-1.916,10-5.75,12.801
			s-8.949,4.199-15.35,4.199c-5.27,0-10.186-0.783-14.75-2.352c-4.566-1.564-8.219-3.582-10.949-6.049L577.832,242.053z"/>
	</g>
</g>
<g>
	<polygon fill="#ED1C24" points="135.649,190.37 146.229,217.208 175.023,218.976 152.766,237.332 159.984,265.264 135.649,249.77 
		111.315,265.264 118.53,237.332 96.275,218.976 125.069,217.208 	"/>
	<polygon fill="#ED1C24" points="46.649,190.37 57.229,217.208 86.023,218.976 63.768,237.332 70.984,265.264 46.649,249.77 
		22.315,265.264 29.53,237.332 7.275,218.976 36.069,217.208 	"/>
</g>
<g>
	<polygon fill="#ED1C24" points="777.065,190.37 787.645,217.208 816.44,218.976 794.184,237.332 801.399,265.264 777.065,249.77 
		752.731,265.264 759.946,237.332 737.692,218.976 766.485,217.208 	"/>
	<polygon fill="#ED1C24" points="688.065,190.37 698.645,217.208 727.44,218.976 705.184,237.332 712.399,265.264 688.065,249.77 
		663.731,265.264 670.946,237.332 648.692,218.976 677.485,217.208 	"/>
</g>
</svg>
