<?xml version="1.0" encoding="utf-8"?>
<!-- Generator: Adobe Illustrator 15.1.0, SVG Export Plug-In . SVG Version: 6.00 Build 0)  -->
<!DOCTYPE svg PUBLIC "-//W3C//DTD SVG 1.1//EN" "http://www.w3.org/Graphics/SVG/1.1/DTD/svg11.dtd">
<svg version="1.1" id="RESULT" xmlns="http://www.w3.org/2000/svg" xmlns:xlink="http://www.w3.org/1999/xlink" x="0px" y="0px"
	 width="800px" height="226px" viewBox="0 0 800 226" enable-background="new 0 0 800 226" xml:space="preserve">
<g>
	<path fill="#EC1C24" d="M186.797,84.38c-4.6-4.966-6.9-13.116-6.9-24.45v-10.9c0-8,1.033-14.4,3.1-19.2
		c2.065-4.8,5.183-8.283,9.35-10.45c4.166-2.166,9.55-3.25,16.15-3.25s11.983,1.084,16.15,3.25c4.166,2.167,7.266,5.65,9.3,10.45
		c2.033,4.8,3.05,11.2,3.05,19.2v10.9c0,7.667-1.017,13.834-3.05,18.5c-2.034,4.667-5.134,8.067-9.3,10.2
		c-4.167,2.134-9.55,3.2-16.15,3.2C198.63,91.831,191.397,89.348,186.797,84.38z M211.697,71.03c0.733-0.533,1.266-1.583,1.6-3.15
		c0.333-1.565,0.5-3.916,0.5-7.05v-14.9c0-3.4-0.167-5.95-0.5-7.65c-0.334-1.7-0.884-2.85-1.65-3.45c-0.767-0.6-1.817-0.9-3.15-0.9
		c-1.334,0-2.384,0.3-3.15,0.9c-0.768,0.6-1.317,1.75-1.65,3.45c-0.334,1.7-0.5,4.25-0.5,7.65v14.9c0,3.134,0.166,5.484,0.5,7.05
		c0.333,1.567,0.866,2.617,1.6,3.15c0.733,0.535,1.8,0.8,3.2,0.8S210.963,71.565,211.697,71.03z"/>
	<path fill="#EC1C24" d="M275.747,43.78c4.833-4.233,11.283-6.35,19.35-6.35c6.266,0,12.4,1.1,18.4,3.3l-2.1,14.7
		c-4-1-7.667-1.5-11-1.5c-3.2,0-5.567,0.75-7.1,2.25c-1.534,1.5-2.3,4.35-2.3,8.55c0,3.934,0.75,6.7,2.25,8.3s3.983,2.4,7.45,2.4
		c3.533,0,7.365-0.6,11.5-1.8l2.4,15.2c-2.467,1.134-5.567,2.084-9.3,2.85c-3.734,0.766-7.267,1.15-10.6,1.15
		c-7.535,0-13.785-2.283-18.75-6.85c-4.967-4.566-7.45-11.75-7.45-21.55C268.497,54.897,270.912,48.015,275.747,43.78z"/>
	<path fill="#EC1C24" d="M325.746,86.23c-3.767-4.4-5.65-11.4-5.65-21c0-6.4,0.815-11.633,2.45-15.7c1.633-4.065,4.333-7.1,8.1-9.1
		c3.766-2,8.816-3,15.15-3c8.933,0,15.283,2.234,19.05,6.7c3.766,4.467,5.65,11.5,5.65,21.1c0,6.4-0.817,11.617-2.45,15.65
		c-1.635,4.034-4.317,7.034-8.05,9c-3.734,1.966-8.8,2.95-15.2,2.95C335.862,92.831,329.511,90.63,325.746,86.23z M348.496,73.831
		c0.6-1.666,0.9-4.866,0.9-9.6c0-4.533-0.3-7.6-0.9-9.2s-1.667-2.4-3.2-2.4c-1.067,0-1.885,0.334-2.45,1
		c-0.567,0.667-0.967,1.817-1.2,3.45c-0.234,1.634-0.35,4.017-0.35,7.15c0,3.267,0.115,5.767,0.35,7.5
		c0.233,1.734,0.633,2.934,1.2,3.6c0.565,0.667,1.383,1,2.45,1C346.829,76.331,347.896,75.498,348.496,73.831z"/>
	<path fill="#EC1C24" d="M418.896,58.93c-3.068,0-6.135,0.435-9.201,1.3c-3.066,0.867-5.533,2.134-7.4,3.8v27.1h-23.299v-52.6
		h23.299v9.9c2-3.2,4.551-5.833,7.65-7.9c3.1-2.065,6.283-3.1,9.551-3.1L418.896,58.93z"/>
	<path fill="#EC1C24" d="M466.395,58.93c-3.067,0-6.135,0.435-9.2,1.3c-3.067,0.867-5.534,2.134-7.4,3.8v27.1h-23.3v-52.6h23.3v9.9
		c2-3.2,4.55-5.833,7.65-7.9c3.1-2.065,6.282-3.1,9.55-3.1L466.395,58.93z"/>
	<path fill="#EC1C24" d="M517.394,73.23l2.399,15.5c-2.8,1.267-6.084,2.267-9.85,3c-3.768,0.733-7.284,1.1-10.55,1.1
		c-7.734,0-14.15-2.283-19.25-6.85c-5.101-4.566-7.65-11.683-7.65-21.35c0-9.666,2.516-16.616,7.55-20.85
		c5.033-4.233,11.351-6.35,18.95-6.35c6.533,0,11.865,1.584,16,4.75c4.133,3.167,6.2,8.317,6.2,15.45
		c0,3.467-0.534,7.167-1.601,11.1l-24.6-0.2c0.666,2.467,1.766,4.234,3.3,5.3c1.533,1.067,3.633,1.6,6.3,1.6
		C508.126,75.43,512.394,74.698,517.394,73.23z M495.144,51.831c-0.7,1.267-1.085,3.3-1.15,6.1l9.5-0.3v-0.9
		c0-2.133-0.284-3.8-0.85-5c-0.567-1.2-1.785-1.8-3.65-1.8C497.126,49.93,495.843,50.565,495.144,51.831z"/>
	<path fill="#EC1C24" d="M535.443,43.78c4.833-4.233,11.283-6.35,19.35-6.35c6.266,0,12.4,1.1,18.4,3.3l-2.1,14.7
		c-4-1-7.668-1.5-11-1.5c-3.2,0-5.567,0.75-7.101,2.25c-1.534,1.5-2.3,4.35-2.3,8.55c0,3.934,0.75,6.7,2.25,8.3s3.982,2.4,7.45,2.4
		c3.532,0,7.365-0.6,11.5-1.8l2.399,15.2c-2.467,1.134-5.566,2.084-9.3,2.85c-3.734,0.766-7.267,1.15-10.6,1.15
		c-7.534,0-13.784-2.283-18.75-6.85c-4.968-4.566-7.45-11.75-7.45-21.55C528.193,54.897,530.609,48.015,535.443,43.78z"/>
	<path fill="#EC1C24" d="M621.592,88.03c-3.067,1.467-5.717,2.467-7.95,3c-2.234,0.533-4.55,0.8-6.949,0.8
		c-7.935,0-13.668-2.283-17.2-6.85c-3.534-4.566-5.3-11.05-5.3-19.45v-13h-5.9v-14h5.9v-13.4h22.1v13.4h12.4v14h-12.4v12.8
		c0,4.067,0.55,6.884,1.65,8.45c1.1,1.567,2.649,2.35,4.649,2.35c1.533,0,3.633-0.4,6.3-1.2L621.592,88.03z"/>
	<path fill="#929497" d="M217.996,188.131h-22.6V133.53h-0.7l-10.3,2.7v-16.5l21.3-5.9h12.3V188.131z"/>
	<path fill="#929497" d="M275.796,163.03c0,6.867-1.634,12.267-4.9,16.2c-3.267,3.934-7.084,6.617-11.45,8.05
		c-4.367,1.433-8.584,2.149-12.65,2.149c-7.067,0-13-1.134-17.8-3.399v-19.3c2.733,1.135,5.25,1.949,7.55,2.449
		c2.3,0.5,4.65,0.75,7.05,0.75c3.2,0,5.55-0.532,7.05-1.6c1.5-1.065,2.25-2.8,2.25-5.199c0-2-0.6-3.451-1.8-4.351
		c-1.2-0.899-3.4-1.351-6.6-1.351h-15.4v-43h42.1v17.5h-21.6v8.601C267.061,140.53,275.796,148.03,275.796,163.03z"/>
	<path fill="#929497" d="M391.595,135.53l-13.2,52.601h-25.8l-3.7-18.701l-4.1,18.701h-24.8l-13.2-52.601h24.5l3.1,32.3l6.6-28.3
		h16.4l6.5,30.2l3.2-34.2H391.595z"/>
	<path fill="#929497" d="M437.495,155.93c-3.067,0-6.135,0.436-9.2,1.301c-3.067,0.867-5.534,2.135-7.4,3.8v27.101h-23.3V135.53
		h23.3v9.899c2-3.199,4.55-5.832,7.65-7.899c3.1-2.065,6.282-3.101,9.55-3.101L437.495,155.93z"/>
	<path fill="#929497" d="M449.244,183.23c-3.768-4.4-5.65-11.4-5.65-21c0-6.4,0.815-11.633,2.45-15.7
		c1.633-4.065,4.333-7.101,8.1-9.101c3.766-2,8.815-3,15.15-3c8.933,0,15.282,2.234,19.05,6.701c3.766,4.467,5.65,11.5,5.65,21.1
		c0,6.4-0.817,11.617-2.45,15.65c-1.635,4.033-4.317,7.033-8.05,9c-3.734,1.965-8.801,2.949-15.2,2.949
		C459.36,189.83,453.01,187.631,449.244,183.23z M471.994,170.83c0.6-1.666,0.899-4.865,0.899-9.6c0-4.533-0.3-7.6-0.899-9.2
		c-0.601-1.601-1.668-2.399-3.2-2.399c-1.067,0-1.885,0.334-2.45,1c-0.567,0.666-0.967,1.816-1.2,3.449
		c-0.234,1.635-0.35,4.018-0.35,7.15c0,3.268,0.115,5.768,0.35,7.5c0.233,1.734,0.633,2.934,1.2,3.6c0.565,0.668,1.383,1,2.45,1
		C470.326,173.33,471.394,172.498,471.994,170.83z"/>
	<path fill="#929497" d="M552.243,139.631c2.033,3.267,3.05,7.899,3.05,13.899v34.601h-23.3V158.03c0-1.2-0.268-2.25-0.8-3.149
		c-0.534-0.9-1.435-1.351-2.7-1.351c-0.6,0-1.5,0.2-2.7,0.601v34h-23.3V135.53h23.3v6.5c2.8-2.532,5.4-4.383,7.8-5.55
		c2.4-1.166,5.033-1.75,7.9-1.75C546.626,134.73,550.209,136.365,552.243,139.631z"/>
	<path fill="#929497" d="M614.092,181.43c0,9.4-2.017,16.467-6.05,21.201c-4.034,4.732-10.685,7.1-19.95,7.1
		c-7.6,0-14.935-1.367-22-4.1l3.7-13.801c4.533,2,8.766,3,12.7,3c3.399,0,5.865-0.717,7.399-2.15c1.533-1.434,2.366-3.75,2.5-6.949
		c-2.399,2.732-5.634,4.1-9.699,4.1c-3.468,0-6.635-0.967-9.5-2.9c-2.867-1.932-5.15-4.85-6.851-8.75
		c-1.7-3.899-2.55-8.715-2.55-14.449c0-6.934,1.232-12.6,3.7-17c2.466-4.4,5.5-7.551,9.1-9.45c3.601-1.899,7.2-2.851,10.8-2.851
		c4.2,0,9.051,0.451,14.551,1.351s9.55,1.917,12.149,3.05V181.43z M592.392,175.03V150.93c-2.734,0.068-4.8,0.951-6.199,2.65
		c-1.4,1.7-2.101,5.018-2.101,9.95c0,4.534,0.565,7.7,1.7,9.5c1.133,1.8,2.433,2.7,3.9,2.7
		C590.358,175.73,591.258,175.498,592.392,175.03z"/>
</g>
</svg>
