<?xml version="1.0" encoding="utf-8"?>
<!-- Generator: Adobe Illustrator 15.1.0, SVG Export Plug-In . SVG Version: 6.00 Build 0)  -->
<!DOCTYPE svg PUBLIC "-//W3C//DTD SVG 1.1//EN" "http://www.w3.org/Graphics/SVG/1.1/DTD/svg11.dtd">
<svg version="1.1" id="RESULT" xmlns="http://www.w3.org/2000/svg" xmlns:xlink="http://www.w3.org/1999/xlink" x="0px" y="0px"
	 width="824px" height="450px" viewBox="-12 0 824 450" enable-background="new -12 0 824 450" xml:space="preserve">
<rect x="175.5" y="236.406" fill="#939598" width="449" height="92.258"/>
<g>
	<g>
		<path fill="#ED1C24" d="M259.552,58.249c3.333,4.3,5,10.117,5,17.45c0,15.667-8.2,23.5-24.6,23.5c-9.134,0-15.667-2.2-19.6-6.6
			c-3.935-4.4-6-10.066-6.2-17v-0.7v-0.6v-1.1l0.1-18.6c0-10.4,2.433-18.35,7.3-23.85c4.866-5.5,11.666-8.25,20.4-8.25
			c6.733,0,13.466,1.6,20.2,4.8l-3.2,16.5c-1.934-0.732-4.334-1.4-7.2-2c-2.867-0.6-5.334-0.9-7.4-0.9
			c-3.334,0-5.617,0.984-6.85,2.95c-1.234,1.967-1.917,5.317-2.05,10.05c3.666-1.4,7.133-2.1,10.4-2.1
			C251.652,51.799,256.218,53.949,259.552,58.249z M242.502,80.799c0.633-1.266,0.95-3.3,0.95-6.1c0-2.8-0.317-4.783-0.95-5.95
			c-0.634-1.166-1.717-1.75-3.25-1.75c-1.4,0-2.384,0.534-2.95,1.6c-0.567,1.067-0.884,2.9-0.95,5.5v0.5c0,2.867,0.3,4.934,0.9,6.2
			c0.6,1.268,1.633,1.9,3.1,1.9C240.818,82.699,241.868,82.067,242.502,80.799z"/>
		<path fill="#ED1C24" d="M337.451,65.299c-3.067,0-6.134,0.435-9.2,1.3c-3.067,0.867-5.535,2.134-7.4,3.8v27.1h-23.3v-52.6h23.3
			v9.9c2-3.2,4.55-5.833,7.65-7.9c3.1-2.065,6.283-3.1,9.55-3.1L337.451,65.299z"/>
		<path fill="#ED1C24" d="M346.45,36.149c-2.4-2.033-3.6-4.683-3.6-7.95c0-3.133,1.15-5.666,3.45-7.6c2.3-1.933,5.283-2.9,8.95-2.9
			c3.333,0,6.215,1,8.65,3c2.433,2,3.65,4.634,3.65,7.9c0,3.134-1.134,5.684-3.4,7.65c-2.267,1.967-5.234,2.95-8.9,2.95
			C351.783,39.199,348.85,38.184,346.45,36.149z M343.551,44.899h23.3v52.6h-23.3V44.899z"/>
		<path fill="#ED1C24" d="M424.15,90.799c0,9.4-2.017,16.466-6.05,21.2c-4.034,4.733-10.685,7.1-19.95,7.1
			c-7.6,0-14.934-1.367-22-4.1l3.7-13.8c4.533,2,8.766,3,12.7,3c3.4,0,5.865-0.717,7.4-2.15c1.533-1.434,2.366-3.75,2.5-6.95
			c-2.399,2.733-5.634,4.1-9.7,4.1c-3.467,0-6.634-0.967-9.5-2.9c-2.867-1.933-5.15-4.85-6.85-8.75c-1.7-3.9-2.55-8.715-2.55-14.45
			c0-6.933,1.233-12.6,3.7-17c2.465-4.4,5.5-7.55,9.1-9.45c3.6-1.9,7.2-2.85,10.8-2.85c4.2,0,9.05,0.45,14.55,1.35
			s9.55,1.917,12.149,3.05V90.799z M402.449,84.399v-24.1c-2.734,0.067-4.8,0.95-6.2,2.65c-1.4,1.7-2.1,5.017-2.1,9.95
			c0,4.535,0.566,7.7,1.7,9.5c1.133,1.8,2.433,2.7,3.9,2.7C400.415,85.099,401.316,84.866,402.449,84.399z"/>
		<path fill="#ED1C24" d="M483.699,48.999c2.033,3.267,3.05,7.9,3.05,13.9v34.6h-23.3v-30.1c0-1.2-0.267-2.25-0.8-3.15
			c-0.534-0.9-1.435-1.35-2.7-1.35c-0.734,0-1.534,0.167-2.399,0.5v34.1h-23.4v-80h23.4v33.7c2.732-2.533,5.266-4.35,7.6-5.45
			c2.333-1.1,4.933-1.65,7.8-1.65C478.082,44.099,481.665,45.734,483.699,48.999z"/>
		<path fill="#ED1C24" d="M536.05,94.399c-3.067,1.467-5.717,2.467-7.95,3c-2.234,0.533-4.55,0.8-6.949,0.8
			c-7.935,0-13.668-2.283-17.2-6.85c-3.534-4.566-5.3-11.05-5.3-19.45v-13h-5.9v-14h5.9v-13.4h22.1v13.4h12.4v14h-12.4v12.8
			c0,4.067,0.55,6.884,1.65,8.45c1.1,1.567,2.649,2.35,4.649,2.35c1.533,0,3.633-0.4,6.3-1.2L536.05,94.399z"/>
		<path fill="#ED1C24" d="M544.349,76.599c4.2,2.2,7.516,3.8,9.95,4.8c2.433,1,4.683,1.5,6.75,1.5c0.933,0,1.716-0.183,2.35-0.55
			c0.633-0.366,0.95-0.916,0.95-1.65c0-1.066-0.584-1.933-1.75-2.6c-1.167-0.666-3.084-1.433-5.75-2.3
			c-3.067-1-5.634-2.016-7.7-3.05c-2.066-1.033-3.85-2.533-5.35-4.5c-1.5-1.966-2.25-4.483-2.25-7.55c0-5.533,2.232-9.733,6.7-12.6
			c4.466-2.866,9.966-4.3,16.5-4.3c3.933,0,7.716,0.45,11.35,1.35c3.633,0.9,6.55,1.984,8.75,3.25l-4.2,14.7
			c-1.934-1-4.084-1.816-6.449-2.45c-2.367-0.633-4.418-0.95-6.15-0.95c-2.935,0-4.4,0.6-4.4,1.8c0,0.6,0.466,1.134,1.4,1.6
			c0.933,0.467,2.4,1,4.4,1.6c3.332,1,6.165,2.067,8.5,3.2c2.332,1.134,4.399,2.867,6.199,5.2c1.801,2.334,2.7,5.367,2.7,9.1
			c0,5.734-1.917,10-5.75,12.8c-3.834,2.8-8.95,4.2-15.35,4.2c-5.268,0-10.185-0.785-14.75-2.35
			c-4.567-1.566-8.218-3.583-10.95-6.05L544.349,76.599z"/>
		<path fill="#939598" d="M230.652,143.399v1.1l-0.1,18.6c0,10.4-2.434,18.35-7.3,23.85c-4.867,5.5-11.667,8.25-20.4,8.25
			c-6.734,0-13.467-1.6-20.2-4.8l3.2-16.5c1.933,0.734,4.333,1.4,7.2,2c2.866,0.6,5.333,0.9,7.4,0.9c3.333,0,5.615-0.982,6.85-2.95
			c1.233-1.966,1.916-5.316,2.05-10.05c-3.667,1.4-7.134,2.1-10.4,2.1c-5.8,0-10.367-2.15-13.7-6.45c-3.334-4.3-5-10.116-5-17.45
			c0-15.666,8.2-23.5,24.6-23.5c9.133,0,15.666,2.2,19.6,6.6c3.933,4.4,6,10.067,6.2,17v0.7V143.399z M208.502,149.099
			c0.565-1.066,0.883-2.9,0.95-5.5v-0.5c0-2.933-0.3-5.016-0.9-6.25c-0.6-1.233-1.634-1.85-3.1-1.85c-1.467,0-2.518,0.617-3.15,1.85
			c-0.634,1.234-0.95,3.284-0.95,6.15c0,2.8,0.315,4.784,0.95,5.95c0.633,1.167,1.716,1.75,3.25,1.75
			C206.952,150.699,207.935,150.166,208.502,149.099z"/>
		<path fill="#939598" d="M344.451,141.899l-13.2,52.6h-25.8l-3.7-18.7l-4.1,18.7h-24.8l-13.2-52.6h24.5l3.1,32.3l6.6-28.3h16.4
			l6.5,30.2l3.2-34.2H344.451z"/>
		<path fill="#939598" d="M390.351,162.299c-3.067,0-6.134,0.435-9.2,1.3c-3.067,0.867-5.535,2.134-7.4,3.8v27.1h-23.3v-52.6h23.3
			v9.9c2-3.2,4.55-5.833,7.65-7.9c3.1-2.065,6.283-3.1,9.55-3.1L390.351,162.299z"/>
		<path fill="#939598" d="M402.101,189.599c-3.768-4.4-5.65-11.4-5.65-21c0-6.4,0.815-11.633,2.45-15.7
			c1.633-4.065,4.333-7.1,8.1-9.1c3.766-2,8.815-3,15.15-3c8.933,0,15.282,2.234,19.05,6.7c3.766,4.467,5.65,11.5,5.65,21.1
			c0,6.4-0.817,11.617-2.45,15.65c-1.635,4.034-4.317,7.034-8.05,9c-3.734,1.966-8.801,2.95-15.2,2.95
			C412.216,196.199,405.866,193.999,402.101,189.599z M424.851,177.199c0.6-1.666,0.899-4.866,0.899-9.6c0-4.533-0.3-7.6-0.899-9.2
			c-0.601-1.6-1.668-2.4-3.2-2.4c-1.067,0-1.885,0.334-2.45,1c-0.567,0.667-0.967,1.817-1.2,3.45c-0.234,1.634-0.35,4.017-0.35,7.15
			c0,3.267,0.115,5.767,0.35,7.5c0.233,1.734,0.633,2.934,1.2,3.6c0.565,0.667,1.383,1,2.45,1
			C423.183,179.699,424.25,178.866,424.851,177.199z"/>
		<path fill="#939598" d="M505.1,145.999c2.033,3.267,3.05,7.9,3.05,13.9v34.6h-23.3v-30.1c0-1.2-0.268-2.25-0.8-3.15
			c-0.534-0.9-1.435-1.35-2.7-1.35c-0.6,0-1.5,0.2-2.7,0.6v34h-23.3v-52.6h23.3v6.5c2.8-2.533,5.4-4.383,7.8-5.55
			c2.4-1.166,5.033-1.75,7.9-1.75C499.483,141.099,503.066,142.734,505.1,145.999z"/>
		<path fill="#939598" d="M566.948,187.799c0,9.4-2.017,16.466-6.05,21.2c-4.034,4.733-10.685,7.1-19.95,7.1
			c-7.6,0-14.935-1.367-22-4.1l3.7-13.8c4.533,2,8.766,3,12.7,3c3.399,0,5.865-0.717,7.399-2.15c1.533-1.434,2.366-3.75,2.5-6.95
			c-2.399,2.733-5.634,4.1-9.699,4.1c-3.468,0-6.635-0.967-9.5-2.9c-2.867-1.933-5.15-4.85-6.851-8.75
			c-1.7-3.9-2.55-8.715-2.55-14.45c0-6.933,1.232-12.6,3.7-17c2.466-4.4,5.5-7.55,9.1-9.45c3.601-1.9,7.2-2.85,10.8-2.85
			c4.2,0,9.051,0.45,14.551,1.35s9.55,1.917,12.149,3.05V187.799z M545.248,181.399v-24.1c-2.734,0.067-4.8,0.95-6.199,2.65
			c-1.4,1.7-2.101,5.017-2.101,9.95c0,4.535,0.565,7.7,1.7,9.5c1.133,1.8,2.433,2.7,3.9,2.7
			C543.214,182.099,544.115,181.866,545.248,181.399z"/>
		<path fill="#939598" d="M578.248,173.599c4.2,2.2,7.516,3.8,9.95,4.8c2.433,1,4.683,1.5,6.75,1.5c0.933,0,1.716-0.183,2.35-0.55
			c0.633-0.366,0.95-0.916,0.95-1.65c0-1.066-0.584-1.933-1.75-2.6c-1.167-0.666-3.084-1.433-5.75-2.3
			c-3.067-1-5.634-2.016-7.7-3.05c-2.066-1.033-3.85-2.533-5.35-4.5c-1.5-1.966-2.25-4.483-2.25-7.55c0-5.533,2.232-9.733,6.7-12.6
			c4.466-2.866,9.966-4.3,16.5-4.3c3.933,0,7.716,0.45,11.35,1.35c3.633,0.9,6.55,1.984,8.75,3.25l-4.2,14.7
			c-1.934-1-4.084-1.816-6.449-2.45c-2.367-0.633-4.418-0.95-6.15-0.95c-2.935,0-4.4,0.6-4.4,1.8c0,0.6,0.466,1.134,1.4,1.6
			c0.933,0.467,2.4,1,4.4,1.6c3.332,1,6.165,2.067,8.5,3.2c2.332,1.134,4.399,2.867,6.199,5.2c1.801,2.334,2.7,5.367,2.7,9.1
			c0,5.734-1.917,10-5.75,12.8c-3.834,2.8-8.95,4.2-15.35,4.2c-5.268,0-10.185-0.785-14.75-2.35
			c-4.567-1.566-8.218-3.583-10.95-6.05L578.248,173.599z"/>
	</g>
</g>
<path fill="#FFFFFF" d="M273.762,270.894h-10.38v33.6h-13.98v-33.6h-10.44v-11.4h34.8V270.894z"/>
<path fill="#FFFFFF" d="M293.502,288.293h-1.26v16.2h-13.68v-45h16.38c4.52,0,8.08,0.48,10.68,1.44c2.6,0.96,4.479,2.489,5.64,4.59
	c1.16,2.1,1.74,4.971,1.74,8.609c0,3.48-0.54,6.231-1.62,8.25c-1.08,2.021-2.84,3.49-5.28,4.41l8.46,17.7h-14.52L293.502,288.293z
	 M292.241,269.694v9.6h2.7c1.8,0,3.06-0.35,3.78-1.05c0.72-0.699,1.08-1.95,1.08-3.75c0-1.76-0.36-3-1.08-3.72
	c-0.72-0.721-1.98-1.08-3.78-1.08H292.241z"/>
<path fill="#FFFFFF" d="M353.164,259.493l-12.84,26.4v18.6h-13.98v-18.6l-12.9-26.4h14.76l5.28,14.52l5.22-14.52H353.164z"/>
<path fill="#FFFFFF" d="M397.361,297.533h-9.9l-1.32,6.96h-14.16l11.76-45h17.281l11.879,45h-14.16L397.361,297.533z
	 M395.381,287.333l-3-15.54l-2.94,15.54H395.381z"/>
<path fill="#FFFFFF" d="M451.301,302.033c-2.28,1.16-5.051,2.001-8.311,2.52c-3.261,0.52-6.291,0.78-9.09,0.78
	c-4.601,0-8.34-0.771-11.22-2.31c-2.88-1.54-5.011-3.96-6.391-7.261c-1.38-3.3-2.069-7.609-2.069-12.93
	c0-8.319,1.739-14.439,5.22-18.359c3.479-3.92,8.979-5.881,16.5-5.881c5.119,0,10.04,0.94,14.76,2.82l-1.74,10.68
	c-1.319-0.56-3.1-1.05-5.34-1.47s-4.341-0.63-6.3-0.63c-2.32,0-4.12,0.381-5.4,1.14c-1.28,0.761-2.2,2.011-2.76,3.75
	c-0.561,1.74-0.84,4.17-0.84,7.29c0,2.88,0.229,5.141,0.69,6.78c0.459,1.641,1.22,2.811,2.279,3.51c1.06,0.7,2.51,1.05,4.351,1.05
	c1.199,0,2.52-0.079,3.96-0.239v-5.221h-6.061v-10.5h17.761V302.033z"/>
<path fill="#FFFFFF" d="M480.281,297.533h-9.9l-1.319,6.96h-14.16l11.76-45h17.28l11.88,45h-14.16L480.281,297.533z M478.3,287.333
	l-3-15.54l-2.939,15.54H478.3z"/>
<path fill="#FFFFFF" d="M500.619,259.493h13.98v45h-13.98V259.493z"/>
<path fill="#FFFFFF" d="M558.64,259.493v45h-13.141l-10.56-21.42v21.42h-13.141v-45h13.141l10.56,22.2v-22.2H558.64z"/>
<path fill="#FFFFFF" d="M66.22,402.35v-31.699l22.43-22.544h31.7l22.544,22.544v31.699l-22.544,22.431h-6.409v-27.352h9.27
	l1.487-11.214h-10.757v-9.498l2.403-2.404h8.583v-10.872h-14.762l-7.553,7.554v15.221H93.8v11.214h8.812v27.352H88.65L66.22,402.35z
	"/>
<path fill="#FFFFFF" d="M657.106,402.35v-31.699l22.43-22.544h31.7l22.544,22.544v31.699l-22.544,22.431h-31.7L657.106,402.35z
	 M701.622,411.276l17.737-17.852l0.115-10.529v-4.348l4.92-4.35l-5.607,0.345l4.007-4.921l-6.065,1.717l-3.434-3.205h-8.583
	l-6.181,6.064v6.639h-10.984l-13.617-13.504v11.559l5.721,5.836l-6.065-1.602v3.434l8.012,8.01h-5.15l6.981,6.865h4.462l-4.577,4.58
	h-12.131l5.265,5.262H701.622z"/>
</svg>
