<?xml version="1.0" encoding="utf-8"?>
<!-- Generator: Adobe Illustrator 15.1.0, SVG Export Plug-In . SVG Version: 6.00 Build 0)  -->
<!DOCTYPE svg PUBLIC "-//W3C//DTD SVG 1.1//EN" "http://www.w3.org/Graphics/SVG/1.1/DTD/svg11.dtd">
<svg version="1.1" id="RESULT" xmlns="http://www.w3.org/2000/svg" xmlns:xlink="http://www.w3.org/1999/xlink" x="0px" y="0px"
	 width="824px" height="125px" viewBox="0 0 824 125" enable-background="new 0 0 824 125" xml:space="preserve">
<g>
	<g enable-background="new    ">
		<path fill="#ED1C24" d="M209,90.953h-22.602v-54.6H185.7l-10.302,2.699v-16.5l21.302-5.898H209V90.953z"/>
		<path fill="#ED1C24" d="M266.8,65.854c0,6.867-1.635,12.271-4.9,16.199c-3.267,3.936-7.084,6.617-11.448,8.051
			c-4.367,1.437-8.585,2.15-12.649,2.15c-7.067,0-13-1.135-17.801-3.4V69.553c2.731,1.135,5.25,1.951,7.551,2.451
			c2.3,0.5,4.649,0.75,7.05,0.75c3.2,0,5.55-0.533,7.05-1.602c1.5-1.064,2.25-2.801,2.25-5.199c0-2-0.6-3.449-1.8-4.352
			c-1.2-0.898-3.398-1.351-6.601-1.351h-15.399v-43h42.102v17.5h-21.602v8.603C258.065,43.354,266.8,50.854,266.8,65.854z"/>
	</g>
</g>
<g>
	<polygon fill="#ED1C24" points="66.411,18.37 76.991,45.208 105.785,46.977 83.529,65.332 90.746,93.264 66.411,77.77 
		42.077,93.264 49.292,65.332 27.037,46.977 55.831,45.208 	"/>
</g>
<g>
	<polygon fill="#ED1C24" points="753.827,18.37 764.407,45.208 793.202,46.977 770.947,65.332 778.161,93.264 753.827,77.77 
		729.493,93.264 736.708,65.332 714.454,46.977 743.247,45.208 	"/>
</g>
<g>
	<path fill="#EC1C24" d="M304.797,43.78c4.833-4.233,11.283-6.35,19.35-6.35c6.267,0,12.4,1.1,18.4,3.3l-2.101,14.7
		c-4-1-7.667-1.5-11-1.5c-3.199,0-5.566,0.75-7.1,2.25c-1.534,1.5-2.3,4.35-2.3,8.55c0,3.934,0.75,6.699,2.25,8.299
		c1.5,1.601,3.982,2.4,7.45,2.4c3.532,0,7.364-0.6,11.5-1.8l2.399,15.2c-2.467,1.134-5.566,2.084-9.3,2.85
		c-3.734,0.766-7.267,1.15-10.6,1.15c-7.535,0-13.785-2.283-18.75-6.85c-4.968-4.566-7.45-11.75-7.45-21.551
		C297.547,54.897,299.962,48.015,304.797,43.78z"/>
	<path fill="#EC1C24" d="M354.796,86.23c-3.768-4.4-5.65-11.4-5.65-21c0-6.4,0.815-11.633,2.45-15.701
		c1.633-4.065,4.333-7.1,8.1-9.1s8.816-3,15.15-3c8.933,0,15.283,2.234,19.05,6.7c3.767,4.467,5.65,11.5,5.65,21.101
		c0,6.399-0.817,11.617-2.45,15.649c-1.635,4.034-4.317,7.034-8.05,9c-3.734,1.966-8.8,2.95-15.2,2.95
		C364.911,92.831,358.561,90.63,354.796,86.23z M377.546,73.831c0.6-1.666,0.899-4.866,0.899-9.601c0-4.533-0.3-7.6-0.899-9.2
		c-0.601-1.6-1.667-2.4-3.2-2.4c-1.067,0-1.885,0.334-2.45,1c-0.566,0.667-0.967,1.817-1.2,3.45c-0.233,1.634-0.35,4.017-0.35,7.149
		c0,3.268,0.115,5.768,0.35,7.5c0.233,1.734,0.634,2.935,1.2,3.601c0.565,0.667,1.383,1,2.45,1
		C375.879,76.331,376.946,75.498,377.546,73.831z"/>
	<path fill="#EC1C24" d="M447.945,58.93c-3.065,0-6.135,0.435-9.199,1.3c-3.067,0.867-5.534,2.134-7.399,3.799V91.13h-23.3v-52.6
		h23.3v9.9c2-3.2,4.549-5.833,7.649-7.9c3.101-2.065,6.281-3.1,9.55-3.1L447.945,58.93z"/>
	<path fill="#EC1C24" d="M495.445,58.93c-3.066,0-6.135,0.435-9.2,1.3c-3.066,0.867-5.533,2.134-7.399,3.799V91.13h-23.3v-52.6h23.3
		v9.9c2-3.2,4.55-5.833,7.649-7.9c3.101-2.065,6.282-3.1,9.551-3.1L495.445,58.93z"/>
	<path fill="#EC1C24" d="M546.444,73.23l2.399,15.5c-2.8,1.267-6.084,2.267-9.851,3c-3.768,0.732-7.283,1.1-10.55,1.1
		c-7.733,0-14.149-2.283-19.25-6.85s-7.649-11.684-7.649-21.351c0-9.666,2.516-16.616,7.55-20.85
		c5.032-4.233,11.351-6.35,18.95-6.35c6.532,0,11.864,1.584,16,4.75c4.133,3.167,6.199,8.317,6.199,15.45
		c0,3.467-0.533,7.167-1.601,11.101l-24.601-0.201c0.666,2.468,1.767,4.234,3.301,5.301c1.533,1.066,3.633,1.6,6.3,1.6
		C537.176,75.43,541.444,74.697,546.444,73.23z M524.194,51.831c-0.7,1.267-1.085,3.3-1.15,6.1l9.5-0.3v-0.9
		c0-2.133-0.283-3.8-0.85-5s-1.785-1.8-3.65-1.8C526.176,49.93,524.893,50.565,524.194,51.831z"/>
	<path fill="#EC1C24" d="M564.491,43.78c4.833-4.233,11.283-6.35,19.351-6.35c6.266,0,12.399,1.1,18.399,3.3l-2.1,14.7
		c-4-1-7.668-1.5-11-1.5c-3.2,0-5.567,0.75-7.101,2.25c-1.534,1.5-2.301,4.35-2.301,8.55c0,3.934,0.75,6.699,2.25,8.299
		c1.5,1.601,3.982,2.4,7.45,2.4c3.532,0,7.365-0.6,11.5-1.8l2.399,15.2c-2.467,1.134-5.566,2.084-9.301,2.85
		c-3.733,0.766-7.267,1.15-10.6,1.15c-7.534,0-13.784-2.283-18.75-6.85c-4.968-4.566-7.45-11.75-7.45-21.551
		C557.241,54.897,559.657,48.015,564.491,43.78z"/>
	<path fill="#EC1C24" d="M650.641,88.029c-3.067,1.468-5.717,2.468-7.95,3c-2.233,0.533-4.55,0.801-6.949,0.801
		c-7.935,0-13.668-2.283-17.2-6.85c-3.533-4.566-5.3-11.051-5.3-19.451v-13h-5.899v-14h5.899v-13.4h22.101v13.4h12.399v14h-12.399
		v12.8c0,4.066,0.55,6.884,1.649,8.449c1.101,1.568,2.649,2.351,4.649,2.351c1.533,0,3.633-0.399,6.3-1.2L650.641,88.029z"/>
</g>
</svg>
