<?xml version="1.0" encoding="utf-8"?>
<!-- Generator: Adobe Illustrator 15.1.0, SVG Export Plug-In . SVG Version: 6.00 Build 0)  -->
<!DOCTYPE svg PUBLIC "-//W3C//DTD SVG 1.1//EN" "http://www.w3.org/Graphics/SVG/1.1/DTD/svg11.dtd">
<svg version="1.1" id="RESULT" xmlns="http://www.w3.org/2000/svg" xmlns:xlink="http://www.w3.org/1999/xlink" x="0px" y="0px"
	 width="800px" height="226px" viewBox="0 2 800 226" enable-background="new 0 2 800 226" xml:space="preserve">
<g>
	<g>
		<path fill="#ED1C24" d="M229.702,88.749c-4.604-4.968-6.9-13.116-6.9-24.45v-10.9c0-8,1.033-14.398,3.1-19.199
			c2.065-4.801,5.188-8.282,9.354-10.449c4.166-2.166,9.55-3.25,16.146-3.25c6.604,0,11.983,1.084,16.15,3.25
			c4.166,2.167,7.266,5.648,9.3,10.449c2.033,4.801,3.05,11.199,3.05,19.199v10.9c0,7.667-1.017,13.834-3.05,18.5
			c-2.034,4.667-5.134,8.066-9.3,10.2c-4.167,2.134-9.55,3.198-16.15,3.198C241.535,96.197,234.302,93.717,229.702,88.749z
			 M254.602,75.398c0.733-0.533,1.271-1.582,1.604-3.148c0.333-1.564,0.5-3.916,0.5-7.051V50.3c0-3.399-0.167-5.95-0.5-7.649
			c-0.334-1.7-0.889-2.851-1.65-3.45c-0.767-0.601-1.817-0.899-3.15-0.899c-1.334,0-2.384,0.301-3.146,0.899
			c-0.771,0.601-1.317,1.75-1.65,3.45c-0.334,1.699-0.5,4.25-0.5,7.649v14.896c0,3.135,0.166,5.484,0.5,7.051
			c0.333,1.566,0.866,2.615,1.604,3.148c0.729,0.535,1.8,0.801,3.197,0.801C252.802,76.197,253.865,75.934,254.602,75.398z"/>
		<path fill="#ED1C24" d="M352.802,63.299c-3.067,0-6.134,0.436-9.2,1.301c-3.062,0.866-5.535,2.133-7.396,3.799V95.5h-23.305
			V42.898h23.305v9.9c2-3.199,4.55-5.833,7.646-7.9c3.104-2.063,6.283-3.1,9.55-3.1L352.802,63.299z"/>
		<path fill="#ED1C24" d="M361.801,34.148c-2.4-2.033-3.604-4.682-3.604-7.949c0-3.133,1.15-5.666,3.45-7.6
			c2.3-1.934,5.283-2.9,8.95-2.9c3.333,0,6.215,1,8.65,3c2.433,2,3.646,4.635,3.646,7.9c0,3.133-1.134,5.684-3.396,7.649
			c-2.271,1.967-5.234,2.948-8.9,2.948C367.134,37.197,364.198,36.184,361.801,34.148z M358.901,42.898h23.3V95.5h-23.3V42.898z"/>
		<path fill="#ED1C24" d="M439.5,88.799c0,9.398-2.021,16.467-6.056,21.2c-4.028,4.731-10.684,7.101-19.944,7.101
			c-7.604,0-14.938-1.367-22-4.101l3.695-13.802c4.533,2,8.771,3,12.7,3c3.4,0,5.866-0.717,7.399-2.148
			c1.529-1.436,2.363-3.75,2.5-6.949c-2.398,2.732-5.637,4.1-9.699,4.1c-3.467,0-6.634-0.967-9.5-2.896
			c-2.867-1.938-5.15-4.854-6.85-8.75c-1.7-3.899-2.555-8.715-2.555-14.45c0-6.933,1.233-12.6,3.7-17
			c2.465-4.399,5.5-7.55,9.101-9.449c3.604-1.899,7.199-2.851,10.803-2.851c4.197,0,9.051,0.45,14.551,1.351
			c5.5,0.899,9.551,1.916,12.146,3.05v42.599h0.004V88.8h0.004V88.799z M417.799,82.398v-24.1c-2.734,0.066-4.799,0.95-6.199,2.648
			c-1.4,1.701-2.1,5.019-2.1,9.951c0,4.535,0.562,7.699,1.695,9.5c1.137,1.799,2.438,2.699,3.9,2.699
			C415.766,83.1,416.666,82.865,417.799,82.398z"/>
		<path fill="#ED1C24" d="M499.049,46.999c2.033,3.267,3.05,7.899,3.05,13.899v34.601h-23.3V65.398c0-1.201-0.271-2.25-0.801-3.149
			c-0.533-0.899-1.438-1.351-2.699-1.351c-0.734,0-1.534,0.166-2.399,0.5v34.101H449.5v-80H472.9v33.698
			c2.732-2.531,5.267-4.35,7.601-5.448c2.332-1.101,4.937-1.649,7.804-1.649C493.432,42.1,497.015,43.734,499.049,46.999z"/>
		<path fill="#ED1C24" d="M551.4,92.398c-3.067,1.467-5.717,2.467-7.95,3c-2.229,0.533-4.55,0.801-6.949,0.801
			c-7.935,0-13.668-2.282-17.195-6.85C515.768,84.783,514,78.299,514,69.898v-13h-5.898v-14H514V29.5h22.101v13.398H548.5v14
			h-12.399v12.801c0,4.066,0.55,6.885,1.649,8.449c1.101,1.567,2.646,2.352,4.646,2.352c1.533,0,3.633-0.4,6.3-1.2L551.4,92.398z"/>
		<path fill="#ED1C24" d="M559.698,74.6c4.2,2.199,7.521,3.799,9.95,4.799c2.433,1,4.683,1.5,6.75,1.5
			c0.933,0,1.716-0.183,2.351-0.549c0.637-0.367,0.949-0.916,0.949-1.65c0-1.062-0.584-1.934-1.75-2.6
			c-1.167-0.666-3.084-1.434-5.75-2.301c-3.062-1-5.634-2.018-7.699-3.05c-2.062-1.033-3.851-2.533-5.351-4.5
			c-1.5-1.968-2.25-4.483-2.25-7.552c0-5.531,2.232-9.731,6.7-12.6c4.466-2.865,9.966-4.3,16.5-4.3c3.933,0,7.716,0.45,11.35,1.351
			c3.633,0.899,6.551,1.983,8.75,3.25l-4.199,14.699c-1.935-1-4.084-1.816-6.445-2.449c-2.367-0.633-4.418-0.951-6.15-0.951
			c-2.935,0-4.396,0.602-4.396,1.802c0,0.601,0.467,1.134,1.396,1.601c0.938,0.467,2.4,1,4.4,1.6c3.332,1,6.165,2.066,8.5,3.199
			c2.332,1.135,4.396,2.867,6.195,5.201c1.805,2.334,2.699,5.366,2.699,9.1c0,5.734-1.917,10-5.75,12.801
			c-3.834,2.8-8.949,4.199-15.35,4.199c-5.268,0-10.186-0.784-14.75-2.35c-4.567-1.566-8.218-3.584-10.95-6.051L559.698,74.6z"/>
		<path fill="#939598" d="M204.353,192.499h-22.6v-54.601h-0.7l-10.3,2.699v-16.5l21.3-5.9h12.3V192.499z"/>
		<path fill="#939598" d="M262.152,167.398c0,6.867-1.634,12.269-4.896,16.201c-3.271,3.935-7.084,6.613-11.45,8.049
			c-4.367,1.435-8.584,2.147-12.65,2.147c-7.062,0-13-1.134-17.8-3.397V171.1c2.733,1.133,5.25,1.949,7.55,2.449
			c2.305,0.5,4.65,0.75,7.055,0.75c3.195,0,5.55-0.533,7.05-1.602c1.5-1.064,2.25-2.799,2.25-5.198c0-2-0.604-3.45-1.8-4.351
			c-1.2-0.899-3.4-1.354-6.604-1.354H215.46v-43h42.1v17.5h-21.6v8.604C253.418,144.898,262.152,152.398,262.152,167.398z"/>
		<path fill="#939598" d="M377.948,139.898L364.751,192.5h-25.805l-3.695-18.7l-4.104,18.7h-24.8l-13.2-52.602h24.5l3.104,32.301
			l6.6-28.301h16.4l6.5,30.201l3.195-34.201H377.948L377.948,139.898z"/>
		<path fill="#939598" d="M423.852,160.299c-3.067,0-6.135,0.436-9.2,1.301c-3.067,0.866-5.535,2.133-7.399,3.799V192.5h-23.296
			v-52.602h23.296v9.897c2-3.196,4.554-5.833,7.649-7.897c3.101-2.063,6.282-3.103,9.55-3.103L423.852,160.299z"/>
		<path fill="#939598" d="M435.601,187.6c-3.769-4.397-5.65-11.397-5.65-21c0-6.397,0.815-11.634,2.45-15.701
			c1.633-4.062,4.333-7.1,8.1-9.1c3.771-2,8.815-3,15.15-3c8.934,0,15.282,2.232,19.05,6.7c3.771,4.467,5.65,11.5,5.65,21.101
			c0,6.399-0.817,11.616-2.45,15.649c-1.635,4.032-4.316,7.032-8.05,9c-3.734,1.966-8.801,2.948-15.2,2.948
			C445.716,194.197,439.365,191.999,435.601,187.6z M458.351,175.197c0.6-1.664,0.899-4.864,0.899-9.6
			c0-4.533-0.305-7.603-0.899-9.199c-0.601-1.604-1.668-2.399-3.2-2.399c-1.066,0-1.885,0.334-2.45,1
			c-0.562,0.667-0.967,1.815-1.2,3.448c-0.229,1.636-0.35,4.019-0.35,7.15c0,3.268,0.115,5.768,0.35,7.5
			c0.233,1.731,0.638,2.936,1.2,3.6c0.565,0.668,1.384,1,2.45,1C456.683,177.697,457.75,176.865,458.351,175.197z"/>
		<path fill="#939598" d="M538.6,143.999c2.033,3.267,3.05,7.899,3.05,13.899v34.601h-23.3v-30.101c0-1.201-0.268-2.25-0.8-3.149
			c-0.534-0.899-1.438-1.351-2.7-1.351c-0.6,0-1.5,0.199-2.7,0.601v34h-23.3v-52.601h23.3v6.5c2.8-2.533,5.4-4.383,7.8-5.551
			c2.4-1.166,5.033-1.75,7.9-1.75C532.983,139.1,536.566,140.734,538.6,143.999z"/>
		<path fill="#939598" d="M600.448,185.799c0,9.398-2.017,16.467-6.05,21.199c-4.034,4.732-10.685,7.102-19.95,7.102
			c-7.6,0-14.935-1.367-22-4.102l3.7-13.801c4.533,2,8.767,3,12.7,3c3.398,0,5.865-0.717,7.398-2.148
			c1.529-1.436,2.362-3.75,2.5-6.949c-2.398,2.732-5.638,4.103-9.698,4.103c-3.468,0-6.636-0.97-9.5-2.896
			c-2.867-1.937-5.15-4.854-6.854-8.75c-1.697-3.9-2.55-8.719-2.55-14.451c0-6.936,1.231-12.603,3.7-17
			c2.466-4.398,5.5-7.549,9.1-9.449c3.604-1.899,7.2-2.85,10.803-2.85c4.197,0,9.053,0.446,14.553,1.35
			c5.5,0.9,9.55,1.916,12.146,3.05L600.448,185.799L600.448,185.799z M578.748,179.398v-24.103c-2.734,0.063-4.805,0.95-6.199,2.646
			c-1.4,1.701-2.104,5.021-2.104,9.951c0,4.535,0.565,7.699,1.7,9.5c1.133,1.799,2.436,2.699,3.9,2.699
			C576.714,180.1,577.615,179.865,578.748,179.398z"/>
		<path fill="#939598" d="M611.748,171.6c4.195,2.199,7.516,3.799,9.945,4.799s4.688,1.5,6.75,1.5c0.938,0,1.717-0.183,2.354-0.549
			c0.633-0.367,0.95-0.916,0.95-1.647c0-1.062-0.584-1.937-1.75-2.603c-1.171-0.666-3.084-1.434-5.75-2.301
			c-3.067-1-5.639-2.018-7.7-3.05c-2.066-1.032-3.854-2.532-5.354-4.5s-2.25-4.483-2.25-7.552c0-5.531,2.232-9.73,6.7-12.6
			c4.466-2.865,9.966-4.303,16.5-4.303c3.933,0,7.716,0.45,11.354,1.354c3.633,0.896,6.55,1.98,8.75,3.25l-4.2,14.699
			c-1.938-1-4.084-1.816-6.449-2.449c-2.367-0.633-4.418-0.951-6.15-0.951c-2.935,0-4.396,0.602-4.396,1.802
			c0,0.601,0.466,1.134,1.396,1.601c0.938,0.467,2.4,1,4.4,1.603c3.332,1,6.165,2.063,8.5,3.196
			c2.332,1.139,4.399,2.867,6.199,5.201c1.801,2.334,2.7,5.367,2.7,9.103c0,5.731-1.921,10-5.75,12.801
			c-3.834,2.804-8.95,4.199-15.354,4.199c-5.271,0-10.188-0.784-14.75-2.353c-4.567-1.562-8.218-3.584-10.95-6.051L611.748,171.6z"
			/>
	</g>
</g>
</svg>
