<?xml version="1.0" encoding="utf-8"?>
<!-- Generator: Adobe Illustrator 15.1.0, SVG Export Plug-In . SVG Version: 6.00 Build 0)  -->
<!DOCTYPE svg PUBLIC "-//W3C//DTD SVG 1.1//EN" "http://www.w3.org/Graphics/SVG/1.1/DTD/svg11.dtd">
<svg version="1.1" id="RESULT" xmlns="http://www.w3.org/2000/svg" xmlns:xlink="http://www.w3.org/1999/xlink" x="0px" y="0px"
	 width="800px" height="226px" viewBox="12 112 800 226" enable-background="new 12 112 800 226" xml:space="preserve">
<g>
	<g>
		<path fill="#ED1C24" d="M271.552,166.249c3.333,4.3,5,10.116,5,17.449c0,15.667-8.2,23.5-24.6,23.5
			c-9.135,0-15.667-2.199-19.601-6.6c-3.935-4.4-6-10.066-6.2-17v-0.7v-0.6v-1.101l0.101-18.6c0-10.4,2.433-18.35,7.3-23.85
			c4.866-5.5,11.666-8.25,20.4-8.25c6.732,0,13.466,1.6,20.199,4.8l-3.199,16.5c-1.935-0.732-4.334-1.4-7.2-2
			c-2.867-0.601-5.334-0.9-7.4-0.9c-3.334,0-5.617,0.984-6.85,2.95c-1.234,1.967-1.917,5.317-2.05,10.05
			c3.666-1.399,7.133-2.1,10.399-2.1C263.652,159.799,268.218,161.948,271.552,166.249z M254.502,188.799
			c0.633-1.267,0.95-3.3,0.95-6.101c0-2.8-0.317-4.782-0.95-5.949c-0.634-1.166-1.717-1.75-3.25-1.75c-1.4,0-2.384,0.533-2.95,1.6
			c-0.567,1.067-0.884,2.9-0.95,5.5v0.5c0,2.867,0.3,4.934,0.9,6.2c0.6,1.268,1.633,1.899,3.1,1.899
			C252.818,190.698,253.868,190.067,254.502,188.799z"/>
		<path fill="#ED1C24" d="M349.45,173.299c-3.066,0-6.134,0.435-9.199,1.3c-3.067,0.867-5.535,2.134-7.4,3.8v27.101h-23.3v-52.601
			h23.3v9.9c2-3.2,4.55-5.833,7.65-7.9c3.1-2.064,6.282-3.1,9.55-3.1L349.45,173.299z"/>
		<path fill="#ED1C24" d="M358.449,144.149c-2.399-2.033-3.6-4.683-3.6-7.95c0-3.133,1.15-5.666,3.45-7.6
			c2.3-1.933,5.283-2.9,8.95-2.9c3.333,0,6.215,1,8.649,3c2.434,2,3.65,4.635,3.65,7.9c0,3.134-1.134,5.684-3.4,7.65
			s-5.233,2.949-8.899,2.949C363.782,147.198,360.85,146.184,358.449,144.149z M355.551,152.899h23.3v52.601h-23.3V152.899z"/>
		<path fill="#ED1C24" d="M436.15,198.799c0,9.399-2.017,16.466-6.05,21.2c-4.034,4.732-10.686,7.1-19.95,7.1
			c-7.6,0-14.934-1.367-22-4.1l3.7-13.801c4.533,2,8.766,3,12.7,3c3.399,0,5.864-0.717,7.399-2.149c1.533-1.435,2.366-3.75,2.5-6.95
			c-2.398,2.733-5.634,4.1-9.699,4.1c-3.468,0-6.635-0.967-9.5-2.899c-2.867-1.934-5.15-4.851-6.851-8.75
			c-1.7-3.9-2.55-8.715-2.55-14.45c0-6.933,1.233-12.6,3.7-17c2.465-4.4,5.5-7.55,9.1-9.45c3.601-1.899,7.2-2.85,10.8-2.85
			c4.2,0,9.051,0.45,14.551,1.35c5.5,0.9,9.55,1.917,12.148,3.05L436.15,198.799L436.15,198.799z M414.448,192.399v-24.1
			c-2.733,0.066-4.8,0.95-6.2,2.649c-1.399,1.7-2.1,5.018-2.1,9.95c0,4.535,0.566,7.7,1.7,9.5c1.133,1.8,2.433,2.7,3.899,2.7
			C412.414,193.099,413.316,192.865,414.448,192.399z"/>
		<path fill="#ED1C24" d="M495.698,156.999c2.033,3.267,3.05,7.899,3.05,13.899v34.601h-23.3v-30.101c0-1.2-0.267-2.25-0.8-3.149
			c-0.534-0.9-1.435-1.351-2.7-1.351c-0.733,0-1.534,0.167-2.398,0.5v34.101h-23.4v-80h23.4v33.699
			c2.731-2.532,5.266-4.35,7.6-5.449c2.333-1.101,4.933-1.65,7.8-1.65C490.082,152.099,493.664,153.734,495.698,156.999z"/>
		<path fill="#ED1C24" d="M548.05,202.399c-3.067,1.467-5.718,2.467-7.95,3c-2.234,0.533-4.55,0.8-6.949,0.8
			c-7.935,0-13.668-2.282-17.2-6.85c-3.534-4.566-5.3-11.05-5.3-19.45v-13h-5.9v-14h5.9v-13.399h22.1v13.399h12.4v14h-12.4v12.8
			c0,4.067,0.551,6.885,1.65,8.45c1.1,1.567,2.649,2.351,4.649,2.351c1.532,0,3.633-0.4,6.3-1.2L548.05,202.399z"/>
		<path fill="#ED1C24" d="M556.349,184.599c4.2,2.2,7.516,3.8,9.95,4.8c2.433,1,4.683,1.5,6.75,1.5c0.933,0,1.716-0.183,2.35-0.55
			c0.633-0.366,0.95-0.916,0.95-1.65c0-1.065-0.584-1.933-1.75-2.6c-1.167-0.666-3.084-1.433-5.75-2.3
			c-3.067-1-5.634-2.017-7.7-3.05s-3.85-2.533-5.35-4.5s-2.25-4.483-2.25-7.551c0-5.532,2.231-9.732,6.699-12.6
			c4.467-2.866,9.967-4.3,16.5-4.3c3.934,0,7.717,0.45,11.351,1.35c3.633,0.9,6.55,1.984,8.75,3.25l-4.2,14.7
			c-1.934-1-4.084-1.816-6.449-2.45c-2.367-0.633-4.418-0.95-6.149-0.95c-2.936,0-4.4,0.601-4.4,1.801c0,0.6,0.466,1.134,1.4,1.6
			c0.933,0.467,2.399,1,4.399,1.6c3.332,1,6.165,2.067,8.5,3.2c2.332,1.134,4.399,2.867,6.199,5.2c1.801,2.334,2.7,5.367,2.7,9.1
			c0,5.734-1.917,10-5.75,12.801c-3.834,2.8-8.95,4.199-15.351,4.199c-5.268,0-10.185-0.784-14.75-2.35
			c-4.566-1.566-8.218-3.583-10.949-6.05L556.349,184.599z"/>
		<path fill="#939598" d="M242.652,251.399v1.101l-0.1,18.6c0,10.4-2.435,18.351-7.3,23.851c-4.867,5.5-11.667,8.25-20.4,8.25
			c-6.733,0-13.467-1.601-20.2-4.801l3.2-16.5c1.934,0.734,4.333,1.4,7.2,2c2.866,0.601,5.333,0.9,7.4,0.9
			c3.332,0,5.614-0.982,6.85-2.95c1.233-1.966,1.916-5.315,2.05-10.05c-3.667,1.399-7.134,2.1-10.399,2.1
			c-5.801,0-10.367-2.149-13.7-6.449c-3.334-4.301-5-10.116-5-17.45c0-15.666,8.2-23.5,24.6-23.5c9.133,0,15.666,2.199,19.601,6.6
			c3.933,4.4,6,10.067,6.199,17v0.7V251.399z M220.502,257.099c0.564-1.065,0.883-2.9,0.95-5.5v-0.5c0-2.933-0.301-5.016-0.9-6.25
			c-0.6-1.233-1.634-1.85-3.1-1.85c-1.468,0-2.519,0.616-3.15,1.85c-0.634,1.234-0.95,3.284-0.95,6.15c0,2.8,0.315,4.783,0.95,5.949
			c0.633,1.167,1.716,1.75,3.25,1.75C218.952,258.698,219.935,258.166,220.502,257.099z"/>
		<path fill="#939598" d="M356.45,249.899l-13.199,52.601H317.45l-3.699-18.7l-4.101,18.7h-24.8l-13.2-52.601h24.5l3.101,32.3
			l6.6-28.3h16.4l6.5,30.2l3.199-34.2H356.45L356.45,249.899z"/>
		<path fill="#939598" d="M402.351,270.299c-3.066,0-6.134,0.435-9.2,1.3c-3.066,0.867-5.535,2.134-7.399,3.8v27.101h-23.3v-52.601
			h23.3v9.9c2-3.2,4.55-5.833,7.649-7.9c3.101-2.064,6.283-3.1,9.55-3.1L402.351,270.299z"/>
		<path fill="#939598" d="M414.101,297.599c-3.769-4.4-5.65-11.4-5.65-21c0-6.4,0.815-11.633,2.45-15.7
			c1.633-4.064,4.333-7.1,8.1-9.1s8.815-3,15.15-3c8.934,0,15.282,2.233,19.05,6.7c3.767,4.467,5.65,11.5,5.65,21.1
			c0,6.4-0.817,11.617-2.45,15.65c-1.635,4.033-4.316,7.033-8.05,9c-3.734,1.966-8.801,2.949-15.2,2.949
			C424.216,304.198,417.865,301.999,414.101,297.599z M436.851,285.198c0.6-1.665,0.899-4.865,0.899-9.6
			c0-4.533-0.301-7.6-0.899-9.2c-0.601-1.6-1.668-2.399-3.2-2.399c-1.066,0-1.885,0.334-2.45,1c-0.566,0.667-0.967,1.816-1.2,3.449
			c-0.233,1.635-0.35,4.018-0.35,7.15c0,3.267,0.115,5.767,0.35,7.5c0.233,1.734,0.634,2.935,1.2,3.6c0.565,0.668,1.384,1,2.45,1
			C435.183,287.698,436.25,286.865,436.851,285.198z"/>
		<path fill="#939598" d="M517.1,253.999c2.033,3.267,3.05,7.899,3.05,13.899v34.601h-23.3v-30.101c0-1.2-0.268-2.25-0.8-3.149
			c-0.534-0.9-1.436-1.351-2.7-1.351c-0.6,0-1.5,0.2-2.7,0.601v34h-23.3v-52.601h23.3v6.5c2.8-2.533,5.4-4.383,7.8-5.55
			c2.4-1.166,5.033-1.75,7.9-1.75C511.483,249.099,515.066,250.734,517.1,253.999z"/>
		<path fill="#939598" d="M578.948,295.799c0,9.399-2.017,16.466-6.05,21.2c-4.034,4.732-10.685,7.1-19.95,7.1
			c-7.6,0-14.935-1.367-22-4.1l3.7-13.801c4.533,2,8.767,3,12.7,3c3.398,0,5.865-0.717,7.398-2.149c1.533-1.435,2.366-3.75,2.5-6.95
			c-2.398,2.733-5.634,4.1-9.698,4.1c-3.468,0-6.636-0.967-9.5-2.899c-2.867-1.933-5.15-4.851-6.852-8.75
			c-1.7-3.9-2.55-8.715-2.55-14.45c0-6.933,1.232-12.6,3.7-17c2.466-4.399,5.5-7.55,9.1-9.45c3.602-1.899,7.2-2.85,10.8-2.85
			c4.2,0,9.052,0.45,14.552,1.35c5.5,0.9,9.55,1.917,12.148,3.05L578.948,295.799L578.948,295.799z M557.248,289.399v-24.1
			c-2.734,0.066-4.801,0.95-6.199,2.649c-1.4,1.7-2.102,5.018-2.102,9.95c0,4.535,0.565,7.7,1.7,9.5c1.133,1.8,2.433,2.7,3.9,2.7
			C555.214,290.099,556.115,289.865,557.248,289.399z"/>
		<path fill="#939598" d="M590.248,281.599c4.199,2.2,7.516,3.8,9.949,4.8s4.684,1.5,6.75,1.5c0.934,0,1.717-0.183,2.351-0.55
			c0.633-0.366,0.95-0.916,0.95-1.65c0-1.065-0.584-1.933-1.75-2.6c-1.168-0.666-3.084-1.433-5.75-2.3
			c-3.067-1-5.635-2.017-7.7-3.05c-2.066-1.033-3.851-2.533-5.351-4.5s-2.25-4.483-2.25-7.551c0-5.532,2.232-9.732,6.7-12.6
			c4.466-2.866,9.966-4.3,16.5-4.3c3.933,0,7.716,0.45,11.351,1.35c3.633,0.9,6.55,1.984,8.75,3.25l-4.2,14.7
			c-1.935-1-4.084-1.816-6.449-2.45c-2.367-0.633-4.418-0.95-6.15-0.95c-2.935,0-4.399,0.601-4.399,1.801
			c0,0.6,0.466,1.134,1.399,1.6c0.934,0.467,2.4,1,4.4,1.6c3.332,1,6.165,2.067,8.5,3.2c2.332,1.135,4.399,2.867,6.199,5.2
			c1.801,2.334,2.7,5.367,2.7,9.1c0,5.734-1.918,10-5.75,12.801c-3.834,2.8-8.95,4.199-15.351,4.199
			c-5.268,0-10.185-0.784-14.75-2.35c-4.567-1.565-8.218-3.583-10.95-6.05L590.248,281.599z"/>
	</g>
</g>
</svg>
