<?xml version="1.0" encoding="utf-8"?>
<!-- Generator: Adobe Illustrator 15.1.0, SVG Export Plug-In . SVG Version: 6.00 Build 0)  -->
<!DOCTYPE svg PUBLIC "-//W3C//DTD SVG 1.1//EN" "http://www.w3.org/Graphics/SVG/1.1/DTD/svg11.dtd">
<svg version="1.1" id="RESULT" xmlns="http://www.w3.org/2000/svg" xmlns:xlink="http://www.w3.org/1999/xlink" x="0px" y="0px"
	 width="800px" height="226px" viewBox="12 112 800 226" enable-background="new 12 112 800 226" xml:space="preserve">
<g>
	<g>
		<path fill="#ED1C24" d="M234.102,205.499h-22.6v-54.601h-0.7l-10.3,2.7v-16.5l21.3-5.9h12.3V205.499z"/>
		<path fill="#ED1C24" d="M250.002,198.749c-4.601-4.967-6.9-13.116-6.9-24.45v-10.9c0-8,1.033-14.399,3.101-19.2
			c2.064-4.8,5.183-8.282,9.35-10.449c4.166-2.166,9.55-3.25,16.15-3.25c6.6,0,11.982,1.084,16.149,3.25
			c4.166,2.167,7.267,5.649,9.3,10.449c2.033,4.801,3.051,11.2,3.051,19.2v10.9c0,7.667-1.018,13.834-3.051,18.5
			c-2.033,4.667-5.134,8.066-9.3,10.2c-4.167,2.134-9.55,3.199-16.149,3.199C261.835,206.198,254.602,203.717,250.002,198.749z
			 M274.902,185.399c0.733-0.533,1.267-1.583,1.601-3.149c0.333-1.565,0.5-3.916,0.5-7.051v-14.899c0-3.4-0.167-5.95-0.5-7.65
			c-0.334-1.7-0.884-2.85-1.65-3.45c-0.767-0.6-1.816-0.899-3.149-0.899c-1.334,0-2.385,0.3-3.15,0.899
			c-0.768,0.601-1.317,1.75-1.65,3.45c-0.334,1.7-0.5,4.25-0.5,7.65v14.899c0,3.135,0.166,5.484,0.5,7.051
			c0.333,1.566,0.866,2.616,1.601,3.149c0.732,0.535,1.8,0.8,3.2,0.8C273.102,186.198,274.167,185.934,274.902,185.399z"/>
		<path fill="#ED1C24" d="M373.101,173.299c-3.066,0-6.134,0.435-9.2,1.3c-3.066,0.867-5.535,2.134-7.399,3.8v27.101h-23.3v-52.601
			h23.3v9.9c2-3.2,4.55-5.833,7.649-7.9c3.101-2.064,6.283-3.1,9.55-3.1L373.101,173.299z"/>
		<path fill="#ED1C24" d="M382.1,144.149c-2.4-2.033-3.6-4.683-3.6-7.95c0-3.133,1.149-5.666,3.449-7.6
			c2.301-1.933,5.283-2.9,8.95-2.9c3.333,0,6.215,1,8.65,3c2.433,2,3.649,4.635,3.649,7.9c0,3.134-1.134,5.684-3.399,7.65
			c-2.268,1.967-5.234,2.949-8.9,2.949C387.433,147.198,384.5,146.184,382.1,144.149z M379.199,152.899H402.5v52.601h-23.301
			V152.899z"/>
		<path fill="#ED1C24" d="M459.799,198.799c0,9.399-2.017,16.466-6.049,21.2c-4.035,4.732-10.687,7.1-19.951,7.1
			c-7.601,0-14.935-1.367-22-4.1l3.701-13.801c4.532,2,8.766,3,12.698,3c3.4,0,5.865-0.717,7.4-2.149
			c1.533-1.435,2.365-3.75,2.5-6.95c-2.4,2.733-5.635,4.1-9.699,4.1c-3.469,0-6.635-0.967-9.5-2.899
			c-2.867-1.934-5.149-4.851-6.852-8.75c-1.699-3.9-2.55-8.715-2.55-14.45c0-6.933,1.233-12.6,3.7-17c2.468-4.4,5.5-7.55,9.101-9.45
			c3.602-1.899,7.201-2.85,10.801-2.85c4.199,0,9.051,0.45,14.551,1.35c5.5,0.9,9.549,1.917,12.148,3.05V198.799z M438.1,192.399
			v-24.1c-2.734,0.066-4.801,0.95-6.199,2.649c-1.4,1.7-2.102,5.018-2.102,9.95c0,4.535,0.565,7.7,1.701,9.5
			c1.133,1.8,2.432,2.7,3.899,2.7C436.065,193.099,436.965,192.865,438.1,192.399z"/>
		<path fill="#ED1C24" d="M519.349,156.999c2.033,3.267,3.05,7.899,3.05,13.899v34.601h-23.3v-30.101c0-1.2-0.267-2.25-0.8-3.149
			c-0.534-0.9-1.436-1.351-2.7-1.351c-0.734,0-1.534,0.167-2.399,0.5v34.101H469.8v-80h23.399v33.699
			c2.732-2.532,5.267-4.35,7.601-5.449c2.333-1.101,4.933-1.65,7.8-1.65C513.732,152.099,517.315,153.734,519.349,156.999z"/>
		<path fill="#ED1C24" d="M571.698,202.399c-3.066,1.467-5.717,2.467-7.95,3s-4.55,0.8-6.948,0.8c-7.936,0-13.668-2.282-17.2-6.85
			c-3.534-4.566-5.3-11.05-5.3-19.45v-13h-5.9v-14h5.9v-13.399h22.1v13.399h12.4v14h-12.4v12.8c0,4.067,0.55,6.885,1.65,8.45
			c1.1,1.567,2.648,2.351,4.648,2.351c1.533,0,3.634-0.4,6.3-1.2L571.698,202.399z"/>
		<path fill="#ED1C24" d="M579.998,184.599c4.199,2.2,7.516,3.8,9.949,4.8s4.684,1.5,6.75,1.5c0.934,0,1.717-0.183,2.351-0.55
			c0.633-0.366,0.95-0.916,0.95-1.65c0-1.065-0.584-1.933-1.75-2.6c-1.168-0.666-3.084-1.433-5.75-2.3
			c-3.067-1-5.635-2.017-7.7-3.05c-2.066-1.033-3.851-2.533-5.351-4.5s-2.25-4.483-2.25-7.551c0-5.532,2.232-9.732,6.7-12.6
			c4.466-2.866,9.966-4.3,16.5-4.3c3.933,0,7.716,0.45,11.351,1.35c3.633,0.9,6.55,1.984,8.75,3.25l-4.2,14.7
			c-1.935-1-4.084-1.816-6.449-2.45c-2.367-0.633-4.418-0.95-6.15-0.95c-2.935,0-4.399,0.601-4.399,1.801
			c0,0.6,0.466,1.134,1.399,1.6c0.934,0.467,2.4,1,4.4,1.6c3.332,1,6.165,2.067,8.5,3.2c2.332,1.134,4.399,2.867,6.199,5.2
			c1.801,2.334,2.7,5.367,2.7,9.1c0,5.734-1.918,10-5.75,12.801c-3.834,2.8-8.95,4.199-15.351,4.199
			c-5.268,0-10.185-0.784-14.75-2.35c-4.567-1.566-8.218-3.583-10.95-6.05L579.998,184.599z"/>
		<path fill="#939598" d="M239.852,277.399c0,6.867-1.634,12.268-4.899,16.2c-3.268,3.935-7.084,6.617-11.45,8.05
			c-4.367,1.434-8.584,2.15-12.65,2.15c-7.066,0-13-1.134-17.8-3.4v-19.3c2.733,1.134,5.25,1.95,7.55,2.45s4.65,0.75,7.05,0.75
			c3.2,0,5.551-0.533,7.051-1.601c1.5-1.065,2.25-2.8,2.25-5.199c0-2-0.601-3.45-1.801-4.351c-1.199-0.899-3.399-1.35-6.6-1.35
			h-15.4v-43h42.101v17.5h-21.601v8.6C231.118,254.899,239.852,262.399,239.852,277.399z"/>
		<path fill="#939598" d="M355.652,249.899l-13.199,52.601h-25.801l-3.699-18.7l-4.101,18.7h-24.8l-13.2-52.601h24.5l3.101,32.3
			l6.6-28.3h16.4l6.5,30.2l3.199-34.2H355.652L355.652,249.899z"/>
		<path fill="#939598" d="M401.552,270.299c-3.067,0-6.134,0.435-9.2,1.3c-3.066,0.867-5.535,2.134-7.399,3.8v27.101h-23.301
			v-52.601h23.301v9.9c2-3.2,4.55-5.833,7.649-7.9c3.101-2.064,6.283-3.1,9.55-3.1L401.552,270.299z"/>
		<path fill="#939598" d="M413.301,297.599c-3.769-4.4-5.65-11.4-5.65-21c0-6.4,0.815-11.633,2.45-15.7
			c1.633-4.064,4.333-7.1,8.1-9.1s8.815-3,15.15-3c8.933,0,15.282,2.233,19.05,6.7c3.766,4.467,5.65,11.5,5.65,21.1
			c0,6.4-0.817,11.617-2.45,15.65c-1.635,4.033-4.317,7.033-8.05,9c-3.734,1.966-8.801,2.949-15.2,2.949
			C423.416,304.198,417.067,301.999,413.301,297.599z M436.051,285.198c0.6-1.665,0.898-4.865,0.898-9.6c0-4.533-0.3-7.6-0.898-9.2
			c-0.602-1.6-1.668-2.399-3.2-2.399c-1.067,0-1.885,0.334-2.45,1c-0.566,0.667-0.967,1.816-1.2,3.449
			c-0.233,1.635-0.35,4.018-0.35,7.15c0,3.267,0.115,5.767,0.35,7.5c0.233,1.734,0.634,2.935,1.2,3.6c0.565,0.668,1.383,1,2.45,1
			C434.383,287.698,435.449,286.865,436.051,285.198z"/>
		<path fill="#939598" d="M516.3,253.999c2.032,3.267,3.05,7.899,3.05,13.899v34.601h-23.3v-30.101c0-1.2-0.269-2.25-0.8-3.149
			c-0.534-0.9-1.436-1.351-2.7-1.351c-0.601,0-1.5,0.2-2.7,0.601v34h-23.3v-52.601h23.3v6.5c2.8-2.533,5.4-4.383,7.8-5.55
			c2.4-1.166,5.033-1.75,7.9-1.75C510.683,249.099,514.266,250.734,516.3,253.999z"/>
		<path fill="#939598" d="M578.149,295.799c0,9.399-2.017,16.466-6.05,21.2c-4.034,4.732-10.685,7.1-19.95,7.1
			c-7.6,0-14.935-1.367-22-4.1l3.7-13.801c4.533,2,8.766,3,12.7,3c3.398,0,5.865-0.717,7.398-2.149c1.533-1.435,2.366-3.75,2.5-6.95
			c-2.398,2.733-5.634,4.1-9.699,4.1c-3.468,0-6.635-0.967-9.5-2.899c-2.866-1.933-5.149-4.851-6.851-8.75
			c-1.7-3.9-2.55-8.715-2.55-14.45c0-6.933,1.232-12.6,3.7-17c2.466-4.399,5.5-7.55,9.1-9.45c3.601-1.899,7.2-2.85,10.8-2.85
			c4.2,0,9.051,0.45,14.551,1.35c5.5,0.9,9.551,1.917,12.149,3.05L578.149,295.799L578.149,295.799z M556.448,289.399v-24.1
			c-2.733,0.066-4.8,0.95-6.199,2.649c-1.399,1.7-2.101,5.018-2.101,9.95c0,4.535,0.565,7.7,1.7,9.5c1.133,1.8,2.433,2.7,3.9,2.7
			C554.414,290.099,555.315,289.865,556.448,289.399z"/>
		<path fill="#939598" d="M589.448,281.599c4.2,2.2,7.517,3.8,9.95,4.8c2.433,1,4.683,1.5,6.75,1.5c0.933,0,1.716-0.183,2.351-0.55
			c0.633-0.366,0.949-0.916,0.949-1.65c0-1.065-0.584-1.933-1.75-2.6c-1.167-0.666-3.084-1.433-5.75-2.3
			c-3.066-1-5.634-2.017-7.699-3.05c-2.066-1.033-3.851-2.533-5.351-4.5s-2.25-4.483-2.25-7.551c0-5.532,2.232-9.732,6.7-12.6
			c4.466-2.866,9.966-4.3,16.5-4.3c3.933,0,7.716,0.45,11.35,1.35c3.633,0.9,6.551,1.984,8.75,3.25l-4.199,14.7
			c-1.935-1-4.084-1.816-6.449-2.45c-2.367-0.633-4.418-0.95-6.15-0.95c-2.935,0-4.4,0.601-4.4,1.801c0,0.6,0.467,1.134,1.4,1.6
			c0.934,0.467,2.4,1,4.4,1.6c3.332,1,6.165,2.067,8.5,3.2c2.332,1.135,4.398,2.867,6.199,5.2c1.801,2.334,2.699,5.367,2.699,9.1
			c0,5.734-1.917,10-5.75,12.801c-3.834,2.8-8.949,4.199-15.35,4.199c-5.268,0-10.186-0.784-14.75-2.35
			c-4.567-1.565-8.218-3.583-10.95-6.05L589.448,281.599z"/>
	</g>
</g>
</svg>
