<?xml version="1.0" encoding="utf-8"?>
<!-- Generator: Adobe Illustrator 15.1.0, SVG Export Plug-In . SVG Version: 6.00 Build 0)  -->
<!DOCTYPE svg PUBLIC "-//W3C//DTD SVG 1.1//EN" "http://www.w3.org/Graphics/SVG/1.1/DTD/svg11.dtd">
<svg version="1.1" id="Botoes" xmlns="http://www.w3.org/2000/svg" xmlns:xlink="http://www.w3.org/1999/xlink" x="0px" y="0px"
	 width="800px" height="100px" viewBox="12 0 800 100" enable-background="new 12 0 800 100" xml:space="preserve">
<g>
	<path fill="#FFFFFF" d="M165.955,61.889h-14.511v29.48h-9.765v-69.75h25.203c7.936,0,13.748,1.613,17.438,4.836
		c3.688,3.225,5.534,8.37,5.534,15.438c0,5.519-1.132,9.843-3.395,12.972c-2.267,3.133-5.848,5.195-10.742,6.186l15.717,30.318
		h-10.881L165.955,61.889z M151.447,54.447h15.438c4.65,0,8.075-1.037,10.276-3.114c2.197-2.077,3.302-5.223,3.302-9.439
		c0-4.093-1.104-7.13-3.302-9.114c-2.201-1.983-5.626-2.977-10.276-2.977h-15.438V54.447z"/>
	<path fill="#FFFFFF" d="M248.259,82.812v8.557h-44.175v-69.75h42.501v8.556h-32.829v21.297h30.039v8.184h-30.039v23.158h34.503
		V82.812z"/>
	<path fill="#FFFFFF" d="M298.572,23.852c3.657,1.487,6.341,3.859,8.044,7.114c1.705,3.255,2.561,7.579,2.561,12.974
		c0,5.456-0.854,9.857-2.561,13.207c-1.703,3.349-4.4,5.797-8.091,7.348c-3.688,1.551-8.542,2.324-14.555,2.324h-12.927V91.37
		h-9.858V21.62h22.785C290.047,21.619,294.913,22.363,298.572,23.852z M295.968,55.146c2.293-2.265,3.438-6.031,3.438-11.3
		c0-3.408-0.479-6.152-1.438-8.23c-0.962-2.076-2.561-3.595-4.79-4.557c-2.232-0.961-5.301-1.441-9.207-1.441h-12.927V58.54h12.927
		C289.675,58.54,293.674,57.409,295.968,55.146z"/>
	<path fill="#FFFFFF" d="M346.374,61.889h-14.511v29.48H322.1v-69.75h25.203c7.936,0,13.748,1.613,17.438,4.836
		c3.688,3.225,5.534,8.37,5.534,15.438c0,5.519-1.132,9.843-3.395,12.972c-2.267,3.133-5.847,5.195-10.742,6.186l15.717,30.318
		h-10.881L346.374,61.889z M331.865,54.447h15.438c4.65,0,8.075-1.037,10.276-3.114c2.197-2.077,3.302-5.223,3.302-9.439
		c0-4.093-1.104-7.13-3.302-9.114c-2.201-1.983-5.626-2.977-10.276-2.977h-15.438V54.447z"/>
	<path fill="#FFFFFF" d="M428.679,82.812v8.557h-44.176v-69.75h42.501v8.556h-32.829v21.297h30.039v8.184h-30.039v23.158h34.504
		V82.812z"/>
	<path fill="#FFFFFF" d="M441.605,75.932c3.348,2.356,6.742,4.277,10.185,5.766c3.439,1.488,6.616,2.232,9.531,2.232
		c3.227,0,5.982-1.023,8.277-3.068c2.293-2.047,3.441-4.711,3.441-7.998c0-2.354-0.651-4.369-1.953-6.045
		c-1.306-1.674-2.933-3.084-4.886-4.229c-1.95-1.146-4.57-2.465-7.855-3.95c-3.97-1.861-7.161-3.535-9.579-5.023
		c-2.418-1.487-4.48-3.471-6.186-5.951c-1.705-2.479-2.56-5.518-2.56-9.114c0-3.781,0.944-7.052,2.836-9.812
		c1.894-2.758,4.435-4.866,7.627-6.324c3.192-1.456,6.742-2.185,10.648-2.185c3.284,0,6.321,0.496,9.112,1.487
		c2.789,0.993,5.643,2.356,8.558,4.092l-2.513,7.626c-5.768-3.036-10.881-4.557-15.347-4.557c-3.348,0-6.061,0.822-8.138,2.465
		c-2.078,1.644-3.115,3.892-3.115,6.742c0,2.046,0.589,3.799,1.77,5.255c1.178,1.457,2.648,2.696,4.418,3.72
		c1.767,1.024,4.197,2.248,7.301,3.673c4.15,1.922,7.501,3.688,10.044,5.301c2.542,1.615,4.727,3.799,6.557,6.559
		c1.828,2.76,2.743,6.217,2.743,10.368c0,4.093-0.915,7.626-2.743,10.604c-1.83,2.976-4.321,5.238-7.483,6.787
		c-3.162,1.551-6.666,2.324-10.513,2.324c-4.712,0-9.111-0.963-13.204-2.884c-4.094-1.921-7.563-4.095-10.416-6.513L441.605,75.932z
		"/>
	<path fill="#FFFFFF" d="M540.092,82.812v8.557h-44.176v-69.75h42.502v8.556h-32.829v21.297h30.038v8.184h-30.039v23.158h34.504
		V82.812z"/>
	<path fill="#FFFFFF" d="M602.401,21.619v69.75h-9.393l-30.411-53.475l-0.188,53.475h-9.394v-69.75h9.579l30.411,53.568V21.619
		H602.401z"/>
	<path fill="#FFFFFF" d="M663.781,29.896h-19.53v61.473h-9.854V29.896h-19.53v-8.277h48.918L663.781,29.896L663.781,29.896z"/>
</g>
</svg>
