<?xml version="1.0" encoding="utf-8"?>
<!-- Generator: Adobe Illustrator 15.1.0, SVG Export Plug-In . SVG Version: 6.00 Build 0)  -->
<!DOCTYPE svg PUBLIC "-//W3C//DTD SVG 1.1//EN" "http://www.w3.org/Graphics/SVG/1.1/DTD/svg11.dtd">
<svg version="1.1" id="Botoes" xmlns="http://www.w3.org/2000/svg" xmlns:xlink="http://www.w3.org/1999/xlink" x="0px" y="0px"
	 width="800px" height="100px" viewBox="0 0 800 100" enable-background="new 0 0 800 100" xml:space="preserve">
<g>
	<path fill="#FFFFFF" d="M169.455,62.389h-14.514v29.48h-9.765v-69.75h25.203c7.936,0,13.748,1.613,17.438,4.836
		c3.688,3.225,5.534,8.37,5.534,15.438c0,5.519-1.132,9.843-3.395,12.972c-2.27,3.133-5.851,5.195-10.742,6.186l15.717,30.318
		h-10.881L169.455,62.389z M154.947,54.947h15.438c4.65,0,8.075-1.037,10.276-3.114c2.194-2.077,3.302-5.223,3.302-9.439
		c0-4.093-1.104-7.13-3.302-9.114c-2.201-1.983-5.626-2.977-10.276-2.977h-15.438V54.947z"/>
	<path fill="#FFFFFF" d="M251.759,83.312v8.557h-44.175v-69.75h42.501v8.556h-32.829v21.297h30.039v8.184h-30.039v23.158h34.503
		V83.312z"/>
	<path fill="#FFFFFF" d="M302.072,24.352c3.657,1.487,6.344,3.859,8.044,7.114c1.705,3.255,2.562,7.579,2.562,12.974
		c0,5.456-0.854,9.857-2.562,13.207c-1.7,3.352-4.397,5.797-8.091,7.351c-3.688,1.551-8.542,2.321-14.555,2.321h-12.927V91.87
		h-9.858V22.12h22.785C293.547,22.119,298.413,22.863,302.072,24.352z M299.468,55.646c2.293-2.268,3.438-6.034,3.438-11.3
		c0-3.408-0.479-6.152-1.438-8.23c-0.962-2.076-2.562-3.595-4.79-4.557c-2.232-0.961-5.301-1.441-9.207-1.441h-12.927V59.04h12.927
		C293.175,59.04,297.174,57.909,299.468,55.646z"/>
	<path fill="#FFFFFF" d="M349.874,62.389h-14.514v29.48H325.6v-69.75h25.203c7.936,0,13.748,1.613,17.438,4.836
		c3.688,3.225,5.534,8.37,5.534,15.438c0,5.519-1.132,9.843-3.395,12.972c-2.27,3.133-5.85,5.195-10.742,6.186l15.717,30.318
		h-10.881L349.874,62.389z M335.365,54.947h15.438c4.65,0,8.075-1.037,10.276-3.114c2.194-2.077,3.302-5.223,3.302-9.439
		c0-4.093-1.104-7.13-3.302-9.114c-2.201-1.983-5.626-2.977-10.276-2.977h-15.438V54.947z"/>
	<path fill="#FFFFFF" d="M432.179,83.312v8.557h-44.177v-69.75h42.502v8.556h-32.829v21.297h30.039v8.184h-30.039v23.158h34.504
		V83.312z"/>
	<path fill="#FFFFFF" d="M445.105,76.432c3.348,2.356,6.742,4.277,10.185,5.766c3.439,1.488,6.616,2.232,9.531,2.232
		c3.229,0,5.982-1.023,8.277-3.068c2.293-2.047,3.441-4.711,3.441-7.998c0-2.354-0.651-4.366-1.953-6.045
		c-1.309-1.674-2.936-3.084-4.889-4.229c-1.947-1.146-4.567-2.465-7.854-3.949c-3.971-1.861-7.161-3.535-9.579-5.021
		c-2.418-1.487-4.48-3.471-6.187-5.951c-1.705-2.479-2.562-5.518-2.562-9.114c0-3.781,0.944-7.052,2.836-9.812
		c1.896-2.758,4.437-4.866,7.627-6.324c3.192-1.456,6.742-2.185,10.648-2.185c3.281,0,6.318,0.496,9.109,1.487
		c2.789,0.993,5.646,2.354,8.561,4.092l-2.516,7.626c-5.768-3.036-10.881-4.557-15.347-4.557c-3.348,0-6.061,0.822-8.138,2.465
		c-2.078,1.644-3.115,3.892-3.115,6.742c0,2.046,0.589,3.799,1.77,5.255c1.181,1.457,2.648,2.696,4.418,3.72
		s4.197,2.248,7.304,3.671c4.147,1.922,7.501,3.688,10.044,5.303c2.542,1.613,4.727,3.799,6.557,6.561
		c1.828,2.76,2.743,6.217,2.743,10.366c0,4.095-0.915,7.626-2.743,10.604c-1.83,2.977-4.319,5.238-7.481,6.787
		c-3.161,1.551-6.665,2.324-10.515,2.324c-4.712,0-9.108-0.965-13.204-2.886c-4.094-1.921-7.562-4.097-10.415-6.515L445.105,76.432z
		"/>
	<path fill="#FFFFFF" d="M543.592,83.312v8.557h-44.176v-69.75h42.502v8.556h-32.829v21.297h30.038v8.184h-30.039v23.158h34.504
		V83.312z"/>
	<path fill="#FFFFFF" d="M605.901,22.119v69.75h-9.393l-30.411-53.475l-0.188,53.475h-9.394v-69.75h9.579l30.411,53.568V22.119
		H605.901z"/>
	<path fill="#FFFFFF" d="M667.281,30.396h-19.53v61.473h-9.854V30.396h-19.53v-8.277h48.918L667.281,30.396L667.281,30.396z"/>
</g>
<g>
	<g>
		<rect x="51.77" y="50.451" fill="#EB2027" width="76.981" height="12.339"/>
	</g>
</g>
<g>
	<g>
		<polygon fill="#EB2027" points="82.987,95.855 43.753,56.621 82.987,17.388 91.004,25.405 59.788,56.621 91.004,87.839 		"/>
	</g>
</g>
</svg>
