<?xml version="1.0" encoding="utf-8"?>
<!-- Generator: Adobe Illustrator 15.1.0, SVG Export Plug-In . SVG Version: 6.00 Build 0)  -->
<!DOCTYPE svg PUBLIC "-//W3C//DTD SVG 1.1//EN" "http://www.w3.org/Graphics/SVG/1.1/DTD/svg11.dtd">
<svg version="1.1" id="Botoes" xmlns="http://www.w3.org/2000/svg" xmlns:xlink="http://www.w3.org/1999/xlink" x="0px" y="0px"
	 width="800px" height="162.074px" viewBox="0 -7.5 800 162.074" enable-background="new 0 -7.5 800 162.074" xml:space="preserve">
<g>
	<path fill="#FFFFFF" d="M170.455,54.655H155.94v29.479h-9.765v-69.75h25.203c7.936,0,13.748,1.613,17.438,4.836
		c3.688,3.225,5.534,8.37,5.534,15.438c0,5.519-1.132,9.843-3.395,12.972c-2.271,3.133-5.853,5.195-10.742,6.187l15.717,30.317
		h-10.88L170.455,54.655z M155.947,47.213h15.438c4.65,0,8.075-1.037,10.276-3.114c2.192-2.077,3.302-5.223,3.302-9.439
		c0-4.093-1.104-7.13-3.302-9.114c-2.201-1.983-5.626-2.977-10.276-2.977h-15.438V47.213z"/>
	<path fill="#FFFFFF" d="M252.759,75.578v8.557h-44.175v-69.75h42.501v8.556h-32.829v21.297h30.039v8.184h-30.039V75.58h34.503
		V75.578z"/>
	<path fill="#FFFFFF" d="M303.072,16.618c3.657,1.487,6.346,3.859,8.044,7.114c1.705,3.255,2.562,7.579,2.562,12.974
		c0,5.456-0.854,9.857-2.562,13.207c-1.698,3.353-4.396,5.797-8.091,7.352c-3.688,1.551-8.542,2.32-14.555,2.32h-12.927v24.552
		h-9.858v-69.75h22.785C294.547,14.385,299.413,15.129,303.072,16.618z M300.468,47.912c2.293-2.269,3.438-6.035,3.438-11.3
		c0-3.408-0.479-6.152-1.438-8.23c-0.962-2.076-2.562-3.595-4.79-4.557c-2.232-0.961-5.301-1.441-9.207-1.441h-12.927v28.922h12.927
		C294.175,51.306,298.174,50.175,300.468,47.912z"/>
	<path fill="#FFFFFF" d="M350.874,54.655H336.36v29.479h-9.76v-69.75h25.203c7.936,0,13.748,1.613,17.438,4.836
		c3.688,3.225,5.534,8.37,5.534,15.438c0,5.519-1.132,9.843-3.395,12.972c-2.271,3.133-5.852,5.195-10.742,6.187l15.717,30.317
		h-10.881L350.874,54.655z M336.365,47.213h15.438c4.65,0,8.075-1.037,10.276-3.114c2.192-2.077,3.302-5.223,3.302-9.439
		c0-4.093-1.104-7.13-3.302-9.114c-2.201-1.983-5.626-2.977-10.276-2.977h-15.438V47.213z"/>
	<path fill="#FFFFFF" d="M433.179,75.578v8.557h-44.177v-69.75h42.502v8.556h-32.829v21.297h30.039v8.184h-30.039V75.58h34.504
		V75.578z"/>
	<path fill="#FFFFFF" d="M446.105,68.698c3.348,2.356,6.742,4.276,10.185,5.766c3.439,1.488,6.616,2.232,9.531,2.232
		c3.229,0,5.982-1.023,8.277-3.068c2.293-2.047,3.441-4.711,3.441-7.998c0-2.354-0.651-4.365-1.953-6.045
		c-1.311-1.674-2.938-3.084-4.891-4.229c-1.945-1.146-4.565-2.465-7.854-3.949c-3.973-1.861-7.161-3.535-9.579-5.021
		c-2.418-1.487-4.48-3.471-6.188-5.951c-1.705-2.479-2.562-5.518-2.562-9.114c0-3.781,0.944-7.052,2.836-9.812
		c1.896-2.758,4.437-4.866,7.627-6.324c3.192-1.456,6.742-2.185,10.647-2.185c3.28,0,6.317,0.496,9.108,1.487
		c2.789,0.993,5.646,2.354,8.562,4.092l-2.518,7.626c-5.768-3.036-10.881-4.557-15.347-4.557c-3.348,0-6.062,0.822-8.139,2.465
		c-2.077,1.644-3.114,3.892-3.114,6.742c0,2.046,0.589,3.799,1.77,5.255c1.183,1.457,2.648,2.696,4.418,3.72
		c1.771,1.024,4.197,2.248,7.306,3.67c4.146,1.922,7.501,3.688,10.044,5.304c2.542,1.612,4.727,3.799,6.557,6.562
		c1.828,2.76,2.743,6.217,2.743,10.364c0,4.097-0.915,7.628-2.743,10.604c-1.83,2.978-4.319,5.237-7.481,6.786
		c-3.159,1.551-6.663,2.324-10.515,2.324c-4.712,0-9.106-0.965-13.204-2.885c-4.094-1.922-7.562-4.098-10.415-6.516L446.105,68.698z
		"/>
	<path fill="#FFFFFF" d="M544.592,75.578v8.557h-44.176v-69.75h42.502v8.556h-32.829v21.297h30.038v8.184h-30.039V75.58h34.504
		V75.578z"/>
	<path fill="#FFFFFF" d="M606.901,14.385v69.75h-9.393L567.097,30.66l-0.188,53.475h-9.394v-69.75h9.579l30.411,53.568V14.385
		H606.901z"/>
	<path fill="#FFFFFF" d="M668.281,22.662h-19.53v61.473h-9.854V22.662h-19.53v-8.277h48.918L668.281,22.662L668.281,22.662z"/>
</g>
<g>
	<path fill="#7E8185" d="M277.392,130.551c0.84,1.33,1.26,3.018,1.26,5.061c0,2.969-0.826,5.166-2.478,6.596
		c-1.652,1.428-4.172,2.141-7.56,2.141h-11.886v-31.5h10.038c3.64,0,6.258,0.631,7.854,1.891c1.596,1.26,2.394,3.332,2.394,6.217
		c0,1.707-0.294,3.094-0.882,4.156c-0.588,1.064-1.554,1.891-2.898,2.479C275.166,128.234,276.552,129.221,277.392,130.551z
		 M260.34,115.873v10.5h6.762c2.38,0,4.053-0.393,5.019-1.178c0.966-0.783,1.449-2.113,1.449-3.988c0-1.904-0.504-3.27-1.512-4.096
		c-1.008-0.826-2.786-1.238-5.334-1.238H260.34z M275.124,135.443c0-1.932-0.595-3.408-1.785-4.43
		c-1.19-1.021-3.144-1.533-5.859-1.533h-7.14v11.676l8.274-0.043C272.954,141.113,275.124,139.225,275.124,135.443z"/>
	<path fill="#7E8185" d="M301.331,122.467l-10.206,30.281h-3.57l2.814-8.4h-0.336l-7.392-21.881h3.948l5.376,17.975l5.67-17.975
		H301.331z"/>
	<path fill="#7E8185" d="M316.241,144.727c-0.924-0.141-1.736-0.352-2.436-0.631l0.63-2.939c1.483,0.393,2.786,0.588,3.906,0.588
		c1.288,0,2.295-0.371,3.024-1.113c0.728-0.742,1.092-2.021,1.092-3.842v-23.941h3.696v23.395c0,2.939-0.588,5.123-1.764,6.553
		c-1.176,1.428-2.982,2.141-5.418,2.141C318.075,144.936,317.165,144.865,316.241,144.727z"/>
	<path fill="#7E8185" d="M350.849,122.467v21.881h-3.612v-2.225c-1.148,0.84-2.254,1.455-3.318,1.848
		c-1.064,0.391-2.212,0.588-3.444,0.588c-2.24,0-3.857-0.602-4.851-1.807c-0.994-1.203-1.491-3.262-1.491-6.174v-14.111h3.738
		v13.564c0,1.43,0.126,2.521,0.378,3.277s0.644,1.273,1.176,1.553c0.531,0.281,1.287,0.42,2.268,0.42
		c1.428,0,3.276-0.545,5.544-1.637v-17.178H350.849z"/>
	<path fill="#7E8185" d="M358.325,138.426c0.784,0.924,1.862,1.688,3.234,2.289c1.372,0.604,2.702,0.902,3.99,0.902
		c1.316,0,2.4-0.342,3.255-1.027c0.854-0.686,1.281-1.533,1.281-2.541c0-0.756-0.246-1.373-0.735-1.85
		c-0.49-0.475-1.092-0.846-1.806-1.111s-1.688-0.568-2.919-0.904c-1.512-0.42-2.716-0.818-3.612-1.197
		c-0.896-0.377-1.666-0.93-2.31-1.658s-0.966-1.68-0.966-2.855c0-1.287,0.364-2.4,1.092-3.34c0.728-0.938,1.701-1.652,2.919-2.143
		c1.218-0.488,2.526-0.734,3.927-0.734c1.344,0,2.604,0.211,3.78,0.631c1.176,0.42,2.211,0.98,3.108,1.68l-1.092,2.479
		c-0.84-0.533-1.743-0.953-2.709-1.262c-0.966-0.307-1.911-0.461-2.835-0.461c-1.316,0-2.443,0.279-3.381,0.84
		c-0.938,0.561-1.407,1.303-1.407,2.227c0,0.812,0.378,1.414,1.134,1.805c0.756,0.393,1.959,0.785,3.612,1.178
		c1.596,0.391,2.898,0.783,3.906,1.176c1.008,0.393,1.875,1.021,2.604,1.889c0.728,0.869,1.092,2.031,1.092,3.486
		c0,2.072-0.721,3.725-2.163,4.957c-1.442,1.232-3.297,1.848-5.565,1.848c-1.708,0-3.396-0.352-5.061-1.051
		c-1.666-0.699-2.961-1.68-3.885-2.939L358.325,138.426z"/>
	<path fill="#7E8185" d="M390.791,144.223c-1.288,0.279-2.464,0.42-3.528,0.42c-2.8,0-4.76-0.736-5.88-2.205
		c-1.12-1.471-1.68-3.773-1.68-6.91v-10.416h-2.646v-2.645h2.646v-5.629h3.486v5.629h6.132v2.645h-6.132v10.459
		c0,1.625,0.161,2.891,0.483,3.801c0.322,0.91,0.84,1.555,1.554,1.932c0.714,0.379,1.687,0.568,2.919,0.568
		c0.42,0,1.134-0.057,2.142-0.17L390.791,144.223z"/>
	<path fill="#7E8185" d="M406.163,117.027c-0.477-0.463-0.714-1.029-0.714-1.701c0-0.645,0.23-1.189,0.693-1.639
		c0.461-0.447,1.042-0.672,1.742-0.672c0.672,0,1.239,0.225,1.701,0.672c0.462,0.449,0.693,1.008,0.693,1.68
		c0,0.674-0.231,1.232-0.693,1.682c-0.462,0.447-1.029,0.672-1.701,0.672S406.639,117.488,406.163,117.027z M406.037,122.467h3.611
		v21.881h-3.611V122.467z"/>
	<path fill="#7E8185" d="M433.526,124.062c0.993,1.203,1.49,3.262,1.49,6.174v14.111h-3.611v-13.439
		c0-1.428-0.126-2.514-0.378-3.256c-0.252-0.74-0.658-1.252-1.218-1.531c-0.561-0.281-1.33-0.422-2.311-0.422
		c-0.952,0-1.926,0.127-2.919,0.379c-0.994,0.252-2.136,0.701-3.423,1.344v16.926h-3.611v-21.881h3.611v2.52
		c1.287-0.951,2.506-1.645,3.654-2.08c1.147-0.434,2.449-0.65,3.906-0.65C430.928,122.256,432.531,122.859,433.526,124.062z"/>
	<path fill="#7E8185" d="M473.196,115.957h-8.988v28.391h-3.697v-28.391h-9.029v-3.109h21.715V115.957z"/>
	<path fill="#7E8185" d="M494.656,122.467l-10.207,30.281h-3.57l2.814-8.4h-0.336l-7.393-21.881h3.949l5.375,17.975l5.67-17.975
		H494.656z"/>
	<path fill="#7E8185" d="M516.705,133.303c0,3.947-0.875,6.881-2.625,8.799s-4.152,2.877-7.203,2.877
		c-1.232,0-2.52-0.197-3.865-0.588v8.357h-3.611V123.18h0.043c0.979-0.279,2.148-0.51,3.506-0.693
		c1.357-0.182,2.611-0.271,3.76-0.271C513.373,122.215,516.705,125.91,516.705,133.303z M511.496,140.17
		c1.176-1.219,1.764-3.367,1.764-6.447c0-3.137-0.588-5.328-1.764-6.574c-1.176-1.244-2.799-1.869-4.871-1.869
		c-1.176,0-2.381,0.154-3.613,0.463v15.791c1.094,0.309,2.199,0.463,3.318,0.463C508.6,141.996,510.321,141.387,511.496,140.17z"/>
	<path fill="#7E8185" d="M534.281,141.617c0.854-0.195,1.883-0.488,3.086-0.881l0.547,2.771c-1.373,0.533-2.562,0.924-3.57,1.176
		s-2.072,0.379-3.191,0.379c-2.939,0-5.285-0.924-7.035-2.771c-1.75-1.85-2.625-4.76-2.625-8.736c0-3.92,0.846-6.783,2.541-8.59
		c1.693-1.807,3.955-2.709,6.783-2.709c2.631,0,4.516,0.715,5.648,2.143c1.135,1.428,1.701,3.402,1.701,5.922
		c0,1.568-0.098,2.855-0.293,3.863l-12.77-0.041c0.141,2.939,0.77,4.971,1.891,6.09c1.119,1.119,2.631,1.68,4.535,1.68
		C532.51,141.912,533.426,141.814,534.281,141.617z M526.826,126.436c-0.953,0.994-1.512,2.682-1.68,5.061l9.701-0.125
		c0.057-0.729,0.084-1.33,0.084-1.807c0-1.484-0.328-2.625-0.986-3.424c-0.658-0.797-1.758-1.197-3.297-1.197
		C529.053,124.943,527.778,125.441,526.826,126.436z"/>
</g>
</svg>
