<?xml version="1.0" encoding="utf-8"?>
<!-- Generator: Adobe Illustrator 15.1.0, SVG Export Plug-In . SVG Version: 6.00 Build 0)  -->
<!DOCTYPE svg PUBLIC "-//W3C//DTD SVG 1.1//EN" "http://www.w3.org/Graphics/SVG/1.1/DTD/svg11.dtd">
<svg version="1.1" id="Botoes" xmlns="http://www.w3.org/2000/svg" xmlns:xlink="http://www.w3.org/1999/xlink" x="0px" y="0px"
	 width="800px" height="125px" viewBox="0 -12.5 800 125" enable-background="new 0 -12.5 800 125" xml:space="preserve">
<g>
	<path fill="#FFFFFF" d="M189.455,36.389h-14.515v29.48h-9.765v-69.75h25.203c7.936,0,13.748,1.613,17.438,4.836
		c3.688,3.225,5.534,8.37,5.534,15.438c0,5.519-1.132,9.843-3.395,12.972c-2.271,3.133-5.852,5.195-10.742,6.186l15.717,30.318
		H204.05L189.455,36.389z M174.947,28.947h15.438c4.65,0,8.075-1.037,10.276-3.114c2.193-2.077,3.302-5.223,3.302-9.439
		c0-4.093-1.104-7.13-3.302-9.114c-2.201-1.983-5.626-2.977-10.276-2.977h-15.438V28.947z"/>
	<path fill="#FFFFFF" d="M271.759,57.312v8.557h-44.175v-69.75h42.501v8.556h-32.829v21.297h30.039v8.184h-30.039v23.158h34.503
		V57.312z"/>
	<path fill="#FFFFFF" d="M322.072-1.648c3.657,1.487,6.345,3.859,8.044,7.114c1.705,3.255,2.562,7.579,2.562,12.974
		c0,5.456-0.854,9.857-2.562,13.207c-1.699,3.353-4.396,5.797-8.091,7.352c-3.688,1.551-8.542,2.32-14.555,2.32h-12.927V65.87
		h-9.858V-3.88h22.785C313.547-3.881,318.413-3.137,322.072-1.648z M319.468,29.646c2.293-2.269,3.438-6.035,3.438-11.3
		c0-3.408-0.479-6.152-1.438-8.23c-0.962-2.076-2.562-3.595-4.79-4.557c-2.232-0.961-5.301-1.441-9.207-1.441h-12.927V33.04h12.927
		C313.175,33.04,317.174,31.909,319.468,29.646z"/>
	<path fill="#FFFFFF" d="M369.874,36.389H355.36v29.48h-9.76v-69.75h25.203c7.936,0,13.748,1.613,17.438,4.836
		c3.688,3.225,5.534,8.37,5.534,15.438c0,5.519-1.132,9.843-3.395,12.972c-2.271,3.133-5.851,5.195-10.742,6.186l15.717,30.318
		h-10.881L369.874,36.389z M355.365,28.947h15.438c4.65,0,8.075-1.037,10.276-3.114c2.193-2.077,3.302-5.223,3.302-9.439
		c0-4.093-1.104-7.13-3.302-9.114c-2.201-1.983-5.626-2.977-10.276-2.977h-15.438V28.947z"/>
	<path fill="#FFFFFF" d="M452.179,57.312v8.557h-44.177v-69.75h42.502v8.556h-32.829v21.297h30.039v8.184h-30.039v23.158h34.504
		V57.312z"/>
	<path fill="#FFFFFF" d="M465.105,50.432c3.348,2.356,6.742,4.277,10.185,5.766c3.439,1.488,6.616,2.232,9.531,2.232
		c3.229,0,5.982-1.023,8.277-3.068c2.293-2.047,3.441-4.711,3.441-7.998c0-2.354-0.651-4.365-1.953-6.045
		c-1.31-1.674-2.937-3.084-4.89-4.229c-1.946-1.146-4.566-2.465-7.854-3.949c-3.972-1.861-7.161-3.535-9.579-5.021
		c-2.418-1.487-4.48-3.471-6.188-5.951c-1.705-2.479-2.562-5.518-2.562-9.114c0-3.781,0.944-7.052,2.836-9.812
		c1.896-2.758,4.437-4.866,7.627-6.324c3.192-1.456,6.742-2.185,10.647-2.185c3.281,0,6.318,0.496,9.109,1.487
		c2.789,0.993,5.646,2.354,8.562,4.092l-2.517,7.626c-5.768-3.036-10.881-4.557-15.347-4.557c-3.348,0-6.062,0.822-8.138,2.465
		c-2.078,1.644-3.115,3.892-3.115,6.742c0,2.046,0.589,3.799,1.77,5.255c1.182,1.457,2.648,2.696,4.418,3.72
		c1.771,1.024,4.197,2.248,7.305,3.67c4.146,1.922,7.501,3.688,10.044,5.304c2.542,1.612,4.727,3.799,6.557,6.562
		c1.828,2.76,2.743,6.217,2.743,10.365c0,4.096-0.915,7.627-2.743,10.604c-1.83,2.978-4.319,5.238-7.481,6.787
		c-3.16,1.551-6.664,2.324-10.515,2.324c-4.712,0-9.107-0.965-13.204-2.886c-4.094-1.921-7.562-4.097-10.415-6.515L465.105,50.432z"
		/>
	<path fill="#FFFFFF" d="M563.592,57.312v8.557h-44.176v-69.75h42.502v8.556h-32.829v21.297h30.038v8.184h-30.039v23.158h34.504
		V57.312z"/>
	<path fill="#FFFFFF" d="M625.901-3.881v69.75h-9.393l-30.411-53.475l-0.188,53.475h-9.394v-69.75h9.579l30.411,53.568V-3.881
		H625.901z"/>
	<path fill="#FFFFFF" d="M687.281,4.396h-19.53v61.473h-9.854V4.396h-19.53v-8.277h48.918L687.281,4.396L687.281,4.396z"/>
</g>
<g>
	<path fill="#EC1C24" d="M308.412,92.46c0.815,1.152,1.224,2.713,1.224,4.681c0,2.376-0.636,4.152-1.908,5.328
		c-1.272,1.176-3.276,1.764-6.012,1.764h-9.576v-27h8.82c2.688,0,4.638,0.534,5.85,1.602c1.211,1.068,1.818,2.767,1.818,5.095
		c0,1.704-0.33,3.06-0.99,4.067c-0.661,1.009-1.734,1.717-3.222,2.124C306.263,90.528,307.595,91.309,308.412,92.46z
		 M293.364,78.349v11.304h7.524c2.328,0,3.996-0.455,5.004-1.368c1.008-0.911,1.512-2.363,1.512-4.355
		c0-1.944-0.498-3.36-1.494-4.248c-0.996-0.888-2.718-1.332-5.166-1.332H293.364z M306.792,101.568
		c1.08-0.983,1.62-2.448,1.62-4.392c0-2.136-0.552-3.727-1.656-4.771s-2.868-1.565-5.292-1.565h-8.1v12.203h8.136
		C303.948,103.044,305.712,102.553,306.792,101.568z"/>
	<path fill="#EC1C24" d="M328.356,85.513l-9,25.92h-1.26l2.52-7.236L314.1,85.513h1.332l5.796,17.208l5.868-17.208H328.356z"/>
	<path fill="#EC1C24" d="M342.539,104.557c-0.625-0.072-1.116-0.168-1.476-0.288l0.252-1.08c0.912,0.192,1.812,0.288,2.7,0.288
		c1.344,0,2.298-0.401,2.862-1.206c0.564-0.804,0.846-2.034,0.846-3.69V77.232h1.26V98.58c0,2.064-0.378,3.595-1.134,4.591
		s-1.975,1.493-3.654,1.493C343.715,104.664,343.163,104.629,342.539,104.557z"/>
	<path fill="#EC1C24" d="M369.466,85.513v18.72h-1.224v-2.088c-2.208,1.488-4.417,2.231-6.624,2.231
		c-1.272,0-2.263-0.203-2.97-0.611c-0.708-0.408-1.224-1.086-1.548-2.034c-0.324-0.948-0.486-2.273-0.486-3.979V85.477h1.26v11.988
		c0,1.56,0.12,2.748,0.36,3.563c0.24,0.816,0.648,1.386,1.224,1.71s1.392,0.486,2.448,0.486c1.8,0,3.912-0.685,6.336-2.052v-15.66
		H369.466z"/>
	<path fill="#EC1C24" d="M375.982,100.236c0.672,0.96,1.62,1.723,2.844,2.286c1.224,0.564,2.436,0.846,3.636,0.846
		c1.344,0,2.49-0.371,3.438-1.116c0.948-0.743,1.422-1.812,1.422-3.203c0-0.888-0.252-1.603-0.756-2.143s-1.116-0.941-1.836-1.206
		c-0.72-0.264-1.704-0.552-2.952-0.864c-1.272-0.312-2.292-0.605-3.06-0.882c-0.769-0.275-1.411-0.695-1.926-1.26
		c-0.516-0.563-0.774-1.326-0.774-2.286c0-1.031,0.3-1.932,0.9-2.7c0.6-0.768,1.38-1.355,2.34-1.764s1.98-0.612,3.06-0.612
		c1.992,0,3.816,0.685,5.472,2.053l-0.468,0.863c-0.72-0.552-1.507-0.983-2.358-1.296c-0.852-0.312-1.722-0.468-2.61-0.468
		c-1.417,0-2.628,0.366-3.636,1.098c-1.008,0.732-1.512,1.65-1.512,2.754c0,0.697,0.216,1.255,0.648,1.675s0.966,0.744,1.602,0.972
		c0.636,0.229,1.53,0.475,2.682,0.738c1.368,0.312,2.478,0.624,3.33,0.936c0.852,0.312,1.571,0.811,2.16,1.494
		c0.588,0.684,0.882,1.602,0.882,2.754c0,1.752-0.564,3.127-1.692,4.122c-1.128,0.996-2.58,1.494-4.356,1.494
		c-1.368,0-2.706-0.3-4.014-0.9c-1.309-0.6-2.358-1.451-3.15-2.556L375.982,100.236z"/>
	<path fill="#EC1C24" d="M402.045,104.16c-0.912,0.168-1.776,0.252-2.591,0.252c-2.064,0-3.492-0.581-4.284-1.746
		c-0.792-1.163-1.188-3.029-1.188-5.598V86.484h-2.016v-0.972h2.016v-4.645h1.188v4.645h5.472v0.972h-5.472v10.62
		c0,1.536,0.138,2.754,0.414,3.654c0.276,0.899,0.744,1.56,1.404,1.979c0.66,0.42,1.566,0.63,2.718,0.63
		c0.696,0,1.416-0.048,2.16-0.144L402.045,104.16z"/>
	<path fill="#EC1C24" d="M416.498,80.202c-0.229-0.228-0.342-0.497-0.342-0.81c0-0.312,0.113-0.576,0.342-0.792
		s0.498-0.324,0.811-0.324c0.287,0,0.545,0.108,0.773,0.324s0.342,0.48,0.342,0.792c0,0.312-0.113,0.582-0.342,0.81
		c-0.229,0.229-0.486,0.342-0.773,0.342C416.996,80.544,416.727,80.431,416.498,80.202z M416.66,85.513h1.225v18.72h-1.225V85.513z"
		/>
	<path fill="#EC1C24" d="M437.397,85.944c0.721,0.408,1.242,1.093,1.566,2.052c0.324,0.961,0.486,2.28,0.486,3.96v12.276h-1.261
		V92.316c0-1.56-0.12-2.748-0.36-3.564c-0.24-0.815-0.647-1.386-1.224-1.71c-0.576-0.323-1.392-0.485-2.448-0.485
		c-2.16,0-4.488,0.708-6.984,2.124v15.552h-1.223v-18.72h1.223v2.231c2.305-1.607,4.717-2.412,7.236-2.412
		C435.68,85.332,436.676,85.536,437.397,85.944z"/>
	<path fill="#EC1C24" d="M472.64,78.349h-8.136v25.884h-1.26V78.349h-8.137v-1.116h17.532V78.349z"/>
	<path fill="#EC1C24" d="M490.244,85.513l-9,25.92h-1.26l2.52-7.236l-6.516-18.684h1.332l5.795,17.208l5.869-17.208H490.244z"/>
	<path fill="#EC1C24" d="M506.785,87.547c1.451,1.476,2.178,3.894,2.178,7.254c0,3.6-0.744,6.132-2.232,7.596
		s-3.336,2.22-5.543,2.268c-1.488,0.072-2.93-0.048-4.32-0.359v7.128h-1.225V85.872c0.625-0.191,1.381-0.329,2.268-0.414
		c0.889-0.083,1.729-0.126,2.521-0.126C503.215,85.332,505.332,86.07,506.785,87.547z M505.992,101.406
		c1.164-1.355,1.746-3.497,1.746-6.426c0-2.928-0.588-5.082-1.764-6.462s-3.037-2.07-5.58-2.07c-1.176,0-2.352,0.12-3.527,0.36
		v16.308c0.672,0.168,1.307,0.282,1.908,0.342c0.6,0.061,1.295,0.078,2.088,0.055C503.119,103.465,504.828,102.763,505.992,101.406z
		"/>
	<path fill="#EC1C24" d="M526.963,102.396l0.215,1.008c-1.08,0.432-1.998,0.744-2.754,0.937c-0.756,0.191-1.529,0.288-2.32,0.288
		c-2.305,0-4.172-0.793-5.6-2.377s-2.141-4.055-2.141-7.416c0-3.263,0.684-5.663,2.051-7.199c1.369-1.536,3.156-2.305,5.365-2.305
		c1.967,0,3.383,0.576,4.248,1.729c0.863,1.152,1.295,2.784,1.295,4.896c0,0.841-0.061,1.765-0.18,2.772l-11.52,0.107
		c0,3.024,0.6,5.221,1.799,6.589c1.201,1.367,2.76,2.052,4.682,2.052C523.543,103.477,525.162,103.116,526.963,102.396z
		 M517.422,88.248c-1.055,1.225-1.643,3.085-1.764,5.58l10.332-0.18c0.072-0.624,0.107-1.271,0.107-1.944
		c0-1.703-0.336-3.012-1.008-3.924s-1.799-1.368-3.383-1.368C519.906,86.412,518.479,87.024,517.422,88.248z"/>
</g>
</svg>
