<?xml version="1.0" encoding="utf-8"?>
<!-- Generator: Adobe Illustrator 15.1.0, SVG Export Plug-In . SVG Version: 6.00 Build 0)  -->
<!DOCTYPE svg PUBLIC "-//W3C//DTD SVG 1.1//EN" "http://www.w3.org/Graphics/SVG/1.1/DTD/svg11.dtd">
<svg version="1.1" id="Gif_2" xmlns="http://www.w3.org/2000/svg" xmlns:xlink="http://www.w3.org/1999/xlink" x="0px" y="0px"
	 width="800px" height="450px" viewBox="0 0 800 450" enable-background="new 0 0 800 450" xml:space="preserve">
<g>
	<path fill="#ED1C24" d="M567.822,30.09v111.541h-24.06V71.219l-68.984,68.97c13.342,16.706,20.592,37.29,20.592,58.996
		c0,25.33-9.868,49.165-27.791,67.052c-15.052,15.057-34.256,24.422-55.037,27.037v47.611h54.916v24.072h-54.914v54.896H388.45
		v-54.896h-54.881v-24.073h54.881v-47.619c-20.762-2.626-39.965-11.991-55.007-27.028c-17.887-17.887-27.757-41.722-27.757-67.052
		c0-21.34,7.005-41.593,19.904-58.146l-13.96-13.965l-24.826,24.838l-17.039-17.034l24.841-24.839l-38.832-38.82v70.412h-24.094
		V30.113h112.907v24.073h-71.728l38.78,38.816l24.837-24.851l17.029,17.03l-24.849,24.858l13.995,14.007
		c16.516-12.767,36.673-19.682,57.879-19.682c20.838,0,40.645,6.683,56.994,19.031l69.168-69.211h-71.737V30.09H567.822z
		 M471.278,199.185c0-39.015-31.733-70.751-70.747-70.751c-39.021,0-70.754,31.737-70.754,70.751
		c0,38.985,31.733,70.767,70.754,70.767C439.544,269.951,471.278,238.172,471.278,199.185z"/>
</g>
</svg>
