<?xml version="1.0" encoding="utf-8"?>
<!-- Generator: Adobe Illustrator 15.1.0, SVG Export Plug-In . SVG Version: 6.00 Build 0)  -->
<!DOCTYPE svg PUBLIC "-//W3C//DTD SVG 1.1//EN" "http://www.w3.org/Graphics/SVG/1.1/DTD/svg11.dtd">
<svg version="1.1" id="Layer_1" xmlns="http://www.w3.org/2000/svg" xmlns:xlink="http://www.w3.org/1999/xlink" x="0px" y="0px"
	 width="800px" height="95px" viewBox="12 0 800 95" enable-background="new 12 0 800 95" xml:space="preserve">
<g id="Resultado" display="none">
	<rect x="118.5" y="236.406" display="inline" fill="#939598" width="563" height="92.258"/>
	<g display="inline">
		<rect x="0" y="17.5" fill="none" width="800" height="337"/>
		<text transform="matrix(1 0 0 1 204.1526 97.498)" fill="#ED1C24" font-family="'SuitSansPro-Heavy'" font-size="100">9 certos</text>
		<text transform="matrix(1 0 0 1 171.803 194.4971)" fill="#939598" font-family="'SuitSansPro-Heavy'" font-size="100">6 errados</text>
	</g>
	<rect x="0" y="256.49" display="inline" fill="none" width="800" height="82.5"/>
	
		<text transform="matrix(1 0 0 1 161.2932 304.4922)" display="inline" fill="#FFFFFF" font-family="'SuitSansPro-Heavy'" font-size="60">JOGUE DE NOVO</text>
	<path display="inline" fill="#FFFFFF" d="M66.22,402.35V370.65l22.43-22.543h31.7l22.544,22.543v31.699l-22.544,22.432h-6.409
		V397.43h9.271l1.482-11.215H113.94v-9.498l2.403-2.404h8.583v-10.871h-14.762l-7.558,7.553v15.229H93.8v11.213h8.812v27.352H88.65
		L66.22,402.35z"/>
	<path display="inline" fill="#FFFFFF" d="M657.106,402.35V370.65l22.43-22.543h31.7l22.544,22.543v31.699l-22.544,22.432h-31.7
		L657.106,402.35z M701.617,411.275l17.737-17.852l0.115-10.529v-4.348l4.92-4.355l-5.607,0.346l4.011-4.922l-6.064,1.723
		l-3.434-3.205h-8.584l-6.185,6.061v6.643h-10.979L673.93,367.33v11.561l5.721,5.836l-6.064-1.604v3.436l8.016,8.01h-5.15
		l6.981,6.865h4.462l-4.577,4.58h-12.131l5.265,5.262H701.617L701.617,411.275z"/>
</g>
<g>
	<path fill="#ED1C24" d="M287.611,42.783h-10.38v33.6h-13.979v-33.6h-10.44V31.383h34.8L287.611,42.783L287.611,42.783z"/>
	<path fill="#ED1C24" d="M307.35,60.184h-1.26v16.199h-13.68v-45h16.38c4.52,0,8.08,0.479,10.68,1.438
		c2.6,0.961,4.479,2.49,5.64,4.591c1.16,2.101,1.74,4.971,1.74,8.608c0,3.48-0.54,6.231-1.62,8.25c-1.08,2.021-2.84,3.49-5.28,4.41
		l8.463,17.699H313.89L307.35,60.184z M306.09,41.583v9.601h2.7c1.8,0,3.06-0.351,3.777-1.051c0.723-0.699,1.08-1.949,1.08-3.75
		c0-1.76-0.357-3-1.08-3.72c-0.72-0.722-1.979-1.08-3.777-1.08H306.09z"/>
	<path fill="#ED1C24" d="M368.429,31.383l-12.84,26.4v18.6h-13.98v-18.6l-12.897-26.4h14.76l5.28,14.52l5.22-14.52H368.429z"/>
	<path fill="#ED1C24" d="M411.209,69.423h-9.9l-1.32,6.96H385.83l11.76-45h17.277l11.881,45H412.59L411.209,69.423z M409.229,59.223
		l-3-15.539l-2.939,15.539H409.229z"/>
	<path fill="#ED1C24" d="M465.149,73.923c-2.279,1.16-5.051,2.001-8.311,2.521c-3.263,0.521-6.29,0.779-9.09,0.779
		c-4.603,0-8.343-0.771-11.223-2.31c-2.88-1.54-5.01-3.96-6.39-7.261c-1.381-3.301-2.07-7.609-2.07-12.93
		c0-8.322,1.74-14.441,5.221-18.361c3.479-3.92,8.979-5.881,16.5-5.881c5.119,0,10.039,0.939,14.763,2.82l-1.74,10.68
		c-1.32-0.561-3.102-1.051-5.34-1.471c-2.24-0.42-4.342-0.63-6.301-0.63c-2.32,0-4.119,0.382-5.399,1.14
		c-1.28,0.762-2.2,2.012-2.761,3.75c-0.562,1.74-0.84,4.169-0.84,7.292c0,2.879,0.229,5.141,0.688,6.777
		c0.46,1.643,1.22,2.812,2.28,3.512c1.059,0.701,2.51,1.051,4.35,1.051c1.2,0,2.521-0.08,3.96-0.239v-5.222h-6.06v-10.5h17.76
		L465.149,73.923L465.149,73.923z"/>
	<path fill="#ED1C24" d="M494.129,69.423h-9.9l-1.32,6.96h-14.16l11.763-45h17.278l11.879,45H495.51L494.129,69.423z
		 M492.149,59.223l-3-15.539l-2.939,15.539H492.149z"/>
	<path fill="#ED1C24" d="M514.468,31.383h13.979v45h-13.979V31.383z"/>
	<path fill="#ED1C24" d="M572.488,31.383v45h-13.14l-10.562-21.42v21.42h-13.14v-45h13.14l10.562,22.2v-22.2H572.488z"/>
</g>
</svg>
