<?xml version="1.0" encoding="utf-8"?>
<!-- Generator: Adobe Illustrator 15.1.0, SVG Export Plug-In . SVG Version: 6.00 Build 0)  -->
<!DOCTYPE svg PUBLIC "-//W3C//DTD SVG 1.1//EN" "http://www.w3.org/Graphics/SVG/1.1/DTD/svg11.dtd">
<svg version="1.1" id="Layer_1" xmlns="http://www.w3.org/2000/svg" xmlns:xlink="http://www.w3.org/1999/xlink" x="0px" y="0px"
	 width="220px" height="125px" viewBox="10 0 220 125" enable-background="new 10 0 220 125" xml:space="preserve">
<g id="Resultado" display="none">
	<rect x="118.5" y="236.406" display="inline" fill="#939598" width="563" height="92.258"/>
	<g display="inline">
		<rect y="17.5" fill="none" width="800" height="337"/>
		<text transform="matrix(1 0 0 1 204.1523 97.498)" fill="#ED1C24" font-family="'SuitSansPro-Heavy'" font-size="100">9 certos</text>
		<text transform="matrix(1 0 0 1 171.8027 194.498)" fill="#939598" font-family="'SuitSansPro-Heavy'" font-size="100">6 errados</text>
	</g>
	<rect y="256.49" display="inline" fill="none" width="800" height="82.5"/>
	
		<text transform="matrix(1 0 0 1 161.293 304.4922)" display="inline" fill="#FFFFFF" font-family="'SuitSansPro-Heavy'" font-size="60">JOGUE DE NOVO</text>
	<path display="inline" fill="#FFFFFF" d="M66.22,402.35V370.65l22.43-22.543h31.7l22.544,22.543v31.699l-22.544,22.432h-6.409
		V397.43h9.271l1.485-11.215H113.94v-9.498l2.403-2.404h8.583v-10.871h-14.762l-7.555,7.553v15.227H93.8v11.213h8.812v27.352H88.65
		L66.22,402.35z"/>
	<path display="inline" fill="#FFFFFF" d="M657.105,402.35V370.65l22.43-22.543h31.701l22.543,22.543v31.699l-22.543,22.432h-31.701
		L657.105,402.35z M701.619,411.275l17.738-17.852l0.115-10.529v-4.348l4.92-4.354l-5.607,0.346l4.008-4.922l-6.064,1.721
		l-3.434-3.205h-8.584l-6.182,6.061v6.643h-10.982L673.93,367.33v11.561l5.721,5.836l-6.064-1.604v3.436l8.016,8.01h-5.15
		l6.982,6.865h4.461l-4.576,4.58h-12.131l5.264,5.262H701.619z"/>
</g>
<path fill="#FFFFFF" d="M83.604,79.102v-31.7l22.43-22.545h31.698l22.545,22.545v31.7l-22.545,22.43h-31.698L83.604,79.102z
	 M128.117,88.027l17.736-17.854l0.115-10.528v-4.349l4.92-4.353l-5.607,0.346l4.008-4.921l-6.062,1.719l-3.436-3.205h-8.584
	l-6.182,6.062v6.642h-10.982l-13.615-13.505v11.561l5.721,5.836l-6.064-1.603v3.435l8.014,8.01h-5.15l6.98,6.865h4.463l-4.578,4.58
	H97.68l5.266,5.262H128.117L128.117,88.027z"/>
</svg>
